<?xml version="1.0" encoding="UTF-8" standalone="no"?>
<!-- Created with Inkscape (http://www.inkscape.org/) -->

<svg
   version="1.1"
   id="svg2204"
   width="1440"
   height="1440"
   viewBox="0 0 1440 1440"
   sodipodi:docname="PartDesign_Chamfer.svg"
   inkscape:version="1.1.2 (b8e25be833, 2022-02-05)"
   xmlns:inkscape="http://www.inkscape.org/namespaces/inkscape"
   xmlns:sodipodi="http://sodipodi.sourceforge.net/DTD/sodipodi-0.dtd"
   xmlns="http://www.w3.org/2000/svg"
   xmlns:svg="http://www.w3.org/2000/svg">
  <defs
     id="defs2208" />
  <sodipodi:namedview
     id="namedview2206"
     pagecolor="#505050"
     bordercolor="#eeeeee"
     borderopacity="1"
     inkscape:pageshadow="0"
     inkscape:pageopacity="0"
     inkscape:pagecheckerboard="0"
     showgrid="false"
     inkscape:zoom="0.58402778"
     inkscape:cx="679.76219"
     inkscape:cy="720"
     inkscape:window-width="1920"
     inkscape:window-height="1028"
     inkscape:window-x="-6"
     inkscape:window-y="-6"
     inkscape:window-maximized="1"
     inkscape:current-layer="g2210" />
  <g
     inkscape:groupmode="layer"
     inkscape:label="Image"
     id="g2210">
    <g
       id="g2461"
       transform="translate(-0.89649625,-22.714641)">
      <path
         style="fill:#e0f4f9;stroke-width:1.33333"
         d="M 826.66667,454.17176 C 705.67415,412.07431 708,412.90405 708,411.83763 c 0,-0.46908 5.55,-1.17155 12.33333,-1.56104 6.78334,-0.38948 19.53334,-1.62035 28.33334,-2.73526 42.88521,-5.43329 129.31188,-6.16386 184.66666,-1.561 55.74522,4.63534 114.92457,13.66468 135.13637,20.61855 3.8565,1.32685 10.7285,2.84381 15.2711,3.37104 8.1594,0.947 10.4626,2.40132 5.9259,3.74188 -1.2834,0.37921 -18.8334,6.48632 -39,13.57136 -67.43799,23.69257 -120.82422,42.05084 -122.08486,41.98208 -0.68668,-0.0374 -46.54851,-15.82951 -101.91517,-35.09348 z"
         id="path2553" />
      <path
         style="fill:#def4f9;stroke-width:1.33333"
         d="m 1092,432.24203 c 0,-0.72244 -3.7167,-1.7449 -8.2592,-2.27211 -4.5426,-0.52723 -11.4146,-2.04419 -15.2711,-3.37104 -20.2118,-6.95387 -79.39115,-15.98321 -135.13637,-20.61855 -55.32058,-4.60001 -141.67618,-3.87342 -184.66666,1.55378 -8.8,1.11092 -21.4,2.34573 -28,2.74402 -6.6,0.39828 -12.3,1.18566 -12.66667,1.74971 -0.58932,0.90656 -40.24856,-12.60283 -170.9448,-58.23004 -20.31964,-7.09376 -36.66893,-13.34409 -36.33177,-13.88964 0.33716,-0.54553 3.21676,-1.87907 6.3991,-2.9634 3.18235,-1.08433 8.60376,-4.12229 12.04759,-6.75103 7.81305,-5.96384 38.98171,-21.30185 60.16321,-29.60616 12.67212,-4.96817 20.10402,-6.91894 35.73151,-9.37908 71.60037,-11.27154 157.63459,-16.24733 238.84369,-13.81353 36.13358,1.08292 89.05147,4.28087 98.09147,5.92791 1.83333,0.33401 10.67064,1.25304 19.63845,2.04228 15.57356,1.37058 18.20572,2.08457 58.66665,15.91352 63.2235,21.60886 220.8361,76.08476 221.2077,76.4564 0.1781,0.17806 -35.0933,12.61053 -78.3808,27.62768 -43.2876,15.01716 -79.2508,27.50392 -79.9183,27.74836 -0.6676,0.24445 -1.2137,-0.14664 -1.2137,-0.86908 z"
         id="path2551" />
      <path
         style="fill:#dcf2f8;stroke-width:1.33333"
         d="m 1200,396.22495 c 1.1,-0.67964 3.5,-1.63694 5.3333,-2.12734 2.3167,-0.61966 2.7234,-0.5147 1.3334,0.34411 -1.1,0.67964 -3.5,1.63693 -5.3334,2.12733 -2.3166,0.61967 -2.7233,0.51471 -1.3333,-0.3441 z m -552,-2.89162 c -1.1,-0.71088 -1.4,-1.29249 -0.66667,-1.29249 0.73334,0 2.23334,0.58161 3.33334,1.29249 1.1,0.71088 1.4,1.2925 0.66666,1.2925 -0.73333,0 -2.23333,-0.58162 -3.33333,-1.2925 z m 586.6667,-9.10838 c 1.1,-0.67964 3.5,-1.63694 5.3333,-2.12734 2.3166,-0.61966 2.7233,-0.5147 1.3333,0.34411 -1.1,0.67964 -3.5,1.63693 -5.3333,2.12733 -2.3166,0.61967 -2.7233,0.51471 -1.3333,-0.3441 z m -621.33337,-2.89162 c -1.1,-0.71088 -1.4,-1.29249 -0.66666,-1.29249 0.73333,0 2.23333,0.58161 3.33333,1.29249 1.1,0.71088 1.4,1.2925 0.66667,1.2925 -0.73334,0 -2.23334,-0.58162 -3.33334,-1.2925 z m 637.33337,-4 c -1.1,-0.71088 -1.4,-1.29249 -0.6667,-1.29249 0.7333,0 2.2333,0.58161 3.3333,1.29249 1.1,0.71088 1.4,1.2925 0.6667,1.2925 -0.7333,0 -2.2333,-0.58162 -3.3333,-1.2925 z m -667.75003,-6.24414 c -3.16251,-1.1185 -5.51426,-2.26939 -5.22611,-2.55752 0.60833,-0.60834 12.97611,3.45226 12.97611,4.26033 0,0.83492 -1.51715,0.50157 -7.75,-1.70281 z m 643.33333,-2 c -4.2625,-1.48516 -7.5167,-2.93363 -7.2315,-3.21882 0.6063,-0.6063 16.9815,4.77964 16.9815,5.58536 0,0.8698 -1.5212,0.50056 -9.75,-2.36654 z m -676,-9.33334 c -4.26249,-1.48516 -7.51667,-2.93362 -7.23148,-3.21881 0.60631,-0.60631 16.98148,4.77964 16.98148,5.58536 0,0.8698 -1.5212,0.50056 -9.75,-2.36655 z m 641.3333,-2.66666 c -4.2625,-1.48516 -7.5166,-2.93363 -7.2314,-3.21882 0.6063,-0.6063 16.9814,4.77964 16.9814,5.58536 0,0.8698 -1.5212,0.50056 -9.75,-2.36654 z m -673.99997,-8.66667 c -5.3625,-1.85183 -9.51378,-3.60317 -9.22509,-3.89187 0.5652,-0.56521 19.63107,5.68088 20.74704,6.79686 1.22755,1.22754 -1.67189,0.49652 -11.52195,-2.90499 z m 637.33337,-4 c -5.3625,-1.85183 -9.5138,-3.60317 -9.2251,-3.89187 0.5652,-0.56521 19.631,5.68088 20.747,6.79686 1.2276,1.22754 -1.6719,0.49652 -11.5219,-2.90499 z M 450.36553,324.96573 c -29.86562,-10.39324 -53.86562,-19.28857 -53.33333,-19.7674 0.53229,-0.47882 73.62288,-25.9051 162.42353,-56.50284 l 161.45572,-55.63225 168.87731,58.35756 c 92.88252,32.09667 168.66824,58.5666 168.41284,58.82209 -0.2555,0.25548 -16.1189,-4.9101 -35.252,-11.47908 -32.68244,-11.22089 -35.78059,-12.03102 -51.20183,-13.38861 -9.02793,-0.79476 -17.91444,-1.71832 -19.74777,-2.05233 -9.04,-1.64704 -61.95789,-4.84499 -98.09147,-5.92791 -81.2091,-2.4338 -167.24332,2.54199 -238.84369,13.81353 -15.62749,2.46014 -23.05939,4.41091 -35.73151,9.37908 -21.71618,8.51394 -52.16993,23.57187 -60.82469,30.07492 -3.90695,2.93563 -7.58896,5.33751 -8.18225,5.33751 -0.59328,0 -3.30943,0.9454 -6.03588,2.10088 l -4.95718,2.10088 4,1.79083 c 10.49763,4.69986 -3.03692,0.34909 -52.9678,-17.02686 z m 665.88447,6.12346 c -5.3625,-1.85183 -9.5138,-3.60318 -9.2251,-3.89187 0.5652,-0.56521 19.6311,5.68088 20.747,6.79685 1.2276,1.22755 -1.6718,0.49652 -11.5219,-2.90498 z m -34.6667,-12 c -5.3625,-1.85183 -9.5138,-3.60318 -9.2251,-3.89187 0.5652,-0.56521 19.6311,5.68088 20.7471,6.79685 1.2275,1.22755 -1.6719,0.49652 -11.522,-2.90498 z"
         id="path2549" />
      <path
         style="fill:#e4e4e4;stroke-width:1.33333"
         d="m 1276.6572,743.33333 c 0,-203.13333 0.1543,-286.03493 0.3428,-184.22577 0.1885,101.80916 0.1885,268.00916 -10e-5,369.33333 -0.1885,101.32421 -0.3427,18.02578 -0.3427,-185.10756 z"
         id="path2547" />
      <path
         style="fill:#b9e0eb;stroke-width:1.33333"
         d="m 928.89596,508.22007 c 2.07389,-3.75139 4.67071,-7.1864 5.77071,-7.63338 5.83277,-2.37004 328.43523,-113.92002 329.45663,-113.92002 1.3611,0 1.6585,32.35581 0.3829,41.66213 -0.8248,6.01787 -0.8384,6.03117 -5.0011,4.88181 -3.6548,-1.00913 -13.2982,-2.22726 -21.5051,-2.71649 -1.4667,-0.0875 -8.3667,-0.72173 -15.3333,-1.40957 -17.6663,-1.74426 -28.1555,-1.46279 -37.7052,1.0118 -8.5306,2.2105 -87.7726,27.67732 -148.9615,47.87329 -19.4333,6.41416 -46.73333,15.25071 -60.66667,19.63679 -13.93333,4.38608 -28.35932,9.69201 -32.05773,11.79097 -3.69843,2.09896 -9.29524,4.22737 -12.43739,4.72983 l -5.71297,0.91353 z"
         id="path2545" />
      <path
         style="fill:#b5dde9;stroke-width:1.33333"
         d="m 885.33333,582.06096 c 0,-0.80156 9.89256,-17.95808 25.97971,-45.0562 l 13.07791,-22.02921 5.97081,-0.81839 c 3.28395,-0.45012 9.04599,-2.56387 12.80452,-4.69721 3.75855,-2.13336 18.23372,-7.46744 32.16705,-11.85352 13.93334,-4.38608 41.23337,-13.22263 60.66667,-19.63679 61.1889,-20.19597 140.4309,-45.66279 148.9615,-47.87329 9.5497,-2.47459 20.0389,-2.75606 37.7052,-1.0118 6.9666,0.68784 13.8666,1.32214 15.3333,1.40957 8.2621,0.49252 17.8638,1.71108 21.5906,2.74011 4.0825,1.12721 4.2815,1.00129 4.7878,-3.02906 0.2905,-2.31284 0.5644,10.49483 0.6086,28.4615 0.044,17.96666 -0.3345,34.15702 -0.8416,35.97858 -0.9149,3.28559 -1.0649,3.31567 -18.8671,3.78431 -9.8697,0.25981 -27.545,-0.18848 -39.2783,-0.99621 -11.7333,-0.80774 -28.2333,-1.73366 -36.6667,-2.05763 -29.9683,-1.15121 -56.7333,-2.34231 -61.3333,-2.72943 -2.5667,-0.21601 -12.7667,-0.75869 -22.6667,-1.20596 -9.9,-0.44726 -20.1,-1.0991 -22.6666,-1.44852 -2.5667,-0.34941 -9.1667,-0.94412 -14.6667,-1.32157 -5.5,-0.37744 -12.4427,-1.03468 -15.4281,-1.46053 -2.9855,-0.42586 -8.0855,-0.0884 -11.3334,0.74992 -12.4767,3.2204 -76.71994,24.35761 -79.5665,26.17885 -1.64707,1.0538 -8.49393,10.15375 -15.21527,20.22209 -12.91052,19.33956 -28.17236,40.29011 -33.00413,45.3061 -2.47311,2.56741 -8.11927,4.2324 -8.11927,2.39429 z"
         id="path2543" />
      <path
         style="fill:#b2dce8;stroke-width:1.33333"
         d="m 860,624.32905 c 0,-0.55236 5.55,-10.30976 12.33333,-21.68312 10.4398,-17.50402 12.775,-20.61337 15.21006,-20.25246 1.68938,0.25038 4.09888,-0.84346 5.83788,-2.65023 4.90294,-5.09404 20.10017,-25.94608 33.07546,-45.38267 6.72134,-10.06834 13.5682,-19.16829 15.21527,-20.22209 2.84656,-1.82124 67.0898,-22.95845 79.5665,-26.17885 3.2479,-0.83831 8.3479,-1.17578 11.3334,-0.74992 2.9854,0.42585 9.9281,1.08309 15.4281,1.46053 5.5,0.37745 12.1,0.97216 14.6667,1.32157 2.5666,0.34942 12.7666,1.00126 22.6666,1.44852 9.9,0.44727 20.1,0.98995 22.6667,1.20596 4.6,0.38712 31.365,1.57822 61.3333,2.72943 8.4334,0.32397 24.9334,1.24989 36.6667,2.05763 11.7333,0.80773 29.4086,1.25602 39.2783,0.99621 17.7833,-0.46813 17.9538,-0.50221 18.9262,-3.78431 0.5397,-1.82156 0.8645,7.2893 0.7218,20.24635 -0.1428,12.95704 -0.6188,23.9162 -1.0577,24.35367 -1.4964,1.49128 -95.3813,0.56161 -121.2019,-1.20018 -4.0334,-0.2752 -15.7334,-1.10013 -26,-1.8332 -10.2667,-0.73305 -27.9667,-1.69229 -39.3334,-2.13164 -11.3666,-0.43934 -24.5666,-1.0928 -29.3333,-1.45213 -4.7667,-0.35933 -15.8667,-0.97168 -24.6667,-1.36077 -8.8,-0.38908 -20.5,-0.95994 -25.99997,-1.26855 -5.5,-0.30861 -21.86773,-0.81393 -36.37274,-1.12292 l -26.37275,-0.5618 -4.43496,5.50963 c -2.43923,3.03029 -13.45696,19.00962 -24.48387,35.50962 -23.10006,34.56558 -35.01976,50.9271 -39.27045,53.90439 C 863.23153,625.45599 860,626.00716 860,624.32905 Z"
         id="path2541" />
      <path
         style="fill:#b0dae6;stroke-width:1.33333"
         d="m 823.9,684.19601 c 1.36524,-2.67608 9.77363,-17.16494 18.68532,-32.19746 11.22579,-18.93604 16.83168,-27.20396 18.24945,-26.91547 5.52918,1.12511 13.19663,-8.40908 44.83424,-55.74975 11.02691,-16.5 22.04464,-32.47933 24.48387,-35.50962 l 4.43496,-5.50963 26.37275,0.5618 c 14.50501,0.30899 30.87274,0.81431 36.37274,1.12292 5.49997,0.30861 17.19997,0.87947 25.99997,1.26855 8.8,0.38909 19.9,1.00144 24.6667,1.36077 4.7667,0.35933 17.9667,1.01279 29.3333,1.45213 11.3667,0.43935 29.0667,1.39859 39.3334,2.13164 10.2666,0.73307 21.9666,1.558 26,1.8332 13.3934,0.91386 99.3841,2.55106 113.5739,2.16238 6.715,-0.18394 7.6395,-0.54768 8.1518,-3.20747 0.9308,-4.83301 0.9962,55.15452 0.066,60.78341 l -0.8454,5.11676 -58.8066,-0.80097 c -86.2677,-1.17501 -114.8847,-1.95271 -126.7269,-3.44392 -5.8228,-0.73324 -21.1228,-1.63888 -34,-2.01255 -12.8772,-0.37366 -31.813,-1.31158 -42.0797,-2.08425 -10.26667,-0.77268 -28.86667,-1.93904 -41.33333,-2.59189 -27.02088,-1.41504 -45.31006,-2.54074 -50.33334,-3.09799 -2.01666,-0.22371 -3.66666,0.15931 -3.66666,0.85116 0,0.69187 -1.297,0.91875 -2.88223,0.5042 -1.58523,-0.41455 -4.01321,-0.14844 -5.39552,0.59135 -3.19731,1.71116 -17.65843,21.21284 -31.03411,41.85136 -13.23698,20.42453 -34.2666,50.02737 -37.51718,52.81196 -1.37736,1.17992 -3.8353,2.46877 -5.46208,2.86413 l -2.95779,0.71884 z"
         id="path2539" />
      <path
         style="fill:#d0d0d0;stroke-width:1.33333"
         d="m 164.65163,882 c 10e-6,-126.13333 0.15674,-177.53588 0.34829,-114.22788 0.19155,63.308 0.19153,166.508 -4e-5,229.33333 C 164.80832,1059.9308 164.6516,1008.1333 164.65163,882 Z"
         id="path2537" />
      <path
         style="fill:#add8e5;stroke-width:1.33333"
         d="m 789.37312,741.66667 c 2.36188,-4.21667 10.5436,-18.25411 18.1816,-31.19431 11.77844,-19.95491 14.2906,-23.42215 16.54344,-22.83303 1.5454,0.40414 3.82453,-0.35098 5.44999,-1.80569 3.58057,-3.20444 24.41365,-32.50171 37.80666,-53.16697 13.37568,-20.63852 27.8368,-40.1402 31.03411,-41.85136 1.38231,-0.73979 3.81029,-1.0059 5.39552,-0.59135 1.58523,0.41455 2.88223,0.18767 2.88223,-0.5042 0,-0.69185 1.65,-1.07487 3.66666,-0.85116 5.02328,0.55725 23.31246,1.68295 50.33334,3.09799 12.46666,0.65285 31.06666,1.81921 41.33333,2.59189 10.2667,0.77267 29.2025,1.71059 42.0797,2.08425 12.8772,0.37367 28.1772,1.27931 34,2.01255 11.8473,1.49187 40.4773,2.26947 126.8204,3.44451 l 58.9001,0.80157 0.5668,-3.78401 c 0.3117,-2.0812 0.5969,10.01598 0.6337,26.88265 0.037,16.86667 -0.3503,32.16667 -0.8602,34 -0.8709,3.13135 -1.5698,3.36776 -11.5338,3.90152 -26.5225,1.42076 -144.1,0.45373 -164.1234,-1.34984 -5.7658,-0.51936 -22.9337,-1.32493 -38.1509,-1.79019 -15.2172,-0.46525 -28.4172,-1.09997 -29.3334,-1.41046 -3.665,-1.24219 -16.3127,-2.06051 -42.999,-2.78212 -15.4,-0.41642 -35.2,-1.33292 -44,-2.03667 -29.48424,-2.35791 -57.27204,-4.25947 -64.24589,-4.39645 -5.95536,-0.11694 -7.4945,0.4181 -11.11495,3.86421 -2.31132,2.2 -15.70067,21.09835 -29.75411,41.99633 -28.50338,42.38559 -36.93422,53.337 -41.06093,53.337 -2.59197,0 -2.50544,-0.4283 1.549,-7.66666 z"
         id="path2535" />
      <path
         style="fill:#aad6e4;stroke-width:1.33333"
         d="m 753.93624,801.66667 c 1.2866,-3.37991 31.60185,-55 32.30019,-55 0.32318,0 0.2168,0.6 -0.23643,1.33333 -0.45323,0.73333 0.38949,1.33333 1.87271,1.33333 4.07108,0 12.6276,-11.12785 41.01234,-53.337 C 842.93849,675.09835 856.32784,656.2 858.63916,654 c 3.62045,-3.44611 5.15959,-3.9812 11.11495,-3.86421 6.97385,0.13698 34.76165,2.03854 64.24589,4.39645 8.8,0.70375 28.6,1.62025 44,2.03667 26.6863,0.72161 39.334,1.53993 42.999,2.78212 0.9162,0.31049 14.1162,0.94521 29.3334,1.41046 15.2172,0.46526 32.3851,1.27083 38.1509,1.79019 20.0234,1.80357 137.6009,2.7706 164.1234,1.34984 9.9453,-0.53275 10.668,-0.77607 11.589,-3.90152 0.5403,-1.83333 0.8672,11.46763 0.7266,29.55771 -0.1406,18.09006 -0.7559,33.39006 -1.3674,34 -1.7212,1.7168 -121.6125,1.23513 -142.2216,-0.57139 -9.9,-0.8678 -25.7888,-1.94509 -35.3084,-2.39399 -9.5196,-0.4489 -17.6196,-1.0016 -18,-1.22821 -0.3804,-0.22663 -8.1916,-0.84043 -17.3582,-1.364 -9.1667,-0.52356 -18.4667,-1.16301 -20.6667,-1.421 -6.8695,-0.80553 -18.9366,-1.90673 -51.33333,-4.68447 -17.23334,-1.47761 -35.83334,-3.23849 -41.33334,-3.91306 -5.5,-0.67458 -18.76976,-1.46139 -29.48836,-1.74848 -10.7186,-0.2871 -20.3186,-1.04523 -21.33333,-1.68474 -1.01473,-0.63949 -4.54497,-1.31669 -7.84497,-1.50488 -3.3,-0.18818 -9.3,-0.61237 -13.33334,-0.94265 -4.03333,-0.33027 -12.13333,-0.9706 -18,-1.42296 -5.86666,-0.45236 -11.48782,-1.09841 -12.49146,-1.43568 -3.22834,-1.08485 -10.72162,8.59576 -34.61486,44.71912 C 777.18859,778.79233 765.715,795.09693 760.08876,801 c -3.48613,3.65767 -7.45477,4.08769 -6.15252,0.66667 z"
         id="path2533" />
      <path
         style="fill:#a8d5e2;stroke-width:1.33333"
         d="m 739.64747,824.83131 c 2.5549,-4.49055 6.4017,-11.25264 8.54844,-15.02687 2.95222,-5.1904 4.50218,-6.70556 6.36202,-6.21921 4.4194,1.1557 12.09927,-8.87084 45.66908,-59.62391 23.89324,-36.12336 31.38652,-45.80397 34.61486,-44.71912 1.00364,0.33727 6.6248,0.98332 12.49146,1.43568 5.86667,0.45236 13.96667,1.09269 18,1.42296 4.03334,0.33028 10.03334,0.75447 13.33334,0.94265 3.3,0.18819 6.83024,0.86539 7.84497,1.50488 1.01473,0.63951 10.61473,1.39764 21.33333,1.68474 10.7186,0.28709 23.98836,1.0739 29.48836,1.74848 5.5,0.67457 24.1,2.43545 41.33334,3.91306 32.39673,2.77774 44.46383,3.87894 51.33333,4.68447 2.2,0.25799 11.5,0.89744 20.6667,1.421 9.1666,0.52357 17.0141,1.15976 17.4387,1.41373 0.4246,0.25399 9.4246,0.83395 20,1.28882 10.5754,0.45485 25.2279,1.44301 32.5613,2.19589 13.8451,1.4214 127.7645,2.66161 137.5909,1.49791 4.7789,-0.56595 5.682,-1.17536 6.2178,-4.19596 0.3448,-1.94362 0.5077,4.38734 0.362,14.06878 -0.1457,9.68144 -0.7189,18.05662 -1.2737,18.61148 -2.3809,2.38088 -146.3617,1.05374 -182.897,-1.68585 -5.1334,-0.38492 -16.8334,-1.22431 -26,-1.86528 -9.1667,-0.64099 -22.0667,-1.76776 -28.6667,-2.50396 -6.6,-0.73619 -22.8,-2.02124 -36,-2.85567 -24.89729,-1.57385 -28.41559,-1.89622 -34,-3.11534 -1.83333,-0.40023 -10.83333,-1.08636 -20,-1.52474 -20.41741,-0.97641 -34.08015,-2.09046 -47.33333,-3.85954 -13.1231,-1.75172 -20.31159,-2.19154 -42.04692,-2.57252 -12.12582,-0.21256 -22.92546,-0.92943 -23.9992,-1.59304 -2.8143,-1.73934 -9.53882,-0.76035 -12.47516,1.81617 -1.38671,1.21679 -11.83338,16.31233 -23.21482,33.54567 -24.35844,36.88261 -40.36713,59.84332 -43.79934,62.81988 -1.35551,1.17556 -3.73907,2.44608 -5.29682,2.82338 -2.60305,0.6305 -2.45633,0.0253 1.81306,-7.47862 z"
         id="path2531" />
      <path
         style="fill:#a6d4e1;stroke-width:1.33333"
         d="m 726.66667,853.52905 c 0,-6.61462 0.69981,-9.36604 3.53261,-13.88888 1.94293,-3.10209 4.04668,-5.84141 4.67497,-6.08738 0.6283,-0.24598 0.82884,-0.95451 0.44564,-1.57454 -0.3832,-0.62002 0.005,-1.56149 0.86438,-2.09213 0.97496,-0.60256 1.20389,-0.38685 0.60972,0.57453 -1.97062,3.18852 4.13177,1.44044 7.4263,-2.12732 4.75686,-5.15136 18.63628,-25.18701 42.71875,-61.66666 11.37679,-17.23334 21.81964,-32.32888 23.20635,-33.54567 2.93634,-2.57652 9.66086,-3.55551 12.47516,-1.81617 1.07374,0.66361 11.87338,1.38048 23.9992,1.59304 21.73533,0.38098 28.92382,0.8208 42.04692,2.57252 13.25318,1.76908 26.91592,2.88313 47.33333,3.85954 9.16667,0.43838 18.16667,1.12451 20,1.52474 5.58441,1.21912 9.10271,1.54149 34,3.11534 13.2,0.83443 29.4,2.12082 36,2.85864 13.7648,1.5388 38.9829,3.45228 59.3333,4.50206 7.7,0.3972 19.1,1.02725 25.3334,1.40012 23.6246,1.41316 104.7482,2.23096 128.4622,1.29501 l 24.7213,-0.97571 0.6026,-3.52506 c 0.3314,-1.93879 0.5151,9.17582 0.4082,24.69914 -0.1069,15.52331 -0.4943,28.52196 -0.861,28.88588 -0.8494,0.84308 -28.7481,3.00992 -64.6667,5.02255 -40.1053,2.24723 -186.1827,-0.12627 -212.66663,-3.45537 -20.43396,-2.56864 -29.75687,-3.45108 -50.22231,-4.75366 -12.58893,-0.80125 -26.38893,-2.04389 -30.66667,-2.76141 -7.93738,-1.33136 -37.74926,-4.16971 -60.33964,-5.74484 -6.90906,-0.48173 -13.16445,-1.24827 -13.90086,-1.7034 -0.73642,-0.45512 -6.48354,-1.32069 -12.77139,-1.92349 -12.73875,-1.22123 -17.19397,-1.82663 -28.58749,-3.88458 -7.33736,-1.3253 -8.02823,-1.22165 -11.15728,1.67399 -1.83458,1.69773 -14.1328,19.28679 -27.3294,39.08679 -13.19659,19.8 -24.22582,36.25 -24.50939,36.55556 -0.28356,0.30554 -0.51557,-3.15638 -0.51557,-7.69318 z"
         id="path2529" />
      <path
         style="fill:#a4d2e0;stroke-width:1.33333"
         d="m 726.66667,864.08175 c 0,-2.50223 48.00005,-74.4801 52.35073,-78.50187 3.13232,-2.89552 3.82387,-2.99924 11.16091,-1.67399 11.39352,2.05795 15.84874,2.66335 28.58749,3.88458 6.28785,0.6028 12.03497,1.46837 12.77139,1.92349 0.73641,0.45513 6.9918,1.22167 13.90086,1.7034 22.59038,1.57513 52.40226,4.41348 60.33964,5.74484 4.27774,0.71752 18.07774,1.96445 30.66667,2.77096 19.94415,1.27772 36.83569,2.88329 50.88897,4.83712 26.10387,3.62921 190.14287,5.17397 234.66667,2.20985 41.9551,-2.7931 41.7575,-2.76136 42.4634,-6.8236 0.3335,-1.91942 0.5157,7.41076 0.4048,20.73375 -0.1108,13.32297 -0.5015,24.49685 -0.8682,24.83084 -2.2548,2.05379 -50.2067,4.03644 -110.6667,4.57568 -66.3432,0.59173 -124.3817,-0.69461 -165.99997,-3.67915 C 977.8,845.934 961,845.04408 950,844.64004 c -11,-0.40403 -21.8,-1.04888 -24,-1.433 -2.2,-0.38412 -7.88248,-1.00931 -12.62772,-1.38931 -4.74525,-0.38 -9.22155,-1.0579 -9.94732,-1.50645 -0.72577,-0.44856 -7.94329,-0.96679 -16.03893,-1.15163 -29.33423,-0.66977 -48.2026,-1.98674 -55.5366,-3.87637 -4.11615,-1.06053 -13.11615,-2.19208 -20,-2.51455 -20.62138,-0.96601 -44.8843,-3.40256 -53.85183,-5.40797 -3.75065,-0.83876 -4.42156,-0.32451 -10.66667,8.17609 -3.66534,4.98912 -9.81426,13.88374 -13.66426,19.76579 -3.85,5.88204 -7,9.83265 -7,8.77911 z"
         id="path2527" />
      <path
         style="fill:#a1d0de;stroke-width:1.33333"
         d="m 726.82521,900.7834 -0.15854,-34.54995 4.25166,-6.78338 c 2.33843,-3.73087 8.47656,-12.68078 13.64031,-19.88867 9.02535,-12.59816 9.54445,-13.07045 13.415,-12.20543 8.99773,2.0109 33.23311,4.44576 53.87579,5.41276 6.88385,0.32247 15.88385,1.45402 20,2.51455 7.334,1.88963 26.20237,3.2066 55.5366,3.87637 8.09564,0.18484 15.31316,0.70307 16.03893,1.15163 0.72577,0.44855 5.20207,1.14063 9.94732,1.53796 4.74524,0.39733 10.72772,1.02893 13.29439,1.40355 2.56666,0.37462 13.06666,0.98474 23.33333,1.35581 10.26667,0.37108 27.36667,1.29143 38,2.04523 54.9512,3.89548 188.0344,5.44034 231.3333,2.68538 47.1785,-3.00181 44.4592,-2.60856 45.0622,-6.51664 0.296,-1.91908 0.6216,6.41076 0.7234,18.51076 0.1018,12.1 -0.189,24.26336 -0.6462,27.0297 -0.7617,4.609 -1.1787,5.01682 -4.9853,4.87581 -2.2847,-0.0847 -10.4541,0.47309 -18.1541,1.23941 -26.5319,2.64052 -34.1014,3.11883 -65.3333,4.12838 -52.4628,1.69581 -117.7496,0.1845 -168.6667,-3.90444 -8.79997,-0.7067 -24.69997,-1.93183 -35.3333,-2.72254 -10.63333,-0.7907 -24.13333,-1.99158 -30,-2.66861 -5.86667,-0.67704 -14.56667,-1.64844 -19.33333,-2.15865 C 917.9,886.64217 913.1,886.03579 912,885.80488 c -2.88511,-0.60564 -13.79873,-1.53496 -37.33333,-3.17903 -22.377,-1.56318 -24.32432,-1.79494 -33.33334,-3.96712 -9.42865,-2.27336 -20.00009,-3.35792 -46,-4.7193 -20.83853,-1.09112 -25.64004,-1.55959 -27.44998,-2.67819 -0.82182,-0.50791 -4.58176,-1.18881 -8.35544,-1.51312 -3.77368,-0.32431 -8.96124,-1.14696 -11.52791,-1.82812 -9.12857,-2.42259 -11.43236,-1.75943 -13.01577,3.74667 -1.62712,5.65804 -3.69026,20.94901 -6.25154,46.33333 l -1.74893,17.33333 z M 725.74649,854 c 0.008,-4.4 0.2564,-6.03925 0.55315,-3.64279 0.29675,2.39647 0.29063,5.99647 -0.0136,8 -0.30424,2.00354 -0.54703,0.0428 -0.53955,-4.35721 z"
         id="path2525" />
      <path
         style="fill:#a0cedd;stroke-width:1.33333"
         d="m 726.83596,957.85347 c -0.21971,-22.68466 4.36476,-71.52424 8.0276,-85.52014 1.63448,-6.24549 3.66375,-6.92724 13.13644,-4.41333 2.56667,0.68116 7.75423,1.50381 11.52791,1.82812 3.77368,0.32431 7.53362,1.00521 8.35544,1.51312 1.80994,1.1186 6.61145,1.58707 27.44998,2.67819 25.99991,1.36138 36.57135,2.44594 46,4.7193 9.00902,2.17218 10.95634,2.40394 33.33334,3.96712 23.5346,1.64407 34.44822,2.57339 37.33333,3.17903 1.1,0.23091 5.9,0.83729 10.66667,1.34751 4.76666,0.51021 13.46666,1.48161 19.33333,2.15865 5.86667,0.67703 19.36667,1.87791 30,2.66861 10.63333,0.79071 26.53333,2.01584 35.3333,2.72254 50.9171,4.08894 116.2039,5.60025 168.6667,3.90444 31.2319,-1.00955 38.8014,-1.48786 65.3333,-4.12838 7.7,-0.76632 15.9086,-1.32141 18.2414,-1.23354 3.6634,0.138 4.3175,-0.34471 4.8002,-3.54247 0.3074,-2.03623 0.6422,2.29776 0.744,9.63109 0.2286,16.46478 -0.7706,23.05903 -3.6208,23.89732 -2.94,0.86472 -67.0708,7.09403 -82.8314,8.04579 -65.0337,3.92729 -145.4688,3.70255 -201.91671,-0.56417 -8.84583,-0.66863 -23.58332,-1.59942 -32.74999,-2.0684 -9.16667,-0.469 -18.46667,-1.08254 -20.66667,-1.36343 -17.5351,-2.23883 -29.56089,-3.26415 -38.66666,-3.29672 C 878.8,923.96279 865,922.70904 854,921.19773 c -11,-1.51129 -30.5,-3.23856 -43.33333,-3.83834 -24.97451,-1.16723 -25.2899,-1.20523 -44.12808,-5.31672 -14.11387,-3.08039 -28.1747,-3.56504 -30.25,-1.04267 -2.11543,2.57113 -4.30872,15.61136 -6.90862,41.07501 l -2.37472,23.25832 z m -1.39736,-94.63124 c 0.064,-1.55327 0.37992,-1.8692 0.80555,-0.80556 0.38516,0.96249 0.3378,2.1125 -0.1052,2.55556 -0.44306,0.44305 -0.75819,-0.34446 -0.7003,-1.75 z M 504.66667,778.71356 c -4.4,-1.32877 -32.3,-9.41464 -62,-17.9686 C 369.7734,739.75083 372.58367,740.63487 245,698.56391 l -69,-22.75288 v -6.49275 -6.49275 l 9,3.10852 c 4.95,1.70968 44.7,15.52538 88.33333,30.70155 43.63334,15.17616 115.61803,40.17628 159.96599,55.55581 44.34796,15.37954 80.89796,28.2281 81.22223,28.55236 1.00432,1.00432 -1.54698,0.47872 -9.85488,-2.03021 z"
         id="path2523" />
      <path
         style="fill:#9dcddc;stroke-width:1.33333"
         d="M 726.82773,1018.6667 C 726.641,970.8118 731.37168,917.08453 736.30776,911 c 2.04708,-2.52336 16.11501,-2.03815 30.23083,1.04267 18.83818,4.11149 19.15357,4.14949 44.12808,5.31672 C 823.5,917.95917 843,919.68644 854,921.19773 c 11,1.51131 24.8,2.765 30.66667,2.78599 9.10577,0.0325 21.13156,1.05789 38.66666,3.29672 2.2,0.28089 11.5,0.89443 20.66667,1.36343 9.16667,0.46898 23.90416,1.39977 32.74999,2.0684 56.44791,4.26672 136.88301,4.49146 201.91671,0.56417 16.0345,-0.96831 79.9179,-7.18819 82.9176,-8.07312 1.238,-0.36523 2.5177,-2.28537 2.8437,-4.26701 0.3261,-1.98164 0.5132,15.69788 0.4158,39.28781 -0.098,23.58993 -0.5839,43.29668 -1.0811,43.79288 -0.4972,0.4961 -2.8972,1.1277 -5.3333,1.4035 -2.4362,0.2759 -5.9294,0.7692 -7.7627,1.0964 -13.4629,2.4023 -39.7135,6.0766 -48,6.7185 -5.5,0.4261 -21.4,1.6869 -35.3334,2.8017 -13.9333,1.1149 -33.1333,2.5085 -42.6666,3.097 -18.2862,1.1286 -132.30169,1.0063 -138.00003,-0.1481 -1.83334,-0.3715 -13.53334,-1.0861 -26,-1.5881 -12.46667,-0.5021 -27.46667,-1.4659 -33.33334,-2.1418 -5.86666,-0.676 -15.16666,-1.5541 -20.66666,-1.9513 -38.87535,-2.808 -62.47715,-4.9579 -65.33334,-5.9513 -1.83333,-0.6376 -9.03333,-1.4901 -16,-1.8943 -25.63274,-1.4873 -31.03314,-2.1465 -50,-6.10336 -3.66666,-0.76493 -13.96518,-2.48828 -22.8856,-3.82967 l -16.21894,-2.43886 -1.47988,5.45634 c -1.81428,6.68925 -2.18498,9.45685 -4.74903,35.45635 -1.12099,11.3667 -2.25993,21.5667 -2.53101,22.6667 -0.27107,1.1 -0.55959,-15.1 -0.64114,-36 z m -0.89174,-105.33337 c 0,-26.76666 0.17793,-37.71666 0.39541,-24.33333 0.21748,13.38333 0.21748,35.28333 0,48.66667 -0.21748,13.38333 -0.39541,2.43333 -0.39541,-24.33334 z M 710.1666,863.35536 c -1.37503,-1.04124 -6.77503,-3.36377 -12,-5.16119 -13.30788,-4.57797 -103.15359,-35.36708 -132.83327,-45.52046 -173.61465,-59.39338 -274.6199,-93.13643 -298.66666,-99.77623 -21.05839,-5.81465 -32.65932,-6.95932 -38.8449,-3.83283 -3.6826,1.86136 -8.07918,2.2398 -24.48844,2.10782 -11,-0.0885 -21.65,-0.23847 -23.66666,-0.33334 L 176,710.66667 v -17.33334 c 0,-9.53333 0.15,-17.33102 0.33333,-17.3282 0.18334,0.003 30.93334,10.10526 68.33334,22.44983 37.4,12.34459 80.6,26.51393 96,31.48745 15.4,4.97352 30.67546,9.90658 33.94548,10.96235 3.27,1.05577 20.67,6.12707 38.66666,11.26956 17.99666,5.14249 47.04578,13.54259 64.55359,18.66688 17.50783,5.12431 32.68899,8.9882 33.73592,8.58645 1.15728,-0.44408 1.54956,-0.15772 1.00063,0.73047 -0.61026,0.9874 0.0696,1.15223 2.09772,0.50855 2.17948,-0.69174 2.72678,-0.50931 2,0.66666 -0.72679,1.17598 -0.17948,1.3584 2,0.66667 2.17948,-0.69173 2.72678,-0.50931 2,0.66667 -0.7185,1.16253 -0.20167,1.36545 1.83302,0.71966 1.64459,-0.52197 2.83364,-0.31973 2.83364,0.48198 0,0.75973 0.9,1.03597 2,0.61386 1.1,-0.42212 2,-0.0679 2,0.7872 0,0.85507 0.46568,1.26687 1.03484,0.91511 0.56918,-0.35176 42.11918,13.5766 92.33334,30.95191 L 714,848.72787 l 0.39696,8.30273 c 0.41469,8.67384 -0.104,9.4494 -4.23036,6.32476 z"
         id="path2521" />
      <path
         style="fill:#99c9d9;stroke-width:1.33333"
         d="m 727.29457,1086 c 0.26974,-22.7522 1.28167,-44.6239 2.59098,-56 2.96057,-25.7235 3.18526,-27.2692 4.86336,-33.45635 l 1.47988,-5.45634 16.21894,2.43886 c 8.92042,1.34139 18.91894,2.99276 22.21894,3.66974 20.62609,4.23129 25.03072,4.77579 50.66666,6.26329 6.96667,0.4042 14.16667,1.2567 16,1.8943 2.85619,0.9934 26.45799,3.1433 65.33334,5.9513 5.5,0.3972 14.8,1.2753 20.66666,1.9513 5.86667,0.6759 20.86667,1.6397 33.33334,2.1418 12.46666,0.502 24.16666,1.2166 26,1.5881 5.69834,1.1544 119.71383,1.2767 138.00003,0.1481 9.5333,-0.5885 28.7333,-1.9821 42.6666,-3.097 13.9334,-1.1148 29.8334,-2.3756 35.3334,-2.8017 8.2683,-0.6405 27.4234,-3.3079 48.6666,-6.7769 3.596,-0.5873 9.1541,-1.3954 11.5781,-1.6835 0.5013,-0.06 1.1614,-1.7583 1.4669,-3.775 0.3055,-2.01667 0.6388,9.5333 0.7406,25.6667 0.1018,16.1333 -0.1847,31.5704 -0.6367,34.3047 -0.741,4.4823 -1.2971,5.0446 -5.652,5.7144 -2.6566,0.4086 -9.6302,1.6218 -15.4969,2.696 -12.9375,2.369 -70.7514,8.9646 -104.8829,11.9654 -37.0667,3.2588 -191.55009,3.2439 -207.16311,-0.02 -1.49198,-0.3119 -7.79198,-0.912 -14,-1.3335 -6.20801,-0.4216 -20.58729,-1.6582 -31.95396,-2.7481 -11.36666,-1.0899 -23.96666,-2.2842 -28,-2.654 -4.03333,-0.3697 -9.41836,-1.0067 -11.9667,-1.4153 -2.54836,-0.4087 -7.04836,-0.9544 -10,-1.2128 -2.95166,-0.2583 -9.56663,-0.8399 -14.69996,-1.2924 -5.13334,-0.4525 -13.83334,-1.3797 -19.33334,-2.0604 -5.5,-0.6807 -12.7,-1.554 -16,-1.9406 -3.3,-0.3866 -9.00572,-1.5704 -12.67936,-2.6306 -12.5117,-3.6108 -32.54326,-4.8978 -35.68237,-2.2926 -2.77719,2.3049 -4.79779,12.8249 -7.60345,39.5864 l -2.51615,24 z m -1.38952,-94.66667 c 9.4e-4,-16.86666 0.19202,-23.58281 0.42463,-14.92477 0.2326,8.65804 0.23184,22.45804 -0.001,30.66664 -0.23355,8.2087 -0.42386,1.1248 -0.42292,-15.74187 z m -13.14008,-69 C 712.38591,919.95 711.42724,907.5 710.63459,894.66667 c -0.79266,-12.83334 -1.76406,-24.64076 -2.15868,-26.23874 -0.97775,-3.95917 -2.8918,-4.72289 -53.80924,-21.47033 -66.96876,-22.02692 -75.05974,-24.46715 -82.15282,-24.77725 -3.58262,-0.15663 -8.72858,-1.36291 -11.43546,-2.68063 -3.26984,-1.59175 -5.95479,-2.05012 -8,-1.36576 -3.66063,1.22492 -9.15238,0.75937 -11.24272,-0.95307 -0.82372,-0.6748 -2.47372,-0.85236 -3.66667,-0.39457 -1.46047,0.56043 -2.169,0.11707 -2.169,-1.35724 0,-1.82004 -0.47868,-1.93339 -2.83623,-0.67167 -1.95918,1.04852 -3.10377,1.08503 -3.7014,0.118 -0.47585,-0.76993 -4.44954,-1.45562 -8.83044,-1.52377 -23.6551,-0.36797 -32.13638,-0.82673 -33.70124,-1.82293 -0.95478,-0.60782 -4.40478,-1.14547 -7.66666,-1.19479 -3.26188,-0.0493 -5.9307,-0.54625 -5.9307,-1.10433 0,-0.55807 -1.95,-0.4773 -4.33333,0.1795 -4.65216,1.28206 -12.94421,0.9401 -15.49953,-0.63917 -0.86104,-0.53215 -3.29378,-0.58796 -5.40607,-0.124 -2.19245,0.48155 -4.21485,0.23785 -4.71283,-0.56787 -0.47976,-0.77625 -2.30146,-1.41138 -4.04824,-1.41138 -1.74677,0 -3.51196,-0.54367 -3.92264,-1.20816 -0.41068,-0.6645 -1.94608,-0.89451 -3.41202,-0.51116 -1.48974,0.38957 -2.66534,0.0403 -2.66534,-0.79184 0,-1.8183 -7.92238,-1.95928 -12.49101,-0.2223 -1.83221,0.69662 -3.52127,0.82464 -3.75347,0.28452 -0.2322,-0.54012 -5.22218,-0.60613 -11.08885,-0.1467 -15.65435,1.2259 -33.57903,0.60486 -35.80251,-1.24046 -1.05424,-0.87494 -2.42996,-1.46362 -3.05714,-1.3082 -0.62719,0.15544 -6.54035,-0.26052 -13.14035,-0.92434 -6.6,-0.66383 -12.9,-1.04364 -14,-0.84402 -1.1,0.19962 -33.8,0.60804 -72.66667,0.90763 -38.86666,0.29957 -74.41666,0.82852 -79,1.17544 L 176,802.46784 v -45.67729 -45.67731 l 23.66667,0.11 c 19.78664,0.092 24.40252,-0.26189 28.1551,-2.15864 6.18558,-3.12649 17.78651,-1.98183 38.8449,3.83283 25.21973,6.96368 133.20484,43.10222 322,107.76124 27.13333,9.29269 60.43333,20.69545 74,25.33945 40.63528,13.90988 43.80134,15.06705 47.98384,17.53771 l 4.01616,2.37241 v 30.37919 c 0,16.7086 -0.27282,30.37924 -0.60626,30.37924 -0.33342,0 -0.91638,-1.95 -1.29544,-4.33334 z m 552.96793,-529 c 0,-4.03333 0.2499,-5.68333 0.5554,-3.66666 0.3055,2.01666 0.3055,5.31666 0,7.33333 -0.3055,2.01667 -0.5554,0.36667 -0.5554,-3.66667 z"
         id="path2519" />
      <path
         style="fill:#96c8d8;stroke-width:1.33333"
         d="m 726.81321,1144.5869 c -0.15505,-17.0132 4.00786,-64.4492 6.69336,-76.2704 0.87675,-3.8592 2.436,-7.7156 3.46503,-8.5696 3.13911,-2.6052 23.17067,-1.3181 35.68237,2.2926 3.67364,1.0602 9.37936,2.244 12.67936,2.6306 3.3,0.3866 10.5,1.2599 16,1.9406 5.5,0.6807 14.2,1.6079 19.33334,2.0604 5.13333,0.4525 11.7483,1.0341 14.69996,1.2925 2.95164,0.2583 7.45164,0.804 10,1.2127 2.54834,0.4087 7.93337,1.0456 11.9667,1.4153 4.03334,0.3698 16.63334,1.5641 28,2.654 11.36667,1.0899 25.74595,2.3266 31.95396,2.7481 6.20802,0.4215 12.50802,1.0216 14,1.3335 15.61302,3.2639 170.09641,3.2788 207.16311,0.02 34.1315,-3.0008 91.9454,-9.5964 104.8829,-11.9654 5.8667,-1.0742 12.8788,-2.2947 15.5824,-2.7121 4.0539,-0.6258 5.0248,-1.3939 5.5377,-4.381 0.3421,-1.9921 0.53,6.6784 0.4176,19.2679 -0.1124,12.5894 -0.5898,23.2748 -1.0609,23.7454 -0.4711,0.4705 -3.7711,1.1324 -7.3333,1.4709 -3.5622,0.3384 -8.2768,1.1759 -10.4768,1.8611 -6.4325,2.0035 -33.6573,5.2419 -90,10.7057 -30.7739,2.9843 -114.8761,5.2143 -142.4073,3.7761 -9.3093,-0.4864 -28.32603,-1.2634 -42.25937,-1.7267 -13.93333,-0.4634 -26.53333,-1.0888 -28,-1.3898 -1.46666,-0.3011 -10.76666,-1.1882 -20.66666,-1.9714 -9.9,-0.7832 -21.3,-1.9867 -25.33334,-2.6745 -4.03333,-0.6877 -14.83333,-1.873 -24,-2.6339 -16.74849,-1.3902 -24.74154,-2.3519 -50.75328,-6.1066 -15.75502,-2.2742 -19.01853,-2.7984 -28.58005,-4.5914 -6.21507,-1.1655 -29.93911,-4.6155 -40.76325,-5.928 -2.61978,-0.3176 -7.02672,-1.6569 -9.79319,-2.9761 -4.82009,-2.2985 -5.10233,-2.2996 -6.76475,-0.026 -2.50621,3.4274 -4.4867,15.4821 -7.2686,44.242 l -2.45045,25.3334 -0.14655,-16.0798 z M 725.85139,1038 c 0.003,-9.5333 0.2147,-13.2584 0.47194,-8.2779 0.25724,4.9805 0.25532,12.7805 -0.004,17.3334 -0.25957,4.5528 -0.47004,0.4778 -0.4677,-9.0555 z m -12.78454,-86 c -0.51324,-3.3 -1.6091,-16.8 -2.43525,-30 -0.82615,-13.2 -2.27669,-30.77569 -3.22344,-39.05711 -1.97219,-17.25126 -2.20681,-17.58152 -14.74109,-20.74925 -12.55106,-3.17196 -14.87232,-3.54395 -15.87264,-2.54361 -1.3478,1.34778 -10.12776,1.46512 -10.12776,0.13533 0,-0.61528 -1.2,-1.11869 -2.66667,-1.11869 -1.49943,0 -2.66667,-0.8889 -2.66667,-2.03074 0,-1.78901 -0.3571,-1.80096 -3,-0.1004 -3.44341,2.21563 -14.928,2.00055 -19.34294,-0.36226 -1.55571,-0.83259 -3.12111,-1.04044 -3.47867,-0.4619 -0.74315,1.20244 -7.08384,1.16096 -8.29909,-0.0543 -0.44367,-0.44367 -1.58732,-0.50711 -2.54146,-0.14098 -0.95412,0.36614 -2.13692,0.0151 -2.62844,-0.78028 -0.4915,-0.79529 -1.45644,-1.09816 -2.14428,-0.67305 -0.68784,0.42511 -1.60925,-0.16165 -2.04758,-1.30392 -0.43832,-1.14228 -1.3341,-1.74489 -1.99058,-1.33916 -0.65649,0.40573 -1.85205,0.33077 -2.65678,-0.16659 -0.80474,-0.49734 -10.25474,-1.12628 -21,-1.3976 -23.75539,-0.59985 -29.78875,-1.00636 -31.58204,-2.1279 -0.75819,-0.47418 -5.55819,-1.0052 -10.66667,-1.18004 -5.10847,-0.17484 -12.66028,-1.13432 -16.7818,-2.13216 -5.54092,-1.3415 -8.46541,-1.44482 -11.22271,-0.3965 -2.7541,1.04711 -3.98422,1.00488 -4.7051,-0.1615 -0.53683,-0.86862 -1.93662,-1.2107 -3.11063,-0.76019 -1.174,0.45051 -2.13456,0.31636 -2.13456,-0.29809 0,-0.61447 -3.5076,-1.1965 -7.79468,-1.2934 -4.28707,-0.0969 -10.7236,-0.72339 -14.30339,-1.39216 -3.93326,-0.73482 -7.41184,-0.73263 -8.79108,0.005 -1.36512,0.73059 -2.58305,0.73493 -3.03058,0.0107 -0.41431,-0.67036 -10.11995,-1.03276 -21.74759,-0.81202 -14.34009,0.27223 -23.32487,-0.17073 -28.33268,-1.39684 -6.74061,-1.65037 -20.15704,-3.66692 -23.33333,-3.50709 -0.73334,0.0369 -7.93334,0.51447 -16,1.06125 C 380.6,836.02168 371.9,836.3974 369.33333,836.30983 352.79504,835.74556 275.1268,835.97555 268,836.60988 c -4.76667,0.42427 -21.86667,1.03319 -38,1.35315 -16.13333,0.31997 -33.83333,1.19058 -39.33333,1.93472 C 174.37824,842.10151 176,844.08057 176,821.99971 c 0,-19.10318 0.0357,-19.33564 3,-19.52682 1.65,-0.1064 5.1,-0.40636 7.66667,-0.66656 2.56666,-0.2602 36.76666,-0.74682 76,-1.08138 C 301.9,800.39039 334.9,799.95333 336,799.75372 c 1.1,-0.19963 7.4,0.18019 14,0.84401 6.6,0.66383 12.51316,1.07979 13.14035,0.92435 0.62718,-0.15543 2.0029,0.43325 3.05714,1.3082 2.22348,1.84532 20.14816,2.46636 35.80251,1.24045 5.86667,-0.45942 10.85665,-0.39341 11.08885,0.14671 0.2322,0.54012 1.92126,0.41209 3.75347,-0.28452 4.56863,-1.73699 12.49101,-1.596 12.49101,0.22229 0,0.83216 1.1756,1.18142 2.66534,0.79184 1.46594,-0.38334 3.00134,-0.15333 3.41202,0.51116 0.41068,0.6645 2.17587,1.20816 3.92264,1.20816 1.74678,0 3.56848,0.63514 4.04824,1.4114 0.49798,0.80572 2.52038,1.04942 4.71283,0.56787 2.11229,-0.46393 4.54503,-0.40812 5.40607,0.124 2.55532,1.57927 10.84737,1.92123 15.49953,0.63917 2.38333,-0.6568 4.33333,-0.73757 4.33333,-0.1795 0,0.55808 2.66882,1.05502 5.9307,1.10433 3.26188,0.0493 6.71188,0.58697 7.66666,1.19479 1.56486,0.9962 10.04614,1.45496 33.70124,1.82293 4.3809,0.0681 8.35459,0.75384 8.83044,1.52377 0.59763,0.96699 1.74222,0.93048 3.7014,-0.118 2.35755,-1.26172 2.83623,-1.14837 2.83623,0.67167 0,1.47431 0.70853,1.91767 2.169,1.35724 1.19295,-0.45779 2.84295,-0.28023 3.66667,0.39457 2.09034,1.71244 7.58209,2.17799 11.24272,0.95307 2.04521,-0.68436 4.73016,-0.22599 8,1.36576 2.70688,1.31772 7.85284,2.524 11.43546,2.68063 7.09308,0.3101 15.18406,2.75033 82.15282,24.77725 50.91744,16.74744 52.83149,17.51116 53.80924,21.47033 0.39462,1.59798 1.35628,13.4054 2.13701,26.23874 0.78075,12.83333 2.05341,26.33333 2.82816,30 0.77475,3.66666 1.21744,12.66666 0.98377,20 -0.34752,10.90649 -0.59469,12.24125 -1.358,7.33333 z"
         id="path2517" />
      <path
         style="fill:#95c7d8;stroke-width:1.33333"
         d="m 726.66667,1175.8405 c 0,-11.9864 4.77548,-64.1241 6.85272,-74.8164 0.81661,-4.2034 2.25188,-8.6917 3.18949,-9.974 1.62128,-2.2172 1.95099,-2.2139 6.73468,0.067 2.76647,1.3193 7.17341,2.6585 9.79319,2.9762 10.82414,1.3124 34.54818,4.7624 40.76325,5.9279 9.56152,1.793 12.82503,2.3173 28.58005,4.5914 26.01174,3.7547 34.00479,4.7164 50.75328,6.1067 9.16667,0.7608 19.96667,1.9461 24,2.6338 4.03334,0.6878 15.43334,1.8913 25.33334,2.6745 9.9,0.7833 19.2,1.6704 20.66666,1.9714 1.46667,0.301 14.06667,0.9264 28,1.3898 13.93334,0.4633 32.95007,1.2404 42.25937,1.7267 27.5312,1.4383 111.6334,-0.7918 142.4073,-3.776 54.9866,-5.3323 83.2845,-8.6718 90,-10.6209 2.2,-0.6385 6.4,-1.5582 9.3333,-2.0437 11.0518,-1.8291 1.8945,1.9999 -33.3333,13.9378 -19.8,6.7098 -42.7487,14.5525 -50.9972,17.4283 -17.275,6.0228 -17.3518,6.0354 -48.3361,7.9679 -12.8334,0.8004 -31.1334,1.9725 -40.6667,2.6046 -21.9951,1.4586 -118.96195,0.5524 -145.33333,-1.3582 -11,-0.7969 -26.6,-2.2774 -34.66667,-3.2899 -8.06667,-1.0125 -20.36667,-2.2109 -27.33333,-2.6631 C 867.7,1138.8503 853.9,1137.3387 844,1135.9433 c -45.76305,-6.4501 -72.29221,-10.6074 -83.33333,-13.059 -6.6,-1.4655 -14.69632,-2.864 -17.99182,-3.1078 l -5.99182,-0.4432 -2.13543,6.6666 c -1.17448,3.6667 -3.16063,18.3492 -4.41365,32.6278 -1.25304,14.2785 -2.54578,26.2285 -2.87276,26.5555 -0.32699,0.327 -0.59452,-3.8772 -0.59452,-9.3427 z m 537.59323,-75.1738 c 0.027,-2.2 0.326,-2.9386 0.6641,-1.6413 0.338,1.2973 0.3158,3.0973 -0.05,4 -0.3652,0.9027 -0.6418,-0.1587 -0.6146,-2.3587 z m -538.42234,-31.3334 c 0,-8.4333 0.21649,-11.8833 0.48109,-7.6666 0.2646,4.2166 0.2646,11.1166 0,15.3333 -0.2646,4.2167 -0.48109,0.7667 -0.48109,-7.6667 z m -12.75584,-87.99997 c -0.50507,-3.3 -1.60995,-18 -2.45529,-32.66666 -1.4522,-25.19558 -4.18091,-49.55026 -6.11686,-54.59527 -1.23164,-3.2096 -6.63472,-5.19048 -15.17624,-5.56392 C 685.3,888.33113 682,888.09413 682,887.9808 c 0,-0.11333 -4.2,-0.38487 -9.33333,-0.6034 -5.13334,-0.21853 -9.33334,-0.54521 -9.33334,-0.72596 0,-0.80303 -9.22146,-1.59873 -24,-2.07092 -15.96246,-0.51001 -19.55312,-0.86489 -23.33333,-2.30611 -1.1,-0.41937 -6.38363,-1.05713 -11.7414,-1.41722 -5.35777,-0.3601 -10.51299,-1.29507 -11.45601,-2.07772 -0.94304,-0.78266 -1.98944,-1.14818 -2.32534,-0.81228 -1.03661,1.03661 -19.87197,1.67885 -20.47801,0.69825 -0.76781,-1.24235 -7.04899,-1.70236 -20.66591,-1.51352 C 543.1,877.23832 536.2,876.71909 534,875.99799 c -2.2,-0.72112 -10.9,-1.37194 -19.33333,-1.44626 -8.43334,-0.0743 -18.93334,-0.78209 -23.33334,-1.57282 -4.4,-0.79074 -21.5,-1.57946 -38,-1.7527 -83.46456,-0.87637 -122.44226,-1.14884 -126.66666,-0.88544 -2.56667,0.16004 -9.46667,0.30298 -15.33334,0.31764 -14.33996,0.0359 -48.0213,1.13711 -62,2.02718 -6.23333,0.39689 -24.23333,0.89321 -40,1.10292 -15.76666,0.2097 -29.71666,0.85726 -31,1.43904 C 176.17599,876.20552 176,874.96719 176,858.80932 c 0,-15.73923 0.23188,-17.48008 2.33333,-17.51716 1.28334,-0.0227 6.83334,-0.64999 12.33334,-1.39412 5.5,-0.74413 23.2,-1.61475 39.33333,-1.93472 16.13333,-0.31996 33.23333,-0.92888 38,-1.35315 7.1268,-0.63433 84.79504,-0.86432 101.33333,-0.30005 2.56667,0.0876 11.26667,-0.28815 19.33334,-0.83493 8.06666,-0.54679 15.26666,-1.02435 16,-1.06126 3.17629,-0.15982 16.59272,1.85672 23.33333,3.5071 5.00781,1.2261 13.99259,1.66906 28.33268,1.39684 11.62764,-0.22075 21.33328,0.14165 21.74759,0.81201 0.44753,0.72412 1.66546,0.71977 3.03058,-0.0107 1.37924,-0.73814 4.85782,-0.74033 8.79108,-0.005 3.57979,0.66877 10.01632,1.29525 14.30339,1.39216 4.28708,0.0969 7.79468,0.67893 7.79468,1.2934 0,0.61445 0.96056,0.7486 2.13456,0.29809 1.17401,-0.4505 2.5738,-0.1084 3.11063,0.76019 0.72088,1.16639 1.951,1.20861 4.7051,0.16151 2.7573,-1.04832 5.68179,-0.945 11.22271,0.39649 4.12152,0.99784 11.67333,1.95732 16.7818,2.13216 5.10848,0.17484 9.90848,0.70587 10.66667,1.18004 1.79329,1.12155 7.82665,1.52805 31.58204,2.12791 10.74526,0.27132 20.19526,0.90025 21,1.3976 0.80473,0.49736 2.00029,0.57232 2.65678,0.16658 0.65648,-0.40573 1.55226,0.19688 1.99058,1.33916 0.43833,1.14227 1.35974,1.72903 2.04758,1.30392 0.68784,-0.4251 1.65278,-0.12226 2.14428,0.67306 0.49152,0.79529 1.71376,1.13128 2.71611,0.74665 1.00233,-0.38464 2.09777,-0.25381 2.43432,0.29073 0.72864,1.17896 7.08915,1.0556 8.30584,-0.16109 0.46839,-0.46839 2.082,-0.19315 3.58579,0.61167 4.3349,2.31997 15.83793,2.50626 19.24854,0.31174 2.6429,-1.70054 3,-1.6886 3,0.1004 0,1.14184 1.16724,2.03074 2.66667,2.03074 1.46667,0 2.66667,0.50341 2.66667,1.11869 0,1.32979 8.77996,1.21245 10.12776,-0.13533 1.00032,-1.00034 3.32158,-0.62835 15.87264,2.54361 12.53428,3.16773 12.7689,3.49799 14.74109,20.74925 0.94675,8.28142 2.38679,25.85711 3.20009,39.05711 0.81331,13.2 2.10555,27.9 2.87163,32.66667 0.76609,4.76666 1.19652,14.06666 0.95651,20.66666 -0.37266,10.2476 -0.5705,11.1238 -1.35467,6 z m 552.71748,-568 c 0,-6.23333 0.2297,-8.78333 0.5104,-5.66666 0.2807,3.11666 0.2807,8.21666 0,11.33333 -0.2807,3.11667 -0.5104,0.56667 -0.5104,-5.66667 z"
         id="path2515" />
      <path
         style="fill:#94c6d6;stroke-width:1.33333"
         d="m 727.32931,1206 c 0.49812,-29.0243 4.54314,-72.8281 7.51065,-81.3333 1.83764,-5.2669 1.93533,-5.3278 7.84376,-4.8901 3.29063,0.2438 11.38295,1.6423 17.98295,3.1077 11.04112,2.4516 37.57028,6.609 83.33333,13.0591 9.9,1.3954 23.7,2.907 30.66667,3.3591 6.96666,0.4522 19.26666,1.6506 27.33333,2.6632 8.06667,1.0125 23.66667,2.493 34.66667,3.2899 26.37138,1.9105 123.33823,2.8167 145.33333,1.3582 9.5333,-0.6322 27.9062,-1.7681 40.8285,-2.5243 12.9223,-0.7562 24.4723,-1.7499 25.6667,-2.2082 1.1943,-0.4583 2.1715,-0.2499 2.1715,0.4632 0,0.713 -10.65,4.9195 -23.6667,9.3476 -13.0167,4.4282 -44.8281,15.2843 -70.692,24.1246 l -47.0254,16.0734 -24.97463,-0.6399 c -13.73605,-0.3519 -32.47464,-1.2433 -41.6413,-1.9809 -9.16667,-0.7375 -20.56667,-1.6562 -25.33334,-2.0416 -4.76666,-0.3854 -9.86666,-0.9505 -11.33333,-1.2558 -1.46667,-0.3054 -7.76667,-0.876 -14,-1.2681 -22.3508,-1.406 -30.16857,-2.1743 -41.33333,-4.0619 -18.71692,-3.1644 -39.9033,-6.1207 -53.33334,-7.4419 -6.96666,-0.6854 -15.66666,-1.8623 -19.33333,-2.6154 -3.66667,-0.7531 -11.26653,-2.1863 -16.8886,-3.185 -5.62207,-0.9987 -11.62207,-2.2872 -13.33333,-2.8633 -1.71127,-0.576 -4.10824,-0.9037 -5.32662,-0.728 -1.21837,0.1756 -2.60377,-0.3094 -3.07869,-1.0778 -1.26364,-2.0446 -2.96852,-1.7071 -3.92152,0.7764 -1.29624,3.3779 -4.50309,26.5257 -5.51751,39.8264 -2.13786,28.0316 -3.05586,28.9716 -2.60442,2.6667 z m -1.45626,-101.3333 c 10e-4,-11.7334 0.20567,-16.3549 0.45328,-10.2701 0.24763,6.0849 0.24624,15.6849 -0.003,21.3334 -0.24931,5.6485 -0.45191,0.67 -0.45022,-11.0633 z M 713.03807,1024 c -0.52907,-4.0333 -1.29426,-13.0333 -1.7004,-20 -2.37338,-40.70988 -3.81188,-56.23807 -6.21164,-67.05212 l -1.41702,-6.38545 -5.52117,0.55537 c -3.03664,0.30545 -7.00869,-0.008 -8.82677,-0.69773 -2.21178,-0.83846 -3.46186,-0.78438 -3.77779,0.16341 -0.60032,1.80096 -5.67897,1.82107 -10.36085,0.0411 -6.20202,-2.358 -38.07071,-4.11644 -43.00099,-2.3727 -1.71153,0.60534 -3.81153,0.66404 -4.66667,0.1304 -0.85512,-0.5336 -3.05477,-1.00561 -4.8881,-1.04892 -1.83334,-0.0433 -3.93334,-0.44589 -4.66667,-0.89464 -0.73333,-0.44874 -5.23333,-0.7907 -10,-0.75992 -4.76667,0.0308 -15.86667,-0.35617 -24.66667,-0.85992 -48.92261,-2.80045 -88.26352,-3.59465 -176,-3.55305 -40.33333,0.0191 -80.83333,0.54377 -90,1.16591 -9.16666,0.62212 -26.26666,0.96853 -38,0.7698 -13.11862,-0.22219 -25.44068,0.31493 -32,1.3949 -5.86666,0.96592 -24.31666,2.1717 -41,2.67951 L 176,928.1992 v -25.95695 c 0,-23.42906 0.22724,-26.05996 2.33333,-27.0147 1.28334,-0.58178 15.23334,-1.22934 31,-1.43904 15.76667,-0.20971 33.76667,-0.70603 40,-1.10292 13.9787,-0.89007 47.66004,-1.99132 62,-2.02718 5.86667,-0.0147 12.76667,-0.1576 15.33334,-0.31764 4.2244,-0.2634 43.2021,0.009 126.66666,0.88544 16.5,0.17324 33.6,0.96196 38,1.7527 4.4,0.79073 14.9,1.4985 23.33334,1.57282 C 523.1,874.626 531.8,875.27687 534,875.99799 c 2.2,0.7211 9.1,1.24038 15.33333,1.15393 13.61692,-0.18884 19.8981,0.27117 20.66591,1.51352 0.60604,0.9806 19.4414,0.33836 20.47801,-0.69825 0.3359,-0.3359 1.3823,0.0296 2.32534,0.81228 0.94302,0.78265 6.09824,1.71762 11.45601,2.07772 5.35777,0.36009 10.6414,0.99785 11.7414,1.41722 3.78021,1.44122 7.37087,1.7961 23.33333,2.30611 14.77854,0.47219 24,1.26789 24,2.07092 0,0.18075 4.2,0.50743 9.33334,0.72596 5.13333,0.21853 9.33333,0.49007 9.33333,0.6034 0,0.11333 3.3,0.35033 7.33333,0.52668 8.54152,0.37344 13.9446,2.35432 15.17624,5.56392 1.9458,5.07069 4.66555,29.43801 6.0936,54.59527 0.83258,14.66666 2.12967,30.56666 2.88246,35.33333 0.75278,4.76667 1.17646,17.3667 0.94153,28 -0.33559,15.189 -0.63336,17.7613 -1.38909,12 z M 1265.87,444 c 0,-11.36667 0.2045,-16.01667 0.4544,-10.33333 0.2499,5.68333 0.2499,14.98333 0,20.66666 -0.2499,5.68334 -0.4544,1.03334 -0.4544,-10.33333 z"
         id="path2513" />
      <path
         style="fill:#92c4d5;stroke-width:1.33333"
         d="m 726.83228,1250 c -0.0791,-7.3333 0.4116,-18.4333 1.09033,-24.6667 0.67874,-6.2333 1.61932,-16.4333 2.09022,-22.6666 0.96401,-12.7613 4.17177,-35.859 5.43841,-39.1598 0.953,-2.4835 2.65788,-2.821 3.92152,-0.7764 0.47492,0.7684 1.86032,1.2534 3.07869,1.0778 1.21838,-0.1757 3.61535,0.152 5.32662,0.728 1.71126,0.5761 7.71126,1.8646 13.33333,2.8633 5.62207,0.9987 13.22193,2.4319 16.8886,3.185 3.66667,0.7531 12.36667,1.93 19.33333,2.6154 13.43004,1.3212 34.61642,4.2775 53.33334,7.4419 11.16476,1.8876 18.98253,2.6559 41.33333,4.0619 6.23333,0.3921 12.53333,0.9627 14,1.2681 1.46667,0.3053 6.56667,0.8733 11.33333,1.2622 33.80567,2.7579 46.04862,3.4949 66.45968,4.0009 12.7195,0.3153 23.34329,0.7902 23.60839,1.0553 0.2651,0.2651 -18.66843,6.9794 -42.07451,14.9206 -32.93717,11.175 -43.54772,14.2634 -46.9417,13.6634 -2.41186,-0.4263 -14.28519,-1.4309 -26.38519,-2.2324 -12.1,-0.8014 -25.9,-2.0335 -30.66667,-2.738 -4.76666,-0.7044 -13.16666,-1.8446 -18.66666,-2.5336 -5.5,-0.6891 -18.7,-2.4468 -29.33334,-3.906 -10.63333,-1.4592 -22.33333,-2.995 -26,-3.4129 -11.07422,-1.2621 -14.45568,-1.8416 -19.32453,-3.3117 -2.56183,-0.7735 -6.65127,-1.4064 -9.08765,-1.4064 -2.43639,0 -5.44035,-0.5168 -6.67547,-1.1486 -1.23512,-0.6317 -5.12917,-1.5248 -8.65344,-1.9846 -6.40196,-0.8354 -6.40964,-0.8317 -8.48083,4.1254 -1.18042,2.8251 -3.16136,16.1666 -4.6006,30.9846 -3.08902,31.804 -3.49572,33.6493 -3.67853,16.6899 z m -0.98993,-109.3333 c 0.003,-8.8 0.21842,-12.2265 0.47953,-7.6144 0.26111,4.612 0.25896,11.812 -0.005,16 -0.26375,4.1879 -0.47738,0.4144 -0.47475,-8.3856 z m -12.86175,-81.3334 c -0.56067,-4.4 -1.91552,-21.2 -3.01079,-37.3333 -2.84661,-41.93084 -4.41994,-49.8106 -10.01672,-50.16667 -4.26892,-0.27158 -5.01626,-0.45205 -6.01729,-1.45309 -0.5242,-0.5242 -1.97753,-0.40481 -3.22963,0.26528 -1.76314,0.94361 -10.0395,0.95359 -10.0395,0.012 0,-0.82656 -25.37135,-2.19985 -59.33334,-3.21156 -10.63333,-0.31677 -27.73333,-0.90863 -38,-1.31525 -10.26666,-0.40663 -26.76666,-1.05316 -36.66666,-1.43675 -31.14472,-1.20672 -87.2054,-2.07143 -127.33334,-1.96405 -51.03922,0.13657 -58.61789,0.0432 -76.30512,-0.93966 -8.89096,-0.49408 -18.9094,-0.22484 -24.66666,0.66288 -5.33219,0.82219 -20.49488,1.81688 -33.69488,2.21044 -29.04819,0.86607 -73.57004,3.10494 -77.56619,3.90055 -1.59473,0.31751 -9.24473,1.00233 -17,1.52183 L 176,971.03059 V 949.51529 928 l 5,-0.0152 c 20.5644,-0.0623 57.52953,-1.95563 66.33333,-3.39759 6.52508,-1.06873 18.94984,-1.60678 32,-1.38576 11.73334,0.19874 28.83334,-0.14768 38,-0.7698 9.16667,-0.62213 49.66667,-1.14678 90,-1.1659 87.73648,-0.0416 127.07739,0.7526 176,3.55305 8.8,0.50375 19.9,0.89069 24.66667,0.85992 4.76667,-0.0308 9.26667,0.31117 10,0.75992 0.73333,0.44875 2.83333,0.85133 4.66667,0.89464 1.83333,0.0433 4.03298,0.51532 4.8881,1.04891 0.85514,0.5336 2.95514,0.47489 4.66667,-0.1304 4.93028,-1.74375 36.79897,0.0147 43.00099,2.37269 4.68188,1.78005 9.76053,1.75995 10.36085,-0.0411 0.31593,-0.94778 1.56601,-1.00186 3.77779,-0.16341 1.81808,0.6892 5.79013,1.00319 8.82677,0.69773 l 5.52117,-0.55537 1.41702,6.38545 c 2.42629,10.93366 4.11684,29.24382 6.19078,67.05212 0.42238,7.7 1.40127,18.5 2.17531,24 0.77405,5.5 1.20497,16.6 0.95761,24.6667 -0.4243,13.8374 -0.50737,14.2143 -1.46913,6.6667 z m 552.8617,-579.99997 c 0,-8.8 0.2185,-12.22649 0.4796,-7.61441 0.2611,4.61207 0.2589,11.81207 -0.01,16 -0.2637,4.18792 -0.4773,0.41441 -0.4747,-8.38559 z"
         id="path2511" />
      <path
         style="fill:#90c3d4;stroke-width:1.33333"
         d="m 727.08673,1273 c 1.21411,-25.4205 5.72738,-65.1763 8.0228,-70.67 2.07334,-4.9622 2.07988,-4.9654 8.48271,-4.1299 3.52427,0.4598 7.41832,1.3529 8.65344,1.9846 1.23512,0.6318 4.23908,1.1486 6.67547,1.1486 2.43638,0 6.52582,0.6329 9.08765,1.4064 4.86885,1.4701 8.25031,2.0496 19.32453,3.3117 3.66667,0.4179 15.36667,1.9537 26,3.4129 10.63334,1.4592 23.83334,3.2169 29.33334,3.906 5.5,0.689 13.9,1.8306 18.66666,2.5369 4.76667,0.7063 18.86667,1.9655 31.33334,2.7982 12.46666,0.8328 24.57872,1.9147 26.91568,2.4043 3.57718,0.7495 -6.75302,4.6375 -65.33334,24.5897 -39.89553,13.5883 -71.57334,23.6756 -74.24901,23.6434 -5.04391,-0.06 -24.03249,-3.1317 -32.66667,-5.2834 -11.39332,-2.8393 -13.35445,-1.205 -14.67493,12.2294 -0.52499,5.3411 -1.56136,10.4612 -2.30305,11.3779 -3.38556,4.1842 -4.0307,1.2895 -3.26862,-14.6667 z m -1.18521,-88.3333 c 10e-4,-16.1334 0.19353,-22.5501 0.42785,-14.2595 0.23431,8.2907 0.23348,21.4907 -0.001,29.3334 -0.23532,7.8427 -0.42703,1.0594 -0.42601,-15.0739 z m -12.83028,-54 c -0.51081,-1.8334 -1.30151,-12.3334 -1.75707,-23.3334 -1.70342,-41.13 -5.23744,-67.9499 -9.40994,-71.4128 -1.35879,-1.1277 -27.79727,-3.0517 -35.23756,-2.5643 -11.26719,0.738 -89.72334,0.4248 -90.20847,-0.3602 -0.35336,-0.5717 -1.25229,-0.6626 -1.99765,-0.2019 -0.74535,0.4606 -9.8539,1.0976 -20.2412,1.4155 -10.38731,0.318 -20.08602,0.6199 -21.55268,0.671 -1.46667,0.051 -15.976,0.011 -32.24298,-0.091 -16.26697,-0.1009 -31.86697,0.111 -34.66666,0.471 -8.65047,1.1124 -46.73316,2.2962 -67.79284,2.1074 -11.01971,-0.099 -23.01971,0.5033 -26.66667,1.338 -3.64697,0.8346 -17.13085,1.6878 -29.96419,1.896 -12.83333,0.2083 -28.13333,0.7529 -34,1.2103 -9.32104,0.7268 -25.39205,1.5551 -54.84752,2.8268 -4.49946,0.1942 -13.19946,0.7348 -19.33333,1.2011 -6.13387,0.4664 -20.29527,1.1762 -31.46977,1.5772 -11.17451,0.4011 -21.52451,0.9618 -23,1.2459 C 176.04392,1049.1718 176,1048.5404 176,1010.095 v -39.08525 l 14.33333,-0.98622 c 7.88334,-0.54242 15.53334,-1.20985 17,-1.48317 4.03888,-0.75269 50.24799,-3.06913 77.33334,-3.87668 13.2,-0.39356 28.36269,-1.38825 33.69488,-2.21044 5.75726,-0.88772 15.7757,-1.15696 24.66666,-0.66288 17.68723,0.98289 25.2659,1.07623 76.30512,0.93965 40.12794,-0.10733 96.18862,0.75734 127.33334,1.96406 9.9,0.38358 26.4,1.03012 36.66666,1.43674 10.26667,0.40663 27.36667,0.99848 38,1.31526 33.96199,1.0117 59.33334,2.385 59.33334,3.21156 0,0.94148 8.27636,0.9315 10.0395,-0.012 1.2521,-0.6701 2.70543,-0.78948 3.22963,-0.26528 1.00103,1.00104 1.74837,1.1815 6.01729,1.45309 5.6238,0.35779 7.18475,8.26031 10.0408,50.83336 1.10692,16.5 2.65387,34.8 3.43767,40.6666 1.52535,11.4171 1.19623,72.9198 -0.36032,67.3334 z M 1265.8957,521.33333 c 0,-15.03333 0.1945,-21.18333 0.4321,-13.66666 0.2377,7.51666 0.2377,19.81666 0,27.33333 -0.2376,7.51667 -0.4321,1.36667 -0.4321,-13.66667 z"
         id="path2509" />
      <path
         style="fill:#8dc0d2;stroke-width:1.33333"
         d="m 730.54588,1287.4371 c 0.63691,-0.7904 1.58753,-5.8072 2.11252,-11.1483 1.37196,-13.9582 3.16705,-15.2211 16.72813,-11.7688 5.87342,1.4953 18.94186,3.5734 33.09716,5.2631 0.99938,0.1193 -10.53836,4.4636 -25.63938,9.654 -15.10104,5.1904 -26.93534,8.7904 -26.29843,8 z M 725.90152,1242 c 10e-4,-16.1333 0.19353,-22.5501 0.42785,-14.2594 0.23431,8.2906 0.23348,21.4906 -0.001,29.3333 -0.23532,7.8427 -0.42703,1.0594 -0.42601,-15.0739 z m -12.85072,-54 c -0.90316,-4.4403 -1.44452,-12.1341 -3.09596,-44 -0.93881,-18.1152 -3.01681,-36.5988 -4.87173,-43.3333 l -1.46896,-5.3334 -12.14042,-0.1472 c -6.67721,-0.081 -14.5404,-0.2589 -17.47373,-0.3953 -11.84205,-0.551 -71.24408,0.9967 -72.69604,1.894 -0.85705,0.5297 -14.85105,1.1427 -31.09779,1.3622 -16.24673,0.2196 -29.5395,0.4985 -29.5395,0.6199 0,0.2838 -18.07338,1.3189 -32.66667,1.871 -6.23333,0.2358 -18.53333,0.805 -27.33333,1.2649 -8.8,0.4599 -26.16688,1.1508 -38.59307,1.5352 -12.42619,0.3845 -24.72619,1.2646 -27.33333,1.9557 -2.60715,0.6912 -8.04027,1.2087 -12.0736,1.15 -8.29602,-0.1207 -53.96783,1.5448 -58.82499,2.1451 -1.74625,0.2159 -5.87501,0.7493 -9.17501,1.1855 -3.3,0.4362 -17.4,1.158 -31.33334,1.6039 -30.41029,0.9732 -41.35838,1.4972 -69.30788,3.3173 l -21.30789,1.3876 -18.38507,-6.2916 -18.38508,-6.2917 0.35963,-27.2903 c 0.34433,-26.13 0.47301,-27.3071 3.02629,-27.685 C 180.8,1048.3074 191,1047.8055 202,1047.4091 c 11,-0.3963 25.01861,-1.1022 31.15248,-1.5686 6.13387,-0.4664 14.83387,-1.0069 19.33333,-1.2012 29.45547,-1.2717 45.52648,-2.1 54.84752,-2.8267 5.86667,-0.4575 21.16667,-1.0021 34,-1.2103 12.83334,-0.2082 26.31722,-1.0614 29.96419,-1.8961 3.64696,-0.8346 15.64696,-1.4367 26.66667,-1.3379 21.05968,0.1888 59.14237,-0.9951 67.79284,-2.1075 2.79969,-0.36 18.39969,-0.5719 34.66666,-0.4709 16.26698,0.1011 30.77631,0.1418 32.24298,0.091 1.46666,-0.051 11.16537,-0.3531 21.55268,-0.671 10.3873,-0.3179 19.49585,-0.9549 20.2412,-1.4156 0.74536,-0.4606 1.64429,-0.3698 1.99765,0.202 0.48513,0.7849 78.94128,1.0982 90.20847,0.3601 7.44029,-0.4873 33.87877,1.4367 35.23756,2.5644 4.20012,3.4858 7.73496,30.4666 9.44338,72.0795 0.46666,11.3666 1.41671,22.1707 2.11123,24.0091 0.69604,1.8424 1.10083,16.2036 0.90196,32 -0.20016,15.8978 -0.78343,26.5797 -1.31,23.9909 z m 552.8406,-614.66667 c 0,-14.3 0.1962,-20.15 0.4359,-13 0.2398,7.15 0.2398,18.85 0,26 -0.2397,7.15 -0.4359,1.3 -0.4359,-13 z"
         id="path2507" />
      <path
         style="fill:#8cbed0;stroke-width:1.33333"
         d="m 725.69648,1276 c 0,-3.3 0.26003,-4.65 0.57783,-3 0.31781,1.65 0.31781,4.35 0,6 -0.3178,1.65 -0.57783,0.3 -0.57783,-3 z m -12.63191,-66.6667 c -0.50652,-2.5666 -1.57945,-15.7666 -2.38429,-29.3333 -1.79829,-30.3129 -3.63391,-48.4233 -5.5594,-54.85 -1.70331,-5.6851 -4.13144,-6.527 -16.45421,-5.705 -4.4,0.2935 -24.5,0.8576 -44.66667,1.2537 -20.16667,0.396 -40.56667,0.9635 -45.33333,1.2612 -4.76667,0.2977 -23.66667,0.8717 -42,1.2757 -18.33334,0.4039 -39.09951,1.4271 -46.14706,2.2738 -7.04754,0.8466 -14.52613,1.212 -16.61908,0.8119 -2.09294,-0.4001 -13.18613,-0.2246 -24.6515,0.39 -11.46539,0.6146 -28.8868,1.2267 -38.71426,1.3602 -9.82745,0.1335 -22.9681,0.7576 -29.20144,1.3868 -6.23333,0.6292 -24.27724,1.3576 -40.09758,1.6185 -15.82034,0.2609 -29.32034,0.8152 -30,1.2316 -0.67966,0.4165 -16.23575,0.9027 -34.56908,1.0804 l -33.33334,0.3231 L 238,1124.9591 c -13.93333,-4.814 -24.73333,-8.8088 -24,-8.8773 4.1556,-0.3879 57.77317,-3.6791 60,-3.6829 9.95768,-0.017 56.8108,-1.9731 60.34339,-2.519 2.38886,-0.3691 6.28886,-0.9082 8.66666,-1.1979 5.77084,-0.703 50.40214,-2.3799 59.65662,-2.2414 4.03333,0.06 9.46645,-0.4557 12.0736,-1.1469 2.60714,-0.6911 14.90714,-1.5712 27.33333,-1.9557 12.42619,-0.3844 29.79307,-1.0753 38.59307,-1.5352 8.8,-0.4599 21.1,-1.0291 27.33333,-1.2649 14.59329,-0.5521 32.66667,-1.5872 32.66667,-1.871 0,-0.1214 13.29277,-0.4003 29.5395,-0.6199 16.24674,-0.2195 30.24074,-0.8325 31.09779,-1.3622 1.45196,-0.8973 60.85399,-2.445 72.69604,-1.894 2.93333,0.1364 10.79652,0.3144 17.47373,0.3953 l 12.14042,0.1472 1.46896,5.3334 c 1.85001,6.7167 3.92801,25.1696 4.87981,43.3333 0.40349,7.7 1.05505,20 1.44792,27.3333 0.39287,7.3334 1.31945,15.7334 2.05908,18.6667 0.73964,2.9333 1.15823,9.5333 0.9302,14.6667 -0.34273,7.7156 -0.57423,8.5244 -1.33555,4.6666 z M 1265.5933,602 c 0.027,-2.2 0.326,-2.93859 0.664,-1.64129 0.3381,1.29729 0.3158,3.09729 -0.049,4 -0.3653,0.9027 -0.6419,-0.15871 -0.6147,-2.35871 z"
         id="path2505" />
      <path
         style="fill:#8abed0;stroke-width:1.33333"
         d="m 725.66957,1286 c 0.0148,-2.9333 0.28786,-3.9763 0.60678,-2.3178 0.31892,1.6586 0.30681,4.0586 -0.0269,5.3333 -0.33372,1.2748 -0.59466,-0.082 -0.57986,-3.0155 z m -12.5004,-21.3333 c -0.45694,-0.7334 -1.24617,-9.1334 -1.75381,-18.6667 -1.54323,-28.9811 -4.56579,-62.3691 -6.14017,-67.8261 l -1.48855,-5.1593 -6.59989,0.6341 c -3.62994,0.3488 -6.86304,0.2084 -7.18467,-0.312 -0.32161,-0.5204 -3.75367,-0.4621 -7.62676,0.1295 -3.87309,0.5916 -16.94199,1.3861 -29.04199,1.7655 -33.88268,1.0625 -57.20944,2.0329 -66,2.7454 -20.0158,1.6225 -26.91502,2.0688 -50.66666,3.278 -13.93334,0.7094 -28.93334,1.3078 -33.33334,1.3299 -13.41693,0.067 -31.10198,1.1146 -32.40348,1.919 -0.67657,0.4181 -12.90284,1.154 -27.16946,1.6352 l -25.93934,0.875 -43.24386,-14.8201 c -23.78412,-8.151 -57.88227,-19.8424 -75.77366,-25.9808 -24.65466,-8.4588 -31.65272,-11.3283 -28.90682,-11.8532 1.99264,-0.381 16.29262,-0.8014 31.77776,-0.9343 15.48512,-0.1329 28.74928,-0.609 29.4759,-1.0581 0.72662,-0.4491 14.26504,-1.03 30.08538,-1.2909 15.82034,-0.261 33.86425,-0.9893 40.09758,-1.6185 6.23334,-0.6292 19.37399,-1.2533 29.20144,-1.3868 9.82746,-0.1335 27.24887,-0.7456 38.71426,-1.3602 11.46537,-0.6146 22.55856,-0.7901 24.6515,-0.39 2.09295,0.4001 9.57154,0.035 16.61908,-0.8119 7.04755,-0.8467 27.81372,-1.8699 46.14706,-2.2739 18.33333,-0.4039 37.23333,-0.978 42,-1.2756 4.76666,-0.2977 25.16666,-0.8653 45.33333,-1.2613 20.16667,-0.396 40.26667,-0.9601 44.66667,-1.2537 12.32277,-0.8219 14.7509,0.02 16.45421,5.7051 1.93523,6.4592 3.77349,24.6657 5.53809,54.85 0.79312,13.5666 2.05583,27.6666 2.80602,31.3333 1.42416,6.9609 1.15405,55.6601 -0.29582,53.3333 z M 1265.87,625.33333 c 0,-11.36666 0.2045,-16.01666 0.4544,-10.33333 0.2499,5.68333 0.2499,14.98333 0,20.66667 -0.2499,5.68333 -0.4544,1.03333 -0.4544,-10.33334 z"
         id="path2503" />
      <path
         style="fill:#89bcce;stroke-width:1.33333"
         d="m 711.40583,1288.1173 c -0.41336,-0.6688 -1.35166,-8.9188 -2.08511,-18.3333 -1.31136,-16.8324 -3.41115,-33.6362 -4.74915,-38.0055 -0.60032,-1.9604 -2.75033,-2.1631 -18.29258,-1.7244 -16.03488,0.4525 -41.67798,1.6895 -56.94566,2.7469 -36.74848,2.5451 -47.67862,3.1735 -57.64477,3.3144 l -11.64477,0.1647 -71.24606,-24.4714 c -39.18534,-13.4593 -71.1452,-24.5488 -71.0219,-24.6433 0.12333,-0.095 11.86408,-0.5655 26.09064,-1.0467 14.22654,-0.4812 26.41254,-1.2124 27.08,-1.625 1.2875,-0.7957 19.03669,-1.8417 32.38686,-1.9087 4.4,-0.022 19.4,-0.6205 33.33334,-1.3298 23.75164,-1.2092 30.65086,-1.6556 50.66666,-3.2781 8.79056,-0.7125 32.11732,-1.6828 66,-2.7453 12.1,-0.3795 25.1689,-1.174 29.04199,-1.7656 3.87309,-0.5916 7.30515,-0.6499 7.62676,-0.1295 0.32163,0.5204 3.55473,0.6608 7.18467,0.312 l 6.59989,-0.6341 1.48855,5.1594 c 1.5905,5.5128 4.63285,39.1465 6.16889,68.1982 0.51488,9.738 1.45059,18.0234 2.07936,18.412 1.564,0.9666 1.45697,24.5492 -0.11147,24.5492 -0.69005,0 -1.59285,-0.5473 -2.0062,-1.2161 z M 1265.8868,669.33333 c 0,-13.56666 0.198,-19.11666 0.44,-12.33333 0.2419,6.78333 0.2419,17.88333 0,24.66667 -0.242,6.78333 -0.44,1.23333 -0.44,-12.33334 z"
         id="path2501" />
      <path
         style="fill:#86bacc;stroke-width:1.33333"
         d="m 659.33333,1271.4355 c -27.86666,-9.7074 -62.06666,-21.5888 -76,-26.4031 L 558,1236.2792 l 12.66667,-0.1584 c 10.87696,-0.136 20.81589,-0.6984 58.66666,-3.3198 15.26768,-1.0574 40.91078,-2.2944 56.94566,-2.7469 15.54225,-0.4387 17.69226,-0.236 18.29258,1.7244 1.338,4.3693 3.43779,21.1731 4.74915,38.0055 0.73345,9.4145 1.67175,17.6645 2.08511,18.3333 0.41334,0.6688 0.26614,1.1603 -0.32714,1.0921 -0.59328,-0.068 -23.87869,-8.0664 -51.74536,-17.7739 z M 1265.9538,762.66667 c 0,-38.5 0.1703,-54.25 0.3786,-35 0.2082,19.25 0.2082,50.75 0,70 -0.2083,19.25 -0.3786,3.5 -0.3786,-35 z M 175.27428,715.33333 c 3.6e-4,-29.33333 0.17635,-41.14337 0.39108,-26.24453 0.21473,14.89884 0.21444,38.89884 -6.5e-4,53.33333 -0.2151,14.4345 -0.39079,2.24454 -0.39043,-27.0888 z"
         id="path2499" />
      <path
         style="fill:#80f480;stroke-width:1.33333"
         d="m 751.52728,775.35795 c -0.49588,-1.29223 -0.51944,-6.07958 -0.0524,-10.63854 0.5204,-5.0793 0.28844,-9.33688 -0.599,-10.99509 -0.79653,-1.48833 -6.11948,-5.07096 -11.82875,-7.96137 -23.44445,-11.86916 -45.36321,-24.26164 -54.25385,-30.67419 -2.86367,-2.06549 -7.36367,-4.87779 -10,-6.24957 -2.63632,-1.37178 -7.16403,-4.37178 -10.06156,-6.66667 -2.89753,-2.29488 -6.43021,-4.77252 -7.8504,-5.50585 -4.00752,-2.06934 -2.99372,-3.8502 3.21519,-5.64786 3.13033,-0.9063 7.0667,-2.93977 8.7475,-4.51878 3.0842,-2.89746 6.88315,-5.34019 11.87742,-7.63722 1.4968,-0.68842 3.52026,-2.21418 4.49658,-3.39057 0.97632,-1.1764 2.53266,-2.13891 3.45852,-2.13891 0.92587,0 2.72544,-1.65 3.99903,-3.66666 1.2736,-2.01667 6.62645,-7.86667 11.89524,-13 5.26877,-5.13334 11.50419,-12.7892 13.85647,-17.01303 2.35228,-4.22384 6.28434,-10.30964 8.73793,-13.52403 11.59036,-15.18418 31.1262,-60.93242 41.61955,-97.46294 1.26389,-4.4 4.00296,-13.27994 6.08681,-19.7332 4.23128,-13.1033 6.49193,-30.2668 3.98657,-30.2668 -0.83864,0 -1.5248,-1.2 -1.5248,-2.66667 0,-1.48148 -0.88889,-2.66667 -2,-2.66667 -1.1,0 -2,-0.78952 -2,-1.75448 0,-2.60736 -7.2757,-6.21393 -35.33333,-17.51481 -13.93333,-5.61197 -26.68333,-11.08603 -28.33333,-12.16456 -2.44659,-1.59921 -3,-3.18509 -3,-8.59688 0,-3.90331 0.5989,-6.63593 1.45438,-6.63593 2.76071,0 209.20879,70.48128 210.96938,72.02484 0.86936,0.7622 -157.91675,267.16502 -164.80175,276.49556 -1.74992,2.37146 -1.91308,2.38156 -2.7614,0.17088 z"
         id="path2497" />
      <path
         style="fill:#80f280;stroke-width:1.33333"
         d="M 638,810.1092 C 595.46667,795.28571 475.01667,753.55168 370.33333,717.36691 265.65,681.18213 180,651.09003 180,650.49553 c 0,-1.16189 24.83908,-42.32397 26.8074,-44.42386 0.73124,-0.78012 1.82064,-0.44764 2.85427,0.87112 1.15121,1.46877 7.48336,3.03386 20.33833,5.02694 49.43504,7.66462 105.98403,21.66879 170,42.09996 12.83333,4.09586 26.03333,8.2631 29.33333,9.26054 3.3,0.99744 17.7,5.47034 32,9.9398 41.56207,12.9902 46.28531,14.3519 66.66667,19.22009 26.05143,6.22251 38.99237,8.69741 49.33333,9.43481 16.12008,1.1495 37.97408,0.87978 42.65787,-0.52646 2.56183,-0.76916 6.76183,-1.41112 9.33333,-1.42659 2.57151,-0.0155 8.8458,-1.49956 13.9429,-3.29797 8.20817,-2.89611 9.51554,-3.0453 11.43832,-1.30522 1.19398,1.08055 2.62266,1.96464 3.17484,1.96464 0.55217,0 3.50493,2.03508 6.56168,4.52242 3.05676,2.48732 7.71473,5.63732 10.35105,7 2.63633,1.36266 7.13633,4.16752 10,6.23301 8.89064,6.41255 30.8094,18.80503 54.25385,30.67419 5.70927,2.89041 11.03222,6.47304 11.82875,7.96137 0.88744,1.65821 1.1194,5.91579 0.599,10.99509 -0.87013,8.49306 -0.0972,13.15594 1.96892,11.87896 0.64043,-0.39581 -7.07245,13.08883 -17.13972,29.96584 C 726.23685,823.44123 717.4,837.20724 716.66667,837.15535 715.93333,837.10348 680.53333,824.93269 638,810.1092 Z"
         id="path2495" />
      <path
         style="fill:#7df47d;stroke-width:1.33333"
         d="m 647.84848,690.25224 c -1.75,-1.6946 -5.28181,-4.51816 -7.84848,-6.2746 -5.75281,-3.9368 -24.79589,-19.58447 -34.66667,-28.48556 -19.2477,-17.35685 -53.45348,-52.17552 -56.2315,-57.23904 -0.72832,-1.32749 -3.964,-5.22749 -7.19043,-8.66667 -3.22641,-3.43917 -5.87639,-6.93885 -5.88881,-7.77705 -0.0255,-1.72108 3.67292,-3.48821 5.2546,-2.51068 0.5701,0.35233 5.16596,0.0709 10.21301,-0.62525 5.04705,-0.69624 11.28551,-1.54787 13.86323,-1.89254 2.57772,-0.34466 7.37772,-1.297 10.66666,-2.11632 3.28895,-0.8193 7.25534,-1.69297 8.81419,-1.94149 1.55887,-0.24851 4.10887,-1.13397 5.66667,-1.96768 1.55781,-0.83372 2.83238,-1.07473 2.83238,-0.5356 0,0.53913 0.72,0.26024 1.6,-0.61976 0.88,-0.88 2.53,-1.59781 3.66667,-1.59513 3.69255,0.009 29.8968,-13.65198 36.25171,-18.89855 3.40177,-2.80848 6.70177,-5.10663 7.33333,-5.107 0.63156,-3.6e-4 4.44829,-3.28183 8.48163,-7.29213 4.03333,-4.01031 8.03248,-7.31002 8.88698,-7.33267 0.85451,-0.0227 4.28163,-3.79119 7.61582,-8.37452 3.3342,-4.58333 7.28074,-9.92303 8.7701,-11.86597 1.48936,-1.94296 3.07643,-4.49296 3.52683,-5.66667 0.4504,-1.17372 1.50471,-2.15016 2.34292,-2.16989 0.8382,-0.0197 3.02401,-2.5139 4.85735,-5.5426 1.83333,-3.0287 4.70212,-7.5669 6.37509,-10.08488 5.81153,-8.74694 10.80429,-19.98392 13.0938,-29.46967 1.26643,-5.24697 2.054,-9.78477 1.75019,-10.08401 -0.30383,-0.29924 -16.75242,-6.94779 -36.55242,-14.77455 -19.8,-7.82677 -36.4735,-14.68403 -37.05224,-15.23836 -1.39749,-1.33859 1.88236,-13.42149 3.66211,-13.49109 2.45067,-0.0959 71.42155,23.3703 70.04663,23.83213 -0.72774,0.24445 -1.32316,3.38061 -1.32316,6.96927 0,5.29656 0.56473,6.89396 3,8.48577 1.65,1.07853 14.4,6.55259 28.33333,12.16456 28.05763,11.30088 35.33333,14.90745 35.33333,17.51481 0,0.96496 0.9,1.75448 2,1.75448 1.11111,0 2,1.18519 2,2.66667 0,1.46667 0.68616,2.66667 1.5248,2.66667 2.50536,0 0.24471,17.1635 -3.98653,30.2668 -2.08385,6.45326 -4.82292,15.3332 -6.08681,19.7332 -10.49335,36.53052 -30.02919,82.27876 -41.61955,97.46294 -2.45359,3.21439 -6.38565,9.30019 -8.73793,13.52403 -2.35228,4.22383 -8.5877,11.87969 -13.85647,17.01303 -5.26879,5.13333 -10.62164,10.98333 -11.89524,13 -1.27359,2.01666 -3.07316,3.66666 -3.99903,3.66666 -0.92586,0 -2.4822,0.96251 -3.45852,2.13891 -0.97632,1.17639 -2.99978,2.70215 -4.49658,3.39057 -4.98011,2.29051 -8.79014,4.73687 -11.84066,7.60268 -2.45045,2.30207 -13.61162,6.79307 -17.03233,6.85342 -0.45,0.008 -2.25,-1.37207 -4,-3.06667 z"
         id="path2493" />
      <path
         style="fill:#7ab0c3;stroke-width:1.33333"
         d="m 175.31077,918 c 6e-5,-82.86667 0.16014,-116.57049 0.35572,-74.89737 0.19559,41.6731 0.19555,109.4731 -9e-5,150.66666 -0.19565,41.19351 -0.35568,7.09741 -0.35563,-75.76929 z m 1090.65833,21.33333 c -10e-5,-59.4 0.1636,-83.89476 0.3637,-54.43278 0.2002,29.46196 0.2003,78.06196 2e-4,108 -0.2001,29.93805 -0.3638,5.83278 -0.3639,-53.56722 z m -550.84535,-80 c 0.005,-5.86666 0.23925,-8.10081 0.52092,-4.96476 0.28165,3.13606 0.27769,7.93606 -0.009,10.66667 -0.28649,2.73061 -0.51694,0.16476 -0.5121,-5.70191 z"
         id="path2491" />
      <path
         style="fill:#7df27d;stroke-width:1.33333"
         d="m 585.14363,702.54991 c -0.69675,-0.43088 -4.9891,-0.89211 -9.53856,-1.02494 -8.93998,-0.26102 -17.67935,-1.92218 -47.60507,-9.04868 -20.37056,-4.85102 -25.05592,-6.20085 -66.66667,-19.20626 -14.3,-4.46946 -28.7,-8.94236 -32,-9.9398 -3.3,-0.99744 -16.5,-5.16468 -29.33333,-9.26054 -63.87204,-20.38524 -120.02915,-34.30222 -170,-42.1298 -13.00185,-2.03665 -19.32921,-3.61928 -20.84989,-5.21508 -2.03634,-2.13692 -1.01491,-4.21202 15.18096,-30.84128 9.5503,-15.70261 18.30825,-30.13838 19.46209,-32.0795 2.08883,-3.51404 2.10404,-3.51694 3.5166,-0.66667 0.89048,1.7968 2.89651,2.9974 5.3878,3.22457 9.48047,0.86452 49.94889,5.85616 56.63577,6.98583 4.03334,0.68139 21.13334,3.40027 38,6.04196 16.86667,2.64169 41.76667,6.59681 55.33334,8.78916 13.56666,2.19235 26.16666,4.22827 28,4.52425 8.77785,1.41718 46.42164,5.55758 60,6.59935 3.3,0.25319 14.85,0.60672 25.66666,0.78564 13.14412,0.21743 19.67416,0.80952 19.68926,1.78527 0.012,0.80297 2.6624,4.27381 5.88881,7.71298 3.22643,3.43918 6.46211,7.33918 7.19043,8.66667 2.77802,5.06352 36.9838,39.88219 56.2315,57.23904 9.87078,8.90109 28.91386,24.54876 34.66667,28.48556 5.57828,3.81735 11.28195,9.18875 10.53536,9.92159 -1.53081,1.50261 -17.7142,6.10178 -21.49329,6.10821 -2.40647,0.004 -6.72822,0.66068 -9.60388,1.45908 -5.58687,1.55116 -32.17971,2.39125 -34.29456,1.08339 z"
         id="path2489" />
      <path
         style="fill:#79f479;stroke-width:1.33333"
         d="M 531.57288,575.79752 C 529.6078,573.55807 528,571.25168 528,570.67221 c 0,-0.57946 -0.9,-1.39893 -2,-1.82105 -1.1,-0.42211 -2,-1.96629 -2,-3.43153 0,-1.46524 -2.00732,-4.6714 -4.46072,-7.12479 -2.45339,-2.4534 -5.90033,-8.1734 -7.65988,-12.71111 -1.75953,-4.53772 -3.80575,-8.2504 -4.54713,-8.2504 -0.74139,0 -2.13374,-1.95 -3.09411,-4.33333 -0.96039,-2.38333 -2.30685,-5.37519 -2.99216,-6.64857 -0.68529,-1.27339 -1.246,-3.09004 -1.246,-4.03702 0,-0.94697 -1.06832,-2.63649 -2.37404,-3.75449 -1.31985,-1.13009 -3.19637,-5.97335 -4.22595,-10.90704 -1.01853,-4.88087 -2.65022,-9.18065 -3.62594,-9.55508 C 488.79833,497.72337 488,496.15533 488,494.61328 c 0,-1.54207 -0.95536,-3.75912 -2.12301,-4.92677 -1.40642,-1.40642 -1.86772,-3.39951 -1.36667,-5.90476 0.41599,-2.07996 0.23437,-3.78175 -0.4036,-3.78175 -0.63799,0 -1.45929,-2.25 -1.82515,-5 -0.36585,-2.75 -1.39969,-7.54145 -2.29741,-10.64767 -1.03823,-3.5924 -1.30303,-8.72166 -0.72763,-14.09461 0.88266,-8.24215 1.02387,-8.49041 5.82403,-10.23983 2.70569,-0.98609 7.27231,-2.0338 10.14804,-2.32825 2.87573,-0.29445 7.51293,-1.70073 10.30488,-3.12508 2.79195,-1.42435 6.73908,-2.69821 8.7714,-2.83083 2.03232,-0.13253 4.87863,-1.02693 6.32513,-1.98741 1.4465,-0.96048 3.4208,-1.74632 4.38732,-1.74632 0.96652,0 3.38302,-1.16511 5.36999,-2.58913 1.98697,-1.42402 6.76268,-3.59308 10.61268,-4.82014 3.85,-1.22705 7,-2.76194 7,-3.41086 0,-0.64894 1.05567,-1.17987 2.34593,-1.17987 1.29027,0 3.01678,-1.05 3.8367,-2.33333 0.8199,-1.28334 3.81422,-3.5304 6.65405,-4.99348 2.83983,-1.46308 5.92973,-3.68795 6.86648,-4.94415 0.93673,-1.25621 2.58673,-1.94495 3.66667,-1.53055 1.07992,0.41442 1.95662,0.23928 1.94821,-0.38917 -0.0221,-1.65001 -14.82457,-8.09083 -51.65968,-22.47804 -22.17947,-8.66295 -21.66299,-8.12963 -14.5928,-15.06848 l 5.81819,-5.71012 63.74937,21.72365 c 35.06215,11.94802 62.88211,21.89479 61.82211,22.10392 -2.1979,0.43367 -5.774,12.19072 -4.17414,13.72315 0.57874,0.55433 17.25224,7.41159 37.05224,15.23836 19.8,7.82676 36.24859,14.47531 36.55242,14.77455 0.30381,0.29924 -0.48376,4.83704 -1.75019,10.08401 -2.28951,9.48575 -7.28227,20.72273 -13.0938,29.46967 -1.67297,2.51798 -4.54176,7.05618 -6.37509,10.08488 -1.83334,3.0287 -4.01915,5.52288 -4.85735,5.5426 -0.83821,0.0197 -1.89252,0.99617 -2.34292,2.16989 -0.4504,1.17371 -2.03747,3.72371 -3.52683,5.66667 -1.48936,1.94294 -5.4359,7.28264 -8.7701,11.86597 -3.33419,4.58333 -6.76131,8.35187 -7.61582,8.37452 -0.8545,0.0227 -4.85365,3.32236 -8.88698,7.33267 -4.03334,4.0103 -7.85007,7.29177 -8.48163,7.29213 -0.63156,3.7e-4 -3.93156,2.29852 -7.33333,5.107 -6.35491,5.24657 -32.55916,18.90723 -36.25171,18.89855 -1.13667,-0.003 -2.78667,0.71513 -3.66667,1.59513 -0.88,0.88 -1.6,1.15889 -1.6,0.61976 0,-0.53913 -1.27457,-0.29812 -2.83238,0.5356 -1.5578,0.83371 -4.1078,1.72515 -5.66667,1.98097 -1.55885,0.25583 -6.97457,1.40451 -12.03495,2.55263 -5.06036,1.14812 -9.48925,1.79891 -9.84197,1.44617 -0.35272,-0.35272 -1.64427,-0.10453 -2.87009,0.5515 -1.22583,0.65604 -7.33915,1.50552 -13.58514,1.88772 -11.34912,0.69446 -11.35865,0.6923 -14.92925,-3.37683 z"
         id="path2487" />
      <path
         style="fill:#79f279;stroke-width:1.33333"
         d="m 512.89471,580.46928 c -0.12547,-0.10853 -6.82804,-0.53956 -14.89471,-0.95777 -17.42635,-0.9035 -53.10303,-4.51092 -67.33333,-6.80838 -1.83334,-0.29598 -14.43334,-2.3319 -28,-4.52425 C 389.1,565.98653 364.2,562.03141 347.33333,559.38972 c -16.86666,-2.64169 -33.96666,-5.36057 -38,-6.04196 -6.68688,-1.12967 -47.1553,-6.12131 -56.63577,-6.98583 -2.61579,-0.23852 -4.50013,-1.43288 -5.52655,-3.50288 -1.41564,-2.85493 0.45366,-6.49732 20.52827,-40 12.14715,-20.27248 23.18409,-38.28997 24.52655,-40.03886 l 2.44084,-3.17982 v 3.48775 c 0,2.53659 0.81813,3.66393 3,4.13384 10.16264,2.18867 98.35796,3.35151 164.33333,2.16671 2.2,-0.0395 6.94724,-0.7603 10.54941,-1.60175 5.85615,-1.36796 6.73824,-1.27165 8.33334,0.90976 0.98116,1.34181 1.78392,4.42499 1.78392,6.85149 0,2.42651 0.585,4.41183 1.3,4.41183 0.71666,0 0.96061,1.69696 0.54365,3.78175 -0.50105,2.50525 -0.0397,4.49834 1.36667,5.90476 1.16765,1.16765 2.12301,3.3847 2.12301,4.92677 0,1.54205 0.79833,3.11009 1.77407,3.48452 0.97572,0.37443 2.60741,4.67421 3.62594,9.55508 1.02958,4.93369 2.9061,9.77695 4.22595,10.90704 1.30572,1.118 2.37404,2.80752 2.37404,3.75449 0,0.94698 0.56071,2.76363 1.246,4.03702 0.68531,1.27338 2.03177,4.26524 2.99216,6.64857 0.96037,2.38333 2.35272,4.33333 3.09411,4.33333 0.74138,0 2.7876,3.71268 4.54713,8.2504 1.75955,4.53771 5.20649,10.25771 7.65988,12.71111 2.4534,2.45339 4.46072,5.65955 4.46072,7.12479 0,1.46524 0.9,3.00942 2,3.43153 1.1,0.42212 2,1.27237 2,1.88947 0,0.61709 1.5,2.7405 3.33333,4.7187 1.83334,1.9782 3.33386,3.95912 3.33448,4.40203 9.4e-4,0.66139 -21.03286,1.24867 -21.7731,0.60792 z"
         id="path2485" />
      <path
         style="fill:#75f375;stroke-width:1.33333"
         d="m 329.33333,469.07083 c -34.54557,-1.38026 -34.66666,-1.4009 -34.66666,-5.91062 v -3.45564 l -2.68976,3.14772 c -1.47936,1.73124 18.02754,-31.46026 43.34869,-73.75889 l 46.03845,-76.9066 12.98464,4.43491 c 55.8487,19.07517 122.33842,42.29729 122.93102,42.93474 0.39616,0.42615 -0.5042,0.3997 -2.0008,-0.0588 -2.05782,-0.63042 -4.14851,0.62082 -8.57714,5.13326 l -5.85604,5.96688 7.91047,3.49885 c 4.35076,1.92437 13.91047,5.79156 21.2438,8.59375 27.22767,10.40414 43.29631,17.49622 43.31804,19.11894 0.008,0.62846 -0.86829,0.80359 -1.94821,0.38918 -1.07994,-0.4144 -2.72994,0.27433 -3.66667,1.53054 -0.93675,1.2562 -4.02665,3.48107 -6.86648,4.94415 -2.83983,1.46308 -5.83415,3.71015 -6.65405,4.99348 -0.81992,1.28333 -2.54643,2.33333 -3.8367,2.33333 -1.29026,0 -2.34593,0.53094 -2.34593,1.17987 0,0.64892 -3.15,2.18381 -7,3.41087 -3.85,1.22705 -8.62571,3.39612 -10.61268,4.82013 -1.98697,1.42403 -4.40347,2.58913 -5.36999,2.58913 -0.96652,0 -2.94082,0.78584 -4.38732,1.74632 -1.4465,0.96048 -4.29281,1.85482 -6.32513,1.98742 -2.03232,0.13266 -5.97945,1.40648 -8.7714,2.83082 -2.79195,1.42435 -7.42915,2.83063 -10.30488,3.12508 -2.87573,0.29446 -7.44235,1.34216 -10.14804,2.32826 -4.78505,1.7439 -4.94365,2.01898 -5.80581,10.06966 -0.4875,4.55223 -0.4954,10.0568 -0.0176,12.23239 0.85966,3.91405 0.78761,3.97159 -6.86087,5.47775 -9.27437,1.82633 -3.3804,1.63718 -64.39632,2.0666 -27.5,0.19353 -62.9,-0.16354 -78.66667,-0.79347 z"
         id="path2483" />
      <path
         style="fill:#70a6ba;stroke-width:1.33333"
         d="m 715.30712,997.33333 c 0,-70.76666 0.16165,-99.71666 0.35924,-64.33333 0.19759,35.38333 0.19759,93.2833 0,128.6667 -0.19759,35.3833 -0.35924,6.4333 -0.35924,-64.33337 z M 175.19275,1086 c 0.003,-10.2667 0.21137,-14.2904 0.4651,-8.9417 0.25374,5.3488 0.25203,13.7488 -0.004,18.6667 -0.25558,4.9179 -0.46318,0.5417 -0.4611,-9.725 z m 1090.70875,-10.6667 c 10e-4,-16.1333 0.1936,-22.55 0.4279,-14.2594 0.2343,8.2906 0.2335,21.4906 0,29.3333 -0.2353,7.8427 -0.427,1.0595 -0.426,-15.0739 z"
         id="path2481" />
      <path
         style="fill:#659ab0;stroke-width:1.33333"
         d="m 715.29395,1208 c 0,-45.8333 0.1674,-64.5833 0.37201,-41.6667 0.20461,22.9167 0.20461,60.4167 0,83.3334 -0.20461,22.9166 -0.37201,4.1666 -0.37201,-41.6667 z"
         id="path2479" />
      <path
         style="fill:#45758c;stroke-width:1.33333"
         d="m 724.62999,936 c 0,-49.5 0.16624,-69.75 0.36941,-45 0.20317,24.75 0.20317,65.25 0,90 -0.20317,24.75 -0.36941,4.5 -0.36941,-45 z"
         id="path2477" />
      <path
         style="fill:#3d6b82;stroke-width:1.33333"
         d="m 724.63073,1116.6667 c 1.4e-4,-50.6 0.1661,-71.1061 0.36882,-45.5691 0.2027,25.537 0.2026,66.937 -2.6e-4,92 -0.20284,25.063 -0.36869,4.1691 -0.36856,-46.4309 z"
         id="path2475" />
      <path
         style="fill:#38657b;stroke-width:1.33333"
         d="m 724.59388,1249.3333 c 0,-23.1 0.18161,-32.55 0.40359,-21 0.22197,11.55 0.22197,30.45 0,42 -0.22198,11.55 -0.40359,2.1 -0.40359,-21 z"
         id="path2473" />
      <path
         style="fill:#4e4e4e;stroke-width:1.33333"
         d="m 719.66667,183.11696 c 0.91666,-0.36988 2.41666,-0.36988 3.33333,0 0.91667,0.36988 0.16667,0.67252 -1.66667,0.67252 -1.83333,0 -2.58333,-0.30264 -1.66666,-0.67252 z"
         id="path2471" />
      <path
         style="fill:#122835;stroke-width:1.33333"
         d="m 173.69648,668 c 0,-3.3 0.26003,-4.65 0.57783,-3 0.31781,1.65 0.31781,4.35 0,6 -0.3178,1.65 -0.57783,0.3 -0.57783,-3 z"
         id="path2469" />
      <path
         style="fill:#0c1b25;stroke-width:1.33333"
         d="m 173.98411,889.33333 c 0,-119.16666 0.15709,-167.91666 0.34912,-108.33333 0.19201,59.58333 0.19201,157.08333 0,216.66667 -0.19203,59.58333 -0.34912,10.83333 -0.34912,-108.33334 z"
         id="path2467" />
      <path
         style="fill:#191919;stroke-width:1.33333"
         d="m 165.98496,882 c 1e-5,-126.13333 0.15675,-177.53588 0.34829,-114.22788 0.19155,63.308 0.19154,166.508 -4e-5,229.33333 C 166.14165,1059.9308 165.98493,1008.1333 165.98496,882 Z M 1275.3239,742.66667 c 0,-202.76667 0.1542,-285.71667 0.3427,-184.33334 0.1885,101.38334 0.1885,267.28334 0,368.66667 -0.1885,101.3833 -0.3427,18.43333 -0.3427,-184.33333 z"
         id="path2465" />
      <path
         style="fill:#000000;stroke-width:1.33333"
         d="m 443.01953,1206.923 -276.31378,-95.5897 -0.0195,-229.48098 -0.0195,-229.481 103.95818,-173.76291 C 327.80187,383.03883 375.35187,304.09812 376.29152,303.18463 378.19075,301.33831 717.5064,184 720.94632,184 c 1.58515,0 537.55078,184.74713 551.54808,190.11839 2.0002,0.76756 2.1723,29.99656 2.1723,369.04289 v 368.20932 l -277.10827,95.648 c -152.40954,52.6065 -277.35954,95.6134 -277.66667,95.5711 -0.30713,-0.042 -124.89964,-43.0923 -276.87223,-95.6667 z M 716,1069.58 V 847.16005 L 445.72081,753.67389 c -148.65356,-51.4174 -270.75356,-93.193 -271.33333,-92.83468 -0.90755,0.5609 -1.62725,444.41849 -0.72081,444.53809 0.18333,0.024 121.23333,41.956 269,93.1818 147.76666,51.2258 269.71666,93.206 271,93.2894 C 715.88017,1291.9922 716,1280.5774 716,1069.58 Z M 996.98455,1199.0119 1266.6357,1106 l 0.015,-361 c 0.01,-228.96867 -0.4512,-361 -1.2605,-361 -1.2045,0 -333.75406,114.51144 -334.1733,115.07056 -0.1084,0.14453 -46.77661,78.15989 -103.70721,173.36748 L 724,845.54276 v 223.22864 c 0,177.6876 0.34001,223.231 1.66667,223.2405 0.91666,0.01 123.0097,-41.8434 271.31788,-93 z M 820.66667,670.40996 C 876.4,577.17523 922.1794,500.16729 922.39867,499.28121 c 0.24548,-0.99204 -6.92675,-4.17028 -18.66667,-8.27178 -10.48593,-3.66342 -132.41103,-45.85526 -270.94464,-93.75964 -243.37652,-84.15867 -251.94384,-87.01143 -253.79087,-84.50768 -6.74478,9.1429 -202.59381,338.79517 -201.78109,339.63706 1.05904,1.09704 538.47045,187.43415 540.7846,187.5067 0.73333,0.0229 46.93333,-76.24118 102.66667,-169.47591 z M 1094,435.56616 c 89.4667,-30.93568 162.6667,-56.82657 162.6667,-57.53533 0,-1.30711 -531.46609,-185.85564 -535.55717,-185.96914 C 719.88644,192.02776 645.85863,217.2 556.60328,248 c -89.25533,30.8 -162.55463,56 -162.88731,56 -7.00658,0 43.75259,18.14856 267.0313,95.47499 146.62233,50.77861 267.48606,92.3277 268.58606,92.3313 1.1,0.004 75.19997,-25.30445 164.66667,-56.24013 z"
         id="path2463" />
    </g>
  </g>
</svg>
