<?xml version="1.0" encoding="UTF-8" standalone="no"?>
<!-- Created with Inkscape (http://www.inkscape.org/) -->

<svg
   version="1.1"
   id="svg1084"
   width="1440"
   height="1440"
   viewBox="0 0 1440 1440"
   sodipodi:docname="PartDesign_Plane.svg"
   inkscape:version="1.1.2 (b8e25be833, 2022-02-05)"
   xmlns:inkscape="http://www.inkscape.org/namespaces/inkscape"
   xmlns:sodipodi="http://sodipodi.sourceforge.net/DTD/sodipodi-0.dtd"
   xmlns="http://www.w3.org/2000/svg"
   xmlns:svg="http://www.w3.org/2000/svg">
  <defs
     id="defs1088" />
  <sodipodi:namedview
     id="namedview1086"
     pagecolor="#505050"
     bordercolor="#eeeeee"
     borderopacity="1"
     inkscape:pageshadow="0"
     inkscape:pageopacity="0"
     inkscape:pagecheckerboard="0"
     showgrid="false"
     inkscape:zoom="0.49930556"
     inkscape:cx="672.93463"
     inkscape:cy="720"
     inkscape:window-width="1920"
     inkscape:window-height="1028"
     inkscape:window-x="-6"
     inkscape:window-y="-6"
     inkscape:window-maximized="1"
     inkscape:current-layer="g1090" />
  <g
     inkscape:groupmode="layer"
     inkscape:label="Image"
     id="g1090">
    <g
       id="g1151"
       transform="matrix(1.1605148,0,0,1.1605148,-128.99375,-122.54211)">
      <path
         style="fill:#dadada;stroke-width:1.33333"
         d="m 680.62236,1250 c -2e-4,-40.3333 0.16925,-57.0258 0.37656,-37.0944 0.20731,19.9314 0.20748,52.9314 3.7e-4,73.3333 -0.20712,20.402 -0.37673,4.0944 -0.37693,-36.2389 z m -0.004,-1068.66667 c 0,-36.3 0.17147,-51.15 0.38101,-33 0.20956,18.15 0.20956,47.85 0,66 -0.20954,18.15 -0.38101,3.3 -0.38101,-33 z"
         id="path1241" />
      <path
         style="fill:#c6c6c6;stroke-width:1.33333"
         d="m 132.65899,616.66667 c 0,-250.8 0.15345,-353.2013 0.34099,-227.55844 0.18754,125.64285 0.18754,330.84285 -1e-5,456 -0.18755,125.15714 -0.34099,22.35844 -0.34098,-228.44156 z"
         id="path1239" />
      <path
         style="fill:#b9b9b9;stroke-width:1.33333"
         d="m 736.62308,1262 c -1.9e-4,-41.0667 0.16895,-58.0593 0.37588,-37.7613 0.20692,20.2979 0.20708,53.8979 3.5e-4,74.6666 -0.20672,20.7688 -0.37603,4.1614 -0.37623,-36.9053 z M 1329.9923,826 c 0,-250.8 0.1535,-353.20129 0.341,-227.55844 0.1876,125.64285 0.1876,330.84285 0,456.00004 -0.1875,125.1571 -0.341,22.3584 -0.341,-228.4416 z M 736.61789,192 c 0,-36.3 0.17147,-51.15 0.38102,-33 0.20956,18.15 0.20956,47.85 0,66 -0.20955,18.15 -0.38102,3.3 -0.38102,-33 z"
         id="path1237" />
      <path
         style="fill:#ee4040;stroke-width:1.33333"
         d="m 709.18175,167.37717 c -7.78338,-2.38066 -14.83338,-4.74984 -15.66667,-5.26484 C 692.51452,161.49395 692,155.5122 692,144.49813 c 0,-15.25931 0.19847,-16.61876 2.33333,-15.98339 1.28334,0.38195 7.73334,1.65905 14.33334,2.83802 6.6,1.17897 13.05,2.44733 14.33333,2.81859 2.07828,0.60124 2.33333,2.70566 2.33333,19.25184 0,10.21724 -0.45,18.51058 -1,18.42962 -0.55,-0.0809 -7.36821,-2.09498 -15.15158,-4.47564 z"
         id="path1235" />
      <path
         style="fill:#ec3d3d;stroke-width:1.33333"
         d="m 710,247.99821 c -8.06667,-3.53289 -15.41667,-7.10142 -16.33333,-7.93006 C 692.40659,238.92907 692,229.16775 692,200.05469 v -38.50684 l 5,1.83376 c 2.75,1.00858 10.25,3.37959 16.66667,5.26894 l 11.66666,3.43517 v 41.29047 c 0,22.70977 -0.15,41.23536 -0.33333,41.16798 -0.18333,-0.0673 -6.93333,-3.01305 -15,-6.54596 z"
         id="path1233" />
      <path
         style="fill:#ea3939;stroke-width:1.33333"
         d="m 706.66667,307.72743 c -6.96667,-1.46619 -13.10748,-3.35466 -13.64626,-4.19662 -0.53877,-0.84194 -0.98877,-15.80446 -1,-33.25005 -0.0163,-25.29103 0.31735,-31.41391 1.64626,-30.21261 0.91666,0.82864 8.26666,4.33141 16.33333,7.78393 l 14.66667,6.27733 0.35985,28.26863 0.35985,28.26863 -3.02652,-0.13674 c -1.66458,-0.0752 -8.72652,-1.33633 -15.69318,-2.8025 z"
         id="path1231" />
      <path
         style="fill:#e83535;stroke-width:1.33333"
         d="m 720,412.04984 c -2.56667,-0.5586 -9.16667,-1.79493 -14.66667,-2.7474 -5.5,-0.95247 -10.75,-2.30863 -11.66666,-3.01369 -1.28574,-0.98894 -1.64262,-13.05358 -1.5614,-52.78534 0.0579,-28.32688 0.38676,-50.8168 0.73082,-49.9776 0.34406,0.8392 7.7967,2.90751 16.5614,4.59622 l 15.93584,3.0704 v 51.07045 c 0,28.08875 -0.15,51.01019 -0.33333,50.93652 -0.18333,-0.0737 -2.43333,-0.59097 -5,-1.14956 z M 725.80661,146 c -0.004,-6.6 0.2214,-9.46811 0.50103,-6.37356 0.27963,3.09453 0.28296,8.49453 0.008,12 -0.27556,3.50545 -0.50436,0.97356 -0.50841,-5.62644 z"
         id="path1229" />
      <path
         style="fill:#e63232;stroke-width:1.33333"
         d="M 710.66667,473.22861 C 703.7,471.86545 696.65,470.41993 695,470.01633 l -3,-0.7338 v -32.13786 c 0,-25.5051 0.34397,-31.87328 1.66667,-30.85592 0.91666,0.70506 6.16666,2.06122 11.66666,3.01369 5.5,0.95247 12.1,2.12561 14.66667,2.60699 l 4.66667,0.87521 0.35746,31.60768 c 0.1966,17.38423 -0.10333,31.54177 -0.66666,31.46123 -0.56328,-0.0805 -6.72414,-1.26178 -13.6908,-2.62494 z M 725.93673,206 c 4.2e-4,-27.13333 0.1782,-38.04409 0.39508,-24.24613 0.21688,13.79797 0.21655,35.99797 -7.4e-4,49.33333 -0.2173,13.33537 -0.39475,2.04613 -0.39434,-25.0872 z"
         id="path1227" />
      <path
         style="fill:#e12d2d;stroke-width:1.33333"
         d="m 718,690.61651 c -2.2,-0.6108 -6.4,-1.8052 -9.33333,-2.65426 -2.93334,-0.84904 -7.43334,-1.86537 -10,-2.25853 -2.56667,-0.39315 -5.10748,-1.38732 -5.64626,-2.20927 -0.53877,-0.82194 -0.98877,-30.77164 -1,-66.55486 L 692,551.87916 l 5,0.94595 c 2.75,0.52028 10.1,1.90436 16.33333,3.07573 l 11.33334,2.12979 0.34566,66.98469 c 0.27454,53.20136 1.8e-4,66.9566 -1.33333,66.8482 -0.92345,-0.0751 -3.479,-0.63623 -5.679,-1.24701 z m 7.9382,-385.94984 c -3.9e-4,-27.86667 0.17645,-39.45616 0.39297,-25.75443 0.21654,13.70173 0.21686,36.50173 7.2e-4,50.66667 -0.21613,14.16493 -0.39329,2.95442 -0.39369,-24.91224 z M 690.9266,131.33333 c 0.0272,-2.2 0.326,-2.93858 0.66405,-1.64129 0.33806,1.29729 0.31583,3.09729 -0.0495,4 -0.36524,0.90271 -0.64183,-0.15871 -0.61466,-2.35871 z"
         id="path1225" />
      <path
         style="fill:#dd2929;stroke-width:1.33333"
         d="m 712,834.66667 c -1.1,-0.71088 -3.5,-1.31072 -5.33333,-1.33299 -1.83334,-0.0223 -5.73334,-0.8756 -8.66667,-1.89629 l -5.33333,-1.8558 -0.31956,-73.7908 c -0.17575,-40.58494 0.12426,-73.11828 0.66666,-72.29634 0.54243,0.82195 3.08623,1.81612 5.6529,2.20927 2.56666,0.39316 7.06666,1.40851 10,2.25635 2.93333,0.84784 7.88333,2.15225 11,2.8987 l 5.66666,1.35719 V 764.10797 836 l -5.66666,-0.0204 C 716.55,835.96836 713.1,835.37755 712,834.66667 Z m 13.94789,-419.33334 c 2.8e-4,-33.73333 0.17328,-47.34218 0.38444,-30.24189 0.21116,17.10028 0.21094,44.70028 -5e-4,61.33333 -0.21146,16.63304 -0.38422,2.6419 -0.38394,-31.09144 z M 691.26932,182.66667 c 0,-26.76667 0.17793,-37.71667 0.39541,-24.33334 0.21748,13.38334 0.21748,35.28334 0,48.66667 -0.21748,13.38333 -0.39541,2.43333 -0.39541,-24.33333 z"
         id="path1223" />
      <path
         style="fill:#da2828;stroke-width:1.33333"
         d="m 710,896.69217 c -4.4,-0.93869 -10.25,-2.10564 -13,-2.5932 l -5,-0.88648 v -31.8465 -31.84651 l 4.33333,1.37616 c 6.31826,2.00651 15.43167,3.88515 22.66667,4.67251 l 6.33333,0.68922 v 31.20464 31.20466 l -3.66666,-0.13388 C 719.65,898.45919 714.4,897.63088 710,896.69217 Z M 691.20639,251.33333 c 10e-4,-11.73333 0.20566,-16.35484 0.45328,-10.27002 0.24762,6.08482 0.24624,15.68482 -0.003,21.33333 -0.24931,5.64852 -0.45191,0.67003 -0.45021,-11.06331 z"
         id="path1221" />
      <path
         style="fill:#d92626;stroke-width:1.33333"
         d="m 708.18364,1006.0035 c -8.73861,-1.0524 -14.24387,-2.3388 -14.97959,-3.5004 -0.63977,-1.01 -1.17241,-7.30823 -1.18364,-13.99598 L 692,976.34757 l 9.66667,1.89496 c 5.31666,1.04222 12.81666,2.50656 16.66666,3.25407 l 7,1.35913 v 12.57214 c 0,9.25753 -0.43941,12.52823 -1.66666,12.40583 -0.91667,-0.091 -7.88403,-0.9151 -15.48303,-1.8302 z m 17.69527,-425.33683 c -10e-4,-12.46667 0.19888,-17.74614 0.44534,-11.73214 0.24648,6.01399 0.24774,16.21399 0.003,22.66667 -0.24493,6.45267 -0.4466,1.53213 -0.44813,-10.93453 z M 691.21757,295.33333 c 10e-4,-13.2 0.20094,-18.41965 0.44342,-11.59922 0.24248,6.82042 0.24133,17.62042 -0.003,24 -0.24388,6.37957 -0.44227,0.79922 -0.44087,-12.40078 z"
         id="path1219" />
      <path
         style="fill:#d52424;stroke-width:1.33333"
         d="m 708.461,1161.6156 c -14.85145,-2.0028 -14.87344,-2.0112 -15.66667,-5.9773 -1.2635,-6.3175 -0.88629,-155.1812 0.38812,-153.1701 0.72211,1.1395 6.7168,2.4657 16.31292,3.609 8.34422,0.994 15.3213,1.8333 15.50463,1.8651 0.18333,0.032 0.33333,35.1577 0.33333,78.0577 0,42.9 -0.45,77.9148 -1,77.8106 -0.55,-0.1043 -7.69254,-1.092 -15.87233,-2.195 z m 13.95567,-179.85975 c 0.96249,-0.38516 2.1125,-0.3378 2.55556,0.1052 0.44305,0.44306 -0.34446,0.75819 -1.75,0.7003 -1.55327,-0.064 -1.8692,-0.37992 -0.80556,-0.80555 z M 707.75,979.08919 c 0.96249,-0.38516 2.11251,-0.3378 2.55556,0.1052 0.44305,0.44305 -0.34445,0.75818 -1.75,0.70029 -1.55327,-0.064 -1.8692,-0.37992 -0.80556,-0.80555 z M 725.95253,670 c -2.2e-4,-37.4 0.17056,-52.89193 0.37956,-34.42653 0.20899,18.46541 0.20918,49.06541 4.2e-4,68 C 726.12376,722.50807 725.95276,707.4 725.95253,670 Z M 691.27556,372.66667 c -3.5e-4,-30.06667 0.17481,-42.55684 0.38923,-27.75596 0.21442,14.80089 0.2147,39.40089 6.2e-4,54.66666 -0.21406,15.26579 -0.3895,3.15596 -0.38985,-26.9107 z"
         id="path1217" />
      <path
         style="fill:#d02222;stroke-width:1.33333"
         d="m 698.00433,1265.6799 c -2.19761,-0.323 -4.43842,-1.283 -4.97958,-2.1335 -0.54115,-0.8505 -0.91139,-25.8464 -0.82276,-55.5464 0.0887,-29.7 0.40949,-52.7392 0.71301,-51.1982 0.49128,2.4943 2.04444,2.9773 14.15176,4.4017 7.47995,0.88 14.64991,1.9096 15.93324,2.2881 2.16981,0.6399 2.33333,4.2793 2.33333,51.9316 v 51.2435 l -11.66666,-0.1998 c -6.41667,-0.1099 -13.46472,-0.464 -15.66234,-0.787 z M 725.4386,897.88889 c 0.064,-1.55326 0.37992,-1.8692 0.80555,-0.80556 0.38516,0.9625 0.3378,2.11251 -0.1052,2.55556 -0.44306,0.44306 -0.75819,-0.34445 -0.7003,-1.75 z M 725.94789,798 c 2.8e-4,-33.73333 0.17328,-47.34219 0.38444,-30.24189 0.21116,17.10028 0.21094,44.70028 -5e-4,61.33333 -0.21146,16.63304 -0.38422,2.64189 -0.38394,-31.09144 z m -35.0707,-243.33333 c 0,-1.83334 0.30264,-2.58334 0.67252,-1.66667 0.36988,0.91667 0.36988,2.41667 0,3.33333 -0.36988,0.91667 -0.67252,0.16667 -0.67252,-1.66666 z M 691.20945,448 c 0,-12.1 0.20214,-17.05 0.4492,-11 0.24706,6.05 0.24706,15.95 0,22 -0.24706,6.05 -0.4492,1.1 -0.4492,-11 z"
         id="path1215" />
      <path
         style="fill:#ce2222;stroke-width:1.33333"
         d="m 707.33333,1320.7435 -14.66666,-2.9397 -0.3292,-27.9019 c -0.19508,-16.534 0.15125,-27.1539 0.85002,-26.0659 0.8444,1.3147 5.57563,2.0301 16.66254,2.5193 l 15.4833,0.6833 v 28.4807 c 0,21.9802 -0.38041,28.4446 -1.66666,28.3223 -0.91667,-0.087 -8.26667,-1.4813 -16.33334,-3.0981 z m 18.52986,-443.41017 c 0,-10.63333 0.20706,-14.98333 0.46016,-9.66666 0.25308,5.31666 0.25308,14.01666 0,19.33333 -0.2531,5.31667 -0.46016,0.96667 -0.46016,-9.66667 z m -34.88719,-316 c 0,-2.56666 0.2744,-3.61666 0.60977,-2.33333 0.33536,1.28333 0.33536,3.38333 0,4.66667 C 691.2504,564.95 690.976,563.9 690.976,561.33333 Z"
         id="path1213" />
      <path
         style="fill:#ca1d1d;stroke-width:1.33333"
         d="m 725.95377,1052 c 0,-38.5 0.17036,-54.25 0.37859,-35 0.20821,19.25 0.20821,50.75 0,70 -0.20823,19.25 -0.37859,3.5 -0.37859,-35 z M 691.29945,662.66667 c 0,-53.9 0.16502,-75.95 0.36671,-49 0.20168,26.95 0.20168,71.05 0,98 -0.20169,26.95 -0.36671,4.9 -0.36671,-49 z"
         id="path1211" />
      <path
         style="fill:#c41b1b;stroke-width:1.33333"
         d="m 725.96736,1222.6667 c 0,-56.1 0.16448,-79.05 0.36549,-51 0.20103,28.05 0.20103,73.95 0,102 -0.20101,28.05 -0.36549,5.1 -0.36549,-51 z M 691.17568,991.33333 c 0.003,-8.8 0.21843,-12.22649 0.47953,-7.61441 0.26111,4.61207 0.25896,11.81207 -0.005,16 -0.26375,4.18788 -0.47737,0.41438 -0.47475,-8.38559 z m 0.10973,-164.66666 c 0,-37.03334 0.17108,-52.18334 0.38018,-33.66667 0.20909,18.51667 0.20909,48.81667 0,67.33333 -0.2091,18.51667 -0.38018,3.36667 -0.38018,-33.66666 z"
         id="path1209" />
      <path
         style="fill:#b91616;stroke-width:1.33333"
         d="m 691.3116,1162.6667 c 0,-86.1667 0.15969,-121.4167 0.35485,-78.3334 0.19518,43.0834 0.19518,113.5834 0,156.6667 -0.19516,43.0833 -0.35485,7.8333 -0.35485,-78.3333 z M 691.75,975.08919 c 0.96249,-0.38516 2.11251,-0.3378 2.55556,0.1052 0.44305,0.44305 -0.34445,0.75818 -1.75,0.70029 -1.55327,-0.064 -1.8692,-0.37992 -0.80556,-0.80555 z m 32,-74.66667 c 0.96249,-0.38516 2.11251,-0.3378 2.55556,0.1052 0.44305,0.44305 -0.34445,0.75819 -1.75,0.70029 -1.55327,-0.064 -1.8692,-0.37992 -0.80556,-0.80554 z"
         id="path1207" />
      <path
         style="fill:#00d000;stroke-width:1.33333"
         d="M 1194,363.20417 C 1172.7333,359.21508 1071.3333,340.02033 968.66667,320.54919 866,301.07803 771.95,283.25641 759.66667,280.9456 l -22.33334,-4.20149 v -3.70539 c 0,-2.03796 0.66138,-3.70539 1.46974,-3.70539 2.46101,0 385.08473,72.71835 463.96843,88.17807 34.8627,6.83244 35.4284,6.99561 34.8445,10.05024 -0.3452,1.80584 -1.5048,3.06117 -2.7714,3.00023 -1.1979,-0.0576 -19.5779,-3.3686 -40.8446,-7.3577 z M 655.33333,261.14629 c -11,-2.1612 -70.1,-13.52334 -131.33333,-25.24924 -61.23333,-11.72589 -111.92219,-21.49597 -112.64191,-21.71128 -0.7197,-0.21532 1.49434,-1.34653 4.92011,-2.51381 7.16827,-2.44247 3.04896,-3.13345 173.38847,29.08464 L 680,257.84229 v 3.74552 c 0,4.57396 0.94733,4.59092 -24.66667,-0.44152 z"
         id="path1205" />
      <path
         style="fill:#00cc00;stroke-width:1.33333"
         d="m 1270.2201,378.24485 c -19.6789,-3.75982 -35.1289,-7.05302 -34.3333,-7.31822 0.7956,-0.2652 1.4465,-1.59678 1.4465,-2.95906 0,-1.36226 0.5541,-2.81928 1.2313,-3.2378 0.9601,-0.59338 58.9681,9.78938 74.6341,13.35867 3.1243,0.71183 3.0872,0.8046 -1.5959,3.98684 -2.6371,1.79193 -4.9765,3.20125 -5.1987,3.13184 -0.2223,-0.0695 -16.505,-3.20243 -36.184,-6.96227 z m -42.5534,-8.46122 c 0.9166,-0.36988 2.4166,-0.36988 3.3333,0 0.9167,0.36988 0.1667,0.67252 -1.6667,0.67252 -1.8333,0 -2.5833,-0.30264 -1.6666,-0.67252 z m -6.5834,-1.36111 c 0.9625,-0.38516 2.1125,-0.3378 2.5556,0.1052 0.443,0.44305 -0.3445,0.75819 -1.75,0.70029 -1.5533,-0.064 -1.8692,-0.37992 -0.8056,-0.80554 z m -6.6666,-1.33333 c 0.9625,-0.38516 2.1125,-0.3378 2.5555,0.1052 0.4431,0.44305 -0.3444,0.75818 -1.75,0.70029 -1.5532,-0.064 -1.8692,-0.37992 -0.8055,-0.80555 z m -14.6667,-2.66667 c 0.9625,-0.38516 2.1125,-0.3378 2.5556,0.1052 0.443,0.44305 -0.3445,0.75819 -1.75,0.70029 -1.5533,-0.064 -1.8692,-0.37992 -0.8056,-0.80554 z m 33.3333,-1.33333 c 0.9625,-0.38516 2.1125,-0.3378 2.5556,0.1052 0.443,0.44305 -0.3445,0.75818 -1.75,0.70029 -1.5533,-0.064 -1.8692,-0.37992 -0.8056,-0.80555 z m -6.6666,-1.33334 c 0.9625,-0.38516 2.1125,-0.3378 2.5555,0.1052 0.4431,0.44306 -0.3444,0.75819 -1.75,0.7003 -1.5532,-0.064 -1.8692,-0.37992 -0.8055,-0.80555 z m -48,-1.33333 c 0.9625,-0.38516 2.1125,-0.3378 2.5555,0.1052 0.4431,0.44305 -0.3444,0.75819 -1.75,0.70029 -1.5532,-0.064 -1.8692,-0.37992 -0.8055,-0.80554 z m 41.3333,0 c 0.9625,-0.38516 2.1125,-0.3378 2.5556,0.1052 0.443,0.44305 -0.3445,0.75819 -1.75,0.70029 -1.5533,-0.064 -1.8692,-0.37992 -0.8056,-0.80554 z m -6.6667,-1.33333 c 0.9625,-0.38516 2.1125,-0.3378 2.5556,0.1052 0.443,0.44305 -0.3445,0.75818 -1.75,0.70029 -1.5533,-0.064 -1.8692,-0.37992 -0.8056,-0.80555 z m -56,-2.66667 c 0.9625,-0.38516 2.1125,-0.3378 2.5556,0.1052 0.443,0.44305 -0.3445,0.75819 -1.75,0.70029 -1.5533,-0.064 -1.8692,-0.37992 -0.8056,-0.80554 z M 680.30933,261.33333 c 0,-2.56666 0.2744,-3.61666 0.60978,-2.33333 0.33536,1.28333 0.33536,3.38333 0,4.66667 -0.33538,1.28333 -0.60978,0.23333 -0.60978,-2.33334 z M 511.75,233.75585 c 0.96249,-0.38516 2.11251,-0.3378 2.55556,0.1052 0.44305,0.44306 -0.34445,0.75819 -1.75,0.7003 -1.55327,-0.064 -1.8692,-0.37992 -0.80556,-0.80555 z m -28,-5.33333 c 0.96249,-0.38516 2.11251,-0.3378 2.55556,0.1052 0.44305,0.44305 -0.34445,0.75819 -1.75,0.70029 -1.55327,-0.064 -1.8692,-0.37992 -0.80556,-0.80554 z m -6.66667,-1.33333 c 0.9625,-0.38516 2.11251,-0.3378 2.55556,0.1052 0.44306,0.44305 -0.34445,0.75818 -1.75,0.70029 -1.55326,-0.064 -1.8692,-0.37992 -0.80556,-0.80555 z m -21.33333,-4 c 0.96249,-0.38516 2.11251,-0.3378 2.55556,0.1052 0.44305,0.44305 -0.34445,0.75818 -1.75,0.70029 -1.55327,-0.064 -1.8692,-0.37992 -0.80556,-0.80555 z m -6.66667,-1.33334 c 0.9625,-0.38516 2.11251,-0.3378 2.55556,0.1052 0.44306,0.44306 -0.34445,0.75819 -1.75,0.7003 -1.55326,-0.064 -1.8692,-0.37992 -0.80556,-0.80555 z m -6.66666,-1.33333 c 0.96249,-0.38516 2.1125,-0.3378 2.55556,0.1052 0.44305,0.44305 -0.34446,0.75819 -1.75,0.70029 -1.55327,-0.064 -1.8692,-0.37992 -0.80556,-0.80554 z M 427.75,217.75585 c 0.96249,-0.38516 2.11251,-0.3378 2.55556,0.1052 0.44305,0.44306 -0.34445,0.75819 -1.75,0.7003 -1.55327,-0.064 -1.8692,-0.37992 -0.80556,-0.80555 z m -6.66667,-1.33333 c 0.9625,-0.38516 2.11251,-0.3378 2.55556,0.1052 0.44306,0.44305 -0.34445,0.75819 -1.75,0.70029 -1.55326,-0.064 -1.8692,-0.37992 -0.80556,-0.80554 z m 41.33334,0 c 0.96249,-0.38516 2.1125,-0.3378 2.55556,0.1052 0.44305,0.44305 -0.34446,0.75819 -1.75,0.70029 -1.55327,-0.064 -1.8692,-0.37992 -0.80556,-0.80554 z m -48,-1.33333 c 0.96249,-0.38516 2.1125,-0.3378 2.55556,0.1052 0.44305,0.44305 -0.34446,0.75818 -1.75,0.70029 -1.55327,-0.064 -1.8692,-0.37992 -0.80556,-0.80555 z M 402,213.24097 C 399.06667,212.61391 351.06667,203.34984 295.33333,192.65415 239.6,181.95845 191,172.44812 187.33333,171.52007 l -6.66666,-1.68738 3.64224,-2.38701 c 3.43632,-2.25207 4.34092,-2.26843 16,-0.28927 33.71201,5.72271 222.13281,41.51298 221.56065,42.08514 -0.84536,0.84536 -12.98732,5.46877 -13.86956,5.28124 -0.36667,-0.0779 -3.06667,-0.65475 -6,-1.28182 z m 45.75,0.51488 c 0.96249,-0.38516 2.11251,-0.3378 2.55556,0.1052 0.44305,0.44306 -0.34445,0.75819 -1.75,0.7003 -1.55327,-0.064 -1.8692,-0.37992 -0.80556,-0.80555 z m -6.66667,-1.33333 c 0.9625,-0.38516 2.11251,-0.3378 2.55556,0.1052 0.44306,0.44305 -0.34445,0.75819 -1.75,0.70029 -1.55326,-0.064 -1.8692,-0.37992 -0.80556,-0.80554 z m -8,-1.33333 c 0.9625,-0.38516 2.11251,-0.3378 2.55556,0.1052 0.44306,0.44305 -0.34445,0.75818 -1.75,0.70029 -1.55326,-0.064 -1.8692,-0.37992 -0.80556,-0.80555 z M 425,209.78363 c 0.91667,-0.36988 2.41667,-0.36988 3.33333,0 0.91667,0.36988 0.16667,0.67252 -1.66666,0.67252 -1.83334,0 -2.58334,-0.30264 -1.66667,-0.67252 z"
         id="path1203" />
      <path
         style="fill:#00c400;stroke-width:1.33333"
         d="m 736.33624,272.66667 c 0.0148,-2.93334 0.28785,-3.97634 0.60677,-2.31779 0.31892,1.65855 0.30682,4.05855 -0.0269,5.33333 -0.33372,1.27479 -0.59467,-0.0823 -0.57987,-3.01554 z m -57.91957,-6.91082 c 0.96249,-0.38516 2.1125,-0.3378 2.55556,0.1052 0.44305,0.44306 -0.34446,0.75819 -1.75,0.7003 -1.55327,-0.064 -1.8692,-0.37992 -0.80556,-0.80555 z m -441.33334,-84 c 0.9625,-0.38516 2.1125,-0.3378 2.55556,0.1052 0.44306,0.44306 -0.34445,0.75819 -1.75,0.7003 -1.55326,-0.064 -1.8692,-0.37992 -0.80556,-0.80555 z m -6.66666,-1.33333 c 0.96249,-0.38516 2.11249,-0.3378 2.55556,0.1052 0.44305,0.44305 -0.34446,0.75819 -1.75,0.70029 -1.55327,-0.064 -1.8692,-0.37992 -0.80556,-0.80554 z m -28,-5.33333 c 0.96249,-0.38516 2.11249,-0.3378 2.55556,0.1052 0.44305,0.44305 -0.34446,0.75818 -1.75,0.70029 -1.55327,-0.064 -1.8692,-0.37992 -0.80556,-0.80555 z M 195.75,173.75585 c 0.96249,-0.38516 2.11249,-0.3378 2.55556,0.1052 0.44305,0.44306 -0.34445,0.75819 -1.75,0.7003 -1.55327,-0.064 -1.8692,-0.37992 -0.80556,-0.80555 z m -6.66667,-1.33333 c 0.9625,-0.38516 2.1125,-0.3378 2.55556,0.1052 0.44306,0.44305 -0.34445,0.75819 -1.75,0.70029 -1.55326,-0.064 -1.8692,-0.37992 -0.80556,-0.80554 z m -24.71121,-4.19624 -17.62789,-3.55961 4.89465,-3.18712 4.89464,-3.18712 17.83045,3.15433 c 13.29938,2.35276 16.93703,3.39328 14.31467,4.09461 -1.93368,0.51715 -4.45707,1.72146 -5.60752,2.67624 -1.85356,1.53832 -1.73,1.83735 1.08524,2.62628 7.80453,2.1871 -3.20211,0.73083 -19.78424,-2.61761 z m 52.71121,1.52957 c 0.9625,-0.38516 2.1125,-0.3378 2.55556,0.1052 0.44306,0.44307 -0.34445,0.75819 -1.75,0.7003 -1.55326,-0.064 -1.8692,-0.37992 -0.80556,-0.80555 z m -6.66666,-1.33333 c 0.96249,-0.38516 2.11249,-0.3378 2.55556,0.1052 0.44305,0.44307 -0.34446,0.75819 -1.75,0.70029 -1.55327,-0.064 -1.8692,-0.37992 -0.80556,-0.80554 z m -8,-1.33333 c 0.96249,-0.38516 2.11249,-0.3378 2.55556,0.1052 0.44305,0.44306 -0.34446,0.75818 -1.75,0.70029 -1.55327,-0.064 -1.8692,-0.37992 -0.80556,-0.80555 z m -8.08334,-1.30556 c 0.91667,-0.36988 2.41667,-0.36988 3.33334,0 0.91666,0.36988 0.16666,0.67252 -1.66667,0.67252 -1.83333,0 -2.58333,-0.30264 -1.66667,-0.67252 z"
         id="path1201" />
      <path
         style="fill:#00aa00;stroke-width:1.33333"
         d="m 1308,405.0452 c 0,-12.95176 -0.4523,-18.37853 -1.5319,-18.37853 -0.8426,0 1.2892,-1.5 4.7372,-3.33334 3.448,-1.83333 6.5374,-3.33333 6.8652,-3.33333 0.3279,0 0.5962,9.6 0.5962,21.33333 0,16.06668 -0.4115,21.38476 -1.6667,21.54163 -0.9167,0.11453 -3.3167,0.28491 -5.3333,0.37853 L 1308,423.42373 Z"
         id="path1199" />
      <path
         style="fill:#00a300;stroke-width:1.33333"
         d="m 1307.5452,585.02055 c -0.4832,-19.86626 -0.7537,-72.77298 -0.6011,-117.57051 0.1525,-44.79752 0.6025,-73.02413 1,-62.72579 l 0.7226,18.72424 5,-0.17628 5,-0.17628 v 98.45204 c 0,77.79166 -0.3498,98.48394 -1.6667,98.60406 -0.9167,0.0836 -3.2213,0.34033 -5.1214,0.57049 l -3.4548,0.41847 z"
         id="path1197" />
      <path
         style="fill:#009c00;stroke-width:1.33333"
         d="m 1307.5394,784.22457 c -0.48,-16.49386 -0.7371,-70.84189 -0.5714,-120.77338 0.1657,-49.93148 0.4792,-79.84172 0.6967,-66.4672 l 0.3953,24.31732 5.3033,-0.66634 5.3034,-0.66633 v 95.93699 c 0,72.37536 -0.3871,96.17624 -1.5763,96.91114 -0.8669,0.5358 -3.1741,1.06923 -5.1272,1.18542 l -3.551,0.21125 z m -1.6503,-372.89124 c 0,-13.93333 0.1989,-19.45217 0.4391,-12.26408 0.2402,7.1881 0.2391,18.5881 0,25.33334 -0.2415,6.74524 -0.438,0.86408 -0.4367,-13.06926 z m -11.4724,-26.91081 c 0.9625,-0.38516 2.1125,-0.3378 2.5555,0.1052 0.4431,0.44305 -0.3444,0.75819 -1.75,0.70029 -1.5532,-0.064 -1.8692,-0.37992 -0.8055,-0.80554 z m -28,-5.33333 c 0.9625,-0.38516 2.1125,-0.3378 2.5555,0.1052 0.4431,0.44305 -0.3444,0.75818 -1.75,0.70029 -1.5532,-0.064 -1.8692,-0.37992 -0.8055,-0.80555 z m -28,-5.33334 c 0.9625,-0.38516 2.1125,-0.3378 2.5555,0.1052 0.4431,0.44306 -0.3444,0.75819 -1.75,0.7003 -1.5532,-0.064 -1.8692,-0.37992 -0.8055,-0.80555 z m -77.3334,-14.66666 c 0.9625,-0.38516 2.1125,-0.3378 2.5556,0.1052 0.443,0.44305 -0.3445,0.75818 -1.75,0.70029 -1.5533,-0.064 -1.8692,-0.37992 -0.8056,-0.80555 z M 1027.75,333.75585 c 0.9625,-0.38516 2.1125,-0.3378 2.5556,0.1052 0.443,0.44306 -0.3445,0.75819 -1.75,0.7003 -1.5533,-0.064 -1.8692,-0.37992 -0.8056,-0.80555 z M 326.41667,200.42252 c 0.96249,-0.38516 2.11249,-0.3378 2.55556,0.1052 0.44305,0.44305 -0.34446,0.75819 -1.75,0.70029 -1.55327,-0.064 -1.8692,-0.37992 -0.80556,-0.80554 z m -21.33334,-4 c 0.9625,-0.38516 2.1125,-0.3378 2.55556,0.1052 0.44306,0.44305 -0.34445,0.75819 -1.75,0.70029 -1.55326,-0.064 -1.8692,-0.37992 -0.80556,-0.80554 z m -28,-5.33333 c 0.9625,-0.38516 2.1125,-0.3378 2.55556,0.1052 0.44306,0.44305 -0.34445,0.75818 -1.75,0.70029 -1.55326,-0.064 -1.8692,-0.37992 -0.80556,-0.80555 z M 144.27903,177.0236 c 0.22316,-6.34607 0.9534,-10.95456 1.72097,-10.86088 0.73333,0.0895 16.88047,3.07217 35.88253,6.62819 l 34.5492,6.46546 -21.88253,3.75907 c -12.0354,2.06749 -28.35697,4.04543 -36.27017,4.39541 l -14.38764,0.63636 z m 104.8043,8.73225 c 0.9625,-0.38516 2.1125,-0.3378 2.55556,0.1052 0.44306,0.44306 -0.34445,0.75819 -1.75,0.7003 -1.55326,-0.064 -1.8692,-0.37992 -0.80556,-0.80555 z m -6.66666,-1.33333 c 0.96249,-0.38516 2.11249,-0.3378 2.55556,0.1052 0.44305,0.44305 -0.34446,0.75819 -1.75,0.70029 -1.55327,-0.064 -1.8692,-0.37992 -0.80556,-0.80554 z m -21.33334,-4 c 0.9625,-0.38516 2.1125,-0.3378 2.55556,0.1052 0.44306,0.44305 -0.34445,0.75819 -1.75,0.70029 -1.55326,-0.064 -1.8692,-0.37992 -0.80556,-0.80554 z"
         id="path1195" />
      <path
         style="fill:#009b00;stroke-width:1.33333"
         d="m 1307.5406,862.09032 c -0.4768,-14.71635 -0.7423,-40.55699 -0.59,-57.42365 0.2651,-29.37215 0.3072,-29.82242 0.9965,-10.66667 0.6699,18.62021 0.8997,20.01597 3.3308,20.23151 1.4362,0.12733 3.6956,-0.34882 5.0209,-1.05808 2.3013,-1.23162 2.3937,0.40536 2.0554,36.41305 l -0.3542,37.70263 -4.7962,0.77909 -4.7962,0.77911 z m -2.2073,-345.92856 v -35.83824 l -3.6666,-1.43537 c -2.0167,-0.78946 -13.2667,-2.40671 -25,-3.5939 -11.7334,-1.1872 -23.1334,-2.39021 -25.3334,-2.67338 -2.2,-0.28316 -11.8,-1.42338 -21.3333,-2.53382 -9.5333,-1.11042 -21.5333,-2.62076 -26.6667,-3.35629 -5.1333,-0.73552 -11.7333,-1.65148 -14.6666,-2.03545 -2.9334,-0.38396 -7.1334,-1.0895 -9.3334,-1.56784 -2.2,-0.47835 -6.462,-0.98794 -9.4712,-1.13243 -3.0091,-0.14448 -6.0091,-0.58388 -6.6666,-0.97643 -0.6575,-0.39254 -4.4955,-1.12346 -8.5288,-1.62425 -6.2108,-0.77116 -41.5589,-6.50816 -50,-8.11503 -1.4667,-0.27918 -9.8667,-1.72029 -18.6667,-3.20244 -8.8,-1.48216 -18.1,-3.26232 -20.6667,-3.95592 -2.5666,-0.69358 -11.5666,-2.57094 -20,-4.17188 -19.6929,-3.73842 -80.57206,-16.86234 -86.66663,-18.68305 C 956.1,420.49928 951,419.33612 947.33333,418.68124 943.66667,418.02637 934.06667,415.90599 926,413.96927 c -8.06667,-1.93672 -17.36667,-4.0108 -20.66667,-4.60908 -3.3,-0.5983 -7.5,-1.51612 -9.33333,-2.03963 -1.83333,-0.52351 -5.43333,-1.222 -8,-1.55221 -2.56667,-0.3302 -5.86667,-1.1247 -7.33333,-1.76554 -2.822,-1.23304 -22.57203,-6.07062 -32.66667,-8.00138 -6.68188,-1.27803 -19.53139,-4.32562 -30.66667,-7.27339 -4.03333,-1.06772 -11.53333,-2.88492 -16.66666,-4.03821 -5.13334,-1.15331 -10.53334,-2.3667 -12,-2.69643 C 787.2,381.66367 777.6,379.59869 767.33333,377.40457 757.06667,375.21044 746.11667,372.66583 743,371.74987 l -5.66667,-1.66538 v -45.79876 c 0,-42.98886 0.14316,-45.7569 2.33334,-45.11658 1.28333,0.3752 5.63333,1.27881 9.66666,2.00802 31.40428,5.67784 555.22967,105.6081 555.61667,105.99508 0.907,0.90698 2.1658,164.82775 1.2658,164.82775 -0.4854,0 -0.8825,-16.12721 -0.8825,-35.83824 z M 662.66667,355.23047 C 635.00425,349.58337 597.12724,343.24399 572,340.05583 c -5.5,-0.69786 -19,-2.44784 -30,-3.88888 -11,-1.44103 -24.2,-3.01224 -29.33333,-3.49158 -5.13334,-0.47933 -11.43334,-1.08694 -14,-1.35025 C 461.89123,327.55239 377.42793,326.07445 330,328.37381 c -23.67061,1.14758 -78.48155,5.58666 -94,7.61296 -5.5,0.71816 -23.2,2.83631 -39.33333,4.707 -16.13334,1.8707 -34.58334,4.19308 -41,5.16086 L 144,347.6142 V 267.80711 188 l 3.66667,-0.12573 c 2.01666,-0.0692 6.36666,-0.12 9.66666,-0.11294 3.3,0.007 17.52592,-1.83609 31.61315,-4.09586 l 25.61313,-4.10868 53.7202,10.19328 C 297.82592,195.35625 401.2,214.95605 498,233.30507 c 96.8,18.349 177.35,33.67321 179,34.05378 l 3,0.69195 v 45.30793 c 0,24.91936 -0.45,45.23908 -1,45.15494 -0.55,-0.0841 -7.9,-1.56159 -16.33333,-3.2832 z"
         id="path1193" />
      <path
         style="fill:#009a00;stroke-width:1.33333"
         d="m 1307.5423,965.77687 c -0.4816,-12.21152 -0.744,-42.65694 -0.5832,-67.65648 0.1609,-24.99955 0.4773,-37.28728 0.7031,-27.30608 l 0.4106,18.14764 5.2969,-0.9686 5.297,-0.96862 v 49.06446 c 0,48.4873 -0.033,49.07477 -2.7672,49.9427 -1.5219,0.48304 -3.1167,0.52868 -3.544,0.10147 -0.4272,-0.42725 -1.488,-0.18663 -2.3572,0.53475 -1.202,0.99762 -1.7899,-4.00318 -2.456,-20.89119 z m -1.8935,-275.4063 -0.3155,-27.62941 -7,-1.94231 c -3.85,-1.06828 -14.2,-2.33136 -23,-2.80686 -8.8,-0.4755 -19,-1.09704 -22.6666,-1.38122 -3.6667,-0.28417 -15.3667,-1.1746 -26,-1.97873 -31.9506,-2.41621 -59.8116,-5.43807 -116,-12.58151 -59.8258,-7.60589 -97.7512,-13.04209 -130.00003,-18.63416 -15.76863,-2.73433 -33.31916,-5.61854 -58,-9.53161 -12.1,-1.91841 -37.6,-6.13393 -56.66667,-9.36783 -48.63971,-8.24976 -111.95556,-18.79952 -120.66667,-20.1056 L 738,583.31183 737.62796,565.65592 C 737.42335,555.94516 736.81737,548 736.28135,548 735.16447,548 687.54128,539.04863 683,537.98509 l -3,-0.70256 v 18.70783 18.70783 l -5,-0.71416 c -66.41771,-9.48652 -102.08893,-13.42183 -162.33333,-17.9089 -48.81436,-3.63574 -51.18598,-3.78229 -90,-5.5613 -51.16,-2.34488 -217.9015,-0.21915 -269.00818,3.42949 l -9.67484,0.69072 0.34151,-103.59179 0.34151,-103.59177 10.66666,-1.59103 C 161.2,344.98439 179.5,342.70037 196,340.78387 c 16.5,-1.91651 34.5,-4.07367 40,-4.7937 15.47152,-2.02544 70.28288,-6.46653 94,-7.61636 47.42793,-2.29936 131.89123,-0.82142 168.66667,2.95131 2.56666,0.26331 8.86666,0.87092 14,1.35025 C 517.8,333.15471 531,334.72592 542,336.16695 c 11,1.44104 24.5,3.19102 30,3.88888 16.26107,2.06321 26.35455,3.56829 44,6.56098 20.19301,3.42478 58.44075,10.58072 61.66667,11.53751 C 679.8428,358.79975 680,362.7772 680,417.19076 v 58.3444 l 3,2.70344 c 2.23208,2.01143 8.97275,3.79824 26.33333,6.98044 12.83334,2.35236 24.38334,4.58083 25.66667,4.95217 2.19776,0.63592 2.33333,-2.82536 2.33333,-59.57013 V 370.3558 l 3,0.76631 c 1.65,0.42148 12.6,2.90606 24.33334,5.5213 42.00937,9.36346 44.84662,10.01448 52.66666,12.08463 11.13528,2.94777 23.98479,5.99536 30.66667,7.27339 10.09464,1.93076 29.84467,6.76834 32.66667,8.00138 1.46666,0.64084 4.76666,1.43534 7.33333,1.76554 2.56667,0.33021 6.16667,1.0287 8,1.55221 1.83333,0.52351 6.03333,1.44133 9.33333,2.03963 3.3,0.59828 12.6,2.67236 20.66667,4.60908 8.06667,1.93672 17.66667,4.0571 21.33333,4.71197 3.66667,0.65488 8.76667,1.81804 11.33334,2.5848 6.09457,1.82071 66.97373,14.94463 86.66663,18.68305 8.4334,1.60094 17.4334,3.4783 20,4.17188 2.5667,0.6936 11.8667,2.47376 20.6667,3.95592 8.8,1.48215 17.2,2.92326 18.6667,3.20244 8.4411,1.60687 43.7892,7.34387 50,8.11503 4.0333,0.50079 7.8713,1.23171 8.5288,1.62425 0.6575,0.39255 3.6575,0.83195 6.6666,0.97643 3.0092,0.14449 7.2712,0.65408 9.4712,1.13243 2.2,0.47834 6.4,1.18388 9.3334,1.56784 2.9333,0.38397 9.5333,1.29993 14.6666,2.03545 5.1334,0.73553 17.1334,2.24587 26.6667,3.35629 9.5333,1.11044 19.1333,2.25066 21.3333,2.53382 2.2,0.28317 13.6,1.48618 25.3334,2.67338 11.7333,1.18719 22.9123,2.77504 24.8422,3.52855 l 3.5089,1.37004 0.9136,72.23691 c 0.5024,39.7303 0.7154,93.23692 0.4732,118.90358 -0.299,31.68663 -0.5416,37.7976 -0.7558,19.03724 z"
         id="path1191" />
      <path
         style="fill:#009900;stroke-width:1.33333"
         d="m 1307.5291,1121.7997 c -0.4744,-5.6111 -0.8646,-32.7615 -0.8673,-60.3342 0,-27.5727 -0.3984,-58.7334 -0.8793,-69.24599 -0.8675,-18.96404 -0.9014,-19.12496 -4.3284,-20.53456 -1.8998,-0.78142 -20.2541,-2.17284 -40.7874,-3.09208 -92.0491,-4.12086 -154.566,-8.29078 -210,-14.00712 -14.3,-1.4746 -41.6,-4.18287 -60.6667,-6.01836 -45.5788,-4.38774 -99.20611,-10.25195 -145.33333,-15.89238 -20.53334,-2.51081 -48.43334,-5.77982 -62,-7.26448 -26.19171,-2.86626 -142.83579,-16.0155 -171.56151,-19.34006 -18.89499,-2.1868 -44.34285,-4.61155 -140.43849,-13.38142 C 387.07701,885.06051 354.74581,882.50077 260,876.01005 c -42.9,-2.93894 -83.1,-5.9418 -89.33333,-6.67302 -6.23334,-0.73124 -14.78334,-1.3312 -19,-1.33327 L 144,868 V 711.42928 554.85855 l 7,-0.73784 c 16.07219,-1.6941 86.66485,-3.6409 159,-4.38488 88.90463,-0.91442 117.13019,-0.0316 202.66667,6.3393 57.96945,4.31763 121.78416,11.37007 163,18.01386 L 680,574.78751 v 162.35482 c 0,161.54579 0.0136,162.36938 2.71861,165.27292 1.49523,1.60495 3.21912,2.91808 3.83087,2.91808 1.12529,0 40.35248,7.28555 47.11719,8.75094 l 3.66666,0.79428 V 748.97503 583.07151 l 7,1.12374 c 13.60976,2.18488 87.45872,14.51968 121.66667,20.32168 19.06667,3.2339 44.56667,7.44942 56.66667,9.36783 24.68084,3.91307 42.23137,6.79728 58,9.53161 32.24883,5.59207 70.17423,11.02827 130.00003,18.63416 56.1884,7.14344 84.0494,10.1653 116,12.58151 10.6333,0.80413 22.3333,1.69456 26,1.97873 3.6666,0.28418 13.8666,0.90572 22.6666,1.38122 8.8,0.4755 19.053,1.71037 22.7843,2.74416 l 6.7843,1.8796 0.88,41.02545 c 0.4841,22.56401 0.8811,85.77964 0.8824,140.47919 0,105.64813 0.8405,144.34304 3.0958,142.9492 0.7398,-0.45726 3.0465,-0.96522 5.1259,-1.1288 l 3.7807,-0.2974 v 71.13141 c 0,68.0983 -0.1063,71.1882 -2.4914,72.4647 -1.3702,0.7333 -2.8557,0.969 -3.3011,0.5236 -0.4454,-0.4454 -1.6362,-0.1239 -2.6463,0.7144 -1.5224,1.2635 -1.984,-0.2207 -2.6988,-8.6778 z"
         id="path1189" />
      <path
         style="fill:#009800;stroke-width:1.33333"
         d="M 1019.3333,1230.2164 738,1176.6461 737.33333,1074.6866 736.66667,972.72721 711.33333,967.7778 C 697.4,965.05561 684.65,962.79199 683,962.74752 l -3,-0.0809 V 1064 c 0,55.7333 -0.45,101.3315 -1,101.3293 -0.55,0 -7,-1.1672 -14.33333,-2.5889 -7.33334,-1.4216 -125.83334,-23.9286 -263.33334,-50.0154 -137.5,-26.0869 -251.65,-47.7696 -253.66666,-48.1838 L 144,1063.7881 V 965.89405 868 l 7.66667,0.004 c 4.21666,0.003 12.76666,0.60203 19,1.33327 6.23333,0.73122 46.43333,3.73408 89.33333,6.67302 94.74581,6.49072 127.07701,9.05046 210.66667,16.679 96.09564,8.76987 121.5435,11.19462 140.43849,13.38142 28.72572,3.32456 145.3698,16.4738 171.56151,19.34006 13.56666,1.48466 41.46666,4.75367 62,7.26448 46.12722,5.64043 99.75453,11.50464 145.33333,15.89238 19.0667,1.83549 46.3667,4.54376 60.6667,6.01836 55.434,5.71634 117.9509,9.88626 210,14.00712 20.5333,0.91924 38.8876,2.31066 40.7874,3.09208 3.427,1.4096 3.4609,1.57052 4.3284,20.53456 0.4809,10.51255 0.8766,41.67335 0.8793,69.24595 0.01,57.1733 0.7386,71.3587 3.5661,69.012 1.0101,-0.8383 2.2009,-1.1597 2.6463,-0.7144 0.4454,0.4454 1.9309,0.2098 3.3011,-0.5236 2.4193,-1.2947 2.4902,0.8177 2.4492,73.047 l -0.042,74.3802 -6.0403,3.6667 c -3.3221,2.0166 -7.3531,3.6186 -8.9578,3.56 -1.6047,-0.059 -129.5176,-24.2136 -284.251,-53.6772 z M 734.41667,913.75585 c 0.96249,-0.38516 2.1125,-0.3378 2.55556,0.1052 0.44305,0.44306 -0.34446,0.75819 -1.75,0.7003 -1.55327,-0.064 -1.8692,-0.37992 -0.80556,-0.80555 z m -21.33334,-4 c 0.9625,-0.38516 2.11251,-0.3378 2.55556,0.1052 0.44306,0.44306 -0.34445,0.75819 -1.75,0.7003 -1.55326,-0.064 -1.8692,-0.37992 -0.80556,-0.80555 z m -6.66666,-1.33333 c 0.96249,-0.38516 2.1125,-0.3378 2.55556,0.1052 0.44305,0.44305 -0.34446,0.75819 -1.75,0.70029 -1.55327,-0.064 -1.8692,-0.37992 -0.80556,-0.80554 z M 691.75,905.75585 c 0.96249,-0.38516 2.11251,-0.3378 2.55556,0.1052 0.44305,0.44306 -0.34445,0.75819 -1.75,0.7003 -1.55327,-0.064 -1.8692,-0.37992 -0.80556,-0.80555 z m 626.9148,-495.3579 c -0.3657,-18.11446 -0.2037,-32.47335 0.3599,-31.90863 0.5636,0.56471 0.8627,15.38564 0.6648,32.93539 l -0.36,31.90862 z"
         id="path1187" />
      <path
         style="fill:#009300;stroke-width:1.33333"
         d="m 680.63403,1064 c 0,-56.1 0.16448,-79.05 0.36549,-51 0.20103,28.05 0.20103,73.95 0,102 -0.20101,28.05 -0.36549,5.1 -0.36549,-51 z m 0.0137,-345.33333 c 0,-99.36667 0.15845,-140.01667 0.35212,-90.33334 0.19367,49.68334 0.19367,130.98334 0,180.66667 -0.19367,49.68333 -0.35212,9.03333 -0.35212,-90.33333 z M 1319.3005,543.33333 c 10e-5,-55.73333 0.1647,-78.3389 0.3658,-50.2346 0.2011,28.10431 0.201,73.70431 -2e-4,101.33334 -0.2012,27.62902 -0.3657,4.6346 -0.3656,-51.09874 z m -638.66589,-172 c 1.1e-4,-57.2 0.16438,-80.40544 0.36503,-51.56762 0.20065,28.8378 0.20056,75.6378 -2e-4,104 -0.20076,28.36218 -0.36493,4.76762 -0.36483,-52.43238 z"
         id="path1185" />
      <path
         style="fill:#008a00;stroke-width:1.33333"
         d="m 1319.3223,960 c 0,-174.16667 0.155,-245.41667 0.3443,-158.33333 0.1894,87.08333 0.1894,229.58333 0,316.66663 -0.1893,87.0834 -0.3443,15.8334 -0.3443,-158.3333 z m -582.68827,114.6667 c 0,-56.1 0.16448,-79.05003 0.36549,-51 0.20103,28.05 0.20103,73.95 0,102 -0.20101,28.05 -0.36549,5.1 -0.36549,-51 z m 0.0139,-344.00003 c 0,-100.1 0.1584,-141.05 0.35199,-91 0.1936,50.05 0.1936,131.95 0,182 -0.19359,50.05 -0.35199,9.1 -0.35199,-91 z m -0.0133,-347.33334 c 1.1e-4,-57.93333 0.16419,-81.4387 0.36464,-52.23416 0.20045,29.20455 0.20037,76.60455 -1.9e-4,105.33334 -0.20054,28.72878 -0.36456,4.83416 -0.36445,-53.09918 z"
         id="path1183" />
      <path
         style="fill:#008400;stroke-width:1.33333"
         d="M 143.28357,1063.6667 C 142.93556,1062.75 142.8044,860.4 142.99209,614 l 0.34127,-448 0.66665,449.66668 c 0.36667,247.31667 0.49783,449.66662 0.29148,449.66662 -0.20636,0 -0.65992,-0.75 -1.00792,-1.6666 z"
         id="path1181" />
      <path
         style="fill:#670404;stroke-width:1.33333"
         d="m 727.24899,169.33333 c 0,-19.43333 0.1864,-27.38333 0.41421,-17.66666 0.22781,9.71666 0.22781,25.61666 0,35.33333 -0.22781,9.71667 -0.41421,1.76667 -0.41421,-17.66667 z"
         id="path1179" />
      <path
         style="fill:#006800;stroke-width:1.33333"
         d="m 681.66957,262 c 0.0148,-2.93333 0.28786,-3.97633 0.60678,-2.31779 0.31892,1.65855 0.30681,4.05855 -0.0269,5.33334 -0.33372,1.27478 -0.59466,-0.0823 -0.57986,-3.01555 z"
         id="path1177" />
      <path
         style="fill:#570303;stroke-width:1.33333"
         d="m 727.30847,339.33333 c 5e-5,-74.8 0.16116,-105.20421 0.35798,-67.56492 0.19683,37.6393 0.19678,98.8393 -1.2e-4,136 -0.19689,37.16071 -0.35793,6.36492 -0.35786,-68.43508 z"
         id="path1175" />
      <path
         style="fill:#181818;stroke-width:1.33333"
         d="m 681.95569,1250 c -2e-4,-40.3333 0.16926,-57.0258 0.37656,-37.0944 0.20731,19.9314 0.20748,52.9314 3.8e-4,73.3333 -0.20712,20.402 -0.37674,4.0944 -0.37694,-36.2389 z m -0.004,-1068.66667 c 0,-36.3 0.17147,-51.15 0.38102,-33 0.20956,18.15 0.20956,47.85 0,66 -0.20955,18.15 -0.38102,3.3 -0.38102,-33 z"
         id="path1173" />
      <path
         style="fill:#450101;stroke-width:1.33333"
         d="m 727.31332,728.66667 c 4e-5,-93.86667 0.15899,-132.07006 0.35321,-84.89642 0.19423,47.17363 0.19419,123.97363 -8e-5,170.66667 -0.19426,46.69303 -0.35317,8.09641 -0.35313,-85.77025 z"
         id="path1171" />
      <path
         style="fill:#380000;stroke-width:1.33333"
         d="m 727.31339,1152 c 0,-94.2333 0.1589,-132.7833 0.3531,-85.6667 0.1942,47.1167 0.1942,124.2167 0,171.3334 -0.1942,47.1166 -0.3531,8.5666 -0.3531,-85.6667 z M 689.33333,130.07869 c 0,-1.79006 0.49144,-3.55837 1.09208,-3.92958 0.60064,-0.37122 0.83254,1.09337 0.51534,3.25464 -0.69939,4.76518 -1.60742,5.14646 -1.60742,0.67494 z"
         id="path1169" />
      <path
         style="fill:#003600;stroke-width:1.33333"
         d="m 681.33311,1065.6003 0.66644,-102.26697 0.34201,101.25827 c 0.18809,55.692 -0.11173,101.7121 -0.66645,102.2669 -0.55464,0.5548 -0.70855,-45.0114 -0.342,-101.2582 z m 0.64788,-346.26697 c -4e-5,-99 0.15842,-139.69678 0.35216,-90.43729 0.19372,49.25949 0.19374,130.25949 6e-5,180 -0.19369,49.74051 -0.35218,9.43729 -0.35222,-89.56271 z m -0.0133,-348 c 1.1e-4,-57.2 0.16438,-80.40544 0.36503,-51.56762 0.20065,28.8378 0.20056,75.6378 -2e-4,104 -0.20076,28.36218 -0.36493,4.76762 -0.36483,-52.43238 z m 52.95866,-100 c 0.0272,-2.2 0.326,-2.93858 0.66405,-1.64129 0.33805,1.29729 0.31583,3.09729 -0.0495,4 -0.36524,0.90271 -0.64182,-0.15871 -0.61465,-2.35871 z"
         id="path1167" />
      <path
         style="fill:#240000;stroke-width:1.33333"
         d="m 689.4386,555.22223 c 0.064,-1.55327 0.37992,-1.8692 0.80555,-0.80556 0.38516,0.96249 0.3378,2.1125 -0.1052,2.55556 -0.44306,0.44305 -0.75819,-0.34446 -0.7003,-1.75 z M 689.9796,300 c 0,-92.03333 0.15909,-129.68333 0.35355,-83.66667 0.19445,46.01667 0.19445,121.31667 0,167.33334 -0.19446,46.01666 -0.35355,8.36666 -0.35355,-83.66667 z"
         id="path1165" />
      <path
         style="fill:#0a0a0a;stroke-width:1.33333"
         d="m 735.28975,1262 c -1.9e-4,-41.0667 0.16894,-58.0593 0.37588,-37.7613 0.20692,20.2979 0.20708,53.8979 3.4e-4,74.6666 -0.20672,20.7688 -0.37602,4.1614 -0.37622,-36.9053 z M 1328.659,826 c 0,-250.8 0.1534,-353.20129 0.341,-227.55844 0.1875,125.64285 0.1875,330.84285 0,456.00004 -0.1876,125.1571 -0.341,22.3584 -0.341,-228.4416 z M 133.99232,616.66667 c 0,-250.8 0.15345,-353.2013 0.341,-227.55844 0.18753,125.64285 0.18753,330.84285 -10e-6,456 -0.18755,125.15714 -0.34099,22.35844 -0.34099,-228.44156 z M 734.66615,191.73269 c -0.36638,-36.44702 -0.21038,-65.81124 0.34669,-65.25383 0.55705,0.55741 0.85683,30.3777 0.66615,66.26731 L 735.33229,258 Z"
         id="path1163" />
      <path
         style="fill:#1a0000;stroke-width:1.33333"
         d="m 689.97976,725.33333 c 0,-92.76666 0.15903,-130.71666 0.3534,-84.33333 0.19436,46.38333 0.19436,122.28333 0,168.66667 -0.19437,46.38333 -0.3534,8.43333 -0.3534,-84.33334 z M 689.4386,468.55556 c 0.064,-1.55327 0.37992,-1.8692 0.80555,-0.80556 0.38516,0.96249 0.3378,2.11251 -0.1052,2.55556 -0.44306,0.44305 -0.75819,-0.34445 -0.7003,-1.75 z"
         id="path1161" />
      <path
         style="fill:#001a00;stroke-width:1.33333"
         d="m 734.66644,1075.733 c -0.36655,-56.2468 -0.21264,-101.81299 0.342,-101.25817 0.55465,0.5548 0.85455,46.57497 0.66645,102.26697 L 735.33288,1178 Z M 1320.6544,661.33333 c 0,-155.83333 0.1555,-219.58333 0.3455,-141.66666 0.1901,77.91666 0.1901,205.41666 0,283.33333 -0.19,77.91667 -0.3455,14.16667 -0.3455,-141.66667 z m -585.98781,69.73324 c -0.36662,-99.88006 -0.21442,-181.14789 0.33822,-180.59518 0.55266,0.5527 0.85262,82.27274 0.6666,181.60009 l -0.33822,180.59519 z m 0.63526,-348.3999 c 0,-58.3 0.16398,-82.15 0.36438,-53 0.2004,29.15 0.2004,76.85 0,106 -0.2004,29.15 -0.36438,5.3 -0.36438,-53 z"
         id="path1159" />
      <path
         style="fill:#140000;stroke-width:1.33333"
         d="m 689.97983,1150 c 5e-5,-93.1333 0.15905,-131.0367 0.35337,-84.2298 0.19431,46.8069 0.19427,123.0069 -8e-5,169.3333 -0.19435,46.3264 -0.35333,8.0298 -0.35329,-85.1035 z"
         id="path1157" />
      <path
         style="fill:#001400;stroke-width:1.33333"
         d="m 1320.6463,1110.6667 c 0,-92.0334 0.1591,-129.68337 0.3535,-83.6667 0.1945,46.0167 0.1945,121.3167 0,167.3333 -0.1944,46.0167 -0.3535,8.3667 -0.3535,-83.6666 z M 141.66133,615.07869 c -0.1804,-247.27338 0.122,-449.8661 0.672,-450.20604 0.90296,-0.55809 0.9006,301.27472 -0.005,737.12735 -0.18604,89.46667 -0.48587,-39.64792 -0.66625,-286.92131 z"
         id="path1155" />
      <path
         style="fill:#000000;stroke-width:1.33333"
         d="m 710,1330.9213 c -13.2,-2.4858 -24.75,-5.1334 -25.66667,-5.8837 -1.2968,-1.0614 -1.66666,-17.7267 -1.66666,-75.0949 v -73.7308 L 679,1175.4513 c -2.01667,-0.4183 -123.96667,-23.5993 -271,-51.5134 -147.03333,-27.914 -268.68333,-51.0844 -270.33333,-51.4899 l -3,-0.7371 0.0345,-455.52211 0.0345,-455.52212 10.29876,-6.22703 10.29876,-6.22701 258.66667,49.16442 c 142.26667,27.04044 260.91104,49.54439 263.65416,50.00878 l 4.98748,0.84433 0.34585,-65.82828 0.34584,-65.82827 25.33334,4.75935 25.33333,4.75936 0.34619,65.23336 c 0.1904,35.87835 0.83416,65.72133 1.43058,66.31776 0.87156,0.87148 587.48907,113.02323 591.17587,113.02323 0.5761,0 1.0474,205.11294 1.0474,455.80654 v 455.80659 l -10.2243,6.3097 -10.2243,6.3097 -285.2833,-54.2087 c -159.42407,-30.2933 -285.78951,-53.7024 -286.43087,-53.061 -0.63123,0.6312 -1.30283,34.147 -1.49244,74.4795 L 734,1335.4408 Z m 17.33333,-177.6991 V 980.66667 l -14.66666,-2.896 C 704.6,976.17787 696.2,974.67787 694,974.43733 L 690,974 v 172.6667 172.6666 l 17.33333,3.5136 c 9.53334,1.9325 17.93334,3.3825 18.66667,3.2222 0.88052,-0.1924 1.33333,-58.893 1.33333,-172.8469 z m 586.64077,128.7368 7.3592,-4.7076 V 828.03772 c 0,-324.24768 -0.4065,-449.46491 -1.4612,-450.11676 -1.4268,-0.88181 -580.2399,-111.22559 -583.53877,-111.24465 -1.31994,-0.008 -1.66666,22.8741 -1.66666,109.99036 0,101.31685 -0.1736,110 -2.19919,110 -1.20955,0 -12.15955,-1.87002 -24.33333,-4.1556 -14.55634,-2.7329 -22.70475,-4.8743 -23.80082,-6.25484 -1.30262,-1.64072 -1.66666,-25.91134 -1.66666,-111.11732 V 256.12084 l -5,-0.92259 c -2.75,-0.50741 -121.1,-22.9828 -263,-49.9453 l -258,-49.02272 -7.66667,4.64809 -7.66667,4.64809 v 449.07354 c 0,357.6925 0.33915,449.33195 1.66667,450.34375 0.91667,0.6986 121.06667,23.9222 267,51.6081 145.93333,27.6858 266.98333,50.6627 269,51.0597 l 3.66667,0.7218 V 1066.3886 964.44381 l 23,4.41162 c 12.65,2.42638 24.35,4.73796 26,5.13682 l 3,0.72522 v 101.34983 c 0,88.4594 0.25213,101.4465 1.98242,102.1105 2.01294,0.7724 565.31221,108.2015 568.32501,108.3875 0.9024,0.056 4.9524,-2.0171 9,-4.6063 z M 710,906.68711 c -13.2,-2.57791 -24.75,-5.17252 -25.66667,-5.7658 -1.31972,-0.85414 -1.66666,-38.3938 -1.66666,-180.33334 0,-169.83424 0.12266,-179.25402 2.33333,-179.24301 3.30457,0.0165 48.24887,8.79279 49.03028,9.5742 0.35531,0.35531 0.49384,81.60305 0.30787,180.55055 L 734,911.37423 Z M 727.33333,729.24109 V 556.70441 l -18,-3.51916 c -9.9,-1.93553 -18.45228,-3.11176 -19.00505,-2.61381 -0.55277,0.49793 -0.85277,78.27305 -0.66667,172.83361 L 690,895.33333 l 17.33333,3.51356 c 9.53334,1.93247 17.93334,3.38247 18.66667,3.22223 0.88052,-0.1924 1.33333,-58.88669 1.33333,-172.82803 z m 0.33832,-423.55558 -0.33832,-172.98116 -18,-3.51913 c -9.9,-1.93552 -18.45228,-3.11172 -19.00505,-2.61379 -0.55277,0.49794 -0.85277,78.27306 -0.66667,172.83362 L 690,471.33333 l 17.33333,3.53908 c 9.53334,1.9465 18.08559,3.5965 19.00499,3.66667 1.33367,0.10173 1.60325,-34.84807 1.33333,-172.85357 z"
         id="path1153" />
    </g>
  </g>
</svg>
