<?xml version="1.0" encoding="UTF-8" standalone="no"?>
<!-- Created with Inkscape (http://www.inkscape.org/) -->

<svg
   version="1.1"
   id="svg3329"
   width="1440"
   height="1440"
   viewBox="0 0 1440 1440"
   sodipodi:docname="PartDesign_Scaled.svg"
   inkscape:version="1.1.2 (b8e25be833, 2022-02-05)"
   xmlns:inkscape="http://www.inkscape.org/namespaces/inkscape"
   xmlns:sodipodi="http://sodipodi.sourceforge.net/DTD/sodipodi-0.dtd"
   xmlns="http://www.w3.org/2000/svg"
   xmlns:svg="http://www.w3.org/2000/svg">
  <defs
     id="defs3333" />
  <sodipodi:namedview
     id="namedview3331"
     pagecolor="#505050"
     bordercolor="#eeeeee"
     borderopacity="1"
     inkscape:pageshadow="0"
     inkscape:pageopacity="0"
     inkscape:pagecheckerboard="0"
     showgrid="false"
     inkscape:zoom="0.58402778"
     inkscape:cx="679.76219"
     inkscape:cy="720"
     inkscape:window-width="1920"
     inkscape:window-height="1028"
     inkscape:window-x="-6"
     inkscape:window-y="-6"
     inkscape:window-maximized="1"
     inkscape:current-layer="g3335" />
  <g
     inkscape:groupmode="layer"
     inkscape:label="Image"
     id="g3335">
    <g
       id="g3396"
       transform="translate(-1.5614275,30.101966)">
      <path
         style="fill:#d8f0f6;stroke-width:1.33333"
         d="m 306,943.93567 c -12.46667,-4.35764 -24.05823,-8.53191 -25.75901,-9.27615 l -3.09235,-1.35317 4.75901,-5.55984 c 2.61746,-3.05791 4.75902,-6.04431 4.75902,-6.63644 0,-1.69287 9.44502,-7.09652 15.4496,-8.83898 2.99728,-0.86977 6.54026,-2.78658 7.87332,-4.25957 1.33304,-1.473 3.3099,-2.67819 4.39301,-2.67819 1.08312,0 3.85804,-1.16729 6.16648,-2.594 2.30845,-1.42669 6.57927,-3.17374 9.49072,-3.88234 2.91144,-0.7086 7.09353,-1.88075 9.29353,-2.60476 12.93828,-4.258 18.14312,-5.58556 21.89874,-5.58556 2.31413,0 6.4336,-1.11491 9.15438,-2.47759 5.99598,-3.003 28.11894,-6.03452 46.28022,-6.34179 40.18792,-0.67992 51.35336,-0.70278 72,-0.1475 12.46666,0.33529 27.16666,0.72478 32.66666,0.86554 l 10,0.25592 -14.66666,5.352 c -34.37799,12.54487 -183.82079,63.82067 -185.81639,63.75607 -1.20099,-0.0389 -12.38361,-3.63603 -24.85028,-7.99365 z"
         id="path3514" />
      <path
         style="fill:#d6f0f6;stroke-width:1.33333"
         d="m 239.33333,921.22755 c -20.53333,-7.2234 -57.43333,-20.14059 -82,-28.70487 -24.56666,-8.56427 -46.10823,-16.1054 -47.87015,-16.75807 l -3.20349,-1.18668 4.46305,-3.62229 c 2.45468,-1.99227 5.59459,-4.72064 6.97758,-6.06305 2.80133,-2.71916 17.99476,-10.22323 20.70219,-10.22487 0.95472,-5.7e-4 3.95472,-1.14768 6.66666,-2.54911 14.10474,-7.28874 39.0414,-15.36093 53.79755,-17.41468 4.14337,-0.57666 8.13188,-1.41837 8.86336,-1.87045 4.09477,-2.53071 36.68095,-7.33091 56.26992,-8.289 30.42328,-1.488 110.70101,-1.03 127.85063,0.72943 12.82477,1.31573 41.25982,2.98273 82.81604,4.8551 L 490,830.81988 l 48.33333,16.20675 c 26.58334,8.91372 48.33028,16.52924 48.32656,16.9234 -0.008,0.89789 -53.1564,19.21404 -55.17826,19.01585 -6.91099,-0.67739 -69.28846,-1.92399 -83.48163,-1.66836 -9.9,0.17831 -24,0.42571 -31.33333,0.54977 -18.16128,0.30727 -40.28424,3.33879 -46.28022,6.34179 -2.72078,1.36268 -6.84025,2.47759 -9.15438,2.47759 -3.75562,0 -8.96046,1.32756 -21.89874,5.58556 -2.2,0.72401 -6.38209,1.89616 -9.29353,2.60476 -2.91145,0.7086 -7.18227,2.45565 -9.49072,3.88234 -2.30844,1.42671 -5.08336,2.594 -6.16648,2.594 -1.08311,0 -3.05997,1.20519 -4.39301,2.67819 -1.33306,1.47299 -4.87604,3.39897 -7.87332,4.27995 -8.06262,2.3698 -13.69718,6.04901 -16.69684,10.90256 -1.46667,2.37312 -3.87188,5.40546 -5.34494,6.73856 -1.47305,1.33309 -2.35701,2.94361 -1.96436,3.57894 1.07632,1.74152 1.2367,1.79234 -38.7768,-12.28398 z"
         id="path3512" />
      <path
         style="fill:#d4eef5;stroke-width:1.33333"
         d="m 241.33333,922.66667 c -1.1,-0.71088 -1.4,-1.2925 -0.66666,-1.2925 0.73333,0 2.23333,0.58162 3.33333,1.2925 1.1,0.71088 1.4,1.29249 0.66667,1.29249 -0.73334,0 -2.23334,-0.58161 -3.33334,-1.29249 z m -32.66666,-11.38026 c -3.33416,-1.60593 -3.44514,-1.79101 -0.66667,-1.1119 3.778,0.92341 8.02467,3.08789 6,3.05814 -0.73333,-0.0107 -3.13333,-0.88658 -5.33333,-1.94624 z m -34.66667,-12 c -3.33416,-1.60593 -3.44513,-1.79101 -0.66667,-1.1119 3.778,0.92341 8.02467,3.08789 6,3.05814 C 178.6,901.22199 176.2,900.34607 174,899.28641 Z m -30.41667,-10.19722 c -4.2625,-1.48516 -7.51666,-2.93363 -7.23148,-3.21882 0.60631,-0.6063 16.98148,4.77964 16.98148,5.58536 0,0.8698 -1.5212,0.50056 -9.75,-2.36654 z m -44.571514,-15.5164 c -14.110168,-4.89836 -25.660168,-9.23666 -25.666667,-9.64063 -0.01233,-0.76647 255.706971,-89.26549 257.934021,-89.26549 1.94859,0 203.46907,69.69621 202.96832,70.19694 -0.24146,0.24147 -9.39593,-2.63173 -20.34326,-6.38489 -22.00223,-7.5432 -19.73684,-7.25183 -80.5709,-10.36324 -15.76666,-0.8064 -34.57476,-2.09877 -41.79576,-2.87195 -16.10064,-1.72394 -97.49852,-2.17077 -127.53757,-0.70012 -19.58765,0.95898 -52.17648,5.76019 -56.26992,8.29007 -0.73148,0.45208 -4.71999,1.29379 -8.86336,1.87045 -14.75615,2.05375 -39.69281,10.12594 -53.79755,17.41468 -2.71194,1.40143 -5.71194,2.54854 -6.66666,2.54911 -2.70743,10e-4 -17.90086,7.50571 -20.70219,10.22487 -1.38299,1.34241 -4.4731,4.02952 -6.8669,5.97136 -4.96212,4.02524 -5.1658,3.79474 6.83325,7.73293 4.95,1.62463 9,3.20495 9,3.51183 0,0.99968 -1.68422,0.47984 -27.654854,-8.53592 z m 462.321514,-0.23946 c 1.1,-0.71088 2.6,-1.29249 3.33334,-1.29249 0.73333,0 0.43333,0.58161 -0.66667,1.29249 -1.1,0.71088 -2.6,1.2925 -3.33333,1.2925 -0.73334,0 -0.43334,-0.58162 0.66666,-1.2925 z M 586.66667,864 c 0,-0.73333 0.6,-1.33333 1.33333,-1.33333 0.73333,0 1.33333,0.6 1.33333,1.33333 0,0.73333 -0.6,1.33333 -1.33333,1.33333 -0.73333,0 -1.33333,-0.6 -1.33333,-1.33333 z m -21.08334,-7.57748 c -3.1625,-1.11849 -5.51425,-2.26939 -5.2261,-2.55752 0.60833,-0.60833 12.9761,3.45227 12.9761,4.26033 0,0.83492 -1.51714,0.50158 -7.75,-1.70281 z"
         id="path3510" />
      <path
         style="fill:#a5d2e0;stroke-width:1.33333"
         d="m 339.33333,965.41815 c -2.3865,-0.9496 -2.17565,-1.26848 2.0069,-3.03519 4.34134,-1.83377 84.17833,-29.71219 206.65977,-72.16388 l 51.33333,-17.79199 0.36583,22.6873 c 0.36804,22.82516 -0.33619,26.89658 -4.11051,23.76418 -1.02172,-0.84796 -4.66353,-1.92633 -8.0929,-2.39638 -3.42938,-0.47004 -6.55424,-1.37083 -6.94418,-2.00175 -0.38992,-0.63091 -3.57354,-1.14711 -7.0747,-1.14711 -3.50116,0 -6.79452,-0.42876 -7.31856,-0.9528 -0.52404,-0.52404 -3.47404,-0.98364 -6.55556,-1.02133 -3.08151,-0.0377 -6.35275,-0.54433 -7.26942,-1.12588 -1.07278,-0.6806 -1.66666,-0.31667 -1.66666,1.02132 0,2.36189 -2.07546,2.78064 -3.37335,0.68061 -0.59865,-0.96862 -1.37723,-0.97218 -2.53471,-0.012 -0.91885,0.76258 -1.95036,1.10679 -2.29225,0.7649 -0.70908,-0.70908 -23.11947,6.26228 -89.79969,27.93464 -62.45972,20.30061 -66.38031,21.49954 -78.27712,23.93745 -10.73475,2.19976 -30.46971,2.68248 -35.05622,0.85747 z"
         id="path3508" />
      <path
         style="fill:#a1d0de;stroke-width:1.33333"
         d="m 337.33333,973.52411 v -7.64736 l 12.51128,0.5472 c 20.08819,0.8786 22.93314,0.16472 102.82206,-25.80072 66.68022,-21.67236 89.09061,-28.64372 89.79969,-27.93464 0.34189,0.34189 1.3734,-0.003 2.29225,-0.7649 1.15748,-0.96062 1.93606,-0.95706 2.53471,0.012 1.29789,2.10003 3.37335,1.68128 3.37335,-0.68061 0,-1.33799 0.59388,-1.70192 1.66666,-1.02132 0.91667,0.58155 4.18791,1.0882 7.26942,1.12588 3.08152,0.0377 6.03152,0.49729 6.55556,1.02133 0.52404,0.52404 3.8174,0.9528 7.31856,0.9528 3.50116,0 6.68769,0.52092 7.08118,1.15759 0.39348,0.63668 3.70424,1.55407 7.35723,2.03865 3.65299,0.48459 7.02713,1.50458 7.49812,2.26664 0.47099,0.76207 1.69564,1.06351 2.72147,0.66987 1.56041,-0.59879 1.86513,3.73021 1.86513,26.49669 v 27.21242 l -3.63123,-1.8839 c -1.99717,-1.03614 -6.04717,-2.2074 -9,-2.60277 -8.65964,-1.15949 -56.72584,-1.59712 -63.32226,-0.57652 -3.32559,0.51453 -6.70171,0.40503 -7.50252,-0.24333 -0.8008,-0.64838 -1.73455,-0.90034 -2.07498,-0.55991 -0.34042,0.34043 -2.68521,0.0691 -5.21065,-0.60296 -2.52543,-0.67205 -7.89169,-1.57549 -11.92503,-2.00765 C 493.3,964.26643 488.2,963.69296 486,963.42423 c -2.2,-0.26874 -4.75,0.1244 -5.66667,0.87372 -1.16281,0.95049 -1.66666,0.88274 -1.66666,-0.2241 0,-0.95645 -1.0144,-1.26449 -2.55446,-0.77569 -1.40496,0.44592 -2.93981,0.18724 -3.41078,-0.57481 -0.47099,-0.76207 -4.57148,-1.2857 -9.11222,-1.1636 -4.82849,0.12986 -11.10882,-0.72816 -15.12804,-2.0667 -4.85873,-1.61813 -8.76518,-2.02776 -13.33333,-1.39813 -3.55364,0.48979 -8.56117,0.85144 -11.12784,0.80365 -2.56667,-0.0477 -5.56667,0.26024 -6.66667,0.68451 -1.1,0.42425 -5.6,0.87603 -10,1.00393 -5.77333,0.16782 -15.05113,2.55682 -33.33333,8.58318 -13.93333,4.59285 -27.88333,9.17214 -31,10.17618 l -5.66667,1.82554 v -7.64736 z m 263.10419,-92.85744 c 0.005,-5.13334 0.24691,-7.06995 0.53555,-4.3036 0.28862,2.76636 0.28378,6.96636 -0.0107,9.33333 -0.29455,2.36699 -0.53071,0.1036 -0.52479,-5.02973 z"
         id="path3506" />
      <path
         style="fill:#a0cedd;stroke-width:1.33333"
         d="m 597.29487,1034.0582 c -1.66204,-1.6632 -7.44824,-2.1623 -31.33334,-2.7028 -38.41928,-0.8694 -55.06733,-1.6089 -59.96153,-2.6636 -4.37708,-0.9432 -14.81777,-1.5973 -41.33333,-2.5894 -9.53334,-0.3567 -19.13334,-1.0274 -21.33334,-1.4904 -2.2,-0.463 -9.50192,-1.025 -16.22649,-1.2489 -6.72456,-0.2238 -12.83311,-0.7819 -13.57453,-1.2401 -0.74143,-0.4583 -1.69011,-0.2797 -2.10818,0.3967 -0.91373,1.4785 -5.75457,0.416 -9.38748,-2.0603 -1.44649,-0.986 -4.31577,-1.7927 -6.37614,-1.7927 -2.06039,0 -5.95182,-0.9216 -8.64762,-2.048 -3.90802,-1.6329 -8.02048,-1.8771 -20.2905,-1.2051 -8.46398,0.4635 -17.64835,0.7602 -20.40971,0.6593 -3.41803,-0.1249 -5.2724,0.4727 -5.80932,1.8719 -2.27884,5.9385 -3.20807,0.2993 -2.87233,-17.4316 L 338,981.02635 l 30,-9.94272 c 22.35137,-7.40778 32.2096,-10.04564 38.66667,-10.34646 4.76666,-0.22206 9.56666,-0.74624 10.66666,-1.16484 1.1,-0.4186 4.1,-0.72198 6.66667,-0.6742 2.56667,0.0477 7.5742,-0.31386 11.12784,-0.80365 4.56815,-0.62963 8.4746,-0.22 13.33333,1.39813 4.01922,1.33854 10.29955,2.19651 15.12804,2.0667 4.54074,-0.12214 8.64123,0.40153 9.11222,1.1636 0.47097,0.76205 2.00582,1.02073 3.41078,0.57481 1.54006,-0.4888 2.55446,-0.18076 2.55446,0.77569 0,1.10684 0.50385,1.17459 1.66666,0.2241 0.91667,-0.74928 3.46667,-1.14246 5.66667,-0.87372 2.2,0.26873 7.3,0.8422 11.33333,1.27436 4.03334,0.43216 9.3996,1.3356 11.92503,2.00765 2.52544,0.67205 4.87023,0.94339 5.21065,0.60296 0.34043,-0.34043 1.27418,-0.0885 2.07498,0.55991 0.80081,0.64836 4.16038,0.76038 7.46572,0.24892 8.76538,-1.35634 59.5854,-0.33268 66.92425,1.34805 3.44701,0.78943 6.90825,2.20763 7.69165,3.15156 0.94352,1.13688 1.3034,12.14135 1.06604,32.5985 -0.32152,27.7107 -0.56766,30.6728 -2.39678,28.8425 z M 600.52985,908 c 0,-10.63333 0.20707,-14.98333 0.46016,-9.66667 0.25308,5.31667 0.25308,14.01667 0,19.33334 -0.25309,5.31666 -0.46016,0.96666 -0.46016,-9.66667 z"
         id="path3504" />
      <path
         style="fill:#9bcbdb;stroke-width:1.33333"
         d="m 597.32719,1149.3579 c -1.10339,-0.6183 -8.90339,-1.497 -17.33334,-1.9527 -8.42994,-0.4557 -18.62718,-1.1488 -22.66052,-1.5404 -4.03333,-0.3915 -12.43333,-0.9156 -18.66666,-1.1647 -25.862,-1.0332 -44.98723,-2.3224 -50,-3.3702 -2.93334,-0.6131 -11.33334,-1.2788 -18.66667,-1.4792 -7.33333,-0.2004 -13.89555,-0.6536 -14.58269,-1.007 -0.68716,-0.3535 -5.63715,-0.8168 -10.99998,-1.0296 -5.36284,-0.2128 -10.96302,-1.0358 -12.44486,-1.8288 -1.48183,-0.7931 -3.13184,-1.1981 -3.6667,-0.9 -0.53484,0.298 -5.17244,0.042 -10.30577,-0.5692 -8.595,-1.0232 -28.51075,-3.3082 -39.07275,-4.4829 -8.18177,-0.91 -15.48001,-2.3567 -17.54264,-3.4775 -2.95001,-1.6029 -13.62041,-3.4311 -16.50385,-2.8276 -1.34892,0.2824 -3.58575,3.009 -4.97072,6.0593 -2.51629,5.5419 -2.51816,5.5042 -2.54743,-51.5098 -0.0276,-53.8277 0.1112,-57.2065 2.4536,-59.7208 1.63731,-1.7575 4.02124,-2.6015 7,-2.4783 2.48442,0.1028 11.4422,-0.1945 19.90618,-0.6605 12.2768,-0.6759 16.38032,-0.4331 20.2905,1.2007 2.6958,1.1264 6.58723,2.048 8.64762,2.048 2.06037,0 4.92965,0.8067 6.37614,1.7927 3.63291,2.4763 8.47375,3.5388 9.38748,2.0603 0.41807,-0.6764 1.36675,-0.855 2.10818,-0.3967 0.74142,0.4582 6.84997,1.0163 13.57453,1.2401 6.72457,0.2239 14.02649,0.7859 16.22649,1.2489 2.2,0.463 11.8,1.1337 21.33334,1.4904 26.51556,0.9921 36.95625,1.6462 41.33333,2.5894 4.89212,1.0543 21.54024,1.7942 59.90377,2.6624 24.66636,0.5582 29.61692,1.0054 31.66667,2.8604 2.34636,2.1234 2.44015,0.3081 2.73851,-53.00795 0.19114,-34.15668 0.43845,-42.75104 0.6486,-22.53998 0.1868,17.96666 -0.10227,68.47513 -0.64228,112.24103 -0.86704,70.263 -1.21668,79.4428 -2.98808,78.4502 z M 336.45708,972.66667 c 0.005,-5.86667 0.23925,-8.10082 0.52092,-4.96476 0.28165,3.13605 0.27769,7.93605 -0.009,10.66666 -0.2865,2.73062 -0.51695,0.16476 -0.51211,-5.7019 z"
         id="path3502" />
      <path
         style="fill:#a1f8a1;stroke-width:1.33333"
         d="m 767.33333,407.27235 c -36.66666,-12.797 -77.31893,-27.01842 -90.33837,-31.60315 l -23.67172,-8.33587 12.33839,-0.85076 c 43.58513,-3.00529 211.83457,0.1599 294.33837,5.53724 27.117,1.7674 34.28537,2.67474 31.85909,4.03254 -1.05573,0.59082 -33.10592,11.93093 -71.22264,25.20025 -38.1167,13.26932 -72.5065,25.31585 -76.42176,26.77005 -3.91526,1.45422 -7.81526,2.61543 -8.66666,2.58048 -0.85142,-0.0349 -31.54803,-10.5338 -68.2147,-23.33078 z"
         id="path3500" />
      <path
         style="fill:#96c8d8;stroke-width:1.33333"
         d="m 534,1239.8905 c -23.25556,-1.5674 -34.36213,-2.464 -38.66667,-3.1215 -8.67156,-1.3245 -27.17297,-3.3752 -36.66666,-4.0641 -20.70955,-1.5028 -27.7333,-2.3012 -42,-4.7741 C 408.6,1226.5326 398.4,1225.0307 394,1224.5933 c -4.4,-0.4374 -10.4,-1.3117 -13.33333,-1.9429 -2.93334,-0.6312 -9.4911,-1.5425 -14.57282,-2.0252 -5.0817,-0.4826 -10.4817,-1.6619 -12,-2.6205 -1.51828,-0.9586 -4.71101,-2.1496 -7.09496,-2.6467 -3.50381,-0.7305 -4.48837,-0.4362 -5.13777,1.5358 -4.28399,13.0091 -4.46631,11.5821 -4.49743,-35.2001 -0.0384,-57.6866 0.69867,-60.352 15.88024,-57.4262 3.34918,0.6455 7.01247,1.6752 8.14068,2.2882 2.06263,1.1208 9.36087,2.5675 17.54264,3.4775 10.562,1.1747 30.47775,3.4597 39.07275,4.4829 5.13333,0.6111 9.77093,0.8672 10.30577,0.5692 0.53486,-0.2981 2.18487,0.1069 3.6667,0.9 1.48184,0.793 7.08202,1.616 12.44486,1.8288 5.36283,0.2128 10.31282,0.6761 10.99998,1.0296 0.68714,0.3534 7.24936,0.8066 14.58269,1.007 7.33333,0.2004 15.73333,0.8661 18.66667,1.4792 5.01277,1.0478 24.138,2.337 50,3.3702 6.23333,0.2491 14.63333,0.7732 18.66666,1.1647 4.03334,0.3916 14.21983,1.0841 22.63666,1.539 8.41681,0.4549 16.36681,1.3962 17.66666,2.0919 2.1755,1.1642 2.36335,4.2198 2.36335,38.4405 v 37.1757 l -22.33333,7.3272 c -12.28334,4.03 -23.83334,7.5776 -25.66667,7.8836 -1.83333,0.306 -9.93333,0.1115 -18,-0.4322 z M 600.60107,1084 c 0,-26.0333 0.17861,-36.6833 0.3969,-23.6667 0.2183,13.0167 0.2183,34.3167 0,47.3334 -0.21829,13.0166 -0.3969,2.3666 -0.3969,-23.6667 z m -264.01032,-62 c -6e-4,-22 0.18206,-31.18708 0.40592,-20.4157 0.22385,10.7713 0.22434,28.7713 0.001,40 -0.22327,11.2286 -0.40641,2.4157 -0.40701,-19.5843 z"
         id="path3498" />
      <path
         style="fill:#9bf89b;stroke-width:1.33333"
         d="m 991.83809,376.27447 c 2.28646,-1.63006 -3.56348,-2.4118 -31.83809,-4.25466 -82.70747,-5.39062 -249.74803,-8.53249 -295.22252,-5.55286 l -13.22252,0.86638 -58.11081,-20.45105 c -31.96095,-11.24808 -60.18371,-21.19907 -62.71724,-22.11332 -4.14623,-1.4962 -2.48114,-1.75004 16.66666,-2.54085 119.03422,-4.9162 298.19899,-4.11538 409.93976,1.83233 52.14587,2.7756 137.42167,10.35401 143.99997,12.79719 2.5802,0.95825 5.1758,-0.0352 -55.3333,21.17826 -61.64739,21.61254 -56.43019,19.85568 -54.16191,18.23858 z"
         id="path3496" />
      <path
         style="fill:#93c5d5;stroke-width:1.33333"
         d="m 337.33333,1271.6479 c 0,-34.6327 0.39246,-44.7994 1.85726,-48.1131 1.02148,-2.3108 2.22098,-5.2993 2.66556,-6.641 0.65326,-1.9716 1.63972,-2.2661 5.14274,-1.5358 2.38395,0.4971 5.57668,1.6881 7.09496,2.6467 1.5183,0.9586 6.9183,2.1379 12,2.6205 5.08172,0.4827 11.63948,1.3971 14.57282,2.0319 2.93333,0.6349 9.23333,1.539 14,2.0092 4.76666,0.4702 13.16666,1.7182 18.66666,2.7733 11.398,2.1865 27.222,4.0339 44.66667,5.2148 6.6,0.4467 16.2,1.3565 21.33333,2.0217 8.28656,1.0737 15.01802,1.9316 26,3.3136 6.25848,0.7875 43.32311,2.6019 47.33334,2.317 4.18701,-0.2974 -26.2217,10.4297 -144.33334,50.9156 l -71,24.3372 z M 600.60185,1178 c -4.2e-4,-26.4 0.17767,-37.389 0.39576,-24.42 0.21811,12.9691 0.21846,34.5691 7.9e-4,48 -0.21767,13.431 -0.39611,2.82 -0.39655,-23.58 z m -263.99173,-61.3333 c 3.3e-4,-30.8 0.17524,-43.2096 0.38869,-27.5769 0.21344,15.6327 0.21318,40.8327 -6e-4,56 -0.21378,15.1673 -0.38841,2.3769 -0.38809,-28.4231 z M 248.66667,948.04199 C 223.5284,941.36817 63.574523,889.46096 62.385879,887.59133 c -0.556442,-0.87524 -1.020899,-4.80552 -1.032128,-8.73398 -0.01479,-5.17075 0.439706,-6.96698 1.646249,-6.50632 0.916667,0.34998 32.266667,11.2737 69.66667,24.27494 69.1682,24.0447 140.21785,48.94748 148.66666,52.10742 8.07983,3.02193 -20.99784,2.40648 -32.66666,-0.6914 z"
         id="path3494" />
      <path
         style="fill:#93f893;stroke-width:1.33333"
         d="m 1101.9625,337.50713 c -1.5916,-1.49578 -55.7794,-7.45053 -91.9625,-10.10584 -65.94479,-4.83937 -127.78119,-7.07512 -227.33333,-8.2194 -70.00072,-0.80462 -189.91176,0.84416 -239.33334,3.29084 L 524.66667,323.39685 474,305.57532 c -61.30073,-21.56196 -60.74917,-21.35509 -57.33333,-21.50248 1.46666,-0.0633 9.56666,-0.68051 18,-1.37164 107.70629,-8.82669 372.48372,-10.84989 523.33333,-3.99885 91.445,4.15309 157.5134,10.68726 216.6114,21.42292 12.0696,2.19254 22.2055,4.24718 22.5242,4.56586 0.3187,0.3187 -0.2565,0.88355 -1.2781,1.25526 -4.783,1.74024 -16.6681,5.93389 -51.1908,18.06274 -20.5334,7.21396 -38.2503,13.47619 -39.3709,13.91606 -1.1206,0.43986 -2.6206,0.25174 -3.3333,-0.41806 z"
         id="path3492" />
      <path
         style="fill:#8dc0d1;stroke-width:1.33333"
         d="m 336.60185,1219.3333 c -4.2e-4,-26.4 0.17767,-37.3889 0.39576,-24.4199 0.21811,12.969 0.21846,34.569 7.9e-4,48 -0.21767,13.431 -0.39611,2.8199 -0.39655,-23.5801 z M 318.7512,978.57507 C 312.84492,974.69685 164.02591,924.4606 141.11287,918.61037 130.06529,915.78968 126.5299,916.03501 122,919.93665 c -1.46667,1.26326 -5.36667,3.67684 -8.66667,5.36351 -18.442534,9.42624 -28.810598,15.00855 -29.93333,16.11651 -0.696667,0.68749 -2.372853,1.25 -3.724859,1.25 -1.352005,0 -3.944005,1.37772 -5.76,3.06161 -1.815993,1.68388 -5.089806,4.1178 -7.275141,5.40871 l -3.973333,2.3471 -0.0055,-16.4087 c -0.0029,-9.0248 -0.351781,-24.20872 -0.775201,-33.74206 -0.431982,-9.72609 -0.269215,-16.63493 0.370868,-15.742 1.52777,2.13127 170.921016,56.81268 189.700586,61.23679 5.46298,1.28696 13.54756,1.90928 22.05598,1.69779 12.95217,-0.32196 14.10834,-0.1044 32.37586,6.09364 l 18.94404,6.42753 v 9.8098 c 0,5.39539 -0.15,9.76313 -0.33333,9.70611 -0.18333,-0.0571 -2.99529,-1.8516 -6.2488,-3.98792 z"
         id="path3490" />
      <path
         style="fill:#8bbed0;stroke-width:1.33333"
         d="m 336.55091,1290 c 0.001,-13.2 0.20093,-18.4197 0.44341,-11.5992 0.24248,6.8204 0.24133,17.6204 -0.003,24 -0.24388,6.3795 -0.44226,0.7992 -0.44086,-12.4008 z m -13.14282,-247.6667 c -1.67126,-14.926 -3.3294,-51.02251 -2.56373,-55.81073 0.73115,-4.57229 0.42941,-5.26465 -3.2764,-7.51829 -2.24495,-1.36523 -9.22464,-4.19117 -15.51044,-6.27988 -6.28579,-2.08871 -11.20363,-4.02273 -10.92852,-4.29784 1.15293,-1.15293 22.03559,6.46263 27.871,10.16408 l 6.33333,4.01729 v 33.36267 c 0,18.3495 -0.25682,33.3627 -0.57072,33.3627 -0.3139,0 -0.92344,-3.15 -1.35452,-7 z M 61.997071,959.64421 c -0.538455,-25.12901 -0.677674,-46.87901 -0.309375,-48.33333 0.368299,-1.45432 0.739235,7.43971 0.824303,19.76451 l 0.154668,22.4087 3.973333,-2.3471 c 2.185335,-1.29091 5.459148,-3.72483 7.275141,-5.40871 1.815995,-1.68389 4.407995,-3.06161 5.76,-3.06161 1.352006,0 3.028192,-0.56251 3.724859,-1.25 1.122732,-1.10796 11.490796,-6.69027 29.93333,-16.11651 3.3,-1.68667 7.2,-4.10025 8.66667,-5.36351 4.51708,-3.89061 8.05958,-4.14866 18.89268,-1.37625 13.35304,3.41732 148.86571,48.12567 148.12271,48.86865 -0.30699,0.30699 -12.21103,-3.35588 -26.45344,-8.1397 -59.4465,-19.96727 -79.19747,-24.71612 -80.94852,-19.46295 -0.27628,0.82881 -1.65232,1.50693 -3.05787,1.50693 -1.40556,0 -2.55556,0.45354 -2.55556,1.00786 0,0.55432 -1.95,1.83978 -4.33333,2.8566 -2.38334,1.01681 -5.73167,3.11328 -7.44075,4.65881 -1.70908,1.54553 -3.50908,2.67811 -4,2.51681 -1.74192,-0.57229 -18.33611,8.308 -25.55925,13.67791 -4.03334,2.99851 -9.43334,6.29816 -12,7.33257 -2.56667,1.0344 -7.68771,3.6962 -11.3801,5.9151 -3.69239,2.21889 -12.092387,6.66422 -18.666667,9.87853 -14.065747,6.87705 -13.06504,6.32192 -21.311838,11.82248 -3.573248,2.3833 -6.909728,4.3333 -7.4144,4.3333 -0.504672,0 -1.35814,-20.56007 -1.896594,-45.68909 z"
         id="path3488" />
      <path
         style="fill:#89bcce;stroke-width:1.33333"
         d="m 323.66455,1138 c -0.55118,-3.6667 -1.90336,-22.5667 -3.00488,-42 -3.75052,-66.1683 -6.93563,-103.79455 -9.53738,-112.66667 -1.46689,-5.00221 -3.08721,-6.02313 -5.6778,-3.57745 -4.85484,4.58331 -8.19046,6.91079 -9.90417,6.91079 -0.9694,0 -2.21255,0.45 -2.76255,1 -0.55,0.55 -1.4,1.0587 -1.88888,1.13046 -8.91736,1.30887 -12.8176,2.87203 -18.14009,7.27028 -5.83099,4.81849 -16.26484,10.34719 -32.79172,17.37569 -4.00972,1.7053 -10.16681,4.7782 -13.68243,6.8287 -3.5156,2.0505 -6.89213,3.7282 -7.5034,3.7282 -0.61126,0 -1.80948,0.8411 -2.66268,1.8692 -0.85321,1.028 -3.0369,2.242 -4.85268,2.6978 -1.81576,0.4557 -6.56232,2.9146 -10.54792,5.4641 -3.9856,2.5496 -7.67093,4.6356 -8.18964,4.6356 -0.5187,0 -9.09752,4.437 -19.06405,9.8601 -27.32635,14.869 -89.010528,46.6116 -96.787613,49.8068 -2.2,0.9038 -5.978263,2.9203 -8.39614,4.481 -2.417876,1.5606 -4.68517,2.5485 -5.038428,2.1953 -0.353259,-0.3533 -0.837407,-32.975 -1.075886,-72.4928 -0.238477,-39.51773 -0.207016,-61.80043 0.06992,-49.5171 0.276931,12.28333 0.971874,22.3333 1.544318,22.3333 0.572444,0 3.964373,-1.95 7.537621,-4.3333 8.246797,-5.50056 7.246091,-4.94543 21.311837,-11.82248 6.57428,-3.21431 14.974281,-7.65964 18.666671,-9.87853 3.69238,-2.2189 8.81343,-4.8807 11.38009,-5.9151 2.56667,-1.03441 7.96667,-4.33406 12,-7.33257 7.1919,-5.34667 24.63871,-14.67703 25.84147,-13.81972 0.33569,0.23929 2.00871,-0.82947 3.71779,-2.375 1.70908,-1.54553 5.05741,-3.642 7.44074,-4.65881 2.38334,-1.01682 4.33334,-2.30228 4.33334,-2.8566 0,-0.55432 1.15,-1.00786 2.55556,-1.00786 1.40554,0 2.78158,-0.67812 3.05786,-1.50693 1.19956,-3.59869 12.53572,-2.16892 33.71991,4.25296 32.37497,9.81431 98.66135,32.50697 102.71732,35.16456 3.13424,2.05363 3.48815,2.96861 2.7928,7.22052 -0.95027,5.81076 1.22743,46.06306 3.25701,60.20226 0.87432,6.091 1.26555,27.1995 1.00082,54 -0.26075,26.3977 -0.83551,41.333 -1.43674,37.3333 z"
         id="path3486" />
      <path
         style="fill:#8bf88b;stroke-width:1.33333"
         d="m 1196.6893,305.29669 c 0.4408,-0.71318 0.4546,-1.29669 0.031,-1.29669 -0.424,0 -10.5094,-1.76876 -22.412,-3.93059 -99.3666,-18.04745 -226.94983,-25.3892 -440.97467,-25.37578 -129.23378,0.008 -215.03388,2.245 -288.66666,7.52588 -16.13334,1.15706 -30.23334,2.1251 -31.33334,2.15118 -1.87962,0.0445 -89.17849,-30.43808 -90.25542,-31.51501 -1.22936,-1.22935 55.73341,-6.63937 99.58876,-9.4584 163.70126,-10.52279 422.61832,-11.10456 593.33333,-1.3332 87.5391,5.01053 160.8542,14.0814 214,26.47699 18.7166,4.3654 43.5581,11.08237 41.9494,11.34281 -0.3945,0.0639 -8.4945,2.87177 -18,6.23979 -48.4763,17.17624 -57.996,20.36382 -57.2601,19.17302 z"
         id="path3484" />
      <path
         style="fill:#85b9cb;stroke-width:1.33333"
         d="m 323.70949,1235.3333 c -0.52645,-1.4666 -1.59401,-14.3666 -2.37237,-28.6666 -4.01537,-73.771 -7.25623,-110.221 -10.22743,-115.0286 -1.15825,-1.8741 -6.92557,-0.3064 -19.97322,5.429 -6.49172,2.8537 -15.70314,6.851 -20.4698,8.8831 -4.76667,2.032 -12.11667,5.4154 -16.33334,7.5186 -4.21666,2.1032 -7.66666,3.4401 -7.66666,2.9709 0,-0.4691 -1.05,0.038 -2.33334,1.1278 -2.22748,1.8909 -5.52733,3.5302 -28.33333,14.0756 -5.5,2.5431 -30.11153,14.6138 -54.69231,26.8237 -46.85511,23.2742 -58.02377,28.5733 -74.928314,35.5508 -5.658011,2.3354 -11.058011,4.8095 -12,5.4981 -0.941991,0.6887 -3.867792,2.2244 -6.501781,3.4127 l -4.789071,2.1606 -0.874865,-34.8778 c -0.481178,-19.1828 -0.741227,-51.9779 -0.577891,-72.8779 0.207393,-26.5373 0.417168,-31.062 0.695423,-15 0.219145,12.65 0.893989,23 1.499653,23 0.605664,0 3.741496,-1.789 6.968515,-3.9757 3.22702,-2.1867 6.578206,-3.9867 7.447082,-4 0.868875,-0.013 10.168875,-4.4442 20.666667,-9.8464 43.410302,-22.339 57.308442,-29.6076 74.541172,-38.9844 9.96653,-5.4231 18.54535,-9.8601 19.06405,-9.8601 0.51871,0 4.20404,-2.086 8.18964,-4.6356 3.9856,-2.5495 8.73216,-5.0084 10.54792,-5.4641 1.81578,-0.4558 3.99947,-1.6698 4.85268,-2.6978 0.8532,-1.0281 2.05142,-1.8692 2.66268,-1.8692 0.61127,0 3.9878,-1.6777 7.5034,-3.7282 3.51562,-2.0505 9.67271,-5.1234 13.68243,-6.8287 16.52688,-7.0285 26.96073,-12.5572 32.79172,-17.37569 5.32249,-4.39825 9.22273,-5.96141 18.14009,-7.27028 0.48888,-0.0717 1.33888,-0.58046 1.88888,-1.13046 0.55,-0.55 1.79315,-1 2.76255,-1 1.71371,0 5.04933,-2.32748 9.90417,-6.91079 2.59059,-2.44568 4.21091,-1.42476 5.6778,3.57745 2.60935,8.89806 5.81612,46.82867 9.52518,112.66667 1.0948,19.4333 2.64262,39.8333 3.43962,45.3333 1.5942,11.0015 1.24267,98.514 -0.3776,94 z"
         id="path3482" />
      <path
         style="fill:#81b6c8;stroke-width:1.33333"
         d="m 322.50273,1314.3915 c -1.77205,-1.4125 -2.45192,-6.7957 -3.75405,-29.7248 -2.22948,-39.2585 -4.89053,-60.707 -7.90801,-63.7398 -2.582,-2.5951 -3.48346,-2.4136 -15.50734,3.1221 C 292.4,1225.3995 281,1230.394 270,1235.1478 c -29.68564,12.8292 -53.215,23.105 -66.35335,28.9779 l -11.68668,5.224 -36.97998,-12.5585 C 134.641,1249.884 105.25,1239.8613 89.666667,1234.5186 l -28.333334,-9.7141 0.300535,-33.4022 c 0.263311,-29.265 0.349677,-30.4754 0.697285,-9.7718 l 0.396751,23.6305 4.969381,-2.2466 c 2.73316,-1.2357 5.7401,-2.81 6.682091,-3.4987 0.941989,-0.6886 6.341989,-3.1627 12,-5.4981 16.904544,-6.9775 28.073204,-12.2766 74.928314,-35.5508 24.58078,-12.2099 49.19231,-24.2806 54.69231,-26.8237 22.806,-10.5454 26.10585,-12.1847 28.33333,-14.0756 1.28334,-1.0894 2.33334,-1.5969 2.33334,-1.1278 0,0.4692 3.45,-0.8677 7.66666,-2.9709 4.21667,-2.1032 11.56667,-5.4866 16.33334,-7.5186 4.76666,-2.0321 13.97808,-6.0294 20.4698,-8.8831 13.04765,-5.7354 18.81497,-7.3031 19.97322,-5.429 2.97747,4.8177 6.29379,42.1804 10.20995,115.0286 0.76873,14.3 1.99631,27.5 2.72793,29.3333 0.80743,2.0233 1.1905,18.4217 0.97467,41.7248 -0.32611,35.2099 -0.53491,38.2485 -2.51951,36.6667 z"
         id="path3480" />
      <path
         style="fill:#83f883;stroke-width:1.33333"
         d="M 1261.3333,276.48564 C 1203.2825,259.68589 1120.1913,248.02776 1016,242.06408 c -170.72048,-9.77167 -429.71321,-9.18923 -593.33333,1.33435 -34.85506,2.24177 -85.10026,6.7327 -95.29378,8.51738 -5.37666,0.94135 -8.01824,0.65032 -14,-1.54242 -4.05509,-1.4865 -7.80642,-3.09215 -8.3363,-3.56814 -0.5299,-0.47598 25.2701,-9.68244 57.33333,-20.45877 l 58.29675,-19.59336 28,-1.39432 c 159.84222,-7.95971 410.752,-7.95081 562.00003,0.0199 114.4095,6.02937 202.5391,17.5743 265.3333,34.75853 16.1315,4.41455 54.6667,17.40485 54.6667,18.42831 0,0.72914 -50.646,19.38204 -56.6667,20.8703 -0.7333,0.18128 -6.4333,-1.14633 -12.6667,-2.95024 z"
         id="path3478" />
      <path
         style="fill:#7eb2c5;stroke-width:1.33333"
         d="m 255.01533,1292.1309 -64.318,-22.2964 12.318,-5.4574 c 15.84735,-7.021 41.71091,-18.3067 66.98467,-29.2293 11,-4.7538 22.4,-9.7483 25.33333,-11.0988 12.02235,-5.535 12.9271,-5.7175 15.48172,-3.1221 1.58534,1.6106 2.88544,6.3374 3.93126,14.2928 1.90309,14.4768 6.22193,79.4944 5.26937,79.3273 -0.37529,-0.066 -29.62545,-10.1531 -65.00035,-22.4161 z"
         id="path3476" />
      <path
         style="fill:#7bf87b;stroke-width:1.33333"
         d="m 1330.6667,258.77304 c 0,-1.18609 -37.0268,-13.80844 -54.6667,-18.63577 -62.7942,-17.18423 -150.9238,-28.72916 -265.3333,-34.75854 -151.17859,-7.96708 -408.47018,-7.96009 -562.00003,0.0152 -14.66667,0.7619 -27.71667,1.70035 -29,2.08548 -1.28334,0.38512 -2.33334,0.38454 -2.33334,-0.001 0,-0.38584 20.13791,-7.32806 44.7509,-15.42714 l 44.7509,-14.7256 44.2491,-1.2627 c 211.54066,-6.03662 512.10487,0.68652 559.39587,12.51277 7.0693,1.76784 26.3532,4.79667 42.8532,6.73072 36.0528,4.22595 75.5947,10.73611 105.398,17.35267 20.102,4.46281 68.3603,19.63485 95.851,30.13485 10.151,3.87712 10.9318,4.41769 8,5.53792 -17.0518,6.51539 -31.9156,11.37819 -31.9156,10.44144 z"
         id="path3474" />
      <path
         style="fill:#7af67a;stroke-width:1.33333"
         d="m 1362.6667,246 c -1.8334,-1.04803 -2.698,-1.92677 -1.9215,-1.95275 0.7764,-0.026 2.5764,0.83367 4,1.91035 3.2919,2.48992 2.2405,2.51137 -2.0785,0.0424 z m -79.3709,-27.26547 c -5.6573,-2.29374 -47.5893,-11.12818 -73.2312,-15.42865 -14.7022,-2.46575 -40.2313,-6.0656 -56.7313,-7.99965 -16.5,-1.93406 -35.7839,-4.96288 -42.8532,-6.73072 C 1070.0179,178.45699 831.29227,171.43563 632.79091,174.5258 578.45591,175.37167 527.7,176.35624 520,176.71375 l -14,0.65001 13.33333,-4.69988 L 532.66667,167.964 602,166.48272 c 74.88957,-1.59999 257.56712,-0.77332 325.33333,1.47221 104.89837,3.47599 180.52027,8.65436 244.07247,16.71339 l 25.4058,3.22171 44.5942,15.1789 c 52.0641,17.7215 49.2591,16.71364 46.5942,16.7413 -1.1,0.012 -3.2169,-0.47266 -4.7042,-1.0757 z"
         id="path3472" />
      <path
         style="fill:#75f875;stroke-width:1.33333"
         d="m 1169.3333,184.54744 c -58.732,-7.74299 -136.9673,-13.10795 -241.99997,-16.59504 -66.69477,-2.21428 -252.88826,-3.05568 -325.92028,-1.47281 -36.98949,0.80169 -67.44758,1.26365 -67.68466,1.02657 -0.23708,-0.23707 10.82705,-4.27295 24.58694,-8.9686 l 25.018,-8.53756 124,-0.42979 c 177.67095,-0.6158 304.48647,2.93598 395.33337,11.07226 20.4711,1.83341 21.0058,1.96486 56.5138,13.8958 19.7159,6.62468 36.1659,12.36366 36.5555,12.7533 0.8773,0.87726 1.7705,0.9701 -26.4027,-2.74413 z"
         id="path3470" />
      <path
         style="fill:#72f672;stroke-width:1.33333"
         d="m 1101.691,160.59851 c -88.557,-8.04752 -217.16737,-11.6421 -394.58043,-11.0283 -68.32252,0.23639 -124.12252,0.36051 -124,0.27583 0.12254,-0.0847 17.54868,-6.02301 38.7248,-13.19632 l 38.50204,-13.04236 118.16463,0.80444 c 112.29136,0.76446 163.41712,1.88193 225.78536,4.93503 l 27.6208,1.35212 44.3792,15.0991 c 50.9599,17.33804 49.129,16.68307 46.3793,16.59147 -1.1,-0.0367 -10.5391,-0.8426 -20.9757,-1.79101 z"
         id="path3468" />
      <path
         style="fill:#6fa4b9;stroke-width:1.33333"
         d="m 325.9578,1039.3333 c -1.9e-4,-42.5333 0.16836,-60.12614 0.37456,-39.0952 0.20619,21.031 0.20633,55.831 3.3e-4,77.3334 -0.20601,21.5023 -0.3747,4.2952 -0.37489,-38.2382 z"
         id="path3466" />
      <path
         style="fill:#69f669;stroke-width:1.33333"
         d="m 1034.9427,131.93726 c -9.06,-3.63626 -134.59411,-7.01314 -265.82785,-7.15079 -62.82017,-0.0659 -114.12017,-0.20647 -114,-0.3124 0.12014,-0.10592 40.88896,-14.13983 90.59734,-31.186459 l 90.37885,-30.99387 100.28781,34.398464 c 55.1583,18.919155 101.18785,34.884815 102.28785,35.479255 2.6986,1.45835 0.083,1.29387 -3.724,-0.2342 z"
         id="path3464" />
      <path
         style="fill:#929292;stroke-width:1.33333"
         d="m 1391.3239,612 c 0,-202.76667 0.1542,-285.71667 0.3428,-184.33333 0.1885,101.38333 0.1885,267.28333 0,368.66666 -0.1886,101.38334 -0.3428,18.43334 -0.3428,-184.33333 z"
         id="path3462" />
      <path
         style="fill:#659ab0;stroke-width:1.33333"
         d="m 325.33311,1216.267 0.66642,-100.9337 0.34212,99.9248 c 0.18818,54.9586 -0.11173,100.3788 -0.66642,100.9336 -0.55471,0.5549 -0.70867,-44.4112 -0.34212,-99.9247 z"
         id="path3460" />
      <path
         style="fill:#42e942;stroke-width:1.33333"
         d="m 841.33705,494.38024 0.004,-53.71357 88.32962,-30.48491 c 48.58101,-16.76669 163.62933,-56.45532 255.66263,-88.19695 92.0334,-31.74162 173.4834,-59.8532 181,-62.47017 L 1380,254.75649 v 35.15227 35.15227 l -23.6667,13.33772 c -86.4902,48.74296 -178.1902,91.21388 -279,129.21908 -25.8814,9.75726 -32.7939,11.839 -43.4889,13.0968 -3.5811,0.42116 -16.4111,2.29117 -28.5111,4.15557 -12.09997,1.86441 -24.09997,3.56305 -26.66663,3.77479 -2.56667,0.21172 -20.68102,5.227 -40.2541,11.14506 -19.57308,5.91807 -44.77308,13.21616 -56,16.218 -24.54489,6.56278 -33.05664,9.2417 -33.147,10.43244 -1.06036,13.97286 -2.27472,18.62552 -5.28132,20.2346 -2.6253,1.40503 -2.65088,0.8998 -2.6472,-52.29485 z"
         id="path3458" />
      <path
         style="fill:#508399;stroke-width:1.33333"
         d="m 60.638211,989.33333 c 0,-64.9 0.162644,-91.45 0.36143,-59 0.198787,32.45 0.198787,85.54997 0,117.99997 -0.198786,32.45 -0.36143,5.9 -0.36143,-58.99997 z m 541.108279,-110 c 0.008,-4.4 0.2564,-6.03925 0.55315,-3.64278 0.29675,2.39646 0.29063,5.99646 -0.0136,8 -0.30424,2.00353 -0.54703,0.0428 -0.53955,-4.35722 z"
         id="path3456" />
      <path
         style="fill:#3ce83c;stroke-width:1.33333"
         d="m 841.33333,581.81956 v -32.84711 l 3.33334,-3.08922 c 2.41214,-2.2355 3.37938,-4.58074 3.5,-8.48623 0.0917,-2.96835 0.31666,-5.997 0.5,-6.73033 0.18333,-0.73334 0.40833,-2.18511 0.5,-3.22618 0.1937,-2.19992 5.35833,-3.97589 33.2459,-11.43244 11.22692,-3.00184 36.42692,-10.29993 56,-16.218 19.57308,-5.91806 37.68743,-10.93334 40.2541,-11.14506 2.56666,-0.21174 14.56666,-1.91038 26.66663,-3.77479 12.1,-1.8644 24.93,-3.73441 28.5111,-4.15557 10.695,-1.2578 17.6075,-3.33954 43.4889,-13.0968 105.8373,-39.90056 192.0982,-80.27475 293.6887,-137.46012 l 9.022,-5.07851 -0.3553,35.62645 -0.3554,35.62646 -16.6666,9.99756 c -45.2217,27.12638 -120.7409,67.02597 -170.913,90.29957 -19.5437,9.06583 -27.3026,11.97169 -36,13.48279 -6.0979,1.05942 -17.087,3.13497 -24.4204,4.6123 -7.3333,1.47734 -18.0354,3.63028 -23.7823,4.78434 -5.747,1.15404 -16.247,4.47594 -23.3334,7.382 -55.6855,22.83614 -170.22753,62.25316 -225.58797,77.63092 -4.6382,1.28837 -8.80834,3.54821 -11.24946,6.09618 -2.13349,2.2269 -4.36682,4.0489 -4.96296,4.0489 -0.59613,0 -1.08388,-14.7812 -1.08388,-32.84711 z m -14.62141,-99.06833 c -0.76005,-1.42016 -2.01201,-7.27016 -2.78216,-13 -2.09431,-15.58172 -1.29112,-14.60775 -15.68244,-19.01708 -7.10269,-2.17619 -14.71399,-4.32355 -16.91399,-4.77191 -8.52184,-1.73676 -72.29216,-18.11675 -122.66666,-31.50804 -32.3505,-8.59989 -98.96051,-27.49832 -121.16399,-34.37636 -7.24019,-2.24281 -13.99019,-4.07784 -15,-4.07784 -1.0098,0 -1.83601,-0.53941 -1.83601,-1.19871 0,-0.65929 -2.55,-2.51056 -5.66667,-4.11392 -3.11667,-1.60337 -7.76667,-4.89873 -10.33333,-7.32304 -2.56667,-2.4243 -6.16667,-4.82074 -8,-5.32542 -6.67856,-1.83848 -11.52926,-4.73006 -21.14814,-12.60671 -9.4876,-7.76915 -10.66556,-8.30937 -35.33333,-16.20408 -29.47577,-9.43347 -89.62479,-30.41469 -128.12736,-44.69349 -14.63485,-5.42738 -27.38485,-9.86796 -28.33333,-9.86796 -1.24622,0 -1.72451,-2.5886 -1.72451,-9.33334 C 292,260.2 292.55373,256 293.23052,256 c 1.27119,0 117.10377,39.88087 362.10281,124.67109 77.73334,26.90226 148.68238,51.40672 157.66455,54.45439 l 16.3312,5.54119 0.003,22.33333 c 10e-4,12.28333 -0.27678,22.33333 -0.61764,22.33333 -0.34087,0 -1.2416,-1.16194 -2.00166,-2.5821 z m 553.82778,-207.4179 c 0,-11.73333 0.2056,-16.35484 0.4534,-10.27002 0.2476,6.08482 0.2461,15.68482 0,21.33333 -0.2494,5.64852 -0.452,0.67003 -0.4503,-11.06331 z"
         id="path3454" />
      <path
         style="fill:#39e539;stroke-width:1.33333"
         d="m 841.33333,644.28855 v -28.25266 l 5,-4.68416 c 3.10731,-2.91101 7.77595,-5.47781 12.33334,-6.7808 62.46402,-17.85896 169.92843,-54.86994 225.55093,-77.68026 7.0864,-2.90606 17.5864,-6.22796 23.3334,-7.382 5.7469,-1.15406 16.449,-3.307 23.7823,-4.78434 7.3334,-1.47733 18.3225,-3.55288 24.4204,-4.6123 8.6974,-1.5111 16.4563,-4.41696 36,-13.48279 55.2296,-25.61965 152.95,-77.80895 184.9467,-98.77397 l 3.3845,-2.21764 -0.3757,16.40506 -0.3759,16.40507 -8.6666,5.30584 C 1229.4167,520.22853 1057.2686,597.73571 886,651.96765 c -30.89331,9.78232 -35.21091,11.49942 -39.66667,15.77535 l -5,4.7982 z M 825,552.48268 c -2.01667,-2.91097 -3.66667,-6.53696 -3.66667,-8.05776 0,-2.87217 -3.22421,-6.36992 -5.90394,-6.40483 -2.0428,-0.0267 -19.97071,-9.05806 -20.5405,-10.34758 -0.24445,-0.55322 -1.18174,-1.00584 -2.08289,-1.00584 -0.90115,0 -4.00115,-1.12103 -6.88889,-2.49119 -2.88775,-1.37015 -7.65044,-3.58888 -10.58378,-4.93052 -2.93333,-1.34164 -5.63333,-2.77157 -6,-3.17761 -0.36666,-0.40604 -2.46666,-1.63635 -4.66666,-2.73402 -2.2,-1.09766 -4.3,-2.30128 -4.66667,-2.6747 -1.31137,-1.33556 -16.03847,-8.97882 -28.66667,-14.87778 -3.66666,-1.7128 -6.86666,-3.56418 -7.1111,-4.11418 -0.24446,-0.55 -1.04574,-1 -1.78066,-1 -0.7349,0 -6.6817,-3.6 -13.21512,-8 -6.5334,-4.4 -12.33212,-8.01335 -12.88601,-8.02966 C 695.78653,474.62071 693.83333,473.43405 692,472 c -1.83333,-1.43405 -4.3224,-2.62071 -5.53127,-2.63701 -2.77509,-0.0375 -15.68628,-6.78864 -21.58036,-11.28428 -2.46038,-1.87663 -5.16678,-3.41204 -6.01422,-3.41204 -0.84746,0 -1.54082,-0.6 -1.54082,-1.33334 0,-0.73333 -0.91882,-1.33333 -2.04184,-1.33333 -1.12302,0 -2.38721,-0.9 -2.80932,-2 -0.42212,-1.1 -1.53909,-2 -2.48217,-2 -0.94308,0 -2.02625,-0.81192 -2.40705,-1.80425 -0.72402,-1.88675 -16.80527,-10.17396 -19.84227,-10.2254 -0.96288,-0.0163 -3.25068,-1.20296 -5.08401,-2.63702 -1.83334,-1.43405 -4.10216,-2.6207 -5.04184,-2.63701 -0.9397,-0.0163 -2.05388,-0.92965 -2.47599,-2.02965 -0.42212,-1.1 -1.32947,-2 -2.01635,-2 -0.68688,0 -2.86656,-1.5 -4.84373,-3.33334 C 606.3116,421.5 603.93779,420 603.01363,420 c -0.92416,0 -1.6803,-0.6 -1.6803,-1.33333 0,-0.73334 -0.83581,-1.33334 -1.85734,-1.33334 -1.02155,0 -2.20271,-0.9 -2.62483,-2 -0.42211,-1.1 -1.68629,-2 -2.80932,-2 -1.12301,0 -2.04184,-0.6 -2.04184,-1.33333 0,-0.73333 -1.2,-1.33333 -2.66667,-1.33333 -1.46666,0 -2.66666,-0.6 -2.66666,-1.33334 0,-0.73333 -0.87019,-1.33333 -1.93375,-1.33333 -1.06356,0 -2.41356,-0.75097 -3,-1.66884 -0.58644,-0.91787 -2.86625,-2.54052 -5.06625,-3.60591 -8.24342,-3.992 -21.43599,-11.93348 -24.27759,-14.61428 -1.61933,-1.52769 -3.58816,-2.77764 -4.37517,-2.77764 -0.78702,0 -1.7763,-0.9 -2.1984,-2 -0.42212,-1.1 -1.5391,-2 -2.48218,-2 -0.94308,0 -2.0296,-0.82062 -2.41448,-1.8236 -0.51674,-1.34662 1.97432,-0.97264 9.52402,1.4299 16.7309,5.32424 85.28826,24.75916 118.2238,33.51457 50.3745,13.39129 114.14482,29.77128 122.66666,31.50804 2.2,0.44836 9.8113,2.59572 16.91399,4.77191 14.40844,4.41458 13.58381,3.40646 15.70839,19.20362 0.78441,5.83244 2.32508,11.97631 3.42372,13.65303 1.67233,2.55231 1.93969,8.83883 1.64237,38.61657 l -0.35513,35.56798 z m 555.5397,-235.81601 c 0,-11.73334 0.2056,-16.35484 0.4534,-10.27003 0.2476,6.08483 0.2461,15.68483 0,21.33333 -0.2494,5.64852 -0.452,0.67003 -0.4503,-11.0633 z"
         id="path3452" />
      <path
         style="fill:#39e239;stroke-width:1.33333"
         d="m 824.85013,577.99731 c -1.22818,-3.20059 -7.55057,-5.36747 -39.20041,-13.43526 -49.42025,-12.59758 -111.97413,-30.15224 -175.80349,-49.33614 -51.70768,-15.54075 -53.62016,-16.18579 -58.5129,-19.73508 -2.2,-1.59592 -7,-4.2999 -10.66666,-6.00884 -7.82839,-3.64862 -8.72107,-4.10472 -20.41327,-10.43011 C 515.34736,476.39775 508.03333,472.481 504,470.348 c -4.03333,-2.133 -9.43333,-5.10585 -12,-6.60635 -2.56667,-1.50048 -10.30433,-5.67776 -17.19483,-9.28284 -6.89048,-3.60506 -14.1831,-7.7331 -16.20582,-9.17341 -2.02272,-1.44031 -4.34698,-2.61873 -5.165,-2.61873 -0.81804,0 -3.72542,-1.40338 -6.46084,-3.1186 -2.73543,-1.71524 -16.37351,-7.19106 -30.30684,-12.16848 -13.93334,-4.97743 -45.43334,-16.84651 -70,-26.37574 -24.56667,-9.52924 -46.82384,-17.95261 -49.4604,-18.7186 l -4.79372,-1.39272 -0.87295,-29.99508 c -1.17885,-40.5068 -1.10528,-96.23006 0.12707,-96.23389 0.55,-10e-4 0.8026,4.49829 0.56133,10 -0.34217,7.80244 -0.0361,10.00311 1.39117,10.00311 1.00642,0 13.80382,4.44058 28.43867,9.86796 38.50257,14.2788 98.65159,35.26002 128.12736,44.69349 24.66777,7.89471 25.84573,8.43493 35.33333,16.20408 9.61888,7.87665 14.46958,10.76823 21.14814,12.60671 1.83333,0.50468 5.43333,2.90112 8,5.32542 2.56666,2.42431 7.21666,5.71967 10.33333,7.32304 3.11667,1.60336 5.66667,3.45463 5.66667,4.11392 0,0.6593 1.16458,1.19871 2.58797,1.19871 1.42339,0 2.96485,0.60979 3.42547,1.35508 0.46061,0.74529 1.40026,1.00727 2.0881,0.58216 0.68784,-0.42511 1.61058,0.16511 2.05052,1.31159 0.43995,1.14648 1.57152,2.0845 2.5146,2.0845 0.94308,0 2.06006,0.9 2.48218,2 0.4221,1.1 1.41138,2 2.1984,2 0.78701,0 2.75584,1.24995 4.37517,2.77764 2.8416,2.6808 16.03417,10.62228 24.27759,14.61428 2.2,1.06539 4.47981,2.68804 5.06625,3.60591 0.58644,0.91787 1.93644,1.66884 3,1.66884 1.06356,0 1.93375,0.6 1.93375,1.33333 0,0.73334 1.2,1.33334 2.66666,1.33334 1.46667,0 2.66667,0.6 2.66667,1.33333 0,0.73333 0.91883,1.33333 2.04184,1.33333 1.12303,0 2.38721,0.9 2.80932,2 0.42212,1.1 1.60328,2 2.62483,2 1.02153,0 1.85734,0.6 1.85734,1.33334 0,0.73333 0.75614,1.33333 1.6803,1.33333 0.92416,0 3.29797,1.5 5.27513,3.33333 1.97717,1.83334 4.15685,3.33334 4.84373,3.33334 0.68688,0 1.59423,0.9 2.01635,2 0.42211,1.1 1.53629,2.01334 2.47599,2.02965 0.93968,0.0163 3.2085,1.20296 5.04184,2.63701 1.83333,1.43406 4.12113,2.62071 5.08401,2.63702 3.037,0.0515 19.11825,8.33865 19.84227,10.2254 C 647.97375,447.18808 649.05692,448 650,448 c 0.94308,0 2.06005,0.9 2.48217,2 0.42211,1.1 1.6863,2 2.80932,2 1.12302,0 2.04184,0.6 2.04184,1.33333 0,0.73334 0.69336,1.33334 1.54082,1.33334 0.84744,0 3.55384,1.53541 6.01422,3.41204 5.89408,4.49564 18.80527,11.24684 21.58036,11.28428 1.20887,0.0163 3.69794,1.20296 5.53127,2.63701 1.83333,1.43405 3.78653,2.62071 4.34044,2.63701 0.55389,0.0163 6.35261,3.62966 12.88601,8.02966 6.53342,4.4 12.48022,8 13.21512,8 0.73492,0 1.5362,0.45 1.78066,1 0.24444,0.55 3.44444,2.40138 7.1111,4.11418 12.6282,5.89896 27.3553,13.54222 28.66667,14.87778 0.36667,0.37342 2.46667,1.57704 4.66667,2.6747 2.2,1.09767 4.3,2.32798 4.66666,2.73402 0.36667,0.40604 3.06667,1.83597 6,3.17761 2.93334,1.34164 7.69603,3.56037 10.58378,4.93052 2.88774,1.37016 5.98774,2.49119 6.88889,2.49119 0.90115,0 1.83844,0.45 2.08289,1 0.72664,1.63494 19.88378,11.09186 21.03179,10.38234 1.71939,-1.06262 4.97341,3.59858 6.01607,8.61766 1.21229,5.83568 4.47932,32.52834 4.04604,33.0575 -0.17602,0.21496 -0.68571,-0.56213 -1.13266,-1.72686 z M 829.54385,444 c 0,-1.83333 0.30264,-2.58333 0.67252,-1.66667 0.36988,0.91667 0.36988,2.41667 0,3.33334 -0.36988,0.91666 -0.67252,0.16666 -0.67252,-1.66667 z"
         id="path3450" />
      <path
         style="fill:#35e535;stroke-width:1.33333"
         d="M 841.33333,714.93727 V 672.5412 l 5,-4.7982 c 4.45576,-4.27593 8.77336,-5.99303 39.66667,-15.77535 169.2753,-53.60078 336.1512,-128.40437 478.3333,-214.41714 L 1380,428.07299 v 46.97321 46.97321 l -5.6667,3.49903 c -3.1166,1.92445 -18.2806,11.30067 -33.6978,20.83601 -50.3532,31.1429 -106.1306,62.38999 -155.0618,86.86708 -26.8707,13.44168 -31.0246,14.66856 -81.5737,24.09292 -21.9706,4.0962 -25.0854,5.07503 -53.3333,16.75982 -41.5354,17.18116 -65.87229,26.84148 -104.6667,41.54649 -31.65663,11.99945 -33.97048,12.66912 -46,13.31339 -6.96667,0.37312 -17.55109,1.38742 -23.52095,2.25402 -6.18781,0.89824 -12.26316,1.10602 -14.13136,0.48328 -5.67909,-1.89302 -9.52524,0.6547 -11.36336,7.52724 -0.90805,3.3951 -1.651,7.55971 -1.651,9.2547 0,2.79542 -4.85526,8.87994 -7.08593,8.87994 -0.50273,0 -0.91407,-19.07822 -0.91407,-42.39606 z m -14.34721,-132.2706 c -2.19153,-14.7793 -4.07073,-31.22442 -3.62736,-31.74344 0.19268,-0.22555 1.63343,1.39185 3.20165,3.59422 2.62279,3.68338 2.82147,5.42612 2.47879,21.74343 L 828.66667,594 Z m 553.58898,-214 c 8e-4,-17.6 0.1905,-24.61559 0.4216,-15.5902 0.2309,9.02538 0.2302,23.42538 0,32 -0.2319,8.57461 -0.421,1.1902 -0.42,-16.4098 z"
         id="path3448" />
      <path
         style="fill:#6f6f6f;stroke-width:1.33333"
         d="m 610.96875,1164.412 c -0.16615,-37.54 0.14792,-68.5331 0.69792,-68.8735 0.90866,-0.5624 0.89317,48.9689 -0.0352,112.4615 -0.19836,13.5667 -0.4966,-6.0479 -0.66274,-43.588 z"
         id="path3446" />
      <path
         style="fill:#35e135;stroke-width:1.33333"
         d="m 849.33333,748.1824 c 0,-1.54595 0.74295,-5.58861 1.651,-8.98371 1.83812,-6.87254 5.68427,-9.42026 11.36336,-7.52724 1.86067,0.62023 7.96852,0.42179 14.13136,-0.4591 14.48204,-2.07 31.92514,-3.07859 30.59192,-1.76886 -0.58904,0.57866 -13.07097,5.06883 -27.73764,9.97816 -14.66666,4.90934 -27.41666,9.5213 -28.33333,10.2488 -1.22457,0.97187 -1.66667,0.57715 -1.66667,-1.48805 z m -24.20386,-85.55099 c -2.86998,-4.03248 -4.88206,-5.28693 -10.66667,-6.65022 C 793.27377,650.98747 709.52288,627.42113 660.66667,612.70511 540.84244,576.61273 432.60453,538.43639 325.37041,494.44352 l -32.95426,-13.51949 -0.87186,-32.79535 C 291.06477,430.09124 290.80431,398.53333 290.96547,378 c 0.16752,-21.34251 0.46609,-28.73823 0.69708,-17.26657 l 0.40404,20.06677 4.9667,1.43888 c 2.7317,0.79139 25.06671,9.23553 49.63338,18.76477 24.56666,9.52923 56.06666,21.39831 70,26.37574 13.93333,4.97742 27.57141,10.45324 30.30684,12.16848 2.73542,1.71522 5.6428,3.1186 6.46084,3.1186 0.81802,0 3.14228,1.17842 5.165,2.61873 2.02272,1.44031 9.31534,5.56835 16.20582,9.17341 6.8905,3.60508 14.62816,7.78236 17.19483,9.28284 2.56667,1.5005 7.96667,4.47335 12,6.60635 4.03333,2.133 11.34736,6.04975 16.2534,8.70388 11.6922,6.32539 12.58488,6.78149 20.41327,10.43011 3.66666,1.70894 8.46666,4.41292 10.66666,6.00884 2.2,1.59593 6.9308,3.88368 10.5129,5.0839 13.8997,4.65726 91.35998,27.64898 128.15377,38.03854 54.638,15.42828 58.46623,16.46901 86,23.38001 37.32044,9.36747 46.36945,12.29769 48.53116,15.71524 3.75472,5.93601 4.98507,20.99245 4.55639,55.75884 l -0.42088,34.13404 z m 4.77021,-187.96474 c 0,-15.76667 0.19288,-22.21667 0.4286,-14.33334 0.23573,7.88334 0.23573,20.78334 0,28.66667 -0.23572,7.88333 -0.4286,1.43333 -0.4286,-14.33333 z M 840.33624,446 c 0.0148,-2.93333 0.28785,-3.97633 0.60677,-2.31779 0.31892,1.65855 0.30682,4.05855 -0.0269,5.33334 -0.33372,1.27478 -0.59467,-0.0823 -0.57987,-3.01555 z"
         id="path3444" />
      <path
         style="fill:#46778e;stroke-width:1.33333"
         d="m 60.613513,1166 c 2.92e-4,-33 0.17374,-46.309 0.385442,-29.5756 0.2117,16.7334 0.211461,43.7334 -5.31e-4,60 C 60.786431,1212.691 60.613221,1199 60.613513,1166 Z M 601.96833,991.33333 c 1.1e-4,-57.93333 0.16419,-81.4387 0.36464,-52.23416 0.20046,29.20455 0.20038,76.60453 -1.8e-4,105.33333 -0.20055,28.7288 -0.36456,4.8342 -0.36446,-53.09917 z"
         id="path3442" />
      <path
         style="fill:#31e431;stroke-width:1.33333"
         d="M 841.56769,793.33333 841.58449,758 l 5.54107,-4.80617 c 4.54107,-3.93879 10.70757,-6.54764 34.1688,-14.45571 47.28835,-15.93945 102.96776,-37.19721 169.37234,-64.66439 28.247,-11.68393 31.3634,-12.6632 53.3333,-16.75928 50.7899,-9.46926 54.6105,-10.60454 82.2391,-24.43742 55.6627,-27.86878 116.3389,-62.27382 174.7454,-99.08543 9.7082,-6.11871 17.9582,-11.12493 18.3334,-11.12493 0.3752,0 0.6821,21.23964 0.6821,47.1992 v 47.19918 l -29.6667,19.2476 c -34.457,22.35559 -68.579,43.34591 -99.6666,61.31051 -21.5458,12.45068 -23.4821,13.25544 -54,22.44441 -2.2,0.66242 -14.8,3.8755 -28,7.14016 -72.6774,17.97486 -131.4237,28.14506 -235.33337,40.74108 -16.88716,2.04708 -41.35844,3.99647 -58.88306,4.69063 -8.55235,0.33876 -16.35235,0.78348 -17.33334,0.98825 -4.38418,0.91516 -6.7918,7.94208 -9.31298,27.1812 -1.39672,10.65824 -3.37504,21.28643 -4.39628,23.6182 -1.64632,3.75898 -1.8549,0.23415 -1.83998,-31.09376 z m 539.01591,-358 c -7e-4,-19.8 0.1848,-28.08586 0.4124,-18.41305 0.2275,9.67283 0.228,25.87283 0,36 -0.2268,10.12719 -0.4129,2.21305 -0.4137,-17.58695 z"
         id="path3440" />
      <path
         style="fill:#31e131;stroke-width:1.33333"
         d="m 841.33333,847.14912 c 0,-12.37004 0.57364,-18.86304 1.95956,-22.18 1.07776,-2.57944 3.10503,-13.43091 4.50504,-24.11436 2.52728,-19.28555 4.93199,-26.31132 9.319,-27.22707 0.98099,-0.20477 8.78099,-0.64949 17.33334,-0.98825 17.52462,-0.69416 41.9959,-2.64355 58.88306,-4.69063 70.21647,-8.5117 130.29537,-17.67886 171.16957,-26.11793 8.7099,-1.79828 16.0635,-3.04229 16.3413,-2.76447 0.7024,0.7024 -39.0337,19.76219 -73.0919,35.05923 -70.6531,31.73339 -119.55578,51.63608 -190.01189,77.33212 -3.0761,1.12189 -8.0261,4.54668 -11,7.61064 l -5.40708,5.57084 z m -13.63862,-88.17561 c -0.53459,-2.3979 -1.92668,-12.59718 -3.09356,-22.66504 -1.48931,-12.84995 -2.78102,-19.0339 -4.3343,-20.75026 -2.55076,-2.81856 -10.09193,-6.22488 -13.7811,-6.22488 -1.38707,0 -3.56379,-0.5384 -4.83718,-1.19645 -3.10432,-1.60424 -14.0476,-6.12729 -14.9387,-6.17444 -0.39043,-0.0207 -4.23238,-1.67065 -8.53766,-3.66667 -4.30529,-1.99601 -8.24896,-3.6291 -8.76372,-3.6291 -0.51476,0 -4.65181,-1.8 -9.19345,-4 -4.54164,-2.2 -8.69796,-3.99678 -9.23628,-3.99283 -2.03713,0.0149 -25.36311,-9.41153 -39.64543,-16.02145 C 696.33284,663.71011 687.92191,660 687.18397,660 c -0.64113,0 -14.77564,-5.87329 -22.5173,-9.35657 C 653.10316,645.44053 640.43,639.62867 632,635.6626 c -5.5,-2.58759 -15.4,-6.96128 -22,-9.71933 -6.6,-2.75804 -20.4,-9.08802 -30.66667,-14.0666 -10.26666,-4.97859 -21.66666,-10.2346 -25.33333,-11.68003 -3.66667,-1.44543 -19.56667,-8.89305 -35.33333,-16.55027 -15.76667,-7.65722 -30.16667,-14.39056 -32,-14.96296 -3.09418,-0.96608 -35.43418,-16.32637 -56.43952,-26.80668 -5.0084,-2.49886 -9.96654,-4.5434 -11.0181,-4.5434 -1.05154,0 -2.95376,-0.58961 -4.22714,-1.31024 -2.53226,-1.43305 -26.54284,-12.6963 -40.31524,-18.91168 -10.60743,-4.78705 -19.96879,-9.58706 -19.53787,-10.018 0.17596,-0.17596 15.59397,5.67902 34.26224,13.01106 73.9776,29.055 181.12351,65.50702 277.27563,94.3317 51.97518,15.58124 79.76776,23.40626 149.29334,42.03366 4.52075,1.2112 6.85943,2.8767 9.68446,6.89682 l 3.72445,5.30002 L 829.01779,716 c -0.19312,26.03333 -0.78851,45.37141 -1.32308,42.97351 z M 829.88424,526 c 10e-4,-13.2 0.20093,-18.41965 0.44341,-11.59923 0.24248,6.82043 0.24134,17.62043 -0.003,24 C 830.08111,544.78035 829.88272,539.2 829.88412,526 Z M 342.66667,503.12556 c -4.76667,-1.90632 -9.26667,-4.03235 -10,-4.72449 -1.27815,-1.20636 6.82406,1.71601 16.66666,6.01146 7.84392,3.4232 2.56068,2.4033 -6.66666,-1.28697 z m -16,-7.12556 c -1.1,-0.71088 -1.4,-1.29249 -0.66667,-1.29249 0.73333,0 2.23333,0.58161 3.33333,1.29249 1.1,0.71088 1.4,1.29249 0.66667,1.29249 -0.73333,0 -2.23333,-0.58161 -3.33333,-1.29249 z M 320,493.33333 c -1.1,-0.71088 -1.4,-1.29249 -0.66667,-1.29249 0.73334,0 2.23334,0.58161 3.33334,1.29249 1.1,0.71088 1.4,1.2925 0.66666,1.2925 -0.73333,0 -2.23333,-0.58162 -3.33333,-1.2925 z m -28,-8.04764 c 0,-4.0532 0.52921,-4.43141 4,-2.85864 1.66504,0.7545 1.49756,1.40074 -1,3.85864 l -3,2.95235 z m 1088.1052,-12.73013 c 0.064,-1.55327 0.38,-1.8692 0.8056,-0.80556 0.3852,0.96249 0.3379,2.11251 -0.1053,2.55556 -0.4431,0.44305 -0.7583,-0.34445 -0.7004,-1.75 z"
         id="path3438" />
      <path
         style="fill:#31de31;stroke-width:1.33333"
         d="m 827.611,837.70392 c -0.58061,-0.89617 -1.63532,-6.89617 -2.3438,-13.33333 -1.27476,-11.5823 -2.21689,-17.62078 -3.42061,-21.9239 C 821.24633,800.30085 805.88035,792 802.50837,792 c -0.91281,0 -6.20061,-1.51187 -11.75068,-3.35971 -5.55006,-1.84784 -13.09102,-4.27674 -16.75769,-5.39758 -3.66667,-1.12083 -8.76667,-2.86192 -11.33333,-3.8691 -4.48734,-1.76084 -16.4514,-6.15926 -49.33334,-18.13673 C 704.9,758.16499 696.2,754.88408 694,753.946 691.8,753.00791 671.03229,746.17777 647.84953,738.76791 542.18025,704.99307 420.84873,659.33103 326.53105,617.84256 309.22313,610.22915 294.46972,604 293.74569,604 c -1.73228,0 -3.16832,-63.0612 -2.77554,-121.88359 0.2009,-30.08893 0.43604,-36.46352 0.6957,-18.8612 0.35916,24.34686 0.56478,26.34222 2.43879,23.66667 2.21436,-3.16144 4.61144,-3.64308 8.24679,-1.65701 1.27338,0.69568 7.41524,3.46894 13.64857,6.1628 6.23333,2.69386 14.93333,6.53208 19.33333,8.52938 4.4,1.99731 10.4,4.39618 13.33334,5.33084 2.93333,0.93466 8.03333,3.10188 11.33333,4.81606 3.3,1.71418 9.9,4.87214 14.66667,7.01768 13.37761,6.02144 37.73444,17.44093 40.31524,18.90146 1.27338,0.72063 3.1756,1.31024 4.22714,1.31024 1.05156,0 6.0097,2.04454 11.0181,4.5434 21.00534,10.48031 53.34534,25.8406 56.43952,26.80668 1.83333,0.5724 16.23333,7.30574 32,14.96296 15.76666,7.65722 31.66666,15.10484 35.33333,16.55027 3.66667,1.44543 15.06667,6.70144 25.33333,11.68003 C 589.6,616.85525 603.4,623.18523 610,625.94327 c 6.6,2.75805 16.5,7.13174 22,9.71933 8.43,3.96607 21.10316,9.77793 32.66667,14.98083 7.74166,3.48328 21.87617,9.35657 22.5173,9.35657 0.73794,0 9.14887,3.71011 24.14936,10.65239 14.28232,6.60992 37.6083,16.03637 39.64543,16.02145 0.53832,-0.004 4.69464,1.79283 9.23628,3.99283 4.54164,2.2 8.67869,4 9.19345,4 0.51476,0 4.45843,1.63309 8.76372,3.6291 4.30528,1.99602 8.14723,3.64602 8.53766,3.66667 0.8911,0.0472 11.83438,4.5702 14.9387,6.17444 1.27339,0.65805 3.45011,1.19645 4.83718,1.19645 3.68917,0 11.23034,3.40632 13.7811,6.22488 1.55866,1.72228 2.85144,7.9623 4.37356,21.11007 1.18847,10.26579 2.7519,21.06505 3.47428,23.99839 1.54687,6.28126 1.06839,79.46374 -0.50369,77.03725 z m 2.31308,-249.03725 c -6e-4,-22 0.18207,-31.18708 0.40592,-20.41575 0.22385,10.77135 0.22435,28.77135 10e-4,40 -0.22326,11.22867 -0.40641,2.41575 -0.40701,-19.58425 z m 10.65399,-105.33334 c -8.2e-4,-18.33333 0.18697,-26.01826 0.4173,-17.07762 0.23034,8.94065 0.231,23.94065 10e-4,33.33333 -0.22952,9.39269 -0.41798,2.07763 -0.41879,-16.25571 z"
         id="path3436" />
      <path
         style="fill:#2de12d;stroke-width:1.33333"
         d="m 841.44209,925.31963 -0.10876,-60.68039 5.40708,-5.57084 c 2.9739,-3.06396 7.9239,-6.48875 11,-7.61064 86.19788,-31.43723 165.22449,-64.59823 243.55339,-102.19944 15.1905,-7.29208 28.4637,-13.25841 29.496,-13.25853 2.076,-2.6e-4 44.5708,-10.21868 60.8561,-14.63367 29.5553,-8.01252 36.9332,-10.97927 59.0208,-23.73292 29.3384,-16.94043 73.7083,-44.28027 104,-64.08275 l 24.6666,-16.12525 0.3475,61.62073 c 0.1911,33.8914 0.089,62.29356 -0.2257,63.11591 -1.5807,4.12392 -87.0676,60.81748 -98.6732,65.43853 -32.5653,12.96667 -120.9681,41.73296 -128.2512,41.73296 -0.964,0 -11.2278,5.1172 -22.8084,11.37156 -11.5806,6.25438 -40.5556,21.04204 -64.389,32.8615 -48.2142,23.91046 -43.8226,22.49436 -87.99997,28.37616 -13.56666,1.80628 -33.06666,4.54161 -43.33333,6.07854 -20.17729,3.02055 -60.49032,6.402 -73.20843,6.14071 L 852.91648,934 l -1.69907,5.33333 c -0.93448,2.93334 -2.60277,12.59463 -3.70732,21.46955 -1.10453,8.87492 -2.89721,18.17492 -3.98373,20.66667 -1.78443,4.09228 -1.98601,-1.33844 -2.08427,-56.14992 z M 1380.6107,530.66667 c 0,-31.16667 0.1745,-43.91667 0.3878,-28.33334 0.2134,15.58334 0.2134,41.08334 0,56.66667 -0.2133,15.58333 -0.3878,2.83333 -0.3878,-28.33333 z"
         id="path3434" />
      <path
         style="fill:#2ddc2d;stroke-width:1.33333"
         d="m 841.33333,994.24115 c 0,-3.4789 1.13958,-9.75635 2.53239,-13.94988 1.39281,-4.19354 3.26081,-14.2246 4.15113,-22.29127 0.89032,-8.06667 2.38444,-16.76667 3.32028,-19.33333 1.69156,-4.63939 1.74719,-4.66572 9.51552,-4.50426 12.3401,0.2565 54.13814,-3.24816 73.14735,-6.13321 9.53333,-1.44689 26.93333,-3.86225 38.66667,-5.36747 11.73333,-1.50521 26.61514,-3.68805 33.07073,-4.85076 6.4555,-1.1627 11.9614,-1.88997 12.2352,-1.61616 1.2031,1.20314 -82.96471,38.93855 -127.30593,57.07576 -32.86472,13.44288 -37.32338,15.6356 -43,21.14694 l -6.33334,6.14889 z m -14.66666,-97.42751 c -1.61528,-3.34925 -3.5389,-4.62932 -10,-6.65448 -4.4,-1.37913 -11.9,-3.86085 -16.66667,-5.51495 -4.76667,-1.65408 -14.66667,-4.90905 -22,-7.23325 -7.33333,-2.32421 -15.73333,-5.03584 -18.66667,-6.02584 -15.60237,-5.26583 -37.15332,-11.55336 -45.75464,-13.34903 -5.36505,-1.12004 -10.88324,-2.64044 -12.26265,-3.37868 -1.37941,-0.73824 -4.18983,-1.43129 -6.24536,-1.5401 -2.05555,-0.1088 -9.43735,-1.81683 -16.40401,-3.79556 -16.50267,-4.68723 -34.23872,-4.78515 -41.60954,-0.22974 -2.58788,1.5994 -6.05266,2.90799 -7.69954,2.90799 -3.70382,0 -45.00018,-14.51067 -86.69092,-30.46136 -85.01591,-32.52669 -165.97806,-66.0684 -216,-89.48636 -12.83334,-6.00797 -25.78807,-11.87167 -28.78831,-13.03041 l -5.45497,-2.10682 -0.87623,-44.79086 C 291.06524,647.48923 290.80624,610.53333 290.9716,590 c 0.25325,-31.44723 0.36256,-33.28664 0.69332,-11.66667 0.27405,17.91406 0.84641,25.66667 1.89492,25.66667 0.82625,0 15.66329,6.22915 32.97121,13.84256 94.31768,41.48847 215.6492,87.15051 321.31848,120.92535 23.18276,7.40986 43.95047,14.24 46.15047,15.17809 2.2,0.93808 10.9,4.21899 19.33333,7.29088 32.88194,11.97747 44.846,16.37589 49.33334,18.13673 2.56666,1.00718 7.66666,2.74827 11.33333,3.8691 3.66667,1.12084 11.20763,3.54974 16.75769,5.39758 5.55007,1.84784 10.83787,3.35971 11.75068,3.35971 3.37198,0 18.73796,8.30085 19.33822,10.44669 1.20576,4.31042 2.14668,10.34911 3.43277,22.03095 0.71517,6.49603 1.93112,12.57105 2.70212,13.50005 0.9144,1.10178 1.27723,12.34528 1.04351,32.336 -0.33135,28.34026 -0.50886,30.3348 -2.35832,26.49995 z m 3.25952,-228.14697 c -5.6e-4,-22.73334 0.18124,-32.22078 0.40401,-21.08322 0.22276,11.13758 0.22323,29.73758 10e-4,41.33334 -0.2222,11.59577 -0.40447,2.48321 -0.40504,-20.25012 z m 10.64382,-123.33334 c 0,-16.5 0.1914,-23.25 0.42534,-15 0.23392,8.25 0.23392,21.75 0,30 -0.23394,8.25 -0.42534,1.5 -0.42534,-15 z"
         id="path3432" />
      <path
         style="fill:#2cda2c;stroke-width:1.33333"
         d="m 848,1033.6314 c 0,-3.7086 3.09813,-15.8951 4.67743,-18.3986 1.7192,-2.7253 10.35416,-4.5833 29.98924,-6.4531 3.3,-0.3142 10.2,-0.9921 15.33333,-1.5064 5.13333,-0.5142 9.03333,-0.6561 8.66667,-0.3153 C 906.3,1007.2989 894.3,1012.5615 880,1018.6527 c -14.3,6.0912 -27.35,12.2908 -29,13.7768 -1.65,1.4861 -3,2.027 -3,1.2019 z M 613.10904,938.33333 c -0.12333,-0.18333 -0.57337,-18.00166 -1,-39.59628 l -0.77571,-39.26296 -139.93849,-48.42908 -139.93851,-48.42908 -19.58118,6.54219 -19.58119,6.54219 -0.90648,-34.85015 C 290.88892,721.68257 290.68719,694.9 290.93917,681.33333 l 0.45818,-24.66666 0.30133,30.04573 0.30132,30.04573 5.66667,2.18528 c 3.11666,1.2019 16.16666,7.1009 29,13.10887 50.02194,23.41796 130.98409,56.95967 216,89.48636 C 584.35741,837.48933 625.65377,852 629.35759,852 c 1.64688,0 5.11166,-1.30859 7.69954,-2.90799 7.37082,-4.55541 25.10687,-4.45749 41.60954,0.22974 6.96666,1.97873 14.34846,3.68673 16.40401,3.79556 2.05553,0.1088 4.86595,0.80186 6.24536,1.5401 1.37941,0.73824 6.8976,2.25864 12.26265,3.37868 8.60132,1.79567 30.15227,8.0832 45.75464,13.34903 2.93334,0.99 11.33334,3.70163 18.66667,6.02584 7.33333,2.3242 17.23333,5.57917 22,7.23325 4.76667,1.6541 12.26667,4.13582 16.66667,5.51495 11.17126,3.50151 12.66185,6.73905 12.6646,27.50751 10e-4,14.15864 -0.92607,18.22502 -3.28711,14.40478 -1.06009,-1.71526 -19.41845,-7.20437 -38.04416,-11.37512 -8.43333,-1.88842 -17.43333,-4.01458 -20,-4.72478 C 744.01681,909.33531 737.76416,908 730.67267,908 c -4.87272,0 -9.8038,-0.8612 -12.2887,-2.14619 -3.398,-1.75717 -5.05468,-1.87522 -9.13985,-0.65128 -3.12352,0.93583 -6.15913,1.0516 -8.11684,0.30956 -1.92555,-0.72985 -9.61543,-0.51272 -20.01137,0.56506 -17.06288,1.76893 -25.02178,4.32113 -29.20511,9.36528 -1.05093,1.26718 -3.88637,3.12977 -6.30096,4.13908 -2.41459,1.0093 -6.2756,4.51 -8.58004,7.77933 -3.26469,4.63167 -5.23945,6.11093 -8.94317,6.69919 -2.61431,0.41522 -6.72366,1.62158 -9.13187,2.6808 -4.3888,1.93033 -5.42792,2.21341 -5.84572,1.5925 z M 829.92069,746.66667 c 0,-20.9 0.18432,-29.45 0.4096,-19 0.22528,10.45 0.22528,27.55 0,38 -0.22528,10.45 -0.4096,1.9 -0.4096,-19 z m 10.62488,-150 c -10e-4,-12.46667 0.19888,-17.74614 0.44535,-11.73214 0.24648,6.01399 0.24773,16.21399 0.003,22.66667 -0.24494,6.45267 -0.4466,1.53213 -0.44814,-10.93453 z"
         id="path3430" />
      <path
         style="fill:#29dd29;stroke-width:1.33333"
         d="m 841.33333,1049.0286 v -48.4622 l 6.33334,-6.16013 c 5.6401,-5.4859 9.98189,-7.64756 39.66666,-19.74908 72.4815,-29.54834 177.67537,-79.00227 242.38897,-113.9523 11.5806,-6.25436 21.8444,-11.37156 22.8084,-11.37156 7.2923,0 95.672,-28.76216 128.3251,-41.7619 8.3234,-3.3137 47.8568,-28.72203 80.9199,-52.00759 L 1380,742.72885 v 65.8586 65.85859 l -14.3333,10.54087 c -49.423,36.34612 -108.6766,75.68345 -121.3853,80.58538 -67.2832,25.95208 -137.4777,45.43801 -222.9481,61.89021 -43.59381,8.3913 -56.77874,10.4246 -89.99997,13.8791 -8.06666,0.8388 -25.76666,2.9747 -39.33333,4.7463 -13.56667,1.7716 -27.90324,3.3766 -31.85905,3.5666 l -7.19239,0.3455 -1.81803,6 c -0.9999,3.3 -2.43546,10.5 -3.19012,16 -1.8695,13.6252 -4.16556,23.9818 -5.49953,24.8062 -0.60915,0.3765 -1.10755,-21.1235 -1.10755,-47.7776 z M 880,1018.6527 c 14.3,-6.0912 26.3,-11.3538 26.66667,-11.6947 0.36666,-0.3408 -3.53334,-0.1989 -8.66667,0.3153 -5.13333,0.5143 -12.03333,1.1922 -15.33333,1.5064 -3.3,0.3143 -11.00482,1.2721 -17.1218,2.1286 -12.67139,1.7743 -13.69726,2.6776 -16.07896,14.1573 -2.02738,9.7719 -1.88711,10.4453 1.53409,7.3639 1.65,-1.486 14.7,-7.6856 29,-13.7768 z M 1380.6083,640 c 0,-29.7 0.1756,-41.85 0.3901,-27 0.2145,14.85 0.2145,39.15 0,54 -0.2145,14.85 -0.3901,2.7 -0.3901,-27 z"
         id="path3428" />
      <path
         style="fill:#3e6c83;stroke-width:1.33333"
         d="m 601.95077,1160.6667 c 2.6e-4,-35.9334 0.172,-50.4417 0.38167,-32.2408 0.20967,18.2009 0.20947,47.6009 -4.5e-4,65.3333 -0.20992,17.7324 -0.38146,2.8408 -0.38122,-33.0925 z M 335.24325,994.66667 c 0,-17.96667 0.18874,-25.31667 0.41942,-16.33334 0.23068,8.98334 0.23068,23.68337 0,32.66667 -0.23068,8.9833 -0.41942,1.6333 -0.41942,-16.33333 z"
         id="path3426" />
      <path
         style="fill:#29d929;stroke-width:1.33333"
         d="m 841.33333,1128.2213 c 0,-16.9018 0.4984,-31.0386 1.10755,-31.4151 1.33397,-0.8244 3.63003,-11.181 5.49953,-24.8062 0.75466,-5.5 2.19022,-12.7 3.19012,-16 l 1.81803,-6 7.19239,-0.3455 c 3.95581,-0.19 18.29238,-1.795 31.85905,-3.5666 13.56667,-1.7716 31.26667,-3.9075 39.33333,-4.7463 19.84634,-2.0637 43.21284,-5.1619 55.33334,-7.3367 104.18993,-18.6952 172.93983,-36.85853 254.66663,-67.28165 6.2334,-2.32038 10.7334,-3.6578 10,-2.97204 -3.3547,3.13712 -54.7033,35.8146 -87.2196,55.50519 -29.4222,17.817 -74.553,43.7024 -114.3237,65.5717 -6.9669,3.8311 -65.99868,24.8776 -179.59765,64.0318 -13.82755,4.7659 -25.97755,8.9863 -27,9.3787 -1.55666,0.5973 -1.85902,-4.2847 -1.85902,-30.0173 z M 612.79484,995.49253 c -0.41713,-1.55422 -0.67672,-16.62586 -0.57685,-33.49253 0.0999,-16.86667 0.43152,-29.01667 0.73701,-27 0.64917,4.28533 0.38733,4.20936 5.99976,1.74083 2.40821,-1.05922 6.51756,-2.26558 9.13187,-2.6808 3.70372,-0.58826 5.67848,-2.06752 8.94317,-6.69919 2.30444,-3.26933 6.16545,-6.77003 8.58004,-7.77933 2.41459,-1.00931 5.25003,-2.8719 6.30096,-4.13908 4.18333,-5.04415 12.14223,-7.59635 29.20511,-9.36528 10.39594,-1.07778 18.08582,-1.29491 20.01137,-0.56506 1.95771,0.74204 4.99332,0.62627 8.11684,-0.30956 4.08517,-1.22394 5.74185,-1.10589 9.13985,0.65128 2.4849,1.28499 7.41598,2.14619 12.2887,2.14619 7.09149,0 13.34414,1.33531 37.32733,7.97155 2.56667,0.7102 11.56667,2.8422 20,4.73777 20.62832,4.63665 28.92463,7.00643 35.66667,10.18788 l 5.66666,2.67401 v 22.62642 c 0,13.49593 -0.4969,22.31932 -1.23138,21.86537 -0.67727,-0.41856 -2.24796,-3.90397 -3.49043,-7.74535 -1.24248,-3.84137 -2.93835,-7.65465 -3.76861,-8.47394 -1.91432,-1.88903 -18.09568,-5.88052 -26.84291,-6.6214 -3.66667,-0.31058 -10.56667,-1.47646 -15.33333,-2.59087 -4.76667,-1.1144 -10.50688,-2.25385 -12.75603,-2.53212 -2.24915,-0.27825 -6.44915,-1.17148 -9.33333,-1.98493 -14.78854,-4.17099 -54.38066,-3.00496 -72.57731,2.13749 -4.03333,1.13984 -11.09477,3.09321 -15.69209,4.34084 -7.28914,1.97813 -9.08063,3.14669 -14,9.13191 -3.10268,3.77492 -6.96644,7.23998 -8.58612,7.70014 -1.6197,0.46016 -4.77655,3.69104 -7.01524,7.17975 -5.67511,8.84389 -7.61488,10.48475 -20.26324,17.14063 l -4.89003,2.57325 z M 829.92916,826.66667 c 0,-23.83334 0.1808,-33.58334 0.40179,-21.66667 0.22097,11.91667 0.22097,31.41667 0,43.33333 -0.22099,11.91667 -0.40179,2.16667 -0.40179,-21.66666 z m -538.7402,-68 c 0,-9.9 0.20989,-13.95 0.46644,-9 0.25655,4.95 0.25655,13.05 0,18 -0.25655,4.95 -0.46644,0.9 -0.46644,-9 z m 549.38763,-108 c 0,-17.96667 0.18873,-25.31667 0.41941,-16.33334 0.23068,8.98334 0.23068,23.68334 0,32.66667 -0.23068,8.98333 -0.41941,1.63333 -0.41941,-16.33333 z"
         id="path3424" />
      <path
         style="fill:#26da26;stroke-width:1.33333"
         d="m 1040.1111,1090.1987 c 0.3056,-0.2575 4.4556,-2.5869 9.2222,-5.1766 51.5394,-28.0009 112.5158,-63.7027 158.6667,-92.89954 39.5722,-25.03491 124.4838,-82.73265 157.6575,-107.12884 l 14.3241,-10.53407 0.3519,-90.89649 c 0.349,-90.14481 0.3533,-89.98132 0.5038,19.77017 0.084,60.86667 -0.2206,124.08806 -0.676,140.49198 l -0.828,29.82532 L 1210,1032.1223 c -93.1333,32.1594 -169.5833,58.488 -169.8889,58.508 -0.3055,0.02 -0.3055,-0.1742 0,-0.4316 z"
         id="path3422" />
      <path
         style="fill:#28d528;stroke-width:1.33333"
         d="M 616.33333,1085.0043 612,1083.6142 l 0.15467,-44.8071 c 0.0851,-24.6439 0.41572,-43.82637 0.73478,-42.62767 0.52411,1.96896 1.05638,1.92897 5.512,-0.41407 12.68747,-6.67181 14.6252,-8.30949 20.3051,-17.16084 2.23869,-3.48871 5.39554,-6.71959 7.01524,-7.17975 1.61968,-0.46016 5.48344,-3.92522 8.58612,-7.70014 4.91937,-5.98522 6.71086,-7.15378 14,-9.13191 4.59732,-1.24763 11.65876,-3.201 15.69209,-4.34084 18.19665,-5.14245 57.78877,-6.30848 72.57731,-2.13749 2.88418,0.81345 7.08418,1.70668 9.33333,1.98493 2.24915,0.27827 7.98936,1.41772 12.75603,2.53212 4.76666,1.11441 11.66666,2.28029 15.33333,2.59087 8.74723,0.74088 24.92859,4.73237 26.84291,6.6214 0.83026,0.81929 2.52613,4.63257 3.76861,8.47394 1.24247,3.84138 2.81316,7.32679 3.49043,7.74535 0.68654,0.42432 1.23138,12.56001 1.23138,27.4277 0,14.6667 -0.4984,26.3587 -1.10754,25.9822 -0.60915,-0.3765 -1.8657,-4.1619 -2.79235,-8.412 -2.59172,-11.8872 -3.90392,-13.2448 -14.37839,-14.8753 -9.5849,-1.4921 -53.87705,-4.0839 -71.5637,-4.1877 -5.77975,-0.034 -11.39115,-0.5555 -12.46976,-1.1591 -1.07862,-0.6036 -4.44972,-0.6154 -7.49135,-0.026 -3.04164,0.5892 -7.93024,1.1065 -10.86357,1.1495 -5.87112,0.086 -14.54468,2.716 -16.97616,5.1474 -0.85646,0.8565 -2.18718,1.5585 -2.95718,1.5601 -2.44044,0.01 -17.20069,8.2602 -22.42796,12.5436 -2.76538,2.2661 -6.73458,6.8202 -8.82045,10.1202 -3.95144,6.2515 -8.81399,11.7198 -12.44904,14 -1.16909,0.7333 -4.31055,6.3809 -6.98101,12.5502 -4.5471,10.5045 -14.78094,26.9508 -16.58139,26.647 -0.44375,-0.075 -2.75681,-0.7617 -5.14015,-1.5262 z M 829.88677,893.33333 c 0,-13.56666 0.198,-19.11666 0.43999,-12.33333 0.24199,6.78333 0.24199,17.88333 0,24.66667 -0.24199,6.78333 -0.43999,1.23333 -0.43999,-12.33334 z m 10.6913,-178 c -8.2e-4,-18.33333 0.18697,-26.01826 0.4173,-17.07762 0.23034,8.94065 0.231,23.94065 10e-4,33.33333 -0.22952,9.39269 -0.41798,2.07763 -0.41879,-16.25571 z"
         id="path3420" />
      <path
         style="fill:#26d126;stroke-width:1.33333"
         d="m 651.793,1097.5615 -30.20699,-10.2282 5.80179,-8 c 3.19099,-4.4 8.08185,-13.3079 10.86861,-19.7954 2.91878,-6.7948 6.1995,-12.3787 7.73855,-13.1712 3.31328,-1.706 7.78657,-6.8478 11.50235,-13.2212 1.55662,-2.67 5.30653,-6.9226 8.33313,-9.4502 5.53865,-4.6255 20.29928,-13.0205 22.90289,-13.0258 0.77,0 2.10072,-0.7036 2.95718,-1.56 2.43148,-2.4315 11.10504,-5.0615 16.97616,-5.1475 2.93333,-0.043 7.82193,-0.5602 10.86357,-1.1494 3.04163,-0.5892 6.41273,-0.5774 7.49135,0.026 1.07861,0.6037 6.69001,1.1253 12.46976,1.1592 17.68665,0.1037 61.9788,2.6956 71.5637,4.1877 10.47447,1.6305 11.78667,2.9881 14.37839,14.8752 0.92665,4.2502 2.1832,8.0356 2.79235,8.412 0.60914,0.3765 1.10754,16.3691 1.10754,35.5392 0,19.32 -0.50665,34.2901 -1.13676,33.588 -1.24432,-1.3866 -3.57564,-10.2224 -4.9076,-18.6 -0.46637,-2.9334 -1.79476,-6.3884 -2.95197,-7.678 -1.93948,-2.1612 -2.35631,-2.1793 -5.33003,-0.2308 -2.47686,1.6229 -6.529,2.0807 -17.44981,1.9714 -7.82311,-0.078 -15.12383,-0.1425 -16.22383,-0.1427 -1.1,-10e-5 -5,0.5153 -8.66666,1.1454 -9.01706,1.5496 -30.72003,0.9443 -41.26034,-1.1507 -13.7625,-2.7356 -16.66118,-1.2913 -33.67509,16.7786 -7.91885,8.4103 -14.69791,15.2476 -15.06457,15.194 -0.36667,-0.054 -14.25982,-4.7002 -30.87367,-10.3257 z M 829.90505,947.33333 c 9.4e-4,-16.86666 0.19202,-23.58281 0.42463,-14.92477 0.2326,8.65804 0.23184,22.45804 -0.001,30.66667 -0.23355,8.20862 -0.42386,1.12477 -0.42292,-15.7419 z m 550.65305,-0.66666 c 0,-14.3 0.1962,-20.15 0.4359,-13 0.2397,7.15 0.2397,18.85 0,26 -0.2397,7.15 -0.4359,1.3 -0.4359,-13 z M 840.60416,797.33333 c 0,-27.5 0.17729,-38.75 0.394,-25 0.21671,13.75 0.21671,36.25 0,50 -0.21671,13.75 -0.394,2.5 -0.394,-25 z"
         id="path3418" />
      <path
         style="fill:#24cd24;stroke-width:1.33333"
         d="m 755.03427,1133.5101 -72.29907,-24.9794 14.71475,-15.5698 c 17.35709,-18.3658 20.18244,-19.7841 33.95638,-17.0463 10.54031,2.0951 32.24328,2.7004 41.26034,1.1508 3.66666,-0.6302 7.56666,-1.1456 8.66666,-1.1454 1.1,2e-4 8.40072,0.064 16.22383,0.1427 10.92081,0.1093 14.97295,-0.3486 17.44981,-1.9715 2.97372,-1.9484 3.39055,-1.9304 5.33003,0.2309 1.15721,1.2895 2.4856,4.7446 2.95197,7.6779 1.33196,8.3777 3.66328,17.2135 4.9076,18.6 1.39779,1.5575 1.53118,58.1016 0.13676,57.9781 -0.55,-0.049 -33.53457,-11.3293 -73.29906,-25.068 z m 74.90796,-102.1768 c -3.5e-4,-30.0666 0.17481,-42.55681 0.38922,-27.7559 0.21443,14.8009 0.21471,39.4009 6.3e-4,54.6666 -0.21407,15.2658 -0.38951,3.156 -0.38985,-26.9107 z M 840.62273,920 c 0,-40.7 0.16938,-57.35 0.37639,-37 0.20701,20.35 0.20701,53.65 0,74 -0.20701,20.35 -0.37639,3.7 -0.37639,-37 z"
         id="path3416" />
      <path
         style="fill:#1dc71d;stroke-width:1.33333"
         d="m 829.00755,1135.0015 c 0.63082,-46.2683 1.09928,-50.5685 1.38006,-12.6682 0.15348,20.7167 -0.17094,37.6674 -0.72094,37.6682 -0.55,9e-4 -0.8466,-11.2491 -0.65912,-25 z m 11.62001,-58.3348 c 1.6e-4,-46.2 0.16751,-64.9067 0.37189,-41.5703 0.20438,23.3363 0.20426,61.1363 -2.9e-4,84 -0.20453,22.8636 -0.37176,3.7703 -0.3716,-42.4297 z M 611.24899,894.66667 c 0,-19.43334 0.1864,-27.38334 0.41421,-17.66667 0.22781,9.71667 0.22781,25.61667 0,35.33333 -0.22781,9.71667 -0.41421,1.76667 -0.41421,-17.66666 z"
         id="path3414" />
      <path
         style="fill:#30596e;stroke-width:1.33333"
         d="m 335.31009,1172 c 0,-80.3 0.16035,-113.15 0.35634,-73 0.19598,40.15 0.19598,105.85 0,146 -0.19599,40.15 -0.35634,7.3 -0.35634,-73 z"
         id="path3412" />
      <path
         style="fill:#4f4f4f;stroke-width:1.33333"
         d="m 51.31478,1048 c 0,-101.56667 0.158281,-143.11667 0.351737,-92.33333 0.193455,50.78333 0.193455,133.88333 0,184.66663 -0.193456,50.7834 -0.351737,9.2334 -0.351737,-92.3333 z M 280.6538,512.66667 c 1e-5,-148.13334 0.15579,-208.53551 0.34615,-134.22706 0.19036,74.30844 0.19034,195.50844 -4e-5,269.33334 -0.19038,73.82488 -0.34612,13.02705 -0.34611,-135.10628 z"
         id="path3410" />
      <path
         style="fill:#15af15;stroke-width:1.33333"
         d="m 611.29147,1006.6667 c 0,-42.90003 0.16848,-60.45003 0.3744,-39.00003 0.20593,21.45 0.20593,56.55003 0,78.00003 -0.20592,21.45 -0.3744,3.9 -0.3744,-39 z M 289.98424,471.33333 c 3e-5,-120.26666 0.15708,-169.26933 0.34901,-108.89481 0.19192,60.37452 0.19191,158.77452 -5e-5,218.66667 -0.19195,59.89214 -0.34899,10.49481 -0.34896,-109.77186 z"
         id="path3408" />
      <path
         style="fill:#0e8e0e;stroke-width:1.33333"
         d="m 289.931,733.33333 c 0,-24.56666 0.18003,-34.61666 0.40007,-22.33333 0.22004,12.28333 0.22004,32.38333 0,44.66667 C 290.11103,767.95 289.931,757.9 289.931,733.33333 Z m 1092.0441,-344 c 0,-74.43333 0.161,-104.88333 0.358,-67.66666 0.1969,37.21666 0.1969,98.11666 0,135.33333 -0.197,37.21667 -0.358,6.76667 -0.358,-67.66667 z"
         id="path3406" />
      <path
         style="fill:#077107;stroke-width:1.33333"
         d="m 830.66664,711.06663 c -0.36665,-149.7467 -0.21519,-271.81524 0.33659,-271.26344 0.55177,0.5518 0.85176,123.07181 0.66664,272.2667 l -0.3366,271.26344 z m 551.31806,37.60004 c 0,-123.93334 0.1569,-174.43592 0.3485,-112.22798 0.1917,62.20795 0.1917,163.60795 0,225.33334 -0.1917,61.72538 -0.3485,10.82797 -0.3485,-113.10536 z"
         id="path3404" />
      <path
         style="fill:#055205;stroke-width:1.33333"
         d="m 831.2964,1071.3333 c 1.3e-4,-49.1333 0.16655,-69.0396 0.36977,-44.2361 0.20324,24.8034 0.20314,65.0034 -2.5e-4,89.3333 -0.20337,24.3299 -0.36967,4.0362 -0.36952,-45.0972 z"
         id="path3402" />
      <path
         style="fill:#002e00;stroke-width:1.33333"
         d="m 839.32367,800 c 0,-198.36667 0.15433,-279.51667 0.34296,-180.33333 0.18862,99.18333 0.18862,261.48333 0,360.66666 C 839.478,1079.5167 839.32367,998.36667 839.32367,800 Z"
         id="path3400" />
      <path
         style="fill:#000000;stroke-width:1.33333"
         d="M 190,1280.0704 52.666667,1232.4164 52.328668,1047.7087 C 52.018509,878.21427 52.170016,862.84989 54.168145,861.16713 55.365756,860.15855 106.81785,841.88441 168.50615,820.55795 L 280.66667,781.78256 281.01983,512.55795 281.37297,243.33333 559.01983,147.66668 836.66667,52.000013 1113.3333,147.79244 1390,243.58488 v 368.41623 368.41621 l -277.2174,95.68358 -277.21737,95.6836 -111.44928,-38.553 c -61.29711,-21.2041 -111.89388,-38.5556 -112.43728,-38.5589 -0.5434,0 -1.1434,30.992 -1.33334,68.8783 L 610,1232.4352 472,1280.1514 c -75.9,26.2439 -139.5,47.684 -141.33333,47.6446 C 328.83333,1327.757 265.53333,1306.2801 190,1280.0704 Z M 326.14723,961.70279 C 325.12757,960.68313 63.898992,870.66667 61.959589,870.66667 60.245488,870.66667 60,892.94391 60,1048.4933 v 177.8266 l 21.666667,7.5285 c 11.916666,4.1407 71.766663,24.8513 133.000003,46.0236 L 326,1318.3672 l 0.3382,-178.0676 c 0.18601,-97.9372 0.10013,-178.30577 -0.19097,-178.59681 z M 472.66667,1271.3223 C 535.73333,1249.5188 590.78333,1230.4967 595,1229.0508 l 7.66667,-2.6289 v -177.799 c 0,-97.78935 -0.45,-178.0425 -1,-178.3403 -0.55,-0.29779 -47.5,15.54048 -104.33334,35.19615 -56.83333,19.65566 -116.68333,40.3346 -133,45.95318 l -29.66666,10.21562 v 177.62065 c 0,97.6914 0.3463,177.967 0.76956,178.3903 0.42326,0.4232 5.67326,-0.9097 11.66666,-2.9621 5.99342,-2.0523 62.49711,-21.5707 125.56378,-43.3741 z M 832,800.74536 C 832,594.49152 831.49765,439.84692 830.82632,439.432 830.1808,439.03305 708.8308,396.91905 561.15965,345.84535 413.48851,294.77165 291.91667,252.69847 291,252.34939 c -1.32985,-0.50643 -1.66667,52.61089 -1.66667,262.84129 0,144.9118 0.45,263.4872 1,263.50091 0.55,0.0137 10.01575,-3.07314 21.03498,-6.85963 l 20.03498,-6.88455 133.96502,46.3662 c 73.68077,25.5014 136.51162,47.24347 139.62414,48.31572 l 5.65912,1.94954 0.34088,112.1207 0.34088,112.12073 L 720,1123.4966 c 59.76667,20.722 109.41667,37.7124 110.33333,37.7565 1.32943,0.064 1.66667,-72.8835 1.66667,-360.50774 z m 277.7684,268.00844 c 147.5274,-50.9187 269.2816,-92.98293 270.5649,-93.47597 2.2143,-0.85072 2.3334,-19.29092 2.3334,-361.34179 0,-198.24493 -0.45,-360.69703 -1,-361.00465 -0.7598,-0.42495 -529.5083,181.51265 -540.6667,186.03852 -2.21412,0.89805 -2.33333,19.33009 -2.33333,360.76602 0,197.90079 0.4,360.21967 0.88889,360.70847 0.48888,0.4889 1.13468,0.8889 1.43508,0.8889 0.30041,0 121.25041,-41.6608 268.77776,-92.5795 z M 461.82427,910.10533 c 70.99189,-24.50872 129.42357,-44.90872 129.84817,-45.33333 0.4246,-0.4246 0.44265,-1.10136 0.0401,-1.50391 -1.15645,-1.15641 -258.34722,-89.93476 -260.54096,-89.93476 -2.56973,0 -258.121467,88.06975 -259.749387,89.51638 -0.684446,0.60821 -0.90835,1.44194 -0.497566,1.85273 1.119351,1.11935 257.417013,89.80303 259.782733,89.88957 1.12238,0.0411 60.12498,-19.97794 131.11688,-44.48668 z M 1104,340.72109 c 146.3,-50.44213 266.56,-92.22978 267.2444,-92.86146 0.6845,-0.63168 0.9581,-1.43492 0.608,-1.78496 -0.35,-0.35006 -121.0734,-42.29554 -268.2742,-93.21218 L 835.94047,60.286783 568.3572,152.64916 c -223.94985,77.30133 -273.76133,95.01995 -268.13497,95.37923 0.24444,0.0156 120.74444,41.68625 267.77777,92.60145 147.03333,50.91519 267.93333,92.40008 268.66667,92.18864 C 837.4,432.60704 957.7,391.16321 1104,340.72109 Z"
         id="path3398" />
    </g>
  </g>
</svg>
