<?xml version="1.0" encoding="UTF-8" standalone="no"?>
<!-- Created with Inkscape (http://www.inkscape.org/) -->

<svg
   version="1.1"
   id="svg1581"
   width="1440"
   height="1440"
   viewBox="0 0 1440 1440"
   sodipodi:docname="PartDesign_Extrusion.svg"
   inkscape:version="1.1.2 (b8e25be833, 2022-02-05)"
   xmlns:inkscape="http://www.inkscape.org/namespaces/inkscape"
   xmlns:sodipodi="http://sodipodi.sourceforge.net/DTD/sodipodi-0.dtd"
   xmlns="http://www.w3.org/2000/svg"
   xmlns:svg="http://www.w3.org/2000/svg">
  <defs
     id="defs1585" />
  <sodipodi:namedview
     id="namedview1583"
     pagecolor="#505050"
     bordercolor="#eeeeee"
     borderopacity="1"
     inkscape:pageshadow="0"
     inkscape:pageopacity="0"
     inkscape:pagecheckerboard="0"
     showgrid="false"
     inkscape:zoom="0.49930556"
     inkscape:cx="672.93463"
     inkscape:cy="720"
     inkscape:window-width="1920"
     inkscape:window-height="1028"
     inkscape:window-x="-6"
     inkscape:window-y="-6"
     inkscape:window-maximized="1"
     inkscape:current-layer="g1587" />
  <g
     inkscape:groupmode="layer"
     inkscape:label="Image"
     id="g1587">
    <g
       id="g1648"
       transform="matrix(1.0765697,0,0,1.0765697,-37.930777,-52.226098)">
      <path
         style="fill:#e0f4f9;stroke-width:1.33333"
         d="m 575.33333,509.20836 c -1.46666,-0.63435 -37.46666,-13.24047 -80,-28.0136 -42.53333,-14.77315 -77.63333,-27.16767 -78,-27.54339 -0.36666,-0.3757 -0.0252,-0.9148 0.75879,-1.19794 0.784,-0.28316 8.584,-4.80206 17.33333,-10.04198 19.7894,-11.85176 41.43518,-22.21473 69.90788,-33.46861 127.82071,-50.52132 300.8638,-68.55319 467.7959,-48.74645 l 24.46256,2.9025 -14.46256,5.16775 C 962.16131,375.75887 879.52768,404.41539 724,458.13008 c -75.16667,25.96036 -138.76667,48.33263 -141.33333,49.71615 -3.23883,1.74582 -5.48258,2.1626 -7.33334,1.36213 z"
         id="path1750" />
      <path
         style="fill:#def4f9;stroke-width:1.33333"
         d="m 413.95627,453.14172 c -1.44262,-0.59896 -18.4627,-6.60579 -37.82239,-13.34851 l -35.19945,-12.25949 3.48428,-2.77827 c 1.91634,-1.52804 5.75609,-6.50648 8.53277,-11.06318 7.64012,-12.5379 21.71291,-29.56959 40.19205,-48.64271 26.96508,-27.8318 29.1858,-29.46949 51.13967,-37.7134 54.40957,-20.43133 123.53415,-37.50749 191.05013,-47.19597 54.47927,-7.81772 92.52526,-10.73422 152.2158,-11.66843 l 45.54914,-0.71288 54.45086,18.65991 C 1021.2989,332.25384 1053.3175,343.37601 1053.3144,344 c 0,0.36667 -12.4484,4.88835 -27.6589,10.04817 L 998,363.42967 974.8262,360.48089 c -67.11888,-8.54062 -147.22767,-10.4039 -218.52889,-5.08284 -110.7551,8.26544 -210.07676,32.2786 -288.96398,69.8633 -13.80426,6.57685 -45.2446,24.27584 -49.37706,27.79628 -0.75739,0.64521 -2.55739,0.68305 -4,0.0841 z"
         id="path1748" />
      <path
         style="fill:#ddf2f8;stroke-width:1.33333"
         d="m 578.66667,510.14265 c 0,-0.28821 0.93116,-0.88133 2.06925,-1.31806 1.18656,-0.45532 1.72176,-0.2318 1.25464,0.52401 -0.78301,1.26695 -3.32389,1.87393 -3.32389,0.79405 z m -13.33334,-3.47598 c -1.1,-0.71088 -1.4,-1.2925 -0.66666,-1.2925 0.73333,0 2.23333,0.58162 3.33333,1.2925 1.1,0.71088 1.4,1.29249 0.66667,1.29249 -0.73334,0 -2.23334,-0.58161 -3.33334,-1.29249 z m -32.66666,-11.38026 c -3.33416,-1.60593 -3.44514,-1.79101 -0.66667,-1.1119 3.778,0.92341 8.02467,3.08789 6,3.05814 -0.73333,-0.0107 -3.13333,-0.88658 -5.33333,-1.94624 z m 90,-1.95308 c 1.1,-0.71088 2.6,-1.29249 3.33333,-1.29249 0.73333,0 0.43333,0.58161 -0.66667,1.29249 -1.1,0.71088 -2.6,1.2925 -3.33333,1.2925 -0.73333,0 -0.43333,-0.58162 0.66667,-1.2925 z M 498,483.28641 c -3.33416,-1.60593 -3.44513,-1.79101 -0.66667,-1.1119 3.778,0.92341 8.02467,3.08789 6,3.05814 C 502.6,485.22199 500.2,484.34607 498,483.28641 Z m 159.33333,-1.95308 c 1.1,-0.71088 2.6,-1.29249 3.33334,-1.29249 0.73333,0 0.43333,0.58161 -0.66667,1.29249 -1.1,0.71088 -2.6,1.2925 -3.33333,1.2925 -0.73334,0 -0.43334,-0.58162 0.66666,-1.2925 z m -191.75,-8.91081 c -3.1625,-1.11849 -5.51425,-2.26939 -5.2261,-2.55752 0.60833,-0.60833 12.9761,3.45227 12.9761,4.26033 0,0.83492 -1.51714,0.50158 -7.75,-1.70281 z M 696,468 c 1.1,-0.71088 2.6,-1.29249 3.33333,-1.29249 0.73334,0 0.43334,0.58161 -0.66666,1.29249 -1.1,0.71088 -2.6,1.29249 -3.33334,1.29249 C 694.6,469.29249 694.9,468.71088 696,468 Z m -263.08333,-6.91081 c -4.2625,-1.48516 -7.51667,-2.93363 -7.23148,-3.21882 0.6063,-0.6063 16.98148,4.77964 16.98148,5.58536 0,0.8698 -1.5212,0.50056 -9.75,-2.36654 z m 301.75,-6.42252 c 1.1,-0.71088 2.6,-1.2925 3.33333,-1.2925 0.73333,0 0.43333,0.58162 -0.66667,1.2925 -1.1,0.71088 -2.6,1.29249 -3.33333,1.29249 -0.73333,0 -0.43333,-0.58161 0.66667,-1.29249 z M 402.25,450.42252 c -6.46251,-2.21849 -11.51567,-4.26796 -11.22927,-4.55436 0.5651,-0.56511 23.62586,7.00065 24.7428,8.1176 1.27247,1.27245 -1.7441,0.47705 -13.51353,-3.56324 z M 240.42937,394.24417 C 161.8322,366.95997 97.236892,344.34332 96.884241,343.98493 96.531592,343.62656 204.29592,306.036 336.36052,260.45036 l 240.11747,-82.88296 160.43177,55.43443 c 88.23747,30.48893 160.21663,55.64956 159.95369,55.9125 -0.26294,0.26294 -14.72388,-4.38938 -32.13541,-10.3385 l -31.65733,-10.81656 -45.53536,0.71269 c -59.67636,0.93401 -97.72648,3.85104 -152.20202,11.66823 -67.51598,9.68848 -136.64056,26.76464 -191.05013,47.19597 -21.95387,8.24391 -24.17459,9.8816 -51.13967,37.7134 -18.47914,19.07312 -32.55193,36.10481 -40.19205,48.64271 -2.77668,4.5567 -6.62048,9.53837 -8.54177,11.07036 l -3.49327,2.78542 22.20845,7.73268 c 19.63344,6.8361 24.7075,8.90443 21.20844,8.64518 -0.55,-0.0408 -65.30677,-22.39754 -143.90396,-49.68174 z M 808,429.33333 c 1.1,-0.71088 2.6,-1.29249 3.33333,-1.29249 0.73334,0 0.43334,0.58161 -0.66666,1.29249 -1.1,0.71088 -2.6,1.2925 -3.33334,1.2925 -0.73333,0 -0.43333,-0.58162 0.66667,-1.2925 z M 846.66667,416 c 1.1,-0.71088 2.6,-1.29249 3.33333,-1.29249 0.73333,0 0.43333,0.58161 -0.66667,1.29249 -1.1,0.71088 -2.6,1.29249 -3.33333,1.29249 -0.73333,0 -0.43333,-0.58161 0.66667,-1.29249 z m 34.66666,-12 c 1.1,-0.71088 2.6,-1.29249 3.33334,-1.29249 0.73333,0 0.43333,0.58161 -0.66667,1.29249 -1.1,0.71088 -2.6,1.29249 -3.33333,1.29249 -0.73334,0 -0.43334,-0.58161 0.66666,-1.29249 z M 916,392.22495 c 1.1,-0.67964 3.5,-1.63694 5.33333,-2.12734 2.31664,-0.61966 2.72332,-0.5147 1.33334,0.34411 -1.1,0.67964 -3.5,1.63693 -5.33334,2.12733 -2.31664,0.61967 -2.72332,0.51471 -1.33333,-0.3441 z m 36.66667,-12.74052 c 2.2,-1.00178 5.5,-2.18942 7.33333,-2.63918 2.67712,-0.65678 2.54588,-0.4592 -0.66667,1.00366 -2.2,1.00177 -5.5,2.18941 -7.33333,2.63917 -2.67712,0.65679 -2.54588,0.4592 0.66667,-1.00365 z m 36.66666,-12.59282 c 1.1,-0.67964 3.5,-1.63693 5.33334,-2.12733 2.31664,-0.61967 2.72332,-0.51471 1.33333,0.34411 -1.1,0.67964 -3.5,1.63693 -5.33333,2.12733 -2.31664,0.61967 -2.72332,0.51471 -1.33334,-0.34411 z m 34.66667,-12 c 1.1,-0.67964 3.5,-1.63693 5.3333,-2.12733 2.3167,-0.61967 2.7234,-0.51471 1.3334,0.34411 -1.1,0.67964 -3.5,1.63693 -5.3334,2.12733 -2.3166,0.61967 -2.7233,0.51471 -1.3333,-0.34411 z M 1053.3333,344 c 0,-0.73333 0.6,-1.33333 1.3334,-1.33333 0.7333,0 1.3333,0.6 1.3333,1.33333 0,0.73333 -0.6,1.33333 -1.3333,1.33333 -0.7334,0 -1.3334,-0.6 -1.3334,-1.33333 z m -23.0833,-8.24415 c -4.2625,-1.48516 -7.5167,-2.93362 -7.2315,-3.21881 0.6063,-0.60631 16.9815,4.77964 16.9815,5.58536 0,0.8698 -1.5212,0.50056 -9.75,-2.36655 z m -38.66667,-13.33333 c -4.26249,-1.48516 -7.51666,-2.93363 -7.23148,-3.21881 0.60631,-0.60631 16.98145,4.77964 16.98145,5.58536 0,0.8698 -1.52117,0.50056 -9.74997,-2.36655 z m -38.66666,-13.33333 c -6.4625,-2.2185 -11.51567,-4.26796 -11.22927,-4.55436 0.56509,-0.56511 23.62585,7.00065 24.7428,8.1176 1.27247,1.27245 -1.74411,0.47705 -13.51353,-3.56324 z M 916.25,296.42252 c -7.56251,-2.58516 -13.51701,-4.93329 -13.23224,-5.21805 0.56496,-0.56496 27.62203,8.32421 28.73983,9.44201 1.30694,1.30695 -1.81667,0.45613 -15.50759,-4.22396 z"
         id="path1746" />
      <path
         style="fill:#d6d6d6;stroke-width:1.33333"
         d="M 73.949868,1006.3333 C 73.601661,1005.4167 73.470504,855.86667 73.658409,674 l 0.341646,-330.66667 0.66664,332.33335 C 75.033345,858.45003 75.164503,1008 74.958153,1008 c -0.206348,0 -0.660077,-0.75 -1.008285,-1.6667 z"
         id="path1744" />
      <path
         style="fill:#cdcdcd;stroke-width:1.33333"
         d="m 1333.9896,762 c 0,-183.33333 0.1547,-258.13509 0.3437,-166.22615 0.1891,91.90895 0.1891,241.90895 0,333.33334 -0.189,91.42441 -0.3437,16.22614 -0.3437,-167.10719 z"
         id="path1742" />
      <path
         style="fill:#aad5e3;stroke-width:1.33333"
         d="M 530,521.45219 C 362.44481,461.09517 95.594021,369.33333 87.626143,369.33333 c -1.936839,0 -2.29281,-1.36769 -2.29281,-8.80932 0,-7.8503 0.254014,-8.70948 2.333334,-7.89221 2.681354,1.05388 170.989443,59.29439 355.666663,123.07315 L 570,519.4496 l 0.39987,7.60853 c 0.34802,6.62195 0.0887,7.59255 -2,7.4853 C 567.07995,534.47569 549.8,528.58459 530,521.45219 Z"
         id="path1740" />
      <path
         style="fill:#b0f9b0;stroke-width:1.33333"
         d="M 801.33333,587.48135 C 786.3,582.18677 733.57125,563.81545 684.15833,546.65619 l -89.84165,-31.19867 29.17499,-9.90819 29.175,-9.90818 80,-0.14052 c 52.06845,-0.0915 88.84498,0.45154 105.33333,1.5552 74.86873,5.01141 125.77061,11.88724 171.3333,23.14372 12.1,2.98937 22.543,5.76026 23.2067,6.15756 0.6636,0.3973 -1.4781,1.77694 -4.7595,3.06586 -15.9701,6.27312 -194.90099,67.89571 -196.86103,67.79762 -1.23904,-0.062 -14.5528,-4.44467 -29.58614,-9.73924 z"
         id="path1738" />
      <path
         style="fill:#a4d2e0;stroke-width:1.33333"
         d="M 550.66667,531.35953 C 541.5,528.15533 522,521.36039 507.33333,516.25964 c -14.66666,-5.10073 -27.56666,-9.63633 -28.66666,-10.07912 -21.09214,-8.49017 -56.05663,-18.36744 -66.33334,-18.73879 -1.65,-0.0596 -3,-0.49856 -3,-0.97541 0,-0.88109 -9.43801,-3.42957 -16.68329,-4.50485 -6.95481,-1.03219 -13.98232,-3.26831 -13.98603,-4.45031 -0.003,-0.78667 -2.37377,-1.20917 -10.66401,-1.90004 -1.83333,-0.15279 -3.63333,-0.66156 -4,-1.13061 -0.36667,-0.46907 -5.60697,-1.13756 -11.64513,-1.48555 -6.03816,-0.34799 -11.7792,-1.29725 -12.75788,-2.10948 -2.49942,-2.07432 -26.78939,-5.49992 -35.59699,-5.0202 -4.03333,0.21968 -9.07192,-0.0936 -11.19687,-0.69632 -7.57774,-2.14912 -25.67093,-4.40507 -38.13646,-4.75505 -41.21314,-1.15708 -74.18078,-1.31203 -84.66667,-0.39792 -6.6,0.57536 -18.87757,1.45057 -27.28351,1.94492 -8.40593,0.49434 -15.62435,1.10946 -16.04093,1.36693 -0.41658,0.25745 -7.639,1.11787 -16.04982,1.91203 -8.41083,0.79414 -17.542407,1.81856 -20.292407,2.27648 l -5,0.83256 v -49.50779 c 0,-45.92804 0.165786,-49.50779 2.29281,-49.50779 4.748204,0 146.559057,47.71152 253.040527,85.13416 14.66666,5.15456 42.26666,14.84348 61.33333,21.53092 19.06667,6.68744 64.11759,22.62358 100.11315,35.41362 35.99557,12.79005 66.18098,23.25464 67.07869,23.25464 0.89772,0 1.26139,0.6 0.80816,1.33333 -1.11112,1.79783 -0.4836,1.94844 -19.33333,-4.64047 z"
         id="path1736" />
      <path
         style="fill:#adf9ad;stroke-width:1.33333"
         d="M 1032.6291,526.82911 C 1030.6401,524.94237 989.666,515.16871 968,511.41295 898.48435,499.36253 839.84948,495.36464 732.36617,495.34675 l -80.30048,-0.0133 8.30048,-2.84169 c 4.56527,-1.56293 41.70588,-14.27739 82.53468,-28.25435 40.82882,-13.97696 76.32994,-25.80581 78.8914,-26.28634 2.56146,-0.48054 17.75608,-0.19434 33.76582,0.636 102.13105,5.29692 176.40593,15.95097 234.44193,33.62852 16.3394,4.97692 47.3333,17.07476 47.3333,18.47557 0,1.2564 5.677,-0.85364 -52,19.32748 -26.7666,9.36563 -49.2835,17.25595 -50.0375,17.53405 -0.754,0.27811 -1.954,-0.0475 -2.6667,-0.72352 z"
         id="path1734" />
      <path
         style="fill:#a2d0de;stroke-width:1.33333"
         d="m 560.21037,593.14649 c -1.27454,-0.46944 -4.48708,-1.14592 -7.13896,-1.50329 -2.65188,-0.35737 -8.02781,-1.57947 -11.9465,-2.71576 -10.48282,-3.03968 -24.16715,-6.63361 -26.45824,-6.94876 -1.1,-0.15129 -2.9,-0.63295 -4,-1.07033 -2.33806,-0.92964 -16.66444,-4.57374 -21.4025,-5.44399 C 487.46888,575.13461 486,574.77091 486,574.65611 c 0,-0.1148 -1.8,-0.48942 -4,-0.8325 -10.78435,-1.68172 -30.37593,-6.05469 -37.91225,-8.46225 -4.63932,-1.48208 -10.061,-2.69469 -12.04816,-2.69469 -1.98716,0 -8.059,-1.11706 -13.49298,-2.48234 -9.08333,-2.28218 -15.43084,-3.41673 -27.87994,-4.98326 -12.91195,-1.62478 -17.15727,-2.32292 -26.49451,-4.35702 -3.39468,-0.73952 -11.87216,-1.97356 -18.83883,-2.7423 -6.96666,-0.76874 -21.66666,-2.45612 -32.66666,-3.74974 -16.36367,-1.92437 -30.909,-2.34384 -80,-2.30705 -37.59208,0.0281 -65.22852,0.64101 -74,1.64093 -7.7,0.87778 -17.6,1.91394 -22,2.30256 -4.4,0.38863 -16.7,1.59902 -27.33334,2.68976 -10.63333,1.09074 -20.38333,1.98435 -21.666663,1.98582 -2.171932,0.003 -2.333334,-2.84694 -2.333334,-41.19298 v -41.19561 l 11,-1.37895 c 23.444367,-2.93894 36.790327,-4.33148 48.333337,-5.04314 6.6,-0.40692 17.7,-1.22272 24.66666,-1.81291 11.06242,-0.93716 43.74622,-0.79412 85.33334,0.37347 12.46553,0.34998 30.55872,2.60593 38.13646,4.75505 2.12495,0.60265 7.16354,0.916 11.19687,0.69632 8.8076,-0.47972 33.09757,2.94588 35.59699,5.0202 0.97868,0.81223 6.71972,1.76149 12.75788,2.10948 6.03816,0.34799 11.27846,1.01648 11.64513,1.48555 0.36667,0.46905 2.16667,0.97782 4,1.13061 8.29024,0.69087 10.66155,1.11337 10.66401,1.90004 0.004,1.182 7.03122,3.41812 13.98603,4.45031 7.24528,1.07528 16.68329,3.62376 16.68329,4.50485 0,0.47685 1.35,0.9158 3,0.97541 10.27671,0.37135 45.2412,10.24862 66.33334,18.73879 2.0795,0.83707 42.74453,15.01083 72.45634,25.25461 9.41766,3.24695 17.76426,5.50723 18.54799,5.02284 0.99555,-0.61528 1.15939,2.86115 0.54365,11.53551 -0.48472,6.82891 -0.88132,20.06053 -0.88132,29.40364 v 16.98745 l -3.40281,-0.19229 c -1.87153,-0.10573 -4.44561,-0.57636 -5.72015,-1.04579 z"
         id="path1732" />
      <path
         style="fill:#a0cedd;stroke-width:1.33333"
         d="m 555.33333,636.00653 c -5.86666,-1.33942 -12.36701,-3.09313 -14.44522,-3.89713 -2.0782,-0.804 -4.28675,-1.14773 -4.90787,-0.76385 -0.62112,0.38386 -1.46415,0.15618 -1.87339,-0.50599 -0.78134,-1.26425 -7.13069,-2.72045 -16.10685,-3.69404 -2.93333,-0.31816 -14.03333,-2.70659 -24.66667,-5.30761 C 482.7,619.23687 471.6,616.85728 468.66667,616.54992 c -2.93334,-0.30736 -12.53334,-2.10781 -21.33334,-4.001 -14.75406,-3.17412 -23.37488,-4.63837 -37.33333,-6.34107 -2.93333,-0.35781 -11.93333,-1.55872 -20,-2.66868 -27.11537,-3.73101 -47.94465,-6.27901 -56,-6.85036 -21.82884,-1.54828 -107.66248,-2.03944 -128.73789,-0.73666 -65.4528,4.04593 -65.39923,4.04141 -95.26211,8.03702 -5.13333,0.68683 -12.783333,1.63938 -17,2.11678 l -7.666667,0.86798 v -28.15364 c 0,-25.92308 0.184864,-28.15384 2.333334,-28.15626 1.283333,-10e-4 11.033333,-0.89508 21.666663,-1.98582 10.63334,-1.09074 22.93334,-2.30113 27.33334,-2.68976 4.4,-0.38862 14.3,-1.42478 22,-2.30256 8.77148,-0.99992 36.40792,-1.61276 74,-1.64093 49.091,-0.0368 63.63633,0.38268 80,2.30705 11,1.29362 25.7,2.981 32.66666,3.74974 6.96667,0.76874 15.44415,2.00278 18.83883,2.7423 9.33724,2.0341 13.58256,2.73224 26.49451,4.35702 12.4491,1.56653 18.79661,2.70108 27.87994,4.98326 5.43398,1.36528 11.50582,2.48234 13.49298,2.48234 1.98716,0 7.40884,1.21261 12.04816,2.69469 7.53632,2.40756 27.1279,6.78053 37.91225,8.46225 2.2,0.34308 4,0.7177 4,0.8325 0,0.1148 1.46888,0.4785 3.26417,0.80825 4.73806,0.87025 19.06444,4.51435 21.4025,5.44399 1.1,0.43738 2.9,0.91904 4,1.07033 2.22318,0.3058 15.70884,3.83699 26.06456,6.82493 3.70217,1.06819 8.50217,2.23062 10.66666,2.58316 2.1645,0.35254 5.43544,0.99078 7.26878,1.41828 1.83333,0.42752 4.98333,0.99278 7,1.25612 l 3.66666,0.4788 v -21.4922 c 0,-11.82072 0.36747,-21.12474 0.8166,-20.67562 1.56488,1.56489 -1.04286,86.30289 -2.6522,86.1821 -0.82374,-0.0619 -6.29773,-1.20829 -12.1644,-2.54772 z"
         id="path1730" />
      <path
         style="fill:#a9f8a9;stroke-width:1.33333"
         d="m 1137.3333,490.83375 c 0,-1.51746 -30.2345,-13.41 -47.3333,-18.61823 -58.2233,-17.7346 -134.27749,-28.60452 -235.33333,-33.63463 -17.23334,-0.85778 -31.50228,-1.70836 -31.70878,-1.89014 -0.2065,-0.18179 24.89832,-8.9048 55.7885,-19.38446 63.65096,-21.59394 54.63068,-20.11642 97.25361,-15.9301 69.9242,6.86778 130.1399,18.93034 173.9963,34.85541 14.2472,5.17341 47.3063,20.64619 56.5939,26.48783 3.5306,2.22069 4.1462,3.1319 2.6666,3.94768 -1.8077,0.99674 -70.4535,25.33289 -71.4573,25.33289 -0.2564,0 -0.4662,-0.52481 -0.4662,-1.16625 z"
         id="path1728" />
      <path
         style="fill:#9ecddc;stroke-width:1.33333"
         d="m 556.66667,702.46835 c -4.4,-0.66532 -15.5,-2.64526 -24.66667,-4.39984 -9.16667,-1.7546 -20.26667,-3.58211 -24.66667,-4.06112 -4.4,-0.47903 -15.5,-2.09647 -24.66666,-3.59432 C 473.5,688.91521 463.9,687.5214 461.33333,687.31569 c -5.30292,-0.42497 -25.97114,-3.06468 -30,-3.83153 -1.46666,-0.27917 -7.16666,-0.89808 -12.66666,-1.37537 -5.5,-0.4773 -19.3,-1.72451 -30.66667,-2.77159 -30.75011,-2.83267 -90.82288,-4.95272 -117.33333,-4.14087 -80.57115,2.46743 -89.39227,3.21976 -165.01833,14.07404 C 95.188265,690.77167 86.338265,692 85.981676,692 85.625088,692 85.333333,672.86913 85.333333,649.48696 V 606.97393 L 93,606.10595 c 4.216667,-0.4774 11.86667,-1.42995 17,-2.11678 29.86288,-3.99561 29.80931,-3.99109 95.26211,-8.03702 21.07541,-1.30278 106.90905,-0.81162 128.73789,0.73666 8.05535,0.57135 28.88463,3.11935 56,6.85036 8.06667,1.10996 17.06667,2.31087 20,2.66868 13.95845,1.7027 22.57927,3.16695 37.33333,6.34107 8.8,1.89319 18.4,3.69364 21.33334,4.001 2.93333,0.30736 14.03333,2.68543 24.66666,5.28459 10.63334,2.59917 22.17707,5.0367 25.65276,5.41673 6.97036,0.76215 12.97459,2.04519 14.99047,3.20332 0.72044,0.41389 2.22044,0.86696 3.33333,1.0068 1.1129,0.13985 6.52344,1.43912 12.02344,2.88725 5.5,1.44814 12.25,3.03931 15,3.53594 l 5,0.90296 0.26832,-22.39376 c 0.14827,-12.37328 0.49556,-17.62076 0.77615,-11.72708 0.27931,5.86666 0.0891,30.61666 -0.42268,55 -0.83645,39.85292 -1.15071,44.31706 -3.10947,44.17234 -1.19844,-0.0885 -5.77898,-0.70534 -10.17898,-1.37066 z"
         id="path1726" />
      <path
         style="fill:#a4f8a4;stroke-width:1.33333"
         d="m 1209.2237,466.90885 c 2.4825,-1.76333 -1.6288,-4.338 -25.8904,-16.21334 C 1132.8656,425.99295 1067.2531,410.37984 976,401.35865 c -15.03333,-1.48618 -30.93333,-2.78714 -35.33333,-2.89102 l -8,-0.18887 6.66666,-2.317 c 90.11437,-31.3192 132.50067,-45.33384 135.42507,-44.77711 4.5966,0.87508 232.296,79.58003 233.5953,80.7429 0.5612,0.50228 -21.0388,8.61173 -48,18.021 -56.2637,19.63564 -53.6986,18.78477 -51.13,16.9603 z"
         id="path1724" />
      <path
         style="fill:#99c9d9;stroke-width:1.33333"
         d="m 85.333333,744.60385 c 0,-28.93212 0.291755,-52.60385 0.648343,-52.60385 0.356589,0 9.206589,-1.22833 19.666664,-2.72963 75.62606,-10.85428 84.44718,-11.60661 165.01833,-14.07404 26.51045,-0.81185 86.58322,1.3082 117.33333,4.14087 11.36667,1.04708 25.16667,2.29429 30.66667,2.77159 5.5,0.47729 11.2,1.0962 12.66666,1.37537 4.02886,0.76685 24.69708,3.40656 30,3.83153 2.56667,0.20571 12.16667,1.59952 21.33334,3.09738 9.16666,1.49785 20.26666,3.10969 24.66666,3.58186 4.4,0.47218 13.71379,1.99543 20.6973,3.385 C 538.5448,699.47204 566.3108,704 568.62565,704 c 0.35376,0 0.82324,-10.05 1.04328,-22.33333 0.33415,-18.6531 0.44887,-16.9503 0.69618,10.33333 0.16285,17.96667 -0.0992,48.42575 -0.58232,67.68684 l -0.87843,35.02019 -4.11885,-0.66622 c -2.26536,-0.36642 -9.21884,-0.96728 -15.45218,-1.33525 -6.23333,-0.36796 -16.13333,-1.28905 -22,-2.04687 -14.33672,-1.85189 -73.5437,-6.40609 -85.8808,-6.60593 -5.43442,-0.088 -10.27125,-0.40137 -10.74849,-0.69632 -2.78939,-1.72395 -135.13573,-2.97715 -150.03737,-1.42073 -2.93334,0.30638 -18.23334,1.21965 -34,2.0295 -15.76667,0.80986 -34.66667,2.03079 -42,2.7132 -7.33334,0.6824 -25.93334,2.17376 -41.33334,3.31412 -15.4,1.14038 -36.4,2.95574 -46.66666,4.03415 -10.26667,1.0784 -21.51667,2.23529 -25.000003,2.57088 l -6.333334,0.61013 z"
         id="path1722" />
      <path
         style="fill:#96c8d8;stroke-width:1.33333"
         d="m 85.333333,824.06041 v -26.60624 l 4.333334,-0.63013 c 8.773104,-1.27576 47.753163,-4.88667 73.666663,-6.82412 14.66667,-1.09656 33.26667,-2.5866 41.33334,-3.3112 8.06666,-0.7246 26.96666,-1.94617 42,-2.71463 15.03333,-0.76845 30.33333,-1.6849 34,-2.03657 16.507,-1.58316 147.17945,-0.34739 150.03737,1.41892 0.47724,0.29495 5.31407,0.60828 10.74849,0.69632 12.3371,0.19984 71.54408,4.75404 85.8808,6.60593 5.86667,0.75782 15.76667,1.67891 22,2.04687 6.23334,0.36797 13.28334,0.98693 15.66667,1.37549 l 4.33333,0.70646 v 23.34246 23.34247 l -11.66666,-0.77607 C 551.25,840.26953 542.4,839.65091 538,839.32165 c -4.4,-0.32925 -20.9,-1.22848 -36.66667,-1.99828 -15.76666,-0.7698 -31.06666,-1.68462 -34,-2.03293 -10.5941,-1.25797 -135.18818,-1.70409 -156.66666,-0.56096 -40.43583,2.15208 -112.60376,6.59061 -118,7.25732 -6.81455,0.84195 -101.462962,8.67987 -104.815489,8.67987 -2.384122,0 -2.517848,-1.41308 -2.517848,-26.60626 z M 569.88169,770.66667 c 0,-12.83334 0.19998,-18.08334 0.4444,-11.66667 0.24442,6.41667 0.24442,16.91667 0,23.33333 -0.24442,6.41667 -0.4444,1.16667 -0.4444,-11.66666 z"
         id="path1720" />
      <path
         style="fill:#94c6d6;stroke-width:1.33333"
         d="m 85.333333,886.66667 c 0,-34.40186 0.111774,-36 2.517848,-36 3.352527,0 98.000939,-7.83792 104.815489,-8.67987 5.39624,-0.66671 77.56417,-5.10524 118,-7.25732 21.47848,-1.14313 146.07256,-0.69701 156.66666,0.56096 2.93334,0.34831 18.23334,1.26313 34,2.03293 C 517.1,838.09317 533.6,838.9924 538,839.32165 c 4.4,0.32926 13.25,0.94788 19.66667,1.37472 l 11.66666,0.77607 0.10534,-24.40288 c 0.0579,-13.4216 0.43056,-23.58487 0.82816,-22.58507 0.3976,0.99982 0.28401,24.09982 -0.2524,51.33334 l -0.97538,49.5155 -31.51952,-0.66666 c -38.80222,-0.82071 -135.60974,-0.45444 -144.78674,0.5478 -3.70304,0.4044 -18.43279,1.37668 -32.73279,2.16061 -14.3,0.78392 -32.6,1.99381 -40.66667,2.68863 -45.74266,3.94006 -62.62533,5.44813 -74,6.61018 -6.96666,0.71174 -27.66666,2.78123 -46,4.59888 -18.33333,1.81766 -38.13333,3.94451 -44,4.72634 -15.45413,2.0595 -60.587862,6.6305 -65.666663,6.65049 l -4.333334,0.0171 z"
         id="path1718" />
      <path
         style="fill:#92c4d5;stroke-width:1.33333"
         d="m 95,1001.7836 -9.666667,-3.33916 V 960.8544 923.26436 l 31.443397,-3.07808 c 17.29387,-1.69293 35.14387,-3.62848 39.66667,-4.3012 4.5228,-0.67272 23.52327,-2.72848 42.22327,-4.56836 18.7,-1.83988 39.7,-3.92835 46.66666,-4.64105 11.37386,-1.16356 28.19119,-2.6662 74,-6.61196 C 327.4,899.36889 345.7,898.159 360,897.37508 c 14.3,-0.78393 29.02975,-1.75621 32.73279,-2.16061 9.17882,-1.00244 105.96544,-1.36832 144.90761,-0.5478 l 31.64039,0.66666 0.49198,-24 c 0.27059,-13.2 0.24943,4.18298 -0.0471,38.62884 -0.29646,34.44587 -0.65602,62.7324 -0.79904,62.85898 -0.14303,0.12653 -14.06006,0.5992 -30.92672,1.05025 -58.80702,1.57268 -96.27262,3.09328 -118,4.78921 -8.43334,0.65827 -22.53334,1.54378 -31.33334,1.9678 -8.8,0.42402 -20.8,1.35846 -26.66666,2.07654 -5.86667,0.71808 -23.26667,2.22405 -38.66667,3.34658 -15.4,1.12255 -33.1,2.6361 -39.33333,3.36343 -11.12314,1.29792 -34.1628,3.39599 -108.66667,9.89556 -20.53333,1.79128 -43.20484,3.87918 -50.38112,4.63988 -17.26787,1.8302 -18.67612,1.7284 -29.952213,-2.1668 z"
         id="path1716" />
      <path
         style="fill:#8ec0d2;stroke-width:1.33333"
         d="m 327.33333,1082.1932 c -6.6,-2.4165 -59.1,-20.5486 -116.66666,-40.2934 L 106,1006 l 15.33333,-1.6578 c 8.43334,-0.9118 32.43334,-3.1492 53.33334,-4.97201 74.62645,-6.50859 98.1582,-8.65124 109.33333,-9.95523 6.23333,-0.72733 23.93333,-2.24088 39.33333,-3.36343 15.4,-1.12253 32.8,-2.62508 38.66667,-3.33897 5.86667,-0.71388 17.56667,-1.63931 26,-2.05649 8.43333,-0.41718 23.13333,-1.31748 32.66667,-2.00067 29.30996,-2.10044 39.03066,-2.53573 76.82254,-3.44016 20.08094,-0.48057 38.01079,-1.03219 39.84412,-1.22581 1.83334,-0.19362 9.78334,-0.42046 17.66667,-0.50407 l 14.33333,-0.15203 0.29116,-25.66666 c 0.26308,-23.19142 0.33702,-23.93078 0.76654,-7.66667 0.26146,9.9 0.0609,42.69295 -0.4456,72.8732 l -0.92098,54.8732 -6.63021,0.051 c -3.64663,0.028 -12.12712,0.672 -18.84556,1.4305 -6.71844,0.7585 -22.99983,2.0402 -36.18087,2.8481 -13.18104,0.808 -24.2936,1.6718 -24.69458,1.9196 -0.40099,0.2478 -6.4165,0.836 -13.36782,1.3071 -6.9513,0.471 -14.43874,1.0775 -16.63874,1.3477 -2.2,0.2701 -10.3,0.9158 -18,1.4348 -7.7,0.519 -14.9,1.1036 -16,1.299 -4.22724,0.7511 -16.02311,1.9236 -33.33334,3.3132 -9.9,0.7948 -21,1.714 -24.66666,2.0426 -21.77803,1.9521 -20.85184,2.0229 -33.33334,-2.5471 z M 84.426765,360 c 0,-4.76667 0.241994,-6.71667 0.537763,-4.33333 0.295768,2.38333 0.295768,6.28333 0,8.66666 -0.295769,2.38334 -0.537763,0.43334 -0.537763,-4.33333 z"
         id="path1714" />
      <path
         style="fill:#93f493;stroke-width:1.33333"
         d="m 1308.6761,432.01527 c -0.4671,-0.75582 0.068,-0.97934 1.2546,-0.52402 2.3099,0.88639 2.7326,1.84208 0.8147,1.84208 -0.6901,0 -1.6213,-0.59313 -2.0693,-1.31806 z M 1071.75,349.75585 c 0.9625,-0.38516 2.1125,-0.3378 2.5556,0.1052 0.443,0.44306 -0.3445,0.75819 -1.75,0.7003 -1.5533,-0.064 -1.8692,-0.37992 -0.8056,-0.80555 z"
         id="path1712" />
      <path
         style="fill:#8bbed0;stroke-width:1.33333"
         d="m 453.65716,1125.8977 c -124.4994,-42.7141 -113.79249,-38.7658 -107.62105,-39.6866 2.91346,-0.4347 9.49722,-1.118 14.63056,-1.5183 32.60768,-2.5431 52.66686,-4.3585 58,-5.2494 1.83333,-0.3063 9.33333,-0.9537 16.66666,-1.4387 7.33334,-0.485 15.13334,-1.0986 17.33334,-1.3636 2.2,-0.2649 9.68744,-0.867 16.63874,-1.3381 6.95132,-0.4711 12.96683,-1.0592 13.36782,-1.3071 0.40098,-0.2478 11.51354,-1.1116 24.69458,-1.9195 13.18104,-0.808 29.46243,-2.0896 36.18087,-2.8482 6.71844,-0.7585 15.26844,-1.4027 19,-1.4316 l 6.78465,-0.053 0.27419,-27.5387 c 0.15079,-15.1463 0.49932,-22.1387 0.77451,-15.5387 0.27518,6.6 0.0819,37.3097 -0.42956,68.2438 l -0.9299,56.2439 -8.84461,0.7644 c -4.86455,0.4204 -13.19891,1.2338 -18.5208,1.8075 l -9.67619,1.0432 -78.32381,-26.8718 z M 84.579552,401.33333 c 0,-18.7 0.187527,-26.35 0.416727,-17 0.2292,9.35 0.2292,24.65 0,34 -0.2292,9.35 -0.416727,1.7 -0.416727,-17 z"
         id="path1710" />
      <path
         style="fill:#88bccd;stroke-width:1.33333"
         d="m 551.00456,1160.2468 c -9.71416,-3.4357 -17.66416,-6.6456 -17.66667,-7.133 -0.003,-0.4875 4.64544,-1.2591 10.32878,-1.7149 5.68333,-0.4557 13.77157,-1.1644 17.97385,-1.5749 l 7.64052,-0.7464 0.38745,-28.2055 c 0.37422,-27.2422 0.39788,-26.9418 0.69282,8.7946 0.16794,20.35 -0.14464,36.961 -0.69464,36.9134 -0.55,-0.048 -8.94795,-2.8976 -18.66211,-6.3333 z M 84.638659,554 c 8.1e-5,-66 0.162561,-92.80475 0.361066,-59.56611 0.198507,33.23864 0.19844,87.23864 -1.46e-4,120 C 84.800992,647.19525 84.638577,620 84.638659,554 Z"
         id="path1708" />
      <path
         style="fill:#7aafc3;stroke-width:1.33333"
         d="m 84.645788,836 c 0,-89.83333 0.159309,-126.58333 0.354021,-81.66667 0.194712,44.91667 0.194712,118.41667 0,163.33334 C 84.805097,962.58333 84.645788,925.83333 84.645788,836 Z"
         id="path1706" />
      <path
         style="fill:#71a6ba;stroke-width:1.33333"
         d="m 571.04801,526 c 0.0107,-3.66667 0.26896,-5.00841 0.57543,-2.98167 0.30648,2.02675 0.29828,5.02675 -0.0181,6.66667 -0.31648,1.63992 -0.56723,-0.0184 -0.55723,-3.685 z"
         id="path1704" />
      <path
         style="fill:#6598ae;stroke-width:1.33333"
         d="m 571.25519,570 c 6.2e-4,-21.26667 0.18472,-29.77996 0.40909,-18.91844 0.22437,10.86153 0.22385,28.26153 -10e-4,38.66667 -0.22501,10.40514 -0.40858,1.51844 -0.40794,-19.74823 z"
         id="path1702" />
      <path
         style="fill:#5a8ea4;stroke-width:1.33333"
         d="m 571.30472,724.66667 c -8e-5,-64.53334 0.1626,-91.12848 0.36151,-59.10034 0.1989,32.02815 0.19897,84.82815 1.6e-4,117.33334 -0.19883,32.50518 -0.36158,6.30033 -0.36167,-58.233 z"
         id="path1700" />
      <path
         style="fill:#45e845;stroke-width:1.33333"
         d="m 916.11208,582.14896 c 1.25112,-1.31349 65.19111,-23.7124 288.55462,-101.08399 57.2,-19.81369 107.15,-37.12658 111,-38.47312 l 7,-2.44822 v 39.23293 39.23293 l -3.3077,-1.50709 c -1.8193,-0.82889 -3.6425,-2.56185 -4.0517,-3.851 -1.2124,-3.81992 -4.1192,-5.56777 -6.8695,-4.1306 -1.3408,0.70064 -8.1378,2.27977 -15.1045,3.50917 -6.9666,1.2294 -15.6666,2.89132 -19.3333,3.69316 -3.6667,0.80184 -8.1667,1.64855 -10,1.88156 -11.2316,1.42754 -22.1057,3.19842 -24.5274,3.99438 -1.5433,0.50724 -4.9059,1.09226 -7.4726,1.30006 -2.5667,0.20782 -13.5419,1.69323 -24.3894,3.30092 -20.9575,3.10612 -24.9503,2.81406 -34.9439,-2.5561 -2.6547,-1.4265 -7.1392,-2.11851 -13.3334,-2.05751 -18.2664,0.17991 -26.6826,2.20375 -77.9204,18.73751 -21.5896,6.96668 -51.9951,15.86156 -67.5678,19.7664 -15.5727,3.90485 -35.10849,9.20982 -43.41287,11.78884 -8.30439,2.57902 -20.1989,5.59174 -26.43223,6.69496 -14.00376,2.47845 -28.93191,4.07084 -27.88792,2.97481 z"
         id="path1698" />
      <path
         style="fill:#51849a;stroke-width:1.33333"
         d="m 571.31039,988.66667 c 5e-5,-81.4 0.16029,-114.50388 0.35609,-73.56419 0.1958,40.93969 0.19576,107.53972 -9e-5,148.00002 -0.19586,40.4603 -0.35606,6.9642 -0.356,-74.43583 z"
         id="path1696" />
      <path
         style="fill:#42e542;stroke-width:1.33333"
         d="m 837.33333,617.57384 c 0,-7.6042 0.42312,-9.45664 2.33334,-10.21553 2.42081,-0.96176 73.84965,-25.77798 77.56273,-26.9473 1.84653,-0.5815 1.85925,-0.4746 0.10387,0.87382 -5.14155,3.94969 31.69956,-2.15984 53.09889,-8.80564 8.30439,-2.57902 27.84017,-7.88399 43.41284,-11.78884 15.5727,-3.90484 45.9782,-12.79972 67.5678,-19.7664 51.2378,-16.53376 59.654,-18.5576 77.9205,-18.73751 6.1942,-0.0609 10.6786,0.63101 13.3333,2.05751 9.9936,5.37016 13.9864,5.66222 34.9439,2.5561 10.8475,-1.60769 21.8228,-3.0931 24.3894,-3.30092 2.5667,-0.2078 5.9294,-0.79282 7.4726,-1.30006 2.4217,-0.79596 13.2958,-2.56684 24.5274,-3.99438 1.8334,-0.23301 6.3334,-1.07972 10,-1.88156 3.6667,-0.80184 12.3667,-2.46376 19.3334,-3.69316 6.9666,-1.2294 13.7636,-2.80853 15.1044,-3.50917 2.7503,-1.43717 5.6572,0.31068 6.8696,4.1306 0.4091,1.28915 2.2451,3.02789 4.0798,3.86387 l 3.336,1.51996 -0.3616,26.33174 c -0.3343,24.3452 -0.5466,26.3673 -2.8138,26.80306 -1.3488,0.25922 -3.8483,-0.8401 -5.5544,-2.44294 -2.6865,-2.52382 -3.6977,-2.72833 -7.5477,-1.52649 -2.4451,0.76327 -9.2457,2.37236 -15.1123,3.57576 -11.0895,2.27475 -30.2022,6.36519 -40.8091,8.73385 -20.3877,4.55286 -33.4888,5.24014 -37.127,1.94767 -1.2506,-1.13184 -3.1432,-2.05788 -4.2056,-2.05788 -1.0624,0 -3.2222,-0.90393 -4.7995,-2.00873 -2.3957,-1.678 -4.4751,-1.77799 -12.63,-0.60727 -5.3692,0.7708 -12.1622,1.69628 -15.0955,2.0566 -2.9333,0.36033 -6.8333,0.89224 -8.6667,1.18201 -1.8333,0.28978 -6.0333,0.8669 -9.3333,1.2825 -3.3,0.4156 -9.9,1.34273 -14.6667,2.06032 -4.7666,0.71757 -17.6666,2.2367 -28.6666,3.37585 -11,1.13915 -25.1,2.63092 -31.3334,3.31507 -16.9125,1.85622 -39.4442,3.52837 -63.3333,4.70014 -6.6,0.32374 -17.1,0.94299 -23.33333,1.37612 -6.23334,0.43312 -24.83334,0.97776 -41.33334,1.21031 -16.5,0.23255 -32.4,0.85956 -35.33333,1.39339 -4.78645,0.87105 -22.06348,5.69372 -57.32589,16.00182 -6.59591,1.92816 -15.14591,5.3099 -19,7.51499 l -7.00738,4.00925 z"
         id="path1694" />
      <path
         style="fill:#3de13d;stroke-width:1.33333"
         d="m 837.41175,650.43119 -0.0784,-23.56882 7.00744,-4.00925 c 3.8541,-2.20509 12.4041,-5.58683 19,-7.51499 35.26242,-10.3081 52.53944,-15.13077 57.3259,-16.00182 C 923.6,598.80248 939.5,598.17547 956,597.94292 c 16.5,-0.23255 35.1,-0.77719 41.33333,-1.21031 6.23337,-0.43313 16.73337,-1.05238 23.33337,-1.37612 23.8891,-1.17177 46.4208,-2.84392 63.3333,-4.70014 6.2333,-0.68415 20.3333,-2.17592 31.3333,-3.31507 11,-1.13915 23.9,-2.65828 28.6667,-3.37585 4.7667,-0.71759 11.3667,-1.64472 14.6667,-2.06032 3.3,-0.4156 7.5,-0.99272 9.3333,-1.2825 1.8333,-0.28977 5.7333,-0.82168 8.6667,-1.18201 2.9333,-0.36032 9.7263,-1.2858 15.0954,-2.0566 8.155,-1.17072 10.2344,-1.07073 12.6301,0.60727 1.5773,1.1048 3.7371,2.00873 4.7995,2.00873 1.0624,0 2.9549,0.92604 4.2056,2.05788 3.6381,3.29247 16.7393,2.60519 37.127,-1.94767 10.6069,-2.36866 29.7196,-6.4591 40.809,-8.73385 5.8667,-1.2034 12.6672,-2.81249 15.1123,-3.57576 3.8623,-1.20564 4.86,-0.99855 7.6027,1.57808 2.0241,1.90157 4.1494,2.70631 5.9226,2.24259 2.7178,-0.71071 2.7593,-0.38454 2.3974,18.81101 -0.3345,17.74192 -0.5933,19.57744 -2.8206,20.00499 -1.3487,0.2589 -3.8338,-0.82711 -5.5223,-2.41338 -3.346,-3.14338 -1.5859,-3.31364 -22.0254,2.13047 -4.0333,1.07428 -11.2333,2.80312 -16,3.84187 -4.7667,1.03874 -15.5667,3.41924 -24,5.28998 -15.7399,3.49155 -62.7881,12.28724 -85.3333,15.95315 -26.7736,4.35343 -85.5329,12.38779 -98.6667,13.49103 -4.0333,0.3388 -11.5333,1.17156 -16.6667,1.85056 -5.1333,0.67901 -10.2333,1.23912 -11.3333,1.24468 -2.3503,0.012 -18.8617,1.16816 -29.3333,2.05416 -44.34962,3.75242 -65.57118,4.66782 -147.18485,6.34885 -14.22953,0.29309 -14.60062,0.38016 -18.66666,4.37928 -2.2817,2.24412 -4.86324,5.2754 -5.73678,6.73616 -1.27081,2.12507 -1.60393,-2.05484 -1.66666,-20.91289 z M 598.33333,534.32599 c -14.81318,-2.55115 -15.66666,-2.86959 -15.66666,-5.84539 0,-1.731 0.56062,-3.14727 1.24582,-3.14727 1.395,0 32.43959,10.7186 33.30974,11.50067 0.8664,0.77872 -2.06298,0.38977 -18.8889,-2.50801 z"
         id="path1692" />
      <path
         style="fill:#39e139;stroke-width:1.33333"
         d="m 837.33333,709.38553 c 0,-34.39689 0.0344,-34.82646 3.19678,-39.83586 5.0146,-7.94364 7.69904,-9.0125 23.46989,-9.34487 83.80608,-1.76621 102.12225,-2.55611 146.6667,-6.32501 10.4716,-0.886 26.983,-2.04227 29.3333,-2.05416 1.1,-0.005 6.2,-0.56567 11.3333,-1.24468 5.1334,-0.679 12.6334,-1.51176 16.6667,-1.85056 13.1338,-1.10324 71.8931,-9.1376 98.6667,-13.49103 22.5452,-3.66591 69.5934,-12.4616 85.3333,-15.95315 8.4333,-1.87074 19.2333,-4.25124 24,-5.28998 4.7667,-1.03875 11.9667,-2.76759 16,-3.84187 20.4643,-5.45071 18.6709,-5.28185 22.0803,-2.07888 1.9773,1.85752 4.1278,2.67344 5.8557,2.2216 2.7037,-0.70703 2.7307,-0.34741 2.7307,36.35176 0,33.26441 -0.2264,37.15272 -2.2073,37.91287 -1.3376,0.51328 -3.3973,-0.27092 -5.2275,-1.99034 -2.9743,-2.79425 -3.1585,-2.80373 -12.1261,-0.62445 -5.0082,1.21709 -10.9058,2.73761 -13.1058,3.37893 -14.7736,4.30662 -43.406,11.58439 -62,15.75914 -33.7231,7.57153 -63.5935,13.58168 -67.5008,13.58168 -1.5616,0 -3.5321,-0.83474 -4.3788,-1.85496 -0.8467,-1.02023 -3.3202,-2.22023 -5.4966,-2.66667 -2.1764,-0.44644 -5.9071,-1.1946 -8.2905,-1.66257 -2.3833,-0.46798 -4.7614,-1.51798 -5.2847,-2.33334 -1.3285,-2.07013 -9.8203,-1.7804 -27.7153,0.94566 -49.6612,7.56516 -56.0339,8.08637 -58.095,4.75148 -0.4009,-0.64878 -1.6001,-1.1796 -2.6649,-1.1796 -1.0647,0 -4.4793,-1.15884 -7.5879,-2.57519 -7.4033,-3.37305 -17.8046,-6.75815 -20.7654,-6.75815 -1.2944,0 -2.9234,-0.56558 -3.6201,-1.25686 -1.0574,-1.04922 -6.7215,-2.77028 -14.9468,-4.54163 -0.9241,-0.19901 -2.39412,-1.07576 -3.26669,-1.94833 C 997.51392,692.71392 995.79328,692 994.56283,692 c -1.23044,0 -4.26044,-0.84268 -6.73334,-1.87261 -2.47288,-1.02994 -7.19616,-1.68252 -10.49616,-1.45018 -15.02652,1.05799 -30.87486,2.08176 -40.66666,2.627 -37.82226,2.10604 -42.15304,2.18983 -46.26167,0.89492 -2.42275,-0.76356 -6.27228,-1.65536 -8.55452,-1.98176 -2.28224,-0.32641 -5.35335,-1.23773 -6.82469,-2.02517 -1.47134,-0.78744 -3.00267,-1.10421 -3.40295,-0.70393 -0.40028,0.40028 -2.11619,-0.0153 -3.81313,-0.92344 -3.48827,-1.86687 -11.32951,-2.80771 -14.76339,-1.77139 -1.33428,0.40267 -2.65481,2.65071 -3.16989,5.39633 -0.48558,2.58838 -2.22944,6.1591 -3.87524,7.93495 -3.1703,3.4208 -3.80968,7.10424 -5.48138,31.57779 -1.66124,24.32037 -3.18648,14.59541 -3.18648,-20.31698 z m -13.04662,-75.02146 c -0.22611,-4.97044 -0.95252,-6.73886 -3.43678,-8.3666 -1.73253,-1.1352 -21.98253,-8.37306 -45,-16.08412 C 752.83247,602.20228 729.2,594.12583 723.33333,591.96568 690.74048,579.96473 587.20669,544 585.25171,544 c -3.05962,0 -3.91838,-2.65384 -3.91838,-12.10905 0,-6.6664 0.3621,-7.87462 2.33334,-7.78568 1.39392,0.0629 1.66232,0.37601 0.66666,0.77777 -0.91666,0.36988 -1.66666,2.02827 -1.66666,3.68529 0,2.82054 1.07042,3.19098 16.77529,5.80536 9.22641,1.53592 17.62641,2.46598 18.66667,2.06679 1.04025,-0.39917 1.89137,-0.19016 1.89137,0.46449 0,0.65464 1.05,1.20844 2.33333,1.23064 2.66948,0.0461 200.45247,68.39088 202.04424,69.81718 0.57434,0.51462 0.85335,8.08578 0.62004,16.82478 -0.2333,8.739 -0.55321,13.05292 -0.7109,9.5865 z"
         id="path1690" />
      <path
         style="fill:#38de38;stroke-width:1.33333"
         d="m 837.33333,754.07869 c 0,-5.45672 0.51662,-10.2406 1.14803,-10.63084 0.63141,-0.39022 1.54872,-6.57564 2.03845,-13.74534 1.6717,-24.47355 2.31108,-28.15699 5.48138,-31.57779 1.6458,-1.77585 3.38966,-5.34657 3.87524,-7.93495 0.51508,-2.74562 1.83561,-4.99366 3.16989,-5.39633 3.43388,-1.03632 11.27512,-0.0955 14.76339,1.77139 1.69694,0.90817 3.41285,1.32372 3.81313,0.92344 0.40028,-0.40028 1.93161,-0.0835 3.40295,0.70393 1.47134,0.78744 4.54245,1.69876 6.82469,2.02517 2.28224,0.3264 6.13177,1.2182 8.55452,1.98176 4.10863,1.29491 8.43941,1.21112 46.26167,-0.89492 9.7918,-0.54524 25.64014,-1.56901 40.66666,-2.627 3.3,-0.23234 8.02328,0.42024 10.49616,1.45018 2.4729,1.02993 5.5029,1.87261 6.73334,1.87261 1.23045,0 2.95109,0.71392 3.82368,1.58651 0.87257,0.87257 2.34259,1.74932 3.26669,1.94833 8.2253,1.77135 13.8894,3.49241 14.9468,4.54163 0.6967,0.69128 2.3257,1.25686 3.6201,1.25686 2.9608,0 13.3621,3.3851 20.7654,6.75815 3.1086,1.41635 6.5232,2.57519 7.5879,2.57519 1.0648,0 2.264,0.53082 2.6649,1.1796 2.0611,3.33489 8.4338,2.81368 58.095,-4.75148 17.895,-2.72606 26.3868,-3.01579 27.7153,-0.94566 0.5233,0.81536 2.7514,1.82411 4.9514,2.24166 7.272,1.3802 11.9617,2.92138 14.9913,4.9266 2.8401,1.87977 2.4019,2.09734 -8.6667,4.30316 -11.8413,2.35982 -63.249,10.96932 -72.9913,12.2242 -2.9333,0.37784 -13.7333,1.90216 -24,3.38738 -10.2666,1.48522 -25.1884,3.32452 -33.1594,4.08732 -7.9711,0.76282 -15.0071,1.70478 -15.6356,2.09324 -1.0433,0.64475 -22.41277,2.68036 -62.5383,5.9573 -8.43333,0.68872 -32.11515,2.17958 -52.62627,3.31304 -40.70101,2.24914 -41.34908,2.39968 -46.27497,10.74845 -1.48252,2.51268 -2.93623,4.56852 -3.23047,4.56852 -0.29422,0 -0.53496,-4.46459 -0.53496,-9.92131 z m -14.5646,-111.76942 c -0.82337,-2.49484 -3.13317,-6.06196 -5.13289,-7.92692 -3.30628,-3.08348 -5.02569,-3.4717 -18.96917,-4.28292 -8.43334,-0.49066 -18.03334,-1.1489 -21.33334,-1.46276 -3.3,-0.31386 -14.7,-1.18924 -25.33333,-1.94528 -21.39263,-1.52103 -40.90279,-3.14863 -72,-6.00643 -11.36667,-1.04459 -25.46667,-2.27289 -31.33333,-2.72956 -18.11319,-1.40999 -65.2371,-6.08137 -65.6651,-6.50939 -0.22286,-0.22286 -0.69441,-16.23938 -1.04786,-35.59228 -0.35346,-19.35288 -0.28764,-34.43706 0.14626,-33.5204 0.43391,0.91667 1.83799,1.66667 3.12019,1.66667 1.97853,0 105.26039,35.86901 138.11317,47.96568 5.86667,2.16015 29.49914,10.2366 52.5166,17.94767 23.01747,7.71106 43.17643,14.88926 44.79768,15.95156 2.3828,1.56126 3.10915,3.65972 3.78984,10.94906 0.96582,10.34267 0.46996,11.97556 -1.66872,5.4953 z m 500.39667,-185.6426 c 0,-8.06667 0.2226,-11.19476 0.488,-6.95132 0.2654,4.24344 0.263,10.84344 -0.01,14.66666 -0.2684,3.82323 -0.4856,0.35132 -0.4825,-7.71534 z"
         id="path1688" />
      <path
         style="fill:#47768d;stroke-width:1.33333"
         d="m 571.17568,1151.3333 c 0.003,-8.8 0.21843,-12.2265 0.47953,-7.6144 0.26111,4.6121 0.25896,11.8121 -0.005,16 -0.26375,4.1879 -0.47737,0.4144 -0.47475,-8.3856 z"
         id="path1686" />
      <path
         style="fill:#34e034;stroke-width:1.33333"
         d="m 1102.0913,801.48104 c -0.403,-0.65209 -2.212,-1.55688 -4.0199,-2.01064 -1.8079,-0.45376 -4.9636,-1.53747 -7.0126,-2.40823 -2.049,-0.87077 -4.3255,-1.67397 -5.0588,-1.78489 -0.7333,-0.11093 -2.2333,-0.54616 -3.3333,-0.96717 -1.1,-0.42103 -4.7,-1.64319 -8,-2.71591 -3.8588,-1.25436 -5.2863,-2.23535 -4,-2.74887 1.6975,-0.67772 44.7854,-8.86538 58.4052,-11.0983 l 4.4052,-0.72223 -3.6284,-1.88245 c -1.9956,-1.03535 -4.278,-1.66342 -5.0719,-1.3957 -0.7939,0.26772 -3.4117,-0.61576 -5.8174,-1.96328 -2.4056,-1.34752 -5.2637,-2.45004 -6.3514,-2.45004 -1.0876,0 -3.0194,-0.56376 -4.2928,-1.2528 -1.2733,-0.68904 -3.9232,-1.58993 -5.8886,-2.002 -1.9654,-0.41206 -4.4726,-1.6483 -5.5715,-2.7472 -1.0989,-1.0989 -2.7908,-1.99502 -3.7599,-1.9914 -2.0356,0.008 -13.9923,-3.77016 -17.4104,-5.50093 -1.2734,-0.64479 -2.9827,-1.17233 -3.7985,-1.17233 -0.8158,0 -3.674,-1.05 -6.3515,-2.33334 L 1060.6667,750 l 8,-0.88773 c 4.4,-0.48826 9.5,-1.25876 11.3333,-1.71224 1.8333,-0.45347 7.5333,-1.39187 12.6667,-2.08531 5.1333,-0.69345 14.7333,-2.15167 21.3333,-3.24048 6.6,-1.08881 12.3,-2.01279 12.6667,-2.05325 0.3666,-0.0405 -4.4334,-1.84472 -10.6667,-4.00942 -6.2333,-2.16469 -12.5144,-4.6398 -13.958,-5.50024 -1.4435,-0.86044 -4.1435,-1.97094 -6,-2.46778 -2.4038,-0.64334 1.0382,-1.57736 11.958,-3.24495 15.8864,-2.42604 60.5545,-10.84143 82.6667,-15.57424 29.8052,-6.37941 46.4194,-10.11565 53.3333,-11.99368 2.5667,-0.6972 8.2667,-2.10583 12.6667,-3.13029 7.7092,-1.79498 25.0435,-6.358 33.3333,-8.77454 2.2,-0.64132 8.0976,-2.16184 13.1058,-3.37893 8.9676,-2.17928 9.1518,-2.1698 12.1261,0.62445 1.8302,1.71942 3.8899,2.50362 5.2275,1.99034 2.0278,-0.77816 2.2073,2.89114 2.2073,45.14013 0,44.4176 -0.088,46.01027 -2.5909,46.66468 -1.54,0.40271 -3.5168,-0.34547 -4.8734,-1.84449 -2.4665,-2.72552 -7.1843,-3.27442 -10.8872,-1.26668 -5.9218,3.21086 -33.9571,10.81578 -35.4239,9.60918 -0.8569,-0.7049 -4.558,-1.71448 -8.2246,-2.2435 -3.6667,-0.52904 -7.8667,-1.61392 -9.3334,-2.41087 -8.2558,-4.48601 -23.7646,-3.36005 -50,3.63008 -20.4046,5.43657 -35.9236,9.04048 -55.3333,12.84981 -9.0931,1.7846 -25.0774,5.22495 -30.6667,6.60047 -6.7057,1.65028 -12.2902,1.73064 -13.242,0.19052 z M 837.73288,790.66667 c 0,-4.03334 0.24996,-5.68334 0.55545,-3.66667 0.30551,2.01667 0.30551,5.31667 0,7.33333 -0.30549,2.01667 -0.55545,0.36667 -0.55545,-3.66666 z m -13.42355,-61.33334 c 0,-2.56666 0.2744,-3.61666 0.60978,-2.33333 0.33536,1.28333 0.33536,3.38333 0,4.66667 -0.33538,1.28333 -0.60978,0.23333 -0.60978,-2.33334 z m -0.70346,-40 c -0.58344,-7.7 -1.36398,-16.4 -1.73454,-19.33333 -0.52158,-4.12891 -0.3374,-4.88168 0.81556,-3.33333 1.11836,1.50188 1.2869,-0.65663 0.6767,-8.66667 -0.44694,-5.86667 -1.10512,-12.46667 -1.46266,-14.66667 l -0.65006,-4 2.06762,4.54919 c 1.69592,3.73136 2.00296,9.48411 1.70791,32 -0.34043,25.97713 -0.41668,26.69923 -1.42053,13.45081 z m 1.71245,-72.93953 c -0.35841,-5.28341 -0.17071,-9.12247 0.41711,-8.53124 0.58781,0.59123 0.88106,4.91401 0.65165,9.6062 L 825.96997,626 Z"
         id="path1684" />
      <path
         style="fill:#35dd35;stroke-width:1.33333"
         d="m 837.63123,797.2974 c 0.17241,-28.55629 0.40896,-31.48264 2.94478,-36.42927 5.08227,-9.91394 5.12762,-9.92578 46.75732,-12.20338 20.53334,-1.1234 44.23334,-2.60604 52.66667,-3.29476 40.12553,-3.27694 61.495,-5.31255 62.5383,-5.9573 0.6285,-0.38846 7.6645,-1.33042 15.6356,-2.09324 7.971,-0.7628 22.8928,-2.59582 33.1594,-4.07336 43.7377,-6.29458 44.3647,-6.33634 49.6422,-3.30706 2.0301,1.16532 8.7912,3.89392 15.0245,6.06356 6.2333,2.16964 11.0333,3.97792 10.6667,4.0184 -0.3667,0.0404 -6.0667,0.96444 -12.6667,2.05325 -6.6,1.08881 -16.2,2.54703 -21.3333,3.24048 -5.1334,0.69344 -10.8334,1.63184 -12.6667,2.08531 -1.8333,0.45348 -6.9333,1.22398 -11.3333,1.71224 l -8,0.88773 4.8681,2.33333 c 2.6775,1.28334 5.5357,2.33334 6.3515,2.33334 0.8158,0 2.5251,0.52754 3.7985,1.17233 3.4181,1.73077 15.3748,5.50855 17.4104,5.50093 0.9691,-0.004 2.661,0.8925 3.7599,1.9914 1.0989,1.0989 3.6061,2.33514 5.5715,2.7472 1.9654,0.41207 4.6153,1.31296 5.8886,2.002 1.2734,0.68904 3.2052,1.2528 4.2928,1.2528 1.0877,0 3.9458,1.10252 6.3514,2.45004 2.4057,1.34752 5.0235,2.231 5.8174,1.96328 0.7939,-0.26772 3.0763,0.36035 5.0719,1.3957 l 3.6284,1.88245 -4.4052,0.72225 c -2.4229,0.39724 -15.8052,2.865 -29.7386,5.48392 -28.1863,5.29792 -32.8806,6.08091 -65.3333,10.89724 -26.8118,3.97916 -27.2365,4.03802 -42.66667,5.91151 -6.6,0.80136 -16.2,2.08265 -21.33333,2.84729 -5.13333,0.76466 -11.43333,1.57066 -14,1.79111 -2.56667,0.22045 -11.26667,1.07681 -19.33333,1.90303 -8.06667,0.8262 -21.56667,2.08342 -30,2.79381 -8.43334,0.71039 -18.63334,1.58997 -22.66667,1.95465 -4.03333,0.36467 -13.03333,1.01107 -20,1.43644 -6.96667,0.42538 -14.12084,1.47704 -15.89817,2.33702 -1.77732,0.85998 -4.90248,4.19189 -6.94479,7.40425 l -3.71328,5.84064 z m -14.66287,-76.07995 c -0.93407,-2.63038 -2.86499,-6.03484 -4.29095,-7.56542 -2.89934,-3.11208 -3.34097,-3.1776 -42.67741,-6.33239 -45.07533,-3.61503 -86.45791,-7.28319 -112.66667,-9.98679 -13.93333,-1.4373 -37.62181,-3.86366 -52.64105,-5.3919 -15.01925,-1.52824 -27.54016,-3.01106 -27.82425,-3.29514 -0.28408,-0.28409 -0.6677,-22.89561 -0.85248,-50.24784 -0.18478,-27.35221 -0.0905,-44.4813 0.20949,-38.06464 0.3,6.41667 1.04263,11.66667 1.65031,11.66667 0.60766,0 13.0343,1.15357 27.61476,2.56349 14.58044,1.40994 31.30989,2.9384 37.17656,3.39662 5.86666,0.4582 20.26666,1.70232 32,2.7647 43.54832,3.94304 51.12389,4.57678 71.33333,5.96738 11.36667,0.78214 22.76667,1.65457 25.33333,1.93873 2.56667,0.28416 11.98402,0.94153 20.92744,1.46084 15.21502,0.88347 16.47662,1.16947 19.61683,4.44715 2.77139,2.8927 3.59511,5.58984 4.72828,15.48202 1.80552,15.7614 1.79831,19.2873 -0.034,16.64574 -1.02667,-1.48008 -1.21821,-0.61354 -0.73685,3.33333 1.63622,13.41592 3.67924,44.586 3.2772,50 l -0.44555,6 -1.69831,-4.78255 z M 1323.1965,489.33333 c 0,-10.63333 0.2071,-14.98333 0.4602,-9.66666 0.2531,5.31666 0.2531,14.01666 0,19.33333 -0.2531,5.31667 -0.4602,0.96667 -0.4602,-9.66667 z"
         id="path1682" />
      <path
         style="fill:#31dd31;stroke-width:1.33333"
         d="m 837.49483,858.66667 -0.14783,-30 3.4106,-5.33334 3.4106,-5.33333 -0.71469,6 c -0.39307,3.3 -1.65132,18.3 -2.7961,33.33333 -1.14476,15.03334 -2.2914,28.23334 -2.54806,29.33334 -0.25668,1.1 -0.5332,-11.5 -0.61452,-28 z m 313.17187,26.04642 c -3.3,-0.97232 -11.6591,-3.35412 -18.5757,-5.2929 -6.9166,-1.93879 -14.4166,-4.36788 -16.6667,-5.39799 -2.25,-1.03009 -10.991,-4.08705 -19.4243,-6.79323 -8.4333,-2.70617 -16.5333,-5.3848 -18,-5.9525 -4.7867,-1.8528 -15.8246,-5.41794 -24.5118,-7.91708 -8.6797,-2.49698 -15.3159,-5.01163 -24.8215,-9.40555 -2.9334,-1.35591 -8.3254,-3.14463 -11.9823,-3.97491 -3.6569,-0.83028 -7.2569,-2.00258 -8,-2.60513 -0.7431,-0.60255 -5.8511,-2.42649 -11.35107,-4.05323 -5.5,-1.62672 -11.59262,-4.08933 -13.53916,-5.47245 -1.94653,-1.38313 -4.72306,-2.51479 -6.17008,-2.51479 -1.447,0 -3.35344,-0.8706 -4.23652,-1.93465 -0.88309,-1.06405 -4.26394,-2.33329 -7.513,-2.82052 -3.24905,-0.48723 -6.2354,-1.41663 -6.63632,-2.06535 -0.40093,-0.6487 -2.45814,-1.17948 -4.57158,-1.17948 -2.11344,0 -4.18118,-0.54778 -4.59496,-1.21732 -0.41379,-0.66952 -3.2992,-1.63484 -6.41203,-2.14516 -3.11283,-0.5103 -6.57201,-1.73092 -7.68709,-2.71248 -1.11508,-0.98154 -3.47148,-2.31882 -5.23644,-2.97173 -2.46778,-0.91288 -0.30552,-1.42641 9.36074,-2.22317 19.21764,-1.58406 19.9251,-1.65884 29.90311,-3.16132 5.13333,-0.77298 14.73333,-2.06107 21.33333,-2.86243 22.42827,-2.7232 55.82567,-7.51219 66.74107,-9.57027 7.9014,-1.4898 12.6356,-0.75086 24.5923,3.83848 1.1,0.42222 2.6,0.85842 3.3333,0.96935 0.7333,0.11093 3.0224,0.91891 5.0868,1.79553 2.0644,0.87662 4.0737,1.59386 4.4652,1.59386 0.3914,0 2.8092,0.99533 5.3728,2.21185 4.9924,2.36907 4.8559,2.38276 29.7419,-2.98291 5.5,-1.18585 12.4,-2.62773 15.3333,-3.20418 19.5158,-3.83519 34.9354,-7.4164 55.3333,-12.85119 26.2354,-6.99013 41.7442,-8.11609 50,-3.63008 1.4667,0.79695 5.6667,1.88183 9.3334,2.41087 3.6666,0.52902 7.3677,1.5386 8.2246,2.2435 1.4668,1.2066 29.5021,-6.39832 35.4239,-9.60918 3.7029,-2.00774 8.4207,-1.45884 10.8872,1.26668 1.3566,1.49902 3.3334,2.2472 4.8734,1.84449 2.5297,-0.66153 2.5909,0.44023 2.5909,46.6558 0,45.54939 -0.096,47.35855 -2.5592,48.00257 -1.6097,0.42094 -3.5433,-0.4626 -5.2116,-2.38126 l -2.6524,-3.05052 -11.1217,3.86022 c -6.117,2.12314 -12.3218,4.47152 -13.7885,5.21866 -8.482,4.32085 -24.6685,6.6946 -27.9355,4.09674 -0.7688,-0.61133 -5.4415,-1.53146 -10.3838,-2.04474 -4.9423,-0.51328 -9.2788,-1.40714 -9.6368,-1.98635 -0.358,-0.57921 -4.3849,-1.47557 -8.9487,-1.99191 -4.5638,-0.51634 -9.338,-1.49544 -10.6092,-2.17578 -1.4738,-0.78874 -3.6717,-0.70226 -6.0653,0.23864 -3.6483,1.43409 -8.7081,2.90585 -40.1096,11.66686 -17.0309,4.75163 -15.0876,4.56239 -22.9777,2.23764 z M 823.59052,777.33333 c -1.60576,-26.00274 -5.66277,-51.40397 -8.81713,-55.20474 -1.44175,-1.7372 -7.77222,-3.24246 -17.44006,-4.1469 -14.9629,-1.39978 -20.41869,-2.08308 -21.38096,-2.6778 -0.92858,-0.57389 -5.0575,-1.4938 -17.95237,-3.99974 -1.46667,-0.28503 -6.86667,-0.83694 -12,-1.22647 -5.13333,-0.38952 -14.08379,-1.88968 -19.88991,-3.33368 -5.8061,-1.44399 -10.98681,-2.35953 -11.51266,-2.03453 -0.52587,0.32498 -3.2754,-0.30515 -6.11011,-1.40031 l -5.15399,-1.9912 7.33334,0.64625 c 10.78237,0.9502 35.84769,3.00792 65.33333,5.36351 37.52036,2.99748 39.77328,3.30271 42.18603,5.71544 5.43202,5.43204 6.27152,10.61193 6.85386,42.29017 0.659,35.84778 0.012,45.66664 -1.44937,22 z m 2.26511,-134.66666 c 0,-9.9 0.20989,-13.95 0.46644,-9 0.25654,4.95 0.25654,13.05 0,18 -0.25655,4.95 -0.46644,0.9 -0.46644,-9 z"
         id="path1680" />
      <path
         style="fill:#31d931;stroke-width:1.33333"
         d="m 837.3494,927.31348 c -0.0148,-29.55877 1.56052,-57.10524 5.42879,-94.92735 1.88368,-18.41762 1.74254,-18.29117 21.88848,-19.61128 8.06666,-0.52858 16.46666,-1.16908 18.66666,-1.42333 2.2,-0.25424 13.79296,-1.19341 25.76215,-2.08704 21.05736,-1.57216 21.87968,-1.53789 25.39121,1.05829 1.99599,1.47571 6.14988,3.10898 9.23087,3.62951 3.08099,0.52053 5.94036,1.49421 6.35415,2.16373 0.41378,0.66954 2.48152,1.21732 4.59496,1.21732 2.11344,0 4.17065,0.53078 4.57158,1.17948 0.40092,0.64872 3.38727,1.57812 6.63632,2.06535 3.24906,0.48723 6.62991,1.75647 7.513,2.82052 0.88308,1.06405 2.78952,1.93465 4.23652,1.93465 1.44702,0 4.22355,1.13166 6.17008,2.51479 1.94654,1.38312 8.03916,3.84573 13.53916,5.47245 5.49997,1.62674 10.60797,3.45068 11.35107,4.05323 0.7431,0.60255 4.3431,1.77485 8,2.60513 3.6569,0.83028 9.0489,2.619 11.9823,3.97491 9.5056,4.39392 16.1418,6.90857 24.8215,9.40555 8.7812,2.52617 19.8365,6.10085 24.5118,7.92576 1.4667,0.57248 9.8667,3.32716 18.6667,6.12149 8.8,2.79435 16.6,5.50636 17.3333,6.02671 1.7137,1.21594 19.8709,6.81332 32.3333,9.96746 5.3167,1.34562 9.6667,2.83064 9.6667,3.30008 0,0.7517 -21.4181,6.43687 -42.6667,11.32532 -4.0333,0.92791 -11.8333,2.7227 -17.3333,3.9884 -5.5,1.26571 -12.4,2.76934 -15.3333,3.34138 -2.9334,0.57205 -12.5334,2.62992 -21.3334,4.57305 -8.8,1.94313 -19.3,4.03781 -23.3333,4.65483 -4.0333,0.61702 -11.2333,2.09101 -16,3.27553 -4.7667,1.18452 -18.2667,3.70973 -30,5.61159 -11.73333,1.90185 -24.33333,3.95438 -28,4.56117 -44.14203,7.30491 -50.55968,7.94149 -53.22189,5.27928 C 908.05681,932.59015 905.82208,932 903.81203,932 c -2.01006,0 -4.02547,-0.6 -4.4787,-1.33333 -0.45322,-0.73334 -2.31253,-1.33334 -4.13181,-1.33334 -1.81927,0 -5.70443,-1.22269 -8.63369,-2.71709 -2.92928,-1.4944 -5.90947,-2.35647 -6.62266,-1.91569 -0.71318,0.44077 -2.97921,-0.39664 -5.0356,-1.86092 -2.05638,-1.46428 -5.50229,-3.09174 -7.65756,-3.61658 -2.15528,-0.52482 -5.10218,-1.76472 -6.54869,-2.75532 -1.44649,-0.99058 -4.61135,-1.80106 -7.033,-1.80106 -5.51947,0 -6.25431,1.74328 -8.48171,20.12146 -1.16554,9.61688 -2.60198,15.41664 -4.7472,19.16728 l -3.07596,5.37792 -0.016,-32.01985 z M 823.08423,880 c -0.87035,-4.03333 -2.27899,-13.41107 -3.13034,-20.83943 -2.369,-20.67082 -1.39018,-19.77665 -21.99326,-20.09164 -9.51168,-0.14542 -20.89396,-0.54036 -25.29396,-0.87762 -4.4,-0.33727 -15.27503,-0.997 -24.16674,-1.4661 -25.104,-1.32437 -41.35954,-2.81561 -46.22233,-4.24033 -1.314,-0.38499 -6.114,-0.67689 -10.66667,-0.64871 -4.55268,0.0281 -13.9776,-0.54718 -20.94426,-1.27862 -12.46654,-1.30887 -32.27066,-3.26239 -46.66667,-4.60331 -4.03333,-0.37568 -14.71833,-1.20408 -23.74443,-1.84087 -9.0261,-0.63678 -16.77393,-1.52061 -17.21737,-1.96406 -0.44345,-0.44346 -0.92584,-36.05846 -1.07199,-79.14446 -0.14613,-43.086 -0.0257,-72.78818 0.26742,-66.00485 0.29321,6.78333 1.05866,12.33333 1.70101,12.33333 1.2486,0 33.92171,3.31774 86.43111,8.7765 17.80116,1.85057 34.81505,4.22884 37.80864,5.28504 2.99358,1.0562 5.87854,1.6511 6.41101,1.32202 0.53248,-0.32909 5.71859,0.58312 11.52469,2.02711 5.80612,1.444 14.75658,2.94416 19.88991,3.33368 5.13333,0.38953 10.53333,0.94144 12,1.22647 12.89487,2.50594 17.02379,3.42585 17.95237,3.99974 0.96227,0.59472 6.41806,1.27802 21.38096,2.6778 9.66784,0.90444 15.99831,2.4097 17.44006,4.1469 6.27741,7.56382 10.94672,64.26389 10.31073,125.20474 -0.36276,34.75879 -0.6248,39.03911 -1.99989,32.66667 z m 2.81912,-188 c 0,-16.5 0.1914,-23.25 0.42533,-15 0.23392,8.25 0.23392,21.75 0,30 -0.23393,8.25 -0.42533,1.5 -0.42533,-15 z m 10.40598,-80 c 0,-2.56667 0.2744,-3.61667 0.60978,-2.33333 0.33536,1.28333 0.33536,3.38333 0,4.66666 -0.33538,1.28334 -0.60978,0.23334 -0.60978,-2.33333 z m 486.94097,-68.66667 c -7e-4,-19.8 0.1848,-28.08586 0.4123,-18.41305 0.2275,9.67283 0.2281,25.87283 0,36 -0.2268,10.12719 -0.4129,2.21305 -0.4136,-17.58695 z"
         id="path1678" />
      <path
         style="fill:#2cd92c;stroke-width:1.33333"
         d="m 837.33333,1035.6342 c 0,-7.6437 0.57418,-13.165 1.42366,-13.69 0.99602,-0.6156 1.1437,3.0654 0.49165,12.2546 -0.51261,7.224 -1.15325,13.3845 -1.42365,13.6901 -0.27042,0.3055 -0.49166,-5.209 -0.49166,-12.2547 z m 254.15847,-5.9207 c -0.5755,-0.5758 -2.3466,-1.1598 -3.9358,-1.298 -6.2337,-0.5418 -14.2772,-2.8112 -17.5393,-4.9486 -1.8839,-1.2344 -3.982,-1.9004 -4.6623,-1.4799 -0.6804,0.4205 -3.4367,-0.1546 -6.1252,-1.2779 -2.6885,-1.1233 -5.8649,-2.0461 -7.0587,-2.0506 -1.1938,0 -3.8891,-0.9046 -5.9896,-2 -2.1005,-1.0955 -4.7098,-1.9918 -5.7985,-1.9918 -1.0887,0 -3.8701,-0.8444 -6.1809,-1.8764 -2.3108,-1.032 -7.8015,-2.8762 -12.2015,-4.0983 -4.4,-1.222 -9.8,-3.0569 -12,-4.0776 -2.2,-1.0206 -5.8,-2.2265 -8,-2.6797 -2.2,-0.4532 -5.8,-1.6295 -8,-2.61393 -9.13037,-4.08549 -13.78931,-5.98744 -14.66667,-5.98744 -0.51168,0 -3.094,-1.02673 -5.7385,-2.28162 l -4.80818,-2.28163 13.27335,-2.30649 c 7.30033,-1.26858 17.47333,-3.24812 22.6067,-4.39902 5.1333,-1.15088 11.6025,-2.4678 14.3759,-2.92648 4.7533,-0.78612 4.9182,-0.97141 2.8747,-3.22945 -1.1923,-1.31751 -3.0163,-2.06988 -4.0534,-1.67192 -1.037,0.39795 -3.9327,-0.24793 -6.4349,-1.43531 -2.5022,-1.18736 -6.4098,-2.5309 -8.6836,-2.98566 -2.2738,-0.45478 -4.45715,-1.34935 -4.85184,-1.98796 -0.39468,-0.63862 -2.0322,-1.16482 -3.63892,-1.16934 -1.60672,-0.004 -4.63989,-0.90452 -6.74039,-2 -2.10049,-1.09548 -4.80049,-1.99436 -6,-1.99749 -1.1995,-0.003 -4.88092,-1.80057 -8.18092,-3.99429 -3.3,-2.19372 -7.01458,-3.99115 -8.25464,-3.9943 -1.24005,-0.003 -2.62546,-0.6057 -3.07869,-1.33904 C 961.54677,952.6 960.00323,952 958.56988,952 c -1.43333,0 -3.94792,-0.69368 -5.58797,-1.54151 -6.51254,-3.36666 -7.73304,-3.79182 -10.88512,-3.79182 -1.80002,0 -3.57014,-0.48119 -3.9336,-1.0693 -0.36348,-0.58812 -3.73691,-1.90693 -7.49652,-2.9307 -3.75962,-1.02378 -7.13304,-2.34259 -7.49652,-2.93071 -0.36347,-0.58811 -2.05199,-1.06929 -3.75224,-1.06929 -1.70027,0 -3.78678,-0.8379 -4.6367,-1.86199 -1.24601,-1.50135 -0.95484,-1.86256 1.5034,-1.86496 2.6041,-0.003 18.54324,-2.41095 45.71539,-6.90756 3.66667,-0.60679 16.26667,-2.65932 28,-4.56117 11.7333,-1.90186 25.2333,-4.42707 30,-5.61159 4.7667,-1.18452 11.9667,-2.65851 16,-3.27553 4.0333,-0.61702 14.5333,-2.7083 23.3333,-4.6473 8.8,-1.93898 17.5,-3.81172 19.3334,-4.16161 3.4243,-0.65356 11.8132,-2.52539 29.3333,-6.54517 30.1621,-6.92034 96.2181,-24.67279 105.754,-28.4212 2.3936,-0.9409 4.5915,-1.02738 6.0653,-0.23864 1.2712,0.68034 6.0454,1.65944 10.6092,2.17578 4.5638,0.51634 8.5907,1.4127 8.9487,1.99191 0.358,0.57921 4.6945,1.47307 9.6368,1.98635 4.9423,0.51328 9.615,1.43341 10.3838,2.04474 3.267,2.59786 19.4535,0.22411 27.9355,-4.09674 1.4667,-0.74714 7.6715,-3.09552 13.7885,-5.21866 l 11.1217,-3.86022 2.6524,3.05052 c 1.6683,1.91866 3.6019,2.8022 5.2116,2.38126 2.4971,-0.65301 2.5592,0.88328 2.5592,63.34362 0,59.3614 -0.167,64.07693 -2.2982,64.89474 -2.205,0.84615 -5.7018,-2.19416 -5.7018,-4.95736 0,-1.65276 -8.216,0.26108 -10.7717,2.50916 -1.1577,1.01839 -2.9877,1.85162 -4.0667,1.85162 -1.0789,0 -2.5316,0.52752 -3.2283,1.17226 -1.1401,1.05517 -8.5468,3.77847 -11.9333,4.38777 -0.7334,0.132 -4.6334,1.8592 -8.6667,3.8384 -4.0333,1.9792 -12.1333,5.2624 -18,7.296 -5.8667,2.0336 -12.4667,4.6044 -14.6667,5.713 -2.2,1.1086 -5.8,2.4797 -8,3.0469 -2.2,0.5672 -6.4,1.9181 -9.3333,3.002 -3.69,1.3636 -5.8416,1.5509 -6.983,0.6081 -0.9073,-0.7495 -2.6334,-0.9853 -3.8357,-0.5239 -1.2023,0.4613 -2.9693,0.1887 -3.9267,-0.6059 -0.9574,-0.7946 -4.3314,-1.7238 -7.4977,-2.0649 -6.4338,-0.6932 -25.9987,-4.4052 -29.0902,-5.5193 -1.1,-0.3964 -2.9,-0.8997 -4,-1.1184 -1.1,-0.2188 -3.8,-0.7815 -6,-1.2507 -13.7631,-2.9347 -14.736,-2.7665 -54,9.3338 -13.2689,4.0892 -17.914,4.9932 -19.1749,3.7317 z M 837.54481,987.61355 c -0.19396,-25.42378 0.012,-28.15714 2.48228,-33 1.48158,-2.90412 2.8606,-5.28022 3.06451,-5.28022 0.20391,0 -0.37381,7.95 -1.28383,17.66667 -0.91001,9.71667 -2.19388,24.56667 -2.85302,33 -1.19488,15.2875 -1.1991,15.2505 -1.40994,-12.38645 z m -13.26809,-83.76079 c -0.1522,-4.84764 -0.59216,-11.74764 -0.97771,-15.33333 -0.57684,-5.36474 -0.45046,-5.9451 0.7135,-3.27671 0.7785,1.78476 1.21809,8.67877 0.9777,15.33333 -0.36705,10.16095 -0.48093,10.68391 -0.71349,3.27671 z m 1.43796,-112.51943 c 0.0107,-3.66666 0.26896,-5.00841 0.57543,-2.98166 0.30648,2.02674 0.29828,5.02674 -0.0181,6.66666 -0.31648,1.63992 -0.56722,-0.0183 -0.55722,-3.685 z m 0.17891,-44 c -10e-4,-14.66666 0.19362,-20.84858 0.43289,-13.73758 0.23927,7.11098 0.24024,19.11098 0.003,26.66666 -0.2381,7.55567 -0.43387,1.73759 -0.43504,-12.92908 z M 1323.2462,612 c 0,-18.7 0.1875,-26.35 0.4167,-17 0.2292,9.35 0.2292,24.65 0,34 -0.2292,9.35 -0.4167,1.7 -0.4167,-17 z"
         id="path1676" />
      <path
         style="fill:#2dd52d;stroke-width:1.33333"
         d="m 837.86279,1049.6667 c 0.44213,-5.3167 1.19014,-13.9554 1.66225,-19.1972 0.6802,-7.5522 0.50505,-9.3121 -0.8438,-8.4785 -1.33808,0.827 -1.51669,-0.4856 -0.83505,-6.1362 0.47693,-3.9535 1.45941,-16.18813 2.1833,-27.18813 1.65254,-25.11132 6.29306,-66.25464 7.97042,-70.66642 0.99878,-2.62702 2.20064,-3.33358 5.67041,-3.33358 2.42165,0 5.58651,0.81048 7.033,1.80106 1.44651,0.9906 4.39341,2.2305 6.54869,2.75532 2.15527,0.52484 5.60118,2.1523 7.65756,3.61658 2.05639,1.46428 4.32242,2.30169 5.0356,1.86092 0.71319,-0.44078 3.69338,0.42129 6.62266,1.91569 2.92926,1.4944 6.81442,2.71709 8.63369,2.71709 1.81928,0 3.67859,0.6 4.13181,1.33334 0.45323,0.73333 2.19646,1.33333 3.87384,1.33333 3.29982,0 10.92704,3.39312 12.17835,5.41776 0.42452,0.68691 2.20104,1.24891 3.94781,1.24891 1.74678,0 3.47335,0.48118 3.83682,1.06929 0.36348,0.58812 3.7369,1.90693 7.49652,2.93071 3.75961,1.02377 7.13304,2.34258 7.49652,2.9307 0.36346,0.58811 2.13358,1.0693 3.9336,1.0693 1.8,0 4.46458,0.6 5.9213,1.33333 1.45672,0.73333 3.84043,1.93333 5.29715,2.66667 1.45672,0.73333 3.82131,1.33333 5.25464,1.33333 1.43335,0 2.97689,0.6 3.43012,1.33333 0.45323,0.73334 1.83864,1.33591 3.07869,1.33904 1.24006,0.003 4.95464,1.80058 8.25464,3.9943 3.3,2.19372 6.98142,3.99114 8.18092,3.99429 1.19951,0.003 3.89951,0.90201 6,1.99749 2.1005,1.09548 5.13367,1.99548 6.74039,2 1.60672,0.004 3.24424,0.53072 3.63892,1.16934 0.39469,0.63861 2.57804,1.53318 4.85184,1.98796 2.2738,0.45476 6.1814,1.7983 8.6836,2.98566 2.5022,1.18738 5.3979,1.83326 6.4349,1.43531 1.0371,-0.39796 2.8611,0.35441 4.0534,1.67192 2.0435,2.25804 1.8786,2.44333 -2.8747,3.22945 -2.7734,0.45868 -9.2426,1.7756 -14.3759,2.92648 -5.13337,1.1509 -15.30637,3.13044 -22.6067,4.39902 l -13.27335,2.30649 4.80818,2.28163 c 2.6445,1.25489 5.22682,2.28162 5.7385,2.28162 0.87736,0 5.5363,1.90195 14.66667,5.98744 2.2,0.98443 5.8,2.16073 8,2.61393 2.2,0.4532 5.8,1.6688 8,2.7013 2.2,1.0325 6.8415,2.6403 10.3145,3.5728 3.4729,0.9326 5.8729,2.0904 5.3333,2.573 -0.5396,0.4826 -5.1811,1.8262 -10.3145,2.9857 -20.68418,4.672 -47.92251,10.4718 -54.43069,11.5897 -3.79644,0.6521 -15.60261,2.9794 -26.23594,5.1717 -10.63334,2.1924 -34.25056,6.4648 -52.48274,9.4944 -18.23217,3.0296 -33.83217,5.7752 -34.66666,6.1012 -0.8345,0.3261 -3.52902,3.4315 -5.98782,6.9008 l -4.47054,6.308 z m -14.28831,-38.6041 c -2.23191,-8.7273 -5.03121,-10.6183 -17.19964,-11.61917 -19.21393,-1.58034 -58.03653,-6.0539 -87.70817,-10.1067 -75.28638,-10.28324 -90.27356,-12.42914 -111.81643,-16.01025 -12.73237,-2.11652 -23.48752,-4.18599 -23.90035,-4.59881 -0.41281,-0.41282 -0.8565,-40.79543 -0.98597,-89.73912 -0.12947,-48.94371 -0.007,-81.68823 0.27383,-72.76563 l 0.50922,16.22292 4.95984,0.7224 c 2.72792,0.39733 11.85986,1.11936 20.29319,1.60453 8.43333,0.48516 16.83333,1.0821 18.66667,1.3265 1.83333,0.24441 9.63333,1.04818 17.33333,1.78617 7.7,0.73797 19.7,1.94032 26.66667,2.67188 6.96666,0.73156 16.39158,1.30704 20.94426,1.27885 4.55267,-0.0281 9.35267,0.26372 10.66667,0.64871 4.86279,1.42472 21.11833,2.91596 46.22233,4.24033 8.89171,0.4691 19.76674,1.12883 24.16674,1.4661 4.4,0.33726 15.79192,0.7322 25.31537,0.87762 17.04619,0.2603 17.33989,0.31623 18.89231,3.59774 2.04058,4.31342 5.36105,32.1077 7.16794,60 1.62204,25.0388 1.23358,115.04883 -0.46781,108.39593 z M 825.79921,808 c 0,-6.23333 0.22968,-8.78333 0.5104,-5.66667 0.28071,3.11667 0.28071,8.21667 0,11.33334 -0.28072,3.11666 -0.5104,0.56666 -0.5104,-5.66667 z m -0.0845,-28.66667 c 0.0107,-3.66666 0.26896,-5.00841 0.57543,-2.98166 0.30648,2.02674 0.29828,5.02674 -0.0181,6.66666 -0.31648,1.63992 -0.56722,-0.0183 -0.55722,-3.685 z M 836.52985,636 c 0,-10.63333 0.20707,-14.98333 0.46016,-9.66667 0.25308,5.31667 0.25308,14.01667 0,19.33334 -0.25309,5.31666 -0.46016,0.96666 -0.46016,-9.66667 z"
         id="path1674" />
      <path
         style="fill:#29d529;stroke-width:1.33333"
         d="m 837.5176,1101.3609 -0.18427,-41.9725 4.33334,-6.3583 c 2.38333,-3.497 4.71362,-6.3594 5.17842,-6.3609 0.46482,0 0.0527,4.1562 -0.9158,9.2391 -0.9685,5.0829 -2.71609,20.8329 -3.88353,35 -1.16744,14.1671 -2.62241,31.7584 -3.23327,39.0917 -0.87865,10.5483 -1.14913,4.5662 -1.29489,-28.6391 z m 320.8731,37.9187 c -0.3962,-0.3962 -3.6462,-1.2625 -7.2222,-1.9252 -8.0952,-1.5 -23.5689,-4.6911 -35.8352,-7.39 -5.1333,-1.1295 -13.2333,-2.8781 -18,-3.8859 -4.7666,-1.0077 -11.9666,-2.8103 -16,-4.0057 -4.0333,-1.1954 -9.8971,-2.5304 -13.0306,-2.9666 -3.1335,-0.4363 -6.0189,-1.3137 -6.412,-1.9497 -0.3931,-0.6361 -1.9899,-1.1565 -3.5484,-1.1565 -1.5585,0 -5.2731,-1.1421 -8.2547,-2.5379 -2.9815,-1.3958 -7.2209,-2.8523 -9.4209,-3.2365 -8.4827,-1.4816 -17.3878,-3.8911 -18.6,-5.0327 -0.6967,-0.6561 -2.9113,-1.1929 -4.9213,-1.1929 -2.0101,0 -4.0255,-0.6 -4.4787,-1.3333 -0.4533,-0.7334 -2.1271,-1.3334 -3.7196,-1.3334 -1.5926,0 -5.9072,-1.1486 -9.58799,-2.5526 -3.68084,-1.4039 -9.39244,-3.315 -12.69244,-4.2468 -3.3,-0.9318 -9.19258,-3.0689 -13.0946,-4.7492 -3.90204,-1.6802 -7.53335,-2.9192 -8.06959,-2.7532 -0.53624,0.166 -3.94367,-0.973 -7.57207,-2.5312 -3.6284,-1.5582 -8.99708,-3.551 -11.93041,-4.4286 -9.27488,-2.7749 -19.64788,-6.8672 -30.97259,-12.2193 -6.03492,-2.8522 -11.83562,-5.1857 -12.89045,-5.1857 -1.05483,0 -4.90429,-1.5 -8.55439,-3.3334 -3.65008,-1.8333 -7.32392,-3.3333 -8.16408,-3.3333 -2.24226,0 -18.99828,-5.2511 -21.95797,-6.8813 -1.39671,-0.7693 -3.96636,-1.5554 -5.71033,-1.7468 -3.09603,-0.3399 -5.41607,-1.6487 -4.30575,-2.429 0.30556,-0.2147 12.85556,-2.3839 27.88889,-4.8204 15.03334,-2.4364 37.53334,-6.4844 50,-8.9955 12.46667,-2.5111 25.77284,-5.1034 29.56928,-5.7606 8.08684,-1.3999 40.03639,-8.2904 56.76779,-12.243 10.9214,-2.5801 11.9613,-2.619 16.2015,-0.6069 2.4921,1.1826 5.4218,2.1502 6.5105,2.1502 1.0887,0 3.698,0.8963 5.7985,1.9918 2.1005,1.0954 4.7958,1.9954 5.9896,2 1.1938,0 4.3702,0.9273 7.0587,2.0506 2.6885,1.1233 5.4448,1.6984 6.1252,1.2779 0.6803,-0.4205 2.7784,0.2455 4.6623,1.4799 3.1868,2.088 11.0889,4.3503 17.3166,4.9575 1.4667,0.143 3.3891,0.7244 4.272,1.2919 1.825,1.1731 4.9321,0.5603 19.0614,-3.7592 39.8648,-12.187 40.2177,-12.2479 54,-9.3091 2.2,0.4692 4.9,1.0319 6,1.2507 1.1,0.2187 2.9,0.722 4,1.1184 3.0915,1.1141 22.6564,4.8261 29.0902,5.5193 3.1663,0.3411 6.5403,1.2703 7.4977,2.0649 0.9574,0.7946 2.7244,1.0672 3.9267,0.6059 1.2023,-0.4614 2.9284,-0.2256 3.8357,0.5239 1.1414,0.9428 3.293,0.7555 6.983,-0.6081 2.9333,-1.0839 7.1333,-2.4348 9.3333,-3.002 2.2,-0.5672 5.8,-1.9383 8,-3.0469 2.2,-1.1086 8.8,-3.6794 14.6667,-5.713 5.8667,-2.0336 14.1288,-5.3973 18.3604,-7.4748 4.2315,-2.0775 8.1315,-3.8048 8.6666,-3.8384 2.1979,-0.138 10.3958,-3.1195 11.573,-4.20897 0.6967,-0.64474 2.1494,-1.17226 3.2283,-1.17226 1.079,0 2.909,-0.83323 4.0667,-1.85162 1.1578,-1.01837 3.9477,-2.24249 6.1999,-2.72024 3.5271,-0.74818 4.3143,-0.38702 5.6775,2.60471 1.1949,2.62264 2.233,3.26688 4.2384,2.63039 2.616,-0.8303 2.6559,-0.17595 2.6559,43.61819 v 44.4611 l -77,26.3268 c -69.6486,23.8134 -84.6234,28.1961 -87.276,25.5436 z M 824.27672,1029.8333 c -0.1522,-5.9583 -0.59273,-12.8583 -0.97896,-15.3333 -0.63581,-4.0743 -0.56832,-4.1932 0.71348,-1.2573 0.78004,1.7867 1.21961,8.6718 0.97897,15.3334 l -0.43677,12.0906 z m 1.63004,-180.49997 c 0,-17.23333 0.19001,-24.28333 0.42227,-15.66666 0.23224,8.61666 0.23224,22.71666 0,31.33333 -0.23226,8.61667 -0.42227,1.56667 -0.42227,-15.66667 z M 1323.2634,688.66667 c -5e-4,-24.2 0.1797,-34.28811 0.4005,-22.41802 0.2207,11.8701 0.2211,31.6701 9e-4,44 -0.2203,12.32991 -0.4009,2.61802 -0.4014,-21.58198 z"
         id="path1672" />
      <path
         style="fill:#29d129;stroke-width:1.33333"
         d="m 837.33333,1202.2919 c 0,-29.0995 0.58635,-60.2695 1.303,-69.2667 4.15002,-52.1015 5.6998,-69.053 6.85918,-75.0252 2.67252,-13.7666 2.29469,-13.0336 6.23262,-12.0923 1.98286,0.474 4.86244,1.0757 6.39906,1.337 1.53662,0.2614 3.93662,1.1047 5.33333,1.874 2.95969,1.6302 19.71571,6.8813 21.95797,6.8813 0.84016,0 4.514,1.5 8.16408,3.3333 3.6501,1.8334 7.49956,3.3334 8.55439,3.3334 1.05483,0 6.85553,2.3335 12.89045,5.1857 11.32471,5.3521 21.69771,9.4444 30.97259,12.2193 2.93333,0.8776 8.30201,2.8704 11.93041,4.4286 3.6284,1.5582 7.03583,2.6972 7.57207,2.5312 0.53624,-0.166 4.16755,1.073 8.06959,2.7532 3.90202,1.6803 9.7946,3.8174 13.0946,4.7492 3.3,0.9318 9.0116,2.8429 12.69244,4.2468 3.68079,1.404 7.99539,2.5526 9.58799,2.5526 1.5925,0 3.2663,0.6 3.7196,1.3334 0.4532,0.7333 2.4686,1.3333 4.4787,1.3333 2.01,0 4.2246,0.5368 4.9213,1.1929 1.2122,1.1416 10.1173,3.5511 18.6,5.0327 2.2,0.3842 6.4394,1.8407 9.4209,3.2365 2.9816,1.3958 6.6962,2.5379 8.2547,2.5379 1.5585,0 3.1553,0.5204 3.5484,1.1565 0.3931,0.636 3.2785,1.5134 6.412,1.9497 3.1335,0.4362 8.9973,1.7712 13.0306,2.9666 4.0334,1.1954 11.2334,2.998 16,4.0057 4.7667,1.0078 12.8667,2.7564 18,3.8859 5.1334,1.1295 13.8334,2.9832 19.3334,4.1194 5.5,1.1362 13,2.691 16.6666,3.4551 3.6667,0.7641 9.0667,1.7823 12,2.2628 4.9113,0.8044 1.3766,2.2296 -44.6666,18.0096 C 998.29137,1199.0665 959.59835,1212 956.55127,1212 c -1.78976,0 -4.29598,-0.5294 -5.56936,-1.1765 -1.27339,-0.6471 -4.71524,-1.7812 -7.64858,-2.5203 -5.71222,-1.4393 -11.09884,-3.2679 -20.66666,-7.0158 -3.3,-1.2927 -8.7,-3.0831 -12,-3.9787 -3.3,-0.8956 -7.8,-2.4055 -10,-3.3553 -14.71138,-6.3512 -43.2405,-16.6523 -46.0785,-16.6376 -6.5836,0.034 -7.97529,2.4684 -9.94662,17.4 -1.01303,7.673 -2.54639,23.8509 -3.40748,35.9509 -0.86108,12.1 -2.09102,22.57 -2.73318,23.2666 -0.66952,0.7264 -1.16756,-21.3019 -1.16756,-51.6414 z m -13.62878,-22.9586 c -0.52916,-2.2 -1.58495,-11.2 -2.34619,-20 -1.46025,-16.8807 -3.59416,-29.5984 -5.11473,-30.483 -0.50067,-0.2913 -3.9103,0.2858 -7.57696,1.2825 C 805,1131.1294 793.9,1132.5743 784,1133.3437 c -9.9,0.7694 -19.5,1.8738 -21.33333,2.4542 -1.83334,0.5805 -6.33334,1.1738 -10,1.3185 C 749,1137.2612 742.4,1137.9544 738,1138.6569 c -13.02712,2.08 -41.72616,5.2815 -55.33333,6.1726 -12.88542,0.8439 -31.7893,-1.8361 -84,-11.9086 l -15.33334,-2.9581 -0.82617,-25.3148 c -0.4544,-13.9231 -0.77337,-58.0147 -0.70884,-97.9813 0.0645,-39.9667 0.30343,-64.76062 0.53087,-55.09762 l 0.41352,17.56908 3.62865,0.7522 c 10.16044,2.1062 56.96671,9.25489 87.62864,13.38347 19.06667,2.56728 43.06667,5.82794 53.33333,7.24592 16.45315,2.27241 50.90128,6.19042 80.52738,9.15889 14.23108,1.42596 14.51094,1.94956 16.21453,30.33916 1.49544,24.9208 1.17072,155.7239 -0.37069,149.3155 z m 2.24066,-241.99997 c 0,-31.9 0.17403,-44.95 0.38674,-29 0.21269,15.95 0.21269,42.05 0,58 -0.21271,15.95 -0.38674,2.9 -0.38674,-29 z M 1323.2269,758 c 0,-14.66667 0.1936,-20.84859 0.4329,-13.73759 0.2393,7.11099 0.2403,19.11099 0,26.66667 -0.2381,7.55567 -0.4339,1.73759 -0.4351,-12.92908 z M 836.59485,696.66667 c 5.4e-4,-23.46667 0.18196,-32.87888 0.40316,-20.91604 0.2212,11.96285 0.22076,31.16285 -9.7e-4,42.66666 -0.22173,11.50383 -0.40272,1.71604 -0.40219,-21.75062 z"
         id="path1670" />
      <path
         style="fill:#28cd28;stroke-width:1.33333"
         d="m 795.33333,1244.6697 c -15.4,-5.3945 -68.8,-23.8998 -118.66666,-41.1229 -49.86667,-17.223 -91.71667,-31.731 -93,-32.24 -2.16303,-0.8579 -2.31259,-4.0536 -2.04903,-43.7828 0.23464,-35.3704 0.40933,-38.901 1,-20.2103 l 0.71569,22.6471 15.33334,2.9591 c 52.16112,10.0663 71.11436,12.7535 84,11.9096 13.60717,-0.8911 42.30621,-4.0926 55.33333,-6.1726 4.4,-0.7025 11,-1.3957 14.66667,-1.5405 3.66666,-0.1447 8.16666,-0.738 10,-1.3185 1.83333,-0.5804 11.43333,-1.6848 21.33333,-2.4542 9.9,-0.7694 21,-2.2143 24.66667,-3.2109 3.66666,-0.9967 7.07629,-1.5738 7.57696,-1.2825 1.52057,0.8846 3.65448,13.6023 5.11473,30.483 0.76124,8.8 1.81703,17.8 2.34619,20 0.52917,2.2 1.26816,-38.6 1.64221,-90.6666 L 826.02685,994 l 0.3145,113.3333 c 0.29448,106.1148 -0.32722,147.4631 -2.21378,147.239 -0.43684,-0.052 -13.39424,-4.508 -28.79424,-9.9026 z m 45.66896,-12.3309 c 0.93607,-12.2863 2.55191,-28.9165 3.59078,-36.9558 2.02196,-15.6473 3.34178,-18.033 9.9951,-18.0672 2.838,-0.015 31.36712,10.2864 46.0785,16.6376 2.2,0.9498 6.7,2.4597 10,3.3553 3.3,0.8956 8.7,2.686 12,3.9787 9.48022,3.7136 14.92632,5.5679 20.66666,7.0365 2.93334,0.7505 6.53334,1.8596 8,2.4648 1.46667,0.6052 4.16667,1.2753 6,1.4892 1.94911,0.2273 -21.54597,8.9709 -56.57832,21.0554 -32.9514,11.3667 -60.25882,20.8192 -60.68314,21.0055 -0.42434,0.1864 -0.005,-9.7136 0.93042,-22 z M 1323.2802,843.33333 c 3e-4,-33 0.1737,-46.30902 0.3854,-29.57562 0.2117,16.7334 0.2115,43.7334 -5e-4,60 -0.212,16.2666 -0.3852,2.57562 -0.3849,-30.42438 z m -486.65676,-30 c 0,-41.43333 0.16907,-58.38333 0.37571,-37.66666 0.20664,20.71666 0.20664,54.61666 0,75.33333 -0.20664,20.71667 -0.37571,3.76667 -0.37571,-37.66667 z"
         id="path1668" />
      <path
         style="fill:#1ec41e;stroke-width:1.33333"
         d="m 825.814,1244 c 0,-6.9667 0.22472,-9.8167 0.49939,-6.3333 0.27466,3.4833 0.27466,9.1833 0,12.6666 -0.27467,3.4834 -0.49939,0.6334 -0.49939,-6.3333 z m 10.80141,10.3333 c -0.34884,-0.9166 -0.47996,-83.8666 -0.2914,-184.3333 l 0.34283,-182.66667 0.66659,184.33337 c 0.36661,101.3834 0.49774,184.3334 0.2914,184.3334 -0.20636,-10e-5 -0.66059,-0.7501 -1.00942,-1.6668 z M 1323.2979,995.33333 c 10e-5,-51.33333 0.1659,-72.13934 0.3683,-46.23558 0.2025,25.90376 0.2024,67.90375 -2e-4,93.33335 -0.2026,25.4296 -0.3683,4.2356 -0.3681,-47.09777 z M 580.39955,530.66667 c 0,-4.03334 0.24996,-5.68334 0.55545,-3.66667 0.30551,2.01667 0.30551,5.31667 0,7.33333 -0.30549,2.01667 -0.55545,0.36667 -0.55545,-3.66666 z"
         id="path1666" />
      <path
         style="fill:#17af17;stroke-width:1.33333"
         d="m 580.65028,746.66667 c 0,-115.5 0.15732,-162.75 0.3496,-105 0.19228,57.75 0.19228,152.25 0,210 -0.19228,57.75 -0.3496,10.5 -0.3496,-105 z"
         id="path1664" />
      <path
         style="fill:#119311;stroke-width:1.33333"
         d="m 580.63573,1063.3333 c -9e-5,-59.4 0.16359,-83.89473 0.36375,-54.4328 0.20016,29.462 0.20024,78.062 1.9e-4,108 -0.20007,29.9381 -0.36384,5.8328 -0.36394,-53.5672 z"
         id="path1662" />
      <path
         style="fill:#096c09;stroke-width:1.33333"
         d="m 827.31999,866.66667 c 0,-142.63334 0.15597,-200.98334 0.3466,-129.66667 0.19064,71.31667 0.19064,188.01667 0,259.33333 -0.19063,71.31667 -0.3466,12.96667 -0.3466,-129.66666 z"
         id="path1660" />
      <path
         style="fill:#075207;stroke-width:1.33333"
         d="m 826.66615,1190.934 0.66614,-66.2673 0.3467,65.2538 c 0.19068,35.8896 -0.10907,65.7099 -0.66615,66.2673 -0.55707,0.5574 -0.71307,-28.8068 -0.34669,-65.2538 z M 1324.3631,445.33333 c 0,-3.3 0.2601,-4.65 0.5779,-3 0.3178,1.65 0.3178,4.35 0,6 -0.3178,1.65 -0.5779,0.3 -0.5779,-3 z"
         id="path1658" />
      <path
         style="fill:#0b1a23;stroke-width:1.33333"
         d="m 83.322612,674.66667 c 0,-178.56667 0.154803,-251.61667 0.344005,-162.33334 0.189203,89.28334 0.189203,235.38334 0,324.66667 -0.189202,89.28333 -0.344005,16.23333 -0.344005,-162.33333 z"
         id="path1656" />
      <path
         style="fill:#121212;stroke-width:1.33333"
         d="m 1332.6562,762 c 0,-183.33333 0.1547,-258.13509 0.3438,-166.22615 0.189,91.90895 0.189,241.90895 -10e-5,333.33334 -0.189,91.42441 -0.3437,16.22614 -0.3437,-167.10719 z M 75.322824,674.66667 c 0,-182.23334 0.154708,-256.78334 0.343795,-165.66667 0.189088,91.11667 0.189088,240.21667 0,331.33333 C 75.477532,931.45 75.322824,856.9 75.322824,674.66667 Z"
         id="path1654" />
      <path
         style="fill:#002b00;stroke-width:1.33333"
         d="m 834.99267,931.74536 c -0.17931,-178.70672 0.124,-325.19945 0.674,-325.5394 0.90333,-0.55833 0.90005,219.87527 -0.008,533.12734 -0.18706,64.5334 -0.4868,-28.8812 -0.6661,-207.58794 z M 1324.6558,769.33333 c 0,-175.63333 0.1549,-247.48333 0.3441,-159.66666 0.1894,87.81666 0.1894,231.51666 0,319.33333 -0.1892,87.8167 -0.3441,15.96667 -0.3441,-159.66667 z m -11.9034,-336.39084 c 0.5007,-1.31496 1.2462,-2.05496 1.6568,-1.64444 0.4105,0.41052 8e-4,1.48639 -0.9104,2.39084 -1.3168,1.30702 -1.47,1.15387 -0.7464,-0.7464 z"
         id="path1652" />
      <path
         style="fill:#000000;stroke-width:1.33333"
         d="M 452.33576,1136.2517 76.004847,1006 76.02284,674.66667 C 76.03274,492.43333 76.510927,342.59325 77.085484,341.68871 77.660041,340.78416 190.30085,301.33864 327.3984,254.03199 L 576.66667,168.01988 954,298.55825 l 377.3333,130.53836 0.336,332.64138 c 0.319,315.88851 0.2183,332.68691 -2,333.54551 -15.133,5.8575 -496.87651,171.3612 -498.6195,171.3015 -1.31072,-0.045 -171.73204,-58.6949 -378.71404,-130.3333 z M 827.33333,931.39124 V 606.33804 L 704.66667,563.86883 C 637.2,540.51076 581.54879,521.38471 580.99731,521.36648 c -0.55147,-0.0183 -0.85147,146.45771 -0.66667,325.50207 l 0.33603,325.53525 122,42.3172 c 67.1,23.2744 122.6,42.1836 123.33333,42.0203 0.88443,-0.1969 1.33333,-109.7347 1.33333,-325.35006 z m 249.45387,243.14936 c 131.9337,-45.536 241.8295,-83.6054 244.2128,-84.5986 l 4.3333,-1.8059 V 763.40137 c 0,-308.40053 -0.1173,-324.73229 -2.3333,-324.68674 -1.2833,0.0264 -111.5333,37.76086 -245,83.85444 l -242.66667,83.80649 -0.34165,323.81223 c -0.18789,178.09671 -0.0568,324.56221 0.29149,325.47891 0.34823,0.9166 0.8562,1.6666 1.12886,1.6666 0.27264,0 108.44146,-37.2567 240.37517,-82.7927 z M 571.99559,843.66667 571.99117,518 328.336,433.72625 C 194.32565,387.37569 84.226417,349.90692 83.671037,350.46229 c -0.55538,0.55539 -0.858564,147.02931 -0.673742,325.49762 l 0.336038,324.48779 169.333337,58.5316 C 345.8,1091.1716 455.3,1129.0984 496,1143.261 c 40.7,14.1626 74.45,25.8227 75,25.9113 0.55,0.089 0.99801,-146.389 0.99559,-325.50563 z m 503.22751,-327.2818 c 131.2061,-45.31474 238.7485,-82.98918 238.9831,-83.72098 0.2346,-0.73181 -53.9938,-20.1309 -120.5076,-43.1091 L 1072.7644,347.77625 831.63523,430.9888 c -132.62103,45.76689 -241.21211,83.76724 -241.31351,84.4452 -0.28869,1.93011 239.10527,84.60299 243.01161,83.92221 1.83334,-0.31949 110.68375,-37.6566 241.88977,-82.97134 z M 823.33333,426.63512 c 128.33334,-44.20745 233.89337,-80.87521 234.57777,-81.48393 0.6845,-0.60871 0.9126,-1.43856 0.5071,-1.84411 -0.4055,-0.40555 -109.04264,-38.20199 -241.41576,-83.99209 L 576.32405,176.06024 335.4252,259.2114 c -132.49437,45.73312 -241.267281,83.51957 -241.717583,83.96987 -0.4503,0.4503 -0.568728,1.06162 -0.263173,1.3585 0.305556,0.29687 109.714466,38.29376 243.130906,84.43754 l 242.57534,83.89777 5.42466,-2.93139 C 587.55891,508.33143 695,470.84256 823.33333,426.63512 Z"
         id="path1650" />
    </g>
  </g>
</svg>
