<?xml version="1.0" encoding="UTF-8" standalone="no"?>
<!-- Created with Inkscape (http://www.inkscape.org/) -->

<svg
   version="1.1"
   id="svg824"
   width="1440"
   height="1440"
   viewBox="0 0 1440 1440"
   sodipodi:docname="PartDesign_Body_new.svg"
   inkscape:version="1.1.2 (b8e25be833, 2022-02-05)"
   xmlns:inkscape="http://www.inkscape.org/namespaces/inkscape"
   xmlns:sodipodi="http://sodipodi.sourceforge.net/DTD/sodipodi-0.dtd"
   xmlns="http://www.w3.org/2000/svg"
   xmlns:svg="http://www.w3.org/2000/svg">
  <defs
     id="defs828" />
  <sodipodi:namedview
     id="namedview826"
     pagecolor="#505050"
     bordercolor="#eeeeee"
     borderopacity="1"
     inkscape:pageshadow="0"
     inkscape:pageopacity="0"
     inkscape:pagecheckerboard="0"
     showgrid="false"
     inkscape:zoom="0.53958333"
     inkscape:cx="676.44788"
     inkscape:cy="720"
     inkscape:window-width="1920"
     inkscape:window-height="1028"
     inkscape:window-x="-6"
     inkscape:window-y="-6"
     inkscape:window-maximized="1"
     inkscape:current-layer="g830" />
  <g
     inkscape:groupmode="layer"
     inkscape:label="Image"
     id="g830">
    <g
       id="g914"
       transform="matrix(1.2450354,0,0,1.2450354,-175.83422,-262.55615)">
      <path
         style="fill:#eaeaea;stroke-width:1.33333"
         d="m 1274.6666,971.73324 c -0.3666,-103.18005 -0.2145,-187.14795 0.3381,-186.59533 0.5525,0.55261 0.8525,84.97265 0.6666,187.60009 l -0.3381,186.5953 z"
         id="path1022" />
      <path
         style="fill:#c7c7c7;stroke-width:1.33333"
         d="m 163.32384,790.66667 c 0,-202.03334 0.15425,-284.68334 0.34279,-183.66667 0.18853,101.01667 0.18853,266.31667 0,367.33333 C 163.47809,1075.35 163.32384,992.7 163.32384,790.66667 Z"
         id="path1020" />
      <path
         style="fill:#a1f8a1;stroke-width:1.33333"
         d="m 431.33333,508.8252 c -6.6,-2.40532 -31.35,-11.15384 -55,-19.44115 -23.65,-8.2873 -43,-15.48446 -43,-15.99369 0,-1.04081 31.59047,-8.02843 54.18434,-11.98524 27.05048,-4.73728 70.52986,-10.14896 107.149,-13.33636 37.67066,-3.27891 154.13744,-9.04244 155.48545,-7.69441 0.61935,0.61934 -21.37241,8.43549 -122.81879,43.65133 -44,15.27405 -80.9,28.08641 -82,28.47192 -1.1,0.38551 -7.4,-1.26707 -14,-3.6724 z"
         id="path1018" />
      <path
         style="fill:#9df89d;stroke-width:1.33333"
         d="m 304.65787,464.56047 c -15.39516,-5.43402 -28.8912,-10.26063 -29.9912,-10.72582 -2.54152,-1.0748 7.52837,-4.27785 35.33333,-11.23889 62.20863,-15.57408 146.68029,-25.5782 258.66667,-30.63432 29.14592,-1.31593 174.14357,-4.26232 174.85282,-3.55307 0.89891,0.89892 -91.80556,32.90554 -93.0609,32.1297 -2.34731,-1.45071 -115.37758,4.01296 -155.79192,7.53069 -37.35995,3.25188 -73.05043,7.65951 -103.33334,12.76124 -24.79002,4.17636 -57.10444,11.17915 -58.0088,12.57095 -0.3715,0.57174 -13.2715,-3.40647 -28.66666,-8.84048 z"
         id="path1016" />
      <path
         style="fill:#99f899;stroke-width:1.33333"
         d="m 252.66667,446.71131 c -31.15259,-11.34136 -28.38731,-10.05342 -25.22214,-11.74736 1.47348,-0.78859 9.96408,-3.8691 18.868,-6.84556 C 328.4572,400.6584 441.97071,387.28239 632,382.67043 c 59.52721,-1.44471 167.15488,-1.56835 178.66195,-0.20523 l 7.32861,0.86813 -35.77911,12.55556 c -19.67849,6.90555 -36.77637,12.51603 -37.99528,12.46771 -9.87058,-0.39127 -151.41986,2.5154 -175.5495,3.60484 -124.93282,5.64064 -210.36756,16.69328 -280.28638,36.26048 -8.22416,2.30159 -14.63876,4.69321 -14.25464,5.31472 0.87646,1.41815 3.31315,2.19316 -21.45898,-6.82533 z"
         id="path1014" />
      <path
         style="fill:#95f895;stroke-width:1.33333"
         d="m 716.33333,971.08089 c 1.28334,-0.33536 3.38334,-0.33536 4.66667,0 1.28333,0.33538 0.23333,0.60978 -2.33333,0.60978 -2.56667,0 -3.61667,-0.2744 -2.33334,-0.60978 z M 207.00051,430.81499 c -9.71194,-3.38158 -17.66011,-6.4838 -17.66262,-6.89383 -0.003,-0.41003 2.84544,-1.70207 6.32878,-2.87121 3.48333,-1.16915 29.13333,-9.91735 57,-19.44046 48.50802,-16.57705 51.74598,-17.48988 76,-21.42556 62.87436,-10.20257 121.34386,-15.4239 227.33333,-20.30088 72.93704,-3.3561 336.78407,-3.01005 328,0.4302 -1.83333,0.71802 -17.26052,6.2254 -34.28264,12.23863 -29.54824,10.43819 -31.29867,10.88952 -38.66667,9.9698 -11.49578,-1.43497 -117.4215,-1.34697 -179.05069,0.14875 -190.02803,4.61193 -303.08333,17.93093 -385.74927,45.44498 -8.9379,2.97484 -17.45256,6.1826 -18.92145,7.12835 -2.30468,1.48387 -5.09083,0.87689 -20.32877,-4.42877 z"
         id="path1012" />
      <path
         style="fill:#92f692;stroke-width:1.33333"
         d="M 704.96533,968.28723 C 692.14131,963.58005 692.21465,963.6394 698,962.65141 c 2.93333,-0.50094 12.53333,-2.16116 21.33333,-3.68937 8.8,-1.52821 20.8,-3.43967 26.66667,-4.24769 5.86667,-0.80803 16.17605,-2.41284 22.90975,-3.56627 6.73369,-1.15343 12.91841,-1.87203 13.7438,-1.59689 1.43158,0.47718 -49.84383,19.3949 -55.34655,20.41972 -1.45219,0.27045 -2.64033,0.57837 -2.64033,0.68428 0,0.10586 -2.5656,0.3018 -5.70134,0.43534 -3.20813,0.13663 -9.33034,-1.08926 -14,-2.8033 z m -383.632,-590.33635 c 12.90795,-4.2356 23.46924,-6.66049 37.33334,-8.5718 73.23978,-10.09685 174.91821,-15.87268 316,-17.95033 l 46,-0.67742 -15.33334,3.10554 c -13.81798,2.79862 -20.34054,3.19196 -66,3.98001 -134.24649,2.31703 -236.06608,9.73153 -314.18137,22.87871 -10.73308,1.80642 -20.03308,3.25232 -20.66667,3.21309 -0.63357,-0.0392 6.94804,-2.72923 16.84804,-5.9778 z"
         id="path1010" />
      <path
         style="fill:#91f891;stroke-width:1.33333"
         d="m 681.11105,959.92304 c -5.86049,-2.02931 -10.89726,-3.93147 -11.19282,-4.22703 -0.59522,-0.59522 3.91954,-1.7557 29.4151,-7.56097 37.25724,-8.48336 93.82528,-17.92297 124.66667,-20.80337 4.76667,-0.44518 14.48425,-1.73772 21.59463,-2.87234 7.11038,-1.1346 13.63013,-1.82885 14.48834,-1.54278 2.47298,0.82432 -72.30112,26.74484 -76.74964,26.60534 -2.2,-0.0689 -8.8,0.7074 -14.66666,1.72532 -5.86667,1.01792 -15.76667,2.54012 -22,3.38268 -6.23334,0.84255 -18.53334,2.78116 -27.33334,4.30803 -8.8,1.52687 -18.60253,3.20331 -21.78341,3.72544 -4.5766,0.75123 -8.00687,0.1794 -16.43887,-2.74032 z M 354.66667,365.94028 c 9.16666,-3.25452 31.96666,-10.96449 50.66666,-17.13325 l 34,-11.21592 L 464,336.13485 c 86.72716,-5.1201 154.11277,-6.79453 272,-6.75873 90.56292,0.0275 138.85963,0.8472 201.99968,3.42839 l 22.66635,0.92661 -8.66635,3.28348 c -4.76649,1.80592 -20.59396,7.39403 -35.17216,12.41803 -14.5782,5.02401 -26.67636,9.30693 -26.8848,9.51762 -0.20844,0.2107 -12.58083,-10e-4 -27.49419,-0.47141 -14.91336,-0.46996 -59.5152,-0.99124 -99.1152,-1.15839 l -72,-0.3039 14.66667,-3.12136 14.66667,-3.12135 -46,0.66616 c -141.51012,2.04935 -254.14014,8.57112 -321.6579,18.62543 -7.14517,1.06401 -13.44517,1.90253 -14,1.86337 -0.55482,-0.0392 6.49123,-2.734 15.6579,-5.98852 z"
         id="path1008" />
      <path
         style="fill:#8bf88b;stroke-width:1.33333"
         d="m 440,336.98333 c 0.36667,-0.38973 27.06667,-9.86597 59.33333,-21.0583 L 558,295.57533 599.33333,294.38837 C 622.06667,293.73553 693.46667,293.40049 758,293.64384 l 117.33333,0.44243 42,14.41113 c 23.1,7.92612 45.83534,15.74049 50.52295,17.36527 l 8.52295,2.95413 -7.18962,2.62436 c -6.37272,2.32617 -9.15905,2.51912 -24.52294,1.69816 -55.33094,-2.95653 -138.99898,-4.10032 -248.81488,-3.4014 -120.82146,0.76896 -161.99706,1.97287 -243.18512,7.11031 -7.33334,0.46405 -13.03334,0.52484 -12.66667,0.1351 z"
         id="path1006" />
      <path
         style="fill:#8bf68b;stroke-width:1.33333"
         d="m 644.69404,947.66223 -22.63928,-8.18642 7.97261,-2.40828 c 7.06958,-2.1355 15.0612,-4.22198 55.30596,-14.43946 5.5,-1.39636 14.5,-3.18522 20,-3.97523 5.5,-0.79001 22.6,-4.08293 38,-7.3176 48.89772,-10.27063 76.99191,-15.52237 103.33334,-19.31648 6.23333,-0.89783 18.83333,-3.03715 28,-4.75405 9.16666,-1.7169 27.76666,-4.38055 41.33333,-5.91923 13.56667,-1.53867 25.45995,-3.06864 26.42952,-3.39993 0.96957,-0.3313 10.86957,-1.18383 22,-1.89454 11.13043,-0.71069 24.73715,-1.62404 30.23715,-2.02962 l 10.00003,-0.73746 -8.6667,3.4944 c -20.88559,8.42108 -133.65539,47.01439 -135.40943,46.34131 -1.06717,-0.40952 -7.78661,0.18855 -14.9321,1.32903 -7.1455,1.14048 -16.8918,2.43782 -21.65847,2.883 -38.55265,3.60058 -117.51881,17.72961 -149.90867,26.82244 -3.61644,1.01524 -6.61644,1.81184 -6.66666,1.77021 -0.0503,-0.0416 -10.27902,-3.75956 -22.73063,-8.26209 z"
         id="path1004" />
      <path
         style="fill:#84f884;stroke-width:1.33333"
         d="m 614.55637,936.98079 c -3.97268,-1.45183 -7.73718,-3.11058 -8.36558,-3.68611 -0.6284,-0.57555 2.3716,-1.76515 6.66666,-2.64356 4.29507,-0.87843 13.20922,-3.05245 19.80922,-4.83119 6.6,-1.77873 16.2,-4.08433 21.33333,-5.12354 24.38896,-4.93739 54.23935,-11.52846 62.66703,-13.83707 15.46777,-4.23713 55.32728,-13.16825 65.99964,-14.7882 10.6686,-1.61939 58.9956,-10.57248 80,-14.82085 15.68818,-3.17311 34.83581,-6.07443 48,-7.27316 5.5,-0.50083 13.6,-1.72082 18,-2.7111 19.73254,-4.44104 91.62473,-11.37001 116.00003,-11.18009 12.452,0.0971 13.2854,-0.41123 -16.6667,10.16331 -16.563,5.84752 -22.6523,7.38094 -30.66667,7.72253 -16.89878,0.72025 -53.03588,3.33537 -54.9019,3.97305 -0.97062,0.3317 -12.86476,1.862 -26.43143,3.40067 -13.56667,1.53868 -32.16667,4.20233 -41.33333,5.91923 -9.16667,1.7169 -21.76667,3.85622 -28,4.75405 -26.34143,3.79411 -54.43562,9.04585 -103.33334,19.31648 -15.4,3.23467 -32.5,6.52759 -38,7.3176 -5.5,0.79001 -14.5,2.57887 -20,3.97523 -5.5,1.39636 -18.4,4.6709 -28.66666,7.27677 -10.26667,2.60587 -22.31631,5.85792 -26.77696,7.22679 -7.97952,2.44872 -8.22679,2.44628 -15.33334,-0.15084 z M 564.3328,293.44551 c 0.91696,-0.30499 19.9672,-6.86828 42.33387,-14.58512 l 40.66666,-14.03063 70,-0.51565 70,-0.51564 L 830,278.35116 c 23.46667,8.00397 43.41448,14.79932 44.32848,15.10076 0.914,0.30144 -68.83624,0.54808 -155.00053,0.54808 -86.1643,0 -155.91212,-0.24952 -154.99515,-0.55449 z"
         id="path1002" />
      <path
         style="fill:#83f583;stroke-width:1.33333"
         d="m 594.88425,930.36688 c -13.05674,-4.85272 -12.88349,-5.10043 6.79311,-9.71165 7.51079,-1.76015 24.45597,-5.8711 37.65597,-9.13544 47.05466,-11.63654 96.77612,-22.79335 128.66667,-28.87104 21.88029,-4.16995 46.48085,-9.57235 70.66667,-15.51874 6.96666,-1.71284 19.56666,-4.0541 28,-5.2028 8.43333,-1.14869 21.33333,-3.23758 28.66666,-4.64198 7.33334,-1.4044 21.13334,-3.76747 30.66667,-5.25126 9.53333,-1.48378 23.03333,-3.89056 30,-5.34837 6.96667,-1.45781 16.26667,-2.66121 20.66667,-2.67423 4.4,-0.0133 15.8,-1.16341 25.33333,-2.55644 9.5333,-1.39304 22.1333,-2.92006 28,-3.39338 5.8667,-0.47334 17.2667,-1.4405 25.3333,-2.14924 26.0949,-2.29276 59.821,-3.64852 62.6132,-2.51702 1.4961,0.6063 2.3656,1.14038 1.9322,1.18686 -0.4335,0.0465 -14.5335,4.94492 -31.3334,10.88542 -29.3217,10.36823 -30.9844,10.79344 -41.5061,10.61459 -24.3251,-0.41348 -97.60604,6.51012 -118.37253,11.18385 -4.4,0.99028 -12.5,2.21027 -18,2.7111 -13.16419,1.19873 -32.31182,4.10005 -48,7.27316 -21.0044,4.24837 -69.3314,13.20146 -80,14.82085 -10.67236,1.61995 -50.53187,10.55107 -65.99964,14.7882 -8.42768,2.30861 -38.27807,8.89968 -62.66703,13.83707 -5.13333,1.03921 -14.73333,3.34481 -21.33333,5.12354 -6.6,1.77874 -15.45808,3.94112 -19.68463,4.80532 -4.22655,0.8642 -7.34113,2.12706 -6.92131,2.80634 0.95076,1.53837 1.93391,1.80796 -11.17648,-3.06471 z m 60.44908,-667.63592 c 7.52052,-2.53036 11.35635,-2.69165 64,-2.69108 44.62586,4.8e-4 57.21866,0.3846 62,1.89116 5.38216,1.69589 -0.12346,1.89976 -53.46549,1.97976 -32.70603,0.0491 -64.20603,0.40929 -70,0.80052 l -10.53451,0.71133 z"
         id="path1000" />
      <path
         style="fill:#7df57d;stroke-width:1.33333"
         d="m 571.43059,922.08151 c -6.54652,-2.36444 -11.34652,-4.63512 -10.66667,-5.04598 0.67984,-0.41084 11.73608,-3.24656 24.56941,-6.30158 12.83334,-3.05504 36.83334,-8.88714 53.33334,-12.96022 113.32333,-27.97428 141.4635,-34.43664 202.66666,-46.54221 5.5,-1.08787 12.2057,-2.57119 14.90154,-3.29627 2.69584,-0.72509 15.6224,-3.08457 28.72569,-5.24329 13.10329,-2.15872 37.2976,-6.96551 53.76513,-10.68175 16.46754,-3.71624 35.04098,-7.28112 41.27431,-7.92194 6.23333,-0.64084 17.03333,-2.08196 24,-3.2025 11.7884,-1.89606 43.2583,-5.76562 71.3333,-8.77121 6.6,-0.70657 17.7,-2.17091 24.6667,-3.25409 27.0043,-4.19867 101.416,-5.74311 97.7007,-2.02783 -0.6031,0.60309 -18.0703,7.08325 -38.8159,14.40035 -28.5862,10.08246 -38.4345,13.03194 -40.6726,12.18102 -3.0181,-1.14746 -36.5467,0.1847 -62.8789,2.4983 -8.0666,0.70874 -19.4666,1.6759 -25.3333,2.14924 -5.8667,0.47332 -18.4667,2.00034 -28,3.39338 -9.53333,1.39303 -20.93333,2.54343 -25.33333,2.55644 -4.4,0.0133 -13.7,1.21642 -20.66667,2.67423 -6.96667,1.45781 -20.46667,3.86459 -30,5.34837 -9.53333,1.48379 -23.33333,3.84686 -30.66667,5.25126 -7.33333,1.4044 -20.23333,3.49329 -28.66666,4.64198 -8.43334,1.1487 -21.03334,3.48996 -28,5.2028 -24.18582,5.94639 -48.78638,11.34879 -70.66667,15.51874 -31.89055,6.07769 -81.61201,17.2345 -128.66667,28.87104 -13.2,3.26434 -30.11665,7.36884 -37.59257,9.12112 -7.47592,1.75228 -14.67592,3.76053 -16,4.46277 -1.75807,0.93241 -5.61797,0.1172 -14.31017,-3.02217 z M 690.66667,250.11127 719.33333,240.43285 746,249.33321 c 14.66667,4.8952 27.56667,9.25044 28.66667,9.67832 1.1,0.42787 -23.8,0.77799 -55.33334,0.77806 L 662,259.78969 Z"
         id="path998" />
      <path
         style="fill:#79f579;stroke-width:1.33333"
         d="m 548.32123,914.07685 c -10.452,-4.05742 -12.5986,-6.08356 -6.43234,-6.07136 1.52778,0.003 9.67778,-1.43696 18.11111,-3.19994 8.43333,-1.76299 19.58967,-3.8475 24.79184,-4.63223 5.20217,-0.78472 16.30217,-3.56151 24.66667,-6.17063 8.36449,-2.60912 23.00816,-6.79377 32.54149,-9.29922 9.53333,-2.50546 23.25712,-6.3887 30.49732,-8.62943 C 679.73751,873.83332 686.49736,872 687.51923,872 c 1.02185,0 8.45296,-1.83053 16.51356,-4.06784 8.0606,-2.23731 25.94992,-6.40236 39.75405,-9.25567 13.80412,-2.8533 32.18505,-7.07906 40.84651,-9.39057 8.66146,-2.31151 22.11228,-5.59165 29.89072,-7.28919 7.77842,-1.69754 26.4426,-5.89132 41.47593,-9.31949 15.03333,-3.42817 33.93333,-7.62733 42,-9.33148 8.06667,-1.70413 20.06667,-5.03301 26.66667,-7.39749 6.6,-2.36448 18.9,-5.66684 27.33333,-7.33859 8.43333,-1.67175 16.92524,-3.65588 18.87092,-4.4092 1.94567,-0.75331 7.34567,-2.03213 12,-2.84183 9.77531,-1.70057 23.92578,-4.73412 34.46238,-7.38797 4.0334,-1.01587 12.7334,-2.22703 19.3334,-2.69147 6.6,-0.46442 17.4,-2.20501 24,-3.86797 27.1998,-6.85333 48.026,-10.48492 92.537,-16.13621 3.962,-0.50304 9.1927,-1.74571 11.6238,-2.76148 9.5335,-3.98336 17.7284,-2.57446 52.1725,8.9698 17.7833,5.96024 32.3333,11.23517 32.3333,11.72209 0,0.48692 -10.95,4.69449 -24.3333,9.35017 -13.3833,4.6557 -25.1818,8.78724 -26.2187,9.18122 -1.076,0.40881 -1.523,0.12986 -1.0412,-0.64967 2.4331,-3.93684 -69.3962,-2.63364 -97.7401,1.77331 -6.9667,1.08318 -18.0667,2.54752 -24.6667,3.25409 -28.075,3.00559 -59.5449,6.87515 -71.3333,8.77121 -6.96667,1.12054 -17.76667,2.56166 -24,3.2025 -6.23333,0.64082 -24.80677,4.2057 -41.27431,7.92194 -16.46753,3.71624 -40.66184,8.52303 -53.76513,10.68175 -13.10329,2.15872 -26.02985,4.5182 -28.72569,5.24329 -2.69584,0.72508 -9.40154,2.2084 -14.90154,3.29627 -61.20316,12.10557 -89.34333,18.56793 -202.66666,46.54221 -16.5,4.07308 -40.5,9.90342 -53.33334,12.95628 -12.83333,3.05288 -23.93333,6.01667 -24.66666,6.58619 -0.73334,0.56952 -6.28879,-0.88819 -12.34544,-3.23935 z"
         id="path996" />
      <path
         style="fill:#73f473;stroke-width:1.33333"
         d="m 524.66667,906.01619 c -6.6,-2.42354 -11.1,-4.69611 -10,-5.05015 1.1,-0.35404 11.6,-2.8778 23.33333,-5.60835 38.0154,-8.84686 109.89505,-26.9707 142.00692,-35.80584 17.22952,-4.74048 40.92641,-10.83589 52.65975,-13.54538 34.94605,-8.06982 79.28012,-20.51448 121.33333,-34.05852 21.39511,-6.8907 53.87947,-15.66592 76.66667,-20.71051 20.36624,-4.50863 38.50293,-9.13473 45.34892,-11.56711 10.05497,-3.5725 49.29591,-14.57389 58.48241,-16.3958 2.4738,-0.49064 6.3738,-1.96997 8.6666,-3.28742 2.2928,-1.31746 6.2687,-2.79176 8.8354,-3.27626 5.5618,-1.04986 17.8691,-5.45646 29.5348,-10.5749 2.6775,-1.17478 5.3209,-2.13595 5.8742,-2.13595 0.5533,0 3.0527,-1.56113 5.5543,-3.46917 5.6854,-4.3365 3.6511,-4.81019 54.37,12.66 38.4526,13.245 38.6203,13.3192 30.2905,13.3973 -4.6068,0.0432 -10.3652,0.90963 -12.7963,1.92542 -2.4311,1.01577 -7.6618,2.25844 -11.6238,2.76148 -44.511,5.65129 -65.3372,9.28288 -92.537,16.13621 -6.6,1.66296 -17.4,3.40355 -24,3.86797 -6.6,0.46444 -15.3,1.6756 -19.3334,2.69147 -10.5366,2.65385 -24.68707,5.6874 -34.46238,7.38797 -4.65433,0.8097 -10.05433,2.08852 -12,2.84183 -1.94568,0.75332 -10.43759,2.73745 -18.87092,4.4092 -8.43333,1.67175 -20.73333,4.97411 -27.33333,7.33859 -6.6,2.36448 -18.6,5.69336 -26.66667,7.39749 -8.06667,1.70415 -26.96667,5.90331 -42,9.33148 -15.03333,3.42817 -33.69751,7.62195 -41.47593,9.31949 -7.77844,1.69754 -21.22926,4.97768 -29.89072,7.28919 -8.66146,2.31151 -27.04239,6.53727 -40.84651,9.39057 -13.80413,2.85331 -31.69345,7.01836 -39.75405,9.25567 -8.0606,2.23731 -15.49171,4.06784 -16.51356,4.06784 -1.02187,0 -7.78172,1.83332 -15.02191,4.07404 -7.2402,2.24073 -20.96399,6.12397 -30.49732,8.62943 -9.53333,2.50545 -24.177,6.6901 -32.54149,9.29922 -8.3645,2.60912 -19.4645,5.38591 -24.66667,6.17063 -5.20217,0.78473 -16.35851,2.86924 -24.79184,4.63223 -8.43333,1.76298 -16.56333,3.20297 -18.06667,3.19994 -1.50333,-0.003 -3.30333,0.5396 -4,1.20583 -0.76756,0.73401 -5.99508,-0.52497 -13.26666,-3.19513 z"
         id="path994" />
      <path
         style="fill:#6bf36b;stroke-width:1.33333"
         d="m 499.71304,897.51461 c -7.12451,-2.59514 -12.62755,-5.0476 -12.229,-5.44986 0.80652,-0.81407 14.58035,-3.25508 29.84929,-5.28991 8.21718,-1.09508 55.11152,-13.08504 73.33334,-18.74989 3.86496,-1.20155 57.06748,-15.98146 66,-18.3351 3.32225,-0.87538 11.77012,-3.28621 80.66666,-23.02037 30.43334,-8.71707 65.17322,-18.27988 77.19974,-21.25068 12.02652,-2.9708 27.92652,-7.52639 35.33333,-10.12351 7.40681,-2.59712 17.96693,-5.92689 23.46693,-7.39949 5.5,-1.47261 18.1,-5.28745 28,-8.47744 9.9,-3.18999 26.1,-8.05511 36,-10.81137 17.60498,-4.90142 22.04758,-6.4539 50.66667,-17.70568 35.604,-13.99796 36.4439,-14.45142 48.9693,-26.43907 l 7.1793,-6.87109 28.0165,9.5075 c 15.409,5.22912 27.2256,9.76447 26.259,10.07854 -0.9666,0.31405 -3.6141,1.97768 -5.8833,3.69692 -2.2692,1.71924 -4.5785,3.12589 -5.1318,3.12589 -0.5533,0 -3.1967,0.96117 -5.8742,2.13595 -11.6657,5.11844 -23.973,9.52504 -29.5348,10.5749 -2.5667,0.4845 -6.5426,1.9588 -8.8354,3.27626 -2.2928,1.31745 -6.1928,2.79678 -8.6666,3.28742 -9.1865,1.82191 -48.42744,12.8233 -58.48241,16.3958 -6.84599,2.43238 -24.98268,7.05848 -45.34892,11.56711 -22.7872,5.04459 -55.27156,13.81981 -76.66667,20.71051 -42.05321,13.54404 -86.38728,25.9887 -121.33333,34.05852 -11.73334,2.70949 -35.43023,8.8049 -52.65975,13.54538 -32.58215,8.96452 -105.11024,27.23847 -142.00692,35.7796 -11.73333,2.71612 -22.23333,5.38014 -23.33333,5.92002 -1.16672,0.57264 -7.39704,-0.9843 -14.95363,-3.73686 z"
         id="path992" />
      <path
         style="fill:#63f163;stroke-width:1.33333"
         d="m 476.33167,889.48505 c -5.31575,-1.90113 -9.665,-3.81692 -9.665,-4.25729 0,-0.44037 4.35,-1.55099 9.66666,-2.46803 5.31667,-0.91704 24.11072,-5.77581 41.76458,-10.79728 17.65385,-5.02146 38.35385,-10.71014 46,-12.64152 22.48481,-5.6795 48.27593,-13.37024 73.37102,-21.87873 12.90791,-4.37643 30.90791,-10.12981 40,-12.78531 24.00944,-7.01237 113.46596,-31.32356 115.25952,-31.32356 6.94323,0 125.14799,-35.12889 141.11663,-41.93798 5.95187,-2.53791 15.92159,-6.47714 22.15492,-8.75383 16.32133,-5.96131 27.56655,-11.88585 38.09828,-20.07211 10.70652,-8.3221 11.04662,-8.70341 12.10452,-13.56941 0.4385,-2.01667 1.1481,-3.66667 1.5769,-3.66667 3.2697,0 34.887,11.58708 34.887,12.78536 0,1.43148 -9.5405,10.40996 -17.5599,16.52544 -3.5802,2.73027 -11.2696,6.0991 -37.1068,16.25718 -28.61909,11.25178 -33.06169,12.80426 -50.66667,17.70568 -9.9,2.75626 -26.1,7.62138 -36,10.81137 -9.9,3.18999 -22.5,7.00483 -28,8.47744 -5.5,1.4726 -16.06012,4.80237 -23.46693,7.39949 -7.40681,2.59712 -23.30681,7.15271 -35.33333,10.12351 -12.02652,2.9708 -46.7664,12.53361 -77.19974,21.25068 -68.89654,19.73416 -77.34441,22.14499 -80.66666,23.02037 -13.27024,3.4966 -63.1863,17.39742 -70,19.49387 -19.09783,5.87607 -61.14112,16.58307 -68.66667,17.48708 -13.46411,1.61739 -27.89272,4.13243 -30.00167,5.22955 -1.19357,0.62093 -5.90344,-0.35412 -11.66666,-2.4153 z"
         id="path990" />
      <path
         style="fill:#5bf05b;stroke-width:1.33333"
         d="m 464.15579,885.42961 c -0.9756,-0.60294 -1.25976,-1.39401 -0.63147,-1.75789 1.57228,-0.91063 104.18031,-34.83093 161.80901,-53.49105 98.28644,-31.82506 167.08183,-52.75324 198.18374,-60.28928 55.86345,-13.5358 117.42802,-33.64514 139.1496,-45.45158 11.33917,-6.16322 28.0459,-17.33829 31.01688,-20.74706 2.15118,-2.46818 2.84858,-2.55699 8.23555,-1.04875 6.1661,1.72643 6.1645,1.72156 3.2058,9.356 -1.6043,4.13968 -19.02818,17.30772 -29.93735,22.62504 -4.48018,2.18372 -13.18018,5.81215 -19.33334,8.06316 -6.15314,2.25103 -16.05726,6.16924 -22.00913,8.70715 -15.96864,6.80909 -134.1734,41.93798 -141.11663,41.93798 -1.79356,0 -91.25008,24.31119 -115.25952,31.32356 -9.09209,2.6555 -27.09209,8.40888 -40,12.78531 -25.09509,8.50849 -50.88621,16.19923 -73.37102,21.87873 -7.64615,1.93138 -28.34615,7.61247 -46,12.62466 -17.65386,5.0122 -36.29791,9.86245 -41.43124,10.77836 -5.13334,0.91589 -9.64918,2.14602 -10.03519,2.73361 -0.38603,0.58759 -1.50008,0.57501 -2.47569,-0.028 z"
         id="path988" />
      <path
         style="fill:#55ed55;stroke-width:1.33333"
         d="m 525.34453,862.31235 c 0.65686,-0.75504 194.12868,-67.51744 311.9888,-107.65972 C 917.76147,727.2594 971.45631,708.65737 983.63156,703.96911 989.30075,701.78609 994.72715,700 995.69021,700 c 4.68239,0 -15.39177,14.85633 -33.02354,24.43981 -21.50894,11.69086 -85.42254,32.60883 -137.33334,44.94716 -18.74508,4.4554 -80.44882,22.64108 -128.66666,37.92139 -25.96248,8.22756 -164.4915,53.09076 -169.6892,54.95457 -1.27095,0.45574 -2.00576,0.47798 -1.63294,0.0495 z"
         id="path986" />
      <path
         style="fill:#41e941;stroke-width:1.33333"
         d="m 450.17095,563.85472 c -0.4607,-2.30343 -0.83762,-12.41995 -0.83762,-22.48113 V 523.08051 L 465,517.70583 c 8.61667,-2.95607 129.86432,-44.80154 269.43923,-92.98992 139.57489,-48.18839 253.95405,-87.4129 254.17588,-87.16558 0.22184,0.24732 0.0901,11.99919 -0.29278,26.11527 l -0.69612,25.6656 -5.01333,1.34995 c -2.75733,0.74248 -10.92324,4.0936 -18.14644,7.44694 -140.75107,65.3431 -311.44533,122.36343 -480.31516,160.44906 -16.4168,3.70252 -30.58988,7.34696 -31.49572,8.09874 -1.2302,1.02096 -1.85899,0.307 -2.48461,-2.82117 z"
         id="path984" />
      <path
         style="fill:#3de83d;stroke-width:1.33333"
         d="m 450.19603,620.37585 c -0.92863,-5.61905 -0.84135,-60.16494 0.0885,-55.29802 0.44579,2.33332 1.00288,2.73353 2.30304,1.6545 0.94325,-0.78282 15.14693,-4.45266 31.56373,-8.15518 168.86983,-38.08563 339.5641,-95.10596 480.31516,-160.44906 7.2232,-3.35334 15.4732,-6.72712 18.33334,-7.49726 L 988,389.23055 v -20.17083 c 0,-11.09396 0.36269,-19.80813 0.80599,-19.36485 0.44328,0.44329 0.36318,20.65196 -0.17799,44.90816 l -0.98397,44.10217 -3.48868,0.81977 c -1.91878,0.45087 -16.38868,6.81996 -32.15535,14.15355 -112.79107,52.46277 -234.59109,97.44937 -361.33333,133.4578 -30.16611,8.57041 -91.33391,24.31905 -117.25695,30.18971 -9.85799,2.23249 -18.92637,4.96656 -20.15197,6.0757 -2.03766,1.84406 -2.29968,1.5851 -3.06172,-3.02588 z"
         id="path982" />
      <path
         style="fill:#3ae83a;stroke-width:1.33333"
         d="m 450.17095,661.18805 c -0.4607,-2.30342 -0.74772,-12.96305 -0.63784,-23.68805 0.10986,-10.725 0.45478,-17.79764 0.76645,-15.71699 0.52364,3.49564 0.74215,3.62422 2.87661,1.69255 1.27047,-1.14976 10.37556,-3.91704 20.23355,-6.14953 25.92304,-5.87066 87.09084,-21.6193 117.25695,-30.18971 C 717.40891,551.12789 839.20893,506.14129 952,453.67852 c 15.76667,-7.33359 30.31667,-13.72279 32.33333,-14.19823 L 988,438.61587 v 24.27485 24.27485 l -3.96859,-3.80214 -3.96857,-3.80214 -15.03143,5.76412 c -8.26728,3.17027 -25.23141,10.39726 -37.69808,16.05998 -33.14124,15.0537 -73.2474,32.46512 -92.49597,40.15554 -23.44075,9.36535 -70.15439,27.57564 -78.17069,30.47315 -94.43144,34.13229 -168.94156,56.99704 -263.19551,80.76617 -21.55752,5.43643 -39.9306,10.49448 -40.82905,11.24014 -1.21268,1.00642 -1.84936,0.27669 -2.47116,-2.83234 z M 988.52229,409.33333 c 0,-9.9 0.2099,-13.95 0.46644,-9 0.25655,4.95 0.25655,13.05 0,18 -0.25654,4.95 -0.46644,0.9 -0.46644,-9 z"
         id="path980" />
      <path
         style="fill:#39e639;stroke-width:1.33333"
         d="m 450.28751,722 c -0.50866,-2.93333 -0.84972,-18.23333 -0.75792,-34 0.0917,-15.76667 0.4315,-27.28164 0.75492,-25.58884 0.4433,2.32036 1.0068,2.73029 2.28958,1.66567 0.93587,-0.7767 19.33955,-5.86015 40.89707,-11.29658 94.25395,-23.76913 168.76407,-46.63388 263.19551,-80.76617 8.0163,-2.89751 54.72994,-21.1078 78.17069,-30.47315 19.24857,-7.69042 59.35473,-25.10184 92.49597,-40.15554 12.46667,-5.66272 29.4308,-12.88971 37.69808,-16.05998 l 15.03143,-5.76412 3.96857,3.80214 3.96859,3.80214 v 22.93934 22.93933 l -3.66667,0.91333 c -2.01666,0.50234 -15.96666,6.92592 -31,14.27464 -93.92881,45.91508 -182.43085,82.52267 -284.66666,117.74826 -37.05187,12.7663 -50.78608,16.22914 -84.66667,21.3472 -6.96667,1.0524 -24.96667,4.08098 -40,6.7302 -15.03333,2.6492 -31.53333,5.02393 -36.66667,5.27716 -8.96296,0.44216 -41.85718,5.25429 -48.57122,7.10553 -3.40606,0.93913 -4.75764,4.00871 -6.55755,14.89277 l -0.99223,6 z M 436.39955,549.33333 c 0,-4.03333 0.24996,-5.68333 0.55545,-3.66666 0.30551,2.01666 0.30551,5.31666 0,7.33333 -0.30549,2.01667 -0.55545,0.36667 -0.55545,-3.66667 z M 430,535.4166 c -6.08988,-4.00967 -24.17764,-10.712 -122.66667,-45.45353 -22.9682,-8.10192 -49.58346,-17.22239 -98.32937,-33.69532 l -34.32937,-11.60108 -0.004,-6.27419 -0.004,-6.27419 5.66666,2.03972 c 7.15967,2.57715 215.57808,74.66506 239.33334,82.78079 l 17.66666,6.03564 v 8.51277 c 0,4.68204 -0.15,8.46915 -0.33333,8.4158 -0.18333,-0.0533 -3.33333,-2.07222 -7,-4.48641 z M 988.56437,454 c 10e-4,-15.4 0.19518,-21.51739 0.43131,-13.5942 0.23615,7.92319 0.23525,20.52319 -10e-4,28 -0.23723,7.47681 -0.43043,0.9942 -0.42934,-14.4058 z"
         id="path978" />
      <path
         style="fill:#35e535;stroke-width:1.33333"
         d="m 450.20807,803.34301 c -1.22348,-8.92622 -0.78796,-84.90858 0.4586,-80.00968 l 1.01782,4 0.178,-4 c 0.36179,-8.13029 3.57712,-15.95074 6.94538,-16.89277 6.55588,-1.83355 39.52853,-6.66169 48.52546,-7.10553 5.13334,-0.25323 21.63334,-2.62796 36.66667,-5.27716 15.03333,-2.64922 33.03333,-5.6778 40,-6.7302 33.88059,-5.11806 47.6148,-8.5809 84.66667,-21.3472 102.23581,-35.22559 190.73785,-71.83318 284.66666,-117.74826 15.03334,-7.34872 28.98334,-13.7723 31,-14.27464 L 988,533.04424 l 0.1052,-26.18879 c 0.0579,-14.40382 0.43087,-25.36985 0.82883,-24.36894 0.39797,1.0009 0.27988,27.8509 -0.26242,59.66666 C 987.80268,593.13596 987.43999,600 985.61516,600 c -1.13877,0 -23.71805,10.7662 -50.17617,23.92488 -57.63776,28.6656 -85.13975,41.31115 -140.77232,64.72787 -100.26159,42.20185 -191.99428,74.31221 -300.44982,105.17029 -26.06857,7.41709 -40.36073,12.10911 -41.4586,13.61053 -1.455,1.98983 -1.79054,1.4516 -2.55018,-4.09056 z"
         id="path976" />
      <path
         style="fill:#38de38;stroke-width:1.33333"
         d="m 433.47879,621.5376 c -1.54667,-2.17209 -2.81639,-5.95663 -2.8216,-8.41009 -0.005,-2.45347 -0.39626,-8.55667 -0.86899,-13.56267 -0.69672,-7.37804 -1.41997,-9.46905 -3.81885,-11.04087 -1.62766,-1.06648 -16.0866,-4.02513 -32.13102,-6.5748 -74.79306,-11.88558 -135.94065,-23.29862 -208.17166,-38.8547 l -11,-2.36903 v -47.69605 c 0,-26.23283 0.50033,-47.69606 1.11185,-47.69606 0.61152,0 23.26152,7.54718 50.33333,16.7715 27.07182,9.22433 52.52148,17.88004 56.55482,19.23492 7.33506,2.46398 40.89592,14.29182 105.94446,37.33797 20.1734,7.14725 37.52942,14.12921 41.607,16.73761 l 6.99586,4.4752 0.48006,-8.94526 c 0.26403,-4.9199 0.20786,14.15473 -0.1248,42.38806 -0.33269,28.23334 -0.75641,51.51788 -0.9416,51.74344 -0.18518,0.22555 -1.60216,-1.36708 -3.14882,-3.53917 z m 3.47621,-75.87093 c -0.30549,-2.01667 -0.55545,-0.36667 -0.55545,3.66666 0,4.03334 0.24996,5.68334 0.55545,3.66667 0.30551,-2.01667 0.30551,-5.31667 0,-7.33333 z"
         id="path974" />
      <path
         style="fill:#32e432;stroke-width:1.33333"
         d="m 450.27656,848 c -0.49875,-1.83333 -0.83603,-13.23333 -0.74949,-25.33333 0.0865,-12.1 0.53886,-19.9 1.00521,-17.33334 0.73175,4.0274 1.03905,4.33907 2.24336,2.27518 1.00272,-1.71844 12.62895,-5.58768 41.30991,-13.7481 108.59742,-30.8985 200.2734,-62.9864 300.58112,-105.20766 55.63257,-23.41672 83.13456,-36.06227 140.77232,-64.72787 C 961.89711,610.7662 984.54711,600 985.77232,600 987.79867,600 988,603.25364 988,636 c 0,33.35505 -0.17143,36.00805 -2.33333,36.10964 -6.39551,0.30052 -14.19352,2.61555 -62.33334,18.50517 -28.6,9.44008 -54.4,17.88982 -57.33333,18.77719 -2.93333,0.88737 -14.93333,5.37088 -26.66667,9.96332 -49.30589,19.29843 -112.65378,42.41905 -192.66666,70.31924 -56.37098,19.65633 -60.30268,20.86695 -85.33334,26.27489 -47.90142,10.34927 -56.29378,11.94222 -78,14.80519 -6.6,0.87052 -14.32388,2.05967 -17.16417,2.64255 -2.84029,0.58289 -5.94973,0.75834 -6.90987,0.3899 -2.06921,-0.79404 -5.49864,5.32022 -7.01277,12.50291 -0.98911,4.69208 -1.12631,4.81117 -1.96996,1.71 z M 988.55811,568 c 0,-14.3 0.19614,-20.15 0.43589,-13 0.23975,7.15 0.23975,18.85 0,26 -0.23975,7.15 -0.43589,1.3 -0.43589,-13 z"
         id="path972" />
      <path
         style="fill:#35dc35;stroke-width:1.33333"
         d="m 431.51951,696.45695 c -3.55452,-4.89807 -4.66748,-7.93482 -5.26904,-14.3767 -0.41946,-4.49184 -1.39359,-9.82649 -2.16475,-11.85477 -1.69148,-4.44896 -9.01271,-7.92019 -17.08296,-8.09957 -3.11515,-0.0692 -5.66515,-0.50779 -5.66667,-0.97452 -0.001,-0.46674 -2.85276,-1.27515 -6.33609,-1.7965 -3.48333,-0.52133 -6.88391,-1.28702 -7.55683,-1.70153 -0.67292,-0.41451 -5.17292,-0.90981 -10,-1.10067 -20.8416,-0.82405 -35.11321,-1.95018 -40.76422,-3.21661 -3.48039,-0.77996 -22.37839,-1.27081 -44.37071,-1.15247 -21.06953,0.11334 -41.60824,0.10294 -45.64157,-0.0231 -5.93628,-0.18559 -42.16048,-8.25279 -67,-14.92103 l -5,-1.34227 v -47.28193 c 0,-44.14509 0.1548,-47.28133 2.33333,-47.2726 1.28333,0.005 7.37696,1.21841 13.5414,2.69619 6.16444,1.47776 34.96444,7.43552 64,13.23946 50.63388,10.12124 75.31868,14.49254 139.29693,24.6673 16.04442,2.55161 30.50336,5.51186 32.13102,6.57834 2.39888,1.57182 3.12213,3.66283 3.81885,11.04087 0.47273,5.006 0.86377,11.1092 0.86899,13.56267 0.005,2.47785 1.34308,6.33046 3.00948,8.66666 l 3,4.20583 0.80341,-33.33333 c 0.44188,-18.33334 0.49895,-7.23334 0.1268,24.66666 -0.37212,31.9 -0.53071,64.15 -0.35244,71.66667 0.17827,7.51667 -0.0229,13.66667 -0.44723,13.66667 -0.42424,0 -2.79922,-2.79438 -5.27774,-6.20972 z"
         id="path970" />
      <path
         style="fill:#31e231;stroke-width:1.33333"
         d="m 450.30863,868.53085 c -0.53642,-0.53641 -0.93312,-5.82529 -0.88158,-11.75308 0.0631,-7.26078 0.46764,-9.90758 1.23962,-8.1111 1.05253,2.44938 1.15593,2.39506 1.2689,-0.66667 0.19744,-5.35113 5.12426,-15.05692 7.23247,-14.24793 1.01032,0.3877 4.16083,0.22801 7.00112,-0.35488 2.84029,-0.58288 10.56417,-1.77203 17.16417,-2.64255 21.70622,-2.86297 30.09858,-4.45592 78,-14.80519 25.03066,-5.40794 28.96236,-6.61856 85.33334,-26.27489 80.01288,-27.90019 143.36077,-51.02081 192.66666,-70.31924 11.73334,-4.59244 23.73334,-9.07595 26.66667,-9.96332 2.93333,-0.88737 28.73333,-9.33889 57.33333,-18.78116 28.6,-9.44225 54.85,-17.54175 58.33334,-17.99888 L 988,671.78081 v 4.77627 c 0,3.84077 -0.50744,4.77625 -2.59085,4.77625 -2.89391,0 -18.10744,5.271 -113.40915,39.29264 -154.70951,55.22954 -351.04351,123.06648 -370.32635,127.95443 -11.14078,2.82404 -37.67614,11.32471 -45.83794,14.68429 -1.19036,0.48999 -2.70147,2.09476 -3.35803,3.56616 -0.65657,1.47142 -1.63264,2.23642 -2.16905,1.7 z m 714.35807,-35.96912 c 9.1308,-3.67372 78.356,-27.31678 78.7699,-26.90294 0.2157,0.21569 -13.9083,6.57236 -31.3867,14.12592 -29.5746,12.78117 -32.505,13.775 -42.2477,14.3283 l -10.4689,0.59454 z M 436.21052,678.66667 c 0,-1.83334 0.30264,-2.58334 0.67252,-1.66667 0.36988,0.91667 0.36988,2.41667 0,3.33333 -0.36988,0.91667 -0.67252,0.16667 -0.67252,-1.66666 z M 988.58615,630 c 6.6e-4,-20.53333 0.18576,-28.74703 0.4113,-18.25267 0.22555,10.49438 0.225,27.29438 -10e-4,37.33334 -0.22622,10.03897 -0.41076,1.45266 -0.41008,-19.08067 z"
         id="path968" />
      <path
         style="fill:#6a6a6a;stroke-width:1.33333"
         d="m 999.31465,508 c 0,-100.83333 0.15834,-142.08333 0.35187,-91.66667 0.19352,50.41667 0.19352,132.91667 0,183.33334 -0.19353,50.41666 -0.35187,9.16666 -0.35187,-91.66667 z"
         id="path966" />
      <path
         style="fill:#31da31;stroke-width:1.33333"
         d="m 433.43011,824.48685 c -2.13646,-2.71605 -2.78215,-5.51433 -2.84587,-12.33333 -0.13797,-14.76323 -1.88976,-28.03319 -3.96959,-30.07004 -1.10298,-1.0802 -19.01001,-5.39737 -41.28132,-9.95244 -42.58113,-8.70896 -50.95724,-10.5726 -99.33333,-22.1012 -31.51631,-7.51071 -32.15116,-7.60396 -42,-6.16913 -10.96581,1.59754 -18.86035,2.27716 -40,3.44344 -7.7,0.42481 -17.45,1.11408 -21.66667,1.5317 l -7.66666,0.75931 v -56.88743 c 0,-53.56552 0.13625,-56.84514 2.33333,-56.1632 12.75237,3.95818 63.98447,15.44458 69.66667,15.6195 4.03333,0.12413 24.57204,0.13293 45.64157,0.0196 21.99232,-0.1184 40.89032,0.3725 44.37071,1.15246 5.65101,1.26643 19.92262,2.39256 40.76422,3.21662 4.82708,0.19085 9.32708,0.68616 10,1.10066 0.67292,0.41451 4.0735,1.1802 7.55683,1.70154 3.48333,0.52134 6.33457,1.32976 6.33609,1.79649 10e-4,0.46673 2.55152,0.90527 5.66667,0.97452 8.07025,0.17939 15.39148,3.65061 17.08296,8.09957 0.77116,2.02828 1.74529,7.36294 2.16475,11.85478 0.61717,6.60918 1.6833,9.415 5.58942,14.71002 l 4.82678,6.54304 0.80428,-36 c 0.44236,-19.8 0.52208,0.3 0.17716,44.66667 -0.34492,44.36667 -0.49919,88.61667 -0.34283,98.33333 C 437.46164,820.05 437.27541,828 436.89156,828 c -0.38391,0 -1.94156,-1.58092 -3.46145,-3.51315 z M 173.71468,438 c 0.0107,-3.66667 0.26896,-5.00841 0.57543,-2.98167 0.30648,2.02675 0.29828,5.02675 -0.0181,6.66667 -0.31648,1.63992 -0.56722,-0.0184 -0.55722,-3.685 z"
         id="path964" />
      <path
         style="fill:#2de12d;stroke-width:1.33333"
         d="m 917.33333,918.1224 c 0,-0.29933 3.45,-1.74225 7.66667,-3.20649 4.21667,-1.46423 26.86667,-9.36435 50.33333,-17.55583 130.18207,-45.44252 180.95397,-62.6732 182.27227,-61.85849 0.8102,0.50073 1.1399,0.36773 0.7326,-0.29558 -0.4175,-0.67988 4.0036,-1.2239 10.134,-1.24704 10.8248,-0.0408 11.0219,-0.10466 43.0951,-13.96568 17.7212,-7.65854 31.8698,-14.49205 31.4412,-15.18556 -0.4389,-0.71017 0.1898,-0.88902 1.4394,-0.40949 1.2203,0.46827 2.2188,0.41107 2.2188,-0.12707 0,-0.53818 3.15,-2.09653 7,-3.46298 3.85,-1.36646 7.75,-2.77148 8.6666,-3.12228 1.9028,-0.72818 2.275,16.00113 0.814,36.58477 l -0.8528,12.01361 -24.4512,0.11134 c -14.2496,0.0649 -24.7801,-0.42067 -25.2394,-1.16386 -0.4335,-0.70138 -1.3315,-0.93946 -1.9955,-0.52906 -0.6641,0.41041 -5.2726,1.00549 -10.2412,1.32242 -26.6161,1.69772 -31.2694,2.38775 -45.7005,6.77674 -8.4334,2.56486 -16.8334,5.19894 -18.6667,5.85349 -3.3351,1.19075 -109.484,35.78253 -144.66667,47.14396 -37.63201,12.15239 -40.86301,12.86735 -58.14916,12.86735 -8.71796,0 -15.85084,-0.24492 -15.85084,-0.54427 z m -468,-46.1832 c 0,-2.25312 0.5568,-3.75245 1.23734,-3.33187 0.68054,0.4206 1.60338,-0.38856 2.05076,-1.79813 0.44738,-1.40956 1.84057,-2.98417 3.096,-3.49912 8.36994,-3.43316 34.75996,-11.89157 45.95622,-14.72968 C 520.95649,843.69245 717.29049,775.85551 872,720.62597 c 94.97471,-33.9049 110.51605,-39.29264 113.34261,-39.29264 2.1284,0 2.59976,-1.20241 3.0054,-7.66666 0.47938,-7.63916 0.48194,-7.63319 0.715,1.66666 0.12867,5.13334 -0.092,10.53334 -0.49018,12 -0.58095,2.13947 -7.36511,4.94818 -34.31514,14.20682 C 917.50017,714.16812 780.88335,761.31017 640,809.98031 c -96.88391,33.46989 -161.59375,55.6386 -173.33333,59.3816 -4.03334,1.28597 -9.58334,3.31368 -12.33334,4.50601 l -5,2.16787 z"
         id="path962" />
      <path
         style="fill:#2ddd2d;stroke-width:1.33333"
         d="m 725.00411,993.07896 c -0.36366,-4.62676 -0.28834,-8.80808 0.16736,-9.29181 0.59344,-0.62996 159.97337,-56.12738 192.82853,-67.14451 2.15383,-0.72223 2.28204,-0.61751 0.66667,0.54449 -1.47436,1.06059 2.25348,1.44407 14.18417,1.45912 17.67617,0.0223 20.66127,-0.63344 58.48249,-12.84694 C 1026.516,894.43788 1132.6649,859.84609 1136,858.65535 c 1.8333,-0.65455 10.2333,-3.28863 18.6667,-5.8535 14.4311,-4.38898 19.0844,-5.07901 45.7005,-6.77673 4.9686,-0.31693 9.5771,-0.91201 10.2412,-1.32243 0.664,-0.4104 1.562,-0.17232 1.9955,0.52907 0.4595,0.74357 11.0355,1.22857 25.3668,1.16328 l 24.5787,-0.112 0.4684,-8.14153 c 0.2576,-4.47784 0.5804,-0.94154 0.7173,7.85846 0.1369,8.8 -0.1354,20.93748 -0.6052,26.97219 -0.7477,9.60433 -1.2038,11.07819 -3.6587,11.82233 -1.5425,0.46756 -10.2682,4.45846 -19.3905,8.86863 -16.2271,7.84495 -29.0981,13.70993 -62.7474,28.59228 -17.8293,7.88553 -72.8174,30.2738 -89.3333,36.37184 -5.5,2.03072 -21.2505,7.97811 -35.0012,13.2164 -31.9102,12.15616 -37.068,13.50203 -46.2073,12.05729 -3.9296,-0.62118 -11.11522,-1.46458 -15.9681,-1.87421 -4.85287,-0.40961 -13.9234,-1.39725 -20.15673,-2.19472 -6.23334,-0.79748 -13.43334,-1.68132 -16,-1.96409 C 952.1,977.58513 945.5,976.70527 940,975.91264 c -5.5,-0.79264 -12.1,-1.63045 -14.66667,-1.86183 -2.56666,-0.23137 -4.96666,-0.52576 -5.33333,-0.65418 -2.05341,-0.71927 -11.25692,-1.56007 -20,-1.82712 -5.5,-0.16799 -10.80591,-0.80982 -11.79089,-1.42627 -0.98499,-0.61647 -4.25055,-1.08689 -7.25682,-1.0454 -3.00625,0.0415 -6.06506,-0.29485 -6.79734,-0.74744 -0.7323,-0.45257 -4.50354,-0.99409 -8.38055,-1.20336 -3.87701,-0.20927 -8.56231,-1.37197 -10.41176,-2.58379 C 853.51319,963.35145 852,962.80244 852,963.34324 c 0,0.5408 -0.88184,0.25141 -1.95965,-0.64309 -1.5706,-1.30348 -4.81332,-0.79871 -16.33334,2.54248 -13.88478,4.02705 -101.46881,33.17517 -105.87438,35.23517 -1.84744,0.8639 -2.26495,-0.2283 -2.82852,-7.39884 z M 436.25993,796.66667 c 0.0272,-2.2 0.326,-2.93859 0.66406,-1.6413 0.33805,1.2973 0.31582,3.0973 -0.0495,4 -0.36524,0.90271 -0.64183,-0.1587 -0.61465,-2.3587 z"
         id="path960" />
      <path
         style="fill:#2dd92d;stroke-width:1.33333"
         d="m 725.41175,1047.8741 c -0.0431,-17.3026 -0.30296,-37.7026 -0.5774,-45.3334 -0.27444,-7.6307 -0.24131,-10.97255 0.0736,-7.42631 0.48733,5.48731 0.90922,6.29151 2.8323,5.39881 4.54712,-2.11057 92.01926,-31.22535 105.96671,-35.27057 11.52001,-3.34119 14.76273,-3.84596 16.33333,-2.54248 1.07782,0.8945 1.95966,1.18389 1.95966,0.64309 0,-0.5408 1.51318,0.008 3.36264,1.22001 1.84945,1.21182 6.53474,2.37452 10.41176,2.58379 3.87701,0.20927 7.64825,0.75079 8.38054,1.20336 0.73228,0.45259 3.7911,0.78893 6.79735,0.74744 3.00627,-0.0415 6.27183,0.42893 7.25681,1.0454 0.98499,0.61645 6.2909,1.25828 11.7909,1.42627 8.74308,0.26705 17.94658,1.10785 20,1.82712 0.36666,0.1284 2.76666,0.42281 5.33333,0.65418 2.56667,0.23138 9.16667,1.06919 14.66667,1.86183 5.5,0.79263 12.1,1.67249 14.66666,1.95527 2.56667,0.28277 9.76667,1.16661 16,1.96409 6.23334,0.79747 15.30387,1.78511 20.15674,2.19475 4.85288,0.40962 12.03355,1.25224 15.95695,1.87245 3.9234,0.62021 8.0529,0.80101 9.1766,0.40179 1.1237,-0.39923 1.7066,-0.34383 1.2954,0.12306 -1.7501,1.98736 -91.06567,31.12245 -141.25235,46.07715 -17.9291,5.3425 -72.5847,20.2631 -84,22.9313 -3.3,0.7714 -8.1,1.9551 -10.66667,2.6305 -2.56667,0.6754 -14.26667,3.6052 -26,6.5106 -21.8528,5.4113 -23.10117,6.0402 -28.25492,14.2344 -1.25647,1.9978 -1.60464,-4.0467 -1.66667,-28.9339 z M 708.6,997.43531 C 707.90333,996.75807 686.03333,989.01824 660,980.23572 633.96667,971.45319 587.76667,955.76457 557.33333,945.37213 526.9,934.97969 490.6,922.59712 476.66667,917.85532 c -13.93334,-4.7418 -29.08815,-9.91173 -33.67736,-11.48873 -4.63927,-1.59422 -9.11658,-4.08814 -10.084,-5.61694 -1.03323,-1.6328 -2.40179,-11.68522 -3.36935,-24.74873 -0.99845,-13.48077 -2.25664,-22.60641 -3.24933,-23.56752 -0.89098,-0.86265 -16.01996,-4.66547 -33.61996,-8.45072 -17.6,-3.78525 -39.2,-8.70485 -48,-10.93245 -8.8,-2.22759 -19.3,-4.07571 -23.33334,-4.10692 -14.2136,-0.11 -53.04197,1.9018 -86,4.4559 -18.33333,1.42076 -39.48333,3.05654 -47,3.63506 l -13.66666,1.05186 v -44.24549 -44.24548 l 7.66666,-0.75931 C 186.55,748.41823 196.3,747.72896 204,747.30415 c 21.13965,-1.16628 29.03419,-1.8459 40,-3.44344 9.84884,-1.43483 10.48369,-1.34158 42,6.16913 48.37609,11.5286 56.7522,13.39224 99.33333,22.1012 22.27131,4.55507 40.17834,8.87224 41.28132,9.95244 2.07983,2.03685 3.83162,15.30681 3.96959,30.07004 0.0659,7.04692 0.68557,9.58735 3.08243,12.63599 l 3,3.8158 0.79464,-41.96932 c 0.63198,-33.37815 0.76845,-26.96151 0.66666,31.34636 l -0.128,73.31566 4.66667,0.0776 c 2.56667,0.0427 58.66667,18.86591 124.66667,41.82934 66,22.96341 125.4,43.5639 132,45.77886 6.6,2.21498 12.43742,4.41715 12.97206,4.89374 1.16006,1.0341 -0.28881,14.78905 -1.55778,14.78905 -0.48452,0 -1.45095,-0.55411 -2.14762,-1.23136 z"
         id="path958" />
      <path
         style="fill:#2adc2a;stroke-width:1.33333"
         d="m 725.54385,1081.3333 c 0,-1.8333 0.30264,-2.5833 0.67252,-1.6666 0.36988,0.9166 0.36988,2.4166 0,3.3333 -0.36988,0.9167 -0.67252,0.1667 -0.67252,-1.6667 z m 203.12282,-34.7831 c -2.93334,-0.7249 -10.73334,-1.8479 -17.33334,-2.4955 -6.6,-0.6475 -14.94005,-1.8234 -18.53345,-2.6131 -3.5934,-0.7897 -9.8934,-1.7877 -14,-2.2177 -4.1066,-0.43 -8.96655,-0.9539 -10.79988,-1.1643 -1.83333,-0.2103 -4.80333,-0.4598 -6.6,-0.5543 -5.67001,-0.2985 -1.35335,-2.3113 15.93333,-7.4295 60.96618,-18.051 147.15927,-46.86624 190.66667,-63.74184 80.2677,-31.13415 126.8838,-50.82043 172.0807,-72.67081 9.1223,-4.41018 17.907,-8.41978 19.5215,-8.91022 2.4941,-0.75762 3.0076,-2.0341 3.4145,-8.48898 0.2635,-4.17851 0.5894,16.10272 0.7243,45.06938 0.1349,28.96667 -0.1386,58.46222 -0.6077,65.54566 l -0.8529,12.879 -15.4735,7.96111 -15.4736,7.9611 -20.6666,2.1244 c -20.1833,2.0746 -67.3624,4.3121 -86,4.0784 -5.1334,-0.064 -30.0334,-0.3088 -55.3334,-0.5432 l -46,-0.4263 -36.66663,13.0879 c -38.50739,13.745 -46.32008,15.4353 -58,12.5488 z m -468,-175.26501 c 2.2,-1.00738 4.9,-1.81299 6,-1.79028 1.1,0.0227 -0.1,0.85001 -2.66667,1.83842 -6.0876,2.34432 -8.48275,2.30972 -3.33333,-0.0481 z m 527.4386,-182.72963 c 0.064,-1.55327 0.37992,-1.8692 0.80554,-0.80556 0.38516,0.96249 0.3378,2.11251 -0.1052,2.55556 -0.44305,0.44305 -0.75818,-0.34445 -0.70029,-1.75 z"
         id="path956" />
      <path
         style="fill:#2cd62c;stroke-width:1.33333"
         d="m 726.68913,1114.4746 c -0.0203,-4.3916 1.7551,-24.1645 3.39291,-37.7874 0.35131,-2.922 1.43423,-6.1082 2.40649,-7.0805 1.87174,-1.8717 35.18394,-10.8782 40.8448,-11.043 1.83334,-0.053 5.73334,0.5824 8.66667,1.4129 2.93333,0.8305 7.73333,1.8279 10.66667,2.2164 2.93333,0.3885 7.70104,1.2167 10.59489,1.8404 2.89385,0.6237 5.77013,0.8197 6.39173,0.4355 0.6216,-0.3842 1.85391,-0.1289 2.73844,0.5673 0.88455,0.6961 4.90827,1.36 8.9416,1.4752 8.81148,0.2517 29.03152,3.4167 37.29851,5.8383 l 5.96519,1.7474 -25.96519,7.5445 c -14.28084,4.1495 -31.06517,8.8302 -37.29851,10.4016 -11.58598,2.9207 -49.84572,13.1785 -62.20176,16.6768 -5.16912,1.4635 -7.55518,3.017 -9.64421,6.279 l -2.77577,4.3343 -0.0224,-4.8587 z m -20.44044,-75.6047 c -5.00557,-10.4698 -5.14526,-10.6178 -8.98202,-9.5174 -2.34702,0.6731 -4.21436,0.6048 -4.69423,-0.1716 -0.43828,-0.7092 -1.94636,-0.9245 -3.35132,-0.4786 -1.40495,0.4459 -2.55509,0.3203 -2.55587,-0.2791 -7.7e-4,-0.5994 -8.25077,-1.2151 -18.33333,-1.3682 -15.52568,-0.2358 -23.85505,-1.2985 -54.41216,-6.9424 -19.84413,-3.6652 -53.14413,-10.3198 -74,-14.788 -20.85587,-4.4682 -46.61976,-9.93671 -57.25309,-12.1522 -25.70512,-5.35575 -70.0024,-16.17888 -119.88819,-29.29224 -73.50525,-19.32216 -96.6192,-25.98024 -157.13303,-45.26293 l -31.02121,-9.88488 0.35455,-35.36618 L 175.33333,838 188,837.04456 c 6.96667,-0.52548 28.26667,-2.15131 47.33333,-3.61293 34.61394,-2.65346 72.13796,-4.61471 86,-4.49494 4.03334,0.0348 14.53334,1.88595 23.33334,4.11354 8.8,2.2276 30.4,7.1472 48,10.93245 17.6,3.78525 32.72898,7.58807 33.61996,8.45072 0.99269,0.96111 2.25088,10.08675 3.24933,23.56752 0.96756,13.06351 2.33612,23.11593 3.36935,24.74873 0.96742,1.5288 5.44473,4.02272 10.084,5.61694 4.58921,1.577 19.74402,6.74693 33.67736,11.48873 13.93333,4.7418 50.23333,17.12437 80.66666,27.51681 30.43334,10.39244 76.63334,26.08106 102.66667,34.86359 26.03333,8.78252 47.90333,16.52235 48.6,17.19959 2.29651,2.23249 3.23237,1.29498 3.76204,-3.76864 0.87688,-8.3829 0.71583,28.77053 -0.18532,42.75253 l -0.84339,13.0858 z M 437.86999,868 c 0,-11.36667 0.20449,-16.01667 0.45442,-10.33333 0.24994,5.68333 0.24994,14.98333 0,20.66666 -0.24993,5.68334 -0.45442,1.03334 -0.45442,-10.33333 z M 173.92916,489.33333 c 0,-23.83333 0.1808,-33.58333 0.40179,-21.66666 0.22097,11.91666 0.22097,31.41666 0,43.33333 -0.22099,11.91667 -0.40179,2.16667 -0.40179,-21.66667 z"
         id="path954" />
      <path
         style="fill:#29d929;stroke-width:1.33333"
         d="m 725.48425,1136.6667 c -0.0753,-9.5334 -0.3483,-42.5334 -0.60669,-73.3334 -0.36367,-43.3486 -0.28308,-47.2645 0.35668,-17.3333 0.45456,21.2667 0.98407,37.1667 1.17669,35.3333 0.19263,-1.8333 1.21498,-4.8333 2.27188,-6.6666 1.87574,-3.2537 1.90778,-3.2059 1.34108,2 -3.68029,33.8082 -4.17229,43.9422 -1.97437,40.6666 1.35828,-2.0242 0.80091,8.9876 -1.41724,28 -0.87676,7.515 -1.02931,6.3634 -1.14803,-8.6666 z m 311.84905,-15.5448 c -61.17422,-2.1778 -90.84111,-3.9794 -105.29235,-6.3942 -8.45586,-1.4131 -19.57428,-2.9009 -24.70762,-3.3064 -5.13333,-0.4055 -12.63333,-1.0319 -16.66666,-1.3919 -4.03334,-0.36 -12.13334,-0.9875 -18,-1.3945 -5.86667,-0.4071 -13.96667,-1.5592 -18,-2.5602 -7.83798,-1.9455 -16.04427,-3.2275 -34.66667,-5.416 -3.3,-0.3878 -9.6,-1.3745 -14,-2.1927 -4.4,-0.8182 -9.65376,-1.6115 -11.67504,-1.763 -6.69564,-0.5016 -5.12703,-1.5712 6.66965,-4.5479 6.41963,-1.6199 23.35639,-6.3456 37.63723,-10.5016 l 25.96519,-7.5564 -5.96519,-1.7474 c -8.26699,-2.4216 -28.48703,-5.5866 -37.29851,-5.8383 -4.03333,-0.1152 -8.05705,-0.7791 -8.9416,-1.4752 -0.88453,-0.6962 -2.11684,-0.9515 -2.73844,-0.5673 -0.6216,0.3842 -3.49788,0.1882 -6.39173,-0.4355 -2.89385,-0.6237 -7.66156,-1.4519 -10.59489,-1.8404 -6.04631,-0.8008 -15.26008,-3.0086 -16.11226,-3.8608 -0.61116,-0.6112 5.80148,-2.6454 15.44559,-4.8996 3.3,-0.7714 19.3804,-5.0259 35.73421,-9.4545 16.35383,-4.4286 30.2269,-7.7475 30.82904,-7.3753 0.60216,0.3721 4.02176,0.9788 7.59912,1.3482 3.57736,0.3693 9.56424,0.9828 13.30418,1.3632 3.73993,0.3803 9.73993,1.3382 13.33333,2.1284 3.5934,0.7903 11.71671,1.9457 18.05179,2.5675 6.33509,0.6219 15.18498,1.852 19.66644,2.7337 4.48145,0.8817 10.69821,1.2986 13.815,0.9266 3.11678,-0.3721 22.16689,-6.5446 42.33356,-13.7167 l 36.66663,-13.0402 46,0.4263 c 25.3,0.2344 50.2,0.4788 55.3334,0.5432 18.6049,0.2332 65.803,-2.0022 86,-4.0733 l 20.6666,-2.1192 15.3334,-7.9109 15.3333,-7.91092 0.7645,-8.93435 c 1.1473,-13.4059 1.4599,21.80657 0.3732,42.01817 l -0.8624,16.0379 -8.1376,3.9864 c -4.4758,2.1925 -27.0377,13.5416 -50.1377,25.2203 -23.1,11.6787 -52.404,26.1577 -65.1199,32.1756 l -23.12,10.9418 -26.88,0.3427 c -14.7841,0.1886 -37.9801,-0.052 -51.5468,-0.5353 z"
         id="path952" />
      <path
         style="fill:#29d529;stroke-width:1.33333"
         d="m 724.68773,1184.9391 c -0.55574,-51.1834 -0.63782,-93.4334 -0.18241,-93.8889 0.4554,-0.4554 0.90585,13.522 1.001,31.0609 0.17195,31.7 0.57919,32.09 3.13517,3.0028 0.49391,-5.6208 1.63288,-11.2245 2.53103,-12.4528 1.50713,-2.0611 51.76153,-16.8936 56.82748,-16.7725 3.12353,0.075 9.28668,0.9571 18,2.5774 4.4,0.8182 10.7,1.8049 14,2.1927 18.6224,2.1885 26.82869,3.4705 34.66667,5.416 4.03333,1.001 12.13333,2.1531 18,2.5602 5.86666,0.407 13.96666,1.0345 18,1.3945 4.03333,0.36 11.53333,0.9864 16.66666,1.3919 5.13334,0.4055 16.25176,1.8933 24.70762,3.3064 9.31704,1.5569 28.22836,3.0917 48,3.8956 17.94414,0.7297 36.82575,1.6737 41.95905,2.0978 5.1333,0.4242 27.9077,0.8116 50.6096,0.861 l 41.2763,0.09 -6.6043,3.3563 c -10.1753,5.1713 -69.5775,31.0465 -91.9483,40.052 -108.75438,43.7803 -185.33799,71.3388 -197.3333,71.0102 -6.37107,-0.1746 -31.2154,-3.8167 -45.33333,-6.6458 C 769,1228.7097 760.6,1227.2156 754,1226.1243 c -6.6,-1.0913 -13.29905,-2.3724 -14.88677,-2.8468 -5.0646,-1.5133 -6.73848,3.4998 -9.14535,27.3892 -1.21907,12.1 -2.67847,23.2 -3.24311,24.6667 -0.56462,1.4666 -1.48129,-39.2107 -2.03704,-90.3942 z m -14.50062,-118.6997 c -0.55527,-10.135 -1.31595,-19.435 -1.69043,-20.6667 -0.37448,-1.2316 0.22493,-0.7394 1.33204,1.094 1.90832,3.1601 2.0374,2.7099 2.48457,-8.6667 0.25943,-6.6 0.52407,-0.6 0.58811,13.3333 0.14675,31.9305 -1.33561,40.0711 -2.71429,14.9061 z M 174.66667,958.69207 c 0,-27.14731 0.48626,-49.35874 1.0806,-49.35874 0.59433,0 17.84433,5.34846 38.33333,11.88547 55.76721,17.79249 73.58561,22.90404 148.70033,42.65752 40.51994,10.65583 95.98743,24.40645 105.5524,26.16688 2.75,0.50613 4.9998,1.30347 4.99956,1.77185 -2.4e-4,0.46839 -20.55024,1.00084 -45.66666,1.18323 -25.11643,0.18239 -48.66623,0.57469 -52.3329,0.8718 -3.66666,0.29711 -14.76666,0.97239 -24.66666,1.50061 -9.9,0.52823 -19.2,1.19816 -20.66667,1.48872 -1.46667,0.29058 -15.09219,1.09216 -30.27892,1.78131 -15.18675,0.68915 -30.48675,1.57738 -34,1.97378 -3.51327,0.3964 -10.58775,1.0078 -15.72108,1.3586 -5.13333,0.3509 -17.13333,1.2384 -26.66667,1.9723 -9.53333,0.7339 -23.03333,1.6761 -30,2.0938 -6.96666,0.4178 -14.01666,1.0413 -15.66666,1.3856 l -3,0.626 z"
         id="path950" />
      <path
         style="fill:#26d826;stroke-width:1.33333"
         d="m 1042.7387,1154.1598 c 0.327,-0.3218 13.4946,-6.2743 29.2613,-13.2278 15.7667,-6.9535 35.8667,-16.0342 44.6667,-20.1793 8.8,-4.1451 22.6,-10.6378 30.6666,-14.4283 8.0667,-3.7904 33.5667,-16.4473 56.6667,-28.1265 23.1,-11.6791 45.7275,-23.0591 50.2833,-25.2889 l 8.2832,-4.0542 0.5143,-10.7607 c 0.2829,-5.9184 0.4554,13.9394 0.3834,44.1286 -0.072,30.1891 -0.5413,55.2996 -1.0429,55.801 -0.5017,0.5013 -3.2017,1.1132 -6,1.3595 -2.7984,0.2464 -8.088,1.101 -11.7546,1.8991 -3.6667,0.7981 -12.0667,2.0171 -18.6667,2.7089 -6.6,0.6917 -26.4,2.8036 -44,4.693 -17.6,1.8895 -40.7,3.934 -51.3333,4.5434 -20.6689,1.1846 -88.92,1.9082 -87.928,0.9322 z"
         id="path948" />
      <path
         style="fill:#29d129;stroke-width:1.33333"
         d="m 728.50365,1263.3333 c 2.25879,-24.365 4.0604,-35.7341 6.05127,-38.1865 2.01661,-2.4841 2.47215,-2.5099 10.11175,-0.5715 4.4,1.1163 13.23613,2.6151 19.63586,3.3305 6.39972,0.7154 12.69972,1.8439 14,2.5077 1.92058,0.9806 25.17268,4.397 40.36414,5.9307 4.4637,0.4507 -30.02275,12.4489 -73.62286,25.6142 -8.4471,2.5506 -12.41284,4.493 -14.51412,7.1089 l -2.89129,3.5994 z m -17.66554,-40.6666 c -1.17115,-31.1403 -5.50302,-78.7957 -7.51643,-82.6892 -1.36535,-2.6403 -3.13349,-3.8188 -6.27784,-4.1841 -6.10896,-0.7098 -25.87516,-0.3344 -41.71051,0.7922 -7.33333,0.5218 -18.43333,1.1671 -24.66666,1.434 -6.23334,0.267 -11.33334,0.5601 -11.33334,0.6513 0,0.6205 -28.82886,2.3806 -54.0722,3.3013 -8.47304,0.3091 -17.11868,1.2132 -19.21253,2.0093 -2.09385,0.7961 -4.76136,1.3226 -5.9278,1.1701 -1.16644,-0.1525 -7.8208,0.1136 -14.78747,0.5914 -6.96666,0.4778 -20.16666,1.2188 -29.33333,1.6466 -9.16667,0.4278 -18.76667,1.0262 -21.33333,1.3297 -42.11806,4.9809 -45.40902,4.8661 -70.66667,-2.4658 -57.35424,-16.6491 -172.66076,-54.3017 -215.33333,-70.3157 l -13.33334,-5.0037 -0.35738,-31.4356 -0.3574,-31.4356 3.02406,-0.6321 c 1.66323,-0.3476 8.72406,-0.9738 15.69072,-1.3916 6.96667,-0.4177 20.46667,-1.3599 30,-2.0938 9.53334,-0.7339 21.53334,-1.6214 26.66667,-1.9723 5.13333,-0.3508 12.20781,-0.9622 15.72108,-1.3586 3.51325,-0.3964 18.81325,-1.28463 34,-1.97378 15.18673,-0.68915 28.81225,-1.49073 30.27892,-1.78131 1.46667,-0.29056 10.76667,-0.96049 20.66667,-1.48872 9.9,-0.52822 21,-1.20238 24.66666,-1.49814 C 379,993.5768 403.6,993.10304 430,992.81975 l 48,-0.51507 50,10.58582 c 84.85515,17.9653 118.97253,23.8402 140.33192,24.1645 10.08256,0.1531 18.33256,0.7688 18.33333,1.3682 7.8e-4,0.5994 1.15092,0.725 2.55587,0.2791 1.40496,-0.4459 2.91304,-0.2306 3.35132,0.4786 0.47565,0.7696 2.34177,0.8462 4.6296,0.1901 3.64093,-1.0442 4.0116,-0.7457 7.40664,5.9645 3.65737,7.2286 5.73791,20.9194 6.17961,40.6645 0.15295,6.8367 0.40879,7.8221 1.21171,4.6667 1.28349,-5.0441 1.33756,116.4366 0.0603,135.3333 -0.6474,9.5775 -1.03346,11.6834 -1.22214,6.6667 z M 173.9416,585.33333 c 0,-29.7 0.17556,-41.85 0.39015,-27 0.21457,14.85 0.21457,39.15 0,54 -0.21459,14.85 -0.39015,2.7 -0.39015,-27 z"
         id="path946" />
      <path
         style="fill:#26d526;stroke-width:1.33333"
         d="m 725.69648,1282.6667 c 0,-3.3 0.26003,-4.65 0.57783,-3 0.31781,1.65 0.31781,4.35 0,6 -0.3178,1.65 -0.57783,0.3 -0.57783,-3 z M 946,1250.6157 c -5.86667,-0.5615 -15.95147,-1.3746 -22.41068,-1.8068 -30.71805,-2.0554 -61.78775,-5.7033 -86.33625,-10.1367 -4.07747,-0.7364 -9.17747,-1.3699 -11.33334,-1.4079 -2.19177,-0.039 11.95032,-5.545 32.08027,-12.4908 50.59687,-17.4584 91.04565,-32.8343 160.0105,-60.8253 l 22.6773,-9.204 35.3227,-0.2037 c 43.4032,-0.2502 64.7637,-1.4305 105.9895,-5.8563 17.6,-1.8894 37.4,-4.0013 44,-4.693 6.6,-0.6918 15,-1.9248 18.6667,-2.74 5.9442,-1.3217 9.5316,-1.866 15.9334,-2.4179 1.3834,-0.1192 2.0704,-2.3481 2.4146,-7.8333 0.3081,-4.9109 0.5717,-2.813 0.7332,5.8362 l 0.2521,13.5029 -37,12.7133 c -242.61496,83.3629 -259.25016,88.9415 -264.69671,88.7659 -3.10014,-0.1 -10.43662,-0.6411 -16.30329,-1.2026 z M 724.53665,1204 c 0,-11.3667 0.2045,-16.0167 0.45443,-10.3333 0.24993,5.6833 0.24993,14.9833 0,20.6666 -0.24993,5.6834 -0.45443,1.0334 -0.45443,-10.3333 z"
         id="path944" />
      <path
         style="fill:#28ce28;stroke-width:1.33333"
         d="m 708.888,1268.1597 c -3.13273,-50.1855 -2.71779,-47.8354 -8.72837,-49.4342 -14.35066,-3.8173 -36.56771,-7.7693 -41.03746,-7.2999 -11.35405,1.1923 -20.28441,1.8935 -29.9146,2.3486 -5.56917,0.2632 -10.70949,0.8393 -11.42293,1.2802 -1.31255,0.8112 -23.90927,2.879 -47.11797,4.3117 -6.96667,0.43 -15.66667,1.3301 -19.33334,2.0001 -3.66666,0.67 -11.76666,1.5537 -18,1.9637 -6.23333,0.41 -12.83333,1.0228 -14.66666,1.3619 -5.36963,0.993 -58.64816,5.9009 -66.66667,6.1412 -4.58088,0.1373 -12.08756,-1.1402 -20,-3.4036 -39.84723,-11.3987 -101.64443,-31.4301 -157.16417,-50.9444 L 245.00497,1166 l 11.16419,-0.8503 c 11.13745,-0.8482 17.67329,-1.2729 60.49751,-3.9307 12.46666,-0.7738 24.46666,-1.6378 26.66666,-1.9201 8.99188,-1.1538 17.9974,-1.9376 30,-2.6111 27.5561,-1.5463 35.59824,-2.0937 42,-2.8584 C 419,1153.3914 426.5,1152.8358 432,1152.5948 c 8.71205,-0.3818 27.8946,-2.1237 42.66667,-3.8743 2.56666,-0.3042 12.16666,-0.9031 21.33333,-1.3309 9.16667,-0.4278 22.36667,-1.1688 29.33333,-1.6466 6.96667,-0.4778 13.62103,-0.7439 14.78747,-0.5914 1.16644,0.1525 3.83395,-0.374 5.9278,-1.1701 2.09385,-0.7961 10.73949,-1.7002 19.21253,-2.0093 25.24334,-0.9207 54.0722,-2.6808 54.0722,-3.3013 0,-0.091 5.1,-0.3843 11.33334,-0.6513 6.23333,-0.2669 17.33333,-0.9122 24.66666,-1.434 15.83535,-1.1266 35.60155,-1.502 41.71051,-0.7922 6.74752,0.784 7.92081,4.5963 10.16633,33.0331 2.33443,29.5629 3.27334,43.7543 3.56207,53.8402 0.17741,6.1973 0.36761,6.7136 1.22776,3.3333 1.21256,-4.7653 1.32287,42.4759 0.15255,65.3333 l -0.81922,16 z M 173.86999,658.66667 c 0,-11.36667 0.20449,-16.01667 0.45442,-10.33334 0.24994,5.68334 0.24994,14.98334 0,20.66667 -0.24993,5.68333 -0.45442,1.03333 -0.45442,-10.33333 z"
         id="path942" />
      <path
         style="fill:#26d126;stroke-width:1.33333"
         d="m 724.29753,1279.8222 c 0.26383,-50.0886 0.37712,-52.7877 1,-23.8222 0.40319,18.7492 1.03519,29.3768 1.48342,24.9447 0.9207,-9.1038 4.26672,-14.2748 10.6956,-16.529 2.48789,-0.8723 15.32345,-4.9456 28.52345,-9.0518 13.2,-4.1062 30.81467,-9.8429 39.14371,-12.7482 16.00353,-5.5823 20.18889,-6.0963 32.10936,-3.9435 23.86828,4.3106 53.33844,7.8062 84.08026,9.9733 14.92094,1.0519 45.96875,3.6312 46.21486,3.8394 0.21185,0.1792 -236.68574,81.8427 -241.21486,83.1518 -2.19941,0.6356 -2.31625,-2.5679 -2.0358,-55.8145 z M 712.43752,1214 c 0.005,-5.1333 0.24691,-7.0699 0.53555,-4.3036 0.28862,2.7664 0.28378,6.9664 -0.0107,9.3333 -0.29455,2.367 -0.53071,0.1036 -0.52479,-5.0297 z M 199,1158.2488 l -24.33333,-8.1947 v -39.6602 -39.6602 l 11,4.1144 c 45.58116,17.0491 161.9059,55.0724 219,71.5851 20.77198,6.0077 21.17545,6.1925 15.33333,7.025 -3.3,0.4703 -12.6,1.2306 -20.66667,1.6896 -35.49154,2.0197 -45.67921,2.7735 -55.52566,4.1084 -1.93911,0.2629 -14.53911,1.1568 -28,1.9864 -13.46088,0.8297 -28.97434,1.8037 -34.47434,2.1647 -21.13462,1.3868 -52.78472,3.1596 -55.33333,3.0993 -1.46667,-0.035 -13.61667,-3.7507 -27,-8.2578 z M 448.28671,567.07869 c -0.1577,-24.34005 0.16329,-44.5335 0.71329,-44.87434 0.55,-0.34084 0.84732,12.67376 0.66072,28.9213 -0.63265,55.08327 -1.08637,60.35126 -1.37401,15.95304 z"
         id="path940" />
      <path
         style="fill:#26cd26;stroke-width:1.33333"
         d="m 682,1326.0283 c -15.4,-5.3819 -125.48533,-43.4753 -244.63407,-84.652 -119.14874,-41.1766 -216.74657,-74.9813 -216.88405,-75.1215 -0.13749,-0.1401 5.54784,-0.2442 12.63407,-0.2313 12.67949,0.023 13.34977,0.1897 42.21738,10.4902 50.56192,18.0414 115.33695,39.0929 156.66667,50.9157 7.91244,2.2634 15.41912,3.5409 20,3.4036 8.01851,-0.2403 61.29704,-5.1482 66.66667,-6.1412 1.83333,-0.3391 8.43333,-0.9519 14.66666,-1.3619 6.23334,-0.41 14.33334,-1.2937 18,-1.9637 3.66667,-0.67 12.36667,-1.5701 19.33334,-2.0001 23.2087,-1.4327 45.80542,-3.5005 47.11797,-4.3117 0.71344,-0.4409 5.85376,-1.017 11.42293,-1.2802 9.63019,-0.4551 18.56055,-1.1563 29.9146,-2.3486 4.46975,-0.4694 26.6868,3.4826 41.03746,7.2999 6.01058,1.5988 5.59564,-0.7513 8.72837,49.4342 2.33043,37.3328 2.47993,38.4844 3.18177,24.507 0.58396,-11.63 0.791,-8.6623 1,14.3333 0.20443,22.4932 -0.1104,28.9791 -1.4031,28.9068 C 710.75,1335.8561 697.4,1331.4102 682,1326.0283 Z M 173.96871,784.66667 c 9e-5,-58.66667 0.16402,-82.47198 0.36428,-52.90068 0.20025,29.57129 0.20017,77.57129 -1.9e-4,106.66666 -0.20035,29.09538 -0.3642,4.90068 -0.36409,-53.76598 z M 448.60107,657.33333 c 0,-26.03333 0.17861,-36.68333 0.3969,-23.66666 0.2183,13.01666 0.2183,34.31666 0,47.33333 -0.21829,13.01667 -0.3969,2.36667 -0.3969,-23.66667 z"
         id="path938" />
      <path
         style="fill:#1cc61c;stroke-width:1.33333"
         d="m 173.97416,1020.6667 c 7e-5,-71.8667 0.1616,-101.07107 0.35895,-64.89865 0.19734,36.17243 0.19728,94.97245 -1.4e-4,130.66665 -0.19741,35.6943 -0.35888,6.0986 -0.35881,-65.768 z M 448.61261,875.66667 c -0.35036,-0.91667 -0.48134,-40.06667 -0.29109,-87 l 0.34591,-85.33334 0.66629,87.0002 c 0.36645,47.85011 0.49745,87.00011 0.29111,87 -0.20636,-10e-5 -0.66184,-0.7502 -1.01222,-1.66686 z m 815.38129,-62.60488 c -0.3633,-9.31603 -0.1907,-16.46612 0.3837,-15.8891 0.5743,0.57702 0.8716,8.19922 0.6606,16.93822 L 1264.6545,830 Z"
         id="path936" />
      <path
         style="fill:#17b817;stroke-width:1.33333"
         d="m 1263.9999,990.26679 0.6666,-161.60012 0.3388,160.5946 c 0.1864,88.32703 -0.1136,161.04703 -0.6666,161.60013 -0.5529,0.553 -0.7054,-71.7145 -0.3388,-160.59461 z m -550.21829,3.06654 c 0,-5.5 0.23535,-7.75 0.52302,-5 0.28765,2.75 0.28765,7.25 0,10 -0.28767,2.74997 -0.52302,0.5 -0.52302,-5 z"
         id="path934" />
      <path
         style="fill:#14a814;stroke-width:1.33333"
         d="m 713.9796,1169.3333 c 0,-92.0333 0.15909,-129.6833 0.35355,-83.6666 0.19445,46.0166 0.19445,121.3166 0,167.3333 -0.19446,46.0167 -0.35355,8.3667 -0.35355,-83.6667 z M 989.9802,508 c 0,-94.96667 0.15884,-133.81667 0.35296,-86.33333 0.19413,47.48333 0.19413,125.18333 0,172.66666 -0.19412,47.48334 -0.35296,8.63334 -0.35296,-86.33333 z"
         id="path932" />
      <path
         style="fill:#149914;stroke-width:1.33333"
         d="m 723.07983,991.33333 c 0.008,-4.4 0.2564,-6.03925 0.55314,-3.64278 0.29675,2.39646 0.29063,5.99646 -0.0136,8 -0.30424,2.00353 -0.54702,0.0428 -0.53954,-4.35722 z M 439.26608,568 c 0,-25.3 0.17929,-35.65 0.39844,-23 0.21915,12.65 0.21915,33.35 0,46 -0.21915,12.65 -0.39844,2.3 -0.39844,-23 z"
         id="path930" />
      <path
         style="fill:#0d940d;stroke-width:1.33333"
         d="m 723.30488,1116 c 0,-64.9 0.16264,-91.45 0.36143,-59 0.19878,32.45 0.19878,85.55 0,118 -0.19879,32.45 -0.36143,5.9 -0.36143,-59 z M 439.30148,717.33333 c 0,-57.56666 0.16413,-81.11666 0.36473,-52.33333 0.20062,28.78333 0.20062,75.88333 0,104.66667 -0.2006,28.78333 -0.36473,5.23333 -0.36473,-52.33334 z M 989.66957,686 c 0.0148,-2.93333 0.28786,-3.97633 0.60678,-2.31779 0.31892,1.65855 0.30681,4.05855 -0.0269,5.33334 -0.33372,1.27478 -0.59466,-0.0823 -0.57986,-3.01555 z"
         id="path928" />
      <path
         style="fill:#0b890b;stroke-width:1.33333"
         d="m 723.27363,1285.3333 c 0,-28.9666 0.17612,-40.8166 0.39137,-26.3333 0.21525,14.4833 0.21525,38.1833 0,52.6667 -0.21525,14.4833 -0.39137,2.6333 -0.39137,-26.3334 z M 439.26752,888.97595 c -0.35684,-0.9299 -0.48704,-16.6799 -0.28935,-35 l 0.35946,-33.30928 0.66452,35.00093 c 0.36548,19.25052 0.49569,35.00052 0.28934,35 -0.20636,-5.1e-4 -0.66714,-0.76176 -1.02397,-1.69165 z"
         id="path926" />
      <path
         style="fill:#2e2e2e;stroke-width:1.33333"
         d="m 1273.9816,972 c 0,-102.3 0.1582,-144.15 0.3516,-93 0.1934,51.15 0.1934,134.85 0,186 -0.1934,51.15 -0.3516,9.3 -0.3516,-93 z"
         id="path924" />
      <path
         style="fill:#034603;stroke-width:1.33333"
         d="m 172.63443,534.66667 c 0,-56.83334 0.16429,-80.08334 0.3651,-51.66667 0.20082,28.41667 0.20082,74.91667 0,103.33333 -0.20081,28.41667 -0.3651,5.16667 -0.3651,-51.66666 z"
         id="path922" />
      <path
         style="fill:#013801;stroke-width:1.33333"
         d="m 172.65321,894 c 2e-5,-141.53333 0.15604,-199.23561 0.34672,-128.22728 0.19068,71.00833 0.19067,186.80833 -2e-5,257.33338 -0.19071,70.525 -0.34671,12.4272 -0.3467,-129.1061 z"
         id="path920" />
      <path
         style="fill:#001800;stroke-width:1.33333"
         d="m 447.31411,700 c 0,-97.9 0.15858,-137.95 0.3524,-89 0.19381,48.95 0.19381,129.05 0,178 -0.19382,48.95 -0.3524,8.9 -0.3524,-89 z"
         id="path918" />
      <path
         style="fill:#000000;stroke-width:1.33333"
         d="m 643.06648,1322.6577 c -41.65323,-14.4142 -166.48315,-57.5966 -277.39981,-95.961 L 164,1156.9433 164.0424,790.805 c 0.0352,-304.48944 0.34419,-366.53605 1.83471,-368.50045 1.14665,-1.5112 101.15634,-36.66524 277.62426,-97.58668 L 719.33333,229.49332 858.9888,277.74667 998.64427,326 l 0.0156,182.66667 0.0156,182.66666 136.99563,47.3699 136.9955,47.36989 V 971.90353 1157.7339 L 1128,1207.6581 c -79.5667,27.4583 -204.18675,70.4629 -276.93352,95.5657 l -132.26687,45.6415 z m 71.60019,-162.4349 V 981.77901 L 578.72145,934.77696 C 503.95159,908.92583 442.15159,888.16096 441.38812,888.6328 440.42875,889.22573 440,832.68161 440,705.56224 V 521.63376 l -17.66667,-6.17637 C 318.52968,479.16701 173.8508,429.68019 173.0334,430.18537 172.46503,430.53664 172,592.99957 172,791.21411 v 360.39009 l 185.66667,64.2194 c 102.11666,35.3207 223.46666,77.3488 269.66666,93.3957 46.2,16.0469 84.75,29.2372 85.66667,29.3118 1.32571,0.108 1.66667,-36.3698 1.66667,-178.3083 z m 282,84.6949 268.00003,-92.5182 0.3381,-178.86639 c 0.186,-98.37655 0.186,-178.86539 0,-178.8641 -0.186,0.001 -34.2381,11.71435 -75.6715,26.02902 -41.4333,14.31465 -163.3833,56.41489 -270.99997,93.55606 l -195.66666,67.52942 v 178.58609 178.5861 l 3,-0.7598 c 1.65,-0.418 123.6,-42.3932 271,-93.2782 z m -10,-361.40695 C 1155.0378,825.34697 1254,790.52819 1254,789.45244 c 0,-1.66013 -254.68803,-90.71821 -259.56821,-90.76455 -2.06354,-0.0196 -522.78624,179.22443 -532.96984,183.45975 -2.49594,1.03805 -4.19286,2.23256 -3.77095,2.65448 0.64768,0.64768 259.03845,90.71833 260.97567,90.97169 0.36666,0.048 120.96666,-41.47041 268,-92.26306 z M 560.82055,840.12943 c 61.51537,-21.1955 183.24612,-63.1444 270.51278,-93.21982 L 990,692.22705 990.33816,513.44687 c 0.186,-98.32911 -0.114,-178.78079 -0.66667,-178.7815 -1.98005,-0.003 -539.70717,185.79987 -541.33816,187.05016 -1.31854,1.01079 -1.66666,38.23752 -1.66666,178.22551 0,97.32132 0.4,177.34785 0.88889,177.83673 0.48888,0.4889 1.00813,0.8889 1.15388,0.8889 0.14575,0 50.59575,-17.34176 112.11111,-38.53724 z m 151.80934,-417.4034 c 146.49938,-50.56735 266.6992,-92.27735 267.11075,-92.68888 0.41153,-0.41155 0.18825,-1.26494 -0.4962,-1.89643 -1.84723,-1.70433 -256.79731,-89.72225 -259.91111,-89.73065 -3.02216,-0.008 -534.97034,183.41025 -536.40481,184.95506 -0.51069,0.54998 -0.32852,1.25088 0.40481,1.55758 8.53926,3.5713 258.08062,89.55814 260.13371,89.63674 1.5402,0.0589 122.66348,-41.26606 269.16285,-91.83342 z"
         id="path916" />
    </g>
  </g>
</svg>
