<?xml version="1.0" encoding="UTF-8" standalone="no"?>
<!-- Created with Inkscape (http://www.inkscape.org/) -->

<svg
   version="1.1"
   id="svg1828"
   width="1440"
   height="1440"
   viewBox="0 0 1440 1440"
   sodipodi:docname="PartDesign_Fillet.svg"
   inkscape:version="1.1.2 (b8e25be833, 2022-02-05)"
   xmlns:inkscape="http://www.inkscape.org/namespaces/inkscape"
   xmlns:sodipodi="http://sodipodi.sourceforge.net/DTD/sodipodi-0.dtd"
   xmlns="http://www.w3.org/2000/svg"
   xmlns:svg="http://www.w3.org/2000/svg">
  <defs
     id="defs1832" />
  <sodipodi:namedview
     id="namedview1830"
     pagecolor="#505050"
     bordercolor="#eeeeee"
     borderopacity="1"
     inkscape:pageshadow="0"
     inkscape:pageopacity="0"
     inkscape:pagecheckerboard="0"
     showgrid="false"
     inkscape:zoom="0.41297"
     inkscape:cx="641.6931"
     inkscape:cy="846.30844"
     inkscape:window-width="1920"
     inkscape:window-height="1028"
     inkscape:window-x="-6"
     inkscape:window-y="-6"
     inkscape:window-maximized="1"
     inkscape:current-layer="g1834" />
  <g
     inkscape:groupmode="layer"
     inkscape:label="Image"
     id="g1834">
    <g
       id="g1913"
       transform="translate(-0.75225625,-22.977941)">
      <path
         style="fill:#e0f4f9;stroke-width:1.33333"
         d="m 1010.4493,458.62476 c -1.2196,-0.71179 -35.71958,-12.95327 -76.66669,-27.20328 C 892.83551,417.17145 857.83333,404.85853 856,404.05943 c -4.42751,-1.92986 43.45509,-0.68532 77.33333,2.00998 54.22062,4.31374 114.71677,13.50411 135.13637,20.52947 3.8565,1.32685 10.7285,2.84381 15.2711,3.37104 8.1594,0.947 10.4626,2.40132 5.9259,3.74188 -1.2834,0.37921 -18.7382,6.44919 -38.7886,13.48884 -20.0504,7.03964 -36.8504,12.78112 -37.3333,12.75881 -0.483,-0.0223 -1.876,-0.6229 -3.0955,-1.33469 z M 338.66667,348.82992 c 0,-0.27687 1.05,-1.32687 2.33333,-2.33333 2.11475,-1.6585 2.16191,-1.61134 0.50341,0.50341 -1.74182,2.221 -2.83674,2.92731 -2.83674,1.82992 z"
         id="path2037" />
      <path
         style="fill:#def4f9;stroke-width:1.33333"
         d="m 1092,432.24203 c 0,-0.72244 -3.7167,-1.7449 -8.2592,-2.27211 -4.5426,-0.52723 -11.4146,-2.04419 -15.2711,-3.37104 -30.0055,-10.32337 -122.13578,-21.64943 -190.24634,-23.38796 l -29.10999,-0.74304 -91.55668,-31.77456 c -77.05028,-26.74015 -159.6255,-55.51195 -182.62896,-63.63368 -3.15641,-1.11443 -5.51761,-2.24753 -5.24713,-2.51801 0.27049,-0.2705 6.75301,-2.83336 14.4056,-5.69526 38.02861,-14.22188 167.52623,-24.51718 269.82233,-21.45141 36.13358,1.08292 89.05147,4.28087 98.09147,5.92791 1.83333,0.33401 10.67064,1.25304 19.63845,2.04228 15.57356,1.37058 18.20572,2.08457 58.66665,15.91352 63.2235,21.60886 220.8361,76.08476 221.2077,76.4564 0.1781,0.17806 -35.0933,12.61053 -78.3808,27.62768 -43.2876,15.01716 -79.2508,27.50392 -79.9183,27.74836 -0.6676,0.24445 -1.2137,-0.14664 -1.2137,-0.86908 z"
         id="path2035" />
      <path
         style="fill:#dcf2f8;stroke-width:1.33333"
         d="m 1013.0833,460.42252 c 0.9625,-0.38516 2.1125,-0.3378 2.5556,0.1052 0.443,0.44305 -0.3445,0.75819 -1.75,0.70029 -1.5533,-0.064 -1.8692,-0.37992 -0.8056,-0.80554 z M 1008,458.66667 c -1.2017,-0.77662 -1.3662,-1.30066 -0.412,-1.31292 0.8734,-0.0107 1.9588,0.57958 2.412,1.31292 1.0231,1.65537 0.5615,1.65537 -2,0 z m 192,-62.44172 c 1.1,-0.67964 3.5,-1.63694 5.3333,-2.12734 2.3167,-0.61966 2.7234,-0.5147 1.3334,0.34411 -1.1,0.67964 -3.5,1.63693 -5.3334,2.12733 -2.3166,0.61967 -2.7233,0.51471 -1.3333,-0.3441 z m 34.6667,-12 c 1.1,-0.67964 3.5,-1.63694 5.3333,-2.12734 2.3166,-0.61966 2.7233,-0.5147 1.3333,0.34411 -1.1,0.67964 -3.5,1.63693 -5.3333,2.12733 -2.3166,0.61967 -2.7233,0.51471 -1.3333,-0.3441 z m 16,-6.89162 c -1.1,-0.71088 -1.4,-1.29249 -0.6667,-1.29249 0.7333,0 2.2333,0.58161 3.3333,1.29249 1.1,0.71088 1.4,1.2925 0.6667,1.2925 -0.7333,0 -2.2333,-0.58162 -3.3333,-1.2925 z m -24.4167,-8.24414 c -4.2625,-1.48516 -7.5167,-2.93363 -7.2315,-3.21882 0.6063,-0.6063 16.9815,4.77964 16.9815,5.58536 0,0.8698 -1.5212,0.50056 -9.75,-2.36654 z M 724,360 c -1.1,-0.71088 -1.4,-1.29249 -0.66667,-1.29249 0.73334,0 2.23334,0.58161 3.33334,1.29249 1.1,0.71088 1.4,1.29249 0.66666,1.29249 C 726.6,361.29249 725.1,360.71088 724,360 Z m 467.5833,-2.91081 c -4.2625,-1.48516 -7.5166,-2.93363 -7.2314,-3.21882 0.6063,-0.6063 16.9814,4.77964 16.9814,5.58536 0,0.8698 -1.5212,0.50056 -9.75,-2.36654 z M 689.33333,348 c -1.1,-0.71088 -1.4,-1.29249 -0.66666,-1.29249 0.73333,0 2.23333,0.58161 3.33333,1.29249 1.1,0.71088 1.4,1.29249 0.66667,1.29249 -0.73334,0 -2.23334,-0.58161 -3.33334,-1.29249 z m 465.58337,-3.57748 c -5.3625,-1.85183 -9.5138,-3.60317 -9.2251,-3.89187 0.5652,-0.56521 19.631,5.68088 20.747,6.79686 1.2276,1.22754 -1.6719,0.49652 -11.5219,-2.90499 z m -496.00003,-6.66667 c -3.16251,-1.11849 -5.51426,-2.26938 -5.22611,-2.55752 0.60833,-0.60833 12.97611,3.45227 12.97611,4.26034 0,0.83492 -1.51715,0.50157 -7.75,-1.70282 z M 1116.25,331.08919 c -5.3625,-1.85183 -9.5138,-3.60318 -9.2251,-3.89187 0.5652,-0.56521 19.6311,5.68088 20.747,6.79685 1.2276,1.22755 -1.6718,0.49652 -11.5219,-2.90498 z m -490,-4.66667 c -4.26249,-1.48516 -7.51667,-2.93363 -7.23148,-3.21881 0.60631,-0.60631 16.98148,4.77964 16.98148,5.58536 0,0.8698 -1.5212,0.50056 -9.75,-2.36655 z m 455.3333,-7.33333 c -5.3625,-1.85183 -9.5138,-3.60318 -9.2251,-3.89187 0.5652,-0.56521 19.6311,5.68088 20.7471,6.79685 1.2275,1.22755 -1.6719,0.49652 -11.522,-2.90498 z m -487.99997,-4 c -5.3625,-1.85183 -9.51378,-3.60318 -9.22509,-3.89187 0.5652,-0.56521 19.63107,5.68088 20.74704,6.79685 1.22755,1.22755 -1.67189,0.49652 -11.52195,-2.90498 z m -61.8991,-21.50176 c -26.94035,-9.30642 -48.99035,-17.25023 -49,-17.65292 -0.009,-0.40268 53.59441,-19.21107 119.12016,-41.79642 l 119.13773,-41.06425 168.86197,58.35227 c 92.8741,32.09374 168.65291,58.56129 168.39751,58.81678 -0.2555,0.25548 -16.1189,-4.9101 -35.252,-11.47908 -32.68244,-11.22089 -35.78059,-12.03102 -51.20183,-13.38861 -9.02793,-0.79476 -17.91444,-1.71832 -19.74777,-2.05233 -9.04,-1.64704 -61.95789,-4.84499 -98.09147,-5.92791 C 775.12521,275.03385 695.8936,279.36531 622,290.07297 c -17.81272,2.58119 -25.93163,4.47487 -37.91313,8.843 -11.73032,4.27655 -14.65152,5.80114 -12.66667,6.61082 21.66405,8.83736 12.02268,5.94044 -39.73597,-11.93936 z"
         id="path2033" />
      <path
         style="fill:#e5e5e5;stroke-width:1.33333"
         d="m 1276.6572,743.33333 c 0,-203.13333 0.1543,-286.03493 0.3428,-184.22577 0.1885,101.80916 0.1885,268.00916 -10e-5,369.33333 -0.1885,101.32421 -0.3427,18.02578 -0.3427,-185.10756 z M 164.36315,760 c 0,-3.3 0.26002,-4.65 0.57782,-3 0.31782,1.65 0.31782,4.35 0,6 -0.3178,1.65 -0.57782,0.3 -0.57782,-3 z m 1.07545,-30.11111 c 0.064,-1.55326 0.37992,-1.8692 0.80555,-0.80556 0.38516,0.9625 0.3378,2.11251 -0.1052,2.55556 -0.44307,0.44306 -0.75819,-0.34445 -0.7003,-1.75 z M 308,380.82992 c 0,-0.27687 1.05,-1.32687 2.33333,-2.33333 2.11475,-1.6585 2.16191,-1.61134 0.50342,0.50341 C 309.09492,381.221 308,381.92731 308,380.82992 Z m 22,-23.49659 c 4.35409,-4.4 8.21652,-8 8.58319,-8 0.36666,0 -2.89576,3.6 -7.24986,8 -4.35409,4.4 -8.21652,8 -8.58318,8 -0.36667,0 2.89576,-3.6 7.24985,-8 z"
         id="path2031" />
      <path
         style="fill:#b9e0eb;stroke-width:1.33333"
         d="m 937.33333,515.25961 c 0,-0.77988 21.0902,-14.94637 30,-20.15129 11.1772,-6.52948 29.365,-15.68811 33.99997,-17.121 1.8334,-0.56677 5.3547,-2.39959 7.8252,-4.07292 2.4704,-1.67335 5.1704,-2.78573 6,-2.47199 0.8295,0.31375 56.9074,-18.63245 124.6175,-42.10265 67.7101,-23.4702 123.7195,-42.67309 124.4653,-42.67309 1.4719,0 1.0812,45.79197 -0.4034,47.27438 -0.4558,0.45515 -11.2558,0.21296 -24,-0.53818 -58.989,-3.47684 -52.9102,-4.2261 -106.5046,13.1276 -127.3801,41.24529 -126.9952,41.10794 -154.66183,55.18842 -16.7804,8.54014 -22.61655,10.8396 -31.0048,12.21606 -5.68334,0.9326 -10.33334,1.52869 -10.33334,1.32466 z"
         id="path2029" />
      <path
         style="fill:#b4dce8;stroke-width:1.33333"
         d="m 834.17891,622.33333 c 12.94424,-21.51037 50.43318,-64.23896 74.74352,-85.19004 15.31925,-13.20241 32.4742,-26.68862 30.06608,-23.6362 -1.52922,1.93838 -0.76004,1.97652 8.66666,0.4297 8.40199,-1.37867 14.2271,-3.6733 31.0163,-12.2179 27.66663,-14.08048 27.28173,-13.94313 154.66183,-55.18842 53.4288,-17.30007 48.1725,-16.6474 106,-13.162 11.7334,0.7072 22.0435,1.2886 22.9115,1.292 0.8679,0.004 1.828,-1.6438 2.1335,-3.66047 0.3055,-2.01667 0.5856,20.03333 0.6224,49 0.037,28.96667 -0.3321,54.08913 -0.8197,55.82769 -0.8746,3.11838 -1.1022,3.15784 -16.8671,2.92479 -8.7893,-0.13 -20.4806,-0.81673 -25.9806,-1.5262 -16.8047,-2.16772 -18.7804,-2.34175 -36,-3.17117 -22.729,-1.09482 -47.027,-3.1283 -56.6666,-4.74242 -4.4,-0.73676 -10.7,-1.56645 -14,-1.84374 -28.6133,-2.40435 -55.3705,-5.12896 -62,-6.31328 -11.7203,-2.09374 -13.2101,-2.2209 -30,-2.56064 -8.4334,-0.17066 -16.2522,-0.77524 -17.3751,-1.34354 -1.123,-0.56828 -5.92303,-1.32289 -10.66671,-1.6769 C 989.8812,515.22057 984.2,514.62468 982,514.25039 c -13.67135,-2.32596 -18.28947,-0.81792 -38.1902,12.47098 -22.53463,15.04771 -50.59255,40.92216 -88.52467,81.63567 -12.01068,12.89137 -15.2866,15.68615 -18.36382,15.66667 -2.63863,-0.0167 -3.44899,-0.5162 -2.7424,-1.69038 z"
         id="path2027" />
      <path
         style="fill:#d1d1d1;stroke-width:1.33333"
         d="m 164.64695,938 c 4e-5,-95.33333 0.15885,-134.13667 0.35292,-86.22964 0.19406,47.90703 0.19402,125.90703 -7e-5,173.33334 -0.19411,47.4263 -0.35289,8.2296 -0.35285,-87.1037 z"
         id="path2025" />
      <path
         style="fill:#b0dae6;stroke-width:1.33333"
         d="m 799.26077,678.81113 c 7.50211,-14.93758 30.51652,-52.87965 34.45978,-56.81113 0.89277,-0.89011 1.02453,-0.77929 0.39637,0.33333 -0.65451,1.15927 0.19925,1.67388 2.80439,1.69038 3.07722,0.0195 6.35314,-2.7753 18.36382,-15.66667 37.93212,-40.71351 65.99004,-66.58796 88.52467,-81.63567 19.90073,-13.2889 24.51885,-14.79694 38.1902,-12.47098 2.2,0.37429 7.8812,0.97018 12.62489,1.3242 4.74368,0.35401 9.54371,1.10862 10.66671,1.6769 1.1229,0.5683 8.9417,1.17288 17.3751,1.34354 16.7899,0.33974 18.2797,0.4669 30,2.56064 6.6295,1.18432 33.3867,3.90893 62,6.31328 3.3,0.27729 9.6,1.10698 14,1.84374 9.6396,1.61412 33.9376,3.6476 56.6666,4.74242 17.2196,0.82942 19.1953,1.00345 36,3.17117 5.5,0.70947 17.1913,1.39625 25.9806,1.5262 15.7649,0.23305 15.9925,0.19359 16.8671,-2.92479 1.1371,-4.05437 1.4023,55.14824 0.2776,61.95572 l -0.8454,5.11676 -58.8066,-0.79701 c -88.0869,-1.19384 -111.3683,-1.89819 -134.8066,-4.07833 -11.7333,-1.0914 -32.7333,-2.29759 -46.6667,-2.68044 -13.9333,-0.38284 -27.4333,-0.95416 -29.99997,-1.26959 -2.56666,-0.31544 -14.56666,-0.93143 -26.66666,-1.36887 -12.1,-0.43745 -25.6,-1.3407 -30,-2.00725 -6.44827,-0.97681 -44.7755,-0.96103 -47.33334,0.0195 -1.61424,0.6188 -6.15813,-0.44154 -7.85246,-1.83242 -3.87954,-3.18466 -31.80428,30.04203 -67.3203,80.10214 -12.12873,17.09556 -16.1651,21.6788 -19.09204,21.6788 -1.14608,0 0.31931,-4.14406 4.19224,-11.85554 z m 74.07256,-107.31454 c 0,-0.27687 1.05,-1.32687 2.33334,-2.33334 2.11474,-1.65849 2.1619,-1.61133 0.50341,0.50342 -1.74183,2.221 -2.83675,2.9273 -2.83675,1.82992 z"
         id="path2023" />
      <path
         style="fill:#add8e5;stroke-width:1.33333"
         d="m 766.66667,750.0308 c 0,-1.72716 12.3688,-31.09504 18.96552,-45.0308 4.59898,-9.71551 7.49585,-14.33333 8.99161,-14.33333 3.39341,0 6.97964,-3.97942 19.53677,-21.6788 35.51602,-50.06011 63.44076,-83.2868 67.3203,-80.1021 1.69433,1.39088 6.23822,2.45122 7.85246,1.83242 2.55784,-0.98054 40.88507,-0.99632 47.33334,-0.0195 4.4,0.66655 17.9,1.5698 30,2.00725 12.1,0.43744 24.1,1.05343 26.66666,1.36887 2.56667,0.31543 16.06667,0.88675 29.99997,1.26959 13.9334,0.38285 34.9334,1.58904 46.6667,2.68044 23.4466,2.18093 46.7313,2.88498 134.9001,4.07893 l 58.9001,0.7976 0.6106,-3.78401 c 0.3358,-2.0812 0.5307,11.31708 0.4332,29.77397 -0.098,18.45689 -0.678,34.05689 -1.2898,34.66667 -1.1684,1.16434 -141.4385,1.10684 -157.5542,-0.0645 -14.5636,-1.0586 -33.9695,-1.99029 -58.8847,-2.82706 -12.5865,-0.42274 -26.3865,-1.36278 -30.6666,-2.08899 -4.2801,-0.72623 -19.78203,-1.62451 -34.4487,-1.9962 -14.66667,-0.37169 -29.66667,-0.93637 -33.33333,-1.25485 -20.57448,-1.78702 -48.19515,-3.59655 -58.69964,-3.84564 -6.61814,-0.15694 -12.61814,-0.6369 -13.33334,-1.06656 -0.7152,-0.42967 -2.80036,-0.66383 -4.63369,-0.52036 -1.83333,0.14345 -4.08333,-0.29742 -5,-0.97971 -1.04313,-0.77644 -1.66667,-0.75224 -1.66667,0.0647 0,0.71788 -1.65,1.29141 -3.66666,1.27452 -2.01667,-0.0169 -9.66667,0.29758 -17,0.69884 l -13.33334,0.72956 -7.64894,9.82585 c -4.20694,5.40421 -13.20694,19.31192 -20,30.90603 -26.39276,45.04593 -33.99656,57.46832 -35.47907,57.96248 -0.84625,0.28202 -1.53865,0.12668 -1.53865,-0.34527 z"
         id="path2021" />
      <path
         style="fill:#a9d6e3;stroke-width:1.33333"
         d="m 741.3872,832.45175 c 6.53539,-31.77355 22.36689,-81.03727 26.39808,-82.1443 2.12581,-0.58378 8.4692,-10.81445 34.35408,-55.40652 6.52336,-11.23782 15.76064,-25.56981 20.52731,-31.84886 l 8.66666,-11.41646 13.33334,-0.70654 c 7.33333,-0.38859 14.98333,-0.69272 17,-0.67583 2.01666,0.0169 3.66666,-0.55664 3.66666,-1.27452 0,-0.81693 0.62354,-0.84113 1.66667,-0.0647 0.91667,0.6823 3.16667,1.12316 5,0.97971 1.83333,-0.14347 3.91849,0.0907 4.63369,0.52036 0.7152,0.42967 6.7152,0.90963 13.33334,1.06656 10.50449,0.24909 38.12516,2.05863 58.69964,3.84564 3.66666,0.31848 18.66666,0.88316 33.33333,1.25485 14.66667,0.3717 30.1686,1.26998 34.4487,1.9962 4.2801,0.72622 18.0801,1.66626 30.6666,2.08899 24.0579,0.80799 44.6049,1.78831 56.8847,2.71404 11.8569,0.89385 143.9577,1.75972 152.2615,0.99801 6.4018,-0.58725 7.6822,-1.14289 8.1517,-3.53753 0.8815,-4.49619 0.9808,92.61509 0.1001,97.93863 l -0.7906,4.77946 -19.528,1.68532 c -28.0727,2.42275 -144.0499,3.40267 -176.8613,1.49435 -14.6667,-0.85301 -38.0615,-2.10173 -51.9884,-2.77492 -13.927,-0.67319 -28.92699,-1.51851 -33.33336,-1.87849 -4.40639,-0.35999 -14.31161,-1.00678 -22.01161,-1.43731 -7.7,-0.43055 -17.3,-1.05312 -21.33334,-1.38351 -4.03333,-0.33038 -16.86781,-1.21684 -28.52108,-1.96989 -11.65325,-0.75304 -21.56561,-1.60271 -22.02744,-1.88815 -0.82101,-0.5074 -22.17634,-1.89401 -43.45148,-2.82132 -5.86666,-0.2557 -13.66666,-1.06498 -17.33333,-1.79838 -9.29168,-1.85854 -18.06271,-2.77348 -31.77353,-3.31448 -10.59978,-0.41826 -12.04292,-0.18248 -14.47552,2.36497 -5.53196,5.79312 -15.44334,28.33512 -37.2983,84.82953 -4.3688,11.2932 -5.0482,10.66588 -2.39878,-2.21492 z M 882.66667,560.82992 c 0,-0.27687 1.05,-1.32687 2.33333,-2.33333 2.11475,-1.6585 2.16191,-1.61134 0.50341,0.50341 -1.74182,2.221 -2.83674,2.92731 -2.83674,1.82992 z"
         id="path2019" />
      <path
         style="fill:#a5d2e0;stroke-width:1.33333"
         d="m 729.77967,900.66667 c 0.41304,-2.93334 1.1184,-8.93334 1.56745,-13.33334 2.01325,-19.72613 6.1294,-39.35049 9.83475,-46.88852 2.10285,-4.27798 4.26765,-9.27814 4.81068,-11.11148 2.42817,-8.19788 21.0928,-53.81962 26.45624,-64.66666 8.7015,-17.59799 8.91222,-17.75478 23.11101,-17.19451 13.71083,0.541 22.48185,1.45595 31.77353,3.31448 3.66667,0.7334 11.46667,1.54268 17.33334,1.79839 21.27513,0.9273 42.63046,2.31392 43.45148,2.82132 0.46182,0.28544 10.37418,1.1351 22.02744,1.88814 11.65326,0.75306 24.48774,1.63951 28.52108,1.9699 4.03333,0.33038 13.63333,0.95296 21.33333,1.3835 7.7,0.43054 17.60523,1.07732 22.01161,1.43731 4.40638,0.35999 19.40639,1.20531 33.33329,1.87849 13.927,0.67319 37.3218,1.92191 51.9884,2.77492 32.8484,1.91047 148.7992,0.92734 176.9333,-1.5002 19.4981,-1.68237 19.603,-1.70904 20.1771,-5.13145 0.3175,-1.89216 0.4975,15.86056 0.4001,39.45049 -0.098,23.58994 -0.4771,43.15724 -0.8438,43.4829 -0.8755,0.77757 -45.1007,4.63994 -68,5.93873 -23.0908,1.30965 -102.1528,1.30872 -118.6667,-10e-4 -6.9666,-0.5527 -23.1666,-1.60835 -36,-2.3459 -12.8333,-0.73753 -28.1333,-1.91444 -34,-2.61533 -15.81187,-1.88907 -51.4665,-5.11677 -66.57498,-6.02684 -7.28292,-0.43869 -13.58292,-0.99903 -14,-1.24519 -0.41708,-0.24616 -4.35832,-0.83666 -8.75832,-1.31221 -4.4,-0.47556 -14,-1.71543 -21.33333,-2.75527 -7.33334,-1.03984 -18.2769,-2.00612 -24.31903,-2.1473 -6.04213,-0.14118 -13.89375,-0.71639 -17.44803,-1.27826 -3.55428,-0.56185 -10.3356,-1.34054 -15.0696,-1.73042 -4.734,-0.38987 -10.24184,-1.33032 -12.23964,-2.0899 -1.99781,-0.75956 -7.67292,-1.66668 -12.61137,-2.01581 -18.77051,-1.32703 -27.75673,-2.17632 -30.979,-2.92781 -4.29268,-1.00114 -13.92664,-2.09082 -20.45023,-2.31308 -4.65118,-0.15848 -5.39013,0.31106 -8.11894,5.15898 -5.581,9.91503 -11.79842,29.30971 -20.71994,64.63399 -4.32072,17.10765 -6.25242,22.08237 -4.93122,12.69935 z m 158.887,-346 C 889.99399,553.2 891.37997,552 891.74664,552 c 0.36667,0 -0.41932,1.2 -1.74664,2.66667 -1.32732,1.46666 -2.71331,2.66666 -3.07997,2.66666 -0.36667,0 0.41932,-1.2 1.74664,-2.66666 z"
         id="path2017" />
      <path
         style="fill:#a1d0de;stroke-width:1.33333"
         d="m 727.55185,926 c 0.43319,-9.53333 1.29035,-18.30488 1.90482,-19.49232 0.61446,-1.18744 2.99328,-9.58744 5.28625,-18.66667 8.88776,-35.19172 15.11345,-54.60426 20.68791,-64.50768 2.72881,-4.84792 3.46776,-5.31746 8.11894,-5.15898 6.52359,0.22226 16.15755,1.31194 20.45023,2.31308 3.22227,0.75149 12.20849,1.60078 30.979,2.92781 4.93845,0.34913 10.61356,1.25625 12.61137,2.01581 1.9978,0.75958 7.50564,1.70003 12.23964,2.0899 4.734,0.38988 11.51532,1.16857 15.0696,1.73042 3.55428,0.56187 11.4059,1.13708 17.44803,1.27826 6.04213,0.14118 16.98569,1.10746 24.31903,2.1473 C 904,833.71677 913.6,834.95664 918,835.4322 c 4.4,0.47555 8.34124,1.06605 8.75832,1.31221 0.41708,0.24616 6.71708,0.8065 14,1.24519 15.10848,0.91007 50.76311,4.13777 66.57498,6.02684 5.8667,0.70089 21.1667,1.8778 34,2.61533 12.8334,0.73755 29.0334,1.7932 36,2.3459 16.8912,1.34006 95.7452,1.29862 120,-0.0631 10.6334,-0.59696 28.3334,-1.93989 39.3334,-2.98431 11,-1.0444 21.6101,-1.90598 23.5781,-1.91461 2.8747,-0.012 3.6873,-0.73643 4.1335,-3.68236 0.3055,-2.01667 0.6388,6.83333 0.7406,19.66667 0.1018,12.83333 -0.189,25.59669 -0.6462,28.36302 -0.7617,4.609 -1.1787,5.01683 -4.9853,4.87582 -2.2847,-0.0847 -10.4541,0.4615 -18.1541,1.21366 -27.5895,2.69503 -35.758,3.21087 -66,4.1678 -51.0413,1.6151 -133.0872,-0.27821 -168.6666,-3.8922 C 999.7,894.02045 989.2,893.08847 983.33333,892.65703 960.47056,890.97564 927.99227,887.8792 914,886.04688 c -8.06667,-1.05636 -24.26667,-2.59923 -36,-3.4286 -11.73333,-0.82937 -24.33333,-2.12079 -28,-2.86981 -3.66667,-0.74902 -7.86667,-1.56852 -9.33333,-1.82111 -14.6322,-2.51999 -21.0422,-3.21685 -36,-3.91376 -26.81358,-1.24928 -33.87467,-1.8572 -36.3652,-3.13089 -1.2658,-0.64735 -5.20366,-1.2676 -8.75078,-1.37835 -3.54712,-0.1108 -7.5216,-0.77523 -8.83217,-1.47663 -1.74833,-0.93568 -2.92351,-0.66534 -4.41312,1.01516 -3.28135,3.70186 -8.94376,23.17879 -14.42681,49.62376 l -5.11435,24.66667 0.78761,-17.33333 z m 1.88675,-28.11111 c 0.064,-1.55326 0.37992,-1.8692 0.80555,-0.80556 0.38516,0.9625 0.3378,2.11251 -0.1052,2.55556 -0.44306,0.44306 -0.75819,-0.34445 -0.7003,-1.75 z"
         id="path2015" />
      <path
         style="fill:#aaf8aa;stroke-width:1.33333"
         d="m 831.9874,516.03245 c -32.6264,-11.55373 -61.53088,-21.9403 -64.23217,-23.08125 -5.81068,-2.45427 -8.58838,-7.20632 -9.87306,-16.89071 -1.11756,-8.42458 5.73124,-5.11809 -59.48009,-28.71609 -27.22807,-9.85301 -50.01396,-18.42295 -50.63532,-19.04431 -0.62136,-0.62136 0.0769,-4.63701 1.55175,-8.92365 1.47481,-4.28665 2.68149,-7.94388 2.68149,-8.12716 0,-0.18329 -8.85,-3.76668 -19.66667,-7.96307 -10.81666,-4.1964 -20.15286,-8.0687 -20.74712,-8.60513 -0.59424,-0.53641 0.75576,-2.52037 3,-4.40879 2.24426,-1.8884 4.08046,-4.6222 4.08046,-6.0751 0,-3.4277 2.03016,-4.00967 8.88634,-2.54739 4.56262,0.97312 7.5842,0.56304 16.42139,-2.22863 5.95645,-1.88164 12.44895,-3.4194 14.42776,-3.41724 1.97881,0.003 15.87979,3.93667 30.89104,8.74335 15.01127,4.80668 28.81127,8.80411 30.66667,8.88316 1.85541,0.0791 10.57346,-0.31132 19.37346,-0.86752 l 16,-1.01127 53.00546,17.45751 c 49.51626,16.30833 53.68532,17.45797 63.33333,17.46449 9.62268,0.007 13.15016,0.9717 51.66121,14.13535 22.73334,7.7706 48.82092,16.66624 57.97243,19.76809 l 16.63908,5.63975 -12.76832,6.16939 c -28.84752,13.9385 -59.21408,34.27249 -85.18912,57.04413 l -8.67927,7.60889 z"
         id="path2013" />
      <path
         style="fill:#a0cedd;stroke-width:1.33333"
         d="m 726.79533,957.72077 c -0.21789,-20.79477 13.12351,-81.36165 19.53356,-88.67786 1.47311,-1.68135 2.64043,-1.95131 4.38963,-1.01516 1.31057,0.7014 5.28505,1.36588 8.83217,1.47662 3.54712,0.1108 7.48498,0.731 8.75078,1.37835 2.49053,1.27369 9.55162,1.88161 36.3652,3.13089 14.9578,0.69691 21.3678,1.39378 36,3.91376 1.46666,0.25259 5.66666,1.0721 9.33333,1.82111 3.66667,0.74903 16.26667,2.04044 28,2.86981 11.73333,0.82938 27.93333,2.37224 36,3.4286 13.99227,1.83232 46.47056,4.92876 69.33333,6.61015 5.86667,0.43144 16.36667,1.36343 23.33337,2.07107 35.5794,3.61398 117.6253,5.50729 168.6666,3.8922 30.242,-0.95694 38.4105,-1.47278 66,-4.1678 7.7,-0.75216 15.9086,-1.29567 18.2414,-1.2078 3.6634,0.138 4.3175,-0.34471 4.8002,-3.54247 0.3074,-2.03623 0.6422,2.29776 0.744,9.63109 0.248,17.86164 -0.7074,23.19936 -4.2965,24.00596 -4.9086,1.10315 -64.2924,6.83328 -82.1557,7.92747 -65.5018,4.0122 -132.448,3.82797 -202.00003,-0.55587 -11.73334,-0.73954 -26.43334,-1.64476 -32.66667,-2.01157 -6.23333,-0.36681 -20.63333,-1.55415 -32,-2.63851 -11.36667,-1.08436 -28.46667,-2.57554 -38,-3.31373 -17.44407,-1.35076 -19.71925,-1.59135 -38,-4.01825 -5.5,-0.73018 -19,-1.6392 -30,-2.02007 -11,-0.38087 -21.5,-0.92151 -23.33333,-1.20143 -5.8312,-0.89032 -11.281,-2.5005 -12.9748,-3.83352 -0.9028,-0.7105 -7.82031,-1.60718 -15.37224,-1.99261 l -13.73079,-0.70079 -1.78552,3.84314 c -3.16951,6.82196 -4.25488,11.44604 -8.1002,34.50978 L 726.924,970 Z"
         id="path2011" />
      <path
         style="fill:#9dcddc;stroke-width:1.33333"
         d="m 726.82665,1009.5071 c -0.1435,-32.73335 0.18202,-38.70858 3.15975,-57.99999 3.61719,-23.43428 4.97184,-29.49267 8.35164,-37.35086 l 2.22665,-5.17706 13.74286,0.7014 c 7.55857,0.38576 14.48152,1.28272 15.38432,1.99322 1.6938,1.33302 7.1436,2.9432 12.9748,3.83352 C 784.5,915.78725 795,916.32789 806,916.70876 c 11,0.38087 24.5,1.28989 30,2.02007 18.28075,2.4269 20.55593,2.66749 38,4.01825 9.53333,0.73819 26.63333,2.22937 38,3.31373 11.36667,1.08436 25.76667,2.2717 32,2.63851 6.23333,0.36681 20.93333,1.27203 32.66667,2.01157 82.75763,5.21619 165.98493,4.4748 234.00003,-2.08449 56.827,-5.48032 52.9786,-4.79037 53.7119,-9.62965 0.3054,-2.01488 0.5853,13.73658 0.6221,35.00325 0.037,21.26667 -0.348,40.16667 -0.8549,42 -0.7967,2.88109 -1.9092,3.44905 -8.2004,4.1863 -4.0033,0.4691 -13.8787,1.8213 -21.9454,3.0048 -32.6972,4.7972 -92.967,7.8316 -152.6667,7.6862 -31.1666,-0.076 -64.1666,-0.7412 -73.3333,-1.4786 -9.16667,-0.7373 -30.46667,-2.2755 -47.33333,-3.4182 -16.86667,-1.1426 -34.43024,-2.6756 -39.03018,-3.4066 -4.59993,-0.731 -17.49993,-2.2017 -28.66666,-3.26811 -32.77299,-3.12988 -53.86087,-5.54283 -55.12459,-6.30755 -1.16577,-0.70544 -19.82224,-2.79619 -39.17857,-4.39055 -5.5,-0.45304 -14.5,-2.04837 -20,-3.54521 -5.5,-1.49683 -14.2,-2.95657 -19.33334,-3.24388 -5.13333,-0.28731 -11.07286,-1.11403 -13.19896,-1.83716 -7.51033,-2.55441 -9.912,-1.77357 -11.3349,3.68523 -2.189,8.3978 -2.94623,13.77284 -5.42552,38.51203 L 726.98664,1046 Z M 897.33333,546.16325 c 0,-0.27686 1.05,-1.32686 2.33334,-2.33333 2.11474,-1.65849 2.1619,-1.61133 0.50341,0.50341 -1.74183,2.221 -2.83675,2.92731 -2.83675,1.82992 z"
         id="path2009" />
      <path
         style="fill:#a3f8a3;stroke-width:1.33333"
         d="m 818,535.91211 c -101.09455,-36.14166 -108.92103,-39.0236 -110.63765,-40.74023 -0.95354,-0.95355 -3.15015,-6.33673 -4.88136,-11.96265 -1.96716,-6.39267 -4.18446,-10.91246 -5.91218,-12.05147 -1.52048,-1.00239 -26.72048,-10.45307 -56,-21.00151 -64.46602,-23.22497 -64.29718,-23.15737 -66.06182,-26.45461 -0.77836,-1.4544 -1.92426,-6.24563 -2.54642,-10.64719 -0.62214,-4.40157 -1.44705,-8.3187 -1.8331,-8.70477 -0.38607,-0.38605 -16.74552,-6.62552 -36.35438,-13.86547 -19.60884,-7.23996 -36.21272,-13.72384 -36.89749,-14.40861 -0.77119,-0.77119 -0.46659,-4.33545 0.80031,-9.36483 l 2.04537,-8.11976 -3.52731,-1.74782 c -1.94001,-0.96132 -8.6273,-3.74356 -14.86064,-6.18278 -6.23333,-2.43922 -11.55798,-4.61033 -11.83257,-4.82469 -0.27459,-0.21437 1.07541,-2.26113 3,-4.54837 1.92459,-2.28724 3.49924,-5.27718 3.49924,-6.6443 0,-3.57661 1.76893,-4.19153 8.01837,-2.78737 4.7836,1.0748 6.80202,0.70564 15.0854,-2.75912 5.25959,-2.19997 10.83555,-4.02168 12.39102,-4.04825 1.55546,-0.0265 13.85546,3.41757 27.33333,7.65365 l 24.50521,7.70196 L 576,338.85576 c 6.96667,-0.85148 14.70683,-1.54236 17.20036,-1.53529 2.49355,0.007 23.04196,6.01286 45.66316,13.3462 C 676.66588,362.92143 680.83804,364 690.43967,364 c 9.47041,0 13.17773,0.92317 39.67018,9.87847 38.36584,12.96886 154.40326,52.85733 154.7411,53.19305 0.1449,0.144 -5.23728,0.0537 -11.9604,-0.20056 C 861.38423,426.43573 857.57505,425.39139 808,409.08012 l -52.66667,-17.32847 -16,1.01127 c -8.8,0.5562 -17.51805,0.94659 -19.37346,0.86752 -1.8554,-0.0791 -15.6554,-4.07648 -30.66667,-8.88316 -15.01125,-4.80668 -28.91223,-8.74119 -30.89104,-8.74335 -1.97881,-0.003 -8.47131,1.5356 -14.42776,3.41724 -8.83719,2.79167 -11.85877,3.20175 -16.42139,2.22863 -6.85618,-1.46228 -8.88634,-0.88031 -8.88634,2.54739 0,1.4529 -1.8362,4.1867 -4.08046,6.0751 -2.24424,1.88842 -3.59424,3.87238 -3,4.40879 0.59426,0.53643 9.93046,4.40873 20.74712,8.60513 C 643.15,407.4826 652,411.06599 652,411.24928 c 0,0.18328 -1.20668,3.84051 -2.68149,8.12716 -1.47483,4.28664 -2.17311,8.30229 -1.55175,8.92365 0.62136,0.62136 23.40725,9.1913 50.63532,19.04431 65.21133,23.598 58.36253,20.29151 59.48009,28.71609 1.32996,10.0257 3.99543,14.36618 10.52663,17.1417 3.07516,1.30682 31.6912,11.57309 63.5912,22.81392 31.9,11.24082 58.2664,20.65213 58.59201,20.91401 1.14011,0.91695 -16.53525,17.73573 -18.55349,17.65436 C 870.91733,554.53927 846.6,546.13671 818,535.91211 Z m 78,-3.08219 c 0,-0.27687 1.05,-1.32687 2.33333,-2.33333 2.11475,-1.6585 2.16191,-1.61134 0.50342,0.50341 C 897.09492,533.221 896,533.92731 896,532.82992 Z"
         id="path2007" />
      <path
         style="fill:#99cad9;stroke-width:1.33333"
         d="m 726.8466,1088 c -0.20273,-42.5307 3.04408,-84.9752 7.98103,-104.33333 1.39262,-5.4606 3.78976,-6.2419 11.30674,-3.68523 2.1261,0.72313 8.06563,1.54985 13.19896,1.83716 5.13334,0.28731 13.83334,1.74705 19.33334,3.24388 5.5,1.49684 14.5,3.09217 20,3.54521 19.35633,1.59436 38.0128,3.68511 39.17857,4.39055 1.26372,0.76472 22.3516,3.17767 55.12459,6.30755 11.16673,1.06641 24.06673,2.53711 28.66666,3.26811 4.59994,0.731 22.16351,2.264 39.03018,3.4066 16.86666,1.1427 38.16666,2.6809 47.33333,3.4182 9.1667,0.7374 42.1667,1.4027 73.3333,1.4786 59.6997,0.1454 119.9695,-2.889 152.6667,-7.6862 8.0667,-1.1835 17.9421,-2.5357 21.9454,-3.0048 6.2912,-0.73725 7.4037,-1.30521 8.2004,-4.1863 1.1455,-4.14272 1.4675,56.129 0.3364,62.9714 -0.741,4.4823 -1.2971,5.0446 -5.652,5.7144 -2.6566,0.4086 -9.6575,1.6278 -15.5576,2.7094 -12.4059,2.2742 -70.327,8.873 -105.2286,11.9884 -36.6679,3.2731 -191.41441,3.1369 -210.044,-0.1848 -1.83333,-0.3269 -7.23333,-0.8906 -12,-1.2527 -30.21399,-2.2952 -86.9392,-7.8312 -110,-10.7353 -8.8,-1.1082 -18.45417,-2.2351 -21.45372,-2.5041 -2.99953,-0.2691 -8.09953,-1.2511 -11.33333,-2.1822 -6.73174,-1.9383 -7.0645,-1.985 -23.23591,-3.2626 -13.67272,-1.0801 -14.00636,-0.9019 -16.36397,8.7381 -1.33023,5.4391 -2.08892,11.7591 -5.52218,46 -0.79553,7.9341 -1.11429,1.2735 -1.24429,-26 z m -0.9352,-102 c -8.1e-4,-18.33333 0.18697,-26.01827 0.41731,-17.07763 0.23033,8.94066 0.231,23.94066 10e-4,33.33333 -0.22937,9.3927 -0.41783,2.0776 -0.41864,-16.2557 z M 338.43124,835.89475 c -1.19816,-0.67052 -3.58535,-1.18738 -5.30485,-1.14855 -1.71951,0.0388 -5.82639,-0.54295 -9.12639,-1.29281 -9.54063,-2.16794 -54.42399,-9.52304 -61.1858,-10.02662 -9.42603,-0.70198 -18.73873,-2.20553 -26.8142,-4.3292 -4.51304,-1.18682 -16.81976,-2.178 -32,-2.57728 -13.56667,-0.35682 -25.41667,-0.90104 -26.33333,-1.20936 C 176.43836,814.8978 176,809.79227 176,795.8992 c 0,-16.24611 0.27761,-18.74464 2.00895,-18.08027 1.10492,0.424 17.45492,6.13872 36.33333,12.69938 27.29591,9.48593 98.53311,34.37905 124.23567,43.4129 2.51788,0.88498 4.00506,1.96311 3.30486,2.39586 -0.7002,0.43274 -2.25341,0.23821 -3.45157,-0.43232 z M 1265.7329,393.33333 c 0,-4.03333 0.2499,-5.68333 0.5554,-3.66666 0.3055,2.01666 0.3055,5.31666 0,7.33333 -0.3055,2.01667 -0.5554,0.36667 -0.5554,-3.66667 z"
         id="path2005" />
      <path
         style="fill:#96c8d8;stroke-width:1.33333"
         d="m 726.82557,1148.6667 c -0.1312,-16.2124 0.73639,-29.0013 4.52243,-66.6667 0.98703,-9.8195 3.24955,-19.3803 5.16927,-21.8439 1.13677,-1.4589 3.94741,-1.6456 13.45977,-0.8942 16.17141,1.2776 16.50417,1.3243 23.23591,3.2626 3.2338,0.9311 8.3338,1.9131 11.33333,2.1822 2.99955,0.269 12.65372,1.3959 21.45372,2.5041 23.0608,2.9041 79.78601,8.4401 110,10.7353 4.76667,0.3621 10.16667,0.9258 12,1.2527 18.62959,3.3217 173.3761,3.4579 210.044,0.1848 34.9016,-3.1154 92.8227,-9.7142 105.2286,-11.9884 5.9001,-1.0816 12.9395,-2.3081 15.6431,-2.7255 4.0735,-0.6289 5.013,-1.3795 5.4835,-4.381 0.3122,-1.9921 0.5001,6.878 0.4176,19.7113 l -0.1501,23.3333 -12,4.4797 c -12.3852,4.6234 -18.2985,5.6209 -64,10.7954 -38.8688,4.401 -53.816,5.4354 -95.3334,6.5975 -66.9671,1.8745 -173.7285,-0.6371 -191.3333,-4.5012 -1.46667,-0.3219 -13.46667,-1.2203 -26.66667,-1.9964 -13.2,-0.776 -27.9,-1.9689 -32.66666,-2.6507 -4.76667,-0.6818 -14.66667,-1.9135 -22,-2.737 -7.33334,-0.8235 -16.63334,-2.0592 -20.66667,-2.7461 -4.03333,-0.6868 -10.93333,-1.5231 -15.33333,-1.8584 -12.53204,-0.955 -27.3204,-3.2756 -34.54392,-5.4208 -3.63371,-1.0791 -8.19719,-1.962 -10.14104,-1.962 -5.41014,0 -6.46748,4.6453 -11.22922,49.3334 l -1.7759,16.6666 z M 725.87612,1040 c 0,-12.1 0.20213,-17.05 0.4492,-11 0.24705,6.05 0.24705,15.95 0,22 -0.24707,6.05 -0.4492,1.1 -0.4492,-11 z m -12.79033,-60.66667 c -2.0531,-8.98293 -2.57204,-16.66666 -1.12564,-16.66666 2.28401,0 2.87552,2.94089 2.44181,12.14044 -0.31393,6.65913 -0.60216,7.65029 -1.31617,4.52622 z m -177.75246,-74.2563 c -9.07549,-2.96307 -12.72856,-3.87674 -17.05069,-4.26458 -2.50249,-0.22454 -5.18568,-0.80116 -5.96265,-1.28136 -0.77698,-0.48018 -2.30614,-0.53022 -3.39814,-0.1112 -1.092,0.41904 -2.38154,0.12094 -2.86568,-0.66234 -0.48412,-0.78332 -2.19481,-1.42967 -3.80153,-1.43631 -1.60672,-0.007 -9.52131,-1.55681 -17.58797,-3.44483 -8.06667,-1.88801 -16.16667,-3.6834 -18,-3.98976 -6.35544,-1.06202 -7.33991,-1.29888 -8.66667,-2.08521 -0.73333,-0.43463 -5.83333,-1.21373 -11.33333,-1.73135 -5.5,-0.51761 -13.9,-1.83133 -18.66667,-2.91936 -4.76667,-1.08804 -9.57721,-2.12046 -10.69011,-2.29428 -1.11289,-0.17382 -2.67078,-0.71612 -3.46198,-1.2051 -0.79122,-0.489 -5.22276,-1.23211 -9.84791,-1.65136 -4.62515,-0.41926 -8.87317,-1.04895 -9.44008,-1.39931 -0.56689,-0.35036 -7.5248,-0.914 -15.46199,-1.25253 -7.9372,-0.33854 -17.73126,-1.55784 -21.7646,-2.70958 -7.54514,-2.15453 -13.94385,-2.75225 -42.66666,-3.98561 -19.0102,-0.81631 -23.9603,-1.33629 -32.93302,-3.45947 -3.52017,-0.83297 -16.69674,-1.70758 -29.28125,-1.94358 -12.58452,-0.23602 -31.18452,-0.91107 -41.33333,-1.50015 -10.14883,-0.58907 -22.2024,-0.90784 -26.78574,-0.70839 L 176,861.40401 v -23.32682 c 0,-18.07156 0.37548,-23.20055 1.66667,-22.76627 0.91666,0.30832 12.76666,0.85253 26.33333,1.20936 15.18024,0.39928 27.48696,1.39045 32,2.57728 8.07547,2.12367 17.38817,3.62721 26.8142,4.3292 6.76181,0.50357 51.64517,7.85868 61.1858,10.02661 3.3,0.74987 7.39504,1.33262 9.10008,1.29499 1.70505,-0.0376 4.16313,0.50052 5.46241,1.19587 1.57824,0.84465 2.87266,0.75394 3.89991,-0.27331 1.13727,-1.13727 1.5376,-1.1426 1.5376,-0.0205 0,0.83442 1.05,1.44976 2.33333,1.36741 1.28334,-0.0824 20.93334,6.31841 43.66667,14.22391 107.86887,37.5113 156.04663,54.40349 156.55556,54.89181 1.06568,1.02253 -7.25307,0.23932 -11.22223,-1.05657 z m 730.41317,-497.7437 c 0.01,-4.4 0.2564,-6.03925 0.5531,-3.64278 0.2968,2.39646 0.2907,5.99646 -0.014,8 -0.3042,2.00353 -0.547,0.0428 -0.5395,-4.35722 z"
         id="path2003" />
      <path
         style="fill:#9cf89c;stroke-width:1.33333"
         d="m 850.66667,573.11799 c -1.83334,-0.7588 -26.73334,-9.73664 -55.33334,-19.95075 -28.6,-10.21411 -61.51618,-22.00523 -73.14709,-26.20251 l -21.14709,-7.6314 -4.33542,-8.66666 c -2.38446,-4.76667 -5.05513,-10.88735 -5.9348,-13.60151 -1.86808,-5.76383 5.19979,-2.74293 -68.10226,-29.10785 -28.23334,-10.15483 -53.52868,-19.38468 -56.21188,-20.51079 -4.62563,-1.94133 -5.00506,-2.58412 -7.31899,-12.39932 -1.34225,-5.69352 -3.36933,-11.28073 -4.50463,-12.41603 -1.13528,-1.13528 -14.64173,-6.66488 -30.01433,-12.28798 -15.3726,-5.62311 -35.45017,-12.96563 -44.61684,-16.3167 -9.16667,-3.35108 -17.54177,-6.64065 -18.61135,-7.31018 -1.19301,-0.7468 -2.49474,-5.24344 -3.3678,-11.63348 l -1.4231,-10.41616 -30.63222,-11.57019 c -16.8477,-6.36361 -31.07897,-11.76361 -31.62502,-12 -0.54606,-0.2364 -0.33031,-4.18912 0.47944,-8.78381 1.14546,-6.49967 1.1017,-8.80051 -0.19718,-10.36556 -0.9182,-1.10635 -1.43394,-2.20416 -1.1461,-2.43958 10.04166,-8.21297 39.2724,-23.97133 42.76909,-23.05693 1.53701,0.40193 8.75016,-0.48387 16.02923,-1.96844 l 13.23465,-2.69923 35.94289,11.44187 c 32.56162,10.36549 36.93312,11.44187 46.46904,11.44187 10.05592,0 13.07732,0.86914 67.63562,19.45618 31.41021,10.7009 63.70948,21.75514 71.77614,24.56496 L 702,363.79659 l -11.00351,0.10173 c -10.43452,0.0964 -13.13034,-0.58777 -52.13297,-13.23163 -22.6212,-7.33333 -43.16961,-13.33912 -45.66316,-13.3462 -2.49353,-0.007 -10.23369,0.68382 -17.20036,1.5353 l -12.66667,1.54816 -24.50521,-7.70196 c -13.47787,-4.23608 -25.77787,-7.68023 -27.33333,-7.65366 -1.55547,0.0265 -7.13143,1.84828 -12.39102,4.04826 -8.28338,3.46476 -10.3018,3.83392 -15.0854,2.75912 C 477.76893,330.45152 476,331.06644 476,334.64305 c 0,1.36712 -1.57465,4.35706 -3.49924,6.6443 -1.92459,2.28724 -3.27459,4.334 -3,4.54837 0.27459,0.21436 5.59924,2.38547 11.83257,4.82469 6.23334,2.43922 12.92063,5.22146 14.86064,6.18278 l 3.52731,1.74782 -2.04537,8.11976 c -1.2669,5.02938 -1.5715,8.59364 -0.80031,9.36483 0.68477,0.68477 17.28865,7.16865 36.89749,14.40861 19.60886,7.23995 35.96831,13.47942 36.35438,13.86547 0.38605,0.38607 1.21096,4.3032 1.8331,8.70477 0.62216,4.40156 1.76806,9.19279 2.54642,10.64719 1.76464,3.29724 1.5958,3.22964 66.06182,26.45461 29.27952,10.54844 54.47952,19.99912 56,21.00151 1.72772,1.13901 3.94502,5.6588 5.91218,12.05147 1.73121,5.62592 3.92782,11.0091 4.88136,11.96265 1.76121,1.76121 16.69238,7.24357 112.16876,41.18564 l 53.5311,19.03043 -8.663,9.63936 c -4.76465,5.30165 -9.05365,9.60133 -9.5311,9.55484 -0.47747,-0.0465 -2.36811,-0.70535 -4.20144,-1.46416 z"
         id="path2001" />
      <path
         style="fill:#94c6d6;stroke-width:1.33333"
         d="m 726.84191,1202.3401 c -0.19939,-34.5062 3.73532,-81.4983 8.02194,-95.8058 1.80322,-6.0186 4.19168,-6.5256 15.2589,-3.239 7.22352,2.1452 22.01188,4.4658 34.54392,5.4208 4.4,0.3353 11.3,1.1716 15.33333,1.8584 4.03333,0.6869 13.33333,1.9226 20.66667,2.7461 7.33333,0.8235 17.23333,2.0552 22,2.737 4.76666,0.6818 19.46666,1.8747 32.66666,2.6507 13.2,0.7761 25.2,1.6745 26.66667,1.9964 17.49868,3.8408 124.2089,6.374 190.6667,4.5263 47.4486,-1.3193 71.0984,-3.2567 130.4257,-10.685 6.4675,-0.8097 12.0123,-1.2191 12.3217,-0.9097 0.5018,0.5019 -64.1921,22.9642 -185.0642,64.2558 l -40.9834,14.0005 -25.01655,-0.662 c -22.65552,-0.5995 -69.36506,-3.7357 -77.68328,-5.2158 -1.83334,-0.3262 -9.03334,-0.9398 -16,-1.3635 -26.86112,-1.6337 -33.85947,-2.3669 -51.33334,-5.3781 -5.86666,-1.0109 -13.36666,-2.13 -16.66666,-2.4868 -19.41378,-2.099 -40.55,-5.014 -48.66667,-6.7119 -9.34285,-1.9545 -24.03673,-4.5522 -29.65703,-5.2432 -1.64469,-0.2021 -3.39469,-0.7719 -3.88888,-1.2661 -4.80085,-4.8008 -7.50802,5.9063 -10.56061,41.7681 -2.33644,27.4485 -2.87876,26.9165 -3.05157,-2.9932 z m -0.93199,-109.0068 c 0,-17.9666 0.18873,-25.3166 0.41941,-16.3333 0.23068,8.9833 0.23068,23.6833 0,32.6667 -0.23068,8.9833 -0.41941,1.6333 -0.41941,-16.3334 z m 535.42338,11.476 c 0,-0.2882 0.9312,-0.8813 2.0693,-1.318 1.1865,-0.4554 1.7217,-0.2318 1.2546,0.524 -0.783,1.2669 -3.3239,1.8739 -3.3239,0.794 z m -548.31455,-76.1426 c -0.53968,-3.6667 -1.61472,-15.0667 -2.38898,-25.3334 -1.68032,-22.28117 -3.2829,-32.09659 -5.8902,-36.07582 -1.8538,-2.82925 -2.70268,-2.94232 -20.7971,-2.77023 -10.37544,0.0987 -19.14846,-0.28037 -19.49559,-0.84233 -0.34712,-0.56196 -1.15097,-0.70048 -1.78633,-0.3078 -0.63536,0.39267 -3.24862,-0.46187 -5.80726,-1.89896 -2.55862,-1.43709 -6.80396,-3.0166 -9.43406,-3.51001 -2.63011,-0.49342 -5.03859,-1.31226 -5.35216,-1.81964 -0.31359,-0.50739 -6.36986,-0.7441 -13.45838,-0.526 -10.98398,0.33793 -14.33349,-0.10227 -22.67018,-2.97978 -12.63867,-4.36228 -15.86362,-4.89544 -32.13226,-5.31225 -7.43989,-0.19061 -17.93989,-1.35591 -23.33333,-2.58952 -8.43032,-1.92825 -24.27032,-4.2394 -35.80625,-5.22435 -1.83334,-0.15653 -4.23334,-0.68276 -5.33334,-1.16938 -1.1,-0.48664 -8.6,-1.21559 -16.66666,-1.61991 -23.75084,-1.19043 -31.32314,-1.92137 -33.83584,-3.26613 -3.37767,-1.80767 -12.7738,-2.77864 -34.16416,-3.53043 C 414.4,929.52993 403.3,928.95283 400,928.60829 c -3.3,-0.34452 -21,-0.87549 -39.33333,-1.17993 -18.33334,-0.30445 -41.08187,-0.89697 -50.55228,-1.31672 -10.42355,-0.46199 -19.27864,-0.20856 -22.43802,0.64217 -2.87048,0.77294 -20.02196,1.67306 -38.11438,2.00026 -18.09243,0.3272 -42.04532,0.96564 -53.22866,1.41876 L 176,930.99667 v -34.6481 -34.64809 l 7.42448,-0.8726 c 4.08345,-0.47993 7.83345,-0.63132 8.33333,-0.33641 1.308,0.77166 34.01419,2.25809 60.69459,2.75845 12.58451,0.236 25.76108,1.11061 29.28125,1.94359 8.97272,2.12317 13.92282,2.64316 32.93302,3.45946 28.72281,1.23336 35.12152,1.83108 42.66666,3.98562 4.03334,1.15173 13.8274,2.37104 21.7646,2.70957 7.93719,0.33853 14.8951,0.90217 15.46199,1.25253 0.56691,0.35036 4.81493,0.98006 9.44008,1.39931 4.62515,0.41925 9.05669,1.16236 9.84791,1.65136 0.7912,0.48899 2.34909,1.03128 3.46198,1.20511 1.1129,0.17381 5.92344,1.20624 10.69011,2.29428 4.76667,1.08802 13.16667,2.40174 18.66667,2.91936 5.5,0.51761 10.6,1.29672 11.33333,1.73134 1.32676,0.78634 2.31123,1.02319 8.66667,2.08522 1.83333,0.30636 9.93333,2.10174 18,3.98976 8.06666,1.88801 15.98125,3.43818 17.58797,3.44482 1.60672,0.007 3.31741,0.65299 3.80153,1.43631 0.48414,0.78333 1.77368,1.08139 2.86568,0.66235 1.092,-0.41904 2.62116,-0.369 3.39814,0.1112 0.77697,0.4802 3.46016,1.05681 5.96265,1.28136 2.50249,0.22456 6.46264,0.99296 8.80033,1.70756 12.213,3.73337 15.629,4.44582 18.15247,3.78592 1.52051,-0.39763 2.76456,-0.11494 2.76456,0.62821 0,0.74313 0.84135,1.02831 1.86964,0.63371 1.02831,-0.3946 2.24377,-0.34334 2.70103,0.114 0.45726,0.45725 1.86592,0.9959 3.13036,1.197 1.26444,0.20108 28.39897,9.44476 60.29897,20.5415 31.9,11.09675 66.20385,22.96676 76.2308,26.3778 l 18.23079,6.20191 0.81826,6.66667 c 0.45006,3.66666 1.42083,9.06666 2.15728,12 0.73647,2.93333 1.16439,16.43333 0.95095,29.99995 -0.26804,17.0372 -0.69159,22.6047 -1.36933,18 z m 12.41985,-80.11114 c 0.064,-1.55327 0.37992,-1.8692 0.80555,-0.80556 0.38516,0.96249 0.3378,2.11251 -0.1052,2.55556 -0.44306,0.44305 -0.75819,-0.34445 -0.7003,-1.75 z m 540.4505,-509.22223 c 0,-13.93333 0.1989,-19.45217 0.4391,-12.26408 0.2402,7.1881 0.2391,18.5881 0,25.33334 -0.2415,6.74524 -0.438,0.86408 -0.4367,-13.06926 z"
         id="path1999" />
      <path
         style="fill:#92c4d5;stroke-width:1.33333"
         d="m 726.6776,1263.0787 c 0.007,-14.5266 0.57431,-31.512 1.26287,-37.7454 0.68856,-6.2333 1.60565,-15.5333 2.03798,-20.6666 2.95846,-35.1271 5.69868,-45.8784 10.47564,-41.1015 0.49419,0.4942 2.24419,1.064 3.88888,1.2661 5.6203,0.691 20.31418,3.2887 29.65703,5.2432 8.11667,1.6979 29.25289,4.6129 48.66667,6.7119 3.3,0.3568 10.8,1.4759 16.66666,2.4868 17.47387,3.0112 24.47222,3.7444 51.33334,5.3781 6.96666,0.4237 14.16666,1.0373 16,1.3635 8.22844,1.4642 54.85685,4.6173 76.45225,5.1699 13.08208,0.3348 24.02978,0.8529 24.32828,1.1514 0.511,0.511 -51.45284,18.5783 -136.11387,47.3256 L 834,1252.3384 l -13.87807,-1.6549 c -7.63293,-0.9102 -15.73293,-1.8334 -18,-2.0517 -14.05962,-1.3538 -32.1619,-3.5778 -32.91636,-4.0441 -0.4883,-0.3018 -5.00933,-0.6376 -10.0467,-0.7462 -5.03738,-0.1087 -11.48431,-1.0174 -14.32651,-2.0195 -2.8422,-1.0021 -5.67679,-1.822 -6.29909,-1.822 -3.34398,0 -5.74039,10.9439 -8.69247,39.6965 -1.72483,16.7995 -3.17388,9.1869 -3.1632,-16.6178 z m -0.76472,-104.412 c 0,-18.7 0.18753,-26.35 0.41673,-17 0.2292,9.35 0.2292,24.65 0,34 -0.2292,9.35 -0.41673,1.7 -0.41673,-17 z m -12.87675,-49.3334 c -0.53012,-4.0333 -1.62925,-17.5333 -2.4425,-30 -1.71402,-26.2745 -3.26667,-40.1579 -5.46531,-48.8693 l -1.56547,-6.2026 -7.83022,0.3297 c -4.30663,0.1813 -8.05232,-0.03 -8.32378,-0.4689 -0.27145,-0.4392 -5.19949,-0.6346 -10.9512,-0.4342 -12.97422,0.452 -9.36678,0.4934 -34.45765,-0.3955 -11.73333,-0.4157 -32.43333,-0.9839 -46,-1.2625 -13.56667,-0.2787 -40.56667,-0.8892 -60,-1.3568 -19.43333,-0.4675 -37.73333,-0.7979 -40.66667,-0.7341 -4.5778,0.1 -35.14805,0.02 -64.66666,-0.1674 -9.18419,-0.058 -58.54727,0.8033 -124.66667,2.1764 -74.88431,1.555 -93.32155,2.0132 -111.66667,2.7746 L 176,1025.4837 v -47.24353 -47.2435 l 20.33333,-0.82384 c 11.18334,-0.45312 35.13623,-1.09156 53.22866,-1.41876 18.09242,-0.3272 35.2439,-1.22732 38.11438,-2.00026 3.15938,-0.85073 12.01447,-1.10416 22.43802,-0.64217 9.47041,0.41975 32.21894,1.01227 50.55228,1.31672 C 379,927.7328 396.7,928.26377 400,928.60829 c 3.3,0.34454 14.4,0.92164 24.66667,1.28247 21.39036,0.75179 30.78649,1.72276 34.16416,3.53043 2.5127,1.34476 10.085,2.0757 33.83584,3.26613 8.06666,0.40432 15.56666,1.13327 16.66666,1.61991 1.1,0.48662 3.5,1.01285 5.33334,1.16938 11.53593,0.98495 27.37593,3.2961 35.80625,5.22435 5.39344,1.23361 15.89344,2.39891 23.33333,2.58952 16.26864,0.41681 19.49359,0.94997 32.13226,5.31225 8.33669,2.87744 11.6862,3.31771 22.67018,2.97978 7.08852,-0.2181 13.14479,0.0187 13.45838,0.526 0.31357,0.50738 2.72205,1.32622 5.35216,1.81964 2.6301,0.49341 6.87544,2.07292 9.43406,3.51001 2.55864,1.43709 5.1719,2.29163 5.80726,1.89896 0.63536,-0.39268 1.43921,-0.25416 1.78633,0.3078 0.34713,0.56196 9.12015,0.94101 19.49559,0.84233 18.09442,-0.17209 18.9433,-0.0591 20.7971,2.77023 2.61158,3.98575 4.21431,13.82241 5.87804,36.07582 0.76758,10.2667 2.03888,23.1667 2.82514,28.6667 0.84237,5.8925 1.25041,25.3346 0.99341,47.3333 -0.27085,23.184 -0.80147,34.554 -1.40003,30 z M 725.4386,944.55556 c 0.064,-1.55327 0.37992,-1.8692 0.80555,-0.80556 0.38516,0.96249 0.3378,2.11251 -0.1052,2.55556 -0.44306,0.44305 -0.75819,-0.34445 -0.7003,-1.75 z M 1265.9099,496 c 0,-17.96667 0.1888,-25.31667 0.4194,-16.33333 0.2307,8.98333 0.2307,23.68333 0,32.66666 -0.2306,8.98334 -0.4194,1.63334 -0.4194,-16.33333 z"
         id="path1997" />
      <path
         style="fill:#8dc0d2;stroke-width:1.33333"
         d="m 729.38155,1282.3796 c 0.54578,-3.8755 1.73401,-13.3463 2.64049,-21.0463 1.56473,-13.2914 4.01924,-21.3333 6.51123,-21.3333 0.6223,0 3.45689,0.8199 6.29909,1.822 2.8422,1.0021 9.28913,1.9109 14.32651,2.0195 5.03737,0.1087 9.55241,0.4407 10.03342,0.738 0.83679,0.5172 19.31116,2.7642 34.80771,4.2337 4.03333,0.3825 12.62015,1.4083 19.08181,2.2797 l 11.74847,1.5843 -52.31004,17.9947 c -28.77052,9.8971 -52.71977,18.1656 -53.22055,18.3743 -0.50077,0.2088 -0.46394,-2.7912 0.0819,-6.6666 z m -3.45747,-51.0463 c -6e-4,-22 0.18207,-31.187 0.40592,-20.4157 0.22385,10.7713 0.22435,28.7713 10e-4,40 -0.22326,11.2287 -0.40641,2.4157 -0.40701,-19.5843 z m -12.86259,-42 c -0.51617,-1.8333 -1.6176,-15.6333 -2.44761,-30.6666 -1.87548,-33.9689 -4.50676,-57.7421 -6.46324,-58.3943 -0.81619,-0.272 -1.48397,-1.3446 -1.48397,-2.3835 0,-2.2988 -1.58712,-2.4351 -3.70414,-0.3181 -1.00396,1.004 -5.06964,1.418 -11.26666,1.1473 -13.6106,-0.5946 -36.4342,-0.3558 -53.69587,0.5618 -8.06667,0.4288 -23.36667,1.103 -34,1.4982 -10.63333,0.3952 -24.73333,0.9673 -31.33333,1.2713 -6.6,0.304 -21.3,0.8882 -32.66667,1.2983 -11.36667,0.4101 -23.66667,1.2586 -27.33333,1.8857 -3.66667,0.6271 -7.05215,0.9106 -7.5233,0.63 -2.2134,-1.3183 -49.22084,-0.1303 -51.53916,1.3025 -0.83392,0.5154 -10.68602,0.9726 -21.89356,1.0161 -18.40604,0.071 -48.17554,1.4956 -65.71065,3.1438 -3.66667,0.3446 -20.46667,0.972 -37.33333,1.3943 -37.18727,0.9308 -50.02124,1.5371 -70,3.3069 -29.03827,2.5723 -35.48352,1.9491 -58.33334,-5.6408 L 176,1103.6323 v -39.1495 -39.1495 l 9,-0.2568 c 4.95,-0.1413 12.3,-0.3851 16.33333,-0.5417 29.86892,-1.1599 209.4512,-4.8897 229.33334,-4.7631 29.51861,0.1879 60.08886,0.2671 64.66666,0.1674 2.93334,-0.064 21.23334,0.2666 40.66667,0.7341 19.43333,0.4676 46.43333,1.0781 60,1.3568 13.56667,0.2786 34.26667,0.8468 46,1.2625 25.09087,0.8889 21.48343,0.8475 34.45765,0.3955 5.75171,-0.2004 10.67975,-0.01 10.9512,0.4342 0.27146,0.4392 4.01715,0.6502 8.32378,0.4689 l 7.83022,-0.3297 1.56547,6.2026 c 2.21015,8.757 3.76132,22.69 5.44065,48.8693 0.7997,12.4667 2.09035,27.4667 2.86811,33.3334 1.5322,11.5575 1.18608,82.2133 -0.37559,76.6666 z M 1265.917,563.33333 c -8e-4,-19.8 0.1848,-28.08586 0.4123,-18.41305 0.2275,9.67283 0.2281,25.87283 0,36 -0.2268,10.12719 -0.4129,2.21305 -0.4136,-17.58695 z"
         id="path1995" />
      <path
         style="fill:#93f693;stroke-width:1.33333"
         d="m 833.33333,593.45896 c -1.1,-0.61964 -28.1,-10.47956 -60,-21.91092 -31.9,-11.43137 -59.94484,-21.53575 -62.32186,-22.45416 -4.47174,-1.72776 -6.90868,-5.69599 -12.41602,-20.21779 -1.43425,-3.78185 -3.05496,-7.56876 -3.60158,-8.41534 -0.54663,-0.84659 -18.69387,-7.93782 -40.3272,-15.75827 -76.3754,-27.60975 -83.4403,-30.19919 -84.96526,-31.14167 -0.8469,-0.52341 -3.34661,-6.33872 -5.5549,-12.9229 -2.2083,-6.58419 -5.09464,-12.69266 -6.41412,-13.5744 -1.31948,-0.88174 -23.94718,-9.40986 -50.28376,-18.95136 -26.33659,-9.54152 -48.46624,-17.92976 -49.17702,-18.64054 -0.71077,-0.71077 -2.26265,-6.24056 -3.44862,-12.28842 l -2.15632,-10.99612 -22,-8.18751 c -12.1,-4.50313 -30.00423,-11.136 -39.78718,-14.73969 -9.78294,-3.60371 -18.28124,-7.47536 -18.8851,-8.60368 -1.98842,-3.71539 -1.92654,-15.35458 0.0967,-18.17023 1.04996,-1.46127 6.00034,-5.85564 11.00086,-9.76528 8.2222,-6.42852 9.29002,-6.91024 11.16392,-5.03636 1.76985,1.76985 1.85473,3.30535 0.582,10.52721 -0.81955,4.65032 -1.04331,8.64855 -0.49726,8.88495 0.54606,0.23639 14.77732,5.63639 31.62503,12 l 30.63221,11.57019 1.42311,10.41616 c 0.87305,6.39004 2.17479,10.88668 3.3678,11.63348 1.06957,0.66953 9.44468,3.9591 18.61135,7.31018 9.16666,3.35107 29.24424,10.69359 44.61684,16.3167 15.3726,5.6231 28.87905,11.1527 30.01433,12.28798 1.13529,1.1353 3.16237,6.72251 4.50463,12.41603 2.31393,9.8152 2.69336,10.45799 7.31898,12.39932 2.6832,1.12611 27.97855,10.35596 56.21188,20.51079 73.30206,26.36492 66.23419,23.34402 68.10227,29.10785 2.92317,9.01928 10.38859,22.57673 12.82685,23.29401 2.39214,0.70372 94.80386,33.6807 130.40422,46.53454 10.26666,3.70686 19.19033,7.2259 19.83036,7.82005 1.53573,1.42567 -13.76078,19.96471 -16.42962,19.91236 -1.13708,-0.0223 -2.96741,-0.54752 -4.06741,-1.16716 z m 34,-32.12563 c 1.32732,-1.46666 2.71331,-2.66666 3.07998,-2.66666 0.36666,0 -0.41932,1.2 -1.74664,2.66666 C 867.33935,562.8 865.95336,564 865.58669,564 c -0.36666,0 0.41932,-1.2 1.74664,-2.66667 z m 24,-24 c 1.32732,-1.46666 2.71331,-2.66666 3.07998,-2.66666 0.36666,0 -0.41932,1.2 -1.74664,2.66666 C 891.33935,538.8 889.95336,540 889.58669,540 c -0.36666,0 0.41932,-1.2 1.74664,-2.66667 z m -390,-234.13674 L 466,291.83364 l -13.68552,2.69991 c -8.18645,1.61504 -14.82267,2.27925 -16.51553,1.65301 -2.35962,-0.87287 -0.97127,-1.84072 8.35217,-5.82257 22.12028,-9.44708 15.92045,-10.14711 68.00344,7.6784 25.215,8.62989 46.09544,15.90076 46.401,16.15749 0.30555,0.25673 -4.49445,0.44268 -10.66667,0.41321 -10.35965,-0.0495 -13.93804,-0.92694 -46.55556,-11.4165 z"
         id="path1993" />
      <path
         style="fill:#8bbed0;stroke-width:1.33333"
         d="m 725.79041,1280.6667 c 0.005,-5.8667 0.23926,-8.1008 0.52092,-4.9648 0.28166,3.1361 0.2777,7.9361 -0.009,10.6667 -0.28649,2.7306 -0.51695,0.1647 -0.51211,-5.7019 z M 713.07464,1264 c -0.50895,-1.8333 -1.58769,-14.7333 -2.39723,-28.6667 -1.7538,-30.1856 -3.64085,-49.1167 -5.47118,-54.8874 l -1.33871,-4.2207 -29.60043,0.5478 c -16.28024,0.3013 -31.40042,0.8784 -33.60042,1.2825 -2.2,0.4041 -14.38363,0.9923 -27.07474,1.3071 -12.6911,0.3148 -23.64434,0.9244 -24.34054,1.3547 -0.6962,0.4303 -8.01256,1.029 -16.2586,1.3306 -8.24603,0.3015 -21.59279,0.8738 -29.65946,1.2716 -8.06666,0.3979 -23.96666,1.0529 -35.33333,1.4557 -11.36667,0.4028 -24.26667,1.0095 -28.66667,1.3483 -18.33385,1.4116 -28.82449,1.8914 -43.33333,1.9818 l -15.33333,0.096 L 324,1154.8633 c -114.73719,-39.5697 -108.35927,-37.2641 -104,-37.5952 1.83333,-0.1392 6.65235,-0.1338 10.70892,0.012 4.05657,0.1458 14.55657,-0.3821 23.33333,-1.1731 20.47391,-1.8452 32.96231,-2.4441 70.62442,-3.3869 16.86666,-0.4222 33.66666,-1.0496 37.33333,-1.3943 17.53511,-1.6481 47.30461,-3.0724 65.71065,-3.1437 11.20754,-0.043 21.05964,-0.5007 21.89356,-1.0161 2.31832,-1.4328 49.32576,-2.6208 51.53916,-1.3026 0.47115,0.2806 3.85663,0 7.5233,-0.6299 3.66666,-0.6271 15.96666,-1.4757 27.33333,-1.8857 11.36667,-0.4101 26.06667,-0.9943 32.66667,-1.2983 6.6,-0.304 20.7,-0.8761 31.33333,-1.2713 10.63333,-0.3952 25.93333,-1.0694 34,-1.4982 17.26167,-0.9176 40.08527,-1.1564 53.69587,-0.5619 6.19702,0.2707 10.2627,-0.1433 11.26666,-1.1472 2.11702,-2.117 3.70414,-1.9808 3.70414,0.3181 0,1.0388 0.66778,2.1114 1.48397,2.3835 1.96288,0.6543 4.59725,24.5208 6.44555,58.3942 0.82029,15.0334 2.09908,29.4334 2.84177,32 0.81019,2.8 1.19267,19.067 0.95619,40.6667 -0.21679,19.8 -0.81056,34.5 -1.31951,32.6667 z M 1265.8842,622 c 0,-13.2 0.201,-18.41965 0.4435,-11.59923 0.2424,6.82043 0.2413,17.62043 0,24 -0.2439,6.37958 -0.4423,0.79923 -0.4409,-12.40077 z"
         id="path1991" />
      <path
         style="fill:#88bcce;stroke-width:1.33333"
         d="m 574,1241.7413 c -77,-26.5967 -143.3,-49.485 -147.33333,-50.863 l -7.33334,-2.5054 16,-0.1816 c 15.19183,-0.1724 25.94739,-0.6779 44,-2.0678 4.4,-0.3388 17.3,-0.9455 28.66667,-1.3483 11.36667,-0.4028 27.26667,-1.0578 35.33333,-1.4557 8.06667,-0.3978 21.41343,-0.9701 29.65946,-1.2716 8.24604,-0.3016 15.5624,-0.9003 16.2586,-1.3306 0.6962,-0.4303 11.64944,-1.0399 24.34054,-1.3547 12.69111,-0.3148 24.87474,-0.903 27.07474,-1.3071 2.2,-0.4041 17.32018,-0.9812 33.60042,-1.2825 l 29.60043,-0.5478 1.33871,4.2207 c 1.83804,5.795 3.72626,24.7984 5.45376,54.8874 0.79994,13.9334 2.06546,27.4334 2.81225,30 0.74679,2.5667 1.17103,9.1889 0.94277,14.7161 L 714,1290.0988 Z M 725.59327,935.33333 c 0.0272,-2.2 0.326,-2.93858 0.66405,-1.64129 0.33805,1.29729 0.31583,3.09729 -0.0495,4 -0.36524,0.90271 -0.64182,-0.15871 -0.61465,-2.35871 z m 540.36793,-206 c 0,-46.56666 0.1671,-65.61666 0.3715,-42.33333 0.2043,23.28333 0.2043,61.38333 0,84.66667 -0.2044,23.28333 -0.3715,4.23333 -0.3715,-42.33334 z"
         id="path1989" />
      <path
         style="fill:#afafaf;stroke-width:1.33333"
         d="m 314.66667,374.16325 c 0,-0.27686 1.05,-1.32686 2.33333,-2.33333 2.11475,-1.65849 2.16191,-1.61133 0.50341,0.50341 -1.74182,2.221 -2.83674,2.92731 -2.83674,1.82992 z"
         id="path1987" />
      <path
         style="fill:#8af38a;stroke-width:1.33333"
         d="M 506.5968,652.05829 C 476.20189,641.93972 440.83333,629.93064 428,625.37145 c -12.83333,-4.55917 -64.00715,-22.04124 -113.71959,-38.84902 -74.91378,-25.32838 -90.85321,-30.3097 -93.11418,-29.09966 -1.50038,0.80298 -3.02244,1.16547 -3.38236,0.80555 -1.68447,-1.68447 22.62852,-55.56165 25.07313,-55.56165 2.96301,0 225.76228,77.46366 233.14224,81.05974 4.86176,2.36903 5.36865,3.61738 7.52236,18.52568 1.63127,11.2919 3.88185,12.54687 56.81173,31.67938 C 566.55,643.40797 588,651.62487 588,652.1912 c 0,0.56635 -2.85,2.64161 -6.33333,4.61172 -9.27928,5.24815 -16.80464,10.16413 -18.4032,12.02199 -1.08092,1.25626 -14.09546,-2.5945 -56.66667,-16.76662 z M 817.33333,615.19845 C 814.76667,614.08167 795.26667,606.83824 774,599.10193 c -50.6706,-18.43276 -48.24407,-17.38492 -49.88781,-21.54285 -0.77386,-1.95749 -2.16567,-4.74919 -3.09292,-6.20375 -4.25644,-6.67697 -9.67639,-14.81076 -10.67624,-16.022 -0.60536,-0.73333 -1.83018,-2.39246 -2.72184,-3.68696 -0.94696,-1.3748 -14.65228,-7.07252 -32.95452,-13.70022 -67.29523,-24.3693 -76.67663,-27.95611 -78.87827,-30.15775 -1.25321,-1.25321 -3.87841,-7.60943 -5.83379,-14.12493 -3.21682,-10.71884 -3.95494,-12.0001 -7.75492,-13.46128 -2.30982,-0.88819 -23.39969,-8.56003 -46.86636,-17.04854 -60.53826,-21.89828 -54.55696,-18.69234 -57.88488,-31.02578 -1.52997,-5.6702 -2.78178,-11.0032 -2.78178,-11.8511 0,-2.26753 -4.72994,-4.38265 -31.64282,-14.14993 -45.30113,-16.4408 -56.97882,-20.97531 -57.91389,-22.48825 -0.51304,-0.83012 -1.34943,-5.95536 -1.85864,-11.38943 l -0.92584,-9.88013 -6.82941,-2.99247 c -3.75618,-1.64587 -9.9794,-4.02712 -13.8294,-5.29168 -3.85,-1.26455 -6.99971,-2.70097 -6.99935,-3.19204 6.8e-4,-0.92447 11.7374,-11.42141 16.58065,-14.82921 2.56571,-1.80527 2.62231,-1.77567 0.83588,0.43722 -2.04042,2.52755 -2.09893,14.4006 -0.0895,18.15534 0.60386,1.12832 9.10216,4.99997 18.8851,8.60368 9.78295,3.60369 27.68718,10.23656 39.78718,14.73969 l 22,8.18751 2.15632,10.99612 c 1.18597,6.04786 2.73785,11.57765 3.44862,12.28842 0.71078,0.71078 22.84043,9.09902 49.17702,18.64054 26.33658,9.5415 48.96428,18.06962 50.28376,18.95136 1.31948,0.88174 4.20582,6.99021 6.41412,13.5744 2.20829,6.58418 4.708,12.39949 5.5549,12.9229 1.52496,0.94248 8.58986,3.53192 84.96526,31.14167 21.63333,7.82045 39.78057,14.91168 40.3272,15.75827 0.54662,0.84658 2.16733,4.63349 3.60158,8.41534 5.50427,14.51371 7.94539,18.4902 12.41602,20.22523 2.37702,0.92252 25.2284,9.17185 50.78084,18.33185 54.5607,19.55886 76.03202,27.39046 76.67109,27.96552 0.4256,0.38298 -15.56877,22.00103 -16.18999,21.88246 -0.15037,-0.0287 -2.37341,-0.96592 -4.94008,-2.0827 z m 37.33334,-39.70186 c 0,-0.27687 1.05,-1.32687 2.33333,-2.33334 2.11475,-1.65849 2.16191,-1.61133 0.50341,0.50342 -1.74182,2.221 -2.83674,2.9273 -2.83674,1.82992 z m 26.66666,-27.9138 c 0,-0.22947 1.95,-2.17947 4.33334,-4.33334 L 890,539.33333 l -3.91612,4.33334 c -3.65037,4.03928 -4.75055,4.9462 -4.75055,3.91612 z"
         id="path1985" />
      <path
         style="fill:#83f283;stroke-width:1.33333"
         d="m 748,736.16169 c -3.3,-1.29776 -46.34589,-16.41505 -95.65755,-33.59396 -49.31165,-17.17892 -89.66165,-31.88334 -89.66666,-32.67652 -0.009,-1.42725 6.73248,-6.06217 18.99088,-13.0566 C 585.15,654.84708 588,652.75755 588,652.1912 c 0,-0.56633 -21.45,-8.78323 -47.66667,-18.25973 -52.89366,-19.11942 -55.13948,-20.37091 -56.84938,-31.67938 -0.46451,-3.07198 -1.20775,-7.86702 -1.65166,-10.65564 -0.49206,-3.09114 -1.91796,-5.78256 -3.65302,-6.89517 -3.3699,-2.16096 -138.46863,-49.49164 -229.75955,-80.49429 l -6.9136,-2.34788 6.63505,-12.26288 c 3.64928,-6.7446 7.2828,-12.2629 8.07448,-12.2629 0.79168,0 17.71703,5.6371 37.61188,12.52688 239.26643,82.86031 408.19834,140.80822 415.83914,142.64331 5.33057,1.28024 4.83332,-1.866 -2.52399,-15.96964 -3.40487,-6.52697 -6.10116,-13.44068 -5.99179,-15.3638 0.10934,-1.92312 -0.70481,-4.24659 -1.80934,-5.16325 -1.10452,-0.91668 -2.01808,-2.64322 -2.03015,-3.83675 -0.012,-1.19355 -1.47913,-4.57008 -3.26017,-7.50341 -1.78103,-2.93334 -4.1239,-7.24348 -5.20636,-9.57811 -2.48902,-5.3682 -3.72768,-5.97575 -37.46883,-18.37784 -34.09641,-12.53268 -34.92268,-12.94459 -36.02387,-17.95827 -0.47844,-2.1783 -1.89785,-5.33873 -3.15425,-7.02317 -1.2564,-1.68444 -3.46492,-5.33975 -4.90781,-8.12291 -5.37495,-10.36762 -6.09735,-10.76844 -44.62344,-24.75853 -20.16667,-7.32317 -40.05544,-14.61963 -44.19728,-16.21433 -8.23782,-3.17175 -7.47742,-1.83996 -12.00454,-21.02519 -0.91606,-3.88209 -2.2954,-7.57129 -3.06521,-8.19823 -0.7698,-0.62693 -17.89964,-7.15576 -38.06631,-14.5085 -56.87089,-20.73506 -51.2925,-18.07319 -53.08977,-25.33314 -0.84896,-3.42932 -1.93197,-8.81154 -2.40671,-11.96052 -0.65661,-4.35556 -1.69738,-6.15358 -4.34998,-7.51497 C 403.56909,393.10869 387.6,387.05792 370,380.64679 c -17.6,-6.41114 -32.2664,-11.8958 -32.59201,-12.18816 -0.32562,-0.29235 3.17642,-4.33379 7.78229,-8.98096 l 8.37431,-8.44942 11.75864,4.37167 c 17.78378,6.61173 16.88953,5.76629 17.9384,16.95917 0.50354,5.3736 1.33529,10.44938 1.84833,11.2795 0.93507,1.51294 12.61276,6.04745 57.91389,22.48825 26.91288,9.76728 31.64282,11.8824 31.64282,14.14993 0,0.8479 1.25181,6.1809 2.78178,11.8511 3.32792,12.33344 -2.65338,9.1275 57.88488,31.02578 23.46667,8.48851 44.55654,16.16035 46.86636,17.04854 3.79998,1.46118 4.5381,2.74244 7.75492,13.46128 1.95538,6.5155 4.58058,12.87172 5.83379,14.12493 2.20164,2.20164 11.58304,5.78845 78.87827,30.15775 18.30224,6.6277 32.00756,12.32542 32.95452,13.70022 0.89166,1.2945 2.11648,2.95363 2.72184,3.68696 0.99985,1.21124 6.4198,9.34503 10.67624,16.022 0.92725,1.45456 2.32746,4.27035 3.11158,6.2573 1.60904,4.07729 -0.86632,3.01352 50.53582,21.7175 18.7,6.80448 37.08454,13.6043 40.85456,15.11071 3.77001,1.50641 7.28173,2.32348 7.80384,1.81571 0.5221,-0.50776 -2.43994,4.00945 -6.58231,10.03826 -16.94393,24.66024 -41.37713,70.35019 -54.2004,101.35446 -2.88151,6.96696 -5.27363,10.96237 -6.54236,10.92729 -1.1,-0.0304 -4.7,-1.11712 -8,-2.41487 z"
         id="path1983" />
      <path
         style="fill:#83ee83;stroke-width:1.33333"
         d="M 692,746.04148 C 663.03333,736.24092 603.63333,716.21064 560,701.52975 L 480.66667,674.83721 472,675.99339 c -4.76667,0.63589 -19.8128,1.581 -33.43584,2.10024 -23.52972,0.89684 -25.23111,0.79266 -34,-2.08162 -7.31635,-2.39817 -160.46045,-54.86117 -196.098,-67.17784 L 200.26567,606 l 7.97836,-24.34329 c 4.3881,-13.38882 8.51593,-24.01107 9.17294,-23.60502 0.65703,0.40607 2.38318,0.10214 3.8359,-0.67529 2.14584,-1.14843 19.59606,4.31703 93.02754,29.13644 49.71244,16.80252 101.78626,34.57931 115.71959,39.50397 13.93333,4.92467 54.13333,18.7019 89.33333,30.61607 53.89164,18.24076 236.63303,81.78052 237.65759,82.63431 0.97247,0.81038 -9.47123,24.72153 -10.77213,24.66316 -0.85367,-0.0383 -25.25212,-8.0883 -54.21879,-17.88887 z M 873.33333,555.58279 c 0,-0.22947 1.95,-2.17947 4.33334,-4.33334 L 882,547.33333 l -3.91612,4.33334 c -3.65037,4.03928 -4.75055,4.9462 -4.75055,3.91612 z"
         id="path1981" />
      <path
         style="fill:#7aafc3;stroke-width:1.33333"
         d="m 175.31049,924 c 0,-81.76667 0.16018,-115.21667 0.35595,-74.33333 0.19577,40.88333 0.19577,107.78333 0,148.66666 -0.19577,40.88337 -0.35595,7.43337 -0.35595,-74.33333 z m 1090.66211,11.33333 c -10e-5,-67.46666 0.1621,-95.26201 0.3603,-61.76745 0.1983,33.49457 0.1984,88.69457 2e-4,122.66667 -0.1982,33.97215 -0.3605,6.56745 -0.3605,-60.89922 z"
         id="path1979" />
      <path
         style="fill:#7bf47b;stroke-width:1.33333"
         d="M 654.54608,614.15885 C 607.02651,598.04521 443.46869,541.68632 294.4942,490.09187 c -20.26152,-7.0172 -37.4986,-12.75854 -38.30463,-12.75854 -1.35577,0 8.93728,-18.53877 12.41196,-22.35512 1.2229,-1.34316 15.15711,2.97574 68.13455,21.11822 C 413.23536,502.29411 501.38272,532 502.62079,532 c 1.37912,0 4.04588,-8.53708 4.04588,-12.95201 0,-2.41092 -0.8228,-4.41176 -2,-4.8635 -1.1,-0.4221 -2,-2.3142 -2,-4.20466 0,-2.36544 -1.164,-4.10523 -3.73304,-5.57966 -2.7868,-1.59941 -4.13015,-3.81417 -5.29967,-8.73761 -0.86165,-3.62733 -3.31095,-10.28531 -5.44289,-14.79552 l -3.87626,-8.20037 -31.41361,-11.81731 -31.41363,-11.81731 -0.83634,-7.51602 c -0.45999,-4.13382 -1.25106,-9.85226 -1.75794,-12.70766 l -0.92158,-5.19162 -14.65252,-5.58844 c -8.05888,-3.07364 -24.04502,-9.02922 -35.52474,-13.23462 -11.47972,-4.20538 -21.82942,-8.35436 -22.99936,-9.21993 -1.39417,-1.03148 -2.58701,-5.24921 -3.46176,-12.24043 -0.83041,-6.63686 -2.08997,-11.22592 -3.33397,-12.14698 -2.847,-2.10792 -2.50316,-3.61071 1.66731,-7.28727 l 3.66666,-3.23241 -3.22748,3.66141 c -1.77512,2.01377 -2.97512,3.88656 -2.66666,4.16175 0.30845,0.2752 14.96081,5.74582 32.56081,12.15696 17.6,6.41113 33.56909,12.4619 35.48687,13.44617 2.6526,1.36139 3.69337,3.15941 4.34998,7.51497 0.47474,3.14898 1.55775,8.5312 2.40671,11.96052 1.79727,7.25995 -3.78112,4.59808 53.08977,25.33314 20.16667,7.35274 37.29651,13.88157 38.06631,14.5085 0.76981,0.62694 2.14915,4.31614 3.06521,8.19823 4.52712,19.18523 3.76672,17.85344 12.00454,21.02519 4.14184,1.5947 24.03061,8.89116 44.19728,16.21433 38.52609,13.99009 39.24849,14.39091 44.62344,24.75853 1.44289,2.78316 3.65141,6.43847 4.90781,8.12291 1.2564,1.68444 2.67581,4.84487 3.15425,7.02317 1.10119,5.01368 1.92746,5.42559 36.02387,17.95827 33.74115,12.40209 34.97981,13.00964 37.46883,18.37784 1.08246,2.33463 3.42533,6.64477 5.20636,9.57811 1.78104,2.93333 3.2481,6.30986 3.26017,7.50341 0.012,1.19353 0.92563,2.92007 2.03015,3.83675 1.10453,0.91666 1.91873,3.24013 1.80934,5.16325 -0.10933,1.92312 2.58692,8.83683 5.99179,15.3638 5.8824,11.27631 7.54928,16.79945 5.07007,16.79945 -0.61634,0 -26.56634,-8.62852 -57.66667,-19.17448 z"
         id="path1977" />
      <path
         style="fill:#7ced7c;stroke-width:1.33333"
         d="m 734,790.39085 c -2.2,-0.76924 -50.2,-17.16773 -106.66667,-36.44109 -93.21874,-31.81769 -222.53192,-76.1728 -371.63792,-127.4738 -30.60085,-10.52844 -55.18845,-19.29676 -54.6391,-19.48515 0.54934,-0.18838 24.68641,7.82515 53.63792,17.80786 28.9515,9.9827 76.3391,26.24637 105.30577,36.14149 L 412.66667,678.93128 438,678.04537 c 13.93333,-0.48724 29.23333,-1.40841 34,-2.04702 l 8.66667,-1.16114 L 560,701.52944 c 43.63333,14.68072 103.22909,34.74235 132.43503,44.58139 C 721.64096,755.94987 745.99927,764 746.56461,764 c 0.56534,0 1.73814,-1.35 2.60622,-3 1.11265,-2.11489 1.29832,-2.21324 0.62926,-0.33333 -0.52198,1.46666 -3.09054,9.09754 -5.7079,16.95752 -2.61738,7.85996 -5.05886,14.26258 -5.42552,14.22806 C 738.3,791.81772 736.2,791.16009 734,790.39085 Z"
         id="path1975" />
      <path
         style="fill:#73f473;stroke-width:1.33333"
         d="m 484.66667,526.39235 c -8.8,-2.96842 -60.62742,-20.60862 -115.17204,-39.20044 -54.54462,-18.59182 -99.84462,-33.4126 -100.66667,-32.93508 -0.82204,0.47752 -0.50257,-0.28491 0.70993,-1.69431 1.21251,-1.40939 5.1487,-6.85416 8.7471,-12.09949 l 6.54256,-9.53698 27.91956,9.22976 c 52.33077,17.29975 65.16682,21.05878 66.22586,19.39422 1.55698,-2.44715 1.15288,-11.65783 -0.7992,-18.2167 l -1.78574,-6 -16.48672,-6.66666 L 343.41459,422 343.18224,410.66667 c -0.12773,-6.23334 -0.29608,-11.73972 -0.37396,-12.23642 -0.0779,-0.4967 -5.09161,-2.79913 -11.14161,-5.1165 -6.05,-2.31739 -11.51963,-4.71063 -12.15472,-5.31831 -0.63508,-0.60768 2.70462,-5.21408 7.4216,-10.23644 7.94001,-8.45407 8.74328,-8.97305 10.82666,-6.99509 1.44388,1.37082 2.72652,5.91725 3.57906,12.68629 0.8674,6.88711 2.06718,11.09617 3.45582,12.12356 1.16994,0.86557 11.51964,5.01455 22.99936,9.21993 11.47972,4.2054 27.46586,10.16098 35.52474,13.23462 l 14.65252,5.58844 0.92158,5.19162 c 0.50688,2.8554 1.29795,8.57384 1.75794,12.70766 l 0.83634,7.51602 31.41363,11.81731 31.41361,11.81731 3.87626,8.20037 c 2.13194,4.51021 4.58124,11.16819 5.44289,14.79552 1.16952,4.92344 2.51287,7.1382 5.29967,8.73761 2.56904,1.47443 3.73304,3.21422 3.73304,5.57966 0,1.89046 0.9,3.78256 2,4.20466 3.57448,1.37167 1.13348,17.99128 -2.60119,17.71024 -0.76935,-0.0579 -8.59881,-2.53397 -17.39881,-5.50238 z m -138,-169.72568 C 349.15437,354.1 351.48977,352 351.85644,352 c 0.36667,0 -1.36873,2.1 -3.85644,4.66667 -2.48771,2.56666 -4.82311,4.66666 -5.18977,4.66666 -0.36667,0 1.36873,-2.1 3.85644,-4.66666 z"
         id="path1973" />
      <path
         style="fill:#74eb74;stroke-width:1.33333"
         d="m 659.68095,794.27303 c -7.4527,-2.27728 -43.49942,-14.50291 -151.01428,-51.2181 C 413.19804,710.4534 194.23528,634.67972 193.5684,634.01285 c -1.21585,-1.21585 5.49783,-26.01277 7.04308,-26.01356 1.21544,-6.2e-4 82.40475,27.77851 306.05519,104.71759 33.36666,11.47863 98.46666,33.72325 144.66666,49.43251 81.69102,27.77717 94.71084,32.42568 84.66667,30.22881 -7.07768,-1.54803 -23.71185,-0.86575 -46.98572,1.92721 -20.63319,2.47606 -21.12593,2.47552 -29.33333,-0.0324 z"
         id="path1971" />
      <path
         style="fill:#70a5ba;stroke-width:1.33333"
         d="m 715.29395,1045.3333 c 0,-45.8333 0.1674,-64.5833 0.37201,-41.6666 0.20461,22.9166 0.20461,60.4166 0,83.3333 -0.20461,22.9167 -0.37201,4.1667 -0.37201,-41.6667 z M 175.18048,1088 c 0,-9.1667 0.21303,-12.9167 0.47339,-8.3333 0.26036,4.5833 0.26036,12.0833 0,16.6666 -0.26036,4.5834 -0.47339,0.8334 -0.47339,-8.3333 z m 1090.70372,-7.3333 c 0,-13.2 0.201,-18.4197 0.4435,-11.5993 0.2424,6.8205 0.2413,17.6205 0,24 -0.2439,6.3796 -0.4423,0.7993 -0.4409,-12.4007 z"
         id="path1969" />
      <path
         style="fill:#6df46d;stroke-width:1.33333"
         d="m 697.39999,807.97075 c -28.833,-9.87502 -33.04155,-11.63995 -28,-11.74228 3.26333,-0.0663 13.73334,-1.0576 23.26668,-2.20304 30.45488,-3.65919 33.59249,-3.81942 39.9477,-2.04007 3.32876,0.932 6.0523,1.94905 6.0523,2.26013 0,0.795 -6.84414,25.05928 -7.113,25.21748 -0.1212,0.0713 -15.49035,-5.1002 -34.15368,-11.49222 z M 359.32673,455.24283 c -10.26304,-3.22148 -31.24164,-10.01647 -46.6191,-15.09996 l -27.95906,-9.24274 -5.7357,8.54994 c -3.15464,4.70246 -6.0519,8.54993 -6.43834,8.54993 -1.65914,0 21.34355,-31.61992 35.88875,-49.33333 11.85604,-14.43851 11.82013,-14.39988 11.29863,-12.15604 -0.28332,1.21901 3.3482,3.33889 10.71525,6.25493 6.12911,2.42604 11.48803,4.75519 11.90872,5.17588 0.42071,0.42069 0.83128,6.00597 0.9124,12.41173 L 343.44579,422 l 16.47112,6.66667 16.47112,6.66666 1.78574,6 c 1.95208,6.55887 2.35618,15.76955 0.7992,18.2167 -0.70978,1.1156 -6.21601,-0.0916 -19.64624,-4.3072 z m -28.66006,-82.57616 c 1.72233,-1.83334 3.4315,-3.33334 3.79817,-3.33334 0.36667,0 -0.74251,1.5 -2.46484,3.33334 C 330.27767,374.5 328.56849,376 328.20183,376 c -0.36667,0 0.7425,-1.5 2.46484,-3.33333 z"
         id="path1967" />
      <path
         style="fill:#65e965;stroke-width:1.33333"
         d="m 715.33333,843.95032 c -3.66666,-1.41639 -45.96666,-16.03133 -94,-32.47765 C 449.73965,752.72 188.64877,662.40781 187.64663,661.45901 c -0.56102,-0.53116 0.3869,-7.52673 2.10649,-15.54572 1.71957,-8.01897 3.37859,-13.83922 3.68669,-12.93389 0.30811,0.90533 22.46019,9.21515 49.22686,18.46624 109.14329,37.72213 364.75396,125.68215 424,145.90568 34.83333,11.89029 63.74518,22.00047 64.24857,22.46704 1.66071,1.53925 -4.80216,26.13259 -6.94608,26.43211 -1.08304,0.1513 -4.96916,-0.88376 -8.63583,-2.30015 z M 324,379.49659 c 0,-0.27687 1.05,-1.32687 2.33333,-2.33334 2.11475,-1.65849 2.16191,-1.61133 0.50342,0.50342 -1.74183,2.221 -2.83675,2.9273 -2.83675,1.82992 z"
         id="path1965" />
      <path
         style="fill:#659ab0;stroke-width:1.33333"
         d="m 715.29335,1209.3333 c 0,-45.1 0.16766,-63.55 0.3726,-41 0.20492,22.55 0.20492,59.45 0,82 -0.20494,22.55 -0.3726,4.1 -0.3726,-41 z"
         id="path1963" />
      <path
         style="fill:#53e653;stroke-width:1.33333"
         d="M 668.66667,857.10664 C 501.6656,799.68316 182.31576,689.42103 182.00212,689.07565 c -0.20427,-0.22494 0.65428,-6.40898 1.90788,-13.74232 1.72657,-10.10018 2.74129,-13.22946 4.18464,-12.905 1.04795,0.23559 79.30536,27.1401 173.90536,59.78779 177.34485,61.20404 282.46572,97.3752 333.07848,114.60939 15.99317,5.44584 29.70745,9.51281 30.47619,9.0377 0.88506,-0.547 1.09048,0.10414 0.56008,1.77527 -0.82992,2.61484 -4.77608,24.10444 -4.77959,26.02819 -10e-4,0.55 -0.45183,0.96889 -1.00183,0.93088 -0.55,-0.038 -23.8,-7.90894 -51.66666,-17.49091 z M 320,383.49659 c 0,-0.27687 1.05,-1.32687 2.33333,-2.33334 2.11475,-1.65849 2.16191,-1.61133 0.50342,0.50342 -1.74183,2.221 -2.83675,2.9273 -2.83675,1.82992 z"
         id="path1961" />
      <path
         style="fill:#5a8ea4;stroke-width:1.33333"
         d="M 885.33333,556.66667 C 887.82104,554.1 890.15644,552 890.52311,552 c 0.36666,0 -1.36874,2.1 -3.85644,4.66667 -2.48771,2.56666 -4.82311,4.66666 -5.18978,4.66666 -0.36666,0 1.36874,-2.1 3.85644,-4.66666 z"
         id="path1959" />
      <path
         style="fill:#4cd44c;stroke-width:1.33333"
         d="m 868,562.16325 c 0,-0.27686 1.05,-1.32686 2.33333,-2.33333 2.11475,-1.65849 2.16191,-1.61133 0.50342,0.50341 -1.74183,2.221 -2.83675,2.92731 -2.83675,1.82992 z m 24,-24 c 0,-0.27686 1.05,-1.32686 2.33333,-2.33333 2.11475,-1.65849 2.16191,-1.61133 0.50342,0.50341 -1.74183,2.221 -2.83675,2.92731 -2.83675,1.82992 z"
         id="path1957" />
      <path
         style="fill:#44e344;stroke-width:1.33333"
         d="M 712,900.58557 C 709.43333,899.58912 645.23333,877.40755 569.33333,851.29317 334.29811,770.42628 179.35264,716.97171 178.89632,716.59645 c -0.44141,-0.36298 2.43279,-26.33553 2.97708,-26.90221 0.16152,-0.16817 71.65609,24.31941 158.87681,54.41684 87.22072,30.09744 208.38219,71.83411 269.24772,92.74815 60.86554,20.91405 110.73871,38.12646 110.82928,38.24982 0.2581,0.35155 -3.48894,26.66664 -3.84388,26.99516 -0.17417,0.1612 -2.41666,-0.52218 -4.98333,-1.51864 z m 12.10527,-45.36334 c 0.064,-1.55327 0.37992,-1.8692 0.80554,-0.80556 0.38516,0.96249 0.3378,2.1125 -0.1052,2.55556 -0.44305,0.44305 -0.75818,-0.34446 -0.70029,-1.75 z M 332,370.24945 c 0,-0.22946 1.95,-2.17946 4.33333,-4.33333 L 340.66667,362 l -3.91612,4.33333 C 333.10017,370.37261 332,371.27953 332,370.24945 Z"
         id="path1955" />
      <path
         style="fill:#3ae03a;stroke-width:1.33333"
         d="m 696.25,896.42252 c -7.56251,-2.58516 -13.51701,-4.93329 -13.23224,-5.21805 0.56496,-0.56496 27.62203,8.32421 28.73983,9.44201 1.30694,1.30695 -1.81667,0.45613 -15.50759,-4.22396 z m 22.52193,-7.86696 c 0.064,-1.55327 0.37992,-1.8692 0.80555,-0.80556 0.38516,0.96249 0.3378,2.11251 -0.1052,2.55556 -0.44305,0.44305 -0.75819,-0.34445 -0.70029,-1.75 z m -67.1886,-7.46637 c -6.4625,-2.2185 -11.51566,-4.26796 -11.22926,-4.55436 0.56509,-0.56511 23.62585,7.00065 24.7428,8.1176 1.27246,1.27245 -1.74411,0.47705 -13.51354,-3.56324 z m -40.66666,-14 c -7.56251,-2.58516 -13.51702,-4.9333 -13.23224,-5.21806 0.56496,-0.56496 27.62202,8.32422 28.73982,9.44202 1.30695,1.30694 -1.81666,0.45613 -15.50758,-4.22396 z m -40.66667,-14 c -8.66251,-2.95183 -15.518,-5.59896 -15.23445,-5.88251 0.56481,-0.56481 31.61906,9.65016 32.73761,10.76871 1.33429,1.33429 -1.88883,0.43452 -17.50316,-4.8862 z m -38.66667,-13.33334 c -10.86249,-3.68516 -19.5194,-6.93089 -19.23756,-7.21273 0.56458,-0.56457 39.61483,12.30636 40.73454,13.42608 1.37502,1.37503 -2.03131,0.39048 -21.49698,-6.21335 z M 488,824.69951 C 416.90413,800.29176 380.32975,787.8988 378,787.42683 c -6.71008,-1.35938 -18.30408,-4.76882 -22.28471,-6.55326 -2.41008,-1.0804 -8.77832,-2.91277 -14.15164,-4.07196 -5.37333,-1.15918 -11.67333,-2.93162 -14,-3.93877 -2.32668,-1.00713 -9.93032,-3.21872 -16.89698,-4.91463 C 303.7,766.25229 297.1,764.42127 296,763.87924 c -1.1,-0.54201 -6.2,-1.98544 -11.33333,-3.2076 -5.13334,-1.22216 -10.53334,-2.76489 -12,-3.42828 C 271.2,756.57996 266.4,755.41705 262,754.65912 c -4.4,-0.75793 -8.9,-1.5414 -10,-1.74104 -2.59343,-0.47065 -17.21625,-4.93823 -20.66667,-6.31408 -1.46666,-0.58483 -5.06666,-1.40775 -8,-1.82871 -8.4796,-1.21688 -12.67536,-2.09265 -23.25112,-4.85317 -5.45477,-1.42384 -11.45477,-2.59697 -13.33333,-2.60699 -8.76801,-0.0468 -9.36196,-0.77726 -8.49963,-10.45413 0.4343,-4.87355 0.96623,-9.07135 1.18208,-9.32845 0.40818,-0.48616 330.14604,112.95732 331.12423,113.92045 1.25992,1.24053 -2.88679,-10e-4 -22.55556,-6.75349 z"
         id="path1953" />
      <path
         style="fill:#38de38;stroke-width:1.33333"
         d="m 710.52821,927.99981 c -1.17616,-0.68614 -36.27616,-12.90813 -78,-27.15997 C 590.80436,886.588 493.96667,853.32856 417.33333,826.92997 340.7,800.5314 255.8,771.30323 228.66667,761.97848 c -27.13334,-9.32475 -49.9994,-17.48837 -50.81348,-18.14141 -0.8141,-0.65303 -1.19807,-2.663 -0.8533,-4.46659 0.58455,-3.05783 1.04462,-3.22956 6.8135,-2.54343 3.40264,0.40471 10.68661,1.8473 16.18661,3.20576 10.96911,2.7093 15.30164,3.58988 23.33333,4.74248 2.93334,0.42096 6.53334,1.24388 8,1.82871 3.45042,1.37585 18.07324,5.84343 20.66667,6.31408 1.1,0.19964 5.6,0.98311 10,1.74104 4.4,0.75793 9.2,1.92084 10.66667,2.58424 1.46666,0.66339 6.86666,2.20612 12,3.42828 5.13333,1.22216 10.23333,2.66559 11.33333,3.2076 1.1,0.54203 7.7,2.37305 14.66667,4.06897 6.96666,1.69591 14.5703,3.9075 16.89698,4.91463 2.32667,1.00715 8.62667,2.77959 14,3.93877 5.37332,1.15919 11.74156,2.99156 14.15164,4.07196 3.99895,1.79266 15.6987,5.22947 22.28471,6.54615 1.46667,0.29321 19.46667,6.26301 40,13.26623 62.39779,21.28172 298.64147,102.40086 299.03604,102.6802 1.01904,0.7214 -1.89031,25.14121 -3.03604,25.48321 -0.73333,0.21891 -2.29564,-0.16339 -3.47179,-0.84955 z M 177.64267,726.66667 c 0,-2.56667 0.2744,-3.61667 0.60977,-2.33334 0.33536,1.28334 0.33536,3.38334 0,4.66667 -0.33537,1.28333 -0.60977,0.23333 -0.60977,-2.33333 z m 165.69066,-368 C 344.66065,357.2 346.04664,356 346.41331,356 c 0.36666,0 -0.41932,1.2 -1.74664,2.66667 -1.32732,1.46666 -2.71331,2.66666 -3.07998,2.66666 -0.36666,0 0.41932,-1.2 1.74664,-2.66666 z"
         id="path1951" />
      <path
         style="fill:#6e6e6e;stroke-width:1.33333"
         d="m 165.4386,741.88889 c 0.064,-1.55326 0.37992,-1.8692 0.80555,-0.80556 0.38516,0.9625 0.3378,2.11251 -0.1052,2.55556 -0.44307,0.44306 -0.75819,-0.34445 -0.7003,-1.75 z M 338,350.66667 c 2.86432,-2.93334 5.50787,-5.33334 5.87453,-5.33334 0.36667,0 -1.67688,2.4 -4.5412,5.33334 C 336.46901,353.6 333.82547,356 333.4588,356 c -0.36667,0 1.67688,-2.4 4.5412,-5.33333 z"
         id="path1949" />
      <path
         style="fill:#45758b;stroke-width:1.33333"
         d="m 724.58093,992.66667 c 7.6e-4,-19.06667 0.18803,-26.68126 0.41615,-16.9213 0.22811,9.75995 0.22749,25.35993 -10e-4,34.66663 -0.22894,9.3067 -0.41558,1.3213 -0.41482,-17.74533 z m 168.7524,-444 c 1.72234,-1.83334 3.43151,-3.33334 3.79818,-3.33334 0.36666,0 -0.74251,1.5 -2.46484,3.33334 C 892.94433,550.5 891.23516,552 890.86849,552 c -0.36666,0 0.74251,-1.5 2.46484,-3.33333 z"
         id="path1947" />
      <path
         style="fill:#32dc32;stroke-width:1.33333"
         d="m 709.33333,929.22884 c -2.41148,-1.54456 -116.88628,-40.43092 -126.92906,-43.11699 -3.88902,-1.04017 -10.97094,-3.0888 -15.7376,-4.5525 -8.06962,-2.47795 -16.20622,-4.52303 -19.33334,-4.85928 -2.3914,-0.25715 -13.13348,-3.47338 -22.66666,-6.7865 -5.13334,-1.78401 -11.13334,-3.31737 -13.33334,-3.40748 -4.24328,-0.17377 -20.85338,-4.50957 -25.33333,-6.61285 -1.46667,-0.68857 -8.06667,-2.46948 -14.66667,-3.95756 -6.6,-1.48808 -15.3,-3.54435 -19.33333,-4.56947 -4.03333,-1.02513 -10.03333,-2.51262 -13.33333,-3.30554 -3.3,-0.79292 -7.2,-1.98255 -8.66667,-2.64362 -1.46667,-0.66105 -7.46667,-2.18948 -13.33333,-3.39649 -5.86667,-1.20703 -13.96667,-3.06553 -18,-4.13001 -4.03334,-1.0645 -10.93334,-2.78836 -15.33334,-3.8308 -12.64468,-2.99576 -32.28893,-9.17703 -64.71066,-20.36186 C 302.09847,807.99739 263.25152,794.63333 232.29611,784 l -56.28256,-19.33333 -0.007,-10.89782 -0.007,-10.8978 3.66667,1.78766 c 3.35504,1.63572 52.75359,18.69497 361,124.66746 57.2,19.66487 119,40.95219 137.33333,47.30516 18.33334,6.35296 34.38334,11.63843 35.66667,11.74547 1.28333,0.10707 2.33333,0.66605 2.33333,1.24225 0,1.42843 -4.21221,1.18188 -6.66666,-0.39021 z m 6.77194,-15.33995 c 0.064,-1.55326 0.37992,-1.8692 0.80554,-0.80556 0.38516,0.9625 0.3378,2.11251 -0.1052,2.55556 -0.44305,0.44306 -0.75818,-0.34445 -0.70029,-1.75 z m -540,-174.66666 c 0.064,-1.55327 0.37992,-1.8692 0.80554,-0.80556 0.38516,0.96249 0.3378,2.1125 -0.1052,2.55556 -0.44306,0.44305 -0.75818,-0.34446 -0.70029,-1.75 z"
         id="path1945" />
      <path
         style="fill:#2ed82e;stroke-width:1.33333"
         d="M 522.99825,885.69419 C 417.94729,849.31985 332.25589,819.29965 332.57292,818.98263 c 0.31703,-0.31702 4.0392,0.7192 8.27151,2.3027 9.40485,3.5188 31.64372,10.20499 42.4889,12.77442 4.4,1.04244 11.3,2.7663 15.33334,3.8308 4.03333,1.06448 12.13333,2.92298 18,4.13001 5.86666,1.20701 11.86666,2.73544 13.33333,3.39649 1.46667,0.66107 5.36667,1.8507 8.66667,2.64362 3.3,0.79292 9.3,2.28041 13.33333,3.30554 4.03333,1.02512 12.73333,3.08139 19.33333,4.56947 6.6,1.48808 13.2,3.26899 14.66667,3.95756 4.47995,2.10328 21.09005,6.43908 25.33333,6.61285 2.2,0.0901 8.2,1.62347 13.33334,3.40748 9.53318,3.31312 20.27526,6.52935 22.66666,6.7865 3.12712,0.33625 11.26372,2.38133 19.33334,4.85928 4.76666,1.4637 11.84858,3.51233 15.7376,4.5525 9.78962,2.61836 124.39077,41.52308 127.2443,43.19682 1.27339,0.7469 3.22339,1.358 4.33334,1.358 1.63373,0 2.01809,2.03157 2.01809,10.66666 0,5.86667 -0.45,10.62827 -1,10.58134 -0.55,-0.0469 -86.95079,-29.84615 -192.00175,-66.22048 z M 716.30933,920 c 0,-2.56667 0.2744,-3.61667 0.60978,-2.33333 0.33536,1.28333 0.33536,3.38333 0,4.66666 -0.33538,1.28334 -0.60978,0.23334 -0.60978,-2.33333 z m 1.12927,-15.44444 c 0.064,-1.55327 0.37992,-1.8692 0.80555,-0.80556 0.38516,0.96249 0.3378,2.11251 -0.1052,2.55556 -0.44306,0.44305 -0.75819,-0.34445 -0.7003,-1.75 z m 1.33333,-10.66667 c 0.064,-1.55326 0.37992,-1.8692 0.80555,-0.80556 0.38516,0.9625 0.3378,2.11251 -0.1052,2.55556 -0.44305,0.44306 -0.75819,-0.34445 -0.70029,-1.75 z m 1.33334,-10.66666 c 0.064,-1.55327 0.37992,-1.8692 0.80554,-0.80556 0.38516,0.96249 0.3378,2.1125 -0.1052,2.55556 -0.44305,0.44305 -0.75818,-0.34446 -0.70029,-1.75 z m -409.1886,-70.79971 c -9.76251,-3.31849 -17.51879,-6.26485 -17.23619,-6.54745 0.56469,-0.56468 35.61673,10.9777 36.73591,12.09688 1.35656,1.35654 -1.96039,0.41258 -19.49972,-5.54943 z M 272.25,799.08919 c -7.56251,-2.58516 -13.51701,-4.9333 -13.23224,-5.21806 0.56496,-0.56496 27.62203,8.32422 28.73983,9.44202 1.30694,1.30694 -1.81667,0.45613 -15.50759,-4.22396 z m -38.66667,-13.33334 c -5.36249,-1.85182 -9.51378,-3.60317 -9.22509,-3.89186 0.5652,-0.56522 19.63107,5.68088 20.74704,6.79685 1.22755,1.22755 -1.67189,0.49652 -11.52195,-2.90499 z m -36.66666,-12.66666 c -4.26251,-1.48516 -7.51667,-2.93363 -7.23148,-3.21882 0.6063,-0.6063 16.98148,4.77964 16.98148,5.58536 0,0.8698 -1.5212,0.50056 -9.75,-2.36654 z m -20.60734,-39.75586 c 0,-2.56666 0.2744,-3.61666 0.60978,-2.33333 0.33536,1.28333 0.33536,3.38333 0,4.66667 -0.33538,1.28333 -0.60978,0.23333 -0.60978,-2.33334 z M 177.64267,716 c 0,-2.56667 0.2744,-3.61667 0.60977,-2.33333 0.33536,1.28333 0.33536,3.38333 0,4.66666 -0.33537,1.28334 -0.60977,0.23334 -0.60977,-2.33333 z m 1.12926,-12.77777 c 0.064,-1.55327 0.37992,-1.8692 0.80555,-0.80556 0.38516,0.96249 0.3378,2.1125 -0.1052,2.55556 -0.44307,0.44305 -0.75819,-0.34446 -0.70029,-1.75 z m 1.33334,-10.66667 c 0.064,-1.55327 0.37992,-1.8692 0.80554,-0.80556 0.38516,0.96249 0.3378,2.11251 -0.1052,2.55556 -0.44306,0.44305 -0.75818,-0.34445 -0.70029,-1.75 z M 888,542.16325 c 0,-0.27686 1.05,-1.32686 2.33333,-2.33333 2.11475,-1.65849 2.16191,-1.61133 0.50342,0.50341 -1.74183,2.221 -2.83675,2.92731 -2.83675,1.82992 z M 348.66667,353.33333 c 1.32732,-1.46666 2.7133,-2.66666 3.07997,-2.66666 0.36667,0 -0.41932,1.2 -1.74664,2.66666 C 348.67268,354.8 347.28669,356 346.92003,356 c -0.36667,0 0.41932,-1.2 1.74664,-2.66667 z"
         id="path1943" />
      <path
         style="fill:#3d6b82;stroke-width:1.33333"
         d="m 724.63048,1117.3333 c 0,-50.2333 0.16603,-70.7833 0.36893,-45.6666 0.20291,25.1166 0.20291,66.2166 0,91.3333 -0.2029,25.1167 -0.36893,4.5667 -0.36893,-45.6667 z"
         id="path1941" />
      <path
         style="fill:#38657b;stroke-width:1.33333"
         d="m 724.59388,1249.3333 c 0,-23.1 0.18161,-32.55 0.40359,-21 0.22197,11.55 0.22197,30.45 0,42 -0.22198,11.55 -0.40359,2.1 -0.40359,-21 z"
         id="path1939" />
      <path
         style="fill:#2e566a;stroke-width:1.33333"
         d="m 724.10527,951.22223 c 0.064,-1.55327 0.37992,-1.8692 0.80554,-0.80556 0.38516,0.96249 0.3378,2.1125 -0.1052,2.55556 -0.44305,0.44305 -0.75818,-0.34446 -0.70029,-1.75 z"
         id="path1937" />
      <path
         style="fill:#4e4e4e;stroke-width:1.33333"
         d="m 165.66957,748.66667 c 0.0148,-2.93334 0.28786,-3.97634 0.60678,-2.31779 0.31892,1.65855 0.30681,4.05855 -0.0269,5.33333 -0.33372,1.27479 -0.59466,-0.0823 -0.57986,-3.01554 z M 309.33333,380.82992 c 0,-0.27687 1.05,-1.32687 2.33334,-2.33333 2.11474,-1.6585 2.1619,-1.61134 0.50341,0.50341 -1.74183,2.221 -2.83675,2.92731 -2.83675,1.82992 z M 328,360.66667 C 330.48771,358.1 332.82311,356 333.18977,356 c 0.36667,0 -1.36873,2.1 -3.85644,4.66667 -2.4877,2.56666 -4.8231,4.66666 -5.18977,4.66666 -0.36667,0 1.36873,-2.1 3.85644,-4.66666 z"
         id="path1935" />
      <path
         style="fill:#1da31d;stroke-width:1.33333"
         d="m 716.30933,928 c 0,-2.56667 0.2744,-3.61667 0.60978,-2.33333 0.33536,1.28333 0.33536,3.38333 0,4.66666 -0.33538,1.28334 -0.60978,0.23334 -0.60978,-2.33333 z m 1.33334,-17.33333 c 0,-2.56667 0.2744,-3.61667 0.60977,-2.33334 0.33536,1.28334 0.33536,3.38334 0,4.66667 -0.33537,1.28333 -0.60977,0.23333 -0.60977,-2.33333 z m 1.12926,-12.77778 c 0.064,-1.55326 0.37992,-1.8692 0.80555,-0.80556 0.38516,0.9625 0.3378,2.11251 -0.1052,2.55556 -0.44305,0.44306 -0.75819,-0.34445 -0.70029,-1.75 z m 1.33334,-10.66666 c 0.064,-1.55327 0.37992,-1.8692 0.80554,-0.80556 0.38516,0.96249 0.3378,2.1125 -0.1052,2.55556 -0.44305,0.44305 -0.75818,-0.34446 -0.70029,-1.75 z M 175.13995,751.33333 c -0.004,-6.6 0.2214,-9.4681 0.50102,-6.37356 0.27963,3.09454 0.28296,8.49454 0.008,12 -0.27556,3.50546 -0.50436,0.97356 -0.50841,-5.62644 z M 176.25993,726 c 0.0272,-2.2 0.326,-2.93859 0.66406,-1.64129 0.33805,1.29729 0.31582,3.09729 -0.0495,4 -0.36524,0.9027 -0.64183,-0.15871 -0.61465,-2.35871 z m 1.17867,-16.11111 c 0.064,-1.55326 0.37992,-1.8692 0.80555,-0.80556 0.38516,0.9625 0.3378,2.11251 -0.1052,2.55556 -0.44307,0.44306 -0.75819,-0.34445 -0.7003,-1.75 z m 1.33333,-10.66666 c 0.064,-1.55327 0.37992,-1.8692 0.80555,-0.80556 0.38516,0.96249 0.3378,2.1125 -0.1052,2.55556 -0.44307,0.44305 -0.75819,-0.34446 -0.70029,-1.75 z m 1.33334,-10.66667 c 0.064,-1.55327 0.37992,-1.8692 0.80554,-0.80556 0.38516,0.96249 0.3378,2.11251 -0.1052,2.55556 -0.44306,0.44305 -0.75818,-0.34445 -0.70029,-1.75 z m 678.5614,-115.72564 c 0,-0.27687 1.05,-1.32687 2.33333,-2.33333 2.11475,-1.6585 2.16191,-1.61134 0.50341,0.50341 -1.74182,2.221 -2.83674,2.92731 -2.83674,1.82992 z M 880,550 c 3.98323,-4.03333 7.54224,-7.33333 7.90891,-7.33333 0.36666,0 -2.59235,3.3 -6.57558,7.33333 -3.98322,4.03333 -7.54224,7.33333 -7.9089,7.33333 -0.36667,0 2.59234,-3.3 6.57557,-7.33333 z m 20,-18.50341 c 0,-0.27687 1.05,-1.32687 2.33333,-2.33334 2.11475,-1.65849 2.16191,-1.61133 0.50342,0.50342 -1.74183,2.221 -2.83675,2.9273 -2.83675,1.82992 z M 310.66667,392.82992 c 0,-0.27687 1.05,-1.32687 2.33333,-2.33333 2.11475,-1.6585 2.16191,-1.61134 0.50341,0.50341 -1.74182,2.221 -2.83674,2.92731 -2.83674,1.82992 z m 12.66666,-14.16325 C 324.66065,377.2 326.04664,376 326.41331,376 c 0.36666,0 -0.41932,1.2 -1.74664,2.66667 -1.32732,1.46666 -2.71331,2.66666 -3.07998,2.66666 -0.36666,0 0.41932,-1.2 1.74664,-2.66666 z"
         id="path1933" />
      <path
         style="fill:#244558;stroke-width:1.33333"
         d="m 724.10527,947.22223 c 0.064,-1.55327 0.37992,-1.8692 0.80554,-0.80556 0.38516,0.96249 0.3378,2.1125 -0.1052,2.55556 -0.44305,0.44305 -0.75818,-0.34446 -0.70029,-1.75 z"
         id="path1931" />
      <path
         style="fill:#1c3848;stroke-width:1.33333"
         d="m 724.10527,943.22223 c 0.064,-1.55327 0.37992,-1.8692 0.80554,-0.80556 0.38516,0.96249 0.3378,2.1125 -0.1052,2.55556 -0.44305,0.44305 -0.75818,-0.34446 -0.70029,-1.75 z"
         id="path1929" />
      <path
         style="fill:#2d2d2d;stroke-width:1.33333"
         d="m 165.64267,757.33333 c 0,-2.56666 0.2744,-3.61666 0.60977,-2.33333 0.33536,1.28333 0.33536,3.38333 0,4.66667 -0.33537,1.28333 -0.60977,0.23333 -0.60977,-2.33334 z"
         id="path1927" />
      <path
         style="fill:#0a5d0a;stroke-width:1.33333"
         d="m 716.38135,938 c 0.0107,-3.66667 0.26896,-5.00841 0.57542,-2.98167 0.30648,2.02675 0.29828,5.02675 -0.0181,6.66667 -0.31648,1.63992 -0.56723,-0.0183 -0.55723,-3.685 z m 1.05725,-21.44444 c 0.064,-1.55327 0.37992,-1.8692 0.80555,-0.80556 0.38516,0.96249 0.3378,2.11251 -0.1052,2.55556 -0.44306,0.44305 -0.75819,-0.34445 -0.7003,-1.75 z M 174.87719,737.33333 c 0,-1.83333 0.30264,-2.58333 0.67252,-1.66666 0.36988,0.91666 0.36988,2.41666 0,3.33333 -0.36988,0.91667 -0.67252,0.16667 -0.67252,-1.66667 z M 176.21052,720 c 0,-1.83333 0.30264,-2.58333 0.67252,-1.66667 0.36988,0.91667 0.36988,2.41667 0,3.33334 -0.36988,0.91666 -0.67252,0.16666 -0.67252,-1.66667 z M 841.33333,594.16325 c 0,-0.27686 1.05,-1.32686 2.33334,-2.33333 2.11474,-1.65849 2.1619,-1.61133 0.50341,0.50341 -1.74183,2.221 -2.83675,2.92731 -2.83675,1.82992 z m 24,-28.16325 c 1.72234,-1.83333 3.43151,-3.33333 3.79818,-3.33333 0.36666,0 -0.74251,1.5 -2.46484,3.33333 -1.72234,1.83333 -3.43151,3.33333 -3.79818,3.33333 -0.36666,0 0.74251,-1.5 2.46484,-3.33333 z M 318,384 c 1.32732,-1.46667 2.71331,-2.66667 3.07997,-2.66667 0.36667,0 -0.41932,1.2 -1.74664,2.66667 -1.32732,1.46667 -2.7133,2.66667 -3.07997,2.66667 -0.36667,0 0.41932,-1.2 1.74664,-2.66667 z m 15.33333,-16.66667 C 335.05567,365.5 336.76484,364 337.13151,364 c 0.36666,0 -0.74251,1.5 -2.46484,3.33333 -1.72234,1.83334 -3.43151,3.33334 -3.79818,3.33334 -0.36666,0 0.74251,-1.5 2.46484,-3.33334 z m 21.33334,-19.83674 c 0,-0.27687 1.05,-1.32687 2.33333,-2.33334 2.11475,-1.65849 2.16191,-1.61133 0.50341,0.50342 -1.74182,2.221 -2.83674,2.9273 -2.83674,1.82992 z"
         id="path1925" />
      <path
         style="fill:#132835;stroke-width:1.33333"
         d="m 724.21052,938.66667 c 0,-1.83334 0.30264,-2.58334 0.67252,-1.66667 0.36988,0.91667 0.36988,2.41667 0,3.33333 -0.36988,0.91667 -0.67252,0.16667 -0.67252,-1.66666 z"
         id="path1923" />
      <path
         style="fill:#191919;stroke-width:1.33333"
         d="m 165.98049,936 c 0,-96.43333 0.15871,-135.88333 0.35268,-87.66667 0.19396,48.21667 0.19396,127.11667 0,175.33337 -0.19397,48.2166 -0.35268,8.7666 -0.35268,-87.6667 z M 1275.3239,742.66667 c 0,-202.76667 0.1542,-285.71667 0.3427,-184.33334 0.1885,101.38334 0.1885,267.28334 0,368.66667 -0.1885,101.3833 -0.3427,18.43333 -0.3427,-184.33333 z M 166.77193,732.55556 c 0.064,-1.55327 0.37992,-1.8692 0.80555,-0.80556 0.38516,0.96249 0.3378,2.11251 -0.1052,2.55556 -0.44307,0.44305 -0.75819,-0.34445 -0.70029,-1.75 z M 318,372 c 1.32732,-1.46667 2.71331,-2.66667 3.07997,-2.66667 0.36667,0 -0.41932,1.2 -1.74664,2.66667 -1.32732,1.46667 -2.7133,2.66667 -3.07997,2.66667 -0.36667,0 0.41932,-1.2 1.74664,-2.66667 z m 36.66667,-35.17008 c 0,-0.27687 1.05,-1.32687 2.33333,-2.33333 2.11475,-1.6585 2.16191,-1.61134 0.50341,0.50341 -1.74182,2.221 -2.83674,2.92731 -2.83674,1.82992 z"
         id="path1921" />
      <path
         style="fill:#0b1b24;stroke-width:1.33333"
         d="m 173.97936,940.66667 c 5e-5,-90.93334 0.15927,-127.93683 0.35383,-82.22999 0.19456,45.70684 0.19452,120.10684 -8e-5,165.33332 -0.1946,45.2265 -0.35379,7.83 -0.35375,-83.10333 z m 550.23116,-7.33334 c 0,-1.83333 0.30264,-2.58333 0.67252,-1.66666 0.36988,0.91666 0.36988,2.41666 0,3.33333 -0.36988,0.91667 -0.67252,0.16667 -0.67252,-1.66667 z"
         id="path1919" />
      <path
         style="fill:#022d02;stroke-width:1.33333"
         d="m 716.30933,948 c 0,-2.56667 0.2744,-3.61667 0.60978,-2.33333 0.33536,1.28333 0.33536,3.38333 0,4.66666 -0.33538,1.28334 -0.60978,0.23334 -0.60978,-2.33333 z m 1.12927,-27.44444 c 0.064,-1.55327 0.37992,-1.8692 0.80555,-0.80556 0.38516,0.96249 0.3378,2.11251 -0.1052,2.55556 -0.44306,0.44305 -0.75819,-0.34445 -0.7003,-1.75 z M 326.66667,374.16325 c 0,-0.27686 1.05,-1.32686 2.33333,-2.33333 2.11475,-1.65849 2.16191,-1.61133 0.50341,0.50341 -1.74182,2.221 -2.83674,2.92731 -2.83674,1.82992 z m 16.66666,-16.82992 c 3.61154,-3.66666 6.86643,-6.66666 7.2331,-6.66666 0.36666,0 -2.28823,3 -5.89976,6.66666 C 341.05513,361 337.80024,364 337.43357,364 c -0.36666,0 2.28823,-3 5.89976,-6.66667 z"
         id="path1917" />
      <path
         style="fill:#000000;stroke-width:1.33333"
         d="m 442.97119,1206.8485 -276.36216,-95.5152 0.46236,-195.99997 c 0.45428,-192.57714 0.51266,-196.34756 3.34373,-215.90205 C 183.58881,608.43919 210.06483,532.66475 254.77257,458 306.19703,372.11793 379.69804,304.50869 452,276.58216 471.86629,268.90883 718.5218,184 720.94612,184 c 1.58528,0 537.54988,184.74669 551.54828,190.11839 2.0002,0.76756 2.1723,29.9966 2.1723,369.04353 v 368.20998 l -275.48919,95.0873 c -151.51906,52.298 -276.46906,95.2711 -277.66667,95.4958 -1.19763,0.2248 -126.54048,-42.5732 -278.53965,-95.1065 z M 716,1126.8338 V 961.66763 l -12.33333,-4.31128 C 557.34408,906.20743 175.39468,774.8834 174.52193,775.42279 c -1.0071,0.62242 -1.86041,329.82191 -0.85526,329.95451 0.18333,0.024 121.23333,41.956 269,93.1818 147.76666,51.2258 269.71666,93.206 271,93.2894 2.21048,0.1435 2.33333,-8.5447 2.33333,-165.0147 z m 280.98455,72.1781 269.65115,-93.0119 0.015,-361 c 0.01,-230.1828 -0.4492,-361 -1.2667,-361 -0.7052,0 -56.9153,19.20101 -124.9114,42.66891 -67.9961,23.4679 -124.2691,42.52916 -125.0512,42.35834 -0.782,-0.17081 -12.5219,5.19196 -26.08857,11.91728 -42.09285,20.86643 -66.94394,38.99392 -102.70457,74.91728 -39.88779,40.06931 -67.09047,77.94518 -95.38124,132.80486 -37.18487,72.10654 -59.00347,148.9267 -65.89307,232 -2.09804,25.29776 -1.8071,371.33013 0.31222,371.34523 0.91666,0.01 123.0097,-41.8434 271.31788,-93 z M 717.56557,932.55901 C 725.26159,762.25147 816.96681,584.5102 940,501.44103 c 19.82995,-13.38872 31.38755,-20.04178 47.55309,-27.37363 7.21247,-3.2712 13.11361,-6.66427 13.11361,-7.54016 0,-0.92144 -112.65461,-40.59627 -267.33337,-94.14977 L 466,279.82021 l -7.33333,2.39808 c -13.29654,4.3481 -43.53655,20.2071 -61.58312,32.29651 -23.3937,15.67144 -40.62483,30.03472 -61.7739,51.49257 -83.85056,85.07479 -141.8112,209.46118 -157.33732,337.65355 -2.77508,22.91267 -4.41656,61.65447 -2.65828,62.74003 2.87556,1.77536 538.77575,186.78261 540.01928,186.42926 0.75914,-0.2157 1.72046,-8.94552 2.23224,-20.2712 z M 1136,420.97317 c 66.3667,-22.91916 120.6175,-42.26414 120.5575,-42.98885 -0.1112,-1.34199 -531.37913,-185.80996 -535.45733,-185.92263 -2.72992,-0.0755 -238.59708,81.12563 -240.34461,82.74248 -0.68445,0.63327 -0.86236,1.53348 -0.39535,2.00048 0.467,0.467 119.52003,41.90004 264.5623,92.0734 145.04225,50.17338 264.29019,91.80128 264.99539,92.50647 0.7051,0.70517 2.2121,1.27713 3.3488,1.271 1.1366,-0.007 56.3666,-18.76317 122.7333,-41.68235 z"
         id="path1915" />
    </g>
  </g>
</svg>
