<?xml version="1.0" encoding="UTF-8" standalone="no"?>
<!-- Created with Inkscape (http://www.inkscape.org/) -->

<svg
   version="1.1"
   id="svg824"
   width="1440"
   height="1440"
   viewBox="0 0 1440 1440"
   sodipodi:docname="PartDesign_Line.svg"
   inkscape:version="1.1.2 (b8e25be833, 2022-02-05)"
   xmlns:inkscape="http://www.inkscape.org/namespaces/inkscape"
   xmlns:sodipodi="http://sodipodi.sourceforge.net/DTD/sodipodi-0.dtd"
   xmlns="http://www.w3.org/2000/svg"
   xmlns:svg="http://www.w3.org/2000/svg">
  <defs
     id="defs828" />
  <sodipodi:namedview
     id="namedview826"
     pagecolor="#505050"
     bordercolor="#eeeeee"
     borderopacity="1"
     inkscape:pageshadow="0"
     inkscape:pageopacity="0"
     inkscape:pagecheckerboard="0"
     showgrid="false"
     inkscape:zoom="0.53958333"
     inkscape:cx="676.44788"
     inkscape:cy="720"
     inkscape:window-width="1920"
     inkscape:window-height="1028"
     inkscape:window-x="-6"
     inkscape:window-y="-6"
     inkscape:window-maximized="1"
     inkscape:current-layer="g830" />
  <g
     inkscape:groupmode="layer"
     inkscape:label="Image"
     id="g830">
    <g
       id="g914"
       transform="translate(-3.3425598,-5.9301319)">
      <path
         style="fill:#d0d0d0;stroke-width:1.33333"
         d="m 179.33333,1376 c 10.98167,-11 20.26666,-20 20.63332,-20 0.36667,0 -8.31832,9 -19.29998,20 -10.98167,11 -20.26666,20 -20.63332,20 -0.36667,0 8.31832,-9 19.29998,-20 z m -80.126679,-8.3333 -2.539984,-3 3,2.54 c 2.819263,2.3869 3.606983,3.46 2.539983,3.46 -0.25301,0 -1.60301,-1.35 -2.999999,-3 z m -23.376724,-23.3334 c -1.658495,-2.1148 -1.611335,-2.1618 0.503406,-0.5034 1.283334,1.0065 2.333334,2.0565 2.333334,2.3333 0,1.0975 -1.094915,0.3911 -2.83674,-1.8299 z M 70,1261.3333 c 13.184719,-13.2 24.272217,-24 24.638884,-24 0.366667,0 -10.120832,10.8 -23.305551,24 -13.184718,13.2 -24.272217,24 -24.638884,24 -0.366666,0 10.120832,-10.8 23.305551,-24 z M 314.66667,1242 c 15.75388,-15.7667 28.94341,-28.6667 29.31008,-28.6667 0.36666,0 -12.22287,12.9 -27.97675,28.6667 -15.75388,15.7667 -28.94341,28.6667 -29.31008,28.6667 -0.36667,0 12.22287,-12.9 27.97675,-28.6667 z M 210,1122.6667 c 15.38691,-15.4 28.27619,-28 28.64285,-28 0.36667,0 -11.92261,12.6 -27.30952,28 -15.3869,15.4 -28.27618,28 -28.64285,28 -0.36667,0 11.92261,-12.6 27.30952,-28 z m 163.16325,-21 c -1.65849,-2.1148 -1.61133,-2.1619 0.50342,-0.5034 2.221,1.7418 2.9273,2.8367 1.82992,2.8367 -0.27687,0 -1.32687,-1.05 -2.33334,-2.3333 z M 358.66667,1086 c -3.23871,-3.3 -5.58856,-6 -5.2219,-6 0.36667,0 3.31652,2.7 6.55523,6 3.23871,3.3 5.58856,6 5.22189,6 -0.36666,0 -3.31652,-2.7 -6.55522,-6 z m -17.50342,-16.3333 c -1.65849,-2.1148 -1.61133,-2.1619 0.50342,-0.5034 2.221,1.7418 2.9273,2.8367 1.82992,2.8367 -0.27687,0 -1.32687,-1.05 -2.33334,-2.3333 z M 406.49659,1011 c -1.6585,-2.1147 -1.61134,-2.1619 0.50341,-0.5034 2.221,1.7418 2.92731,2.8367 1.82992,2.8367 -0.27687,0 -1.32687,-1.05 -2.33333,-2.3333 z M 604,955.33333 c 15.75388,-15.76666 28.94341,-28.66666 29.31008,-28.66666 0.36667,0 -12.22287,12.9 -27.97675,28.66666 C 589.57945,971.1 576.38992,984 576.02325,984 575.65659,984 588.24612,971.1 604,955.33333 Z M 499.33333,836 c 15.38691,-15.4 28.27619,-28 28.64286,-28 0.36666,0 -11.92262,12.6 -27.30952,28 -15.38691,15.4 -28.27619,28 -28.64286,28 -0.36666,0 11.92262,-12.6 27.30952,-28 z M 726,834.66667 C 729.61153,831 732.86643,828 733.23309,828 c 0.36667,0 -2.28822,3 -5.89976,6.66667 -3.61153,3.66666 -6.86642,6.66666 -7.23309,6.66666 -0.36667,0 2.28823,-3 5.89976,-6.66666 z m -22.17008,-66.33334 c -1.65849,-2.11474 -1.61133,-2.1619 0.50341,-0.50341 1.28334,1.00647 2.33334,2.05647 2.33334,2.33333 0,1.09739 -1.09492,0.39108 -2.83675,-1.82992 z m -26.66667,-26.66666 c -1.65849,-2.11475 -1.61133,-2.16191 0.50342,-0.50342 1.28333,1.00647 2.33333,2.05647 2.33333,2.33334 0,1.09738 -1.09492,0.39108 -2.83675,-1.82992 z m 139.17008,-3.91911 c 1.28334,-0.33536 3.38334,-0.33536 4.66667,0 1.28333,0.33537 0.23333,0.60977 -2.33333,0.60977 -2.56667,0 -3.61667,-0.2744 -2.33334,-0.60977 z M 618,718.66667 C 619.32732,717.2 620.71331,716 621.07997,716 c 0.36667,0 -0.41932,1.2 -1.74664,2.66667 -1.32732,1.46666 -2.7133,2.66666 -3.07997,2.66666 -0.36667,0 0.41932,-1.2 1.74664,-2.66666 z m 7.08333,-4.91082 c 0.9625,-0.38516 2.11251,-0.3378 2.55556,0.1052 0.44306,0.44306 -0.34445,0.75819 -1.75,0.7003 -1.55326,-0.064 -1.8692,-0.37992 -0.80556,-0.80555 z M 753.96424,695.66667 744.66667,686 l 9.66666,9.29757 c 8.9784,8.63559 10.27559,10.03576 9.29758,10.03576 -0.203,0 -4.553,-4.35 -9.66667,-9.66666 z m 139.36909,-27 C 909.08721,652.9 922.27675,640 922.64341,640 c 0.36667,0 -12.22286,12.9 -27.97674,28.66667 -15.75388,15.76666 -28.94342,28.66666 -29.31008,28.66666 -0.36667,0 12.22286,-12.9 27.97674,-28.66666 z m -156.17008,9 c -1.65849,-2.11475 -1.61133,-2.16191 0.50342,-0.50342 1.28333,1.00647 2.33333,2.05647 2.33333,2.33334 0,1.09738 -1.09492,0.39108 -2.83675,-1.82992 z m 51.50342,-128.33334 c 15.3869,-15.4 28.27618,-28 28.64285,-28 0.36667,0 -11.92261,12.6 -27.30952,28 -15.38691,15.4 -28.27619,28 -28.64285,28 -0.36667,0 11.92261,-12.6 27.30952,-28 z M 1037.3333,526 c 15.7539,-15.76667 28.9434,-28.66667 29.3101,-28.66667 0.3667,0 -12.2229,12.9 -27.9767,28.66667 -15.7539,15.76667 -28.9434,28.66667 -29.3101,28.66667 -0.3667,0 12.2229,-12.9 27.9767,-28.66667 z m -3.46,-91.66667 -2.54,-3 3,2.53999 c 1.65,1.39699 3,2.74699 3,3 0,1.067 -1.073,0.27927 -3.46,-2.53999 z M 928.66667,410.66667 c 13.18472,-13.2 24.27221,-24 24.63888,-24 0.36666,0 -10.12083,10.8 -23.30555,24 -13.18472,13.2 -24.27221,24 -24.63888,24 -0.36667,0 10.12083,-10.8 23.30555,-24 z M 1014.5657,415 l -3.2324,-3.66667 3.6667,3.23242 c 2.0167,1.77784 3.6667,3.42784 3.6667,3.66666 0,1.04571 -1.0798,0.19464 -4.101,-3.23241 z M 1186,378.66667 c 13.9189,-13.93334 25.607,-25.33334 25.9737,-25.33334 0.3666,0 -10.7215,11.4 -24.6404,25.33334 C 1173.4145,392.6 1161.7263,404 1161.3597,404 c -0.3667,0 10.7214,-11.4 24.6403,-25.33333 z m -88.1267,-3 -2.54,-3 3,2.53998 c 1.65,1.39699 3,2.74699 3,3 0,1.067 -1.073,0.27927 -3.46,-2.53998 z M 1077.1633,355 c -1.6585,-2.11475 -1.6114,-2.16191 0.5034,-0.50341 2.221,1.74182 2.9273,2.83674 1.8299,2.83674 -0.2769,0 -1.3269,-1.05 -2.3333,-2.33333 z M 1078,262.66667 c 15.3869,-15.4 28.2762,-28 28.6429,-28 0.3666,0 -11.9227,12.6 -27.3096,28 -15.3869,15.4 -28.2762,28 -28.6428,28 -0.3667,0 11.9226,-12.6 27.3095,-28 z M 1328,238 c 15.7539,-15.76667 28.9435,-28.66667 29.3101,-28.66667 0.3667,0 -12.2229,12.9 -27.9768,28.66667 -15.7538,15.76667 -28.9434,28.66667 -29.31,28.66667 -0.3667,0 12.2228,-12.9 27.9767,-28.66667 z M 1222.6667,119.33333 c 15.7538,-15.76666 28.9434,-28.666663 29.31,-28.666663 0.3667,0 -12.2228,12.900003 -27.9767,28.666663 C 1208.2461,135.1 1195.0566,148 1194.6899,148 c -0.3666,0 12.2229,-12.9 27.9768,-28.66667 z m 151.8298,-7 c -1.6584,-2.11474 -1.6113,-2.1619 0.5035,-0.5034 2.2209,1.74182 2.9273,2.83674 1.8299,2.83674 -0.2768,0 -1.3268,-1.05 -2.3334,-2.33334 z m -15.2049,-16.666663 -7.9583,-8.333334 8.3334,7.958263 c 4.5833,4.377044 8.3333,8.127044 8.3333,8.333334 0,0.9852 -1.3159,-0.21731 -8.7084,-7.958263 z"
         id="path944" />
      <path
         style="fill:#afafaf;stroke-width:1.33333"
         d="m 94.496593,1363 c -1.658494,-2.1148 -1.611334,-2.1619 0.503407,-0.5035 2.220997,1.7419 2.927305,2.8368 1.829927,2.8368 -0.276875,0 -1.326875,-1.05 -2.333334,-2.3333 z m 120.170077,-22.3333 c 8.40941,-8.4334 15.58984,-15.3334 15.9565,-15.3334 0.36667,0 -6.21376,6.9 -14.62317,15.3334 C 207.59059,1349.1 200.41016,1356 200.04349,1356 c -0.36666,0 6.21376,-6.9 14.62318,-15.3333 z m -133.434251,9 L 78,1346 l 3.666667,3.2324 c 2.016666,1.7779 3.666666,3.4279 3.666666,3.6667 0,1.0457 -1.079732,0.1946 -4.100914,-3.2324 z M 359.33333,1197.3333 c 8.77708,-8.8 16.25832,-16 16.62499,-16 0.36667,0 -6.51457,7.2 -15.29165,16 -8.77708,8.8 -16.25832,16 -16.62499,16 -0.36667,0 6.51457,-7.2 15.29165,-16 z m -192,-32 c 8.04166,-8.0666 14.92119,-14.6666 15.28786,-14.6666 0.36666,0 -5.91287,6.6 -13.95452,14.6666 C 160.62501,1173.4 153.74548,1180 153.37881,1180 c -0.36666,0 5.91287,-6.6 13.95452,-14.6667 z M 506,1052 c 7.30581,-7.3333 13.58331,-13.3333 13.94997,-13.3333 0.36667,0 -5.31082,6 -12.61664,13.3333 -7.30581,7.3333 -13.5833,13.3333 -13.94997,13.3333 -0.36667,0 5.31083,-6 12.61664,-13.3333 z M 648.66667,910.66667 c 8.77708,-8.8 16.25832,-16 16.62498,-16 0.36667,0 -6.51457,7.2 -15.29165,16 -8.77708,8.8 -16.25832,16 -16.62499,16 -0.36666,0 6.51458,-7.2 15.29166,-16 z m -192,-32 C 464.70832,870.6 471.58785,864 471.95452,864 c 0.36667,0 -5.91287,6.6 -13.95452,14.66667 -8.04165,8.06666 -14.92119,14.66666 -15.28785,14.66666 -0.36667,0 5.91286,-6.6 13.95452,-14.66666 z M 600.66667,736 c 8.04165,-8.06667 14.92118,-14.66667 15.28785,-14.66667 0.36667,0 -5.91287,6.6 -13.95452,14.66667 -8.04165,8.06667 -14.92119,14.66667 -15.28785,14.66667 -0.36667,0 5.91286,-6.6 13.95452,-14.66667 z m 80.49658,9.66667 c -1.65849,-2.11475 -1.61133,-2.16191 0.50342,-0.50342 1.28333,1.00647 2.33333,2.05647 2.33333,2.33334 0,1.09738 -1.09492,0.39108 -2.83675,-1.82992 z m 256.17008,-121 c 8.40942,-8.43334 15.58984,-15.33334 15.95651,-15.33334 0.36667,0 -6.21376,6.9 -14.62317,15.33334 C 930.25725,633.1 923.07683,640 922.71016,640 c -0.36667,0 6.21376,-6.9 14.62317,-15.33333 z M 746,592 c 8.04165,-8.06667 14.92119,-14.66667 15.28785,-14.66667 0.36667,0 -5.91286,6.6 -13.95452,14.66667 -8.04165,8.06667 -14.92118,14.66667 -15.28785,14.66667 -0.36667,0 5.91287,-6.6 13.95452,-14.66667 z M 890,449.33333 c 8.04165,-8.06666 14.92119,-14.66666 15.28785,-14.66666 0.36667,0 -5.91286,6.6 -13.95452,14.66666 C 883.29168,457.4 876.41215,464 876.04548,464 875.67881,464 881.95835,457.4 890,449.33333 Z M 1024.6165,425 1018,418 l 7,6.61655 c 6.5045,6.14821 7.6115,7.38345 6.6165,7.38345 -0.2109,0 -3.3609,-3.15 -7,-7 z m 68.5468,-54 c -1.6585,-2.11475 -1.6114,-2.16191 0.5034,-0.50341 2.221,1.74182 2.9273,2.83674 1.8299,2.83674 -0.2769,0 -1.3269,-1.05 -2.3333,-2.33333 z m -9.9138,-10 -3.9162,-4.33333 4.3334,3.91612 c 2.3833,2.15386 4.3333,4.10386 4.3333,4.33333 0,1.03008 -1.1002,0.1232 -4.7505,-3.91612 z m 143.4172,-23 c 8.4094,-8.43333 15.5898,-15.33333 15.9565,-15.33333 0.3666,0 -6.2138,6.9 -14.6232,15.33333 -8.4094,8.43333 -15.5898,15.33333 -15.9565,15.33333 -0.3667,0 6.2138,-6.9 14.6232,-15.33333 z M 1372,194 c 8.4095,-8.43333 15.5899,-15.33333 15.9565,-15.33333 0.3667,0 -6.2137,6.9 -14.6232,15.33333 -8.4094,8.43333 -15.5898,15.33333 -15.9565,15.33333 -0.3667,0 6.2137,-6.9 14.6232,-15.33333 z M 1179.3333,162.66667 C 1187.375,154.6 1194.2545,148 1194.6212,148 c 0.3667,0 -5.9129,6.6 -13.9545,14.66667 -8.0417,8.06666 -14.9212,14.66666 -15.2879,14.66666 -0.3667,0 5.9129,-6.6 13.9545,-14.66666 z"
         id="path942" />
      <path
         style="fill:#8f8f8f;stroke-width:1.33333"
         d="m 149.66667,1397.7476 c 1.28333,-0.3355 3.38333,-0.3355 4.66666,0 1.28334,0.3353 0.23334,0.6097 -2.33333,0.6097 -2.56667,0 -3.61667,-0.2744 -2.33333,-0.6097 z M 88.582788,1357 84.666667,1352.6667 89,1356.5828 c 2.383333,2.1539 4.333333,4.1039 4.333333,4.3333 0,1.0302 -1.10017,0.1227 -4.750545,-3.9161 z m 155.393382,-45.3333 c 7.68691,-7.8834 14.13691,-14.3334 14.33334,-14.3334 0.96294,0 -0.66307,1.7092 -13.97618,14.6905 L 230,1326 Z M 139.33333,1193.3333 C 146.63915,1186 152.91664,1180 153.28331,1180 c 0.36666,0 -5.31083,6 -12.61664,13.3333 -7.30582,7.3334 -13.58331,13.3334 -13.94997,13.3334 -0.36667,0 5.31082,-6 12.61663,-13.3334 z m 248,-24 c 6.56943,-6.6 12.2444,-12 12.61107,-12 0.36667,0 -4.70831,5.4 -11.27773,12 -6.56943,6.6 -12.2444,12 -12.61107,12 -0.36667,0 4.70831,-5.4 11.27773,-12 z m -108.66666,-114 c 3.98322,-4.0333 7.54224,-7.3333 7.9089,-7.3333 0.36667,0 -2.59234,3.3 -6.57557,7.3333 -3.98323,4.0334 -7.54224,7.3334 -7.90891,7.3334 -0.36666,0 2.59235,-3.3 6.57558,-7.3334 z M 533.30951,1025 c 7.6869,-7.8833 14.1369,-14.3333 14.33333,-14.3333 0.96295,0 -0.66307,1.7091 -13.97617,14.6905 l -14.33334,13.9761 z m -102.81292,10 c -1.6585,-2.1147 -1.61134,-2.1619 0.50341,-0.5034 2.221,1.7418 2.92731,2.8367 1.82992,2.8367 -0.27687,0 -1.32687,-1.05 -2.33333,-2.3333 z m -1.82992,-128.33333 c 7.30581,-7.33334 13.5833,-13.33334 13.94997,-13.33334 0.36667,0 -5.31083,6 -12.61664,13.33334 C 422.69419,914 416.41669,920 416.05003,920 c -0.36667,0 5.31082,-6 12.61664,-13.33333 z M 678,881.33333 C 685.30581,874 691.58331,868 691.94997,868 c 0.36667,0 -5.31082,6 -12.61664,13.33333 -7.30581,7.33334 -13.5833,13.33334 -13.94997,13.33334 -0.36667,0 5.31083,-6 12.61664,-13.33334 z M 572.66667,764 c 7.30581,-7.33333 13.5833,-13.33333 13.94997,-13.33333 0.36667,0 -5.31083,6 -12.61664,13.33333 -7.30581,7.33333 -13.58331,13.33333 -13.94997,13.33333 -0.36667,0 5.31082,-6 12.61664,-13.33333 z M 697.23241,761.66667 694,758 l 3.66667,3.23241 c 2.01666,1.77784 3.66666,3.42784 3.66666,3.66667 0,1.04571 -1.07973,0.19464 -4.10092,-3.23241 z m -12.06916,-12 c -1.65849,-2.11475 -1.61133,-2.16191 0.50342,-0.50342 1.28333,1.00647 2.33333,2.05647 2.33333,2.33334 0,1.09738 -1.09492,0.39108 -2.83675,-1.82992 z M 831.33333,729.33333 C 834.19765,726.4 836.8412,724 837.20787,724 c 0.36666,0 -1.67688,2.4 -4.5412,5.33333 -2.86432,2.93334 -5.50787,5.33334 -5.87454,5.33334 -0.36666,0 1.67688,-2.4 4.5412,-5.33334 z m -108.66666,-114 c 4.72429,-4.76666 8.88962,-8.66666 9.25629,-8.66666 0.36667,0 -3.19867,3.9 -7.92296,8.66666 C 719.27571,620.1 715.11037,624 714.74371,624 c -0.36667,0 3.19866,-3.9 7.92296,-8.66667 z m 243.97617,-19.66666 c 12.98137,-13.31311 14.69049,-14.93912 14.69049,-13.97618 0,0.19643 -6.45,6.64643 -14.33333,14.33334 L 952.66667,610 Z M 862,477.33333 C 869.30581,470 875.58331,464 875.94997,464 c 0.36667,0 -5.31082,6 -12.61664,13.33333 -7.30581,7.33334 -13.5833,13.33334 -13.94997,13.33334 -0.36667,0 5.31083,-6 12.61664,-13.33334 z m 287.692,-70.25732 c 1.2973,-0.33805 3.0973,-0.31582 4,0.0495 0.9027,0.36524 -0.1587,0.64183 -2.3587,0.61465 -2.2,-0.0272 -2.9386,-0.326 -1.6413,-0.66405 z M 1089.1633,367 c -1.6585,-2.11475 -1.6114,-2.16191 0.5034,-0.50341 1.2833,1.00646 2.3333,2.05646 2.3333,2.33333 0,1.09739 -1.0949,0.39108 -2.8367,-1.82992 z m 167.5034,-59 c 8.0416,-8.06667 14.9212,-14.66667 15.2878,-14.66667 0.3667,0 -5.9128,6.6 -13.9545,14.66667 -8.0417,8.06667 -14.9212,14.66667 -15.2879,14.66667 -0.3666,0 5.9129,-6.6 13.9546,-14.66667 z M 1151.3333,190.66667 c 7.3058,-7.33334 13.5833,-13.33334 13.95,-13.33334 0.3667,0 -5.3108,6 -12.6166,13.33334 C 1145.3609,198 1139.0834,204 1138.7167,204 c -0.3667,0 5.3108,-6 12.6166,-13.33333 z M 1393.2776,173 c 3.2693,-3.48333 6.1193,-6.33333 6.3333,-6.33333 1.0012,0 -0.057,1.1971 -5.9442,6.72238 l -6.3334,5.94428 z M 1284,59.496593 c 0,-0.276874 1.05,-1.326874 2.3333,-2.333333 2.1148,-1.658495 2.1619,-1.611335 0.5034,0.503407 -1.7418,2.220997 -2.8367,2.927305 -2.8367,1.829926 z"
         id="path940" />
      <path
         style="fill:#6f6f6f;stroke-width:1.33333"
         d="m 271.33333,1284 c 7.30582,-7.3333 13.58331,-13.3333 13.94998,-13.3333 0.36666,0 -5.31083,6 -12.61664,13.3333 -7.30582,7.3333 -13.58331,13.3333 -13.94998,13.3333 -0.36666,0 5.31083,-6 12.61664,-13.3333 z m -159.35715,-63 c 7.68689,-7.8833 14.13689,-14.3333 14.33333,-14.3333 0.96294,0 -0.66307,1.7091 -13.97618,14.6905 L 98,1235.3333 Z m 144.69049,-143.6667 c 8.04165,-8.0666 14.92118,-14.6666 15.28785,-14.6666 0.36667,0 -5.91287,6.6 -13.95452,14.6666 C 249.95835,1085.4 243.07881,1092 242.71215,1092 c -0.36667,0 5.91286,-6.6 13.95452,-14.6667 z m 92.49658,0.3334 c -1.65849,-2.1148 -1.61133,-2.1619 0.50342,-0.5034 2.221,1.7418 2.9273,2.8367 1.82992,2.8367 -0.27687,0 -1.32687,-1.05 -2.33334,-2.3333 z m -55.47121,-33.2574 c 1.29729,-0.338 3.09729,-0.3158 4,0.05 0.90271,0.3653 -0.15871,0.6418 -2.35871,0.6147 -2.2,-0.027 -2.93858,-0.326 -1.64129,-0.6641 z M 426.49659,1031 c -1.6585,-2.1147 -1.61134,-2.1619 0.50341,-0.5034 1.28333,1.0065 2.33333,2.0565 2.33333,2.3333 0,1.0974 -1.09492,0.3911 -2.83674,-1.8299 z m -9.9138,-10 -3.91612,-4.3333 4.33333,3.9161 c 4.03928,3.6504 4.9462,4.7505 3.91612,4.7505 -0.22947,0 -2.17947,-1.95 -4.33333,-4.3333 z M 560.66667,997.33333 C 567.97248,990 574.24997,984 574.61664,984 c 0.36667,0 -5.31083,6 -12.61664,13.33333 -7.30581,7.33337 -13.58331,13.33337 -13.94997,13.33337 -0.36667,0 5.31082,-6 12.61664,-13.33337 z m -159.35716,-63 C 414.29088,921.02023 416,919.39421 416,920.35716 c 0,0.19643 -6.45,6.64643 -14.33333,14.33333 l -14.33334,13.97618 z m 303.35716,-79.66666 c 7.30581,-7.33334 13.5833,-13.33334 13.94997,-13.33334 0.36667,0 -5.31083,6 -12.61664,13.33334 C 698.69419,862 692.41669,868 692.05003,868 c -0.36667,0 5.31082,-6 12.61664,-13.33333 z m -159.35716,-63 C 558.29088,778.35356 560,776.72755 560,777.69049 c 0,0.19643 -6.45,6.64643 -14.33333,14.33334 L 531.33333,806 Z M 690.56575,755 687.33333,751.33333 691,754.56575 c 2.01667,1.77784 3.66667,3.42784 3.66667,3.66666 0,1.04571 -1.07974,0.19464 -4.10092,-3.23241 z M 850,710.66667 c 7.30581,-7.33334 13.58331,-13.33334 13.94997,-13.33334 0.36667,0 -5.31082,6 -12.61664,13.33334 C 844.02752,718 837.75003,724 837.38336,724 837.01669,724 842.69419,718 850,710.66667 Z M 994,568 c 7.3058,-7.33333 13.5833,-13.33333 13.95,-13.33333 0.3666,0 -5.3109,6 -12.61667,13.33333 -7.30581,7.33333 -13.5833,13.33333 -13.94997,13.33333 -0.36667,0 5.31083,-6 12.61664,-13.33333 z M 834.64284,505 c 7.68691,-7.88333 14.13691,-14.33333 14.33333,-14.33333 0.96295,0 -0.66306,1.70912 -13.97617,14.69049 l -14.33333,13.97617 z M 1284,280.66667 C 1290.9377,273.7 1296.914,268 1297.2807,268 c 0.3666,0 -5.0097,5.7 -11.9474,12.66667 -6.9377,6.96666 -12.914,12.66666 -13.2806,12.66666 -0.3667,0 5.0096,-5.7 11.9473,-12.66666 z m -160.0238,-62.33334 c 12.9813,-13.3131 14.6905,-14.93912 14.6905,-13.97617 0,0.19643 -6.45,6.64643 -14.3334,14.33333 L 1110,232.66667 Z M 1269.3095,74.333333 C 1276.9964,66.45 1283.4464,60 1283.6428,60 c 0.963,0 -0.663,1.709119 -13.9761,14.690489 l -14.3334,13.976178 z m 24.3825,-20.590654 c 1.2973,-0.338058 3.0973,-0.315826 4,0.0494 0.9027,0.36523 -0.1587,0.641824 -2.3587,0.61465 -2.2,-0.02717 -2.9386,-0.325997 -1.6413,-0.664056 z"
         id="path938" />
      <path
         style="fill:#4f4f4f;stroke-width:1.33333"
         d="m 164,1390 c 2.48771,-2.5667 4.82311,-4.6667 5.18977,-4.6667 0.36667,0 -1.36873,2.1 -3.85644,4.6667 -2.4877,2.5667 -4.8231,4.6667 -5.18977,4.6667 -0.36667,0 1.36873,-2.1 3.85644,-4.6667 z m 135.33333,-134 c 8.04166,-8.0667 14.92119,-14.6667 15.28786,-14.6667 0.36666,0 -5.91287,6.6 -13.95452,14.6667 -8.04166,8.0667 -14.92119,14.6667 -15.28786,14.6667 -0.36666,0 5.91287,-6.6 13.95452,-14.6667 z m -216.666663,-6 c 8.409409,-8.4333 15.589834,-15.3333 15.956501,-15.3333 0.366667,0 -6.213759,6.9 -14.623168,15.3333 -8.409409,8.4333 -15.589835,15.3333 -15.956501,15.3333 -0.366667,0 6.213758,-6.9 14.623168,-15.3333 z M 226.66667,1107.3333 C 235.07608,1098.9 242.25651,1092 242.62317,1092 c 0.36667,0 -6.21376,6.9 -14.62317,15.3333 -8.40941,8.4334 -15.58984,15.3334 -15.95651,15.3334 -0.36666,0 6.21376,-6.9 14.62318,-15.3334 z m 134.59489,-17.6666 -4.59489,-5 5,4.5949 c 2.75,2.5271 5,4.7771 5,5 0,1.0181 -1.1283,0.059 -5.40511,-4.5949 z m -8.09831,-8 c -1.65849,-2.1148 -1.61133,-2.1619 0.50342,-0.5034 1.28333,1.0064 2.33333,2.0564 2.33333,2.3333 0,1.0974 -1.09492,0.3911 -2.83675,-1.8299 z M 422.49659,1027 c -1.6585,-2.1147 -1.61134,-2.1619 0.50341,-0.5034 2.221,1.7418 2.92731,2.8367 1.82992,2.8367 -0.27687,0 -1.32687,-1.05 -2.33333,-2.3333 z m 166.17008,-57.66667 c 8.04165,-8.06666 14.92118,-14.66666 15.28785,-14.66666 0.36667,0 -5.91287,6.6 -13.95452,14.66666 C 581.95835,977.4 575.07881,984 574.71215,984 c -0.36667,0 5.91286,-6.6 13.95452,-14.66667 z M 384,951.33333 C 385.72233,949.5 387.43151,948 387.79817,948 c 0.36667,0 -0.7425,1.5 -2.46484,3.33333 -1.72233,1.83334 -3.4315,3.33334 -3.79817,3.33334 -0.36667,0 0.74251,-1.5 2.46484,-3.33334 z M 725.33333,834 c 3.98323,-4.03333 7.54224,-7.33333 7.90891,-7.33333 0.36667,0 -2.59235,3.3 -6.57557,7.33333 -3.98323,4.03333 -7.54224,7.33333 -7.90891,7.33333 -0.36667,0 2.59235,-3.3 6.57557,-7.33333 z M 516,820.66667 c 8.40941,-8.43334 15.58984,-15.33334 15.95651,-15.33334 0.36666,0 -6.21376,6.9 -14.62318,15.33334 C 508.92392,829.1 501.74349,836 501.37683,836 501.01016,836 507.59059,829.1 516,820.66667 Z M 762.49659,703 c -1.6585,-2.11475 -1.61134,-2.16191 0.50341,-0.50341 1.28333,1.00646 2.33333,2.05646 2.33333,2.33333 0,1.09739 -1.09492,0.39108 -2.83674,-1.82992 z M 878,682.66667 C 886.04165,674.6 892.92119,668 893.28785,668 c 0.36667,0 -5.91286,6.6 -13.95452,14.66667 -8.04165,8.06666 -14.92118,14.66666 -15.28785,14.66666 -0.36667,0 5.91287,-6.6 13.95452,-14.66666 z m -130.79335,5 -2.53998,-3 3,2.53998 c 2.81925,2.38696 3.60698,3.46002 2.53998,3.46002 -0.25301,0 -1.60301,-1.35 -3,-3 z M 1022,540 c 8.0417,-8.06667 14.9212,-14.66667 15.2879,-14.66667 0.3666,0 -5.9129,6.6 -13.9546,14.66667 -8.0416,8.06667 -14.9212,14.66667 -15.2878,14.66667 -0.3667,0 5.9128,-6.6 13.9545,-14.66667 z m -216.66667,-6 c 8.40942,-8.43333 15.58984,-15.33333 15.95651,-15.33333 0.36667,0 -6.21376,6.9 -14.62317,15.33333 -8.40942,8.43333 -15.58984,15.33333 -15.95651,15.33333 -0.36667,0 6.21376,-6.9 14.62317,-15.33333 z M 934.66667,406.29996 c 0,-0.20168 4.65,-4.85168 10.33333,-10.33333 L 955.33333,386 l -9.96662,10.33333 c -9.25679,9.59738 -10.70004,10.9417 -10.70004,9.96663 z m 236.00003,-13.63329 c 6.2009,-6.23334 11.5744,-11.33334 11.9411,-11.33334 0.3667,0 -4.4069,5.1 -10.6078,11.33334 C 1165.7991,398.9 1160.4255,404 1160.0589,404 c -0.3667,0 4.4068,-5.1 10.6078,-11.33333 z m 140.6666,-139.33334 c 8.0417,-8.06666 14.9212,-14.66666 15.2879,-14.66666 0.3667,0 -5.9129,6.6 -13.9545,14.66666 C 1304.625,261.4 1297.7455,268 1297.3788,268 c -0.3667,0 5.9129,-6.6 13.9545,-14.66667 z m -216.6666,-6 C 1103.0761,238.9 1110.2565,232 1110.6232,232 c 0.3666,0 -6.2138,6.9 -14.6232,15.33333 -8.4094,8.43334 -15.5898,15.33334 -15.9565,15.33334 -0.3667,0 6.2138,-6.9 14.6232,-15.33334 z M 1239.3333,104 c 8.7771,-8.8 16.2584,-16 16.625,-16 0.3667,0 -6.5146,7.2 -15.2916,16 -8.7771,8.8 -16.2584,16 -16.625,16 -0.3667,0 6.5146,-7.2 15.2916,-16 z m 123.2324,-3.66667 -3.2324,-3.666663 3.6667,3.232418 c 2.0167,1.777835 3.6667,3.427835 3.6667,3.666665 0,1.0457 -1.0798,0.19464 -4.101,-3.23242 z M 1351.2067,89 l -2.54,-3 3,2.539984 c 1.65,1.396991 3,2.746991 3,3 0,1.067004 -1.0731,0.279276 -3.46,-2.539984 z"
         id="path936" />
      <path
         style="fill:#00b300;stroke-width:1.33333"
         d="m 1057.4524,300.41799 c 0.8052,-2.32624 232.0459,-231.699465 235.3897,-233.488699 2.5295,-1.353478 3.5688,-0.752524 9.4462,5.46205 5.0575,5.347552 6.8212,8.340524 7.5312,12.780214 1.7878,11.18017 11.6888,22.103095 51.8237,57.172655 13.1612,11.50015 23.3249,21.11086 22.5861,21.35714 -2.3197,0.77321 -16.5657,-7.13335 -27.6153,-15.32654 -14.2837,-10.5912 -32.0833,-27.73585 -46.5259,-44.81397 -7.4349,-8.791681 -12.508,-13.736423 -13.498,-13.156551 -0.8724,0.510975 -24.5934,23.279041 -52.7133,50.595711 -50.3834,48.94425 -54.2196,52.12384 -58.1484,48.19511 -1.0731,-1.07319 -11.6744,8.40176 -39.1605,35 -57.1042,55.25961 -57.2707,55.40877 -58.8019,52.67276 -1.1192,-1.99988 -3.3119,-0.4441 -16.0785,11.40822 -8.1305,7.54815 -14.5363,13.012 -14.2351,12.1419 z"
         id="path934" />
      <path
         style="fill:#00aa00;stroke-width:1.33333"
         d="m 468.47196,911 c 0.50401,-0.55 37.29805,-37.40316 81.76452,-81.89592 l 80.84812,-80.89593 -2.9684,-6.9002 c -1.63261,-3.79512 -2.68273,-7.18586 -2.3336,-7.53499 0.34912,-0.34913 3.89535,3.75913 7.88049,9.12947 8.9944,12.12077 31.19968,36.52625 53.06223,58.3199 17.07649,17.02267 17.53516,18.32499 2.57853,7.32134 -9.0602,-6.66563 -37.13353,-33.98776 -46.19521,-44.95907 l -5.29875,-6.41541 -59.31053,58.41541 C 545.87856,847.71307 510.43769,882.55 499.74187,893 l -19.44698,19 h -6.36966 c -3.50332,0 -5.9573,-0.45 -5.45327,-1 z M 733.97332,653.53216 c -3.24284,-4.90025 -3.35997,-5.54972 -1.51879,-8.42096 1.0973,-1.71116 2.6867,-5.73419 3.532,-8.94007 1.37246,-5.20506 8.51863,-12.86326 66.7752,-71.55969 C 838.64279,528.45948 868,497.98155 868,496.88269 c 0,-1.09886 0.39632,-3.03072 0.88071,-4.29301 1.68661,-4.39524 -3.14275,-0.13133 -38.45336,33.95132 -19.30171,18.63045 1.83497,-3.11972 46.9704,-48.33372 45.13541,-45.214 82.93541,-82.20319 84,-82.19817 1.06457,0.005 3.42717,2.25501 5.25024,5 7.97556,12.00886 22.56462,26.29129 47.27841,46.28469 9.7904,7.92043 27.6428,20.22556 30.7403,21.18835 2.7797,0.86402 9.4163,11.50044 11.3223,18.14601 1.2335,4.30115 -1.5496,8.03851 -5.9862,8.03851 -7.6702,0 -32.2387,-18.15631 -54.54677,-40.3105 l -17.21063,-17.0919 -3.13296,2.94325 c -3.03787,2.85392 -3.27567,2.87521 -7.8346,0.7012 -2.58591,-1.23313 -5.02037,-2.24205 -5.40995,-2.24205 -0.92058,0 -40.63398,38.83992 -142.12432,138.99833 l -82.25641,81.17693 z M 1072.8053,331.03127 c -6.4853,-8.14814 -15.472,-24.0694 -15.472,-27.411 0,-1.09438 6.5558,-8.08239 14.5684,-15.52892 12.5843,-11.69519 14.7449,-13.22378 15.8643,-11.22348 1.5312,2.73601 1.6977,2.58685 58.8019,-52.67276 27.4861,-26.59824 38.0874,-36.07319 39.1605,-35 3.9288,3.92873 7.765,0.74914 58.1484,-48.19511 28.1199,-27.31667 51.8446,-50.086804 52.7215,-50.600304 0.992,-0.580864 4.8327,2.944275 10.1647,9.329465 4.7137,5.644709 13.6473,15.664849 19.8526,22.266969 7.7483,8.24378 8.6832,9.50634 2.9849,4.03063 l -8.2974,-7.97325 -28.3182,27.9986 c -66.5818,65.83033 -64.7563,64.19706 -72.9849,65.29805 -4.0333,0.53965 -8.7448,1.51516 -10.4699,2.16777 -3.7014,1.40024 -20.9252,17.70854 -83.9775,79.51334 l -46.6203,45.69792 z m 45.8614,-92.71076 c 0,-0.19039 11.85,-12.04039 26.3333,-26.33334 L 1171.3333,186 l -25.9871,26.33333 c -24.1455,24.46707 -26.6795,26.93536 -26.6795,25.98718 z m 265.044,-74.11351 c 1.1922,-0.75645 -5.5202,-7.40384 -22.1431,-21.92883 -40.0541,-34.99896 -49.9612,-45.931929 -51.7481,-57.106615 -0.7102,-4.441528 -2.4742,-7.433208 -7.5423,-12.792015 -3.6384,-3.847059 -7.2319,-6.613547 -7.9856,-6.147752 -0.7887,0.487433 -0.9665,0.193524 -0.4189,-0.692444 1.5006,-2.428 3.9766,-1.864388 13.4095,3.052377 29.0659,15.150172 74.2061,62.774629 81.9802,86.491879 1.4588,4.45061 1.3752,5.40523 -0.6713,7.66667 -1.2858,1.42068 -3.2947,2.57388 -4.4644,2.56265 -1.6079,-0.0155 -1.7094,-0.2852 -0.416,-1.10592 z m -9.3774,-2.96445 c -2.75,-1.45178 -5,-2.93744 -5,-3.3015 0,-0.59405 10.5315,4.32776 11.889,5.55618 1.5342,1.38857 -2.4708,0.0777 -6.889,-2.25468 z m -17.1701,-11.57588 c -1.6584,-2.11475 -1.6113,-2.16191 0.5035,-0.50342 1.2833,1.00647 2.3333,2.05647 2.3333,2.33334 0,1.09738 -1.0949,0.39108 -2.8368,-1.82992 z m -5.3333,-4 c -1.6584,-2.11475 -1.6114,-2.16191 0.5034,-0.50342 2.221,1.74183 2.9274,2.83675 1.8299,2.83675 -0.2768,0 -1.3268,-1.05 -2.3333,-2.33333 z M 1343.8991,139 l -3.2324,-3.66667 3.6666,3.23242 c 2.0167,1.77784 3.6667,3.42784 3.6667,3.66666 0,1.04571 -1.0797,0.19464 -4.1009,-3.23241 z"
         id="path932" />
      <path
         style="fill:#00a300;stroke-width:1.33333"
         d="m 72.024724,1320.3783 c -5.476025,-6.2211 -14.691391,-23.4009 -14.691391,-27.3885 0,-3.3393 235.594147,-236.2453 239.482587,-236.7501 3.93852,-0.5113 17.65944,6.7746 29.09051,15.4473 18.60682,14.1168 48.35341,46.8732 58.60438,64.534 5.53144,9.5298 6.41712,13.8276 3.57328,17.3396 -2.34865,2.9004 -2.46785,2.9097 -8.37801,0.6526 -12.77827,-4.88 -41.46872,-27.4856 -58.30856,-45.942 l -8.92432,-9.781 -100.56993,99.054 C 81.724939,1325.7603 80.79238,1326.6667 79.045659,1326.6667 c -0.817132,0 -3.976552,-2.8298 -7.020935,-6.2884 z M 354.66667,1106.8465 c 0,-1.8218 -5.28162,-8.0583 -8.1034,-9.5685 -3.86084,-2.0663 -3.38504,2.7792 0.7064,7.194 3.14894,3.3977 7.397,4.7614 7.397,2.3745 z m 50.89518,-116.00274 c -7.67473,-10.09513 -14.85301,-23.44173 -14.87829,-27.66324 -0.0229,-3.82059 235.82268,-237.84719 239.69584,-237.84719 8.42764,0 32.21555,17.07027 53.74356,38.56651 17.36068,17.33508 30.33671,33.99339 36.24684,46.53281 3.47325,7.36916 3.761,8.8316 2.28156,11.59595 -0.93112,1.73981 -2.49425,3.47079 -3.47364,3.84661 -2.16829,0.83206 -18.45184,-7.3761 -23.90081,-12.04785 l -3.94358,-3.38108 4,2.55824 c 2.2,1.40703 4.9,3.07241 6,3.70084 1.1,0.62844 -5.4736,-6.32319 -14.60801,-15.44804 -21.99388,-21.97089 -44.11813,-46.30193 -53.06223,-58.35489 -3.98514,-5.37034 -7.53137,-9.4786 -7.88049,-9.12947 -0.34913,0.34913 0.70129,3.74057 2.33428,7.53655 l 2.96907,6.90177 -81.61812,81.56103 -81.61812,81.56102 5.50901,0.41491 c 4.24885,0.32 6.47723,-0.34184 9.74181,-2.89343 2.32804,-1.81958 38.10792,-36.67229 79.51084,-77.45046 l 75.27804,-74.14212 5.22912,6.36888 c 2.87602,3.50289 13.7009,14.76889 24.0553,25.03556 10.3544,10.26666 16.42617,16.63908 13.49284,14.16092 -2.93334,-2.47816 -12.01251,-10.964 -20.17595,-18.85743 L 645.64809,769.61848 529.00393,884.70201 412.35976,999.78556 Z M 687.82992,808.33333 c -1.65849,-2.11474 -1.61133,-2.1619 0.50341,-0.50341 1.28334,1.00647 2.33334,2.05647 2.33334,2.33333 0,1.09739 -1.09492,0.39108 -2.83675,-1.82992 z M 748,671.70183 c -10.89112,-12.64011 -12.34176,-14.48219 -11.09596,-14.09007 0.67843,0.21353 50.42353,-48.06491 110.54468,-107.2854 60.12116,-59.22051 110.60307,-108.57852 112.18203,-109.68447 2.57568,-1.80408 3.35805,-1.77846 7.60978,0.24904 4.6385,2.21195 4.8102,2.19291 8.1002,-0.89788 1.95448,-1.83614 3.7918,-2.635 4.38998,-1.90873 0.5658,0.68696 6.70785,7.24901 13.64901,14.58235 6.94118,7.33333 10.66748,11.56837 8.28068,9.4112 l -4.33963,-3.92215 -4.33921,4.20573 -4.3392,4.20574 -6.28884,-2.26146 -6.28884,-2.26145 -21.03235,20.71023 C 837.95775,598.03607 755.57591,678.66655 754.86547,678.66601 754.38945,678.66565 751.3,675.53177 748,671.70183 Z M 726.83941,641.43939 C 725.27773,637.80916 724,633.74753 724,632.41353 c 0,-2.8734 110.977,-114.32541 112.41064,-112.89178 0.52816,0.52817 7.85641,-5.84358 16.28501,-14.15943 8.42859,-8.31585 15.56715,-14.87432 15.86346,-14.57436 0.2963,0.29996 0.1937,2.34228 -0.22803,4.53849 -0.58199,3.03086 -16.41975,19.7643 -65.72115,69.43794 -62.7943,63.26841 -65.0258,65.69048 -67.10202,72.83244 -3.20027,11.00853 -5.20372,11.89662 -8.6685,3.84256 z M 816.66667,540 c 10.98166,-11 19.66665,-20 19.29998,-20 -0.36666,0 -9.65165,9 -20.63332,20 -10.98166,11 -19.66665,20 -19.29998,20 0.36666,0 9.65165,-9 20.63332,-20 z m 234.00003,-44.94592 c 1.1,-0.40445 3.2,-1.70709 4.6666,-2.89473 2.644,-2.14096 2.6451,-2.1338 0.1267,0.84065 -1.397,1.65 -3.497,2.95263 -4.6667,2.89473 -1.805,-0.0893 -1.8242,-0.21648 -0.1266,-0.84065 z m -32.1701,-18.72075 c -1.6585,-2.11474 -1.6113,-2.1619 0.5034,-0.50341 2.221,1.74183 2.9273,2.83675 1.8299,2.83675 -0.2768,0 -1.3268,-1.05 -2.3333,-2.33334 z m -7.2899,-6 -2.54,-3 3,2.53999 c 2.8192,2.38696 3.607,3.46001 2.54,3.46001 -0.2531,0 -1.6031,-1.35 -3,-3 z M 1044,468.37291 c -2.7357,-1.02576 -21.823,-14.40432 -30.0736,-21.07911 -24.67828,-19.96467 -38.93476,-33.87147 -47.09555,-45.94033 -1.74302,-2.57774 -3.84302,-5.12762 -4.66666,-5.66639 -3.90962,-2.55741 3.28229,-0.64712 10.50248,2.78964 16.1842,7.70357 41.57483,29.17408 58.94243,49.84208 16.3388,19.44368 18.0201,22.16477 12.3909,20.05411 z m -88,-68.87632 c 0,-0.27687 1.05,-1.32687 2.33333,-2.33334 2.11475,-1.65849 2.16191,-1.61133 0.50342,0.50342 -1.74183,2.221 -2.83675,2.9273 -2.83675,1.82992 z m 136.4559,-45.22394 c -10.1591,-10.76278 -15.5567,-17.08428 -14.2422,-16.67998 0.7284,0.22402 29.4783,-27.11142 63.8887,-60.74544 34.4103,-33.63403 64.3643,-61.91746 66.5643,-62.85207 2.2,-0.93461 7.3,-2.13285 11.3333,-2.66275 8.2312,-1.08141 6.3658,0.58706 72.9979,-65.2933 l 28.3312,-28.01161 7.0021,7.04673 c 3.8512,3.8757 5.9519,6.65521 4.6682,6.1767 -1.8022,-0.67182 -22.0031,18.56067 -88.6667,84.41618 -47.483,46.90742 -99.8895,98.54442 -116.459,114.74888 l -30.1263,29.46266 z M 1182,174.66667 c 6.5694,-6.6 12.2444,-12 12.6111,-12 0.3666,0 -4.7083,5.4 -11.2778,12 -6.5694,6.6 -12.2444,12 -12.611,12 -0.3667,0 4.7083,-5.4 11.2777,-12 z m 167.1632,-30.33334 c -1.6584,-2.11474 -1.6113,-2.1619 0.5035,-0.50341 2.2209,1.74183 2.9273,2.83675 1.8298,2.83675 -0.2768,0 -1.3268,-1.05 -2.3333,-2.33334 z m -9.2641,-8 -3.2324,-3.66666 3.6666,3.23241 c 2.0167,1.77784 3.6667,3.42784 3.6667,3.66667 0,1.0457 -1.0797,0.19464 -4.1009,-3.23242 z M 1357.2324,109.66667 1354,106 l 3.6667,3.23242 c 2.0166,1.77783 3.6666,3.42783 3.6666,3.66667 0,1.04569 -1.0797,0.19463 -4.1009,-3.23242 z m -15.3591,-15.333337 -2.54,-3 3,2.539984 c 1.65,1.396991 3,2.746991 3,3 0,1.067004 -1.073,0.279276 -3.46,-2.539984 z"
         id="path930" />
      <path
         style="fill:#009a00;stroke-width:1.33333"
         d="M 88.356645,1339.6667 C 83.133401,1334.35 77.195169,1327.9 75.160575,1325.3333 l -3.699266,-4.6666 3.534838,3.1686 c 1.94416,1.7428 4.315365,2.8582 5.269345,2.4786 0.95398,-0.3796 43.913698,-42.3056 95.466038,-93.1687 51.55235,-50.8632 103.45235,-101.7947 115.33334,-113.181 l 21.6018,-20.7026 17.30509,17.3692 c 9.5178,9.5531 13.85091,14.4584 9.62911,10.9007 l -7.67599,-6.4685 -6.29577,5.7509 c -3.46268,3.163 -55.72936,54.5238 -116.14818,114.1351 -60.41882,59.6114 -110.251793,108.3843 -110.739939,108.3843 -0.488146,0 -5.161102,-4.35 -10.384346,-9.6666 z M 76,1271.3333 C 86.614363,1260.7 95.59884,1252 95.965507,1252 c 0.366666,0 -8.017811,8.7 -18.632174,19.3333 -10.614362,10.6334 -19.59884,19.3334 -19.965506,19.3334 -0.366667,0 8.01781,-8.7 18.632173,-19.3334 z m 142,-140.6666 c 15.38691,-15.4 28.27619,-28 28.64285,-28 0.36667,0 -11.92261,12.6 -27.30952,28 -15.3869,15.4 -28.27618,28 -28.64285,28 -0.36667,0 11.92261,-12.6 27.30952,-28 z m 144.48104,14.5875 -3.14771,-2.7458 3.66667,2.2325 c 2.01667,1.2278 3.66667,2.4635 3.66667,2.7458 0,1.0411 -1.11399,0.4469 -4.18563,-2.2325 z m -6.65112,-4.9209 c -1.65849,-2.1147 -1.61133,-2.1619 0.50341,-0.5034 2.221,1.7418 2.92731,2.8368 1.82992,2.8368 -0.27686,0 -1.32686,-1.05 -2.33333,-2.3334 z m -5.9566,-4.6666 -2.53999,-3 3,2.54 c 2.81926,2.3869 3.60699,3.46 2.53999,3.46 -0.25301,0 -1.60301,-1.35 -3,-3 z m 14.02576,-27.3334 -3.23241,-3.6666 3.66666,3.2324 c 3.42706,3.0212 4.27812,4.1009 3.23242,4.1009 -0.23883,0 -1.88883,-1.65 -3.66667,-3.6667 z m -16.62941,-3.8613 c -4.09144,-4.4148 -4.56724,-9.2603 -0.7064,-7.194 2.82178,1.5102 8.1034,7.7467 8.1034,9.5685 0,2.3869 -4.24806,1.0232 -7.397,-2.3745 z M 349.91612,1093 346,1088.6667 l 4.33333,3.9161 c 4.03928,3.6504 4.9462,4.7505 3.91612,4.7505 -0.22946,0 -2.17946,-1.95 -4.33333,-4.3333 z m -15.41953,-14 c -1.6585,-2.1147 -1.61134,-2.1619 0.50341,-0.5034 1.28333,1.0065 2.33333,2.0565 2.33333,2.3333 0,1.0974 -1.09492,0.3911 -2.83674,-1.8299 z m 93.00896,-63.2845 c -7.79472,-7.5988 -14.17222,-14.5105 -14.17222,-15.3593 0,-0.84869 52.35,-53.1976 116.33334,-116.33088 L 646,769.23753 l 2.66667,3.16379 c 3.11388,3.69436 26.61434,25.95233 35.33333,33.46521 3.3,2.84351 4.8,4.35152 3.33333,3.35114 -1.46666,-1.00039 -4.68277,-3.52334 -7.1469,-5.60654 l -4.48026,-3.78764 -10.85308,10.41906 c -5.9692,5.73048 -50.75309,49.71148 -99.51976,97.73557 -48.76666,48.02409 -96.53917,95.01988 -106.16112,104.43508 l -17.49444,17.1185 z m -34.17222,-59.04883 c 1.72234,-1.83334 3.43151,-3.33334 3.79818,-3.33334 0.36666,0 -0.74251,1.5 -2.46484,3.33334 C 392.94433,958.5 391.23516,960 390.86849,960 c -0.36666,0 0.74251,-1.5 2.46484,-3.33333 z m 133.33334,-132 c 12.81761,-12.83334 23.60476,-23.33334 23.97142,-23.33334 0.36667,0 -9.82048,10.5 -22.63809,23.33334 C 515.18239,837.5 504.39524,848 504.02857,848 c -0.36666,0 9.82048,-10.5 22.6381,-23.33333 z m 175.25484,-5.4069 c -2.48536,-1.99118 -2.46902,-2.0158 0.41182,-0.61974 1.65,0.79958 3,1.73268 3,2.07354 0,1.0203 -0.69148,0.72566 -3.41182,-1.4538 z m -10.09159,-6.92644 c -1.65849,-2.11474 -1.61133,-2.1619 0.50341,-0.50341 1.28334,1.00647 2.33334,2.05647 2.33334,2.33333 0,1.09739 -1.09492,0.39108 -2.83675,-1.82992 z m 5.33333,-34.66666 c -1.65849,-2.11475 -1.61133,-2.16191 0.50342,-0.50342 1.28333,1.00647 2.33333,2.05647 2.33333,2.33334 0,1.09738 -1.09492,0.39108 -2.83675,-1.82992 z m -28,-28 c -1.65849,-2.11475 -1.61133,-2.16191 0.50342,-0.50342 1.28333,1.00647 2.33333,2.05647 2.33333,2.33334 0,1.09738 -1.09492,0.39108 -2.83675,-1.82992 z m 95.61824,-59.85223 -10.38569,-10.18555 8.46877,-8.25993 c 9.07654,-8.85272 157.2383,-154.29727 192.16776,-188.64352 l 21.03235,-20.68116 6.28884,2.26145 6.28884,2.26146 4.24651,-4.11588 4.2465,-4.11588 11.22643,9.5593 11.2265,9.55931 -74.12749,72.87555 c -40.77012,40.08154 -82.02718,80.60385 -91.68237,90.04956 l -17.55489,17.174 -7.11178,-0.88167 L 822,655.78983 799.12115,677.89491 C 786.53777,690.05271 776.00039,700 775.70473,700 c -0.29564,0 -5.2111,-4.58349 -10.92324,-10.18556 z M 746.56575,671 743.33333,667.33333 747,670.56575 c 2.01667,1.77784 3.66667,3.42784 3.66667,3.66666 0,1.04571 -1.07974,0.19464 -4.10092,-3.23241 z M 850.66667,503.33333 C 859.07608,494.9 866.25651,488 866.62317,488 c 0.36667,0 -6.21376,6.9 -14.62317,15.33333 -8.40941,8.43334 -15.58984,15.33334 -15.95651,15.33334 -0.36666,0 6.21376,-6.9 14.62318,-15.33334 z m 171.82993,-23 c -1.6585,-2.11474 -1.6113,-2.1619 0.5034,-0.50341 1.2833,1.00647 2.3333,2.05647 2.3333,2.33333 0,1.09739 -1.0949,0.39108 -2.8367,-1.82992 z M 1109,369.90137 c -5.6833,-4.76393 -10.3333,-9.09757 -10.3333,-9.63033 0,-1.1462 228.8107,-227.07524 231.6715,-228.75378 1.2912,-0.75757 3.0143,-0.30304 5.0549,1.33334 1.7026,1.36551 8.0858,6.58117 14.1848,11.59037 6.0988,5.00919 15.5398,11.73787 20.98,14.9526 8.8414,5.22471 9.3786,5.7618 5.0617,5.06126 -5.4507,-0.88451 -7.4296,0.5511 -31.0775,22.54517 -12.5449,11.66771 -14.3319,12.83084 -15.8754,10.33333 C 1328.2134,196.6 1326.6589,196 1325.2121,196 c -2.7967,0 -8.094,5.02865 -107.6975,102.23483 -51.4066,50.16938 -60.8496,58.83464 -62.9123,57.73072 -5.8865,-3.15034 -9.1121,-1.56644 -21.7929,10.70112 -6.8224,6.6 -12.6454,11.97668 -12.9402,11.94818 -0.2947,-0.0285 -5.1859,-3.94956 -10.8692,-8.71348 z m 273.4167,-204.14552 c 0.9625,-0.38516 2.1125,-0.3378 2.5556,0.1052 0.443,0.44307 -0.3446,0.75819 -1.75,0.7003 -1.5534,-0.064 -1.8692,-0.37992 -0.8056,-0.80555 z m 4.25,-0.92593 c 0,-0.27687 1.05,-1.32687 2.3333,-2.33333 2.1148,-1.6585 2.1619,-1.61134 0.5035,0.50341 -1.7419,2.221 -2.8368,2.92731 -2.8368,1.82992 z M 1202,154.66667 c 4.3541,-4.4 8.2165,-8 8.5832,-8 0.3667,0 -2.8958,3.6 -7.2499,8 -4.3541,4.4 -8.2165,8 -8.5832,8 -0.3666,0 2.8958,-3.6 7.2499,-8 z"
         id="path928" />
      <path
         style="fill:#009600;stroke-width:1.33333"
         d="m 142,1384.8117 c -13.17499,-6.2492 -41.33526,-28.8748 -50.795288,-40.8117 -3.68764,-4.6532 -3.682219,-4.6515 1.876199,0.5984 l 5.574528,5.2652 15.649461,-15.2652 c 8.60721,-8.3958 58.25973,-57.305 110.33895,-108.6871 52.07922,-51.3821 97.47775,-95.9516 100.88564,-99.0433 l 6.19616,-5.6214 15.80384,12.6778 c 8.69211,6.9728 20.54234,15.1137 26.33384,18.091 l 10.52999,5.4133 3.29121,-3.0477 c 3.12796,-2.8965 -104.78466,104.394 -193.71229,192.5957 -22.7486,22.5628 -42.2486,41.0174 -43.33333,41.0102 -1.08474,-0.013 -4.97224,-1.436 -8.63891,-3.1752 z M 82.565752,1335 79.333333,1331.3333 83,1334.5657 c 3.427052,3.0212 4.278117,4.101 3.232419,4.101 -0.238836,0 -1.888836,-1.65 -3.666667,-3.6667 z m -8.069159,-9.3333 c -1.658494,-2.1148 -1.611334,-2.1619 0.503407,-0.5034 1.283333,1.0064 2.333333,2.0564 2.333333,2.3333 0,1.0974 -1.094914,0.3911 -2.83674,-1.8299 z m -18.39133,-33.1111 c 0.06397,-1.5533 0.379921,-1.8692 0.805556,-0.8056 0.385161,0.9625 0.337792,2.1125 -0.105267,2.5556 -0.443056,0.443 -0.758188,-0.3445 -0.700293,-1.75 z M 135.33333,1212 c 21.99083,-22 40.28334,-40 40.65,-40 0.36667,0 -17.32584,18 -39.31666,40 -21.99084,22 -40.283335,40 -40.650002,40 -0.366667,0 17.325832,-18 39.316662,-40 z m 237.82992,-93 c -1.65849,-2.1147 -1.61133,-2.1619 0.50342,-0.5034 2.221,1.7418 2.9273,2.8367 1.82992,2.8367 -0.27687,0 -1.32687,-1.05 -2.33334,-2.3333 z m -14.56836,-17.3333 -4.59489,-5 5,4.5949 c 2.75,2.5271 5,4.7771 5,5 0,1.0181 -1.12829,0.059 -5.40511,-4.5949 z m -88.59489,-23 c 13.18472,-13.2 24.27221,-24 24.63888,-24 0.36667,0 -10.12083,10.8 -23.30555,24 -13.18472,13.2 -24.27221,24 -24.63888,24 -0.36666,0 10.12083,-10.8 23.30555,-24 z m 71.26156,5.6666 -4.59489,-5 5,4.5949 c 2.75,2.5272 5,4.7772 5,5 0,1.0182 -1.1283,0.059 -5.40511,-4.5949 z M 330.49659,1075 c -1.6585,-2.1147 -1.61134,-2.1619 0.50341,-0.5034 2.221,1.7418 2.92731,2.8367 1.82992,2.8367 -0.27687,0 -1.32687,-1.05 -2.33333,-2.3333 z m 141.76106,-22.2276 c -12.32464,-6.6881 -26.6105,-17.8655 -41.29409,-32.3089 L 418,1007.712 l 11.94769,10.8021 11.9477,10.8021 17.38564,-17.0431 c 9.5621,-9.3738 62.00976,-60.99393 116.55034,-114.71143 88.37787,-87.04416 99.41684,-97.48112 101.48266,-95.94827 1.27486,0.94596 6.45074,4.87497 11.50196,8.73113 5.0512,3.85615 13.78597,9.29712 19.41058,12.09103 l 10.22659,5.07984 -115.78368,114.57563 c -78.60247,77.78237 -116.78225,114.68307 -118.89325,114.91007 -1.71026,0.184 -6.89362,-1.7189 -11.51858,-4.2287 z M 412.53999,1001 410,998 l 3,2.54 c 2.81925,2.3869 3.60699,3.46 2.53999,3.46 -0.25302,0 -1.60302,-1.35 -3,-3 z M 389.4386,961.88889 c 0.064,-1.55326 0.37992,-1.8692 0.80555,-0.80556 0.38516,0.9625 0.3378,2.11251 -0.1052,2.55556 -0.44306,0.44306 -0.75819,-0.34445 -0.7003,-1.75 z m 7.89473,-8.89816 c 0,-0.18841 16.35,-16.53841 36.33334,-36.33333 L 470,880.66667 434.00927,917 c -33.44571,33.76407 -36.67594,36.93395 -36.67594,35.99073 z M 583.33333,768 c 18.32234,-18.33333 33.61334,-33.33333 33.98,-33.33333 0.36667,0 -14.32433,15 -32.64666,33.33333 -18.32234,18.33333 -33.61334,33.33333 -33.98,33.33333 -0.36667,0 14.32433,-15 32.64666,-33.33333 z m 99.96872,-5.66667 -10.63538,-11 11,10.63539 c 10.21646,9.87783 11.60785,11.36461 10.63538,11.36461 -0.20053,0 -5.15053,-4.95 -11,-11 z m -18.1388,-16.66666 c -1.65849,-2.11475 -1.61133,-2.16191 0.50342,-0.50342 1.28333,1.00647 2.33333,2.05647 2.33333,2.33334 0,1.09738 -1.09492,0.39108 -2.83675,-1.82992 z m 140.50016,-22.90944 c -10.25892,-5.6561 -22.55314,-14.814 -31.75249,-23.6523 -4.449,-4.27438 -5.8346,-5.73458 -3.07911,-3.2449 l 5.00999,4.52668 23.07909,-22.29844 L 822,655.78983 l 7.11177,0.88165 7.11178,0.88167 17.55489,-17.1696 c 9.65519,-9.4433 50.62759,-49.69275 91.04977,-89.44324 40.42219,-39.75051 73.84349,-72.27364 74.26949,-72.27364 0.426,0 4.5533,2.62289 9.1718,5.82865 9.1778,6.37051 16.0229,10.12357 20.7885,11.39811 2.7081,0.72424 -10.771,14.55289 -112.87015,115.79785 C 807.3836,739.41788 818.5886,729.88332 805.66341,722.75723 Z m -176.58008,1.66529 c 0.9625,-0.38516 2.11251,-0.3378 2.55556,0.1052 0.44306,0.44305 -0.34445,0.75819 -1.75,0.70029 -1.55326,-0.064 -1.8692,-0.37992 -0.80556,-0.80554 z M 753.93727,679.66667 748.66667,674 l 5.66666,5.2706 c 5.26995,4.9016 6.27938,6.06273 5.2706,6.06273 -0.21784,0 -2.76784,-2.55 -5.66666,-5.66666 z m -31.11594,-47.0143 c -0.10466,-1.81501 7.48952,-10.21285 23.512,-26 L 770,583.33333 747.11136,606.66667 c -12.58876,12.83333 -23.16916,24.53333 -23.512,26 -0.62044,2.65421 -0.62408,2.65414 -0.77803,-0.0143 z M 1053.3333,495.49659 c 0,-0.27687 1.05,-1.32687 2.3334,-2.33334 2.1147,-1.65849 2.1619,-1.61133 0.5034,0.50342 -1.7418,2.221 -2.8368,2.9273 -2.8368,1.82992 z M 895.33333,458.66667 c 16.12083,-16.13334 29.6106,-29.33334 29.97727,-29.33334 0.36667,0 -12.52311,13.2 -28.64393,29.33334 C 880.54584,474.8 867.05607,488 866.6894,488 c -0.36667,0 12.52311,-13.2 28.64393,-29.33333 z m 136.49657,-10.33334 c -1.6585,-2.11474 -1.6113,-2.1619 0.5034,-0.50341 1.2834,1.00647 2.3334,2.05647 2.3334,2.33333 0,1.09739 -1.095,0.39108 -2.8368,-1.82992 z m -14.4966,-15.66666 c -3.2387,-3.3 -5.5885,-6 -5.2219,-6 0.3667,0 3.3166,2.7 6.5553,6 3.2387,3.3 5.5885,6 5.2219,6 -0.3667,0 -3.3166,-2.7 -6.5553,-6 z m -16.17,-15 c -1.65854,-2.11475 -1.61138,-2.16191 0.5034,-0.50342 2.221,1.74183 2.9273,2.83675 1.8299,2.83675 -0.2769,0 -1.3269,-1.05 -2.3333,-2.33333 z m 143.5883,-22.30384 c -6.3604,-2.28564 -24.5108,-14.53626 -32.7516,-22.10566 l -6,-5.51117 7.0398,5.6178 7.0398,5.6178 12.567,-12.15747 c 12.8488,-12.43008 16.0558,-14.01612 21.9557,-10.85858 2.0627,1.10392 11.5057,-7.56134 62.9123,-57.73072 C 1317.1181,201.02865 1322.4154,196 1325.2121,196 c 1.4468,0 3.0013,0.6 3.4546,1.33333 1.5435,2.49751 3.3305,1.33438 15.8754,-10.33333 25.9011,-24.0896 27.3239,-24.92956 35.9731,-21.23643 l 3.8487,1.6433 -115.5696,114.6299 c -63.5632,63.04644 -116.2951,114.7609 -117.1819,114.921 -0.8868,0.1601 -3.9742,-0.55762 -6.8608,-1.59494 z m -50.1567,-37.69616 -4.5949,-5 5,4.59489 c 4.6539,4.27681 5.6131,5.40511 4.5949,5.40511 -0.2228,0 -2.4728,-2.25 -5,-5 z m -14.765,-16 c -1.6585,-2.11475 -1.6113,-2.16191 0.5034,-0.50342 1.2834,1.00647 2.3334,2.05647 2.3334,2.33334 0,1.09738 -1.095,0.39108 -2.8368,-1.82992 z M 1071.3333,284 c 8.7771,-8.8 16.2584,-16 16.625,-16 0.3667,0 -6.5146,7.2 -15.2916,16 -8.7771,8.8 -16.2584,16 -16.625,16 -0.3667,0 6.5146,-7.2 15.2916,-16 z M 1230,126.66667 c 10.9817,-11 20.2667,-20 20.6333,-20 0.3667,0 -8.3183,9 -19.3,20 -10.9816,11 -20.2666,20 -20.6333,20 -0.3667,0 8.3183,-9 19.3,-20 z m 133.8299,-10.33334 c -1.6584,-2.11474 -1.6114,-2.1619 0.5034,-0.5034 2.221,1.74182 2.9274,2.83674 1.8299,2.83674 -0.2768,0 -1.3268,-1.05 -2.3333,-2.33334 z"
         id="path926" />
      <path
         style="fill:#2f2f2f;stroke-width:1.33333"
         d="m 196,1358 c 15.01992,-15.0333 27.60893,-27.3333 27.9756,-27.3333 0.36667,0 -11.62235,12.3 -26.64227,27.3333 -15.01992,15.0333 -27.60893,27.3333 -27.9756,27.3333 -0.36666,0 11.62235,-12.3 26.64227,-27.3333 z M 97.232419,1364.3333 94,1360.6667 l 3.666667,3.2324 c 3.427053,3.0212 4.278113,4.1009 3.232423,4.1009 -0.23884,0 -1.888841,-1.65 -3.666671,-3.6667 z m -18.025768,-18 -2.539984,-3 3,2.54 c 2.81926,2.387 3.606988,3.46 2.539984,3.46 -0.25301,0 -1.60301,-1.35 -3,-3 z M 48,1284.9666 c 0,-0.2017 4.65,-4.8517 10.333333,-10.3333 L 68.666667,1264.6667 58.700037,1275 C 49.443251,1284.5974 48,1285.9417 48,1284.9666 Z m 292.66667,-70.2999 C 355.31959,1200 367.60833,1188 367.975,1188 c 0.36667,0 -11.32208,12 -25.975,26.6667 -14.65292,14.6666 -26.94167,26.6666 -27.30833,26.6666 -0.36667,0 11.32208,-12 25.975,-26.6666 z m -156,-65.3334 c 14.65292,-14.6666 26.94166,-26.6666 27.30833,-26.6666 0.36667,0 -11.32208,12 -25.975,26.6666 C 171.34708,1164 159.05833,1176 158.69167,1176 c -0.36667,0 11.32208,-12 25.975,-26.6667 z m 298.3587,-82.2573 c 1.2973,-0.338 3.0973,-0.3158 4,0.05 0.90271,0.3652 -0.1587,0.6418 -2.3587,0.6146 -2.2,-0.027 -2.93859,-0.326 -1.6413,-0.664 z M 492,1064.9666 c 0,-0.2017 4.65,-4.8517 10.33333,-10.3333 l 10.33334,-9.9666 L 502.70004,1055 C 493.44325,1064.5974 492,1065.9417 492,1064.9666 Z m -82.83675,-52.6333 c -1.65849,-2.1147 -1.61133,-2.1619 0.50342,-0.5034 1.28333,1.0065 2.33333,2.0565 2.33333,2.3334 0,1.0973 -1.09492,0.391 -2.83675,-1.83 z M 630,928 c 14.65292,-14.66667 26.94167,-26.66667 27.30833,-26.66667 0.36667,0 -11.32208,12 -25.975,26.66667 -14.65292,14.66667 -26.94166,26.66667 -27.30833,26.66667 -0.36667,0 11.32208,-12 25.975,-26.66667 z M 474,862.66667 C 488.65292,848 500.94167,836 501.30833,836 c 0.36667,0 -11.32208,12 -25.975,26.66667 -14.65292,14.66666 -26.94166,26.66666 -27.30833,26.66666 -0.36667,0 11.32208,-12 25.975,-26.66666 z m 259.4386,-42.11111 c 0.064,-1.55327 0.37992,-1.8692 0.80555,-0.80556 0.38516,0.96249 0.3378,2.11251 -0.1052,2.55556 -0.44306,0.44305 -0.75819,-0.34445 -0.7003,-1.75 z M 606,732 c 8.04165,-8.06667 14.92119,-14.66667 15.28785,-14.66667 0.36667,0 -5.91286,6.6 -13.95452,14.66667 -8.04165,8.06667 -14.92118,14.66667 -15.28785,14.66667 -0.36667,0 5.91287,-6.6 13.95452,-14.66667 z m 72.49659,12.33333 c -1.6585,-2.11474 -1.61134,-2.1619 0.50341,-0.50341 2.221,1.74183 2.92731,2.83675 1.82992,2.83675 -0.27687,0 -1.32687,-1.05 -2.33333,-2.33334 z M 755.2706,695.66667 750,690 l 5.66667,5.2706 c 5.26994,4.9016 6.27937,6.06273 5.2706,6.06273 -0.21784,0 -2.76784,-2.55 -5.66667,-5.66666 z M 739.82992,679 c -1.65849,-2.11475 -1.61133,-2.16191 0.50341,-0.50341 2.221,1.74182 2.92731,2.83674 1.82992,2.83674 -0.27686,0 -1.32686,-1.05 -2.33333,-2.33333 z m 179.50341,-37.66667 c 14.65292,-14.66666 26.94167,-26.66666 27.30834,-26.66666 0.36666,0 -11.32208,12 -25.975,26.66666 C 906.01375,656 893.725,668 893.35833,668 c -0.36666,0 11.32208,-12 25.975,-26.66667 z M 763.33333,576 c 14.65292,-14.66667 26.94167,-26.66667 27.30834,-26.66667 0.36666,0 -11.32208,12 -25.975,26.66667 -14.65292,14.66667 -26.94167,26.66667 -27.30834,26.66667 -0.36666,0 11.32208,-12 25.975,-26.66667 z M 1051.3333,510.66667 C 1059.375,502.6 1066.2545,496 1066.6212,496 c 0.3667,0 -5.9129,6.6 -13.9545,14.66667 -8.0417,8.06666 -14.9212,14.66666 -15.2879,14.66666 -0.3667,0 5.9129,-6.6 13.9545,-14.66666 z M 907.33333,433.33333 c 14.65292,-14.66666 26.94167,-26.66666 27.30834,-26.66666 0.36666,0 -11.32208,12 -25.975,26.66666 C 894.01375,448 881.725,460 881.35833,460 c -0.36666,0 11.32208,-12 25.975,-26.66667 z m 133.82997,11 c -1.6585,-2.11474 -1.6114,-2.1619 0.5034,-0.50341 2.221,1.74183 2.9273,2.83675 1.8299,2.83675 -0.2769,0 -1.3269,-1.05 -2.3333,-2.33334 z M 1029.2616,431 l -4.5949,-5 5,4.59489 c 4.6539,4.27682 5.613,5.40511 4.5949,5.40511 -0.2229,0 -2.4729,-2.25 -5,-5 z m -12.0292,-12 -3.2324,-3.66667 3.6667,3.23242 c 2.0166,1.77784 3.6666,3.42784 3.6666,3.66666 0,1.04571 -1.0797,0.19464 -4.1009,-3.23241 z m -56.89907,-34.58577 c 1.28334,-0.33536 3.38334,-0.33536 4.66667,0 1.28333,0.33537 0.23333,0.60977 -2.33333,0.60977 -2.56667,0 -3.61667,-0.2744 -2.33334,-0.60977 z M 1208.6667,354.66667 C 1223.3196,340 1235.6083,328 1235.975,328 c 0.3667,0 -11.3221,12 -25.975,26.66667 -14.6529,14.66666 -26.9417,26.66666 -27.3083,26.66666 -0.3667,0 11.322,-12 25.975,-26.66666 z M 1096.5828,373 l -3.9161,-4.33333 4.3333,3.91612 c 2.3833,2.15386 4.3333,4.10386 4.3333,4.33333 0,1.03008 -1.1001,0.1232 -4.7505,-3.91612 z M 1081.2324,357.66667 1078,354 l 3.6667,3.23241 c 2.0166,1.77784 3.6666,3.42784 3.6666,3.66667 0,1.04571 -1.0797,0.19464 -4.1009,-3.23241 z m -17.8991,-79 c 8.7771,-8.8 16.2584,-16 16.625,-16 0.3667,0 -6.5146,7.2 -15.2916,16 -8.7771,8.8 -16.2584,16 -16.625,16 -0.3667,0 6.5146,-7.2 15.2916,-16 z M 1352.6667,212 c 14.6529,-14.66667 26.9416,-26.66667 27.3082,-26.66667 0.3667,0 -11.322,12 -25.9749,26.66667 -14.6529,14.66667 -26.9417,26.66667 -27.3083,26.66667 -0.3667,0 11.322,-12 25.975,-26.66667 z m -156,-65.33333 C 1211.3196,132 1223.6083,120 1223.975,120 c 0.3667,0 -11.3221,12 -25.975,26.66667 -14.6529,14.66666 -26.9417,26.66666 -27.3083,26.66666 -0.3667,0 11.322,-12 25.975,-26.66666 z M 1371.8299,111 c -1.6584,-2.11474 -1.6114,-2.1619 0.5034,-0.50341 1.2834,1.00646 2.3334,2.05646 2.3334,2.33334 0,1.09738 -1.095,0.39107 -2.8368,-1.82993 z m -15.2899,-16.666667 -2.54,-3 3,2.539984 c 1.65,1.396991 3,2.746991 3,3 0,1.067004 -1.0731,0.279276 -3.46,-2.539984 z"
         id="path924" />
      <path
         style="fill:#007000;stroke-width:1.33333"
         d="m 194.66667,1346 c 21.62401,-21.6333 39.61638,-39.3333 39.98305,-39.3333 0.36667,0 -17.02571,17.7 -38.64972,39.3333 -21.62401,21.6333 -39.61639,39.3333 -39.98305,39.3333 -0.36667,0 17.0257,-17.7 38.64972,-39.3333 z m -80.17008,21 c -1.65849,-2.1148 -1.61133,-2.1619 0.50341,-0.5035 2.221,1.7419 2.92731,2.8368 1.82993,2.8368 -0.27688,0 -1.32688,-1.05 -2.33334,-2.3333 z m -10.56837,-9.3333 -4.594887,-5 4.999997,4.5949 c 4.6539,4.2768 5.61305,5.4051 4.59489,5.4051 -0.22281,0 -2.47281,-2.25 -5,-5 z m -15.999997,-16 -4.59489,-5 5,4.5949 c 2.75,2.5272 5,4.7772 5,5 0,1.0181 -1.128288,0.059 -5.40511,-4.5949 z m -10.764963,-12 c -1.658495,-2.1148 -1.611335,-2.1619 0.503407,-0.5034 2.220997,1.7418 2.927305,2.8367 1.829926,2.8367 -0.276874,0 -1.326874,-1.05 -2.333333,-2.3333 z M 76,1270 c 11.34892,-11.3667 20.9344,-20.6667 21.301067,-20.6667 0.366666,0 -8.618814,9.3 -19.967734,20.6667 -11.34892,11.3667 -20.9344,20.6667 -21.301066,20.6667 -0.366667,0 8.618813,-9.3 19.967733,-20.6667 z m 262.66667,-66.6667 C 360.29068,1181.7 378.28305,1164 378.64972,1164 c 0.36667,0 -17.02571,17.7 -38.64972,39.3333 -21.62401,21.6334 -39.61639,39.3334 -39.98305,39.3334 -0.36667,0 17.0257,-17.7 38.64972,-39.3334 z m -130,-64.6666 c 18.32233,-18.3334 33.61333,-33.3334 33.98,-33.3334 0.36666,0 -14.32434,15 -32.64667,33.3334 C 191.67767,1157 176.38667,1172 176.02,1172 c -0.36667,0 14.32433,-15 32.64667,-33.3333 z m 156.49658,-30.3334 c -1.65849,-2.1147 -1.61133,-2.1619 0.50342,-0.5034 1.28333,1.0065 2.33333,2.0565 2.33333,2.3334 0,1.0973 -1.09492,0.391 -2.83675,-1.83 z m -14.49658,-15.6666 c -3.23871,-3.3 -5.58856,-6 -5.2219,-6 0.36667,0 3.31652,2.7 6.55523,6 3.23871,3.3 5.58856,6 5.22189,6 -0.36666,0 -3.31652,-2.7 -6.55522,-6 z m -16.17008,-15 c -1.6585,-2.1148 -1.61134,-2.1619 0.50341,-0.5034 1.28333,1.0064 2.33333,2.0564 2.33333,2.3333 0,1.0974 -1.09492,0.3911 -2.83674,-1.8299 z m 170.17008,-39 C 514.91368,1028.4 523.59761,1020 523.96428,1020 c 0.36667,0 -7.71727,8.4 -17.96428,18.6667 -10.24701,10.2666 -18.93095,18.6666 -19.29761,18.6666 -0.36667,0 7.71726,-8.4 17.96428,-18.6666 z m -62.79335,-7 -2.53999,-3 3,2.54 c 1.65,1.3969 3,2.7469 3,3 0,1.067 -1.07305,0.2792 -3.46001,-2.54 z M 415.20665,1005 l -2.53998,-3 3,2.54 c 2.81925,2.3869 3.60698,3.46 2.53998,3.46 -0.25301,0 -1.60301,-1.35 -3,-3 z M 628,916.66667 c 21.62401,-21.63334 39.61639,-39.33334 39.98305,-39.33334 0.36667,0 -17.0257,17.7 -38.64972,39.33334 C 607.70932,938.3 589.71695,956 589.35028,956 588.98361,956 606.37599,938.3 628,916.66667 Z m -126.66667,-68 C 519.28877,830.7 534.27959,816 534.64625,816 c 0.36667,0 -14.02414,14.7 -31.97958,32.66667 -17.95544,17.96666 -32.94626,32.66666 -33.31292,32.66666 -0.36667,0 14.02414,-14.7 31.97958,-32.66666 z M 720,826.16325 c 0,-0.27686 1.05,-1.32686 2.33333,-2.33333 2.11475,-1.65849 2.16191,-1.61133 0.50342,0.50341 -1.74183,2.221 -2.83675,2.92731 -2.83675,1.82992 z m -23.46001,-50.49658 -2.53999,-3 3,2.53998 c 1.65,1.39699 3,2.74699 3,3 0,1.067 -1.07305,0.27927 -3.46001,-2.53998 z m -26.0434,-26 c -1.6585,-2.11475 -1.61134,-2.16191 0.50341,-0.50342 1.28333,1.00647 2.33333,2.05647 2.33333,2.33334 0,1.09738 -1.09492,0.39108 -2.83674,-1.82992 z M 619.33333,732 c 1.32732,-1.46667 2.71331,-2.66667 3.07998,-2.66667 0.36666,0 -0.41932,1.2 -1.74664,2.66667 -1.32732,1.46667 -2.71331,2.66667 -3.07998,2.66667 -0.36666,0 0.41932,-1.2 1.74664,-2.66667 z M 624,727.49659 c 0,-0.27687 1.05,-1.32687 2.33333,-2.33334 2.11475,-1.65849 2.16191,-1.61133 0.50342,0.50342 -1.74183,2.221 -2.83675,2.9273 -2.83675,1.82992 z m 191.66667,-0.37963 c 0.91666,-0.36988 2.41666,-0.36988 3.33333,0 0.91667,0.36988 0.16667,0.67252 -1.66667,0.67252 -1.83333,0 -2.58333,-0.30264 -1.66666,-0.67252 z m -37.79335,-23.45029 -2.53999,-3 3,2.53998 c 2.81926,2.38696 3.60699,3.46002 2.53999,3.46002 -0.25301,0 -1.60301,-1.35 -3,-3 z m -17.24839,-16 -7.95826,-8.33334 L 761,687.2916 c 7.74096,7.39255 8.94347,8.7084 7.95827,8.7084 -0.2063,0 -3.9563,-3.75 -8.33334,-8.33333 z m -14.75161,-16 -2.53999,-3 3,2.53998 c 1.65,1.39699 3,2.74699 3,3 0,1.067 -1.07305,0.27927 -3.46001,-2.53998 z M 917.33333,630 c 21.62402,-21.63333 39.61639,-39.33333 39.98306,-39.33333 0.36666,0 -17.02571,17.7 -38.64972,39.33333 -21.62402,21.63333 -39.61639,39.33333 -39.98306,39.33333 -0.36666,0 17.02571,-17.7 38.64972,-39.33333 z m -118,-76.66667 c 16.85471,-16.86666 30.94492,-30.66666 31.31159,-30.66666 0.36667,0 -13.12355,13.8 -29.97825,30.66666 C 783.81196,570.2 769.72175,584 769.35508,584 c -0.36667,0 13.12355,-13.8 29.97825,-30.66667 z M 1038,510.66667 C 1046.0417,502.6 1052.9212,496 1053.2879,496 c 0.3666,0 -5.9129,6.6 -13.9546,14.66667 -8.0416,8.06666 -14.9212,14.66666 -15.2878,14.66666 -0.3667,0 5.9128,-6.6 13.9545,-14.66666 z M 1025.8733,441 l -2.54,-3 3,2.53999 c 1.65,1.39698 3,2.74698 3,3 0,1.067 -1.073,0.27926 -3.46,-2.53999 z M 942,412 c 9.51217,-9.53333 17.59485,-17.33333 17.96152,-17.33333 0.36667,0 -7.11601,7.8 -16.62819,17.33333 -9.51217,9.53333 -17.59485,17.33333 -17.96152,17.33333 -0.36666,0 7.11602,-7.8 16.62819,-17.33333 z m 65.8991,11 -3.2324,-3.66667 3.6666,3.23242 c 2.0167,1.77784 3.6667,3.42784 3.6667,3.66666 0,1.04571 -1.0797,0.19464 -4.1009,-3.23241 z m -45.48243,-29.24415 c 0.96249,-0.38516 2.1125,-0.3378 2.55556,0.1052 0.44305,0.44306 -0.34446,0.75819 -1.75,0.7003 -1.55327,-0.064 -1.8692,-0.37992 -0.80556,-0.80555 z m 242.91663,-49.08918 c 20.8904,-20.9 38.2825,-38 38.6492,-38 0.3666,0 -16.4255,17.1 -37.3158,38 -20.8904,20.9 -38.2825,38 -38.6492,38 -0.3666,0 16.4255,-17.1 37.3158,-38 z m -90.8367,31.66666 c -1.6585,-2.11474 -1.6113,-2.1619 0.5034,-0.50341 2.221,1.74183 2.9273,2.83675 1.8299,2.83675 -0.2768,0 -1.3268,-1.05 -2.3333,-2.33334 z m -11.2471,-10 -3.9162,-4.33333 4.3334,3.91612 c 2.3833,2.15387 4.3333,4.10387 4.3333,4.33333 0,1.03008 -1.1002,0.1232 -4.7505,-3.91612 z M 1086.5657,349.66667 1083.3333,346 1087,349.23241 c 2.0167,1.77784 3.6667,3.42784 3.6667,3.66667 0,1.04571 -1.0798,0.19464 -4.101,-3.23241 z M 1114,241.33333 c 14.6529,-14.66666 26.9417,-26.66666 27.3083,-26.66666 0.3667,0 -11.322,12 -25.975,26.66666 C 1100.6804,256 1088.3917,268 1088.025,268 c -0.3667,0 11.3221,-12 25.975,-26.66667 z M 1347.3333,204 c 20.5235,-20.53333 37.6155,-37.33333 37.9822,-37.33333 0.3666,0 -16.1254,16.8 -36.6488,37.33333 -20.5235,20.53333 -37.6155,37.33333 -37.9822,37.33333 -0.3666,0 16.1253,-16.8 36.6488,-37.33333 z m 3.9643,-101.66667 -9.2976,-9.666663 9.6667,9.297573 c 8.9784,8.63559 10.2756,10.03576 9.2976,10.03576 -0.2031,0 -4.5531,-4.35 -9.6667,-9.66667 z M 1269.3333,87.333333 C 1279.9477,76.7 1288.9322,68 1289.2988,68 c 0.3667,0 -8.0178,8.7 -18.6321,19.333333 -10.6144,10.633334 -19.5989,19.333337 -19.9655,19.333337 -0.3667,0 8.0178,-8.700003 18.6321,-19.333337 z"
         id="path922" />
      <path
         style="fill:#004f00;stroke-width:1.33333"
         d="m 81.16326,1335 c -1.658495,-2.1147 -1.611335,-2.1619 0.503407,-0.5035 2.220997,1.7419 2.927305,2.8368 1.829926,2.8368 -0.276874,0 -1.326874,-1.05 -2.333333,-2.3333 z M 248,1294.3205 c 0,-0.1904 11.85,-12.0404 26.33333,-26.3333 L 300.66667,1242 274.67949,1268.3333 C 250.53405,1292.8004 248,1295.2687 248,1294.3205 Z m -127.33333,-68.9872 c 13.18472,-13.2 24.27221,-24 24.63888,-24 0.36666,0 -10.12083,10.8 -23.30555,24 -13.18472,13.2 -24.272217,24 -24.638884,24 -0.366667,0 10.120834,-10.8 23.305554,-24 z m 266,-68.5034 c 0,-0.2768 1.05,-1.3268 2.33333,-2.3333 2.11475,-1.6585 2.16191,-1.6113 0.50341,0.5034 -1.74182,2.221 -2.83674,2.9273 -2.83674,1.8299 z m -120,-76.1632 C 280.21847,1067.1 291.60631,1056 291.97297,1056 c 0.36667,0 -10.42117,11.1 -23.97297,24.6667 -13.5518,13.5666 -24.93964,24.6666 -25.30631,24.6666 -0.36666,0 10.42118,-11.1 23.97298,-24.6666 z m 92.53998,20.3333 -2.53998,-3 3,2.54 c 2.81925,2.3869 3.60698,3.46 2.53998,3.46 -0.25301,0 -1.60301,-1.35 -3,-3 z m -17.33333,-17.3333 -2.53999,-3 3,2.54 c 2.81926,2.3869 3.60699,3.46 2.53999,3.46 -0.25301,0 -1.60301,-1.35 -3,-3 z M 427.96148,1019 l -8.62815,-9 9,8.6281 c 4.95,4.7455 9,8.7955 9,9 0,0.9814 -1.35765,-0.2685 -9.37185,-8.6281 z m 109.37185,-11.3462 c 0,-0.1903 11.85,-12.04035 26.33334,-26.33329 L 590,955.33333 564.01283,981.66667 c -24.14544,24.46703 -26.6795,26.93533 -26.6795,25.98713 z M 412,936.66667 c 12.81761,-12.83334 23.60476,-23.33334 23.97143,-23.33334 0.36666,0 -9.82048,10.5 -22.6381,23.33334 C 400.51572,949.5 389.72857,960 389.36191,960 388.99524,960 399.18239,949.5 412,936.66667 Z M 700,846 c 10.61436,-10.63333 19.59884,-19.33333 19.96551,-19.33333 0.36666,0 -8.01782,8.7 -18.63218,19.33333 -10.61436,10.63333 -19.59884,19.33333 -19.9655,19.33333 -0.36667,0 8.01781,-8.7 18.63217,-19.33333 z M 558,792 c 13.18472,-13.2 24.27221,-24 24.63888,-24 0.36667,0 -10.12083,10.8 -23.30555,24 -13.18472,13.2 -24.27221,24 -24.63888,24 -0.36666,0 10.12083,-10.8 23.30555,-24 z M 685.28779,763 678,755.33333 l 7.66667,7.28779 c 7.12257,6.77059 8.27745,8.04555 7.28778,8.04555 -0.20838,0 -3.65838,-3.45 -7.66666,-7.66667 z m 141.37888,-42.01283 c 0,-0.19038 11.85,-12.04038 26.33333,-26.33333 L 879.33333,668.66667 853.34616,695 c -24.14544,24.46707 -26.67949,26.93536 -26.67949,25.98717 z m -55.46002,-22.65384 -2.53998,-3 3,2.53999 c 2.81925,2.38696 3.60698,3.46001 2.53998,3.46001 -0.25301,0 -1.60301,-1.35 -3,-3 z M 724.66667,626.66667 C 725.99399,625.2 727.37997,624 727.74664,624 c 0.36667,0 -0.41932,1.2 -1.74664,2.66667 -1.32732,1.46666 -2.71331,2.66666 -3.07997,2.66666 -0.36667,0 0.41932,-1.2 1.74664,-2.66666 z m 272,-74.66667 c 14.65293,-14.66667 26.94163,-26.66667 27.30833,-26.66667 0.3667,0 -11.3221,12 -25.975,26.66667 -14.65292,14.66667 -26.94167,26.66667 -27.30833,26.66667 -0.36667,0 11.32208,-12 25.975,-26.66667 z M 854,498.66667 c 13.18472,-13.2 24.27221,-24 24.63888,-24 0.36667,0 -10.12083,10.8 -23.30555,24 -13.18472,13.2 -24.27221,24 -24.63888,24 -0.36666,0 10.12083,-10.8 23.30555,-24 z m 176.4966,-53 c -1.6585,-2.11475 -1.6113,-2.16191 0.5034,-0.50342 1.2833,1.00647 2.3333,2.05647 2.3333,2.33334 0,1.09738 -1.0949,0.39108 -2.8367,-1.82992 z M 1160,390 c 3.9832,-4.03333 7.5422,-7.33333 7.9089,-7.33333 0.3667,0 -2.5923,3.3 -6.5756,7.33333 -3.9832,4.03333 -7.5422,7.33333 -7.9089,7.33333 -0.3666,0 2.5924,-3.3 6.5756,-7.33333 z m -78.8367,-45.66667 c -1.6585,-2.11474 -1.6114,-2.1619 0.5034,-0.50341 2.221,1.74183 2.9273,2.83675 1.8299,2.83675 -0.2769,0 -1.3269,-1.05 -2.3333,-2.33334 z m 177.5034,-51.34616 c 0,-0.19038 11.85,-12.04038 26.3333,-26.33333 L 1311.3333,240.66667 1285.3462,267 c -24.1455,24.46707 -26.6795,26.93536 -26.6795,25.98717 z m -96,-100.3205 c 12.0833,-12.1 22.2697,-22 22.6363,-22 0.3667,0 -9.2197,9.9 -21.303,22 -12.0833,12.1 -22.2697,22 -22.6364,22 -0.3666,0 9.2197,-9.9 21.3031,-22 z m 224,-26.50342 c 0,-0.27686 1.05,-1.32686 2.3333,-2.33333 2.1148,-1.65849 2.1619,-1.61133 0.5035,0.50341 -1.7419,2.221 -2.8368,2.92731 -2.8368,1.82992 z M 1339.8299,91 c -1.6584,-2.114741 -1.6114,-2.161901 0.5034,-0.503407 2.221,1.741826 2.9274,2.83674 1.8299,2.83674 -0.2768,0 -1.3268,-1.05 -2.3333,-2.333333 z m -50.4966,-23.503407 c 0,-0.276874 1.05,-1.326874 2.3334,-2.333333 2.1147,-1.658495 2.1619,-1.611335 0.5034,0.503407 -1.7418,2.220997 -2.8368,2.927305 -2.8368,1.829926 z m 6.4167,-4.407412 c 0.9625,-0.385161 2.1125,-0.337792 2.5556,0.105267 0.443,0.443056 -0.3445,0.758188 -1.75,0.700293 -1.5533,-0.06397 -1.8692,-0.379921 -0.8056,-0.805556 z"
         id="path920" />
      <path
         style="fill:#002e00;stroke-width:1.33333"
         d="m 149,1388.4503 c 0.91667,-0.3699 2.41667,-0.3699 3.33333,0 0.91667,0.3698 0.16667,0.6725 -1.66666,0.6725 -1.83334,0 -2.58334,-0.3027 -1.66667,-0.6725 z M 214,1328 c 18.32233,-18.3333 33.61333,-33.3333 33.98,-33.3333 0.36667,0 -14.32433,15 -32.64667,33.3333 -18.32233,18.3333 -33.61333,33.3333 -33.98,33.3333 -0.36666,0 14.32434,-15 32.64667,-33.3333 z m -119.333333,22 c -5.463294,-5.5 -9.63326,-10 -9.266594,-10 0.366667,0 5.136634,4.5 10.599927,10 5.46329,5.5 9.63326,10 9.26659,10 -0.36666,0 -5.13663,-4.5 -10.599923,-10 z M 77.16326,1331 c -1.658495,-2.1147 -1.611335,-2.1619 0.503407,-0.5034 2.220997,1.7418 2.927305,2.8367 1.829926,2.8367 -0.276874,0 -1.326874,-1.05 -2.333333,-2.3333 z m 278.17007,-143 c 16.85471,-16.8667 30.94492,-30.6667 31.31159,-30.6667 0.36667,0 -13.12355,13.8 -29.97825,30.6667 -16.85471,16.8667 -30.94492,30.6667 -31.31159,30.6667 -0.36667,0 13.12355,-13.8 29.97825,-30.6667 z m -182,-15.3333 C 189.08721,1156.9 202.27675,1144 202.64341,1144 c 0.36667,0 -12.22286,12.9 -27.97674,28.6667 -15.75388,15.7666 -28.94342,28.6666 -29.31008,28.6666 -0.36667,0 12.22286,-12.9 27.97674,-28.6666 z m 190.49659,-67 c -1.65849,-2.1148 -1.61133,-2.1619 0.50341,-0.5034 1.28334,1.0064 2.33334,2.0564 2.33334,2.3333 0,1.0974 -1.09492,0.3911 -2.83675,-1.8299 z M 337.16325,1079 c -1.65849,-2.1147 -1.61133,-2.1619 0.50342,-0.5034 1.28333,1.0065 2.33333,2.0565 2.33333,2.3333 0,1.0974 -1.09492,0.3911 -2.83675,-1.8299 z M 512,1032.6667 C 525.5518,1019.1 536.93964,1008 537.30631,1008 c 0.36666,0 -10.42118,11.1 -23.97298,24.6667 -13.5518,13.5666 -24.93964,24.6666 -25.3063,24.6666 -0.36667,0 10.42117,-11.1 23.97297,-24.6666 z m -72.79335,-2.3334 -2.53998,-3 3,2.54 c 2.81925,2.387 3.60698,3.46 2.53998,3.46 -0.25301,0 -1.60301,-1.35 -3,-3 z m -22.66666,-22.6666 -2.53999,-3 3,2.54 c 2.81925,2.3869 3.60699,3.46 2.53999,3.46 -0.25302,0 -1.60302,-1.35 -3,-3 z M 647.33333,898.66667 c 18.32234,-18.33334 33.61334,-33.33334 33.98,-33.33334 0.36667,0 -14.32433,15 -32.64666,33.33334 C 630.34433,917 615.05333,932 614.68667,932 614.32,932 629.011,917 647.33333,898.66667 Z m -184,-13.33334 c 15.38691,-15.4 28.27619,-28 28.64286,-28 0.36666,0 -11.92262,12.6 -27.30952,28 -15.38691,15.4 -28.27619,28 -28.64286,28 -0.36666,0 11.92262,-12.6 27.30952,-28 z m 231.16326,-113 c -1.6585,-2.11474 -1.61134,-2.1619 0.50341,-0.50341 1.28333,1.00647 2.33333,2.05647 2.33333,2.33333 0,1.09739 -1.09492,0.39108 -2.83674,-1.82992 z M 604,746 c 12.08333,-12.1 22.26969,-22 22.63636,-22 0.36667,0 -9.21969,9.9 -21.30303,22 -12.08333,12.1 -22.26969,22 -22.63636,22 -0.36666,0 9.2197,-9.9 21.30303,-22 z m 70.56575,6.33333 -3.23242,-3.66666 3.66667,3.23241 c 3.42705,3.02119 4.27812,4.10092 3.23241,4.10092 -0.23882,0 -1.88882,-1.65 -3.66666,-3.66667 z m 148.10092,-27.66666 c 1.72233,-1.83334 3.4315,-3.33334 3.79817,-3.33334 0.36667,0 -0.74251,1.5 -2.46484,3.33334 C 822.27767,726.5 820.56849,728 820.20183,728 c -0.36667,0 0.7425,-1.5 2.46484,-3.33333 z M 775.82992,703 c -1.65849,-2.11475 -1.61133,-2.16191 0.50341,-0.50341 1.28334,1.00646 2.33334,2.05646 2.33334,2.33333 0,1.09739 -1.09492,0.39108 -2.83675,-1.82992 z m -14.66667,-13.33333 c -1.65849,-2.11475 -1.61133,-2.16191 0.50342,-0.50342 1.28333,1.00647 2.33333,2.05647 2.33333,2.33334 0,1.09738 -1.09492,0.39108 -2.83675,-1.82992 z m -13.9566,-15.33334 -2.53998,-3 3,2.53999 c 1.65,1.39699 3,2.74699 3,3 0,1.067 -1.07306,0.27927 -3.46002,-2.53999 z M 936.66667,612 c 18.32233,-18.33333 33.61333,-33.33333 33.98,-33.33333 0.36666,0 -14.32434,15 -32.64667,33.33333 -18.32233,18.33333 -33.61333,33.33333 -33.98,33.33333 -0.36667,0 14.32433,-15 32.64667,-33.33333 z m -178,-19.33333 c 17.22162,-17.23334 31.61205,-31.33334 31.97872,-31.33334 0.36666,0 -13.42376,14.1 -30.64539,31.33334 C 742.77837,609.9 728.38795,624 728.02128,624 c -0.36667,0 13.42376,-14.1 30.64539,-31.33333 z m 294.66663,-96 C 1055.821,494.1 1058.1564,492 1058.5231,492 c 0.3667,0 -1.3687,2.1 -3.8564,4.66667 -2.4877,2.56666 -4.8231,4.66666 -5.1898,4.66666 -0.3667,0 1.3687,-2.1 3.8564,-4.66666 z M 910.66667,442 c 17.95544,-17.96667 32.94625,-32.66667 33.31292,-32.66667 0.36666,0 -14.02415,14.7 -31.97959,32.66667 -17.95544,17.96667 -32.94625,32.66667 -33.31292,32.66667 -0.36667,0 14.02415,-14.7 31.97959,-32.66667 z m 107.96143,-9.66667 -8.6281,-9 9,8.62815 c 4.95,4.74548 9,8.79548 9,9 0,0.98136 -1.3577,-0.26856 -9.3719,-8.62815 z m 131.7886,-34.57748 c 0.9625,-0.38516 2.1125,-0.3378 2.5555,0.1052 0.4431,0.44306 -0.3444,0.75819 -1.75,0.7003 -1.5532,-0.064 -1.8692,-0.37992 -0.8055,-0.80555 z M 1111.8299,375 c -1.6585,-2.11475 -1.6113,-2.16191 0.5034,-0.50341 2.221,1.74182 2.9273,2.83674 1.83,2.83674 -0.2769,0 -1.3269,-1.05 -2.3334,-2.33333 z m -17.8657,-16.66667 -9.2975,-9.66666 9.6666,9.29757 c 5.3167,5.11367 9.6667,9.46367 9.6667,9.66667 0,0.97801 -1.4002,-0.31918 -10.0358,-9.29758 z M 1225.3333,326 c 17.9555,-17.96667 32.9463,-32.66667 33.313,-32.66667 0.3666,0 -14.0242,14.7 -31.9796,32.66667 -17.9555,17.96667 -32.9463,32.66667 -33.313,32.66667 -0.3666,0 14.0242,-14.7 31.9796,-32.66667 z M 1074.6667,279.33333 C 1085.281,268.7 1094.2655,260 1094.6322,260 c 0.3666,0 -8.0178,8.7 -18.6322,19.33333 -10.6144,10.63334 -19.5988,19.33334 -19.9655,19.33334 -0.3667,0 8.0178,-8.7 18.6322,-19.33334 z m 286,-87.33333 c 13.9188,-13.93333 25.607,-25.33333 25.9737,-25.33333 0.3667,0 -10.7216,11.4 -24.6404,25.33333 -13.9188,13.93333 -25.6071,25.33333 -25.9737,25.33333 -0.3667,0 10.7216,-11.4 24.6404,-25.33333 z M 1216,139.33333 C 1233.2216,122.1 1247.6121,108 1247.9787,108 c 0.3667,0 -13.4237,14.1 -30.6454,31.33333 -17.2216,17.23334 -31.612,31.33334 -31.9787,31.33334 -0.3667,0 13.4238,-14.1 30.6454,-31.33334 z m 149.1632,-23 c -1.6584,-2.11474 -1.6113,-2.1619 0.5035,-0.5034 2.2209,1.74182 2.9273,2.83674 1.8298,2.83674 -0.2768,0 -1.3268,-1.05 -2.3333,-2.33334 z m -15.2899,-16.666663 -2.54,-3 3,2.539984 c 1.65,1.396989 3,2.746989 3,2.999999 0,1.067 -1.073,0.27928 -3.46,-2.539983 z M 1335.8299,87 c -1.6584,-2.114741 -1.6114,-2.161901 0.5034,-0.503407 2.221,1.741826 2.9274,2.83674 1.8299,2.83674 -0.2768,0 -1.3268,-1.05 -2.3333,-2.333333 z"
         id="path918" />
      <path
         style="fill:#010101;stroke-width:1.33333"
         d="m 139.90905,1394.2157 c -37.04093,-15.2385 -97.750241,-84.4574 -92.482515,-105.4457 0.51266,-2.0426 47.647997,-49.741 121.926715,-123.3833 118.56739,-117.5514 121.19828,-120.0534 126.23982,-120.0534 12.58073,0 37.48506,16.6849 62.44768,41.8373 C 384.00687,1113.3342 400,1137.3358 400,1150.1408 v 5.9973 l -87.66667,86.8868 c -169.79718,168.2867 -155.26673,154.3123 -160.41626,154.2768 -2.52106,-0.017 -7.92467,-1.4061 -12.00802,-3.086 z m 132.25559,-122.8192 c 72.05024,-71.3055 119.34628,-119.0858 119.61783,-120.8427 0.24701,-1.5981 -1.68652,-7.1766 -4.29676,-12.3964 -15.38294,-30.7624 -65.86346,-78.3866 -89.283,-84.2311 -4.21516,-1.0519 3.23474,-8.2467 -170.49513,164.6568 -81.57888,81.1908 -74.787599,72.4753 -67.638137,86.8029 12.748228,25.5477 55.846527,68.4067 80.597227,80.1496 4.4,2.0876 8.97408,3.7961 10.16464,3.7967 1.19054,5e-4 55.79054,-53.0706 121.33333,-117.9358 z m 197.79775,-209.2069 c -13.63654,-6.5678 -29.93642,-19.2146 -47.32879,-36.7218 -25.89812,-26.06903 -41.6584,-49.82701 -41.86756,-63.11364 l -0.0993,-6.31251 104.69204,-103.68749 C 542.93936,795.32604 597.99144,740.93795 607.69671,731.49173 l 17.64593,-17.17494 5.48549,0.73576 c 30.58956,4.10293 102.5052,77.75966 102.5052,104.98692 0,6.76397 12.3848,-6.01108 -151.05332,155.813 l -91.71998,90.81423 h -5.65096 c -3.67819,0 -8.89614,-1.563 -14.94668,-4.4771 z M 606.25391,940.35915 C 723.70863,823.9094 725.57113,821.98195 724.8624,817.61456 c -1.82283,-11.23276 -21.71521,-38.47853 -43.19077,-59.1566 -20.44375,-19.68457 -42.92942,-34.79129 -51.78524,-34.79129 -2.38566,0 -31.98654,28.60196 -122.49314,118.35945 -108.69444,107.79479 -119.27858,118.66953 -118.5777,121.83333 2.8754,12.97948 17.4219,33.35067 39.70242,55.59995 22.79348,22.7615 45.89722,39.2073 55.08012,39.2073 2.62595,0 28.48008,-24.9376 122.65582,-118.30755 z m 204.33985,-204.9598 c -13.79535,-5.08231 -31.49435,-17.71092 -50.31231,-35.89892 -29.8307,-28.83208 -49.94917,-59.94446 -46.26614,-71.54866 0.79445,-2.5031 44.39568,-46.14444 204.72602,-204.91434 l 38.07467,-37.7041 5.92533,0.001 c 28.35487,0.005 103.92537,76.20781 103.92537,104.79489 v 5.53785 L 946.33333,614.96421 c -66.18333,65.6134 -121.64389,119.9883 -123.24568,120.83311 -3.63241,1.91579 -6.4577,1.8258 -12.49389,-0.39797 z M 939.61581,610.00591 c 75.46029,-74.78666 118.53689,-118.41424 118.80529,-120.32483 0.6216,-4.42468 -6.6576,-18.21153 -16.7663,-31.75572 -22.1913,-29.73305 -64.64211,-64.58608 -78.67144,-64.59097 -2.75988,-9.6e-4 -69.57823,65.34268 -215.44892,210.6939 -29.59479,29.48939 -27.84668,26.07647 -20.81508,40.63838 14.68219,30.40564 73.37272,84.40588 90.22979,83.019 3.72424,-0.3064 19.71453,-15.64663 122.66666,-117.67976 z M 1141.0178,404.07324 c -14.6517,-5.7272 -43.162,-28.53368 -61.7069,-49.36172 -26.6632,-29.94564 -37.3875,-52.41008 -29.3109,-61.39797 1.4667,-1.63216 56.1561,-55.9954 121.5322,-120.80722 116.5559,-115.550007 118.966,-117.839663 124.0376,-117.839663 11.5755,0 34.0665,14.259816 56.9487,36.106738 C 1379.9239,116.9389 1400,145.96944 1400,159.43279 v 5.79066 l -81.6667,81.02683 c -175.5562,174.18077 -161.2799,160.42356 -166.4044,160.35403 -2.5276,-0.0343 -7.4376,-1.17328 -10.9111,-2.53107 z m 131.055,-123.37809 c 69.3387,-68.5892 119.4459,-119.15268 119.7032,-120.79326 1.5659,-9.98142 -24.3509,-45.12485 -50.8663,-68.975314 -17.0372,-15.324959 -37.2009,-28.212104 -44.1961,-28.246884 -2.8869,-0.01435 -2.2433,-0.639759 -145.7576,141.630558 -91.1554,90.36534 -96.3283,95.74456 -95.4747,99.2825 6.9037,28.61266 71.9512,93.00544 95.9249,94.95932 0.7733,0.0631 55.0733,-52.97259 120.6666,-117.85692 z"
         id="path916" />
    </g>
  </g>
</svg>
