<?xml version="1.0" encoding="UTF-8" standalone="no"?>
<!-- Created with Inkscape (http://www.inkscape.org/) -->

<svg
   version="1.1"
   id="svg6721"
   width="1440"
   height="1440"
   viewBox="0 0 1440 1440"
   sodipodi:docname="PartDesign_Point.svg"
   inkscape:version="1.1.2 (b8e25be833, 2022-02-05)"
   xmlns:inkscape="http://www.inkscape.org/namespaces/inkscape"
   xmlns:sodipodi="http://sodipodi.sourceforge.net/DTD/sodipodi-0.dtd"
   xmlns="http://www.w3.org/2000/svg"
   xmlns:svg="http://www.w3.org/2000/svg">
  <defs
     id="defs6725" />
  <sodipodi:namedview
     id="namedview6723"
     pagecolor="#505050"
     bordercolor="#eeeeee"
     borderopacity="1"
     inkscape:pageshadow="0"
     inkscape:pageopacity="0"
     inkscape:pagecheckerboard="0"
     showgrid="false"
     inkscape:zoom="0.70612469"
     inkscape:cx="522.5706"
     inkscape:cy="766.86173"
     inkscape:window-width="1920"
     inkscape:window-height="1028"
     inkscape:window-x="-6"
     inkscape:window-y="-6"
     inkscape:window-maximized="1"
     inkscape:current-layer="g6727" />
  <g
     inkscape:groupmode="layer"
     inkscape:label="Image"
     id="g6727">
    <g
       id="g6788"
       transform="translate(-1.8180804,-22.696844)">
      <path
         style="fill:#6e6e6e;stroke-width:1.33333"
         d="m 710.33333,941.78363 c 0.91667,-0.36988 2.41667,-0.36988 3.33334,0 0.91666,0.36988 0.16666,0.67252 -1.66667,0.67252 -1.83333,0 -2.58333,-0.30264 -1.66667,-0.67252 z m 17.33334,0 c 0.91666,-0.36988 2.41666,-0.36988 3.33333,0 0.91667,0.36988 0.16667,0.67252 -1.66667,0.67252 -1.83333,0 -2.58333,-0.30264 -1.66666,-0.67252 z"
         id="path6834" />
      <path
         style="fill:#4e4e4e;stroke-width:1.33333"
         d="m 715.66667,941.78363 c 0.91666,-0.36988 2.41666,-0.36988 3.33333,0 0.91667,0.36988 0.16667,0.67252 -1.66667,0.67252 -1.83333,0 -2.58333,-0.30264 -1.66666,-0.67252 z m 6.66666,0 c 0.91667,-0.36988 2.41667,-0.36988 3.33334,0 0.91666,0.36988 0.16666,0.67252 -1.66667,0.67252 -1.83333,0 -2.58333,-0.30264 -1.66667,-0.67252 z"
         id="path6832" />
      <path
         style="fill:#00c200;stroke-width:1.33333"
         d="m 705.33333,573.77116 c -1.83333,-0.2928 -9.03333,-1.6772 -16,-3.07645 -6.96666,-1.39926 -16.86666,-2.96122 -22,-3.471 -9.15565,-0.90927 -9.25718,-0.96068 -5.33333,-2.70123 15.14951,-6.72001 34.85195,-10.03047 59.33333,-9.96933 20.80279,0.052 36.24996,2.29492 51.33334,7.45376 15.23782,5.21165 15.44105,5.50844 4.4975,6.56808 -5.40696,0.52353 -16.64046,2.10834 -24.96333,3.52178 -13.82108,2.34718 -37.38391,3.18899 -46.86751,1.67439 z"
         id="path6830" />
      <path
         style="fill:#00ba00;stroke-width:1.33333"
         d="m 715.29641,627.47015 c -4.03534,-1.75814 -6.85081,-4.75187 -16.63861,-17.69216 -6.90044,-9.12294 -10.40757,-11.57022 -33.99113,-23.71906 -18.91411,-9.74341 -20.36196,-10.2636 -26.66667,-9.581 l -6.66667,0.7218 4,-2.17812 c 2.2,-1.19796 7.9979,-3.74484 12.88422,-5.65972 8.12937,-3.1858 9.7154,-3.38122 18.66666,-2.30018 5.38035,0.64978 15.48246,2.39108 22.44912,3.86953 19.84055,4.21053 41.57952,4.64119 62.86594,1.24539 C 778.3466,568.00536 788,566.96181 788,568.30652 c 0,0.65131 0.54185,0.84931 1.20412,0.44 1.5334,-0.94768 17.72559,5.92003 22.50577,9.54553 l 3.62344,2.7482 -6,-1.07773 c -8.86734,-1.59275 -12.17984,-0.5186 -32.64702,10.58657 -18.69484,10.14352 -23.99199,14.34967 -35.22676,27.97158 -8.3988,10.18332 -16.76368,13.04465 -26.16314,8.94948 z m -1.60437,-73.72747 c 1.29729,-0.33805 3.09729,-0.31583 4,0.0495 0.90271,0.36524 -0.15871,0.64182 -2.35871,0.61465 -2.2,-0.0272 -2.93858,-0.326 -1.64129,-0.66405 z m 9.97463,0.0409 c 0.91666,-0.36988 2.41666,-0.36988 3.33333,0 0.91667,0.36988 0.16667,0.67252 -1.66667,0.67252 -1.83333,0 -2.58333,-0.30264 -1.66666,-0.67252 z"
         id="path6828" />
      <path
         style="fill:#00b500;stroke-width:1.33333"
         d="m 715.79816,654.22284 c -12.24379,-3.44269 -20.24372,-10.73059 -32.53559,-29.63972 -10.3203,-15.8762 -14.78842,-20.31092 -33.10665,-32.85923 -9.94935,-6.81548 -13.03407,-8.24222 -19.28284,-8.91865 L 623.43432,582 l 3.53735,-2.31243 c 1.94553,-1.27182 6.72281,-2.67492 10.61617,-3.11798 6.87023,-0.78183 7.68781,-0.49136 27.74549,9.85742 22.89094,11.81062 29.37875,16.68123 36.48923,27.39362 12.47891,18.80026 26.12796,20.6146 39.12821,5.20118 12.2931,-14.57498 16.98968,-18.30129 36.4022,-28.88174 17.82675,-9.71616 19.87828,-10.51464 26.64703,-10.37134 9.95712,0.2108 11.13601,0.52396 16.59555,4.40848 l 4.74498,3.37611 -7.11884,-0.59035 c -8.02733,-0.66569 -12.46917,1.08431 -22.22169,8.75492 -11.64228,9.15696 -17.69271,15.74812 -25.96191,28.28211 -4.59618,6.96667 -10.98502,15.17711 -14.1974,18.24541 -11.56521,11.04655 -26.96785,15.65375 -40.04253,11.97743 z"
         id="path6826" />
      <path
         style="fill:#00b100;stroke-width:1.33333"
         d="m 712.64925,677.60164 c -17.66341,-6.10787 -26.82505,-15.16933 -43.31592,-42.84235 -8.58008,-14.39805 -13.48122,-21.05016 -20.1748,-27.3823 -13.19409,-12.48166 -20.42468,-17.03126 -28.26473,-17.78459 l -6.66132,-0.64007 4.34875,-3.54926 c 3.98798,-3.25483 4.9909,-3.47355 12.08993,-2.63651 6.53037,0.77 9.58589,2.17643 19.53501,8.99175 18.27394,12.51798 22.7445,16.96018 33.06371,32.85404 14.94705,23.02177 25.47552,30.55686 42.73012,30.58146 16.91803,0.0241 29.16609,-8.65162 44.03809,-31.19381 9.80754,-14.86572 23.7101,-28.56005 35.29524,-34.7666 3.70147,-1.98299 18.83194,-3.91283 17.81824,-2.27265 -0.35325,0.57158 0.26438,1.03925 1.37252,1.03925 2.36887,0 17.68095,10.46995 21.50068,14.70152 2.00611,2.22241 0.94643,1.87392 -4.40328,-1.44811 -4.9662,-3.08386 -9.15541,-4.54984 -14.19633,-4.96788 -6.86532,-0.56932 -7.39041,-0.37248 -13.13713,4.92466 -3.44066,3.17149 -7.26179,8.48116 -8.98639,12.48708 -2.70703,6.2879 -2.92152,8.35173 -2.19351,21.10598 0.57927,10.1483 0.3487,14.73996 -0.81728,16.27526 -0.8933,1.17626 -6.42418,4.19609 -12.29085,6.71072 -5.86667,2.51462 -16.58552,7.33792 -23.81967,10.71842 -24.71628,11.54988 -39.27592,14.02331 -53.53108,9.09399 z"
         id="path6824" />
      <path
         style="fill:#00ad00;stroke-width:1.33333"
         d="m 706.63081,698.37908 c -11.27184,-3.94861 -19.92532,-10.40655 -32.19378,-24.02557 -13.36455,-14.8358 -15.51467,-17.88846 -25.13586,-35.68684 -10.13856,-18.75551 -17.13973,-28.11838 -26.06421,-34.85643 -7.99033,-6.03276 -13.81573,-6.63707 -23.15185,-2.40168 -5.33392,2.41976 -5.70246,2.44859 -3.75206,0.29341 1.18958,-1.31446 5.65128,-4.81086 9.9149,-7.76978 7.33316,-5.08915 8.12253,-5.33155 14.60797,-4.48588 8.04089,1.0485 15.35519,5.68237 28.30261,17.93068 6.70235,6.34044 11.58348,12.96957 20.1748,27.39965 14.26112,23.95312 22.33916,32.93123 35.46794,39.41981 18.37608,9.08196 32.56622,7.7745 61.28921,-5.64709 7.28357,-3.40344 18.04285,-8.24551 23.90952,-10.76013 5.86667,-2.51463 11.39755,-5.53446 12.29085,-6.71072 1.16598,-1.5353 1.39655,-6.12696 0.81728,-16.27526 -0.72801,-12.75425 -0.51352,-14.81808 2.19351,-21.10598 1.7246,-4.00592 5.54573,-9.31559 8.98639,-12.48708 5.7324,-5.28394 6.2859,-5.4928 13.06592,-4.93056 10.57289,0.87678 19.7541,7.12716 34.15873,23.2545 6.70017,7.50148 13.66051,16.22508 15.4674,19.38579 3.1482,5.50695 2.99073,5.41293 -3.77367,-2.25325 -12.58572,-14.26355 -19.35969,-20.25006 -25.61844,-22.64028 -7.77349,-2.96874 -12.54345,-1.93675 -13.8382,2.99392 -1.50662,5.73758 -0.74268,7.9341 8.9199,25.64636 14.47488,26.5336 15.69168,32.79454 8.6941,44.73501 -6.39089,10.90524 -18.20008,12.71384 -42.17878,6.45975 -19.52446,-5.09232 -29.45922,-4.78076 -49.18499,1.5425 -12.84227,4.11671 -17.71609,5.00528 -30,5.46948 -12.74867,0.48176 -15.80472,0.15558 -23.36919,-2.49433 z"
         id="path6822" />
      <path
         style="fill:#00a900;stroke-width:1.33333"
         d="m 715.33333,717.82427 c -16.00537,-2.47368 -28.4603,-8.51504 -48.50282,-23.52666 -23.00738,-17.23226 -26.52034,-17.50881 -47.94056,-3.77412 -15.08494,9.67251 -23.21914,12.04416 -30.10368,8.77723 -2.60934,-1.2382 -6.03103,-4.33336 -7.60378,-6.87811 -2.40357,-3.88906 -2.75789,-6.04732 -2.22213,-13.53534 0.75664,-10.575 2.889,-15.13358 12.87496,-27.52416 12.28313,-15.24096 15.00529,-19.40191 15.76804,-24.10218 0.60465,-3.72604 0.0491,-5.14701 -3.33637,-8.53241 -4.62503,-4.62501 -6.37176,-4.88707 -13.30982,-1.99675 -9.24724,3.8523 -26.57712,23.478 -36.1463,40.9349 -5.32318,9.71098 -7.80295,13.13674 -5.87796,8.12032 3.67741,-9.58318 20.1364,-34.26162 31.06709,-46.58166 19.16761,-21.60393 29.93533,-25.43792 43.23696,-15.39509 8.92448,6.73805 15.92565,16.10092 26.06421,34.85643 4.55876,8.43333 9.84882,17.43333 11.75567,20 7.63301,10.27422 22.7086,26.07658 30.10412,31.55541 17.33172,12.83987 39.60644,14.51208 68.83904,5.16791 19.7314,-6.30712 29.67829,-6.61626 49.18499,-1.52856 23.9787,6.25409 35.78789,4.44549 42.17878,-6.45975 6.99758,-11.94047 5.78078,-18.20141 -8.6941,-44.73501 -9.66258,-17.71226 -10.42652,-19.90878 -8.9199,-25.64636 2.09951,-7.99534 15.43286,-5.1897 26.13059,5.49846 19.3876,19.37024 29.87419,34.20292 33.97561,48.05656 3.05816,10.32972 2.78204,10.57432 -3.30577,2.92835 -4.74415,-5.9584 -10.76295,-9.73537 -12.59475,-7.90357 -0.32286,0.32286 -1.53316,5.5746 -2.68953,11.67052 -4.22131,22.25286 -10.01052,31.2244 -24.43605,37.86845 -9.05366,4.16991 -23.63418,3.75452 -40.82987,-1.1632 -17.93357,-5.12873 -30.52085,-5.16729 -51.96653,-0.15915 -15.24594,3.56034 -34.12766,5.33244 -42.70014,4.00754 z m 140.49659,-104.1576 c -1.65849,-2.11475 -1.61133,-2.16191 0.50341,-0.50342 1.28334,1.00647 2.33334,2.05647 2.33334,2.33334 0,1.09738 -1.09492,0.39108 -2.83675,-1.82992 z m -12,-13.33334 c -1.65849,-2.11474 -1.61133,-2.1619 0.50341,-0.50341 1.28334,1.00647 2.33334,2.05647 2.33334,2.33333 0,1.09739 -1.09492,0.39108 -2.83675,-1.82992 z"
         id="path6820" />
      <path
         style="fill:#00a500;stroke-width:1.33333"
         d="M 808.66667,731.32317 C 792.22583,727.29729 779.55059,727.13989 758,730.694 c -9.14276,1.50781 -22.2858,2.63484 -30.66667,2.62968 -21.01548,-0.0133 -32.97469,-3.17356 -56.38521,-14.90168 -27.31755,-13.68544 -27.29907,-13.68567 -60.94812,0.74945 -11.18817,4.79962 -22.87196,4.79307 -32.52699,-0.0183 -7.50452,-3.73966 -11.57876,-8.45883 -19.44189,-22.51942 -2.56345,-4.58386 -5.50025,-8.65642 -6.52623,-9.05013 -2.47417,-0.94943 -7.09686,2.40731 -10.42765,7.57195 -1.48187,2.29774 -2.41544,3.27772 -2.07461,2.17772 0.34081,-1.1 2.61141,-8.3 5.04574,-16 2.43434,-7.7 4.30446,-14.4946 4.15582,-15.09911 -0.14864,-0.60451 0.28173,-0.75796 0.9564,-0.34099 1.55157,0.95892 3.14392,-2.9885 1.97106,-4.88624 -0.55698,-0.90122 -0.23262,-1.02077 0.88892,-0.32761 1.27966,0.79087 1.53318,0.48484 0.92067,-1.11133 -0.52117,-1.35814 -0.22461,-2.08106 0.77341,-1.88539 0.89027,0.17453 1.53643,-0.72621 1.43588,-2.00165 -0.104,-1.31879 0.4251,-1.9433 1.22659,-1.44794 0.88692,0.54814 1.08391,0.0229 0.5314,-1.41693 -0.48393,-1.26112 -0.32951,-1.94901 0.34409,-1.53271 1.2105,0.74814 3.5507,-4.26656 2.97852,-6.38254 -0.16346,-0.60451 0.25091,-0.76036 0.92083,-0.34632 0.66991,0.41402 2.90963,-1.49138 4.97715,-4.23423 11.37198,-15.08655 24.27442,-25.53585 31.64012,-25.6244 1.33974,-0.0161 4.26373,1.79856 6.49776,4.03257 6.74601,6.74603 5.2342,10.71474 -12.43167,32.63459 -9.98596,12.39059 -12.11832,16.94916 -12.87496,27.52416 -0.53576,7.48803 -0.18144,9.64628 2.22213,13.53535 7.07666,11.45025 17.72454,10.91398 37.70746,-1.89912 21.42022,-13.7347 24.93318,-13.45815 47.94056,3.77412 25.40477,19.02788 37.19093,23.61621 60.50282,23.55361 11.50951,-0.0309 18.11084,-0.87069 30.66667,-3.90124 21.3958,-5.16423 33.87352,-5.15801 52,0.0259 17.19569,4.91772 31.77621,5.3331 40.82987,1.1632 14.42553,-6.64406 20.21474,-15.61559 24.43605,-37.86846 1.15637,-6.09592 2.36667,-11.34765 2.68953,-11.67052 1.81031,-1.81032 7.82119,1.90824 12.41903,7.68288 2.90076,3.6432 5.55577,6.34232 5.90004,5.99806 0.34427,-0.34427 2.57936,6.02064 4.96685,14.14425 4.1275,14.04399 4.72716,19.41097 1.4938,13.36937 -0.81449,-1.52189 -3.29102,-3.70312 -5.5034,-4.84718 -3.84136,-1.98644 -4.20297,-1.92828 -8.02953,1.29156 -2.20385,1.85441 -6.66404,6.48446 -9.91153,10.28898 -6.57628,7.70434 -9.65646,10.03903 -21.29071,16.13791 -7.28204,3.81736 -9.25643,4.22641 -22,4.55796 -11.22592,0.29207 -16.64197,-0.28271 -27.33333,-2.90072 z M 569.33333,630.16325 c 0,-0.27686 1.05,-1.32686 2.33334,-2.33333 2.11474,-1.65849 2.1619,-1.61133 0.50341,0.50341 -1.74183,2.221 -2.83675,2.92731 -2.83675,1.82992 z m 12,-13.33333 c 0,-0.27687 1.05,-1.32687 2.33334,-2.33333 2.11474,-1.6585 2.1619,-1.61134 0.50341,0.50341 -1.74183,2.221 -2.83675,2.92731 -2.83675,1.82992 z"
         id="path6818" />
      <path
         style="fill:#00a100;stroke-width:1.33333"
         d="m 814.66667,751.23636 c -22.43516,-4.16465 -31.25063,-4.55117 -54.40866,-2.38564 -25.03096,2.34068 -47.48045,1.82813 -62.92468,-1.43664 -5.5,-1.16265 -18.1,-4.90661 -28,-8.31992 -23.15408,-7.98303 -29.48574,-8.20143 -50,-1.72471 -12.28498,3.87862 -16.6153,4.6251 -26.66666,4.59694 -14.18591,-0.0397 -21.08368,-2.5904 -35.09631,-12.9779 -4.89703,-3.63014 -10.29297,-7.1377 -11.99099,-7.79457 -3.13301,-1.21197 -7.76654,0.33421 -10.00618,3.33901 -2.05188,2.75291 -0.0208,-18.69373 2.19001,-23.12553 1.20669,-2.41888 1.80743,-5.07509 1.33496,-5.90268 -0.47247,-0.8276 -0.44283,-1.13472 0.0659,-0.68249 0.50868,0.45221 2.9479,-1.20082 5.42049,-3.6734 2.90571,-2.90571 5.25425,-4.20452 6.64072,-3.67248 1.17979,0.45273 4.24244,4.57358 6.80589,9.15745 7.86314,14.06059 11.93738,18.77976 19.4419,22.51941 9.65502,4.81131 21.33881,4.81786 32.52698,0.0183 33.64906,-14.43512 33.63058,-14.43489 60.94812,-0.74945 23.41052,11.72812 35.36974,14.88874 56.38522,14.90168 8.38086,0.005 21.5239,-1.12187 30.66666,-2.62968 21.85408,-3.60416 33.68172,-3.43046 51.76299,0.76018 20.84747,4.83176 36.67395,4.24066 48.23701,-1.8016 11.61346,-6.0686 14.70692,-8.41144 21.29071,-16.12456 3.24749,-3.80452 7.70768,-8.43457 9.91153,-10.28898 3.73602,-3.14366 4.25919,-3.24072 7.73572,-1.43532 6.7579,3.50946 9.21567,8.48897 10.13767,20.53922 l 0.84239,11.0096 -3.9208,-2.89877 c -3.50023,-2.58783 -4.47551,-2.73257 -9.09215,-1.3494 -2.84424,0.85216 -7.98304,3.69627 -11.41956,6.32024 -8.23621,6.28883 -24.68773,13.71364 -35.48551,16.01515 -10.67632,2.27562 -20.29493,2.21693 -33.33333,-0.2034 z"
         id="path6816" />
      <path
         style="fill:#009d00;stroke-width:1.33333"
         d="m 803.33333,775.84496 c -4.4,-0.7122 -26.9,-1.46503 -50,-1.67297 -43.5228,-0.39178 -55.53184,-1.4826 -82,-7.44839 -19.21224,-4.33033 -32.13666,-4.70943 -51.33333,-1.50565 -9.16667,1.52984 -20.56667,2.77244 -25.33333,2.76132 -10.0413,-0.0235 -25.38571,-3.60396 -37.51882,-8.75486 -11.00372,-4.67142 -16.79609,-5.95881 -20.49056,-4.55418 -2.76514,1.0513 -3.05,0.68409 -3.81849,-4.92268 -1.08025,-7.88132 0.55325,-29.93696 1.95228,-26.35958 0.56183,1.43662 1.06367,1.95834 1.1152,1.15939 0.15841,-2.45555 6.45435,-4.59973 9.75511,-3.32225 1.6529,0.63972 7.01194,4.13324 11.90897,7.76338 14.01263,10.3875 20.9104,12.93815 35.09631,12.9779 10.05136,0.0281 14.38168,-0.71832 26.66666,-4.59694 20.51426,-6.47672 26.84592,-6.25832 50,1.72471 32.82288,11.31663 51.35967,13.3192 90.66667,9.79499 24.34941,-2.18314 30.96164,-1.90026 55.17465,2.36048 14.47987,2.54801 21.57043,2.58908 32.82535,0.19013 10.46299,-2.23015 27.65196,-9.88401 34.65665,-15.43183 C 888.07991,731.71264 895.83924,728 899.39307,728 c 1.17997,0 3.9742,1.82881 6.20941,4.06401 4.05545,4.05547 4.06204,4.08672 3.12449,14.83458 -0.51674,5.92381 -1.21204,11.48072 -1.54512,12.34869 -0.33749,0.87951 -3.3893,1.63365 -6.89372,1.70353 -3.64896,0.0728 -10.48521,1.82047 -16.28813,4.16408 -22.10851,8.92892 -32.47728,11.18852 -53.33333,11.6226 -10.63334,0.22131 -22.93334,-0.18033 -27.33334,-0.89253 z m 103.4386,-51.2894 c 0.064,-1.55327 0.37992,-1.8692 0.80555,-0.80556 0.38516,0.96249 0.3378,2.11251 -0.1052,2.55556 -0.44305,0.44305 -0.75819,-0.34445 -0.70029,-1.75 z"
         id="path6814" />
      <path
         style="fill:#009a00;stroke-width:1.33333"
         d="m 804,798.55688 c -6.96667,-0.57273 -29.46667,-1.98941 -50,-3.14816 -34.40883,-1.94179 -73.98737,-5.19631 -82,-6.74283 -5.44049,-1.05006 -28.10247,-1.04886 -58.66667,0.003 -26.975,0.92843 -29.40521,0.81071 -41.1818,-1.99493 -6.88332,-1.63988 -15.58332,-4.33492 -19.33333,-5.98898 -3.75001,-1.65406 -8.77319,-3.43364 -11.16263,-3.95461 -5.24953,-1.14456 -6.36536,-3.09536 -7.4879,-13.09115 -0.81372,-7.24585 -0.67936,-7.76424 2.30681,-8.89958 3.87263,-1.47238 9.53439,-0.24416 20.67337,4.48468 12.13311,5.15089 27.47752,8.73144 37.51882,8.75485 4.76666,0.0107 16.16666,-1.23148 25.33333,-2.76132 19.19667,-3.20377 32.12109,-2.82468 51.33333,1.50565 26.69163,6.01616 38.44903,7.09623 79.33334,7.28779 22.63342,0.106 45.73826,0.92775 54.41888,1.93533 29.34533,3.40619 50.84429,0.46174 78.91445,-10.80798 5.5,-2.20816 12.7,-4.1024 16,-4.20944 3.3,-0.10707 6.48931,-0.80991 7.08735,-1.56195 0.61548,-0.77399 0.80753,-0.21013 0.44254,1.29932 -0.35464,1.46667 -1.01901,5.97184 -1.4764,10.01148 -0.45738,4.03965 -1.25654,8.00081 -1.77589,8.80259 -2.50015,3.85973 -41.01541,15.55869 -60.65129,18.42274 -15.27695,2.22827 -19.60224,2.29959 -39.62631,0.6534 z"
         id="path6812" />
      <path
         style="fill:#009800;stroke-width:1.33333"
         d="m 765.33333,846.64533 c -8.43333,-0.5681 -23.13333,-1.67821 -32.66666,-2.4669 -9.53334,-0.78868 -39.13908,-1.45148 -65.79056,-1.47287 -43.03108,-0.0345 -49.97371,-0.33863 -62,-2.7156 -17.43474,-3.44596 -34.74358,-11.89604 -49.00222,-23.92261 l -10.35501,-8.73402 -4.6424,-14 c -5.18555,-15.63792 -7.10673,-23.41049 -4.88685,-19.77086 0.74777,1.22602 3.30601,2.6535 5.68498,3.17218 2.37896,0.51867 7.39358,2.29636 11.14359,3.95043 3.75001,1.65405 12.45001,4.34909 19.33333,5.98897 11.77788,2.80594 14.20387,2.92336 41.1818,1.9932 34.81271,-1.20028 50.83224,-1.04336 64,0.62696 18.348,2.32743 40.35224,4.07235 76,6.02676 19.43334,1.06544 43.97624,2.60424 54.53979,3.41956 16.43921,1.26882 21.47697,1.15859 34.96532,-0.76502 15.77516,-2.24976 31.95313,-6.53087 50.25179,-13.29795 5.36629,-1.98452 10.07849,-3.28663 10.47156,-2.89355 0.39306,0.39307 -1.45979,7.24038 -4.11747,15.21624 l -4.83213,14.50158 -9.97274,8.71477 c -11.97245,10.46224 -29.6434,20.27659 -43.30612,24.05199 -8.2187,2.27106 -14.5126,2.82085 -35.33333,3.08648 -13.93333,0.17776 -32.23333,-0.14162 -40.66667,-0.70974 z"
         id="path6810" />
      <path
         style="fill:#009600;stroke-width:1.33333"
         d="m 701.33333,930.74336 c -14.85997,-1.57464 -24.41085,-3.83071 -40.29674,-9.51873 C 637.67563,912.86012 633.50403,910.7616 614.66667,897.89839 599.43699,887.49868 594.40937,883.11131 582,869.39168 c -19.24265,-21.27444 -31.22575,-41.23653 -37.65332,-62.72501 -0.36113,-1.20735 -0.15205,-1.47099 0.52755,-0.6652 4.93192,5.84765 21.82529,18.74556 31.12577,23.76421 20.94371,11.30148 24.61044,11.78395 98.66667,12.98245 35.56666,0.5756 68.56666,1.67838 73.33333,2.45059 4.76667,0.77223 23.66667,1.78237 42,2.24479 31.07713,0.78382 34.19069,0.64616 46,-2.03391 19.201,-4.35757 36.92353,-14.00176 52.33333,-28.47855 C 892.55,812.96969 896,809.83276 896,809.96011 c 0,2.91954 -6.3778,16.52157 -13.10356,27.9461 -13.10339,22.25778 -33.44713,44.18102 -54.70333,58.95051 -9.06046,6.29551 -20.76046,13.40348 -26,15.79551 -13.396,6.11572 -36.37974,13.79597 -47.85726,15.99198 -12.40441,2.37335 -40.0734,3.46918 -53.00252,2.09915 z m -166.5614,-154.1878 c 0.064,-1.55327 0.37992,-1.8692 0.80555,-0.80556 0.38516,0.96249 0.3378,2.11251 -0.1052,2.55556 -0.44305,0.44305 -0.75819,-0.34445 -0.70029,-1.75 z m 370.66667,-1.33333 c 0.064,-1.55327 0.37992,-1.8692 0.80555,-0.80556 0.38516,0.96249 0.3378,2.1125 -0.1052,2.55556 -0.44306,0.44305 -0.75819,-0.34446 -0.7003,-1.75 z m -372,-10.66667 c 0.064,-1.55327 0.37992,-1.8692 0.80555,-0.80556 0.38516,0.96249 0.3378,2.11251 -0.1052,2.55556 -0.44306,0.44305 -0.75819,-0.34445 -0.7003,-1.75 z"
         id="path6808" />
      <path
         style="fill:#008800;stroke-width:1.33333"
         d="m 704.33333,931.08089 c 1.28334,-0.33536 3.38334,-0.33536 4.66667,0 1.28333,0.33538 0.23333,0.60978 -2.33333,0.60978 -2.56667,0 -3.61667,-0.2744 -2.33334,-0.60978 z m 28,0 c 1.28334,-0.33536 3.38334,-0.33536 4.66667,0 1.28333,0.33538 0.23333,0.60978 -2.33333,0.60978 -2.56667,0 -3.61667,-0.2744 -2.33334,-0.60978 z m 121,-55.74756 C 855.05567,873.5 856.76484,872 857.13151,872 c 0.36666,0 -0.74251,1.5 -2.46484,3.33333 -1.72234,1.83334 -3.43151,3.33334 -3.79818,3.33334 -0.36666,0 0.74251,-1.5 2.46484,-3.33334 z M 584.58279,873 580.66667,868.66667 585,872.58279 c 4.03928,3.65037 4.9462,4.75054 3.91612,4.75054 -0.22947,0 -2.17947,-1.95 -4.33333,-4.33333 z M 866,861.33333 c 1.32732,-1.46666 2.71331,-2.66666 3.07997,-2.66666 0.36667,0 -0.41932,1.2 -1.74664,2.66666 C 866.00601,862.8 864.62003,864 864.25336,864 c -0.36667,0 0.41932,-1.2 1.74664,-2.66667 z M 571.82992,859 c -1.65849,-2.11475 -1.61133,-2.16191 0.50341,-0.50341 2.221,1.74182 2.92731,2.83674 1.82992,2.83674 -0.27686,0 -1.32686,-1.05 -2.33333,-2.33333 z M 533.4386,768.55556 c 0.064,-1.55327 0.37992,-1.8692 0.80555,-0.80556 0.38516,0.96249 0.3378,2.11251 -0.1052,2.55556 -0.44306,0.44305 -0.75819,-0.34445 -0.7003,-1.75 z m 373.33333,-1.33333 c 0.064,-1.55327 0.37992,-1.8692 0.80555,-0.80556 0.38516,0.96249 0.3378,2.1125 -0.1052,2.55556 -0.44305,0.44305 -0.75819,-0.34446 -0.70029,-1.75 z M 530.87719,742.66667 c 0,-1.83334 0.30264,-2.58334 0.67252,-1.66667 0.36988,0.91667 0.36988,2.41667 0,3.33333 -0.36988,0.91667 -0.67252,0.16667 -0.67252,-1.66666 z m 51.78948,-128.50342 c 0,-0.27686 1.05,-1.32686 2.33333,-2.33333 2.11475,-1.65849 2.16191,-1.61133 0.50341,0.50341 -1.74182,2.221 -2.83674,2.92731 -2.83674,1.82992 z"
         id="path6806" />
      <path
         style="fill:#007700;stroke-width:1.33333"
         d="m 844,886.16325 c 0,-0.27686 1.05,-1.32686 2.33333,-2.33333 2.11475,-1.65849 2.16191,-1.61133 0.50342,0.50341 -1.74183,2.221 -2.83675,2.92731 -2.83675,1.82992 z M 593.16325,883 c -1.65849,-2.11475 -1.61133,-2.16191 0.50342,-0.50341 1.28333,1.00646 2.33333,2.05646 2.33333,2.33333 0,1.09739 -1.09492,0.39108 -2.83675,-1.82992 z m 264.17008,-11.50341 c 0,-0.27687 1.05,-1.32687 2.33334,-2.33334 2.11474,-1.65849 2.1619,-1.61133 0.50341,0.50342 -1.74183,2.221 -2.83675,2.9273 -2.83675,1.82992 z M 578.49659,867 c -1.6585,-2.11475 -1.61134,-2.16191 0.50341,-0.50341 1.28333,1.00646 2.33333,2.05646 2.33333,2.33333 0,1.09739 -1.09492,0.39108 -2.83674,-1.82992 z m 290.83674,-8.83675 c 0,-0.27686 1.05,-1.32686 2.33334,-2.33333 2.11474,-1.65849 2.1619,-1.61133 0.50341,0.50341 -1.74183,2.221 -2.83675,2.92731 -2.83675,1.82992 z m -276,-256 c 0,-0.27686 1.05,-1.32686 2.33334,-2.33333 2.11474,-1.65849 2.1619,-1.61133 0.50341,0.50341 -1.74183,2.221 -2.83675,2.92731 -2.83675,1.82992 z"
         id="path6804" />
      <path
         style="fill:#005800;stroke-width:1.33333"
         d="m 718.34888,932.39032 c 1.65855,-0.31892 4.05855,-0.30681 5.33333,0.0269 1.27479,0.33372 -0.0823,0.59467 -3.01554,0.57987 -2.93334,-0.0148 -3.97634,-0.28785 -2.31779,-0.60677 z"
         id="path6802" />
      <path
         style="fill:#004700;stroke-width:1.33333"
         d="m 713.08333,932.42252 c 0.9625,-0.38516 2.11251,-0.3378 2.55556,0.1052 0.44306,0.44305 -0.34445,0.75819 -1.75,0.70029 -1.55326,-0.064 -1.8692,-0.37992 -0.80556,-0.80554 z m 13.33334,0 c 0.96249,-0.38516 2.1125,-0.3378 2.55556,0.1052 0.44305,0.44305 -0.34446,0.75819 -1.75,0.70029 -1.55327,-0.064 -1.8692,-0.37992 -0.80556,-0.80554 z M 583.82992,873.66667 c -1.65849,-2.11475 -1.61133,-2.16191 0.50341,-0.50342 1.28334,1.00647 2.33334,2.05647 2.33334,2.33334 0,1.09738 -1.09492,0.39108 -2.83675,-1.82992 z M 719.75,552.42252 c 0.96249,-0.38516 2.11251,-0.3378 2.55556,0.1052 0.44305,0.44305 -0.34445,0.75819 -1.75,0.70029 -1.55327,-0.064 -1.8692,-0.37992 -0.80556,-0.80554 z"
         id="path6800" />
      <path
         style="fill:#003600;stroke-width:1.33333"
         d="m 707.66667,932.45029 c 0.91666,-0.36988 2.41666,-0.36988 3.33333,0 0.91667,0.36988 0.16667,0.67252 -1.66667,0.67252 -1.83333,0 -2.58333,-0.30264 -1.66666,-0.67252 z m 22.66666,0 c 0.91667,-0.36988 2.41667,-0.36988 3.33334,0 0.91666,0.36988 0.16666,0.67252 -1.66667,0.67252 -1.83333,0 -2.58333,-0.30264 -1.66667,-0.67252 z"
         id="path6796" />
      <path
         style="fill:#002700;stroke-width:1.33333"
         d="m 713.08333,552.42252 c 0.9625,-0.38516 2.11251,-0.3378 2.55556,0.1052 0.44306,0.44305 -0.34445,0.75819 -1.75,0.70029 -1.55326,-0.064 -1.8692,-0.37992 -0.80556,-0.80554 z m 13.33334,0 c 0.96249,-0.38516 2.1125,-0.3378 2.55556,0.1052 0.44305,0.44305 -0.34446,0.75819 -1.75,0.70029 -1.55327,-0.064 -1.8692,-0.37992 -0.80556,-0.80554 z"
         id="path6794" />
      <path
         style="fill:#001600;stroke-width:1.33333"
         d="m 737.08333,932.42252 c 0.9625,-0.38516 2.11251,-0.3378 2.55556,0.1052 0.44306,0.44305 -0.34445,0.75819 -1.75,0.70029 -1.55326,-0.064 -1.8692,-0.37992 -0.80556,-0.80554 z m 109.58334,-47.5926 c 0,-0.27687 1.05,-1.32687 2.33333,-2.33333 2.11475,-1.6585 2.16191,-1.61134 0.50341,0.50341 -1.74182,2.221 -2.83674,2.92731 -2.83674,1.82992 z m -257.50342,-4.49659 c -1.65849,-2.11474 -1.61133,-2.1619 0.50342,-0.50341 2.221,1.74183 2.9273,2.83675 1.82992,2.83675 -0.27687,0 -1.32687,-1.05 -2.33334,-2.33334 z m 272.17008,-11.50341 c 0,-0.27687 1.05,-1.32687 2.33334,-2.33333 2.11474,-1.6585 2.1619,-1.61134 0.50341,0.50341 -1.74183,2.221 -2.83675,2.92731 -2.83675,1.82992 z M 575.20665,865 l -2.53998,-3 3,2.53999 c 1.65,1.39698 3,2.74698 3,3 0,1.067 -1.07306,0.27926 -3.46002,-2.53999 z m -45.6628,-122.33333 c 0,-1.83334 0.30264,-2.58334 0.67252,-1.66667 0.36988,0.91667 0.36988,2.41667 0,3.33333 -0.36988,0.91667 -0.67252,0.16667 -0.67252,-1.66666 z m 37.12282,-112.50342 c 0,-0.27686 1.05,-1.32686 2.33333,-2.33333 2.11475,-1.65849 2.16191,-1.61133 0.50341,0.50341 -1.74182,2.221 -2.83674,2.92731 -2.83674,1.82992 z M 870.49659,627 c -1.6585,-2.11475 -1.61134,-2.16191 0.50341,-0.50341 1.28333,1.00646 2.33333,2.05646 2.33333,2.33333 0,1.09739 -1.09492,0.39108 -2.83674,-1.82992 z M 578.66667,616.82992 c 0,-0.27687 1.05,-1.32687 2.33333,-2.33333 2.11475,-1.6585 2.16191,-1.61134 0.50341,0.50341 -1.74182,2.221 -2.83674,2.92731 -2.83674,1.82992 z m 279.82992,-3.16325 c -1.6585,-2.11475 -1.61134,-2.16191 0.50341,-0.50342 1.28333,1.00647 2.33333,2.05647 2.33333,2.33334 0,1.09738 -1.09492,0.39108 -2.83674,-1.82992 z M 594,600 c 1.32732,-1.46667 2.71331,-2.66667 3.07997,-2.66667 0.36667,0 -0.41932,1.2 -1.74664,2.66667 -1.32732,1.46667 -2.7133,2.66667 -3.07997,2.66667 -0.36667,0 0.41932,-1.2 1.74664,-2.66667 z m 113.66667,-47.54971 c 0.91666,-0.36988 2.41666,-0.36988 3.33333,0 0.91667,0.36988 0.16667,0.67252 -1.66667,0.67252 -1.83333,0 -2.58333,-0.30264 -1.66666,-0.67252 z m 22.75,-0.0277 c 0.96249,-0.38516 2.1125,-0.3378 2.55556,0.1052 0.44305,0.44305 -0.34446,0.75819 -1.75,0.70029 -1.55327,-0.064 -1.8692,-0.37992 -0.80556,-0.80554 z"
         id="path6792" />
      <path
         style="fill:#000000;stroke-width:1.33333"
         d="m 698.66667,940.49913 c -12.50343,-1.5833 -27.48343,-5.33382 -42,-10.5155 -23.91379,-8.536 -27.30218,-10.24016 -47.02178,-23.64914 -15.59977,-10.60758 -20.41948,-14.81996 -34.42484,-30.08697 -21.82528,-23.7914 -31.99109,-41.171 -41.86965,-71.58085 -5.77693,-17.78356 -7.31468,-24.68287 -9.24153,-41.46331 -2.18403,-19.02019 -2.18632,-21.22544 -0.0415,-40 3.84765,-33.68015 15.73757,-66.49533 33.84736,-93.41593 1.55861,-2.31691 9.41541,-11.51608 17.45955,-20.44262 12.40854,-13.76966 17.4319,-18.16377 33.1369,-28.98594 18.9429,-13.05339 28.27152,-17.66391 52.82215,-26.10646 19.75801,-6.79445 35.48367,-9.24464 59.33333,-9.24464 30.13467,0 50.5265,4.47403 83.44231,18.30748 12.05321,5.06559 42.17623,25.33016 50.41416,33.91499 30.84843,32.14745 41.946,49.67161 53.10295,83.85479 9.78013,29.96482 12.30869,50.29838 9.79649,78.77877 -1.50911,17.10843 -2.52648,21.83117 -9.33517,43.33525 -10.19627,32.2031 -19.2014,47.79751 -42.20319,73.08424 -14.25612,15.6723 -18.3334,19.21766 -35.33333,30.72374 -16.76108,11.34442 -21.73854,13.95249 -38.93991,20.40358 -28.12061,10.54619 -38.36743,12.60648 -65.61097,13.19216 -12.46667,0.26802 -24.76667,0.22138 -27.33334,-0.1036 z M 746,931.94819 c 13.06423,-1.86492 23.04232,-4.54404 39.90364,-10.71415 19.54753,-7.15309 24.63823,-9.84808 43.75861,-23.16568 13.04215,-9.08401 19.29627,-14.64113 31.00442,-27.54903 20.21534,-22.28684 30.38576,-39.80686 39.3951,-67.86385 9.91274,-30.87033 12.28992,-51.25061 9.26595,-79.43964 -2.60161,-24.25191 -12.6352,-55.22207 -24.52295,-75.69371 -13.21884,-22.76393 -33.10276,-44.31205 -55.37092,-60.00528 -18.45174,-13.00364 -25.37498,-16.52316 -48.42464,-24.6173 -22.6964,-7.97008 -35.17705,-10.06291 -60.34254,-10.11852 -29.75986,-0.0657 -41.60555,2.36218 -74.78048,15.32749 -9.73347,3.804 -18.5145,8.72141 -31.7959,17.80583 -15.8782,10.86062 -20.44074,14.86858 -33.88618,29.7673 -23.10962,25.60747 -33.41459,45.11175 -44.19535,83.64874 -1.43651,5.13496 -3.44416,16.96032 -4.46145,26.27858 -2.77864,25.45216 -0.28746,46.06783 9.16968,75.88303 9.48044,29.88863 19.34605,46.83413 40.87489,70.20811 12.15112,13.19253 18.30719,18.58476 31.74145,27.80301 17.9579,12.32225 21.32319,14.05025 42.66667,21.90828 16.29487,5.99929 27.42043,8.99357 39.02531,10.50311 12.022,1.56378 40.1258,1.58234 50.97469,0.0337 z"
         id="path6790" />
    </g>
  </g>
</svg>
