<?xml version="1.0" encoding="UTF-8" standalone="no"?>
<!-- Created with Inkscape (http://www.inkscape.org/) -->

<svg
   width="64"
   height="64"
   id="svg3559"
   version="1.1"
   inkscape:version="1.1.2 (b8e25be833, 2022-02-05)"
   sodipodi:docname="PartDesign_Body.svg"
   viewBox="0 0 64 64"
   xmlns:inkscape="http://www.inkscape.org/namespaces/inkscape"
   xmlns:sodipodi="http://sodipodi.sourceforge.net/DTD/sodipodi-0.dtd"
   xmlns:xlink="http://www.w3.org/1999/xlink"
   xmlns="http://www.w3.org/2000/svg"
   xmlns:svg="http://www.w3.org/2000/svg"
   xmlns:rdf="http://www.w3.org/1999/02/22-rdf-syntax-ns#"
   xmlns:cc="http://creativecommons.org/ns#"
   xmlns:dc="http://purl.org/dc/elements/1.1/">
  <defs
     id="defs3561">
    <linearGradient
       inkscape:collect="always"
       id="linearGradient4383">
      <stop
         style="stop-color:#3465a4;stop-opacity:1"
         offset="0"
         id="stop4385" />
      <stop
         style="stop-color:#729fcf;stop-opacity:1"
         offset="1"
         id="stop4387" />
    </linearGradient>
    <linearGradient
       inkscape:collect="always"
       xlink:href="#linearGradient4383"
       id="linearGradient4389"
       x1="20.243532"
       y1="37.588112"
       x2="17.243532"
       y2="27.588112"
       gradientUnits="userSpaceOnUse"
       gradientTransform="translate(-1.243533,-2.588112)" />
    <linearGradient
       inkscape:collect="always"
       xlink:href="#linearGradient4383-3"
       id="linearGradient4389-0"
       x1="27.243532"
       y1="54.588112"
       x2="21.243532"
       y2="30.588112"
       gradientUnits="userSpaceOnUse"
       gradientTransform="translate(-1.243533,-2.588112)" />
    <linearGradient
       inkscape:collect="always"
       id="linearGradient4383-3">
      <stop
         style="stop-color:#3465a4;stop-opacity:1"
         offset="0"
         id="stop4385-1" />
      <stop
         style="stop-color:#729fcf;stop-opacity:1"
         offset="1"
         id="stop4387-2" />
    </linearGradient>
    <linearGradient
       inkscape:collect="always"
       xlink:href="#linearGradient4393-9"
       id="linearGradient4399-7"
       x1="48.714352"
       y1="45.585785"
       x2="40.714352"
       y2="24.585787"
       gradientUnits="userSpaceOnUse"
       gradientTransform="translate(1.2856487,1.4142136)" />
    <linearGradient
       inkscape:collect="always"
       id="linearGradient4393-9">
      <stop
         style="stop-color:#204a87;stop-opacity:1"
         offset="0"
         id="stop4395-8" />
      <stop
         style="stop-color:#3465a4;stop-opacity:1"
         offset="1"
         id="stop4397-1" />
    </linearGradient>
  </defs>
  <sodipodi:namedview
     id="base"
     pagecolor="#ffffff"
     bordercolor="#666666"
     borderopacity="1.0"
     inkscape:pageopacity="0.0"
     inkscape:pageshadow="2"
     inkscape:zoom="5.470524"
     inkscape:cx="28.333666"
     inkscape:cy="45.425265"
     inkscape:current-layer="layer1"
     showgrid="true"
     inkscape:document-units="px"
     inkscape:grid-bbox="true"
     inkscape:window-width="1920"
     inkscape:window-height="1028"
     inkscape:window-x="-6"
     inkscape:window-y="-6"
     inkscape:window-maximized="1"
     inkscape:snap-global="true"
     inkscape:pagecheckerboard="0">
    <inkscape:grid
       type="xygrid"
       id="grid3007"
       empspacing="2"
       visible="true"
       enabled="true"
       snapvisiblegridlinesonly="true" />
  </sodipodi:namedview>
  <metadata
     id="metadata3564">
    <rdf:RDF>
      <cc:Work
         rdf:about="">
        <dc:format>image/svg+xml</dc:format>
        <dc:type
           rdf:resource="http://purl.org/dc/dcmitype/StillImage" />
        <dc:title>Path-Stock</dc:title>
        <dc:date>2015-07-04</dc:date>
        <dc:relation>http://www.freecadweb.org/wiki/index.php?title=Artwork</dc:relation>
        <dc:publisher>
          <cc:Agent>
            <dc:title>FreeCAD</dc:title>
          </cc:Agent>
        </dc:publisher>
        <dc:identifier>FreeCAD/src/Mod/Path/Gui/Resources/icons/Path-Stock.svg</dc:identifier>
        <dc:rights>
          <cc:Agent>
            <dc:title>FreeCAD LGPL2+</dc:title>
          </cc:Agent>
        </dc:rights>
        <cc:license>https://www.gnu.org/copyleft/lesser.html</cc:license>
        <dc:contributor>
          <cc:Agent>
            <dc:title>[agryson] Alexander Gryson</dc:title>
          </cc:Agent>
        </dc:contributor>
      </cc:Work>
    </rdf:RDF>
  </metadata>
  <g
     id="layer1"
     inkscape:label="Layer 1"
     inkscape:groupmode="layer">
    <g
       id="g10361"
       transform="matrix(0.05555828,0,0,0.05555828,30.063923,26.066746)">
      <path
         style="fill:#d5eff6;stroke-width:1.33333"
         d="m 590.59488,289.56494 c 0,-102.3 0.15822,-144.15 0.35161,-93 0.19339,51.15 0.19339,134.85 0,186 -0.19339,51.15 -0.35161,9.3 -0.35161,-93 z M 22.613303,287.75431 c -4.4,-1.65749 -61.496066,-21.57273 -126.880143,-44.25608 -65.38407,-22.68336 -118.62719,-41.65174 -118.31804,-42.15197 0.30916,-0.50021 2.36394,-1.30524 4.56621,-1.78893 2.20225,-0.48371 35.34537,-11.67428 73.65137,-24.86796 C 9.2300633,121.78606 143.8768,75.593033 191.27997,59.53942 c 27.5,-9.313173 65.48168,-22.552333 84.40372,-29.42036 l 34.40372,-12.487307 82.92961,28.518014 c 149.8585,51.533653 174.26314,60.039533 174.2472,60.731333 -0.0253,1.10247 -531.05145,184.04595 -533.98425,183.9626 -1.466667,-0.0416 -6.266667,-1.43189 -10.666667,-3.08939 z M -370.98798,-213.58835 c -69.81402,-24.29903 -127.21364,-44.48004 -127.55466,-44.84671 -0.80326,-0.86361 531.18265,-184.53279 533.82261,-184.30329 2.401733,0.20878 256.08971,87.94856 257.04039,88.89924 0.36453,0.36452 -0.78248,1.21226 -2.54892,1.88386 -18.70044,7.1099 -529.93366,182.81383 -531.58986,182.70023 -1.22922,-0.0843 -59.35552,-20.03431 -129.16956,-44.33333 z"
         id="path10375" />
      <path
         style="fill:#aed9e5;stroke-width:1.33333"
         d="m -234.60116,176.23161 c -0.46747,-1.83334 -0.68544,-78.23371 -0.4844,-169.7786033 l 0.36553,-166.4452667 269.333333,-92.97767 269.333337,-92.97766 0.4135,142.0896 c 0.22744,78.14928 0.0133,157.697877 -0.47572,176.774677 L 302.99518,7.6017667 267.4709,19.79534 c -19.53834,6.70648 -77.52426,26.60988 -128.8576,44.229787 -152.393863,52.308443 -257.43634,82.126823 -343.33333,97.461933 -24.97316,4.45844 -23.42681,3.63644 -27.73761,14.74455 l -1.29359,3.33333 z m 83.21446,0 c 1.1,-0.71088 2.6,-1.2925 3.33334,-1.2925 0.73333,0 0.43333,0.58162 -0.66667,1.2925 -1.1,0.71088 -2.6,1.29249 -3.33333,1.29249 -0.73334,0 -0.43334,-0.58161 0.66666,-1.29249 z m 38.66667,-13.33334 c 1.1,-0.71088 2.6,-1.29249 3.33333,-1.29249 0.73334,0 0.43334,0.58161 -0.66666,1.29249 -1.1,0.71088 -2.6,1.2925 -3.33334,1.2925 -0.73333,0 -0.43333,-0.58162 0.66667,-1.2925 z m 34.666667,-11.77505 c 1.1,-0.67964 3.5,-1.63693 5.333333,-2.12733 2.31664,-0.61967 2.72332,-0.51471 1.333333,0.3441 -1.1,0.67964 -3.5,1.63694 -5.333333,2.12734 -2.31664,0.61966 -2.72332,0.5147 -1.333333,-0.34411 z m 38.666666,-13.33333 c 1.1,-0.67964 3.5,-1.63694 5.333334,-2.12734 2.31664,-0.61966 2.72332,-0.5147 1.333333,0.34411 -1.1,0.67964 -3.5,1.63693 -5.333333,2.12733 -2.31664,0.61967 -2.72332,0.51471 -1.333334,-0.3441 z M 1.27997,123.71603 c 2.2,-1.00177 5.5,-2.18941 7.3333333,-2.63917 2.6771197,-0.65679 2.5458797,-0.4592 -0.6666666,1.00365 -2.2,1.00178 -5.5,2.18942 -7.33333337,2.63918 -2.67712003,0.65678 -2.54588003,0.4592 0.66666667,-1.00366 z m 572.66667,-6.15109 c 2.58501,-1.67056 4,-1.67056 4,0 0,0.73333 -1.35,1.32415 -3,1.31292 -2.42592,-0.0165 -2.61728,-0.26776 -1,-1.31292 z M 36.613303,111.82999 c 0,-0.9041 16.308334,-6.40116 16.98452,-5.72497 0.286867,0.28685 -2.667306,1.57009 -6.564813,2.85161 -3.897507,1.28154 -7.836373,2.60686 -8.75304,2.94518 -0.916667,0.3383 -1.666667,0.30598 -1.666667,-0.0719 z M 75.396917,98.43822 c 1.0898,-1.230733 20.212773,-7.654667 20.859986,-7.007453 0.289707,0.289706 -3.561586,1.8762 -8.558426,3.52556 -4.99684,1.649346 -9.985174,3.306613 -11.085174,3.682813 -1.1,0.376213 -1.647373,0.285787 -1.216386,-0.20092 z M 114.0858,85.08266 c 1.09214,-1.22948 36.1994,-12.956933 36.84753,-12.3088 0.28289,0.28288 -7.1734,3.064827 -16.56951,6.182093 -9.39612,3.117267 -17.98385,5.975134 -19.08385,6.350814 -1.1,0.37568 -1.63737,0.274826 -1.19417,-0.224107 z m 38.6403,-13.408293 c 0.96307,-0.96308 132.36242,-46.078654 132.83319,-45.60788 0.63755,0.637546 -42.56453,15.995306 -90.74407,32.258306 -39.91854,13.474494 -43.2803,14.540747 -42.08912,13.349574 z M -255.3867,-148.41077 c -6.28488,-3.84625 -24.27181,-10.66762 -79.33333,-30.0864 -46.29309,-16.32637 -62.58663,-21.96114 -100.66667,-34.81334 -23.83333,-8.04387 -50.38333,-17.06824 -59,-20.05418 l -15.66666,-5.42897 v -5.78769 c 0,-5.76842 0.012,-5.78299 3.66666,-4.37102 2.01667,0.77919 60.96667,21.22486 131,45.43482 70.03334,24.20996 127.51531,44.18956 127.73772,44.39912 0.2224,0.20957 0.2224,3.71429 0,7.78829 l -0.40438,7.40725 z"
         id="path10373" />
      <path
         style="fill:#a1cfde;stroke-width:1.33333"
         d="m -521.39619,108.23161 c 0,-202.033337 0.15425,-284.68334 0.34279,-183.66667 0.18853,101.016667 0.18853,266.31667 0,367.33333 -0.18854,101.01667 -0.34279,18.36667 -0.34279,-183.66666 z M 40.31737,332.89827 c -0.4794,-16.86666 -0.458933,-31.0685 0.04547,-31.55965 0.83892,-0.81683 64.80969,-23.021 408.19644,-141.6844 73.02233,-25.23417 118.98225,-40.47069 120.66666,-40.00313 2.19107,0.6082 2.33136,0.48262 0.72068,-0.64506 -1.176,-0.82336 -1.35826,-1.40866 -0.44238,-1.42068 0.85669,-0.0107 2.65669,-0.37701 4,-0.81285 2.03128,-0.65905 2.10573,-0.55028 0.44238,0.64624 -1.65281,1.18895 -1.45445,1.44224 1.14266,1.45912 2.24992,0.0147 2.92464,-0.54773 2.37517,-1.97959 -0.42211,-1.1 -0.14915,-2 0.60657,-2 0.93483,0 1.24111,32.6205 0.95816,102.04919 -0.35646,87.46797 -0.69256,102.22009 -2.35222,103.24535 -1.06499,0.6579 -2.38644,0.918 -2.93656,0.57801 -0.55012,-0.34 -6.57878,0.27743 -13.397,1.37207 -26.68228,4.28369 -65.30958,7.989 -99.06344,9.50261 -33.0509,1.48209 -131.05218,1.10013 -146.15272,-0.56961 -7.784,-0.86074 -19.184,-1.82804 -25.33334,-2.1496 -31.1871,-1.63083 -41.24032,-2.32552 -49.059,-3.39008 -4.69978,-0.6399 -8.89978,-1.12416 -9.33333,-1.07614 -0.43356,0.048 -1.08828,-0.005 -1.45495,-0.11773 -0.36666,-0.1128 -6.96666,-0.51145 -14.66666,-0.88596 -16.22188,-0.78897 -19.01679,-1.06545 -30.48319,-3.01551 -4.66576,-0.79349 -8.86576,-1.36993 -9.33333,-1.28098 -1.05843,0.20134 -5.38402,-1.35847 -8.64666,-3.11802 -1.35474,-0.73061 -2.78081,-1.01073 -3.16904,-0.6225 -0.38824,0.38822 -2.44742,-0.19472 -4.57598,-1.29544 -2.12856,-1.10072 -4.33115,-1.71639 -4.89462,-1.36814 -0.56348,0.34826 -1.8068,0.1497 -2.76292,-0.44122 -0.95613,-0.59092 -3.90696,-0.58531 -6.5574,0.012 -2.98084,0.67229 -5.44886,0.56409 -6.47034,-0.28367 -0.93787,-0.77836 -6.73587,-1.20956 -13.4192,-0.99799 -6.47231,0.2049 -12.44558,-0.0464 -13.27392,-0.55828 -0.82835,-0.51194 -2.41422,-0.58233 -3.52416,-0.15641 -1.22152,0.46875 -2.59272,-0.29936 -3.47399,-1.94601 -0.87251,-1.63028 -2.25604,-2.4134 -3.45257,-1.95426 -1.09815,0.4214 -2.89736,0.0187 -3.99824,-0.895 -1.293427,-1.07344 -4.04792,-1.3807 -7.785267,-0.86844 -5.462213,0.74868 -40.276613,11.8516 -45.076947,14.37582 -1.87144,0.98409 -2.126733,2.73276 -1.583653,10.84768 0.356107,5.32096 0.139627,15.07446 -0.48104,21.67446 -1.044667,11.10848 -1.193253,9.72167 -2.000133,-18.66666 z M -235.36628,184.6627 c 0.0133,-5.91284 0.44045,-8.43411 1.22026,-7.20203 0.88699,1.40144 1.58695,0.45812 2.6845,-3.61785 1.66964,-6.20057 5.56864,-9.61121 10.98742,-9.61121 2.00892,0 9.82542,-1.24712 17.36999,-2.77139 73.46309,-14.84203 115.14348,-25.53499 208.21316,-53.41641 21.905987,-6.5625 40.04036,-11.72055 40.298587,-11.46231 0.395626,0.395613 -273.845397,95.48409 -279.026857,96.74787 -1.33862,0.3265 -1.76252,-1.77636 -1.74706,-8.66667 z m -13.73303,-32.09789 c -0.57527,-3.85007 -1.91824,-19.45007 -2.98439,-34.66667 -1.06616,-15.21659 -2.57486,-36.666533 -3.35269,-47.666533 -1.53205,-21.666347 -4.2802,-39.09608 -6.80057,-43.131854 -1.93042,-3.09108 -11.95244,-5.512613 -25.83643,-6.242626 -5.54404,-0.291494 -10.61959,-0.86344 -11.279,-1.270987 -0.65941,-0.407533 -5.28689,-1.046787 -10.28329,-1.420547 -4.99639,-0.37376 -11.48435,-0.988973 -14.41768,-1.36716 -7.0414,-0.9078 -110.79687,-1.05576 -112.24615,-0.160053 -0.61796,0.38192 -11.31539,1.09152 -23.77205,1.576893 -12.45666,0.48536 -28.79847,1.618294 -36.31514,2.517627 l -13.66666,1.635147 V -108.03351 c 0,-71.72086 0.15,-130.39711 0.33333,-130.39167 0.78947,0.0233 119.78963,40.50021 141,47.95987 89.80493,31.58424 106.11348,37.63613 113.33333,42.0566 l 7.33334,4.48994 0.76986,-8.25814 c 1.03235,-11.07372 1.06512,185.27585 0.0427,255.74185 -0.51177,35.2706 -1.19972,53.40877 -1.85849,48.99987 z M 55.396917,93.104887 c 1.0898,-1.230734 20.212773,-7.654667 20.859986,-7.007454 0.289707,0.289707 -3.561586,1.8762 -8.558426,3.52556 -4.99684,1.649347 -9.985174,3.306614 -11.085174,3.682814 -1.1,0.376213 -1.647373,0.285786 -1.216386,-0.20092 z M 97.946637,78.49666 c 0,-0.904107 16.308333,-6.40116 16.984523,-5.724973 0.28686,0.286853 -2.66731,1.570093 -6.56482,2.851613 -3.8975,1.281533 -7.83637,2.606853 -8.753037,2.945173 -0.916666,0.338307 -1.666666,0.305987 -1.666666,-0.07187 z M 303.80226,-9.1017267 c 0,-9.9000003 0.2099,-13.9500003 0.46644,-9.0000003 0.25655,4.95 0.25655,13.0500003 0,18.00000033 -0.25654,4.94999997 -0.46644,0.9 -0.46644,-9.00000003 z"
         id="path10371" />
      <path
         style="fill:#95c7d7;stroke-width:1.33333"
         d="m 40.168917,585.01323 c -0.48892,-27.80326 -0.761014,-99.20318 -0.60464,-158.6665 0.156373,-59.46332 0.606373,-97.91512 1,-85.44846 l 0.715693,22.66667 1.139427,-16.20173 c 0.626693,-8.91096 0.7316,-18.61572 0.23312,-21.56614 -1.1026,-6.5263 -2.10512,-5.89638 22.491866,-14.13242 21.074574,-7.05659 29.129427,-8.5946 32.100027,-6.12923 1.10088,0.91365 2.90009,1.3164 3.99824,0.895 1.19653,-0.45915 2.58007,0.32397 3.45257,1.95425 0.88127,1.64666 2.25247,2.41476 3.47399,1.94602 1.10995,-0.42592 2.69581,-0.35554 3.52416,0.15641 0.82835,0.51195 6.80161,0.76317 13.27392,0.55828 6.68333,-0.21157 12.48133,0.21963 13.4192,0.99799 1.02148,0.84776 3.48951,0.95596 6.47035,0.28366 2.65044,-0.59776 5.60126,-0.60337 6.5574,-0.012 0.95612,0.59092 2.19944,0.78948 2.76292,0.44123 0.56346,-0.34825 2.76605,0.26741 4.89461,1.36813 2.12856,1.10072 4.18775,1.68367 4.57599,1.29544 0.38822,-0.38822 1.81429,-0.10813 3.16904,0.62251 3.26264,1.75955 7.58822,3.31936 8.64665,3.11801 0.46757,-0.0889 4.66757,0.4875 9.33333,1.28099 11.4664,1.95005 14.26131,2.22653 30.48319,3.01551 7.7,0.3745 14.3,0.77318 14.66667,0.88596 0.36666,0.1128 1.02138,0.16574 1.45494,0.11773 0.43355,-0.048 4.63355,0.43624 9.33334,1.07613 7.81868,1.06456 17.87189,1.75926 49.059,3.39008 6.14933,0.32156 17.54933,1.28887 25.33333,2.1496 15.10055,1.66975 113.10183,2.05171 146.15272,0.56962 33.68489,-1.51052 72.35992,-5.2169 98.94309,-9.48211 6.75204,-1.08335 12.75204,-1.89013 13.33334,-1.79285 3.51041,0.58742 4.29242,-0.70083 4.73825,-7.8056 0.2646,-4.21667 0.59455,29.08333 0.73321,74 0.13866,44.91666 0.0404,81.66666 -0.21848,81.66666 -0.25882,0 -51.10882,17.43959 -113,38.75464 -61.89117,21.31458 -138.02941,47.44548 -169.19608,58.0682 -31.16666,10.62272 -62.54624,21.35295 -69.73238,23.84496 -7.18615,2.49202 -13.78615,4.27811 -14.66667,3.9691 -0.88052,-0.30903 -8.50095,-1.18795 -16.93428,-1.95319 -12.89288,-1.16988 -63.57549,-6.55116 -82,-8.70643 -2.93333,-0.34314 -11.14871,-1.8285 -18.2564,-3.30081 -7.10768,-1.47232 -14.52108,-2.67693 -16.4742,-2.67693 -1.953133,0 -7.23776,-0.98664 -11.743613,-2.19255 -9.22948,-2.47009 -15.60028,-2.50668 -17.096934,-0.0983 -1.95108,3.13975 -3.747146,14.47471 -5.80064,36.6078 -1.14048,12.29228 -2.24836,22.94954 -2.46196,23.68278 -0.2136,0.73325 -0.788386,-21.41495 -1.277306,-49.2182 z M 25.436557,417.54191 c -2.082787,-37.51029 -4.26916,-60.90277 -6.357814,-68.02377 -1.360813,-4.63949 -1.490413,-4.71096 -8.257306,-4.55335 -3.781147,0.0881 -7.4748003,-0.17562 -8.2081337,-0.58598 -0.7333333,-0.41038 -4.9333333,-0.8799 -9.3333333,-1.04339 -4.4,-0.16349 -8.3,-0.37988 -8.666667,-0.48087 -2.022373,-0.55702 -16.089933,0.39183 -20.622533,1.39096 -2.909053,0.64126 -5.909053,0.70963 -6.666667,0.15192 -2.09892,-1.54509 -40.339946,-1.84457 -41.28016,-0.32328 -0.45632,0.73835 -4.688013,1.04074 -9.78404,0.69916 -18.644023,-1.24966 -99.920573,-0.34332 -130.313263,1.45316 -8.06667,0.47682 -19.46667,1.01494 -25.33334,1.19582 -51.9888,1.60294 -73.12848,2.45957 -88,3.56596 -9.53333,0.70924 -21.23333,1.55652 -26,1.88284 -4.76666,0.32632 -17.66666,1.21982 -28.66666,1.9856 -23.28935,1.62128 -33.81286,2.24961 -56.66667,3.38344 -9.16667,0.45478 -26.26667,1.68648 -38,2.7371 -11.73333,1.05062 -21.78561,1.91266 -22.3384,1.91563 -0.55279,0.003 -0.85279,-76.64459 -0.66667,-170.32792 l 0.3384,-170.333333 13.33334,-1.555494 c 7.33333,-0.855506 23.52514,-1.957746 35.9818,-2.4494 12.45666,-0.491666 23.15409,-1.206413 23.77205,-1.588333 1.44928,-0.895707 105.20475,-0.747747 112.24615,0.160053 2.93333,0.378187 9.42129,0.9934 14.41768,1.36716 4.9964,0.37376 9.62388,1.013014 10.28329,1.420547 0.65941,0.407547 5.73496,0.979493 11.279,1.270987 13.88399,0.730013 23.90601,3.151546 25.83643,6.242626 2.52037,4.035774 5.26852,21.465507 6.80057,43.131854 0.77783,11 2.28653,32.449943 3.35269,47.666533 3.27075,46.68172 3.97828,45.43295 4.72142,-8.3332 0.68528,-49.580293 0.69368,-49.371987 1,24.81511 l 0.30892,74.8151 3.14161,-0.60056 c 1.93056,-0.36905 54.87095,17.3062 137.33317,45.85156 l 134.191563,46.45212 -0.0936,64 c -0.0936,64.01215 -1.30396,84.68112 -3.082866,52.64364 z m -261.820347,-571.3103 c 0.0148,-2.93334 0.28785,-3.97634 0.60677,-2.31779 0.31892,1.65855 0.30682,4.05855 -0.0269,5.33333 -0.33372,1.27479 -0.59467,-0.0823 -0.57987,-3.01554 z m -274.40903,-55.33334 c 0,-23.1 0.18162,-32.55 0.40359,-21 0.22197,11.55 0.22197,30.45 0,42 -0.22197,11.55 -0.40359,2.1 -0.40359,-21 z"
         id="path10369" />
      <path
         style="fill:#89bcce;stroke-width:1.33333"
         d="m -70.72003,620.34845 c -54.26667,-18.84814 -174.86667,-60.57542 -268,-92.72728 -93.13333,-32.15187 -170.08333,-59.04103 -171,-59.75368 -1.32669,-1.03142 -1.59935,-66.06248 -1.33664,-318.79914 l 0.33004,-317.50341 0.33992,265.666667 c 0.18695,146.116663 0.78844,265.664223 1.33663,265.661253 0.5482,-0.003 10.59672,-0.86501 22.33005,-1.91563 11.73333,-1.05062 28.83333,-2.28232 38,-2.7371 22.85381,-1.13383 33.37732,-1.76216 56.66667,-3.38344 11,-0.76578 23.9,-1.65928 28.66666,-1.9856 4.76667,-0.32632 16.46667,-1.1736 26,-1.88284 14.87152,-1.10639 36.0112,-1.96302 88,-3.56596 5.86667,-0.18088 17.26667,-0.719 25.33334,-1.19582 30.39269,-1.79648 111.66924,-2.70282 130.313263,-1.45316 5.096027,0.34158 9.32772,0.0392 9.78404,-0.69916 0.940214,-1.52129 39.18124,-1.22181 41.28016,0.32328 0.757614,0.55771 3.757614,0.48934 6.666667,-0.15192 4.5326,-0.99913 18.60016,-1.94798 20.622533,-1.39096 0.366667,0.10094 4.266667,0.31738 8.666667,0.48087 4.4,0.16349 8.6,0.63301 9.3333333,1.04339 0.7333334,0.41036 4.4269867,0.67405 8.2081337,0.58598 6.766893,-0.15761 6.896493,-0.0861 8.257306,4.55335 2.088654,7.121 4.275027,30.51348 6.357814,68.02377 0.564413,10.16503 1.326093,15.6146 1.956733,14 0.56792,-1.454 1.07476,48.20636 1.126293,110.35636 0.0516,62.15 -0.05627,112.93694 -0.239613,112.85974 -0.183333,-0.0773 -44.733333,-15.56143 -99,-34.40956 z m 110.298773,-9.15754 0.298774,-43.62597 0.735786,34 c 0.40468,18.7 0.872014,32.8 1.038507,31.33333 0.166493,-1.46666 1.19352,-11.96666 2.282293,-23.33333 2.00016,-20.88177 3.905494,-32.65155 5.76692,-35.62408 1.508174,-2.40841 7.875374,-2.37185 17.104734,0.0983 4.505853,1.2059 9.79048,2.19254 11.743613,2.19254 1.95312,0 9.36652,1.20462 16.4742,2.67694 7.10769,1.4723 15.32307,2.95766 18.2564,3.30081 18.42451,2.15527 69.10712,7.53655 82,8.70643 8.43333,0.76524 16.10132,1.66241 17.03997,1.99374 0.93867,0.33132 5.697,-0.89956 10.57408,-2.73529 4.8771,-1.83572 9.41476,-3.15524 10.08374,-2.93225 0.66896,0.22298 -29.88938,11.11525 -67.90742,24.20504 -38.01804,13.08978 -81.873703,28.20292 -97.457037,33.58473 L 39.27997,654.81694 Z M 236.6133,585.56494 c 1.1,-0.71088 2.9,-1.25952 4,-1.2192 1.31875,0.0483 1.09166,0.46363 -0.66666,1.2192 -3.66546,1.57509 -5.77063,1.57509 -3.33334,0 z m 6.79203,-1.8018 c 1.09045,-1.22997 24.20757,-8.97637 24.85513,-8.32881 0.28708,0.28708 -4.46608,2.1719 -10.5626,4.18849 -6.0965,2.0166 -11.98456,3.97413 -13.08456,4.35011 -1.1,0.37596 -1.64358,0.28154 -1.20797,-0.20979 z m 55.87464,-19.53153 c 1.1,-0.71088 2.6,-1.2925 3.33333,-1.2925 0.73334,0 0.43334,0.58162 -0.66666,1.2925 -1.1,0.71088 -2.6,1.29249 -3.33334,1.29249 -0.73333,0 -0.43333,-0.58161 0.66667,-1.29249 z m -535.38477,-371 c -0.34892,-0.91667 -0.48004,-78.46667 -0.29139,-172.333337 l 0.34303,-170.666663 0.66657,172.333383 c 0.3666,94.783357 0.49773,172.333357 0.29139,172.333337 -0.20636,-3e-5 -0.66067,-0.75006 -1.0096,-1.66672 z m 815.37608,-65.9392 c -0.36188,-7.48323 -0.18419,-13.12944 0.39489,-12.54714 0.57907,0.5823 0.87516,6.70494 0.65797,13.60587 l -0.39489,12.54713 z"
         id="path10367" />
      <path
         style="fill:#679cb1;stroke-width:1.33333"
         d="m 38.55333,654.54241 c -0.344133,-0.90427 -0.471413,-81.09415 -0.282853,-178.19972 0.275346,-141.80575 0.677426,-176.62338 2.042826,-176.9 0.935,-0.18943 1.085,-0.0395 0.333334,0.33336 -0.92308,0.45778 -1.366667,58.18664 -1.366667,177.85816 0,156.94588 0.2284,177.09273 2,176.41286 1.1,-0.42213 2,-0.46746 2,-0.10133 0,1.568 -4.157293,2.09227 -4.72664,0.59613 z M 28.94169,478.00938 C 28.681743,337.45943 28.265943,300.31366 26.946637,299.78131 c -1.305414,-0.52674 -1.296347,-0.69533 0.04187,-0.77777 0.939694,-0.0579 1.99396,0.64473 2.34284,1.5614 0.348867,0.91667 0.477814,81.16667 0.286547,178.33333 l -0.347773,176.66667 -0.3284,-177.55556 z M 11.52997,649.98746 c -5.3625067,-1.85183 -9.5137867,-3.60317 -9.2250933,-3.89187 0.5652,-0.56521 19.6310663,5.68082 20.7470403,6.79682 1.227546,1.2276 -1.671894,0.49653 -11.521947,-2.90495 z m 60.416667,-6.27143 c 2.2,-1.00177 5.5,-2.18941 7.333333,-2.63917 2.67712,-0.65679 2.54588,-0.4592 -0.666667,1.00365 -2.2,1.00178 -5.5,2.18942 -7.333333,2.63918 -2.67712,0.65678 -2.54588,0.4592 0.666667,-1.00366 z m -97.083334,-6.39524 c -6.462506,-2.21849 -11.515666,-4.26796 -11.229266,-4.55436 0.565093,-0.5651 23.625853,7.00066 24.7428,8.1176 1.272466,1.27246 -1.744107,0.47706 -13.513534,-3.56324 z M 110.6133,630.3827 c 2.2,-1.00177 5.5,-2.18941 7.33334,-2.63917 2.67712,-0.65679 2.54588,-0.4592 -0.66667,1.00365 -2.2,1.00177 -5.5,2.18941 -7.33333,2.63917 -2.67712,0.65679 -2.54588,0.4592 0.66666,-1.00365 z m -170.416663,-5.06191 c -6.462507,-2.21849 -11.515667,-4.26796 -11.229267,-4.55436 0.565093,-0.5651 23.625853,7.00066 24.7428,8.1176 1.272467,1.27246 -1.744107,0.47706 -13.513533,-3.56324 z m 209.083333,-8.27142 c 2.2,-1.00178 5.5,-2.18942 7.33333,-2.63918 2.67712,-0.65678 2.54588,-0.4592 -0.66666,1.00366 -2.2,1.00177 -5.5,2.18941 -7.33334,2.63917 -2.67712,0.65679 -2.54588,0.4592 0.66667,-1.00365 z m -245.75,-4.39524 c -5.36251,-1.85183 -9.51379,-3.60318 -9.22509,-3.89187 0.5652,-0.56521 19.631063,5.68088 20.747037,6.79685 1.227546,1.22755 -1.671894,0.49652 -11.521947,-2.90498 z m 282.41667,-8.19758 c 1.1,-0.67964 3.5,-1.63693 5.33333,-2.12733 2.31664,-0.61967 2.72332,-0.51471 1.33333,0.34411 -1.1,0.67964 -3.5,1.63693 -5.33333,2.12733 -2.31664,0.61967 -2.72332,0.51471 -1.33333,-0.34411 z m -317.08334,-3.80242 c -5.3625,-1.85183 -9.51378,-3.60318 -9.22509,-3.89187 0.5652,-0.56521 19.63107,5.68088 20.74704,6.79685 1.22755,1.22755 -1.67189,0.49652 -11.52195,-2.90498 z m -36.66666,-12.66667 c -6.46251,-2.21849 -11.51567,-4.26796 -11.22927,-4.55436 0.56509,-0.56511 23.62585,7.00065 24.7428,8.1176 1.27247,1.27245 -1.74411,0.47705 -13.51353,-3.56324 z m 396.41666,1.57748 c 1.1,-0.71088 2.6,-1.29249 3.33334,-1.29249 0.73333,0 0.43333,0.58161 -0.66667,1.29249 -1.1,0.71088 -2.6,1.29249 -3.33333,1.29249 -0.73334,0 -0.43334,-0.58161 0.66666,-1.29249 z m -433.08333,-14.24415 c -5.36251,-1.85182 -9.51379,-3.60317 -9.22509,-3.89186 0.5652,-0.56522 19.63106,5.68088 20.74704,6.79685 1.22754,1.22755 -1.6719,0.49652 -11.52195,-2.90499 z m 471.75,0.91082 c 1.1,-0.71088 2.6,-1.2925 3.33333,-1.2925 0.73334,0 0.43334,0.58162 -0.66666,1.2925 -1.1,0.71088 -2.6,1.29249 -3.33334,1.29249 -0.73333,0 -0.43333,-0.58161 0.66667,-1.29249 z M -241.1367,562.65413 c -4.26249,-1.48516 -7.51666,-2.93363 -7.23148,-3.21882 0.60631,-0.6063 16.98148,4.77964 16.98148,5.58536 0,0.8698 -1.5212,0.50056 -9.75,-2.36654 z m 543.08334,1.80242 c 1.1,-0.67964 3.5,-1.63693 5.33333,-2.12733 2.31664,-0.61967 2.72332,-0.51471 1.33333,0.34411 -1.1,0.67964 -3.5,1.63693 -5.33333,2.12733 -2.31664,0.61967 -2.72332,0.51471 -1.33333,-0.34411 z m -577.75,-13.80242 c -4.2625,-1.48516 -7.51667,-2.93363 -7.23148,-3.21882 0.6063,-0.6063 16.98148,4.77964 16.98148,5.58536 0,0.8698 -1.5212,0.50056 -9.75,-2.36654 z m 616.41666,0.46909 c 1.1,-0.67964 3.5,-1.63693 5.33334,-2.12733 2.31664,-0.61967 2.72332,-0.51471 1.33333,0.3441 -1.1,0.67964 -3.5,1.63694 -5.33333,2.12734 -2.31664,0.61966 -2.72332,0.5147 -1.33334,-0.34411 z m -651.08333,-12.46909 c -4.26249,-1.48516 -7.51667,-2.93363 -7.23148,-3.21882 0.60631,-0.6063 16.98148,4.77964 16.98148,5.58536 0,0.8698 -1.5212,0.50056 -9.75,-2.36654 z m 689.75,-1.08919 c 1.1,-0.71088 2.6,-1.29249 3.33333,-1.29249 0.73334,0 0.43334,0.58161 -0.66666,1.29249 -1.1,0.71088 -2.6,1.29249 -3.33334,1.29249 -0.73333,0 -0.43333,-0.58161 0.66667,-1.29249 z M -349.1367,525.32079 c -4.2625,-1.48516 -7.51666,-2.93362 -7.23148,-3.21881 0.60631,-0.60631 16.98148,4.77964 16.98148,5.58536 0,0.8698 -1.5212,0.50056 -9.75,-2.36655 z m 767.08334,-1.08918 c 1.1,-0.71088 2.6,-1.2925 3.33333,-1.2925 0.73333,0 0.43333,0.58162 -0.66667,1.2925 -1.1,0.71088 -2.6,1.29249 -3.33333,1.29249 -0.73333,0 -0.43333,-0.58161 0.66667,-1.29249 z m -801.75,-10.91082 c -4.26251,-1.48516 -7.51667,-2.93362 -7.23148,-3.21881 0.6063,-0.60631 16.98148,4.77964 16.98148,5.58536 0,0.8698 -1.5212,0.50056 -9.75,-2.36655 z m 840.41666,-2.42252 c 1.1,-0.71088 2.6,-1.29249 3.33334,-1.29249 0.73333,0 0.43333,0.58161 -0.66667,1.29249 -1.1,0.71088 -2.6,1.2925 -3.33333,1.2925 -0.73334,0 -0.43334,-0.58162 0.66666,-1.2925 z m -877.08333,-10.24414 c -3.16251,-1.1185 -5.51425,-2.26939 -5.22611,-2.55752 0.60834,-0.60834 12.97611,3.45226 12.97611,4.26033 0,0.83492 -1.51715,0.50157 -7.75,-1.70281 z m 915.75,-3.08919 c 1.1,-0.71088 2.6,-1.29249 3.33333,-1.29249 0.73334,0 0.43334,0.58161 -0.66666,1.29249 -1.1,0.71088 -2.6,1.29249 -3.33334,1.29249 -0.73333,0 -0.43333,-0.58161 0.66667,-1.29249 z m -950.41667,-8.91081 c -3.1625,-1.1185 -5.51425,-2.26939 -5.2261,-2.55752 0.60833,-0.60834 12.9761,3.45226 12.9761,4.26033 0,0.83492 -1.51714,0.50157 -7.75,-1.70281 z m 989.08334,-4.42252 c 1.1,-0.71088 2.6,-1.2925 3.33333,-1.2925 0.73333,0 0.43333,0.58162 -0.66667,1.2925 -1.1,0.71088 -2.6,1.29249 -3.33333,1.29249 -0.73333,0 -0.43333,-0.58161 0.66667,-1.29249 z m -1025.75,-8.24415 c -4.26251,-1.48516 -7.51667,-2.93363 -7.23148,-3.21881 0.6063,-0.60631 16.98148,4.77964 16.98148,5.58536 0,0.8698 -1.5212,0.50056 -9.75,-2.36655 z m -19.58334,-7.83455 c 0,-0.77661 0.6,-1.0412 1.33334,-0.58797 0.73333,0.45323 1.33333,1.08864 1.33333,1.41203 0,0.32338 -0.6,0.58797 -1.33333,0.58797 -0.73334,0 -1.33334,-0.63541 -1.33334,-1.41203 z M 578.94792,363.89841 c 0.18405,-58.11674 0.49038,-132.3668 0.68074,-165.00014 0.19038,-32.63333 0.4898,14.91667 0.66539,105.66667 0.17559,90.75 -0.1308,165.00007 -0.68075,165.00013 -0.55,8e-5 -0.84942,-47.54992 -0.66538,-105.66666 z M -246.37739,23.692193 c -0.18845,-101.496666 0.10733,-184.261263 0.65736,-183.921303 0.55,0.33996 1,83.03269 1,183.761623 0,145.267267 0.34468,183.282627 1.66667,183.816057 0.99917,0.40317 0.73589,0.71466 -0.65736,0.77777 -2.19755,0.0996 -2.34268,-9.93749 -2.66667,-184.434147 z M 303.94664,-169.10173 c 0,-98.12661 0.45,-178.1339 1,-177.79398 0.55,0.33992 1,80.34721 1,177.79398 0,97.446777 -0.45,177.45407 -1,177.79399 -0.55,0.33992 -1,-79.667373 -1,-177.79399 z m 10.32853,-4.88889 c -0.26015,-144.81655 -0.67548,-183.02888 -1.9952,-183.5614 -1.30541,-0.52675 -1.29635,-0.69533 0.0419,-0.77777 0.93969,-0.0579 1.99393,0.64473 2.34276,1.5614 0.34884,0.91666 0.47784,83.56666 0.28669,183.66666 L 314.60373,8.8982733 314.2752,-173.99062 Z"
         id="path10365" />
      <path
         style="fill:#050809;stroke-width:1.33333"
         d="m -244.05336,571.05827 -276,-95.60592 -0.33572,-367.40156 c -0.31854,-348.60366 -0.2162,-367.50918 2,-369.50469 2.16813,-1.95223 549.625103,-191.64783 553.091037,-191.64783 1.404066,0 266.685223,91.31759 275.578013,94.86207 l 3.66667,1.46145 V -174.38358 8.0110467 l 5.66666,2.1001333 c 3.11667,1.15508 64.73819,22.506213 136.93671,47.446987 72.19852,24.94076 131.75063,45.827443 132.33803,46.414843 0.5874,0.5874 0.91588,84.42346 0.72996,186.30237 l -0.33803,185.23439 -276.66667,95.60146 c -152.16666,52.5808 -277.566663,95.59051 -278.666663,95.57718 -1.1,-0.0133 -126.2,-43.04688 -277.999997,-95.63014 z m 717.66666,-65.10166 107,-36.91622 V 291.30267 c 0,-141.33453 -0.34136,-177.72497 -1.66666,-177.67541 -0.91667,0.0343 -122.86667,41.92588 -271,93.09243 l -269.333337,93.0301 -0.342826,176.57424 c -0.18856,97.11583 -0.08627,177.24904 0.22736,178.07384 0.360053,0.94694 60.924373,-19.32662 164.342823,-55.01277 90.07495,-31.08176 211.92264,-73.12459 270.77264,-93.42849 z m -443.99513,-28.66418 -0.3382,-177.60585 -134,-46.37808 c -73.7,-25.50793 -135.35,-46.38531 -137,-46.39415 l -3,-0.0161 V 23.643633 c 0,-125.912563 -0.43569,-183.523923 -1.39239,-184.115183 -1.93577,-1.19638 -262.51441,-91.29684 -264.03866,-91.29684 -0.75555,0 -1.23562,140.00476 -1.23562,360.35061 v 360.35061 l 268.33334,92.8957 c 147.58333,51.09262 269.385517,92.93481 270.67153,92.98268 2.219067,0.0827 2.320973,-8.96164 2,-177.51878 z M 302.55096,200.17354 c 146.63237,-50.62171 266.88237,-92.31752 267.22221,-92.65736 0.33985,-0.33985 0.30787,-0.92796 -0.0711,-1.30691 -0.37894,-0.37894 -58.99901,-20.855677 -130.2668,-45.50385 L 309.8575,15.890567 42.23541,108.22578 c -147.19215,50.78436 -267.87208,92.56109 -268.17764,92.83719 -0.30555,0.27608 -0.17916,0.87837 0.28088,1.3384 1.32913,1.32914 255.980253,89.51408 258.941347,89.67062 1.466666,0.0776 122.638613,-41.27676 269.270983,-91.89845 z M 36.454317,101.7437 C 183.40021,51.013407 304.15021,9.1844733 304.78765,8.7905133 306.20294,7.91582 306.36118,-346.05245 304.94664,-346.82099 c -0.55,-0.29882 -122.65,41.46932 -271.333337,92.81806 l -270.333333,93.36138 V 17.283793 195.20914 l 3,-0.61428 c 1.65,-0.33785 123.22845,-42.12088 270.174347,-92.85116 z M 26.58197,-259.80398 c 146.64944,-50.61929 267.19977,-92.59952 267.88963,-93.28937 0.78349,-0.7835 0.54502,-1.50523 -0.63534,-1.92286 -48.8672,-17.28977 -257.48753,-88.75218 -259.094397,-88.75218 -2.727413,0 -532.904733,182.65085 -534.706333,184.21113 -0.68445,0.59276 -0.92332,1.39889 -0.53083,1.79139 0.84918,0.84916 257.17459,89.79989 259.1086,89.91656 0.73334,0.0443 121.31924,-41.33536 267.96867,-91.95467 z"
         id="path10363" />
    </g>
  </g>
  <g
     inkscape:groupmode="layer"
     id="layer2"
     inkscape:label="temporal"
     style="display:none;opacity:0.58800001"
     sodipodi:insensitive="true">
    <path
       inkscape:connector-curvature="0"
       id="path68967"
       d="M 9,35 9,49"
       style="fill:#ef2929;fill-rule:evenodd;stroke:#ef2929;stroke-width:1px;stroke-linecap:butt;stroke-linejoin:miter;stroke-opacity:1"
       sodipodi:nodetypes="cc" />
    <path
       inkscape:connector-curvature="0"
       id="path68971"
       d="M 9,35 37,45"
       style="fill:#ef2929;fill-rule:evenodd;stroke:#ef2929;stroke-width:1px;stroke-linecap:butt;stroke-linejoin:miter;stroke-opacity:1" />
    <path
       sodipodi:nodetypes="cc"
       style="fill:#ef2929;fill-rule:evenodd;stroke:#ef2929;stroke-width:1px;stroke-linecap:butt;stroke-linejoin:miter;stroke-opacity:1"
       d="m 55,28 0,13"
       id="path68973"
       inkscape:connector-curvature="0" />
    <path
       style="fill:#ef2929;fill-rule:evenodd;stroke:#ef2929;stroke-width:1px;stroke-linecap:butt;stroke-linejoin:miter;stroke-opacity:1"
       d="M 37,45 55,28"
       id="path68977"
       inkscape:connector-curvature="0"
       sodipodi:nodetypes="cc" />
    <path
       sodipodi:nodetypes="cc"
       inkscape:connector-curvature="0"
       id="path68983"
       d="M 23,40 23,26"
       style="fill:#ef2929;fill-rule:evenodd;stroke:#ef2929;stroke-width:1px;stroke-linecap:butt;stroke-linejoin:miter;stroke-opacity:1" />
    <path
       sodipodi:nodetypes="cc"
       inkscape:connector-curvature="0"
       id="path68985"
       d="m 29,5 13,5"
       style="fill:#ef2929;fill-rule:evenodd;stroke:#ef2929;stroke-width:1px;stroke-linecap:butt;stroke-linejoin:miter;stroke-opacity:1" />
    <path
       style="fill:#ef2929;fill-rule:evenodd;stroke:#ef2929;stroke-width:1px;stroke-linecap:butt;stroke-linejoin:miter;stroke-opacity:1"
       d="M 23,26 42,10"
       id="path68989"
       inkscape:connector-curvature="0"
       sodipodi:nodetypes="cc" />
    <path
       style="fill:#ef2929;fill-rule:evenodd;stroke:#ef2929;stroke-width:1px;stroke-linecap:butt;stroke-linejoin:miter;stroke-opacity:1"
       d="M 19,13 29,5"
       id="path68993"
       inkscape:connector-curvature="0"
       sodipodi:nodetypes="cc" />
    <path
       style="fill:#ef2929;fill-rule:evenodd;stroke:#ef2929;stroke-width:1px;stroke-linecap:butt;stroke-linejoin:miter;stroke-opacity:1"
       d="m 55,15 -9,8"
       id="path68997"
       inkscape:connector-curvature="0"
       sodipodi:nodetypes="cc" />
    <path
       sodipodi:nodetypes="cc"
       inkscape:connector-curvature="0"
       id="path69030"
       d="M 42,23 42,10"
       style="fill:#ef2929;fill-rule:evenodd;stroke:#ef2929;stroke-width:1px;stroke-linecap:butt;stroke-linejoin:miter;stroke-opacity:1" />
    <path
       style="fill:#ef2929;fill-rule:evenodd;stroke:#ef2929;stroke-width:1px;stroke-linecap:butt;stroke-linejoin:miter;stroke-opacity:1"
       d="m 42,23 14,5"
       id="path69034"
       inkscape:connector-curvature="0"
       sodipodi:nodetypes="cc" />
    <path
       sodipodi:nodetypes="cc"
       inkscape:connector-curvature="0"
       id="path69036"
       d="M 23,40 42,23"
       style="fill:#ef2929;fill-rule:evenodd;stroke:#ef2929;stroke-width:1px;stroke-linecap:butt;stroke-linejoin:miter;stroke-opacity:1" />
  </g>
</svg>
