<?xml version="1.0" encoding="UTF-8" standalone="no"?>
<!-- Created with Inkscape (http://www.inkscape.org/) -->

<svg
   width="210mm"
   height="210mm"
   viewBox="0 0 210 210"
   version="1.1"
   id="svg12"
   xml:space="preserve"
   inkscape:version="1.2-beta (1b65182ce9, 2022-04-05)"
   sodipodi:docname="Sketcher_new_sketch.svg"
   xmlns:inkscape="http://www.inkscape.org/namespaces/inkscape"
   xmlns:sodipodi="http://sodipodi.sourceforge.net/DTD/sodipodi-0.dtd"
   xmlns="http://www.w3.org/2000/svg"
   xmlns:svg="http://www.w3.org/2000/svg"><sodipodi:namedview
     id="namedview14"
     pagecolor="#505050"
     bordercolor="#eeeeee"
     borderopacity="1"
     inkscape:pageshadow="0"
     inkscape:pageopacity="0"
     inkscape:pagecheckerboard="0"
     inkscape:deskcolor="#505050"
     inkscape:document-units="mm"
     showgrid="false"
     inkscape:zoom="0.53354917"
     inkscape:cx="498.54824"
     inkscape:cy="212.72641"
     inkscape:window-width="1920"
     inkscape:window-height="1028"
     inkscape:window-x="1913"
     inkscape:window-y="-6"
     inkscape:window-maximized="1"
     inkscape:current-layer="g3939" /><defs
     id="defs9"><inkscape:path-effect
       effect="spiro"
       id="path-effect2757"
       is_visible="true"
       lpeversion="1" /><inkscape:path-effect
       effect="spiro"
       id="path-effect72"
       is_visible="true"
       lpeversion="1" /></defs><g
     inkscape:label="Layer 1"
     inkscape:groupmode="layer"
     id="layer1"><path
       style="color:#000000;fill:#00ff00;stroke:#000000;stroke-width:3.1;stroke-dasharray:none"
       d="M 168.68945,5.9746094 63.263672,6.7265625 h -0.0078 c 0,0 -27.895328,-0.7942129 -44.339843,16.8632815 C 10.263838,32.88023 7.6702703,46.048564 6.4375,56.890625 5.2047297,67.732686 5.7539063,76.685547 5.7539062,76.685547 L 5.7402344,76.261719 V 205.40625 H 87.59375 V 191.30664 H 19.841797 V 76.050781 l -0.01367,-0.21289 c 0,0 -0.463247,-7.834049 0.619141,-17.353516 1.082388,-9.519467 4.131972,-20.286643 8.787109,-25.285156 C 39.560125,22.111822 63.388672,20.826172 63.388672,20.826172 L 168.79102,20.074219 Z"
       id="path285" /><g
       style="stroke:#271903;stroke-width:1"
       transform="matrix(-1.5353241,0.17767614,-0.32517498,1.5389759,990.81681,-165.40163)"
       id="g3973"><g
         style="stroke-width:1"
         id="g3939"
         transform="matrix(1.890526,0,0,1.890526,-324.76668,-84.371599)"><path
           sodipodi:nodetypes="cccccc"
           inkscape:connector-curvature="0"
           id="path3969"
           d="m 477.31119,113.47336 5.38951,17.33174 -17.6928,-5.799 -2.03543,-4 10.17717,-10 z"
           style="fill:#e19f6c;fill-opacity:1;stroke:#271903;stroke-width:2.37868;stroke-linecap:butt;stroke-linejoin:round;stroke-opacity:1" /><path
           sodipodi:nodetypes="ccccc"
           inkscape:connector-curvature="0"
           id="path3843-5-6-9"
           d="m 448.20775,85.146554 -11.72304,11.869519 28.10416,27.543907 c 0.56118,-3.37983 8.75525,-11.27757 12.68395,-11.45162 z"
           style="fill:#f5881f;fill-opacity:1;stroke:#271903;stroke-width:2.37868;stroke-linecap:butt;stroke-linejoin:round;stroke-opacity:1" /><path
           sodipodi:nodetypes="ccccc"
           inkscape:connector-curvature="0"
           id="path3971"
           d="m 478.64122,121.98721 c -2.67776,0.26007 -4.35474,1.90785 -4.82615,4.74214 l 7.23923,2.37107 -2.41308,-7.11321 v 0"
           style="fill:#999999;stroke:none;stroke-width:0.997023px;stroke-linecap:butt;stroke-linejoin:round;stroke-opacity:1" /><rect
           style="fill:#d15361;fill-opacity:1;stroke:#280000;stroke-width:2.37886;stroke-linecap:round;stroke-linejoin:round;stroke-miterlimit:1.9;stroke-dasharray:none;stroke-opacity:1"
           id="rect3935"
           width="16.827255"
           height="6.0533857"
           x="-253.6333"
           y="369.12744"
           transform="matrix(-0.71328835,0.7008707,0.71328836,0.70087068,0,0)" /></g></g></g></svg>
